<?xml version="1.0" standalone="no"?>
<!DOCTYPE svg PUBLIC "-//W3C//DTD SVG 1.1//EN" "http://www.w3.org/Graphics/SVG/1.1/DTD/svg11.dtd" >
<svg xmlns="http://www.w3.org/2000/svg" xmlns:xlink="http://www.w3.org/1999/xlink" version="1.1">
<metadata></metadata>
<defs>
<font id="preto_serif_ot_std_regularRg" horiz-adv-x="1157" >
<font-face units-per-em="2048" ascent="1536" descent="-512" />
<missing-glyph horiz-adv-x="522" />
<glyph horiz-adv-x="0" />
<glyph horiz-adv-x="682" />
<glyph unicode=" "  horiz-adv-x="522" />
<glyph unicode="&#x09;" horiz-adv-x="522" />
<glyph unicode="&#xa0;" horiz-adv-x="522" />
<glyph unicode="!" horiz-adv-x="571" d="M328 356l-86 -4l-37 617l-35 346q67 14 153.5 19.5t131.5 -3.5l-72 -307zM168 92q0 55 33 87t82 32q53 0 86.5 -31t33.5 -88q0 -56 -33 -84t-87 -28q-52 0 -83.5 28t-31.5 84z" />
<glyph unicode="&#x22;" horiz-adv-x="925" d="M424 1505q-10 -48 -36 -156.5t-42 -197.5t-22 -188h-70q-24 335 -57 507q68 35 227 35zM760 1505q-10 -50 -36.5 -157t-42.5 -196.5t-22 -188.5h-69q-23 327 -58 507q68 35 228 35z" />
<glyph unicode="#" horiz-adv-x="1136" d="M109 -10l86 364h-195q14 81 37 109h184l94 401h-245q14 83 36 109h236l78 323q8 5 16.5 9.5t19.5 8t19 6.5t22 5.5t20 4t21.5 4t18.5 3.5l-88 -364h326l77 323q9 6 21 11.5t20.5 8.5t26 7t23 5t26 5t21.5 4l-88 -364h215q-3 -27 -24 -61.5t-44 -47.5h-174l-96 -401h282 q-3 -27 -23.5 -61.5t-43.5 -47.5h-242l-84 -348q-34 -11 -127 -16l86 364h-328l-83 -348q-34 -11 -127 -16zM442 864l-96 -401h328l94 401h-326z" />
<glyph unicode="$" horiz-adv-x="1120" d="M76 461l74 -19q60 -166 149 -313q103 -39 209 -45v504q-84 28 -141 51.5t-111.5 58t-86 74t-50.5 96t-19 127.5q0 144 111 237.5t297 108.5v183q43 29 106 41v-224q121 -6 227 -40.5t134 -75.5q7 -53 5.5 -170t-11.5 -191l-62 15q-103 276 -123 325q-91 27 -170 33v-504 q62 -21 99.5 -35t89 -36.5t82.5 -42.5t66 -50t54 -62t31.5 -75.5t12.5 -93.5q0 -83 -33.5 -149.5t-93.5 -109t-137.5 -67t-170.5 -30.5v-199q-37 -13 -106 -16v215q-144 6 -264.5 49t-149.5 88q-18 127 -18 342zM860 301q0 100 -56.5 154.5t-189.5 101.5v-471 q246 25 246 215zM274 1014q0 -103 52.5 -153t181.5 -95v471q-119 -9 -176.5 -64t-57.5 -159z" />
<glyph unicode="%" horiz-adv-x="1372" d="M215 76l852 1222q26 12 100.5 19.5t120.5 7.5q-36 -50 -90 -112.5t-98 -109.5t-119.5 -126t-116.5 -123l-542 -854h-136zM344 1337q291 0 291 -305q0 -134 -78.5 -220.5t-212.5 -86.5q-79 0 -136 24.5t-88.5 68t-46 96.5t-14.5 118q0 132 79.5 218.5t205.5 86.5z M479 1032q0 49 -2 80.5t-10 62.5t-22.5 48.5t-39.5 28t-61 10.5q-83 0 -108 -54t-25 -176q0 -123 30 -177t103 -54q77 0 106 53t29 178zM1022 598q291 0 291 -305q0 -134 -78.5 -220.5t-212.5 -86.5q-79 0 -136 24.5t-88.5 68t-46 96.5t-14.5 118q0 132 79.5 218.5 t205.5 86.5zM1157 293q0 49 -2 80t-10 62.5t-22.5 48.5t-39.5 27.5t-61 10.5q-83 0 -108 -53.5t-25 -175.5q0 -123 30 -177.5t103 -54.5q77 0 106 53t29 179z" />
<glyph unicode="&#x26;" horiz-adv-x="1513" d="M1343 643l5 -55q-69 -235 -256 -395q125 -75 200 -95l170 135l21 -20l4 -39q-35 -98 -97.5 -148.5t-132.5 -50.5q-135 0 -317 113q-199 -108 -430 -108q-96 0 -173.5 19t-128 50.5t-84.5 75t-48.5 91t-14.5 99.5q0 125 99.5 208t238.5 102q-96 169 -96 338 q0 173 115.5 276.5t288.5 103.5q92 0 166 -27.5t120 -75.5t70 -109.5t24 -131.5q0 -151 -126 -256.5t-343 -136.5q60 -74 107 -119q122 -124 297 -247q112 109 154 292l-158 41l-12 25l18 45h319zM475 991q0 -157 90 -305q28 -28 88 -14q111 27 183.5 109t72.5 218 q0 250 -215 250q-113 0 -166 -61.5t-53 -196.5zM592 84q154 0 274 53q-139 96 -280 244q-76 76 -144 174q-17 20 -65 2q-125 -53 -125 -217q0 -38 6.5 -70.5t28.5 -68t57.5 -60.5t99 -41t148.5 -16z" />
<glyph unicode="'" horiz-adv-x="569" d="M408 1505q-10 -50 -36.5 -157t-42.5 -196.5t-22 -188.5h-69q-23 327 -58 507q68 35 228 35z" />
<glyph unicode="(" horiz-adv-x="659" d="M309 557q0 -274 37.5 -460.5t106.5 -294t178 -171.5v-28l-39 -19q-69 25 -127.5 63t-102 82.5t-78.5 101t-58 112t-40.5 123t-27 125.5t-15 127.5t-7 122t-1.5 116.5q0 80 4 151t16 159.5t32 164t55 155t82 142t116 116t154 85.5l37 -14l2 -31q-167 -95 -245.5 -308.5 t-78.5 -619.5z" />
<glyph unicode=")" horiz-adv-x="659" d="M524 557q0 -64 -1.5 -116.5t-7 -122.5t-15 -127.5t-26.5 -125t-40.5 -123t-58 -112t-78 -101t-102 -82.5t-127.5 -63l-39 19v28q109 64 178 171.5t106 294t37 460.5q0 406 -78 619.5t-245 308.5l2 31l37 14q85 -32 154 -85.5t115.5 -116t81.5 -142t55 -155t32 -164 t16 -159.5t4 -151z" />
<glyph unicode="*" horiz-adv-x="1017" d="M158 1321q64 -30 158 -91.5t167 -99.5q-18 76 -45 183.5t-37 152.5q68 35 228 35q-13 -70 -45 -180.5t-49 -192.5q68 40 160 100t132 83q60 -60 99 -207q-73 -10 -186 -12.5t-187 -8.5q65 -46 156 -104t120 -78q-12 -34 -47 -74.5t-52.5 -56t-53.5 -45.5q-37 60 -83 160 t-85 168q-37 -72 -81 -176.5t-65 -145.5q-75 18 -194 123q57 47 150.5 115.5t148.5 111.5q-86 5 -206 8.5t-132 4.5q-17 80 29 227z" />
<glyph unicode="+" horiz-adv-x="978" d="M424 258v352h-358q14 83 36 109h322v346q38 26 121 41v-387h381q-3 -27 -24 -61.5t-44 -47.5h-313v-336q-35 -12 -121 -16z" />
<glyph unicode="," horiz-adv-x="569" d="M420 188l-279 -532h-78q9 27 26.5 75.5t22 61.5t15.5 50t14.5 57.5t11.5 66t14 94t15 123.5q51 14 121 15.5t117 -11.5z" />
<glyph unicode="-" horiz-adv-x="622" d="M121 575h422q-3 -27 -26.5 -67t-45.5 -53h-391q14 87 41 120z" />
<glyph unicode="." horiz-adv-x="569" d="M160 100q0 58 35 91.5t88 33.5q56 0 91.5 -32.5t35.5 -92.5q0 -59 -35 -89.5t-92 -30.5q-55 0 -89 30.5t-34 89.5z" />
<glyph unicode="/" horiz-adv-x="733" d="M-20 -133l628 1530q13 9 35.5 16.5t36.5 10.5t45.5 8t34.5 6l-639 -1555q-31 -11 -141 -16z" />
<glyph unicode="0" d="M80 664q0 309 134.5 494t367.5 185q115 0 201.5 -33.5t142 -92t90 -146t48 -186t13.5 -221.5q0 -312 -132.5 -498t-369.5 -186q-115 0 -201.5 34t-142 93.5t-90 147.5t-48 187t-13.5 222zM870 664q0 124 -8 213.5t-27.5 160.5t-52.5 114t-82 65t-118 22q-169 0 -232 -130 t-63 -445q0 -312 61 -446t227 -134q169 0 232 132.5t63 447.5z" />
<glyph unicode="1" d="M428 0l14 43l43 23l181 34v1033l-535 -117v63q76 29 318.5 111t308.5 106l92 47v-1245l180 -30l14 -23l-22 -45h-594z" />
<glyph unicode="2" d="M985 0h-909l12 76q39 94 124.5 205t168.5 184q68 48 102 72.5t82.5 62t70.5 59t51.5 54.5t41.5 58.5t25.5 61t17.5 72.5t4 82q0 121 -49.5 184.5t-161.5 63.5q-52 0 -127 -10q-57 -74 -144 -195.5t-108 -148.5l-43 37q2 21 5 61.5t5.5 64.5t6.5 53.5t10 49.5 q43 72 155.5 134t239.5 62q420 0 420 -360q0 -165 -129 -292t-467 -312q-87 -131 -149 -238h596l129 258l67 19q-3 -27 -9 -96.5t-10 -111.5t-11.5 -102.5t-16.5 -107.5z" />
<glyph unicode="3" d="M532 -20q-127 0 -230.5 34.5t-143.5 79.5q-13 22 -18.5 93.5t-10.5 232.5l61 -12q3 -7 18.5 -42t28 -61.5t30.5 -63.5t38 -70t39 -58q91 -31 170 -31q162 0 236.5 66.5t74.5 199.5q0 61 -16 105.5t-55 80t-110.5 53t-176.5 17.5q-15 0 -156 -6q3 26 18 67.5t29 59.5 q35 -4 101 -4q99 0 166 18t103.5 55t51.5 84t15 113t-21 114.5t-57 76t-79 40.5t-93 13q-70 0 -113 -8q-36 -42 -78.5 -103.5t-88 -130.5t-56.5 -86l-43 39q13 176 31 228q45 71 142 120t236 49q106 0 197 -38.5t150 -119t59 -188.5q0 -134 -102 -219t-304 -108 q211 0 328 -90t117 -240q0 -167 -138 -263.5t-350 -96.5z" />
<glyph unicode="4" d="M428 0l12 47l37 23l174 34v248h-616l8 70l438 588q122 170 254 293l101 36v-888h264q-3 -23 -21.5 -55t-36.5 -44h-206v-250l188 -30l12 -23l-20 -49h-588zM328 451h323v464l6 211l-395 -575l-74 -107z" />
<glyph unicode="5" d="M193 625l-11 698h819q-6 -75 -49 -152h-620l-47 -442q89 14 221 14q122 0 216.5 -22t152 -57.5t94.5 -86.5t51 -103t14 -112q0 -164 -129 -273t-354 -109q-140 0 -239.5 33t-151.5 81q-13 22 -18.5 93.5t-10.5 232.5l62 -12q0 -1 18 -42t28.5 -64t30 -63t39 -72.5 t39.5 -57.5q86 -27 176 -27q165 0 235 68t70 206q0 71 -16.5 120t-58.5 87.5t-119.5 57t-194.5 18.5q-152 0 -247 -14z" />
<glyph unicode="6" d="M651 1243q-179 0 -259 -136t-89 -429q48 53 140.5 80.5t174.5 27.5q113 0 198.5 -29.5t137.5 -82t77.5 -120.5t25.5 -151q0 -180 -127.5 -301.5t-339.5 -121.5q-490 0 -490 632q0 120 22 227t68 200t112.5 160t162 105.5t209.5 38.5q87 0 199 -35t141 -77q10 -30 10 -131 q0 -94 -8 -180l-64 14q-84 209 -116 274q-77 35 -185 35zM303 551q1 -98 9.5 -168.5t27.5 -130t51 -95.5t80.5 -55.5t116.5 -19.5q149 0 209.5 77t60.5 218q0 165 -65 235t-224 70q-46 0 -89 -6t-85 -19.5t-67 -40.5t-25 -65z" />
<glyph unicode="7" d="M147 1323h949l14 -35l-96 -201l-264 -481q-36 -100 -104.5 -295.5t-108.5 -304.5q-98 -17 -250 -6q55 128 173 332.5t276 463.5t229 384h-680l-109 -279l-59 -14z" />
<glyph unicode="8" d="M588 -20q-244 0 -363 93t-119 261q0 52 15.5 98t50.5 89.5t100 76t156 49.5q-130 58 -198 141t-68 211q0 66 28 127t80.5 110t135.5 78t184 29q114 0 200.5 -30.5t134 -80.5t70.5 -106t23 -116q0 -56 -13.5 -102t-45 -88t-90 -72t-140.5 -46q153 -64 237.5 -151.5 t84.5 -214.5q0 -153 -122 -254.5t-341 -101.5zM584 78q280 0 280 217q0 62 -25.5 112.5t-73.5 86.5t-96 59.5t-114 46.5q-43 17 -84 8.5t-94 -57.5q-88 -76 -88 -217q0 -256 295 -256zM584 1245q-246 0 -246 -233q0 -101 61.5 -159.5t218.5 -111.5q94 -21 166 78 q54 73 54 176q0 250 -254 250z" />
<glyph unicode="9" d="M489 84q83 0 145 29t99 75.5t60.5 119.5t32.5 144t12 166q-46 -53 -128.5 -79.5t-172.5 -26.5q-92 0 -165 21.5t-120 57.5t-78 88t-44 109.5t-13 124.5q0 187 128 308.5t339 121.5q104 0 183.5 -32t130.5 -86.5t83.5 -135t45.5 -170.5t13 -200q0 -117 -13 -214.5 t-50.5 -197.5t-98 -169t-163.5 -112.5t-240 -43.5q-92 0 -181.5 26t-125.5 66q-31 56 -39 325l74 -12q87 -206 162 -291q47 -12 124 -12zM840 754v20q0 93 -5 156.5t-21 126t-45.5 99t-79.5 59t-122 22.5q-256 0 -256 -313q0 -77 12.5 -130.5t43 -95t86.5 -62t139 -20.5 q45 0 85.5 6.5t79 20.5t61 42.5t22.5 68.5z" />
<glyph unicode=":" horiz-adv-x="569" d="M160 100q0 58 35 91.5t88 33.5q56 0 91.5 -32.5t35.5 -92.5q0 -59 -35 -89.5t-92 -30.5q-55 0 -89 30.5t-34 89.5zM160 889q0 58 35 91.5t88 33.5q56 0 91.5 -32.5t35.5 -92.5q0 -59 -35 -90t-92 -31q-55 0 -89 31t-34 90z" />
<glyph unicode=";" horiz-adv-x="569" d="M160 889q0 58 35 91.5t88 33.5q56 0 91.5 -32.5t35.5 -92.5q0 -59 -35 -90t-92 -31q-55 0 -89 31t-34 90zM420 188l-279 -532h-78q9 27 26.5 75.5t22 61.5t15.5 50t14.5 57.5t11.5 66t14 94t15 123.5q51 14 121 15.5t117 -11.5z" />
<glyph unicode="&#x3c;" horiz-adv-x="978" d="M840 924l-588 -252l612 -287q-10 -74 -47 -111q-35 18 -341 171.5t-380 189.5l-18 70q79 38 239.5 110.5t333 148.5t213.5 95q11 -81 -24 -135z" />
<glyph unicode="=" horiz-adv-x="978" d="M102 541h824q-3 -27 -24 -61.5t-44 -47.5h-792q14 83 36 109zM102 901h824q-3 -27 -24 -61t-44 -47h-792q0 2 2 13.5t3 18t4 18.5t6.5 20.5t9 19t11.5 18.5z" />
<glyph unicode="&#x3e;" horiz-adv-x="978" d="M115 283q-11 81 24 135l588 248l-612 290q10 74 47 111q23 -12 334.5 -168t386.5 -192l18 -70q-79 -38 -239.5 -110.5t-333 -148.5t-213.5 -95z" />
<glyph unicode="?" horiz-adv-x="884" d="M104 1284q115 59 302 59q201 0 312 -97.5t111 -254.5q0 -75 -29.5 -136.5t-75.5 -102.5t-109 -71.5t-123 -46.5t-125 -26l22 -256h-156l-6 279l31 26q86 12 150 34t116 58.5t78.5 95t26.5 136.5q0 152 -63 209t-208 57q-45 0 -84 -8q-48 -141 -94 -305l-53 -8 q-23 168 -23 358zM203 92q0 55 32.5 87t81.5 32q53 0 87 -31t34 -88q0 -56 -33.5 -84t-87.5 -28q-52 0 -83 28t-31 84z" />
<glyph unicode="@" horiz-adv-x="1828" d="M975 1022q130 0 213 -80l55 66l43 -17l-117 -803q120 11 210 57.5t143.5 121t79.5 167t26 203.5q0 284 -169 458.5t-472 174.5q-159 0 -294 -55.5t-233 -158.5t-153 -257t-55 -342q0 -169 47 -304.5t139.5 -233t237.5 -150.5t334 -53q160 0 322.5 39.5t293.5 124.5 l25 -11v-39q-114 -107 -300 -168t-397 -61q-179 0 -325 44.5t-245 122t-166 185t-97.5 230t-30.5 260.5q0 191 59.5 356t170.5 289t282 195t381 71q150 0 275.5 -40.5t213 -109t149 -161t90 -195.5t28.5 -213q0 -134 -37 -246.5t-109 -197.5t-186.5 -132.5t-261.5 -47.5 q-73 0 -137 20l24 156q-43 -79 -106.5 -127.5t-141.5 -48.5q-233 0 -233 327q0 260 117.5 422t306.5 162zM1006 315q23 31 36 68v4l68 465q3 23 -0.5 32.5t-17.5 18.5q-40 25 -111 25q-76 0 -131.5 -49t-83.5 -129t-40.5 -160t-12.5 -164q0 -116 33 -159.5t100 -43.5 q84 0 160 92z" />
<glyph unicode="A" horiz-adv-x="1382" d="M821 45l21 23l190 49l-135 344h-526l-142 -342l258 -47l13 -27l-21 -45h-520l14 43l27 25l94 45l371 845q11 23 33.5 70.5t32 67t27.5 54.5t30.5 55.5t30.5 47t38 50.5l72 55q102 -224 274 -644t252 -601l125 -58l2 -24l-16 -31h-549zM563 922l-155 -373h454l-106 274 l-115 289z" />
<glyph unicode="B" horiz-adv-x="1300" d="M55 1274l21 49h674q112 0 196 -25.5t132.5 -71t72 -102t23.5 -123.5q0 -141 -77 -219t-202 -106q328 -40 328 -305q0 -77 -23 -140t-74.5 -117t-145 -84t-222.5 -30h-725l12 47l37 23l174 34v1117l-188 30zM758 623h-305v-525h290q77 0 133 22t87 61.5t45 85.5t14 100 q0 131 -63 193.5t-201 62.5zM682 1225h-229v-514h258q138 0 200 66.5t62 195.5q0 59 -10.5 100t-40 78t-89.5 55.5t-151 18.5z" />
<glyph unicode="C" horiz-adv-x="1208" d="M1108 1147q4 -54 4 -117q0 -165 -16 -287l-70 23q-10 27 -69.5 193.5t-88.5 238.5q-86 39 -176 39q-111 0 -190 -38t-126 -113.5t-68 -178.5t-21 -243q0 -279 97 -412t327 -133q107 0 206.5 36t206.5 124l27 -9v-41q-172 -249 -494 -249q-132 0 -235 37t-168 99.5 t-106.5 152t-58.5 185.5t-17 210q0 110 22.5 208.5t71.5 185t121 149.5t177.5 99.5t233.5 36.5q131 0 250 -59t160 -137z" />
<glyph unicode="D" horiz-adv-x="1431" d="M55 1274l21 49h665q149 0 260 -35t178.5 -93t109 -145.5t56.5 -179t15 -206.5q0 -140 -34 -256.5t-105 -209.5t-193.5 -145.5t-286.5 -52.5h-708l12 47l37 23l174 34v1117l-188 30zM735 1225h-282v-1127h282q227 0 317.5 131t90.5 435t-90 432.5t-318 128.5z" />
<glyph unicode="E" horiz-adv-x="1251" d="M55 1274l21 49h1036q3 -170 -12 -346l-62 12q-45 111 -88 236h-497v-508h563q0 -33 -49.5 -62.5t-100.5 -40.5h-413v-516h469l168 281l71 16q-21 -215 -49 -395h-1079l12 47l37 23l174 34v1117l-188 30z" />
<glyph unicode="F" horiz-adv-x="1142" d="M33 0l12 47l37 23l174 34v1117l-188 30l-13 23l21 49h1003q4 -188 -12 -367l-61 13q-29 71 -91 256h-462v-529h571q0 -33 -49.5 -62t-100.5 -40h-421v-492l282 -30l19 -23l-31 -49h-690z" />
<glyph unicode="G" horiz-adv-x="1341" d="M1202 643v-612l-53 -47l-84 90q-68 -45 -177 -69.5t-206 -24.5q-144 0 -253 37.5t-175.5 99t-108.5 152t-57.5 185.5t-15.5 210q0 110 23.5 208.5t75.5 185t128 149.5t187.5 99.5t248.5 36.5q157 0 291 -52.5t162 -114.5q6 -59 3 -164.5t-15 -188.5l-70 23 q-13 36 -54.5 151t-62.5 170q-120 70 -270 70q-230 0 -331 -138t-101 -435q0 -303 104.5 -434.5t339.5 -131.5q152 0 287 58v368l-275 58v34l33 27h426z" />
<glyph unicode="H" horiz-adv-x="1630" d="M33 0l12 47l37 23l174 34v1117l-188 30l-13 23l21 49h600l-12 -47l-37 -23l-174 -34v-502h725v504l-189 30l-12 23l20 49h600l-12 -47l-37 -23l-174 -34v-1117l189 -30l12 -23l-21 -49h-600l13 47l37 23l174 34v510h-725v-512l188 -30l12 -23l-20 -49h-600z" />
<glyph unicode="I" horiz-adv-x="708" d="M33 0l12 47l37 23l174 34v1117l-188 30l-13 23l21 49h600l-12 -47l-37 -23l-174 -34v-1117l188 -30l12 -23l-20 -49h-600z" />
<glyph unicode="J" horiz-adv-x="1009" d="M1016 1323l-12 -47l-35 -23l-162 -34v-828q0 -188 -107.5 -299.5t-332.5 -111.5q-99 0 -198.5 34.5t-139.5 89.5q-29 131 -29 349l70 -15q94 -243 176 -354q53 -16 106 -16q134 0 196 64.5t62 205.5v883l-233 30l-15 23l25 49h629z" />
<glyph unicode="K" horiz-adv-x="1406" d="M33 0l12 47l37 23l174 34v1117l-188 30l-13 23l21 49h559l-12 -47l-37 -23l-133 -34v-1117l147 -30l12 -23l-20 -49h-559zM899 45l21 23l98 24l-475 533l-8 59l552 514l-221 53l-12 27l20 45h439l-13 -66q-285 -285 -585 -550l542 -601l138 -40l12 -35l-16 -31h-496z" />
<glyph unicode="L" horiz-adv-x="1159" d="M1049 436l69 17q-33 -347 -55 -453h-1030l12 47l37 23l174 34v1117l-188 30l-13 23l21 49h624l-12 -47l-41 -23l-194 -34v-1117h426z" />
<glyph unicode="M" horiz-adv-x="1716" d="M1049 0l12 47l37 23l174 34v795q0 129 6 223q-58 -115 -76 -143l-213 -352q-10 -14 -38 -57t-51 -73t-50 -57l-70 -14l-323 532q-39 62 -80 156q4 -152 4 -217v-795l188 -30l13 -23l-21 -49h-528l12 47l37 23l174 34v1117l-188 30l-13 23l21 49h379l415 -709l406 709h407 l-12 -47l-37 -23l-174 -34v-1117l189 -30l12 -23l-21 -49h-591z" />
<glyph unicode="N" horiz-adv-x="1542" d="M999 1274l21 49h528l-12 -47l-37 -23l-174 -34v-723q0 -449 -14 -510l-27 -19l-180 195q-326 407 -637 815l-90 137q4 -118 4 -176v-836l188 -30l13 -23l-21 -49h-528l12 47l37 23l174 34v1117l-188 30l-13 23l21 49h368q283 -399 686 -909l74 -111q-4 110 -4 162v756 l-188 30z" />
<glyph unicode="O" horiz-adv-x="1388" d="M692 88q96 0 167.5 26t117.5 73t74.5 120.5t39.5 159t11 197.5t-11 197.5t-39.5 158.5t-74.5 119t-117.5 72t-167.5 26q-120 0 -200.5 -38t-124.5 -115.5t-62 -177.5t-18 -242q0 -113 10.5 -198t38 -158.5t73 -120.5t116.5 -73t167 -26zM692 -20q-109 0 -197.5 19.5 t-152 53t-111.5 84t-78 107t-48.5 128t-25.5 141t-7 151.5q0 110 21.5 208t69.5 185.5t118.5 150t175.5 99t235 36.5q151 0 263.5 -37t180.5 -98t109.5 -151.5t56.5 -183.5t15 -209q0 -111 -20.5 -209.5t-68 -186.5t-118.5 -151t-178 -100t-240 -37z" />
<glyph unicode="P" horiz-adv-x="1193" d="M33 0l12 47l37 23l174 34v1117l-188 30l-13 23l21 49h678q116 0 202 -27.5t136 -77t74 -113t24 -142.5q0 -195 -132 -292.5t-362 -97.5h-243v-471l282 -30l19 -23l-31 -49h-690zM705 1225h-252v-557h229q172 0 240.5 71.5t68.5 210.5q0 66 -11 112t-40.5 85t-88 58.5 t-146.5 19.5z" />
<glyph unicode="Q" horiz-adv-x="1388" d="M1280 -180q-75 -72 -172 -133q-99 105 -264 307q-66 -14 -152 -14q-109 0 -197.5 19.5t-152 53t-111.5 84t-78 107t-48.5 128t-25.5 141t-7 151.5q0 110 21.5 208t69.5 185.5t118.5 150t175.5 99t235 36.5q151 0 263.5 -37t180.5 -98t109.5 -151.5t56.5 -183.5t15 -209 q0 -104 -19 -197t-58.5 -176t-104.5 -148.5t-152 -105.5q161 -129 297 -217zM692 88q24 0 70 4l-123 144l23 57l217 -174q124 53 173.5 187t49.5 358q0 112 -11 197.5t-39.5 158.5t-74.5 119t-117.5 72t-167.5 26q-120 0 -200.5 -38t-124.5 -115.5t-62 -177.5t-18 -242 q0 -113 10.5 -198t38 -158.5t73 -120.5t116.5 -73t167 -26z" />
<glyph unicode="R" horiz-adv-x="1396" d="M33 0l12 47l37 23l174 34v1117l-188 30l-13 23l21 49h651q228 0 332 -92t104 -254q0 -154 -100.5 -245.5t-284.5 -108.5q84 -35 150.5 -93t130.5 -143q90 -121 182 -278l143 -43l13 -35l-17 -31h-477l4 45l21 23l102 24q-118 198 -184 289q-31 42 -47.5 62.5t-46.5 53 t-53.5 49.5t-57 34.5t-70.5 25.5h-118v-504l147 -30l12 -23l-20 -49h-559zM453 1225v-533h202q164 0 237 69t73 204q0 130 -64 195t-223 65h-225z" />
<glyph unicode="S" horiz-adv-x="1101" d="M76 461l74 -19q59 -163 151 -315q101 -43 219 -43q149 0 235.5 55.5t86.5 161.5q0 54 -23 97.5t-69 77t-98.5 57.5t-127.5 49q-88 29 -145 53t-112 58t-85 73t-48.5 95t-18.5 128q0 158 123.5 256t330.5 98q130 0 243.5 -36t143.5 -82q7 -58 7 -142q0 -123 -13 -219 l-61 15q-87 237 -123 327q-90 33 -205 33q-135 0 -203.5 -57t-68.5 -160q0 -39 9 -71t21 -56t37 -45.5t46 -35t58.5 -29.5t63.5 -24.5t72 -23.5q59 -19 100.5 -34t90 -37t81.5 -43.5t66 -51t52.5 -63t31.5 -77t12 -93.5q0 -91 -40.5 -161t-112 -112t-161 -63.5t-194.5 -21.5 q-152 0 -274.5 44.5t-153.5 94.5q-18 127 -18 342z" />
<glyph unicode="T" horiz-adv-x="1261" d="M942 49l-20 -49h-600l12 47l37 23l174 34v1121h-281q-51 -133 -160 -361l-55 -12l25 471h1140q2 -88 -1.5 -239.5t-10.5 -231.5l-53 12q-22 53 -117 361h-291v-1123l189 -30z" />
<glyph unicode="U" horiz-adv-x="1482" d="M934 1274l20 49h543l-12 -47l-37 -23l-174 -34v-750q0 -81 -15 -150t-52 -133t-95 -108.5t-148.5 -71t-207.5 -26.5q-153 0 -258.5 29.5t-168.5 91t-90.5 149t-27.5 211.5v760l-188 30l-13 23l21 49h600l-13 -47l-36 -23l-174 -34v-752q0 -198 80 -281.5t286 -83.5 q184 0 272.5 86.5t88.5 272.5v760l-189 30z" />
<glyph unicode="V" horiz-adv-x="1259" d="M823 1278l21 45h416l-11 -63l-372 -863q-14 -30 -49.5 -109t-52.5 -114.5t-48 -86t-61 -83.5l-76 -12q-65 137 -145 345t-176 473t-150 402l-117 56l-2 24l16 31h523l-4 -45l-21 -23l-195 -51l279 -749l90 -236l78 195l317 770l-247 67z" />
<glyph unicode="W" horiz-adv-x="1722" d="M514 4l-61 -12q-70 241 -129 461q-40 148 -111.5 424.5t-85.5 330.5l-125 60l-2 24l16 31h523l-4 -45l-21 -23l-188 -49l194 -788l31 -133l67 166l267 630l67 31l265 -661l67 -179l43 152l225 760l-268 67l-12 27l20 45h420l-10 -63l-297 -943q-58 -182 -123 -313 l-57 -12l-291 725l-49 119l-49 -123l-164 -385q-4 -10 -18 -43.5t-20 -47t-19 -43.5t-22.5 -49t-23 -45t-27 -49.5t-28.5 -46.5z" />
<glyph unicode="X" horiz-adv-x="1331" d="M596 1278l-21 -23l-176 -45l224 -303l94 -127l344 416l-236 55l-12 27l21 45h438l-12 -66q-90 -114 -275.5 -321.5t-208.5 -233.5l436 -593l117 -54l2 -24l-16 -31h-522l4 45l20 23l164 43l-297 399l-41 59l-352 -454l231 -43l13 -27l-21 -45h-524l14 43l27 25l94 45 q154 191 453 549l-412 557l-103 49l-2 24l17 31h522z" />
<glyph unicode="Y" horiz-adv-x="1230" d="M317 0l13 47l37 23l174 34v437l-426 680l-103 47l-2 24l17 31h526l-4 -45l-21 -23l-192 -47l217 -352l125 -205l117 180l237 357l-231 63l-13 27l21 45h416l-11 -66q-75 -123 -257 -376.5t-220 -309.5v-469l189 -30l12 -23l-20 -49h-601z" />
<glyph unicode="Z" horiz-adv-x="1177" d="M127 1323h936l24 -37q-32 -104 -137 -268l-667 -920h602l164 305l71 29q-22 -265 -53 -432h-1010l6 63q152 236 444 638t376 524h-566q-56 -144 -159 -361l-56 -12z" />
<glyph unicode="[" horiz-adv-x="673" d="M186 1509h478q-5 -40 -68 -77h-238v-1749h306q-5 -41 -68 -78h-410l29 952z" />
<glyph unicode="\" horiz-adv-x="757" d="M639 -133l-629 1530q5 7 14 13t24 10.5t25.5 7t29.5 6t24 4.5l641 -1555q-23 -11 -129 -16z" />
<glyph unicode="]" horiz-adv-x="673" d="M487 -395h-477q5 41 68 78h237v1749h-305q5 40 68 77h409l-28 -952z" />
<glyph unicode="^" horiz-adv-x="731" d="M299 1204l-152 -270q-88 4 -131 20l310 521l80 22l309 -526q-50 -33 -119 -41l-158 282q-44 76 -69 142q-45 -107 -70 -150z" />
<glyph unicode="_" horiz-adv-x="778" d="M37 -106h741q-3 -28 -24 -64t-43 -49h-711q15 86 37 113z" />
<glyph unicode="`" horiz-adv-x="819" d="M614 1143l-36 -39q-186 129 -433 266q42 82 129 150q54 -58 166.5 -186.5t173.5 -190.5z" />
<glyph unicode="a" horiz-adv-x="1265" d="M745 39l19 20l160 39l-113 260h-459l-119 -256l218 -39l12 -24l-19 -39h-456l12 39l25 20l81 39l316 631q16 31 43 86t42.5 85.5t40.5 69.5t50 68l76 54q76 -153 145.5 -301.5t173 -377.5t142.5 -315l108 -45l2 -24l-14 -29h-492zM514 709l-125 -269h387l-90 211 q-45 100 -96 226z" />
<glyph unicode="b" horiz-adv-x="1198" d="M70 1020l18 41h604q192 0 283.5 -72t91.5 -186q0 -112 -68.5 -174.5t-179.5 -85.5q291 -32 291 -248q0 -61 -20.5 -111t-65.5 -93t-127.5 -67t-196.5 -24h-649l10 39l33 22l150 31v879l-164 28zM686 494h-254v-406h242q129 0 185 57.5t56 149.5q0 99 -54.5 149t-174.5 50 zM623 973h-191v-398h215q227 0 227 201q0 48 -9 80.5t-34.5 61t-77 42t-130.5 13.5z" />
<glyph unicode="c" horiz-adv-x="1107" d="M999 922q5 -45 5 -84q0 -142 -17 -246l-63 18q-18 42 -68 168t-74 180q-87 27 -147 27q-186 0 -266 -111.5t-80 -336.5q0 -217 83.5 -325t282.5 -108q190 0 359 125l24 -12v-35q-154 -200 -438 -200q-117 0 -208 30t-148.5 80t-94.5 122t-52 149.5t-15 168.5 q0 111 32.5 207t97.5 173.5t173.5 122t249.5 44.5q117 0 222.5 -47t141.5 -110z" />
<glyph unicode="d" horiz-adv-x="1306" d="M68 1020l18 41h594q110 0 196.5 -19t145.5 -55t99.5 -82.5t62.5 -108.5t31.5 -125t9.5 -139q0 -113 -30 -206t-92 -167.5t-170 -116.5t-253 -42h-629l10 39l33 22l148 31v879l-162 28zM668 971h-238v-881h238q195 0 271.5 99.5t76.5 342.5t-75.5 341t-272.5 98z" />
<glyph unicode="e" horiz-adv-x="1146" d="M70 1020l18 41h918q3 -130 -11 -289l-57 10q-26 53 -80 189h-426v-389h488q0 -27 -45.5 -58t-86.5 -39h-356v-395h404l147 223l66 15q-17 -183 -43 -328h-955l10 39l33 22l150 31v879l-164 28z" />
<glyph unicode="f" horiz-adv-x="1054" d="M51 0l10 39l33 22l150 31v879l-164 28l-10 21l18 41h889q4 -152 -10 -309l-58 10q-15 34 -45.5 116t-34.5 93h-397v-408h496q0 -27 -45.5 -56t-87.5 -38h-363v-379l244 -27l16 -22l-26 -41h-615z" />
<glyph unicode="g" horiz-adv-x="1226" d="M1085 518v-491l-49 -41l-78 73q-59 -37 -152.5 -57t-182.5 -20q-106 0 -191 20.5t-143.5 58.5t-99.5 87t-64 113t-33 129.5t-10 141.5q0 87 20.5 165t66 148.5t113 122t167.5 81.5t223 30q138 0 255.5 -42t143.5 -93q6 -49 3 -134.5t-13 -152.5l-64 19q-18 42 -53 128.5 t-53 127.5q-97 51 -232 51q-197 0 -283.5 -107.5t-86.5 -343.5q0 -228 90 -335t293 -107q133 0 237 39v289l-231 45l-2 29l29 26h380z" />
<glyph unicode="h" horiz-adv-x="1480" d="M51 0l10 39l33 22l150 31v879l-164 28l-10 21l18 41h535l-11 -39l-32 -21l-148 -32v-387h617v389l-162 28l-13 21l19 41h537l-11 -39l-33 -21l-149 -32v-879l164 -27l10 -22l-18 -41h-535l10 39l33 22l148 31v393h-617v-395l162 -27l10 -22l-16 -41h-537z" />
<glyph unicode="i" horiz-adv-x="673" d="M604 41l-16 -41h-537l10 39l33 22l150 31v879l-164 28l-10 21l18 41h535l-11 -39l-32 -21l-148 -32v-879l162 -27zM219 1358q0 53 34.5 85t86.5 32t87.5 -32t35.5 -85t-35 -84t-88 -31q-52 0 -86.5 31t-34.5 84z" />
<glyph unicode="j" horiz-adv-x="937" d="M922 1061l-11 -39l-30 -21l-138 -32v-652q0 -154 -96 -243.5t-299 -89.5q-87 0 -176.5 27.5t-124.5 70.5q-24 98 -24 291l65 -13q65 -158 148 -280q54 -14 98 -14q114 0 167.5 53t53.5 160v692l-203 28l-12 21l22 41h560z" />
<glyph unicode="k" horiz-adv-x="1286" d="M811 39l20 20l80 21l-405 418l-6 49l473 407l-189 41l-10 29l19 37h395l-10 -55q-323 -287 -502 -435l459 -475l125 -37l10 -30l-15 -29h-448zM51 0l10 39l33 22l150 31v879l-164 28l-10 21l18 41h502l-10 -39l-33 -21l-117 -32v-879l127 -27l12 -22l-18 -41h-500z" />
<glyph unicode="l" horiz-adv-x="1064" d="M946 360l64 13q-21 -244 -47 -373h-912l10 39l33 22l150 31v879l-164 28l-10 21l18 41h555l-10 -39l-35 -21l-166 -32v-875h365z" />
<glyph unicode="m" horiz-adv-x="1556" d="M942 0l10 39l33 22l150 31v598q0 136 4 189q-34 -73 -70 -125l-174 -248q-9 -12 -27 -38.5t-30 -43t-30.5 -39t-37.5 -41.5l-65 -14l-279 413q-39 56 -72 129q4 -118 4 -172v-610l164 -27l10 -22l-18 -41h-463l10 39l33 22l150 31v879l-164 28l-10 21l18 41h346l354 -547 l349 547h370l-12 -39l-31 -21l-149 -32v-879l164 -27l10 -22l-19 -41h-528z" />
<glyph unicode="n" horiz-adv-x="1394" d="M897 1020l16 41h465l-10 -39l-33 -21l-149 -32v-572q0 -335 -12 -403l-29 -23l-166 164q-394 426 -541 600q-17 19 -82 113q2 -45 2 -141v-617l164 -27l10 -22l-18 -41h-463l10 39l33 22l150 31v879l-164 28l-10 21l18 41h326q97 -117 295 -343.5t295 -344.5 q58 -77 69 -94q-4 47 -4 149v543l-162 28z" />
<glyph unicode="o" horiz-adv-x="1267" d="M631 78q102 0 170.5 29.5t106.5 90.5t53.5 140.5t15.5 193.5q0 91 -9.5 158.5t-33 125t-62.5 93.5t-99 56t-142 20q-102 0 -169.5 -29t-105 -90t-52.5 -140t-15 -194t15 -194t52.5 -140.5t105 -90.5t169.5 -29zM631 -18q-112 0 -200 20t-147 58.5t-99.5 87.5t-62.5 113.5 t-31 129t-9 141.5q0 111 31.5 207t95 173.5t172 122t250.5 44.5q112 0 200.5 -20t148.5 -58.5t101 -87t63.5 -112.5t32 -128t9.5 -141q0 -90 -18 -168.5t-60 -149.5t-105 -122t-158 -80.5t-214 -29.5z" />
<glyph unicode="p" horiz-adv-x="1105" d="M51 0l10 39l33 22l150 31v879l-164 28l-10 21l18 41h602q204 0 296.5 -79.5t92.5 -215.5q0 -156 -117 -235.5t-321 -79.5h-209v-361l244 -27l16 -22l-26 -41h-615zM639 973h-207v-436h189q148 0 207 55.5t59 165.5q0 54 -10 90.5t-36 66.5t-76 44t-126 14z" />
<glyph unicode="q" horiz-adv-x="1267" d="M1153 -141q-82 -75 -162 -121q-82 82 -233 254q-65 -10 -127 -10q-112 0 -200 20t-147 58.5t-99.5 87.5t-62.5 113.5t-31 129t-9 141.5q0 111 31.5 207t95 173.5t172 122t250.5 44.5q112 0 200.5 -20t148.5 -58.5t101 -87t63.5 -112.5t32 -128t9.5 -141 q0 -173 -71.5 -306.5t-221.5 -196.5q201 -136 260 -170zM631 78q35 0 51 2l-96 106l22 52q32 -25 101.5 -76t81.5 -60q104 41 145 146t41 284q0 91 -9.5 158.5t-33 125t-62.5 93.5t-99 56t-142 20q-102 0 -169.5 -29t-105 -90t-52.5 -140t-15 -194t15 -194t52.5 -140.5 t105 -90.5t169.5 -29z" />
<glyph unicode="r" horiz-adv-x="1277" d="M51 0l10 39l33 22l150 31v879l-164 28l-10 21l18 41h580q389 0 389 -281q0 -124 -89 -198t-251 -88q133 -45 250 -183q61 -73 151 -215l131 -37l11 -30l-15 -29h-432l4 39l19 20l82 21q-113 175 -152 223q-31 39 -51 61t-49 48t-60.5 42t-68.5 25h-107v-389l129 -29 l10 -20l-18 -41h-500zM618 973h-188v-418h170q142 0 204 54t62 161q0 103 -55 153t-193 50z" />
<glyph unicode="s" horiz-adv-x="1021" d="M88 377l68 -15q52 -129 133 -253q85 -33 194 -33q129 0 203 41t74 121q0 78 -70 124.5t-209 86.5q-95 28 -157 55.5t-110.5 65.5t-70.5 90t-22 122q0 134 111 215.5t296 81.5q114 0 215.5 -29.5t128.5 -66.5q7 -47 7 -113q0 -104 -13 -180l-55 12l-113 259 q-79 24 -176 24q-118 0 -176.5 -43.5t-58.5 -120.5q0 -33 8 -59.5t27.5 -47t39 -34.5t56 -28.5t63 -23t74.5 -22.5q74 -21 124.5 -39.5t103 -46.5t84 -59.5t51.5 -77.5t20 -102q0 -76 -36.5 -134.5t-100 -93.5t-143 -52t-171.5 -17q-138 0 -246 34.5t-137 75.5 q-16 103 -16 283z" />
<glyph unicode="t" horiz-adv-x="1155" d="M856 41l-16 -41h-537l10 39l33 22l150 31v877h-242q-33 -74 -137 -279l-54 -8l23 379h1010q0 -261 -13 -381l-51 10q-21 44 -100 279h-248v-879l162 -27z" />
<glyph unicode="u" horiz-adv-x="1345" d="M840 1020l18 41h479l-12 -39l-31 -21l-149 -32v-590q0 -65 -13.5 -121t-46 -107.5t-84 -87.5t-132.5 -57.5t-185 -21.5q-179 0 -285.5 44t-151 127t-44.5 216v600l-162 28l-12 21l18 41h537l-11 -39l-32 -21l-150 -32v-590q0 -154 68.5 -217.5t245.5 -63.5q159 0 235 66 t76 211v596l-166 26z" />
<glyph unicode="v" d="M750 1024l18 37h369l-9 -51q-34 -72 -147 -313t-178 -371q-7 -15 -28 -58.5t-30 -61.5t-27.5 -53t-31.5 -55.5t-31.5 -45.5t-36.5 -44l-77 -18q-149 285 -420 977l-96 43l-5 22l15 29h469l-4 -39l-19 -21l-159 -40l231 -558l80 -202q43 110 74 178l266 565l-211 51z" />
<glyph unicode="w" horiz-adv-x="1562" d="M485 8l-65 -18q-51 150 -117 370q-15 50 -172 603l-106 47l-5 22l15 29h469l-4 -39l-19 -21l-159 -38l161 -578l33 -133l57 133l232 494l61 26l221 -471l68 -196l43 147l188 559l-229 51l-10 29l18 37h369l-8 -51l-260 -746q-47 -140 -109 -258l-63 -16l-248 540l-45 113 q-23 -60 -43 -102l-133 -279q-74 -155 -140 -254z" />
<glyph unicode="x" horiz-adv-x="1220" d="M553 1022l-18 -21l-142 -34l180 -219q18 -22 84 -117l291 321l-196 43l-13 29l19 37h389l-10 -55q-77 -90 -233 -251t-187 -194l373 -465l106 -43l4 -24l-16 -29h-469l4 39l20 20l131 33l-241 291q-20 25 -45 66l-301 -351l198 -35l13 -24l-19 -39h-463l13 39l24 20 l80 37q128 144 393 434l-350 439l-94 41l-4 22l14 29h469z" />
<glyph unicode="y" horiz-adv-x="1130" d="M299 0l10 39l33 22l150 31v332l-371 549l-88 37l-4 22l14 29h471l-4 -39l-21 -21l-155 -38l180 -267q21 -31 59 -92t52 -82q86 132 102 154l199 272l-193 47l-12 29l18 37h367l-8 -53q-50 -76 -118.5 -167t-160.5 -209.5t-139 -180.5v-361l162 -27l12 -22l-18 -41h-537z " />
<glyph unicode="z" horiz-adv-x="1085" d="M135 1061h830l22 -35q-26 -80 -121 -221l-571 -713h512l143 244l66 20q-18 -211 -47 -356h-899l6 57q129 181 378 495t328 419h-479q-55 -134 -139 -289l-51 -8z" />
<glyph unicode="{" horiz-adv-x="673" d="M664 -317q-5 -41 -68 -78h-72q-191 0 -272.5 75t-81.5 209q0 113 26.5 258.5t71.5 278.5q-148 74 -202 104l-15 52q116 57 219 98q-45 136 -72.5 283.5t-27.5 261.5q0 284 369 284h125q-5 -40 -68 -77h-76q-122 0 -165.5 -44t-43.5 -137q0 -58 44.5 -257t88.5 -330 l-272 -101l272 -112q-44 -133 -85.5 -323t-41.5 -259q0 -41 8 -71t28.5 -58t62.5 -42.5t104 -14.5h144z" />
<glyph unicode="|" horiz-adv-x="475" d="M174 -590v2171q35 24 127 41v-2195q-37 -13 -127 -17z" />
<glyph unicode="}" horiz-adv-x="673" d="M154 1432h-144q5 40 68 77h92q98 0 165.5 -20.5t103.5 -60.5t50.5 -88.5t14.5 -114.5q0 -111 -27 -256t-71 -281q179 -80 217 -100l-13 -56q-147 -72 -209 -98q46 -138 74.5 -285.5t28.5 -259.5q0 -65 -18 -114.5t-58.5 -88.5t-113.5 -60t-175 -21h-129q5 41 68 78h76 q122 0 165 43.5t43 136.5q0 58 -45 257.5t-88 330.5l273 104l-273 109q44 134 85.5 323t41.5 258q0 41 -8 71.5t-28.5 58.5t-62 42.5t-103.5 14.5z" />
<glyph unicode="~" horiz-adv-x="1144" d="M293 633l-176 -141l-58 40q139 189 252 236q31 -5 129 -35t228.5 -72t187.5 -59l180 141l47 -18q-30 -86 -98 -156t-119 -96q-77 0 -257 53t-316 107z" />
<glyph unicode="&#xa1;" horiz-adv-x="550" d="M225 637l86 4l37 -616l35 -347q-67 -14 -153.5 -19.5t-131.5 3.5l72 307zM385 901q0 -55 -33 -87t-82 -32q-53 0 -86.5 31t-33.5 88q0 56 33 84.5t87 28.5q52 0 83.5 -28.5t31.5 -84.5z" />
<glyph unicode="&#xa2;" horiz-adv-x="1024" d="M913 205l25 -21l-12 -34q-64 -72 -151.5 -114.5t-182.5 -51.5v-201q-37 -13 -107 -16v215q-188 13 -288.5 151t-100.5 365q0 190 102.5 332.5t286.5 175.5v186q43 29 107 41v-219q64 -2 137 -27t123.5 -60t56.5 -65q1 -59 -7 -164t-17 -166l-68 19q-14 40 -52.5 158 t-62.5 182q-50 17 -110 20v-809q168 0 321 103zM293 498q0 -325 192 -383v786q-73 -20 -116.5 -76.5t-59.5 -135t-16 -191.5z" />
<glyph unicode="&#xa3;" horiz-adv-x="1220" d="M68 711h147q-18 83 -18 168q0 210 135.5 337t374.5 127q137 0 252.5 -45.5t142.5 -105.5q4 -54 4 -82q0 -70 -12 -190l-62 14l-114 260q-98 43 -211 43q-150 0 -233 -80.5t-83 -241.5q0 -86 25 -204h469q-3 -25 -23 -49t-45 -39h-379q57 -193 62 -213l-23 -41l-237 -230 h680l147 264l72 29q-21 -255 -54 -432h-1030l8 63l265 297q-58 142 -92 263h-205q9 54 37 88z" />
<glyph unicode="&#xa4;" horiz-adv-x="1155" d="M578 307q-124 0 -201 47l-164 -204q-38 0 -81.5 8t-53.5 18l209 264q-60 88 -60 228q0 125 62 217l-211 268q10 10 53.5 18.5t81.5 8.5l164 -205q83 55 201 55q116 0 200 -51l164 207q33 0 70 -17.5t51 -31.5l-195 -248q58 -89 58 -223q0 -131 -64 -222l203 -254 q-16 -16 -49.5 -33.5t-65.5 -17.5l-178 219q-79 -51 -194 -51zM575 422q218 0 218 242q0 124 -53 183.5t-165 59.5q-219 0 -219 -243q0 -124 53 -183t166 -59z" />
<glyph unicode="&#xa5;" horiz-adv-x="1230" d="M317 0l13 47l37 23l174 34v261h-369q9 54 37 88h332v88l-54 86h-309q9 54 37 88h217l-317 506l-103 47l-2 24l17 31h526l-4 -45l-21 -23l-192 -47l217 -352l125 -205l117 180l237 357l-231 63l-13 27l21 45h416l-11 -66q-36 -60 -87 -135.5t-84.5 -123t-107 -148.5 t-97.5 -135h264q-3 -25 -23 -49t-45 -39h-260l-37 -56v-118h359q-3 -25 -23 -49t-45 -39h-291v-263l189 -30l12 -23l-20 -49h-601z" />
<glyph unicode="&#xa6;" horiz-adv-x="475" d="M174 657v924q35 24 127 41v-948q-37 -13 -127 -17zM174 -590v924q35 24 127 41v-948q-37 -13 -127 -17z" />
<glyph unicode="&#xa7;" horiz-adv-x="1079" d="M127 242l66 -19q47 -118 139 -260q77 -29 205 -29q130 0 190.5 42.5t60.5 115.5q0 29 -6.5 51.5t-25 42t-36.5 32.5t-58 30.5t-70.5 29t-94 35t-108.5 41.5q-168 65 -234.5 134t-66.5 182q0 92 46.5 160.5t139.5 99.5q-112 85 -112 233q0 137 115.5 218t318.5 81 q106 0 213.5 -34t136.5 -78q14 -134 -6 -283l-57 14q-37 103 -109 254q-88 33 -199 33q-118 0 -181.5 -49t-63.5 -135q0 -79 57.5 -127t228.5 -111q71 -26 117 -45t95.5 -44t79 -49.5t55 -56.5t36.5 -70t11 -85q0 -89 -47 -151t-119 -95q119 -75 119 -207 q0 -133 -121.5 -218t-302.5 -85q-137 0 -251.5 34t-142.5 79q-18 127 -18 289zM498 817q-101 38 -156 70q-30 9 -59 -29q-52 -65 -52 -137q0 -88 62.5 -134t238.5 -108q196 -71 244 -94q7 -2 13 -3t11.5 1.5t8.5 4.5t8 8t7 8t7 10q35 55 35 135q0 28 -8 52t-19 42t-34.5 36 t-42 30t-55.5 28t-61 25t-72 26.5t-76 28.5z" />
<glyph unicode="&#xa8;" horiz-adv-x="819" d="M90 1305q0 46 31 75t78 29q45 0 76.5 -29t31.5 -75t-31 -74.5t-77 -28.5q-47 0 -78 28.5t-31 74.5zM512 1305q0 46 31 75t78 29q45 0 76.5 -29t31.5 -75t-31 -74.5t-77 -28.5q-47 0 -78 28.5t-31 74.5z" />
<glyph unicode="&#xa9;" horiz-adv-x="1646" d="M113 662q0 116 29.5 223.5t89 199t143 159.5t198.5 106.5t248 38.5q149 0 270.5 -41t202.5 -110t136 -163t79.5 -197t24.5 -216q0 -145 -46 -274.5t-132.5 -230.5t-224.5 -160.5t-310 -59.5q-148 0 -269 41t-201.5 110t-135 163t-78.5 196.5t-24 214.5zM821 1282 q-272 0 -428.5 -165t-156.5 -455q0 -296 158 -457.5t427 -161.5q272 0 430 166t158 453q0 297 -158.5 458.5t-429.5 161.5zM1133 979q3 -38 -1 -145.5t-10 -165.5l-75 24q-14 39 -53 156.5t-58 165.5q-38 12 -78 12q-129 0 -186.5 -95.5t-57.5 -275.5q0 -340 267 -340 q140 0 266 107l22 -12v-31q-130 -182 -350 -182q-102 0 -179.5 37t-122.5 102.5t-67 145.5t-22 173t25.5 174.5t75 145.5t130 101.5t181.5 37.5q99 0 183.5 -39.5t109.5 -95.5z" />
<glyph unicode="&#xaa;" horiz-adv-x="845" d="M160 1081l-29 25q9 110 14 129q25 39 102.5 73.5t158.5 34.5q126 0 182.5 -62t56.5 -189v-355l125 -10l8 -20l-14 -23q-98 -29 -170 -35q-60 0 -94 31v74q-70 -109 -207 -109q-85 0 -137 45t-52 127q0 89 69 135.5t204 57.5l123 10v43q0 125 -20 166t-89 41q-37 0 -65 -8 q-75 -72 -166 -181zM109 537h667q-3 -23 -19 -49.5t-34 -36.5h-643q1 3 2.5 13t3.5 17.5t5 18t7.5 20t10.5 17.5zM369 735q52 0 89.5 25t41.5 65v138l-101 -7q-81 -4 -112 -31.5t-31 -82.5q0 -107 113 -107z" />
<glyph unicode="&#xab;" horiz-adv-x="950" d="M432 739l-227 -233l252 -264q-7 -65 -49 -127l-316 354l-20 66l358 368q14 -40 13.5 -88.5t-11.5 -75.5zM803 739l-228 -233l252 -264q-7 -65 -49 -127l-315 354l-21 66l359 368q14 -40 13.5 -88.5t-11.5 -75.5z" />
<glyph unicode="&#xac;" horiz-adv-x="978" d="M770 362v351h-704q0 2 2 13.5t3 18t4 18.5t6.5 20.5t9 19t11.5 18.5h777v-442q-40 -14 -109 -17z" />
<glyph unicode="&#xae;" horiz-adv-x="1261" d="M631 563q-119 0 -216 32.5t-160 87t-105.5 128.5t-61 153t-18.5 164q0 114 37 216.5t106 182t177 126.5t241 47q120 0 217 -32.5t160 -87t105.5 -129t60.5 -155t18 -168.5q0 -113 -35.5 -213.5t-103 -180t-176.5 -125.5t-246 -46zM631 653q212 0 332 127.5t120 347.5 q0 227 -121.5 352.5t-330.5 125.5q-208 0 -330.5 -126.5t-122.5 -351.5q0 -223 121.5 -349t331.5 -126zM635 850l-8 -19h-312l4 19l17 24l74 15v506l-80 14l-6 21l8 22h330q109 0 165 -44t56 -118q0 -72 -53.5 -115t-143.5 -51q60 -25 108.5 -80.5t116.5 -156.5l66 -15 l6 -22l-8 -19h-285l2 21l10 22l54 9q-9 17 -26.5 51t-30.5 56.5t-23 37.5q-4 6 -15.5 22t-14.5 19.5t-11.5 13t-14.5 13t-15.5 9t-22.5 9.5h-39v-225l88 -17zM543 1401v-240h67q129 0 129 123q0 65 -27 91t-96 26h-73z" />
<glyph unicode="&#xaf;" horiz-adv-x="819" d="M131 1348h610q-3 -28 -24 -64t-43 -49h-580q15 86 37 113z" />
<glyph unicode="&#xb0;" horiz-adv-x="684" d="M340 913q-72 0 -126 23t-84.5 62t-45 85.5t-14.5 98.5q0 109 73.5 187.5t196.5 78.5q69 0 122.5 -23t86 -61.5t49 -85.5t16.5 -98q0 -112 -71 -189.5t-203 -77.5zM340 1014q77 0 116.5 47.5t39.5 118.5q0 74 -41.5 121t-114.5 47t-114.5 -48t-41.5 -118q0 -75 41 -121.5 t115 -46.5z" />
<glyph unicode="&#xb1;" horiz-adv-x="978" d="M424 340v352h-358q14 83 36 109h322v346q38 26 121 41v-387h381q-3 -27 -24 -61.5t-44 -47.5h-313v-336q-35 -12 -121 -16zM102 256h824q-3 -27 -24 -61.5t-44 -47.5h-792q14 83 36 109z" />
<glyph unicode="&#xb2;" horiz-adv-x="755" d="M643 717h-569l8 55q26 64 77 132t97 102q46 33 66.5 48t52 40t44 39t30 36t23 40.5t10.5 42.5t5 53q0 149 -135 149q-13 0 -45 -4q-33 -40 -88 -111.5t-74 -93.5l-26 23q9 117 16 141q28 47 92.5 83t157.5 36q120 0 191 -56.5t71 -156.5q0 -39 -11 -72.5t-38 -65 t-53.5 -55t-77.5 -54.5t-88 -51t-107 -56q-11 -16 -75 -136h350l82 148l47 12q-23 -215 -33 -268z" />
<glyph unicode="&#xb3;" horiz-adv-x="761" d="M356 705q-86 0 -152 21.5t-93 51.5q-16 23 -19 199l45 -8q59 -129 101 -181q49 -14 96 -14q97 0 138.5 39.5t41.5 114.5q0 74 -44 109.5t-165 35.5q-28 0 -56 -1t-40 -1q2 14 13 43t20 39q20 -2 59 -2q113 0 155 39.5t42 122.5q0 70 -40 105.5t-104 35.5q-15 0 -61 -4 q-29 -34 -82.5 -108.5t-63.5 -86.5l-30 27q4 102 18 145q29 42 95 71.5t153 29.5q112 0 188 -56.5t76 -154.5q0 -81 -65 -133.5t-193 -65.5q137 -3 209 -54.5t72 -141.5q0 -102 -87 -159.5t-227 -57.5z" />
<glyph unicode="&#xb4;" horiz-adv-x="819" d="M340 1104l-37 39q61 62 173.5 190.5t166.5 186.5q87 -68 129 -150q-242 -134 -432 -266z" />
<glyph unicode="&#xb5;" horiz-adv-x="1193" d="M154 981l217 25l-41 -320v-395q0 -101 27 -144t116 -43q94 0 172.5 64t130.5 186q36 86 39 164v463l217 25l-41 -320v-590l189 -16l10 -25l-19 -32q-117 -29 -233 -39q-48 0 -70 10t-53 39v274q-36 -149 -127.5 -238t-222.5 -89q-148 0 -205 135q82 -317 143 -492 l-219 -41q-30 392 -30 635v764z" />
<glyph unicode="&#xb6;" horiz-adv-x="1243" d="M637 1323v-780h-123q-457 0 -457 389q0 391 447 391h133zM262 -199l17 68l440 92q16 157 16 490v845q36 24 125 41v-987q0 -498 -121 -592q-321 7 -477 43zM946 451v845q36 24 125 41v-987q0 -438 -61 -571q-76 -20 -123 -15q59 162 59 687z" />
<glyph unicode="&#xb7;" horiz-adv-x="569" d="M160 496q0 58 35 91.5t88 33.5q56 0 91.5 -32.5t35.5 -92.5q0 -59 -35 -90t-92 -31q-55 0 -89 31t-34 90z" />
<glyph unicode="&#xb8;" horiz-adv-x="819" d="M354 -154l-12 172h107l-11 -118q201 -8 201 -156q0 -72 -68 -120t-180 -48q-60 0 -110 21t-72 49l-2 26l20 17q24 -18 66 -29.5t80 -11.5q67 0 95 23.5t28 74.5q0 55 -21 78.5t-67 23.5q-36 0 -54 -2z" />
<glyph unicode="&#xb9;" horiz-adv-x="608" d="M154 717l10 28l24 17l105 24v592l-246 -55v47q44 19 163 63.5t155 59.5l71 35v-742l105 -22l10 -19l-14 -28h-383z" />
<glyph unicode="&#xba;" horiz-adv-x="890" d="M446 1343q91 0 155.5 -25.5t101 -73t53 -108.5t16.5 -141q0 -155 -86.5 -251.5t-239.5 -96.5q-90 0 -154.5 27.5t-100.5 77t-52 109.5t-16 134q0 152 89 250t234 98zM616 995q0 53 -4 91.5t-15 73t-29.5 55.5t-49 33t-72.5 12q-41 0 -70.5 -12t-47.5 -33t-28.5 -55.5 t-14.5 -73t-4 -91.5q0 -140 37.5 -202t127.5 -62q93 0 131.5 61.5t38.5 202.5zM113 537h708q-3 -23 -19 -49.5t-34 -36.5h-684q1 3 2.5 13t3.5 17.5t5 18t7.5 20t10.5 17.5z" />
<glyph unicode="&#xbb;" horiz-adv-x="950" d="M520 121q-14 40 -13.5 88.5t11.5 75.5l227 231l-251 266q7 65 49 127l315 -354l21 -66zM150 121q-14 36 -14 86.5t11 77.5l228 231l-252 266q7 65 49 127l315 -354l21 -66z" />
<glyph unicode="&#xbc;" horiz-adv-x="1374" d="M254 76l852 1222q26 12 100.5 19.5t120.5 7.5q-36 -50 -90 -112.5t-98 -109.5t-119.5 -126t-116.5 -123l-543 -854h-135zM928 0l6 23l22 16l103 16v92h-326l6 50l234 262q87 91 137 125l86 22v-395h141q-3 -41 -37 -64h-104v-92l90 -18l8 -14l-14 -23h-352zM231 739l9 27 l30 20l97 19v397l-285 -45v45q19 6 103 32.5t152 47t101 27.5l72 30v-534l102 -23l11 -16l-15 -27h-377zM940 211h119v170l8 98l-172 -207l-74 -67z" />
<glyph unicode="&#xbd;" horiz-adv-x="1415" d="M254 76l852 1222q26 12 100.5 19.5t120.5 7.5q-36 -50 -90 -112.5t-98 -109.5t-119.5 -126t-116.5 -123l-543 -854h-135zM1311 0h-520l8 51q22 44 69.5 93.5t87.5 74.5q32 19 73 40t61 32t40.5 28.5t28.5 40.5t8 58q0 117 -108 117q-5 0 -20 -1.5t-23 -1.5 q-35 -35 -86.5 -94t-57.5 -65l-43 20q2 13 4.5 39t5.5 46.5t7 31.5q23 33 88.5 60.5t146.5 27.5q110 0 174 -49t64 -125q0 -37 -14 -66.5t-37.5 -51t-70 -43t-94.5 -38.5t-128 -41q-53 -72 -62 -86h314l69 109l43 8q-18 -167 -28 -215zM231 739l9 27l30 20l97 19v397 l-285 -45v45q19 6 103 32.5t152 47t101 27.5l72 30v-534l102 -23l11 -16l-15 -27h-377z" />
<glyph unicode="&#xbe;" horiz-adv-x="1333" d="M213 76l852 1222q26 12 100.5 19.5t120.5 7.5q-36 -50 -90 -112.5t-98 -109.5t-119.5 -126t-116.5 -123l-543 -854h-135zM1253 23l-14 -23h-352l6 23l22 16l103 16v92h-326l6 50l234 262q87 91 137 125l86 22v-395h141q-3 -42 -36 -64h-105v-92l90 -18zM315 725 q-81 0 -139.5 16t-81.5 41q-11 16 -16 158l59 -8q48 -93 90 -137q23 -4 62 -4q80 0 116.5 29t36.5 75q0 53 -38 75.5t-140 22.5q-21 0 -49 -1t-39 -1q2 11 13 36.5t18 31.5h55q96 0 133 27.5t37 87.5q0 44 -36 72t-89 28q-4 0 -20.5 -1t-26.5 -1q-19 -20 -68 -77.5 t-63 -68.5l-41 25q1 8 3 27t3 32.5t4.5 29.5t7.5 26q24 29 91 50t141 21q105 0 172.5 -42t67.5 -113q0 -62 -58.5 -101.5t-169.5 -48.5q246 -12 246 -141q0 -77 -77 -121.5t-204 -44.5zM899 211h119v170l8 98l-172 -207l-74 -67z" />
<glyph unicode="&#xbf;" horiz-adv-x="925" d="M823 -291q-115 -59 -301 -59q-201 0 -312.5 97.5t-111.5 254.5q0 75 29.5 136.5t75.5 102t109 71t122.5 46.5t124.5 25l-20 258h155l6 -279l-30 -26q-86 -12 -150 -34t-116 -58.5t-78.5 -95t-26.5 -136.5q0 -152 62.5 -209t207.5 -57q45 0 84 8q54 156 95 305l53 9 q22 -161 22 -359zM725 901q0 -55 -33 -87t-82 -32q-53 0 -87 31t-34 88q0 56 33.5 84.5t87.5 28.5q52 0 83.5 -28.5t31.5 -84.5z" />
<glyph unicode="&#xc0;" horiz-adv-x="1382" d="M821 45l21 23l190 49l-135 344h-526l-142 -342l258 -47l13 -27l-21 -45h-520l14 43l27 25l94 45l371 845q11 23 33.5 70.5t32 67t27.5 54.5t30.5 55.5t30.5 47t38 50.5l72 55q102 -224 274 -644t252 -601l125 -58l2 -24l-16 -31h-549zM563 922l-155 -373h454l-106 274 l-115 289zM938 1513l-25 -59q-141 49 -471 133q17 87 84 178q259 -172 412 -252z" />
<glyph unicode="&#xc1;" horiz-adv-x="1382" d="M821 45l21 23l190 49l-135 344h-526l-142 -342l258 -47l13 -27l-21 -45h-520l14 43l27 25l94 45l371 845q11 23 33.5 70.5t32 67t27.5 54.5t30.5 55.5t30.5 47t38 50.5l72 55q102 -224 274 -644t252 -601l125 -58l2 -24l-16 -31h-549zM563 922l-155 -373h454l-106 274 l-115 289zM592 1454l-25 59q153 80 412 252q67 -91 84 -178q-330 -84 -471 -133z" />
<glyph unicode="&#xc2;" horiz-adv-x="1382" d="M821 45l21 23l190 49l-135 344h-526l-142 -342l258 -47l13 -27l-21 -45h-520l14 43l27 25l94 45l371 845q11 23 33.5 70.5t32 67t27.5 54.5t30.5 55.5t30.5 47t38 50.5l72 55q102 -224 274 -644t252 -601l125 -58l2 -24l-16 -31h-549zM563 922l-155 -373h454l-106 274 l-115 289zM643 1726l84 17q120 -77 293 -230l-35 -53q-126 72 -293 142q-100 -45 -280 -148l-35 53q146 135 266 219z" />
<glyph unicode="&#xc3;" horiz-adv-x="1382" d="M821 45l21 23l190 49l-135 344h-526l-142 -342l258 -47l13 -27l-21 -45h-520l14 43l27 25l94 45l371 845q11 23 33.5 70.5t32 67t27.5 54.5t30.5 55.5t30.5 47t38 50.5l72 55q102 -224 274 -644t252 -601l125 -58l2 -24l-16 -31h-549zM563 922l-155 -373h454l-106 274 l-115 289zM520 1544l-104 -92l-47 29q10 13 28.5 40.5t29 40.5t29 32.5t41 34t52.5 26.5q50 -8 179.5 -46.5t164.5 -47.5l108 98l39 -19q-8 -24 -17.5 -44.5t-17 -35t-19.5 -29t-18 -22t-20 -19t-18 -14.5t-19.5 -14t-17.5 -12q-148 0 -373 94z" />
<glyph unicode="&#xc4;" horiz-adv-x="1382" d="M821 45l21 23l190 49l-135 344h-526l-142 -342l258 -47l13 -27l-21 -45h-520l14 43l27 25l94 45l371 845q11 23 33.5 70.5t32 67t27.5 54.5t30.5 55.5t30.5 47t38 50.5l72 55q102 -224 274 -644t252 -601l125 -58l2 -24l-16 -31h-549zM563 922l-155 -373h454l-106 274 l-115 289zM813 1571q0 46 31 75t78 29q45 0 76.5 -29t31.5 -75t-31 -74.5t-77 -28.5q-47 0 -78 28.5t-31 74.5zM391 1571q0 46 31 75t78 29q45 0 76.5 -29t31.5 -75t-31 -74.5t-77 -28.5q-47 0 -78 28.5t-31 74.5z" />
<glyph unicode="&#xc5;" horiz-adv-x="1382" d="M821 45l21 23l190 49l-135 344h-526l-142 -342l258 -47l13 -27l-21 -45h-520l14 43l27 25l94 45l371 845q113 242 127 267q-59 20 -90 66t-31 106q0 78 61 131t144 53q98 0 152.5 -51t54.5 -133q0 -52 -27.5 -94t-73.5 -66q82 -184 235.5 -559.5t237.5 -564.5l125 -58 l2 -24l-16 -31h-549zM563 922l-155 -373h454l-106 274l-115 291zM772 1397q0 60 -22.5 89.5t-73.5 29.5q-98 0 -98 -119t98 -119q51 0 73.5 29.5t22.5 89.5z" />
<glyph unicode="&#xc6;" horiz-adv-x="1816" d="M688 0l4 39l33 31l149 34v357h-432l-190 -344l235 -45l13 -27l-21 -45h-520l14 43l27 25l104 47l478 815q120 199 243 348l62 45h790q3 -170 -12 -346l-61 12q-45 111 -88 236h-445v-508h510q0 -33 -49 -62.5t-100 -40.5h-361v-516h416l168 281l71 16q-21 -215 -49 -395 h-989zM717 950l-225 -401h382v663z" />
<glyph unicode="&#xc7;" horiz-adv-x="1208" d="M1108 1147q4 -54 4 -117q0 -165 -16 -287l-70 23q-10 27 -69.5 193.5t-88.5 238.5q-86 39 -176 39q-111 0 -190 -38t-126 -113.5t-68 -178.5t-21 -243q0 -279 97 -412t327 -133q107 0 206.5 36t206.5 124l27 -9v-41q-157 -229 -444 -247l-7 -82q201 -8 201 -156 q0 -72 -68 -120t-180 -48q-60 0 -110 21t-72 49l-2 26l20 17q24 -18 66 -29.5t80 -11.5q67 0 95 23.5t28 74.5q0 55 -21 78.5t-67 23.5q-36 0 -54 -2l-10 136q-121 7 -214.5 47t-153 102.5t-97.5 149.5t-53.5 180.5t-15.5 202.5q0 110 22.5 208.5t71.5 185t121 149.5 t177.5 99.5t233.5 36.5q131 0 250 -59t160 -137z" />
<glyph unicode="&#xc8;" horiz-adv-x="1251" d="M55 1274l21 49h1036q3 -170 -12 -346l-62 12q-45 111 -88 236h-497v-508h563q0 -33 -49.5 -62.5t-100.5 -40.5h-413v-516h469l168 281l71 16q-21 -215 -49 -395h-1079l12 47l37 23l174 34v1117l-188 30zM881 1513l-25 -59q-141 49 -471 133q17 87 84 178 q259 -172 412 -252z" />
<glyph unicode="&#xc9;" horiz-adv-x="1251" d="M1090 379l71 16q-21 -215 -49 -395h-1079l12 47l37 23l174 34v1117l-188 30l-13 23l21 49h1036q3 -170 -12 -346l-62 12q-45 111 -88 236h-497v-508h563q0 -33 -49.5 -62.5t-100.5 -40.5h-413v-516h469zM535 1454l-25 59q153 80 412 252q67 -91 84 -178 q-330 -84 -471 -133z" />
<glyph unicode="&#xca;" horiz-adv-x="1251" d="M1090 379l71 16q-21 -215 -49 -395h-1079l12 47l37 23l174 34v1117l-188 30l-13 23l21 49h1036q3 -170 -12 -346l-62 12q-45 111 -88 236h-497v-508h563q0 -33 -49.5 -62.5t-100.5 -40.5h-413v-516h469zM586 1726l84 17q120 -77 293 -230l-35 -53q-126 72 -293 142 q-104 -47 -281 -148l-35 53q143 132 267 219z" />
<glyph unicode="&#xcb;" horiz-adv-x="1251" d="M55 1274l21 49h1036q3 -170 -12 -346l-62 12q-45 111 -88 236h-497v-508h563q0 -33 -49.5 -62.5t-100.5 -40.5h-413v-516h469l168 281l71 16q-21 -215 -49 -395h-1079l12 47l37 23l174 34v1117l-188 30zM334 1571q0 47 30.5 75.5t77.5 28.5q46 0 77.5 -29t31.5 -75 t-31.5 -74.5t-77.5 -28.5q-47 0 -77.5 28.5t-30.5 74.5zM756 1571q0 47 30.5 75.5t77.5 28.5q46 0 77.5 -29t31.5 -75t-31.5 -74.5t-77.5 -28.5q-47 0 -77.5 28.5t-30.5 74.5z" />
<glyph unicode="&#xcc;" horiz-adv-x="708" d="M33 0l12 47l37 23l174 34v1117l-188 30l-13 23l21 49h600l-12 -47l-37 -23l-174 -34v-1117l188 -30l12 -23l-20 -49h-600zM584 1513l-25 -59q-141 49 -471 133q17 87 84 178q259 -172 412 -252z" />
<glyph unicode="&#xcd;" horiz-adv-x="708" d="M33 0l12 47l37 23l174 34v1117l-188 30l-13 23l21 49h600l-12 -47l-37 -23l-174 -34v-1117l188 -30l12 -23l-20 -49h-600zM238 1454l-25 59q153 80 412 252q67 -91 84 -178q-330 -84 -471 -133z" />
<glyph unicode="&#xce;" horiz-adv-x="708" d="M653 49l-20 -49h-600l12 47l37 23l174 34v1117l-188 30l-13 23l21 49h600l-12 -47l-37 -23l-174 -34v-1117l188 -30zM289 1726l84 17q120 -77 293 -230l-35 -53q-126 72 -293 142q-104 -47 -281 -148l-34 53q146 135 266 219z" />
<glyph unicode="&#xcf;" horiz-adv-x="708" d="M33 0l12 47l37 23l174 34v1117l-188 30l-13 23l21 49h600l-12 -47l-37 -23l-174 -34v-1117l188 -30l12 -23l-20 -49h-600zM37 1571q0 47 30.5 75.5t77.5 28.5q46 0 77.5 -29t31.5 -75t-31.5 -74.5t-77.5 -28.5q-47 0 -77.5 28.5t-30.5 74.5zM459 1571q0 47 30.5 75.5 t77.5 28.5q46 0 77.5 -29t31.5 -75t-31.5 -74.5t-77.5 -28.5q-47 0 -77.5 28.5t-30.5 74.5z" />
<glyph unicode="&#xd0;" horiz-adv-x="1452" d="M53 0l13 47l36 23l174 34v514h-200q11 63 37 95h163v508l-188 30l-12 23l20 49h666q107 0 194.5 -18t151 -49.5t111.5 -79.5t78.5 -102t49 -123t26 -137.5t7.5 -149.5q0 -111 -20.5 -207.5t-67 -181.5t-117 -145t-176 -95t-237.5 -35h-709zM690 618h-217v-520h283 q116 0 194 32t125.5 103t67.5 174.5t20 256.5q0 305 -89.5 433t-317.5 128h-283v-512h285q-3 -25 -23.5 -53t-44.5 -42z" />
<glyph unicode="&#xd1;" horiz-adv-x="1542" d="M999 1274l21 49h528l-12 -47l-37 -23l-174 -34v-723q0 -449 -14 -510l-27 -19l-180 195q-326 407 -637 815l-90 137q4 -118 4 -176v-836l188 -30l13 -23l-21 -49h-528l12 47l37 23l174 34v1117l-188 30l-13 23l21 49h368q283 -399 686 -909l74 -111q-4 110 -4 162v756 l-188 30zM633 1544l-105 -92l-47 29q9 13 28 40.5t29.5 40.5t29 32.5t41.5 34t53 26.5q50 -8 179.5 -46.5t164.5 -47.5l108 98l39 -19q-8 -24 -17.5 -44.5t-17 -35t-19.5 -29t-18 -22t-20 -19t-18 -14.5t-19.5 -14t-17.5 -12q-148 0 -373 94z" />
<glyph unicode="&#xd2;" horiz-adv-x="1388" d="M920 1513l-25 -59q-141 49 -471 133q17 87 84 178q259 -172 412 -252zM692 88q96 0 167.5 26t117.5 73t74.5 120.5t39.5 159t11 197.5t-11 197.5t-39.5 158.5t-74.5 119t-117.5 72t-167.5 26q-120 0 -200.5 -38t-124.5 -115.5t-62 -177.5t-18 -242q0 -113 10.5 -198 t38 -158.5t73 -120.5t116.5 -73t167 -26zM692 -20q-109 0 -197.5 19.5t-152 53t-111.5 84t-78 107t-48.5 128t-25.5 141t-7 151.5q0 110 21.5 208t69.5 185.5t118.5 150t175.5 99t235 36.5q151 0 263.5 -37t180.5 -98t109.5 -151.5t56.5 -183.5t15 -209q0 -111 -20.5 -209.5 t-68 -186.5t-118.5 -151t-178 -100t-240 -37z" />
<glyph unicode="&#xd3;" horiz-adv-x="1388" d="M573 1454l-24 59q153 80 412 252q27 -37 51 -86t32 -92q-330 -84 -471 -133zM692 88q96 0 167.5 26t117.5 73t74.5 120.5t39.5 159t11 197.5t-11 197.5t-39.5 158.5t-74.5 119t-117.5 72t-167.5 26q-120 0 -200.5 -38t-124.5 -115.5t-62 -177.5t-18 -242 q0 -113 10.5 -198t38 -158.5t73 -120.5t116.5 -73t167 -26zM692 -20q-109 0 -197.5 19.5t-152 53t-111.5 84t-78 107t-48.5 128t-25.5 141t-7 151.5q0 110 21.5 208t69.5 185.5t118.5 150t175.5 99t235 36.5q151 0 263.5 -37t180.5 -98t109.5 -151.5t56.5 -183.5t15 -209 q0 -111 -20.5 -209.5t-68 -186.5t-118.5 -151t-178 -100t-240 -37z" />
<glyph unicode="&#xd4;" horiz-adv-x="1388" d="M625 1726l84 17q116 -75 292 -230l-34 -53q-126 72 -293 142q-104 -47 -281 -148l-35 53q143 132 267 219zM692 88q96 0 167.5 26t117.5 73t74.5 120.5t39.5 159t11 197.5t-11 197.5t-39.5 158.5t-74.5 119t-117.5 72t-167.5 26q-120 0 -200.5 -38t-124.5 -115.5 t-62 -177.5t-18 -242q0 -113 10.5 -198t38 -158.5t73 -120.5t116.5 -73t167 -26zM692 -20q-109 0 -197.5 19.5t-152 53t-111.5 84t-78 107t-48.5 128t-25.5 141t-7 151.5q0 110 21.5 208t69.5 185.5t118.5 150t175.5 99t235 36.5q151 0 263.5 -37t180.5 -98t109.5 -151.5 t56.5 -183.5t15 -209q0 -111 -20.5 -209.5t-68 -186.5t-118.5 -151t-178 -100t-240 -37z" />
<glyph unicode="&#xd5;" horiz-adv-x="1388" d="M502 1544l-105 -92l-47 29q10 13 28.5 40.5t29 40.5t29 32.5t41 34t52.5 26.5q50 -8 179.5 -46.5t164.5 -47.5l109 98l39 -19q-8 -24 -17.5 -44.5t-17.5 -35t-19.5 -29t-18 -22.5t-20 -19t-18.5 -14.5t-19.5 -13.5t-17.5 -12q-147 0 -372 94zM692 88q96 0 167.5 26 t117.5 73t74.5 120.5t39.5 159t11 197.5t-11 197.5t-39.5 158.5t-74.5 119t-117.5 72t-167.5 26q-120 0 -200.5 -38t-124.5 -115.5t-62 -177.5t-18 -242q0 -113 10.5 -198t38 -158.5t73 -120.5t116.5 -73t167 -26zM692 -20q-109 0 -197.5 19.5t-152 53t-111.5 84t-78 107 t-48.5 128t-25.5 141t-7 151.5q0 110 21.5 208t69.5 185.5t118.5 150t175.5 99t235 36.5q151 0 263.5 -37t180.5 -98t109.5 -151.5t56.5 -183.5t15 -209q0 -111 -20.5 -209.5t-68 -186.5t-118.5 -151t-178 -100t-240 -37z" />
<glyph unicode="&#xd6;" horiz-adv-x="1388" d="M373 1571q0 47 30.5 75.5t77.5 28.5q46 0 77.5 -29t31.5 -75t-31.5 -74.5t-77.5 -28.5q-47 0 -77.5 28.5t-30.5 74.5zM795 1571q0 47 30.5 75.5t77.5 28.5q46 0 77.5 -29t31.5 -75t-31.5 -74.5t-77.5 -28.5q-47 0 -77.5 28.5t-30.5 74.5zM692 88q96 0 167.5 26t117.5 73 t74.5 120.5t39.5 159t11 197.5t-11 197.5t-39.5 158.5t-74.5 119t-117.5 72t-167.5 26q-120 0 -200.5 -38t-124.5 -115.5t-62 -177.5t-18 -242q0 -113 10.5 -198t38 -158.5t73 -120.5t116.5 -73t167 -26zM692 -20q-109 0 -197.5 19.5t-152 53t-111.5 84t-78 107t-48.5 128 t-25.5 141t-7 151.5q0 110 21.5 208t69.5 185.5t118.5 150t175.5 99t235 36.5q151 0 263.5 -37t180.5 -98t109.5 -151.5t56.5 -183.5t15 -209q0 -111 -20.5 -209.5t-68 -186.5t-118.5 -151t-178 -100t-240 -37z" />
<glyph unicode="&#xd7;" horiz-adv-x="978" d="M109 373l299 305l-281 293q5 24 26.5 47.5t53.5 30.5l278 -291l293 303q27 -10 49 -35.5t31 -54.5l-293 -293l297 -299q-18 -24 -48 -42.5t-54 -21.5l-275 283l-266 -279q-59 3 -110 54z" />
<glyph unicode="&#xd8;" horiz-adv-x="1388" d="M205 -137l110 205q-71 43 -120.5 107t-75.5 144t-36.5 162.5t-10.5 182.5q0 110 21.5 208t69.5 185.5t118.5 150t175.5 99t235 36.5q167 0 293 -47l64 115q45 27 131 31l-105 -191q70 -44 119 -107.5t75 -142t37 -159.5t11 -178q0 -111 -20.5 -209.5t-68 -186.5 t-118.5 -151t-178 -100t-240 -37q-160 0 -284 43l-80 -148q-64 -15 -123 -12zM276 664q0 -170 24.5 -284t86.5 -183l539 989q-91 51 -234 51q-120 0 -202 -38t-128.5 -115t-66 -178t-19.5 -242zM692 88q96 0 168.5 26t120 73t77 120t42 159t12.5 198q0 163 -24 274.5 t-82 181.5l-537 -987q88 -45 223 -45z" />
<glyph unicode="&#xd9;" horiz-adv-x="1482" d="M934 1274l20 49h543l-12 -47l-37 -23l-174 -34v-750q0 -81 -15 -150t-52 -133t-95 -108.5t-148.5 -71t-207.5 -26.5q-153 0 -258.5 29.5t-168.5 91t-90.5 149t-27.5 211.5v760l-188 30l-13 23l21 49h600l-13 -47l-36 -23l-174 -34v-752q0 -198 80 -281.5t286 -83.5 q184 0 272.5 86.5t88.5 272.5v760l-189 30zM1014 1513l-25 -59q-141 49 -471 133q17 87 84 178q259 -172 412 -252z" />
<glyph unicode="&#xda;" horiz-adv-x="1482" d="M934 1274l20 49h543l-12 -47l-37 -23l-174 -34v-750q0 -81 -15 -150t-52 -133t-95 -108.5t-148.5 -71t-207.5 -26.5q-153 0 -258.5 29.5t-168.5 91t-90.5 149t-27.5 211.5v760l-188 30l-13 23l21 49h600l-13 -47l-36 -23l-174 -34v-752q0 -198 80 -281.5t286 -83.5 q184 0 272.5 86.5t88.5 272.5v760l-189 30zM668 1454l-25 59q153 80 412 252q67 -91 84 -178q-330 -84 -471 -133z" />
<glyph unicode="&#xdb;" horiz-adv-x="1482" d="M934 1274l20 49h543l-12 -47l-37 -23l-174 -34v-750q0 -81 -15 -150t-52 -133t-95 -108.5t-148.5 -71t-207.5 -26.5q-153 0 -258.5 29.5t-168.5 91t-90.5 149t-27.5 211.5v760l-188 30l-13 23l21 49h600l-13 -47l-36 -23l-174 -34v-752q0 -198 80 -281.5t286 -83.5 q184 0 272.5 86.5t88.5 272.5v760l-189 30zM719 1726l84 17q120 -77 293 -230l-35 -53q-126 72 -293 142q-104 -47 -281 -148l-34 53q146 135 266 219z" />
<glyph unicode="&#xdc;" horiz-adv-x="1482" d="M934 1274l20 49h543l-12 -47l-37 -23l-174 -34v-750q0 -81 -15 -150t-52 -133t-95 -108.5t-148.5 -71t-207.5 -26.5q-153 0 -258.5 29.5t-168.5 91t-90.5 149t-27.5 211.5v760l-188 30l-13 23l21 49h600l-13 -47l-36 -23l-174 -34v-752q0 -198 80 -281.5t286 -83.5 q184 0 272.5 86.5t88.5 272.5v760l-189 30zM467 1571q0 47 30.5 75.5t77.5 28.5q46 0 77.5 -29t31.5 -75t-31.5 -74.5t-77.5 -28.5q-47 0 -77.5 28.5t-30.5 74.5zM889 1571q0 47 30.5 75.5t77.5 28.5q46 0 77.5 -29t31.5 -75t-31.5 -74.5t-77.5 -28.5q-47 0 -77.5 28.5 t-30.5 74.5z" />
<glyph unicode="&#xdd;" horiz-adv-x="1189" d="M307 0l12 47l37 23l174 34v437l-426 680l-102 47l-2 24l16 31h527l-4 -45l-21 -23l-192 -47l217 -352l125 -205l116 180l238 357l-231 63l-13 27l21 45h415l-10 -66q-75 -123 -257 -376.5t-220 -309.5v-469l188 -30l13 -23l-21 -49h-600zM547 1454l-25 59q153 80 412 252 q67 -91 84 -178q-330 -84 -471 -133z" />
<glyph unicode="&#xde;" horiz-adv-x="1220" d="M676 1323l-12 -47l-37 -23l-174 -34v-172h301q226 0 331 -98.5t105 -262.5q0 -195 -132 -292t-362 -97h-243v-195l188 -30l12 -23l-20 -49h-600l12 47l37 23l174 34v1117l-188 30l-13 23l21 49h600zM705 948h-252v-557h229q172 0 240.5 72t68.5 211q0 52 -6.5 91 t-24.5 75t-49.5 58.5t-83 36t-122.5 13.5z" />
<glyph unicode="&#xdf;" horiz-adv-x="2043" d="M88 377l68 -15q52 -129 133 -253q85 -33 194 -33q129 0 203 41t74 121q0 78 -70 124.5t-209 86.5q-95 28 -157 55.5t-110.5 65.5t-70.5 90t-22 122q0 134 111 215.5t296 81.5q114 0 215.5 -29.5t128.5 -66.5q7 -47 7 -113q0 -104 -13 -180l-55 12l-113 259 q-79 24 -176 24q-118 0 -176.5 -43.5t-58.5 -120.5q0 -33 8 -59.5t27.5 -47t39 -34.5t56 -28.5t63 -23t74.5 -22.5q74 -21 124.5 -39.5t103 -46.5t84 -59.5t51.5 -77.5t20 -102q0 -76 -36.5 -134.5t-100 -93.5t-143 -52t-171.5 -17q-138 0 -246 34.5t-137 75.5 q-16 103 -16 283zM1110 377l68 -15q52 -129 133 -253q85 -33 194 -33q129 0 203 41t74 121q0 78 -70 124.5t-209 86.5q-95 28 -157 55.5t-110.5 65.5t-70.5 90t-22 122q0 134 111 215.5t296 81.5q114 0 215.5 -29.5t128.5 -66.5q7 -47 7 -113q0 -104 -13 -180l-55 12 l-113 259q-80 24 -176 24q-118 0 -176.5 -43.5t-58.5 -120.5q0 -33 8 -59.5t27.5 -47t39 -34.5t56 -28.5t63 -23t74.5 -22.5q74 -21 124.5 -39.5t103 -46.5t84 -59.5t51.5 -77.5t20 -102q0 -76 -36.5 -134.5t-100 -93.5t-143 -52t-171.5 -17q-138 0 -246 34.5t-137 75.5 q-16 103 -16 283z" />
<glyph unicode="&#xe0;" horiz-adv-x="1265" d="M745 39l19 20l160 39l-113 260h-459l-119 -256l218 -39l12 -24l-19 -39h-456l12 39l25 20l81 39l316 631q16 31 43 86t42.5 85.5t40.5 69.5t50 68l76 54q76 -153 145.5 -301.5t173 -377.5t142.5 -315l108 -45l2 -24l-14 -29h-492zM514 709l-125 -269h387l-90 211 q-45 100 -96 226zM838 1208l-37 -39q-197 137 -432 267q41 81 129 149q54 -58 166.5 -186.5t173.5 -190.5z" />
<glyph unicode="&#xe1;" horiz-adv-x="1265" d="M745 39l19 20l160 39l-113 260h-459l-119 -256l218 -39l12 -24l-19 -39h-456l12 39l25 20l81 39l316 631q16 31 43 86t42.5 85.5t40.5 69.5t50 68l76 54q76 -153 145.5 -301.5t173 -377.5t142.5 -315l108 -45l2 -24l-14 -29h-492zM514 709l-125 -269h387l-90 211 q-45 100 -96 226zM563 1169l-37 39q61 62 173.5 190.5t166.5 186.5q88 -68 129 -149q-235 -130 -432 -267z" />
<glyph unicode="&#xe2;" horiz-adv-x="1265" d="M745 39l19 20l160 39l-113 260h-459l-119 -256l218 -39l12 -24l-19 -39h-456l12 39l25 20l81 39l316 631q16 31 43 86t42.5 85.5t40.5 69.5t50 68l76 54q76 -153 145.5 -301.5t173 -377.5t142.5 -315l108 -45l2 -24l-14 -29h-492zM514 709l-125 -269h387l-90 211 q-45 100 -96 226zM580 1524l96 30q29 -27 56.5 -55t63 -68.5t50 -57t61.5 -72t51 -60.5l-49 -47q-121 103 -276 205q-22 -17 -84 -63t-100.5 -76.5t-73.5 -63.5l-45 41q113 150 250 287z" />
<glyph unicode="&#xe3;" horiz-adv-x="1265" d="M745 39l19 20l160 39l-113 260h-459l-119 -256l218 -39l12 -24l-19 -39h-456l12 39l25 20l81 39l316 631q16 31 43 86t42.5 85.5t40.5 69.5t50 68l76 54q76 -153 145.5 -301.5t173 -377.5t142.5 -315l108 -45l2 -24l-14 -29h-492zM514 709l-125 -269h387l-90 211 q-45 100 -96 226zM434 1343l-104 -92l-47 29q10 13 28.5 40.5t29 40.5t29 32.5t41 34t52.5 26.5q50 -8 179.5 -46.5t164.5 -47.5l108 98l39 -18q-7 -21 -15 -39t-17 -33.5t-15.5 -27t-17 -23t-16 -17.5t-18 -15.5t-16 -12.5t-17 -12t-15.5 -11q-148 0 -373 94z" />
<glyph unicode="&#xe4;" horiz-adv-x="1265" d="M745 39l19 20l160 39l-113 260h-459l-119 -256l218 -39l12 -24l-19 -39h-456l12 39l25 20l81 39l316 631q16 31 43 86t42.5 85.5t40.5 69.5t50 68l76 54q76 -153 145.5 -301.5t173 -377.5t142.5 -315l108 -45l2 -24l-14 -29h-492zM514 709l-125 -269h387l-90 211 q-45 100 -96 226zM313 1370q0 47 31 76t78 29q45 0 76.5 -29.5t31.5 -75.5t-31 -74t-77 -28q-47 0 -78 28t-31 74zM735 1370q0 47 31 76t78 29q45 0 76.5 -29.5t31.5 -75.5t-31 -74t-77 -28q-47 0 -78 28t-31 74z" />
<glyph unicode="&#xe5;" horiz-adv-x="1265" d="M745 39l19 20l160 39l-113 260h-459l-119 -256l218 -39l12 -24l-19 -39h-456l12 39l25 20l81 39l316 631q19 38 44 88.5t42.5 83.5t36.5 64q-72 20 -111 73.5t-39 124.5q0 88 68.5 147.5t161.5 59.5q111 0 171 -57.5t60 -149.5q0 -62 -34.5 -111.5t-92.5 -74.5 q75 -153 221 -473.5t185 -405.5l108 -45l2 -24l-14 -29h-492zM514 709l-125 -269h387l-90 211q-45 100 -96 226zM731 1163q0 69 -23.5 103t-82.5 34q-109 0 -109 -137t109 -137q59 0 82.5 34t23.5 103z" />
<glyph unicode="&#xe6;" horiz-adv-x="1648" d="M629 0l4 35l29 26l129 31v266h-381l-160 -256l201 -39l12 -24l-19 -39h-456l12 39l25 20l88 39l415 637q111 170 222 291l53 35h704q0 -181 -12 -289l-55 10q-26 53 -80 189h-383v-389h444q0 -27 -45 -58t-86 -39h-313v-395h360l148 223l65 15q-27 -223 -43 -328h-878z M651 743l-190 -303h330v518z" />
<glyph unicode="&#xe7;" horiz-adv-x="1107" d="M549 -154l-10 138q-103 7 -183 40.5t-131 84t-84 120t-46 143.5t-13 160q0 111 32.5 207t97.5 173.5t173.5 122t249.5 44.5q117 0 222.5 -47t141.5 -110q5 -45 5 -84q0 -142 -17 -246l-63 18q-18 42 -68 168t-74 180q-87 27 -147 27q-186 0 -266 -111.5t-80 -336.5 q0 -217 83.5 -325t282.5 -108q190 0 359 125l24 -12v-35q-143 -186 -399 -198l-6 -84q201 -8 201 -156q0 -72 -68 -120t-180 -48q-60 0 -110.5 21t-72.5 49l-2 26l21 17q24 -18 65.5 -29.5t79.5 -11.5q67 0 95 23.5t28 74.5q0 55 -21 78.5t-67 23.5q-35 0 -53 -2z" />
<glyph unicode="&#xe8;" horiz-adv-x="1146" d="M70 1020l18 41h918q3 -130 -11 -289l-57 10q-26 53 -80 189h-426v-389h488q0 -27 -45.5 -58t-86.5 -39h-356v-395h404l147 223l66 15q-17 -183 -43 -328h-955l10 39l33 22l150 31v879l-164 28zM821 1208l-37 -39q-197 137 -432 267q41 81 129 149q54 -58 166.5 -186.5 t173.5 -190.5z" />
<glyph unicode="&#xe9;" horiz-adv-x="1146" d="M70 1020l18 41h918q3 -130 -11 -289l-57 10q-26 53 -80 189h-426v-389h488q0 -27 -45.5 -58t-86.5 -39h-356v-395h404l147 223l66 15q-17 -183 -43 -328h-955l10 39l33 22l150 31v879l-164 28zM547 1169l-37 39q61 62 173.5 190.5t166.5 186.5q88 -68 129 -149 q-235 -130 -432 -267z" />
<glyph unicode="&#xea;" horiz-adv-x="1146" d="M70 1020l18 41h918q3 -130 -11 -289l-57 10q-26 53 -80 189h-426v-389h488q0 -27 -45.5 -58t-86.5 -39h-356v-395h404l147 223l66 15q-17 -183 -43 -328h-955l10 39l33 22l150 31v879l-164 28zM563 1524l96 30q21 -20 41.5 -40.5t43.5 -45.5t39 -42.5t42.5 -47.5 t38 -43.5t41 -48.5t37.5 -45l-49 -47q-118 100 -277 205q-22 -17 -84 -63t-100.5 -76.5t-73.5 -63.5l-45 41q113 150 250 287z" />
<glyph unicode="&#xeb;" horiz-adv-x="1146" d="M70 1020l18 41h918q3 -130 -11 -289l-57 10q-26 53 -80 189h-426v-389h488q0 -27 -45.5 -58t-86.5 -39h-356v-395h404l147 223l66 15q-17 -183 -43 -328h-955l10 39l33 22l150 31v879l-164 28zM719 1370q0 47 31 76t77 29q45 0 77 -29.5t32 -75.5t-31.5 -74t-77.5 -28 q-47 0 -77.5 28t-30.5 74zM297 1370q0 47 31 76t78 29q45 0 76.5 -29.5t31.5 -75.5t-31 -74t-77 -28q-47 0 -78 28t-31 74z" />
<glyph unicode="&#xec;" horiz-adv-x="673" d="M51 0l10 39l33 22l150 31v879l-164 28l-10 21l18 41h535l-11 -39l-32 -21l-148 -32v-879l162 -27l10 -22l-16 -41h-537zM545 1208l-37 -39q-197 137 -432 267q41 81 129 149q54 -58 166.5 -186.5t173.5 -190.5z" />
<glyph unicode="&#xed;" horiz-adv-x="673" d="M604 41l-16 -41h-537l10 39l33 22l150 31v879l-164 28l-10 21l18 41h535l-11 -39l-32 -21l-148 -32v-879l162 -27zM270 1169l-37 39q61 62 173.5 190.5t166.5 186.5q88 -68 129 -149q-235 -130 -432 -267z" />
<glyph unicode="&#xee;" horiz-adv-x="673" d="M51 0l10 39l33 22l150 31v879l-164 28l-10 21l18 41h535l-11 -39l-32 -21l-148 -32v-879l162 -27l10 -22l-16 -41h-537zM287 1524l96 30q21 -20 41.5 -40.5t43.5 -45.5t39 -42.5t42.5 -47.5t38 -43.5t41 -48.5t37.5 -45l-50 -47q-121 103 -276 205q-22 -17 -84 -63 t-100.5 -76.5t-73.5 -63.5l-45 41q113 150 250 287z" />
<glyph unicode="&#xef;" horiz-adv-x="673" d="M51 0l10 39l33 22l150 31v879l-164 28l-10 21l18 41h535l-11 -39l-32 -21l-148 -32v-879l162 -27l10 -22l-16 -41h-537zM20 1370q0 47 31 76t78 29q45 0 77 -29.5t32 -75.5t-31.5 -74t-77.5 -28q-47 0 -78 28t-31 74zM442 1370q0 47 31 76t78 29q45 0 76.5 -29.5 t31.5 -75.5t-31 -74t-77 -28q-47 0 -78 28t-31 74z" />
<glyph unicode="&#xf0;" horiz-adv-x="1325" d="M70 0l10 39l33 22l147 31v400h-176q9 50 35 83h141v396l-162 28l-12 21l18 41h594q110 0 196.5 -19t145.5 -55t99.5 -82.5t62.5 -108.5t31.5 -125t9.5 -139q0 -113 -30 -206t-92 -167.5t-170 -116.5t-253 -42h-628zM635 492h-186v-402h237q195 0 271.5 99.5t76.5 342.5 t-75.5 341t-272.5 98h-237v-396h247q-6 -50 -61 -83z" />
<glyph unicode="&#xf1;" horiz-adv-x="1394" d="M897 1020l16 41h465l-10 -39l-33 -21l-149 -32v-572q0 -335 -12 -403l-29 -23l-166 164q-394 426 -541 600q-17 19 -82 113q2 -45 2 -141v-617l164 -27l10 -22l-18 -41h-463l10 39l33 22l150 31v879l-164 28l-10 21l18 41h326q97 -117 295 -343.5t295 -344.5 q58 -77 69 -94q-4 47 -4 149v543l-162 28zM526 1343l-104 -92l-47 29q10 13 28.5 40.5t29 40.5t29 32.5t41 34t52.5 26.5q50 -8 179.5 -46.5t164.5 -47.5l109 98l39 -18q-8 -24 -18 -44.5t-17 -35t-19.5 -29.5t-18 -22t-20 -19t-18 -15t-20 -14t-17.5 -12q-148 0 -373 94z " />
<glyph unicode="&#xf2;" horiz-adv-x="1267" d="M631 78q102 0 170.5 29.5t106.5 90.5t53.5 140.5t15.5 193.5q0 91 -9.5 158.5t-33 125t-62.5 93.5t-99 56t-142 20q-102 0 -169.5 -29t-105 -90t-52.5 -140t-15 -194t15 -194t52.5 -140.5t105 -90.5t169.5 -29zM631 -18q-112 0 -200 20t-147 58.5t-99.5 87.5t-62.5 113.5 t-31 129t-9 141.5q0 111 31.5 207t95 173.5t172 122t250.5 44.5q112 0 200.5 -20t148.5 -58.5t101 -87t63.5 -112.5t32 -128t9.5 -141q0 -90 -18 -168.5t-60 -149.5t-105 -122t-158 -80.5t-214 -29.5zM836 1208l-37 -39q-197 137 -432 267q41 81 129 149 q54 -58 166.5 -186.5t173.5 -190.5z" />
<glyph unicode="&#xf3;" horiz-adv-x="1267" d="M631 78q102 0 170.5 29.5t106.5 90.5t53.5 140.5t15.5 193.5q0 91 -9.5 158.5t-33 125t-62.5 93.5t-99 56t-142 20q-102 0 -169.5 -29t-105 -90t-52.5 -140t-15 -194t15 -194t52.5 -140.5t105 -90.5t169.5 -29zM631 -18q-112 0 -200 20t-147 58.5t-99.5 87.5t-62.5 113.5 t-31 129t-9 141.5q0 111 31.5 207t95 173.5t172 122t250.5 44.5q112 0 200.5 -20t148.5 -58.5t101 -87t63.5 -112.5t32 -128t9.5 -141q0 -90 -18 -168.5t-60 -149.5t-105 -122t-158 -80.5t-214 -29.5zM561 1169l-37 39q61 62 173.5 190.5t166.5 186.5q88 -68 129 -149 q-235 -130 -432 -267z" />
<glyph unicode="&#xf4;" horiz-adv-x="1267" d="M631 78q102 0 170.5 29.5t106.5 90.5t53.5 140.5t15.5 193.5q0 91 -9.5 158.5t-33 125t-62.5 93.5t-99 56t-142 20q-102 0 -169.5 -29t-105 -90t-52.5 -140t-15 -194t15 -194t52.5 -140.5t105 -90.5t169.5 -29zM631 -18q-112 0 -200 20t-147 58.5t-99.5 87.5t-62.5 113.5 t-31 129t-9 141.5q0 111 31.5 207t95 173.5t172 122t250.5 44.5q112 0 200.5 -20t148.5 -58.5t101 -87t63.5 -112.5t32 -128t9.5 -141q0 -90 -18 -168.5t-60 -149.5t-105 -122t-158 -80.5t-214 -29.5zM578 1524l96 30q29 -27 56.5 -55t63 -68.5t50 -57t61.5 -72t51 -60.5 l-49 -47q-121 103 -276 205q-22 -17 -84 -63t-100.5 -76.5t-73.5 -63.5l-45 41q113 150 250 287z" />
<glyph unicode="&#xf5;" horiz-adv-x="1267" d="M631 78q102 0 170.5 29.5t106.5 90.5t53.5 140.5t15.5 193.5q0 91 -9.5 158.5t-33 125t-62.5 93.5t-99 56t-142 20q-102 0 -169.5 -29t-105 -90t-52.5 -140t-15 -194t15 -194t52.5 -140.5t105 -90.5t169.5 -29zM631 -18q-112 0 -200 20t-147 58.5t-99.5 87.5t-62.5 113.5 t-31 129t-9 141.5q0 111 31.5 207t95 173.5t172 122t250.5 44.5q112 0 200.5 -20t148.5 -58.5t101 -87t63.5 -112.5t32 -128t9.5 -141q0 -90 -18 -168.5t-60 -149.5t-105 -122t-158 -80.5t-214 -29.5zM440 1343l-104 -92l-47 29q10 13 28.5 40.5t29 40.5t29 32.5t41 34 t52.5 26.5q50 -8 179.5 -46.5t164.5 -47.5l109 98l39 -18q-8 -24 -18 -44.5t-17 -35t-19.5 -29.5t-18 -22t-20 -19t-18 -15t-20 -14t-17.5 -12q-148 0 -373 94z" />
<glyph unicode="&#xf6;" horiz-adv-x="1267" d="M631 78q102 0 170.5 29.5t106.5 90.5t53.5 140.5t15.5 193.5q0 91 -9.5 158.5t-33 125t-62.5 93.5t-99 56t-142 20q-102 0 -169.5 -29t-105 -90t-52.5 -140t-15 -194t15 -194t52.5 -140.5t105 -90.5t169.5 -29zM631 -18q-112 0 -200 20t-147 58.5t-99.5 87.5t-62.5 113.5 t-31 129t-9 141.5q0 111 31.5 207t95 173.5t172 122t250.5 44.5q112 0 200.5 -20t148.5 -58.5t101 -87t63.5 -112.5t32 -128t9.5 -141q0 -90 -18 -168.5t-60 -149.5t-105 -122t-158 -80.5t-214 -29.5zM311 1370q0 47 31 76t78 29q45 0 76.5 -29.5t31.5 -75.5t-31 -74 t-77 -28q-47 0 -78 28t-31 74zM733 1370q0 47 31 76t78 29q45 0 76.5 -29.5t31.5 -75.5t-31 -74t-77 -28q-47 0 -78 28t-31 74z" />
<glyph unicode="&#xf7;" horiz-adv-x="978" d="M102 719h824q-3 -27 -24 -61.5t-44 -47.5h-792q14 83 36 109zM377 1016q0 51 30 79.5t76 28.5q48 0 79.5 -28t31.5 -80t-31.5 -79.5t-79.5 -27.5t-77 27.5t-29 79.5zM377 330q0 51 30 79.5t76 28.5q48 0 79.5 -28t31.5 -80t-31.5 -79.5t-79.5 -27.5t-77 27.5t-29 79.5z " />
<glyph unicode="&#xf8;" horiz-adv-x="1267" d="M201 -111l96 162q-63 36 -106.5 87.5t-66.5 116t-32.5 131t-9.5 146.5q0 111 31.5 207t95 173.5t172 122t250.5 44.5q145 0 258 -37l55 93q38 19 119 24l-92 -153q215 -124 215 -474q0 -90 -18 -168.5t-60 -149.5t-105 -122t-158 -80.5t-214 -29.5q-149 0 -250 34 l-70 -116q-51 -11 -110 -11zM279 532q0 -133 19 -221t69 -143l464 776q-77 41 -200 41q-102 0 -171 -29.5t-108.5 -89.5t-56 -140.5t-16.5 -193.5zM631 78q103 0 173 29.5t110 90t56.5 141t16.5 193.5q0 130 -19 216.5t-67 140.5l-463 -774q73 -37 193 -37z" />
<glyph unicode="&#xf9;" horiz-adv-x="1345" d="M840 1020l18 41h479l-12 -39l-31 -21l-149 -32v-590q0 -65 -13.5 -121t-46 -107.5t-84 -87.5t-132.5 -57.5t-185 -21.5q-179 0 -285.5 44t-151 127t-44.5 216v600l-162 28l-12 21l18 41h537l-11 -39l-32 -21l-150 -32v-590q0 -154 68.5 -217.5t245.5 -63.5q159 0 235 66 t76 211v596l-166 26zM918 1208l-37 -39q-197 137 -432 267q41 81 129 149q54 -58 166.5 -186.5t173.5 -190.5z" />
<glyph unicode="&#xfa;" horiz-adv-x="1345" d="M840 1020l18 41h479l-12 -39l-31 -21l-149 -32v-590q0 -65 -13.5 -121t-46 -107.5t-84 -87.5t-132.5 -57.5t-185 -21.5q-179 0 -285.5 44t-151 127t-44.5 216v600l-162 28l-12 21l18 41h537l-11 -39l-32 -21l-150 -32v-590q0 -154 68.5 -217.5t245.5 -63.5q159 0 235 66 t76 211v596l-166 26zM643 1169l-37 39q61 62 173.5 190.5t166.5 186.5q88 -68 129 -149q-235 -130 -432 -267z" />
<glyph unicode="&#xfb;" horiz-adv-x="1345" d="M840 1020l18 41h479l-12 -39l-31 -21l-149 -32v-590q0 -65 -13.5 -121t-46 -107.5t-84 -87.5t-132.5 -57.5t-185 -21.5q-179 0 -285.5 44t-151 127t-44.5 216v600l-162 28l-12 21l18 41h537l-11 -39l-32 -21l-150 -32v-590q0 -154 68.5 -217.5t245.5 -63.5q159 0 235 66 t76 211v596l-166 26zM659 1524l97 30q29 -27 56.5 -55t63 -68.5t50 -57t61.5 -72t51 -60.5l-49 -47q-121 103 -276 205q-22 -17 -84 -63t-100.5 -76.5t-73.5 -63.5l-45 41q116 154 249 287z" />
<glyph unicode="&#xfc;" horiz-adv-x="1345" d="M840 1020l18 41h479l-12 -39l-31 -21l-149 -32v-590q0 -65 -13.5 -121t-46 -107.5t-84 -87.5t-132.5 -57.5t-185 -21.5q-179 0 -285.5 44t-151 127t-44.5 216v600l-162 28l-12 21l18 41h537l-11 -39l-32 -21l-150 -32v-590q0 -154 68.5 -217.5t245.5 -63.5q159 0 235 66 t76 211v596l-166 26zM393 1370q0 47 31 76t78 29q45 0 76.5 -29.5t31.5 -75.5t-31 -74t-77 -28q-47 0 -78 28t-31 74zM815 1370q0 47 31 76t78 29q45 0 76.5 -29.5t31.5 -75.5t-31 -74t-77 -28q-47 0 -78 28t-31 74z" />
<glyph unicode="&#xfd;" horiz-adv-x="1130" d="M299 0l10 39l33 22l150 31v332l-371 549l-88 37l-4 22l14 29h471l-4 -39l-21 -21l-155 -38l180 -267q21 -31 59 -92t52 -82q86 132 102 154l199 272l-193 47l-12 29l18 37h367l-8 -53q-50 -76 -118.5 -167t-160.5 -209.5t-139 -180.5v-361l162 -27l12 -22l-18 -41h-537z M551 1169l-37 39q61 62 173.5 190.5t166.5 186.5q88 -68 129 -149q-235 -130 -432 -267z" />
<glyph unicode="&#xfe;" horiz-adv-x="1128" d="M623 1061l-11 -39l-32 -21l-150 -30v-129h260q204 0 296.5 -79t92.5 -216q0 -156 -117 -236t-321 -80h-211v-143l164 -27l10 -20l-18 -41h-535l10 39l33 22l150 31v879l-164 28l-10 21l18 41h535zM639 754h-209v-437h191q148 0 207 56t59 166q0 54 -10 90.5t-36 66.5 t-76 44t-126 14z" />
<glyph unicode="&#xff;" horiz-adv-x="1130" d="M299 0l10 39l33 22l150 31v332l-371 549l-88 37l-4 22l14 29h471l-4 -39l-21 -21l-155 -38l180 -267q21 -31 59 -92t52 -82q86 132 102 154l199 272l-193 47l-12 29l18 37h367l-8 -53q-50 -76 -118.5 -167t-160.5 -209.5t-139 -180.5v-361l162 -27l12 -22l-18 -41h-537z M723 1370q0 47 31 76t77 29q45 0 77 -29.5t32 -75.5t-31.5 -74t-77.5 -28q-47 0 -77.5 28t-30.5 74zM301 1370q0 47 31 76t78 29q45 0 76.5 -29.5t31.5 -75.5t-31 -74t-77 -28q-47 0 -78 28t-31 74z" />
<glyph unicode="&#x100;" horiz-adv-x="1382" d="M821 45l21 23l190 49l-135 344h-526l-142 -342l258 -47l13 -27l-21 -45h-520l14 43l27 25l94 45l371 845q11 23 33.5 70.5t32 67t27.5 54.5t30.5 55.5t30.5 47t38 50.5l72 55q102 -224 274 -644t252 -601l125 -58l2 -24l-16 -31h-549zM563 922l-155 -373h454l-106 274 l-115 289zM432 1614h610q-3 -28 -24 -64t-43 -49h-580q15 86 37 113z" />
<glyph unicode="&#x101;" horiz-adv-x="1265" d="M745 39l19 20l160 39l-113 260h-459l-119 -256l218 -39l12 -24l-19 -39h-456l12 39l25 20l81 39l316 631q16 31 43 86t42.5 85.5t40.5 69.5t50 68l76 54q76 -153 145.5 -301.5t173 -377.5t142.5 -315l108 -45l2 -24l-14 -29h-492zM514 709l-125 -269h387l-90 211 q-45 100 -96 226zM354 1413h611q-3 -27 -24.5 -63.5t-43.5 -49.5h-580q15 86 37 113z" />
<glyph unicode="&#x102;" horiz-adv-x="1382" d="M821 45l21 23l190 49l-135 344h-526l-142 -342l258 -47l13 -27l-21 -45h-520l14 43l27 25l94 45l371 845q11 23 33.5 70.5t32 67t27.5 54.5t30.5 55.5t30.5 47t38 50.5l72 55q102 -224 274 -644t252 -601l125 -58l2 -24l-16 -31h-549zM563 922l-155 -373h454l-106 274 l-115 289zM924 1722l90 17q0 -133 -84.5 -216t-224.5 -83q-150 0 -228 77t-78 189l84 23q0 -158 228 -158q103 0 158 35t55 116z" />
<glyph unicode="&#x103;" horiz-adv-x="1265" d="M745 39l19 20l160 39l-113 260h-459l-119 -256l218 -39l12 -24l-19 -39h-456l12 39l25 20l81 39l316 631q16 31 43 86t42.5 85.5t40.5 69.5t50 68l76 54q76 -153 145.5 -301.5t173 -377.5t142.5 -315l108 -45l2 -24l-14 -29h-492zM846 1522l90 16q0 -153 -83.5 -242.5 t-225.5 -89.5q-152 0 -228.5 83t-76.5 216l84 23q0 -59 18 -98.5t52.5 -59t71 -26.5t85.5 -7q106 0 159.5 39.5t53.5 145.5zM514 709l-125 -269h387l-90 211q-45 100 -96 226z" />
<glyph unicode="&#x104;" horiz-adv-x="1382" d="M821 45l21 23l190 49l-135 344h-526l-142 -342l258 -47l13 -27l-21 -45h-520l14 43l27 25l94 45l371 845q11 23 33.5 70.5t32 67t27.5 54.5t30.5 55.5t30.5 47t38 50.5l72 55q102 -224 274 -644t252 -601l125 -58l2 -24l-16 -31h-66q-109 -3 -173 -71t-64 -156 q0 -49 30.5 -80t88.5 -31q57 0 104 31l19 -21l-2 -26q-22 -29 -70 -49.5t-109 -20.5q-89 0 -146.5 43.5t-57.5 124.5q0 78 57 144.5t158 111.5h-318zM563 922l-155 -373h454l-106 274l-115 289z" />
<glyph unicode="&#x105;" horiz-adv-x="1265" d="M745 39l19 20l160 39l-113 260h-459l-119 -256l218 -39l12 -24l-19 -39h-456l12 39l25 20l81 39l316 631q16 31 43 86t42.5 85.5t40.5 69.5t50 68l76 54q76 -153 145.5 -301.5t173 -377.5t142.5 -315l108 -45l2 -24l-14 -29h-53q-109 -3 -173.5 -71t-64.5 -156 q0 -49 30.5 -80t88.5 -31q57 0 104 31l19 -21l-2 -26q-22 -29 -70 -49.5t-109 -20.5q-89 0 -146.5 43.5t-57.5 124.5q0 78 57 144.5t158 111.5h-273zM514 709l-125 -269h387l-90 211q-45 100 -96 226z" />
<glyph unicode="&#x106;" horiz-adv-x="1208" d="M1108 1147q4 -54 4 -117q0 -165 -16 -287l-70 23q-10 27 -69.5 193.5t-88.5 238.5q-86 39 -176 39q-111 0 -190 -38t-126 -113.5t-68 -178.5t-21 -243q0 -279 97 -412t327 -133q107 0 206.5 36t206.5 124l27 -9v-41q-172 -249 -494 -249q-132 0 -235 37t-168 99.5 t-106.5 152t-58.5 185.5t-17 210q0 110 22.5 208.5t71.5 185t121 149.5t177.5 99.5t233.5 36.5q131 0 250 -59t160 -137zM553 1454l-25 59q153 80 412 252q67 -91 84 -178q-330 -84 -471 -133z" />
<glyph unicode="&#x107;" horiz-adv-x="1107" d="M999 922q5 -45 5 -84q0 -142 -17 -246l-63 18q-18 42 -68 168t-74 180q-87 27 -147 27q-186 0 -266 -111.5t-80 -336.5q0 -217 83.5 -325t282.5 -108q190 0 359 125l24 -12v-35q-154 -200 -438 -200q-117 0 -208 30t-148.5 80t-94.5 122t-52 149.5t-15 168.5 q0 111 32.5 207t97.5 173.5t173.5 122t249.5 44.5q117 0 222.5 -47t141.5 -110zM535 1169l-37 39q61 62 173.5 190.5t166.5 186.5q88 -68 129 -149q-235 -130 -432 -267z" />
<glyph unicode="&#x108;" horiz-adv-x="1208" d="M1108 1147q4 -54 4 -117q0 -165 -16 -287l-70 23q-10 27 -69.5 193.5t-88.5 238.5q-86 39 -176 39q-111 0 -190 -38t-126 -113.5t-68 -178.5t-21 -243q0 -279 97 -412t327 -133q107 0 206.5 36t206.5 124l27 -9v-41q-172 -249 -494 -249q-132 0 -235 37t-168 99.5 t-106.5 152t-58.5 185.5t-17 210q0 110 22.5 208.5t71.5 185t121 149.5t177.5 99.5t233.5 36.5q131 0 250 -59t160 -137zM604 1726l84 17q120 -77 293 -230l-35 -53q-126 72 -293 142q-100 -45 -280 -148l-35 53q146 135 266 219z" />
<glyph unicode="&#x109;" horiz-adv-x="1107" d="M999 922q5 -45 5 -84q0 -142 -17 -246l-63 18q-18 42 -68 168t-74 180q-87 27 -147 27q-186 0 -266 -111.5t-80 -336.5q0 -217 83.5 -325t282.5 -108q190 0 359 125l24 -12v-35q-154 -200 -438 -200q-117 0 -208 30t-148.5 80t-94.5 122t-52 149.5t-15 168.5 q0 111 32.5 207t97.5 173.5t173.5 122t249.5 44.5q117 0 222.5 -47t141.5 -110zM551 1524l96 30q21 -20 41.5 -40.5t43.5 -45.5t39 -42.5t42.5 -47.5t38 -43.5t41 -48.5t37.5 -45l-49 -47q-118 100 -277 205q-22 -17 -84 -63t-100.5 -76.5t-73.5 -63.5l-45 41 q113 150 250 287z" />
<glyph unicode="&#x10a;" horiz-adv-x="1208" d="M1108 1147q4 -54 4 -117q0 -165 -16 -287l-70 23q-10 27 -69.5 193.5t-88.5 238.5q-86 39 -176 39q-111 0 -190 -38t-126 -113.5t-68 -178.5t-21 -243q0 -279 97 -412t327 -133q107 0 206.5 36t206.5 124l27 -9v-41q-172 -249 -494 -249q-132 0 -235 37t-168 99.5 t-106.5 152t-58.5 185.5t-17 210q0 110 22.5 208.5t71.5 185t121 149.5t177.5 99.5t233.5 36.5q131 0 250 -59t160 -137zM551 1579q0 53 34.5 85t86.5 32t87.5 -32t35.5 -85t-35 -84t-88 -31q-52 0 -86.5 31t-34.5 84z" />
<glyph unicode="&#x10b;" horiz-adv-x="1107" d="M999 922q5 -45 5 -84q0 -142 -17 -246l-63 18q-18 42 -68 168t-74 180q-87 27 -147 27q-186 0 -266 -111.5t-80 -336.5q0 -217 83.5 -325t282.5 -108q190 0 359 125l24 -12v-35q-154 -200 -438 -200q-117 0 -208 30t-148.5 80t-94.5 122t-52 149.5t-15 168.5 q0 111 32.5 207t97.5 173.5t173.5 122t249.5 44.5q117 0 222.5 -47t141.5 -110zM483 1358q0 53 34.5 85t86.5 32t87.5 -32t35.5 -85t-35 -84t-88 -31q-52 0 -86.5 31t-34.5 84z" />
<glyph unicode="&#x10c;" horiz-adv-x="1208" d="M1108 1147q4 -54 4 -117q0 -165 -16 -287l-70 23q-10 27 -69.5 193.5t-88.5 238.5q-86 39 -176 39q-111 0 -190 -38t-126 -113.5t-68 -178.5t-21 -243q0 -279 97 -412t327 -133q107 0 206.5 36t206.5 124l27 -9v-41q-172 -249 -494 -249q-132 0 -235 37t-168 99.5 t-106.5 152t-58.5 185.5t-17 210q0 110 22.5 208.5t71.5 185t121 149.5t177.5 99.5t233.5 36.5q131 0 250 -59t160 -137zM715 1468l-84 -16q-124 80 -293 229l35 54q126 -72 293 -142q100 45 280 148l35 -53q-150 -139 -266 -220z" />
<glyph unicode="&#x10d;" horiz-adv-x="1107" d="M999 922q5 -45 5 -84q0 -142 -17 -246l-63 18q-18 42 -68 168t-74 180q-87 27 -147 27q-186 0 -266 -111.5t-80 -336.5q0 -217 83.5 -325t282.5 -108q190 0 359 125l24 -12v-35q-154 -200 -438 -200q-117 0 -208 30t-148.5 80t-94.5 122t-52 149.5t-15 168.5 q0 111 32.5 207t97.5 173.5t173.5 122t249.5 44.5q117 0 222.5 -47t141.5 -110zM657 1221l-96 -31q-29 27 -56.5 55t-63 68.5t-50 57t-61.5 72t-51 60.5l49 47q116 -98 276 -204q25 20 84.5 63.5t99 75t74.5 63.5l45 -41q-110 -146 -250 -286z" />
<glyph unicode="&#x10e;" horiz-adv-x="1431" d="M55 1274l21 49h665q149 0 260 -35t178.5 -93t109 -145.5t56.5 -179t15 -206.5q0 -140 -34 -256.5t-105 -209.5t-193.5 -145.5t-286.5 -52.5h-708l12 47l37 23l174 34v1117l-188 30zM735 1225h-282v-1127h282q227 0 317.5 131t90.5 435t-90 432.5t-318 128.5zM709 1468 l-84 -16q-124 80 -293 229l35 54q129 -73 292 -142q104 47 281 148l35 -53q-150 -139 -266 -220z" />
<glyph unicode="&#x10f;" horiz-adv-x="1306" d="M68 1020l18 41h594q110 0 196.5 -19t145.5 -55t99.5 -82.5t62.5 -108.5t31.5 -125t9.5 -139q0 -113 -30 -206t-92 -167.5t-170 -116.5t-253 -42h-629l10 39l33 22l148 31v879l-162 28zM668 971h-238v-881h238q195 0 271.5 99.5t76.5 342.5t-75.5 341t-272.5 98zM713 1221 l-97 -31q-29 27 -56.5 55t-63 68.5t-50 57t-61.5 72t-51 60.5l49 47q116 -98 276 -204q27 21 85.5 64t98.5 74.5t75 63.5l45 -41q-110 -146 -250 -286z" />
<glyph unicode="&#x110;" horiz-adv-x="1452" d="M53 0l13 47l36 23l174 34v514h-200q11 63 37 95h163v508l-188 30l-12 23l20 49h666q107 0 194.5 -18t151 -49.5t111.5 -79.5t78.5 -102t49 -123t26 -137.5t7.5 -149.5q0 -111 -20.5 -207.5t-67 -181.5t-117 -145t-176 -95t-237.5 -35h-709zM690 618h-217v-520h283 q116 0 194 32t125.5 103t67.5 174.5t20 256.5q0 305 -89.5 433t-317.5 128h-283v-512h285q-3 -25 -23.5 -53t-44.5 -42z" />
<glyph unicode="&#x111;" horiz-adv-x="1325" d="M70 0l10 39l33 22l147 31v400h-176q9 50 35 83h141v396l-162 28l-12 21l18 41h594q110 0 196.5 -19t145.5 -55t99.5 -82.5t62.5 -108.5t31.5 -125t9.5 -139q0 -113 -30 -206t-92 -167.5t-170 -116.5t-253 -42h-628zM635 492h-186v-402h237q195 0 271.5 99.5t76.5 342.5 t-75.5 341t-272.5 98h-237v-396h247q-6 -50 -61 -83z" />
<glyph unicode="&#x112;" horiz-adv-x="1251" d="M1090 379l71 16q-21 -215 -49 -395h-1079l12 47l37 23l174 34v1117l-188 30l-13 23l21 49h1036q3 -170 -12 -346l-62 12q-45 111 -88 236h-497v-508h563q0 -33 -49.5 -62.5t-100.5 -40.5h-413v-516h469zM375 1614h610q-3 -28 -24 -64t-43 -49h-580q15 86 37 113z" />
<glyph unicode="&#x113;" horiz-adv-x="1146" d="M983 313l66 15q-17 -183 -43 -328h-955l10 39l33 22l150 31v879l-164 28l-10 21l18 41h918q3 -130 -11 -289l-57 10q-26 53 -80 189h-426v-389h488q0 -27 -45.5 -58t-86.5 -39h-356v-395h404zM338 1413h610q-3 -28 -24 -64t-43 -49h-580q15 86 37 113z" />
<glyph unicode="&#x114;" horiz-adv-x="1251" d="M1090 379l71 16q-21 -215 -49 -395h-1079l12 47l37 23l174 34v1117l-188 30l-13 23l21 49h1036q3 -170 -12 -346l-62 12q-45 111 -88 236h-497v-508h563q0 -33 -49.5 -62.5t-100.5 -40.5h-413v-516h469zM866 1722l90 17q0 -133 -84.5 -216t-224.5 -83q-150 0 -227.5 77 t-77.5 189l84 23q0 -158 227 -158q103 0 158 35t55 116z" />
<glyph unicode="&#x115;" horiz-adv-x="1146" d="M70 1020l18 41h918q3 -130 -11 -289l-57 10q-26 53 -80 189h-426v-389h488q0 -27 -45.5 -58t-86.5 -39h-356v-395h404l147 223l66 15q-17 -183 -43 -328h-955l10 39l33 22l150 31v879l-164 28zM829 1522l91 16q0 -153 -84 -242.5t-226 -89.5q-152 0 -228.5 83t-76.5 216 l84 23q0 -59 18 -98.5t52.5 -59t71 -26.5t85.5 -7q106 0 159.5 39.5t53.5 145.5z" />
<glyph unicode="&#x116;" horiz-adv-x="1251" d="M55 1274l21 49h1036q3 -170 -12 -346l-62 12q-45 111 -88 236h-497v-508h563q0 -33 -49.5 -62.5t-100.5 -40.5h-413v-516h469l168 281l71 16q-21 -215 -49 -395h-1079l12 47l37 23l174 34v1117l-188 30zM532 1579q0 53 34.5 85t86.5 32t87.5 -32t35.5 -85t-35 -84 t-88 -31q-52 0 -86.5 31t-34.5 84z" />
<glyph unicode="&#x117;" horiz-adv-x="1146" d="M70 1020l18 41h918q3 -130 -11 -289l-57 10q-26 53 -80 189h-426v-389h488q0 -27 -45.5 -58t-86.5 -39h-356v-395h404l147 223l66 15q-17 -183 -43 -328h-955l10 39l33 22l150 31v879l-164 28zM496 1358q0 53 34 85t86 32t87.5 -32t35.5 -85t-35 -84t-88 -31 q-52 0 -86 31t-34 84z" />
<glyph unicode="&#x118;" horiz-adv-x="1251" d="M1090 379l71 16q-21 -215 -49 -395q-120 -48 -168.5 -103.5t-48.5 -129.5q0 -45 31 -75t88 -30t104 31l19 -21l-2 -26q-22 -29 -70 -49.5t-109 -20.5q-89 0 -146.5 43.5t-57.5 124.5q0 160 241 256h-960l12 47l37 23l174 34v1117l-188 30l-13 23l21 49h1036 q3 -170 -12 -346l-62 12q-45 111 -88 236h-497v-508h563q0 -33 -49.5 -62.5t-100.5 -40.5h-413v-516h469z" />
<glyph unicode="&#x119;" horiz-adv-x="1146" d="M983 313l66 15q-17 -183 -43 -328q-120 -48 -169 -103.5t-49 -129.5q0 -45 31 -75t88 -30q58 0 105 31l18 -21l-2 -26q-22 -29 -70 -49.5t-108 -20.5q-89 0 -147 43.5t-58 124.5q0 160 242 256h-836l10 39l33 22l150 31v879l-164 28l-10 21l18 41h918q3 -130 -11 -289 l-57 10q-26 53 -80 189h-426v-389h488q0 -27 -45.5 -58t-86.5 -39h-356v-395h404z" />
<glyph unicode="&#x11a;" horiz-adv-x="1251" d="M1090 379l71 16q-21 -215 -49 -395h-1079l12 47l37 23l174 34v1117l-188 30l-13 23l21 49h1036q3 -170 -12 -346l-62 12q-45 111 -88 236h-497v-508h563q0 -33 -49.5 -62.5t-100.5 -40.5h-413v-516h469zM696 1468l-84 -16q-124 80 -293 229l35 54q126 -72 293 -142 q104 47 281 148l35 -53q-147 -136 -267 -220z" />
<glyph unicode="&#x11b;" horiz-adv-x="1146" d="M70 1020l18 41h918q3 -130 -11 -289l-57 10q-26 53 -80 189h-426v-389h488q0 -27 -45.5 -58t-86.5 -39h-356v-395h404l147 223l66 15q-17 -183 -43 -328h-955l10 39l33 22l150 31v879l-164 28zM670 1221l-97 -31q-29 27 -56.5 55t-63 68.5t-50 57t-61.5 72t-51 60.5 l49 47q116 -98 276 -204q25 20 84.5 63.5t99 75t74.5 63.5l46 -41q-110 -146 -250 -286z" />
<glyph unicode="&#x11c;" horiz-adv-x="1341" d="M1202 643v-612l-53 -47l-84 90q-68 -45 -177 -69.5t-206 -24.5q-144 0 -253 37.5t-175.5 99t-108.5 152t-57.5 185.5t-15.5 210q0 110 23.5 208.5t75.5 185t128 149.5t187.5 99.5t248.5 36.5q157 0 291 -52.5t162 -114.5q6 -59 3 -164.5t-15 -188.5l-70 23 q-13 36 -54.5 151t-62.5 170q-120 70 -270 70q-230 0 -331 -138t-101 -435q0 -303 104.5 -434.5t339.5 -131.5q152 0 287 58v368l-275 58v34l33 27h426zM647 1726l84 17q120 -77 293 -230l-35 -53q-126 72 -293 142q-100 -45 -280 -148l-35 53q146 135 266 219z" />
<glyph unicode="&#x11d;" horiz-adv-x="1226" d="M1085 518v-491l-49 -41l-78 73q-59 -37 -152.5 -57t-182.5 -20q-106 0 -191 20.5t-143.5 58.5t-99.5 87t-64 113t-33 129.5t-10 141.5q0 87 20.5 165t66 148.5t113 122t167.5 81.5t223 30q138 0 255.5 -42t143.5 -93q6 -49 3 -134.5t-13 -152.5l-64 19q-18 42 -53 128.5 t-53 127.5q-97 51 -232 51q-197 0 -283.5 -107.5t-86.5 -343.5q0 -228 90 -335t293 -107q133 0 237 39v289l-231 45l-2 29l29 26h380zM582 1524l96 30q21 -20 41.5 -40.5t43.5 -45.5t39 -42.5t42.5 -47.5t38 -43.5t41 -48.5t37.5 -45l-50 -47q-121 103 -276 205 q-22 -17 -84 -63t-100.5 -76.5t-73.5 -63.5l-45 41q113 150 250 287z" />
<glyph unicode="&#x11e;" horiz-adv-x="1341" d="M1202 643v-612l-53 -47l-84 90q-68 -45 -177 -69.5t-206 -24.5q-144 0 -253 37.5t-175.5 99t-108.5 152t-57.5 185.5t-15.5 210q0 110 23.5 208.5t75.5 185t128 149.5t187.5 99.5t248.5 36.5q157 0 291 -52.5t162 -114.5q6 -59 3 -164.5t-15 -188.5l-70 23 q-13 36 -54.5 151t-62.5 170q-120 70 -270 70q-230 0 -331 -138t-101 -435q0 -303 104.5 -434.5t339.5 -131.5q152 0 287 58v368l-275 58v34l33 27h426zM928 1722l90 17q0 -133 -84.5 -216t-224.5 -83q-150 0 -228 77t-78 189l84 23q0 -158 228 -158q103 0 158 35t55 116z " />
<glyph unicode="&#x11f;" horiz-adv-x="1226" d="M1085 518v-491l-49 -41l-78 73q-59 -37 -152.5 -57t-182.5 -20q-106 0 -191 20.5t-143.5 58.5t-99.5 87t-64 113t-33 129.5t-10 141.5q0 87 20.5 165t66 148.5t113 122t167.5 81.5t223 30q138 0 255.5 -42t143.5 -93q6 -49 3 -134.5t-13 -152.5l-64 19q-18 42 -53 128.5 t-53 127.5q-97 51 -232 51q-197 0 -283.5 -107.5t-86.5 -343.5q0 -228 90 -335t293 -107q133 0 237 39v289l-231 45l-2 29l29 26h380zM848 1522l90 16q0 -153 -83.5 -242.5t-225.5 -89.5q-152 0 -228.5 83t-76.5 216l84 23q0 -59 18 -98.5t52.5 -59t71 -26.5t85.5 -7 q106 0 159.5 39.5t53.5 145.5z" />
<glyph unicode="&#x120;" horiz-adv-x="1341" d="M1202 643v-612l-53 -47l-84 90q-68 -45 -177 -69.5t-206 -24.5q-144 0 -253 37.5t-175.5 99t-108.5 152t-57.5 185.5t-15.5 210q0 110 23.5 208.5t75.5 185t128 149.5t187.5 99.5t248.5 36.5q157 0 291 -52.5t162 -114.5q6 -59 3 -164.5t-15 -188.5l-70 23 q-13 36 -54.5 151t-62.5 170q-120 70 -270 70q-230 0 -331 -138t-101 -435q0 -303 104.5 -434.5t339.5 -131.5q152 0 287 58v368l-275 58v34l33 27h426zM594 1579q0 53 34.5 85t86.5 32t87.5 -32t35.5 -85t-35 -84t-88 -31q-52 0 -86.5 31t-34.5 84z" />
<glyph unicode="&#x121;" horiz-adv-x="1226" d="M1085 518v-491l-49 -41l-78 73q-59 -37 -152.5 -57t-182.5 -20q-106 0 -191 20.5t-143.5 58.5t-99.5 87t-64 113t-33 129.5t-10 141.5q0 87 20.5 165t66 148.5t113 122t167.5 81.5t223 30q138 0 255.5 -42t143.5 -93q6 -49 3 -134.5t-13 -152.5l-64 19q-18 42 -53 128.5 t-53 127.5q-97 51 -232 51q-197 0 -283.5 -107.5t-86.5 -343.5q0 -228 90 -335t293 -107q133 0 237 39v289l-231 45l-2 29l29 26h380zM514 1358q0 53 34.5 85t86.5 32t87.5 -32t35.5 -85t-35 -84t-88 -31q-52 0 -86.5 31t-34.5 84z" />
<glyph unicode="&#x122;" horiz-adv-x="1341" d="M1202 643v-612l-53 -47l-84 90q-68 -45 -177 -69.5t-206 -24.5q-144 0 -253 37.5t-175.5 99t-108.5 152t-57.5 185.5t-15.5 210q0 110 23.5 208.5t75.5 185t128 149.5t187.5 99.5t248.5 36.5q157 0 291 -52.5t162 -114.5q6 -59 3 -164.5t-15 -188.5l-70 23 q-13 36 -54.5 151t-62.5 170q-120 70 -270 70q-230 0 -331 -138t-101 -435q0 -303 104.5 -434.5t339.5 -131.5q152 0 287 58v368l-275 58v34l33 27h426zM807 -96q14 -106 -30 -202.5t-173 -203.5l-43 41q55 59 78 112t21.5 105.5t-11.5 122.5q49 25 158 25z" />
<glyph unicode="&#x123;" horiz-adv-x="1226" d="M1085 518v-491l-49 -41l-78 73q-59 -37 -152.5 -57t-182.5 -20q-106 0 -191 20.5t-143.5 58.5t-99.5 87t-64 113t-33 129.5t-10 141.5q0 87 20.5 165t66 148.5t113 122t167.5 81.5t223 30q138 0 255.5 -42t143.5 -93q6 -49 3 -134.5t-13 -152.5l-64 19q-18 42 -53 128.5 t-53 127.5q-97 51 -232 51q-197 0 -283.5 -107.5t-86.5 -343.5q0 -228 90 -335t293 -107q133 0 237 39v289l-231 45l-2 29l29 26h380zM727 -96q14 -106 -30 -202.5t-173 -203.5l-43 41q55 59 78 112t21.5 105.5t-11.5 122.5q49 25 158 25z" />
<glyph unicode="&#x124;" horiz-adv-x="1630" d="M653 49l-20 -49h-600l12 47l37 23l174 34v1117l-188 30l-13 23l21 49h600l-12 -47l-37 -23l-174 -34v-502h725v504l-189 30l-12 23l20 49h600l-12 -47l-37 -23l-174 -34v-1117l189 -30l12 -23l-21 -49h-600l13 47l37 23l174 34v510h-725v-512l188 -30zM776 1726l84 17 q120 -77 293 -230l-35 -53q-126 72 -293 142q-100 -45 -280 -148l-35 53q146 135 266 219z" />
<glyph unicode="&#x125;" horiz-adv-x="1480" d="M51 0l10 39l33 22l150 31v879l-164 28l-10 21l18 41h535l-11 -39l-32 -21l-148 -32v-387h617v389l-162 28l-13 21l19 41h537l-11 -39l-33 -21l-149 -32v-879l164 -27l10 -22l-18 -41h-535l10 39l33 22l148 31v393h-617v-395l162 -27l10 -22l-16 -41h-537zM692 1524l96 30 q21 -20 41.5 -40.5t43.5 -45.5t39 -42.5t42.5 -47.5t38 -43.5t41 -48.5t37.5 -45l-49 -47q-118 100 -277 205q-22 -17 -84 -63t-100.5 -76.5t-73.5 -63.5l-45 41q113 150 250 287z" />
<glyph unicode="&#x126;" horiz-adv-x="1671" d="M53 0l13 47l36 23l174 34v826h-225q9 52 33 82h192v209l-188 30l-12 23l20 49h600l-12 -47l-37 -23l-174 -34v-207h725v209l-188 30l-13 23l21 49h600l-12 -47l-37 -23l-174 -34v-207h252q-15 -54 -64 -82h-188v-828l188 -30l12 -23l-20 -49h-600l12 47l37 23l174 34v510 h-725v-512l189 -30l12 -23l-21 -49h-600zM473 930v-213h725v213h-725z" />
<glyph unicode="&#x127;" horiz-adv-x="1515" d="M68 0l10 39l33 22l149 31v649h-194q8 44 30 72h164v158l-164 28l-10 21l18 41h535l-10 -39l-33 -21l-147 -32v-156h616v158l-162 28l-12 21l18 41h537l-10 -39l-33 -21l-150 -32v-156h220q-11 -46 -58 -72h-162v-651l164 -27l10 -22l-18 -41h-535l11 39l33 22l147 31v393 h-616v-395l161 -27l11 -22l-17 -41h-536zM449 741v-159h616v159h-616z" />
<glyph unicode="&#x128;" horiz-adv-x="708" d="M33 0l12 47l37 23l174 34v1117l-188 30l-13 23l21 49h600l-12 -47l-37 -23l-174 -34v-1117l188 -30l12 -23l-20 -49h-600zM166 1544l-105 -92l-47 29q9 13 28 40.5t29.5 40.5t29 32.5t41.5 34t53 26.5q50 -8 179.5 -46.5t164.5 -47.5l108 98l39 -19q-8 -24 -17.5 -44.5 t-17 -35t-19.5 -29t-18 -22t-20 -19t-18 -14.5t-19.5 -14t-17.5 -12q-148 0 -373 94z" />
<glyph unicode="&#x129;" horiz-adv-x="673" d="M604 41l-16 -41h-537l10 39l33 22l150 31v879l-164 28l-10 21l18 41h535l-11 -39l-32 -21l-148 -32v-879l162 -27zM150 1343l-105 -92l-47 29q10 13 28.5 40.5t29 40.5t29 32.5t41 34t52.5 26.5q50 -8 179.5 -46.5t164.5 -47.5l109 98l39 -18q-8 -24 -18 -44.5t-17 -35 t-19.5 -29.5t-18 -22t-20 -19t-18 -15t-20 -14t-17.5 -12q-147 0 -372 94z" />
<glyph unicode="&#x12a;" horiz-adv-x="708" d="M33 0l12 47l37 23l174 34v1117l-188 30l-13 23l21 49h600l-12 -47l-37 -23l-174 -34v-1117l188 -30l12 -23l-20 -49h-600zM78 1614h610q-3 -28 -24 -64t-43 -49h-580q15 86 37 113z" />
<glyph unicode="&#x12b;" horiz-adv-x="673" d="M604 41l-16 -41h-537l10 39l33 22l150 31v879l-164 28l-10 21l18 41h535l-11 -39l-32 -21l-148 -32v-879l162 -27zM61 1413h611q-3 -27 -24.5 -63.5t-43.5 -49.5h-579q0 1 2.5 16.5t4.5 24.5t6 24t9.5 27t13.5 21z" />
<glyph unicode="&#x12c;" horiz-adv-x="708" d="M33 0l12 47l37 23l174 34v1117l-188 30l-13 23l21 49h600l-12 -47l-37 -23l-174 -34v-1117l188 -30l12 -23l-20 -49h-600zM569 1722l90 17q0 -133 -84.5 -216t-224.5 -83q-150 0 -227.5 77t-77.5 189l84 23q0 -158 227 -158q103 0 158 35t55 116z" />
<glyph unicode="&#x12d;" horiz-adv-x="673" d="M51 0l10 39l33 22l150 31v879l-164 28l-10 21l18 41h535l-11 -39l-32 -21l-148 -32v-879l162 -27l10 -22l-16 -41h-537zM553 1522l90 16q0 -153 -83.5 -242.5t-225.5 -89.5q-152 0 -228.5 83t-76.5 216l84 23q0 -59 18 -98.5t52.5 -59t71 -26.5t85.5 -7q106 0 159.5 39.5 t53.5 145.5z" />
<glyph unicode="&#x12e;" horiz-adv-x="708" d="M653 49l-20 -49h-78q-109 -3 -173.5 -71t-64.5 -156q0 -49 30.5 -80t88.5 -31t105 31l18 -21l-2 -26q-22 -29 -69.5 -49.5t-108.5 -20.5q-89 0 -147 43.5t-58 124.5q0 78 57 144.5t158 111.5h-356l12 47l37 23l174 34v1117l-188 30l-13 23l21 49h600l-12 -47l-37 -23 l-174 -34v-1117l188 -30z" />
<glyph unicode="&#x12f;" horiz-adv-x="673" d="M604 41l-16 -41h-72q-109 -3 -173 -71t-64 -156q0 -50 30 -80.5t88 -30.5t105 31l18 -21l-2 -26q-22 -29 -70 -49.5t-108 -20.5q-89 0 -147 43.5t-58 124.5q0 78 57 144.5t158 111.5h-299l10 39l33 22l150 31v879l-164 28l-10 21l18 41h535l-11 -39l-32 -21l-148 -32 v-879l162 -27z" />
<glyph unicode="&#x130;" horiz-adv-x="708" d="M33 0l12 47l37 23l174 34v1117l-188 30l-13 23l21 49h600l-12 -47l-37 -23l-174 -34v-1117l188 -30l12 -23l-20 -49h-600zM236 1579q0 53 34 85t86 32t87.5 -32t35.5 -85t-35 -84t-88 -31q-52 0 -86 31t-34 84z" />
<glyph unicode="&#x131;" horiz-adv-x="673" d="M51 0l10 39l33 22l150 31v879l-164 28l-10 21l18 41h535l-11 -39l-32 -21l-148 -32v-879l162 -27l10 -22l-16 -41h-537z" />
<glyph unicode="&#x132;" horiz-adv-x="1335" d="M637 -246l31 45l272 11q43 65 39 151l-25 289v971l-217 30l-14 23l25 49h612l-12 -47l-35 -23l-162 -34v-914q0 -94 -9 -174.5t-32 -161t-60 -142t-97.5 -111.5t-139.5 -76q-41 8 -96 46.5t-80 67.5zM653 49l-20 -49h-600l12 47l37 23l174 34v1117l-188 30l-13 23l21 49 h600l-12 -47l-37 -23l-174 -34v-1117l188 -30z" />
<glyph unicode="&#x133;" horiz-adv-x="1308" d="M629 -190l28 38l240 9q39 55 33 120l-23 244v750l-186 28l-12 21l20 41h547l-12 -39l-31 -21l-137 -32v-725q0 -434 -310 -533q-35 5 -83.5 38.5t-73.5 60.5zM51 0l10 39l33 22l150 31v879l-164 28l-10 21l18 41h535l-11 -39l-32 -21l-148 -32v-879l162 -27l10 -22 l-16 -41h-537z" />
<glyph unicode="&#x134;" horiz-adv-x="1009" d="M1016 1323l-12 -47l-35 -23l-162 -34v-828q0 -188 -107.5 -299.5t-332.5 -111.5q-99 0 -198.5 34.5t-139.5 89.5q-29 131 -29 349l70 -15q94 -243 176 -354q53 -16 106 -16q134 0 196 64.5t62 205.5v883l-233 30l-15 23l25 49h629zM643 1726l84 17q120 -77 293 -230 l-35 -53q-126 72 -293 142q-100 -45 -280 -148l-35 53q146 135 266 219z" />
<glyph unicode="&#x135;" horiz-adv-x="937" d="M922 1061l-11 -39l-30 -21l-138 -32v-652q0 -154 -96 -243.5t-299 -89.5q-87 0 -176.5 27.5t-124.5 70.5q-24 98 -24 291l65 -13q65 -158 148 -280q54 -14 98 -14q114 0 167.5 53t53.5 160v692l-203 28l-12 21l22 41h560zM594 1524l96 30q21 -20 41.5 -40.5t43.5 -45.5 t39 -42.5t42.5 -47.5t38 -43.5t41 -48.5t37.5 -45l-49 -47q-118 100 -277 205q-22 -17 -84 -63t-100.5 -76.5t-73.5 -63.5l-45 41q113 150 250 287z" />
<glyph unicode="&#x136;" horiz-adv-x="1406" d="M33 0l12 47l37 23l174 34v1117l-188 30l-13 23l21 49h559l-12 -47l-37 -23l-133 -34v-1117l147 -30l12 -23l-20 -49h-559zM899 45l21 23l98 24l-475 533l-8 59l552 514l-221 53l-12 27l20 45h439l-13 -66q-285 -285 -585 -550l542 -601l138 -40l12 -35l-16 -31h-496z M831 -96q14 -107 -30 -203t-172 -203l-43 41q55 59 78 112t21.5 105.5t-11.5 122.5q49 25 157 25z" />
<glyph unicode="&#x137;" horiz-adv-x="1286" d="M811 39l20 20l80 21l-405 418l-6 49l473 407l-189 41l-10 29l19 37h395l-10 -55q-323 -287 -502 -435l459 -475l125 -37l10 -30l-15 -29h-448zM51 0l10 39l33 22l150 31v879l-164 28l-10 21l18 41h502l-10 -39l-33 -21l-117 -32v-879l127 -27l12 -22l-18 -41h-500z M766 -96q14 -106 -30 -202.5t-173 -203.5l-43 41q55 59 78 112t21.5 105.5t-11.5 122.5q49 25 158 25z" />
<glyph unicode="&#x139;" horiz-adv-x="1159" d="M1049 436l69 17q-33 -347 -55 -453h-1030l12 47l37 23l174 34v1117l-188 30l-13 23l21 49h624l-12 -47l-41 -23l-194 -34v-1117h426zM236 1454l-25 59q153 80 412 252q67 -91 84 -178q-330 -84 -471 -133z" />
<glyph unicode="&#x13a;" horiz-adv-x="1064" d="M70 1020l18 41h555l-10 -39l-35 -21l-166 -32v-875h365l149 266l64 13q-21 -244 -47 -373h-912l10 39l33 22l150 31v879l-164 28zM272 1169l-36 39q61 62 172.5 190t166.5 187q90 -70 130 -149q-240 -133 -433 -267z" />
<glyph unicode="&#x13b;" horiz-adv-x="1159" d="M1049 436l69 17q-33 -347 -55 -453h-1030l12 47l37 23l174 34v1117l-188 30l-13 23l21 49h624l-12 -47l-41 -23l-194 -34v-1117h426zM711 -96q14 -106 -30 -202.5t-173 -203.5l-43 41q55 59 78 112t21.5 105.5t-11.5 122.5q49 25 158 25z" />
<glyph unicode="&#x13c;" horiz-adv-x="1064" d="M643 1061l-10 -39l-35 -21l-166 -32v-875h365l149 266l64 13q-21 -244 -47 -373h-912l10 39l33 22l150 31v879l-164 28l-10 21l18 41h344h211zM762 -96q14 -106 -30 -202.5t-173 -203.5l-43 41q55 59 78 112t21.5 105.5t-11.5 122.5q49 25 158 25z" />
<glyph unicode="&#x13d;" horiz-adv-x="1159" d="M1049 436l69 17q-33 -347 -55 -453h-1030l12 47l37 23l174 34v1117l-188 30l-13 23l21 49h624l-12 -47l-41 -23l-194 -34v-1117h426zM983 1327l-192 -393l-50 18q34 112 43 178.5t11 194.5q41 10 95.5 11t92.5 -9z" />
<glyph unicode="&#x13e;" horiz-adv-x="1064" d="M643 1061l-10 -39l-35 -21l-166 -32v-875h365l149 266l64 13q-21 -244 -47 -373h-912l10 39l33 22l150 31v879l-164 28l-10 21l18 41h344h211zM926 1057l-193 -393l-49 18q34 111 42.5 177t10.5 196q41 10 96 11t93 -9z" />
<glyph unicode="&#x13f;" horiz-adv-x="1159" d="M700 1323l-12 -47l-41 -23l-194 -34v-1117h426l170 334l69 17q-33 -347 -55 -453h-1030l12 47l37 23l174 34v1117l-188 30l-13 23l21 49h377h247zM715 702q0 51 30 79t76 28q48 0 78.5 -28t30.5 -79q0 -50 -30.5 -77t-78.5 -27q-47 0 -76.5 27t-29.5 77z" />
<glyph unicode="&#x140;" horiz-adv-x="1064" d="M643 1061l-10 -39l-35 -21l-166 -32v-875h365l149 266l64 13q-21 -244 -47 -373h-912l10 39l33 22l150 31v879l-164 28l-10 21l18 41h344h211zM639 571q0 51 30 79t76 28q48 0 78.5 -28t30.5 -79q0 -50 -30.5 -77t-78.5 -27q-47 0 -76.5 27t-29.5 77z" />
<glyph unicode="&#x141;" horiz-adv-x="1179" d="M53 0l13 47l36 23l174 34v390l-161 -72q-1 4 -5.5 18.5t-7 23.5t-2.5 24.5t4 29.5l172 76v627l-188 30l-12 23l20 49h625l-12 -47l-41 -23l-195 -34v-537l387 172q8 -24 3.5 -57t-19.5 -54l-371 -163v-478h426l170 334l70 17q-32 -338 -56 -453h-1030z" />
<glyph unicode="&#x142;" horiz-adv-x="1083" d="M70 0l10 39l33 22l149 31v291l-139 -55q-19 57 -10 86l149 59v498l-164 28l-10 21l18 41h556l-11 -39l-35 -21l-165 -32v-420l331 135q7 -20 3 -49.5t-17 -46.5l-317 -129v-365h364l150 266l63 13q-21 -244 -47 -373h-911z" />
<glyph unicode="&#x143;" horiz-adv-x="1542" d="M999 1274l21 49h528l-12 -47l-37 -23l-174 -34v-723q0 -449 -14 -510l-27 -19l-180 195q-326 407 -637 815l-90 137q4 -118 4 -176v-836l188 -30l13 -23l-21 -49h-528l12 47l37 23l174 34v1117l-188 30l-13 23l21 49h368q283 -399 686 -909l74 -111q-4 110 -4 162v756 l-188 30zM705 1454l-25 59q153 80 412 252q67 -91 84 -178q-330 -84 -471 -133z" />
<glyph unicode="&#x144;" horiz-adv-x="1394" d="M897 1020l16 41h465l-10 -39l-33 -21l-149 -32v-572q0 -335 -12 -403l-29 -23l-166 164q-394 426 -541 600q-17 19 -82 113q2 -45 2 -141v-617l164 -27l10 -22l-18 -41h-463l10 39l33 22l150 31v879l-164 28l-10 21l18 41h326q97 -117 295 -343.5t295 -344.5 q58 -77 69 -94q-4 47 -4 149v543l-162 28zM647 1169l-37 39q61 62 173.5 190.5t166.5 186.5q88 -68 129 -149q-235 -130 -432 -267z" />
<glyph unicode="&#x145;" horiz-adv-x="1542" d="M999 1274l21 49h528l-12 -47l-37 -23l-174 -34v-723q0 -449 -14 -510l-27 -19l-180 195q-326 407 -637 815l-90 137q4 -118 4 -176v-836l188 -30l13 -23l-21 -49h-528l12 47l37 23l174 34v1117l-188 30l-13 23l21 49h368q283 -399 686 -909l74 -111q-4 110 -4 162v756 l-188 30zM915 -96q14 -107 -30 -203t-172 -203l-43 41q55 59 78 112t21.5 105.5t-11.5 122.5q49 25 157 25z" />
<glyph unicode="&#x146;" horiz-adv-x="1394" d="M897 1020l16 41h465l-10 -39l-33 -21l-149 -32v-572q0 -335 -12 -403l-29 -23l-166 164q-394 426 -541 600q-17 19 -82 113q2 -45 2 -141v-617l164 -27l10 -22l-18 -41h-463l10 39l33 22l150 31v879l-164 28l-10 21l18 41h326q97 -117 295 -343.5t295 -344.5 q58 -77 69 -94q-4 47 -4 149v543l-162 28zM809 -96q14 -106 -30 -202.5t-173 -203.5l-43 41q55 59 78 112t21.5 105.5t-11.5 122.5q49 25 158 25z" />
<glyph unicode="&#x147;" horiz-adv-x="1542" d="M999 1274l21 49h528l-12 -47l-37 -23l-174 -34v-723q0 -449 -14 -510l-27 -19l-180 195q-326 407 -637 815l-90 137q4 -118 4 -176v-836l188 -30l13 -23l-21 -49h-528l12 47l37 23l174 34v1117l-188 30l-13 23l21 49h368q283 -399 686 -909l74 -111q-4 110 -4 162v756 l-188 30zM866 1468l-84 -16q-124 80 -293 229l35 54q126 -72 293 -142q104 47 281 148l35 -53q-147 -136 -267 -220z" />
<glyph unicode="&#x148;" horiz-adv-x="1394" d="M897 1020l16 41h465l-10 -39l-33 -21l-149 -32v-572q0 -335 -12 -403l-29 -23l-166 164q-394 426 -541 600q-17 19 -82 113q2 -45 2 -141v-617l164 -27l10 -22l-18 -41h-463l10 39l33 22l150 31v879l-164 28l-10 21l18 41h326q97 -117 295 -343.5t295 -344.5 q58 -77 69 -94q-4 47 -4 149v543l-162 28zM770 1221l-96 -31q-21 20 -41.5 40.5t-43.5 45.5t-39 42.5t-42.5 47.5t-38 43.5t-41 48.5t-37.5 45l49 47q112 -95 277 -204q25 20 84.5 63.5t99 75t74.5 63.5l45 -41q-110 -146 -250 -286z" />
<glyph unicode="&#x149;" horiz-adv-x="1824" d="M1327 1020l16 41h465l-10 -39l-33 -21l-149 -32v-572q0 -335 -12 -403l-29 -23l-166 164q-394 426 -541 600q-17 19 -82 113q2 -45 2 -141v-617l164 -27l11 -22l-19 -41h-463l11 39l32 22l150 31v879l-164 28l-10 21l18 41h326q97 -117 295 -343.5t295 -344.5 q58 -77 69 -94q-4 47 -4 149v543l-162 28zM530 1491l-215 -410h-69q6 18 20 57.5t17 47.5t11.5 38t11 44.5t9 50.5t11.5 73t12 95q38 11 96.5 12.5t95.5 -8.5z" />
<glyph unicode="&#x14a;" horiz-adv-x="1542" d="M999 1274l21 49h528l-12 -47l-37 -23l-174 -34v-859q0 -97 -6.5 -174.5t-27 -160t-54.5 -143.5t-92 -111t-137 -76q-41 8 -96 47t-81 68l31 45l273 10q31 67 47 153l-78 97q-121 150 -339.5 454.5t-297.5 407.5l-90 137q4 -86 4 -117v-895l188 -30l13 -23l-21 -49h-528 l12 47l37 23l174 34v1117l-188 30l-13 23l21 49h368q61 -86 210.5 -301t260 -369t215.5 -286l78 -127l-8 188v793l-188 30z" />
<glyph unicode="&#x14b;" horiz-adv-x="1394" d="M897 1020l16 41h465l-10 -39l-33 -21l-149 -32v-684q0 -63 -4 -114t-14.5 -107.5t-30.5 -101.5t-50 -86.5t-75.5 -73t-104.5 -50.5q-37 5 -85.5 38t-73.5 60l28 39l240 9q29 60 37 122l-74 82q-82 88 -170.5 191.5t-206.5 245.5t-164 196q-20 23 -84 115q4 -74 4 -107 v-653l164 -27l10 -22l-18 -41h-463l10 39l33 22l150 31v879l-164 28l-10 21l18 41h326q57 -70 183.5 -228t223 -275.5t183.5 -219.5q20 -25 73 -105q-4 56 -8 170v568l-162 28z" />
<glyph unicode="&#x14c;" horiz-adv-x="1388" d="M414 1614h610q-3 -27 -24.5 -63.5t-43.5 -49.5h-579q15 86 37 113zM692 88q96 0 167.5 26t117.5 73t74.5 120.5t39.5 159t11 197.5t-11 197.5t-39.5 158.5t-74.5 119t-117.5 72t-167.5 26q-120 0 -200.5 -38t-124.5 -115.5t-62 -177.5t-18 -242q0 -113 10.5 -198 t38 -158.5t73 -120.5t116.5 -73t167 -26zM692 -20q-109 0 -197.5 19.5t-152 53t-111.5 84t-78 107t-48.5 128t-25.5 141t-7 151.5q0 110 21.5 208t69.5 185.5t118.5 150t175.5 99t235 36.5q151 0 263.5 -37t180.5 -98t109.5 -151.5t56.5 -183.5t15 -209q0 -111 -20.5 -209.5 t-68 -186.5t-118.5 -151t-178 -100t-240 -37z" />
<glyph unicode="&#x14d;" horiz-adv-x="1267" d="M631 78q102 0 170.5 29.5t106.5 90.5t53.5 140.5t15.5 193.5q0 91 -9.5 158.5t-33 125t-62.5 93.5t-99 56t-142 20q-102 0 -169.5 -29t-105 -90t-52.5 -140t-15 -194t15 -194t52.5 -140.5t105 -90.5t169.5 -29zM631 -18q-112 0 -200 20t-147 58.5t-99.5 87.5t-62.5 113.5 t-31 129t-9 141.5q0 111 31.5 207t95 173.5t172 122t250.5 44.5q112 0 200.5 -20t148.5 -58.5t101 -87t63.5 -112.5t32 -128t9.5 -141q0 -90 -18 -168.5t-60 -149.5t-105 -122t-158 -80.5t-214 -29.5zM352 1413h611q-3 -27 -24.5 -63.5t-43.5 -49.5h-580q15 86 37 113z" />
<glyph unicode="&#x14e;" horiz-adv-x="1388" d="M905 1722l90 17q0 -133 -84.5 -216t-224.5 -83q-150 0 -227.5 77t-77.5 189l84 23q0 -158 227 -158q103 0 158 35t55 116zM692 88q96 0 167.5 26t117.5 73t74.5 120.5t39.5 159t11 197.5t-11 197.5t-39.5 158.5t-74.5 119t-117.5 72t-167.5 26q-120 0 -200.5 -38 t-124.5 -115.5t-62 -177.5t-18 -242q0 -113 10.5 -198t38 -158.5t73 -120.5t116.5 -73t167 -26zM692 -20q-109 0 -197.5 19.5t-152 53t-111.5 84t-78 107t-48.5 128t-25.5 141t-7 151.5q0 110 21.5 208t69.5 185.5t118.5 150t175.5 99t235 36.5q151 0 263.5 -37t180.5 -98 t109.5 -151.5t56.5 -183.5t15 -209q0 -111 -20.5 -209.5t-68 -186.5t-118.5 -151t-178 -100t-240 -37z" />
<glyph unicode="&#x14f;" horiz-adv-x="1267" d="M631 78q102 0 170.5 29.5t106.5 90.5t53.5 140.5t15.5 193.5q0 91 -9.5 158.5t-33 125t-62.5 93.5t-99 56t-142 20q-102 0 -169.5 -29t-105 -90t-52.5 -140t-15 -194t15 -194t52.5 -140.5t105 -90.5t169.5 -29zM631 -18q-112 0 -200 20t-147 58.5t-99.5 87.5t-62.5 113.5 t-31 129t-9 141.5q0 111 31.5 207t95 173.5t172 122t250.5 44.5q112 0 200.5 -20t148.5 -58.5t101 -87t63.5 -112.5t32 -128t9.5 -141q0 -90 -18 -168.5t-60 -149.5t-105 -122t-158 -80.5t-214 -29.5zM844 1522l90 16q0 -153 -83.5 -242.5t-225.5 -89.5q-152 0 -229 83 t-77 216l84 23q0 -59 18.5 -98.5t52.5 -59t71 -26.5t86 -7q106 0 159.5 39.5t53.5 145.5z" />
<glyph unicode="&#x150;" horiz-adv-x="1388" d="M481 1432l-43 28q132 269 164 328q93 -48 141 -98q-193 -176 -262 -258zM782 1434l-37 36q20 28 92.5 131t120.5 166q80 -57 125 -118q-17 -11 -75.5 -50.5t-84 -57t-67.5 -49t-74 -58.5zM692 88q96 0 167.5 26t117.5 73t74.5 120.5t39.5 159t11 197.5t-11 197.5 t-39.5 158.5t-74.5 119t-117.5 72t-167.5 26q-120 0 -200.5 -38t-124.5 -115.5t-62 -177.5t-18 -242q0 -113 10.5 -198t38 -158.5t73 -120.5t116.5 -73t167 -26zM692 -20q-109 0 -197.5 19.5t-152 53t-111.5 84t-78 107t-48.5 128t-25.5 141t-7 151.5q0 110 21.5 208 t69.5 185.5t118.5 150t175.5 99t235 36.5q151 0 263.5 -37t180.5 -98t109.5 -151.5t56.5 -183.5t15 -209q0 -111 -20.5 -209.5t-68 -186.5t-118.5 -151t-178 -100t-240 -37z" />
<glyph unicode="&#x151;" horiz-adv-x="1267" d="M631 78q102 0 170.5 29.5t106.5 90.5t53.5 140.5t15.5 193.5q0 91 -9.5 158.5t-33 125t-62.5 93.5t-99 56t-142 20q-102 0 -169.5 -29t-105 -90t-52.5 -140t-15 -194t15 -194t52.5 -140.5t105 -90.5t169.5 -29zM631 -18q-112 0 -200 20t-147 58.5t-99.5 87.5t-62.5 113.5 t-31 129t-9 141.5q0 111 31.5 207t95 173.5t172 122t250.5 44.5q112 0 200.5 -20t148.5 -58.5t101 -87t63.5 -112.5t32 -128t9.5 -141q0 -90 -18 -168.5t-60 -149.5t-105 -122t-158 -80.5t-214 -29.5zM375 1169l-39 25q37 64 106.5 194t106.5 195q91 -47 139 -102 q-153 -136 -313 -312zM682 1169l-37 29q37 50 75.5 108.5t89 137t81.5 125.5q94 -62 129 -115q-180 -136 -338 -285z" />
<glyph unicode="&#x152;" horiz-adv-x="1759" d="M1620 1323q3 -170 -12 -346l-62 12q-45 111 -88 236h-444v-508h510q0 -33 -49.5 -62.5t-100.5 -40.5h-360v-516h416l167 281l72 16q-21 -215 -49 -395h-858q-117 0 -213 18t-166.5 50t-125 80t-89 103.5t-56.5 124t-31 138t-9 150.5q0 109 25.5 206t80 180.5t135 143.5 t196.5 94.5t257 34.5h854zM287 664q0 -111 14 -196.5t48 -157t88.5 -117t137.5 -70.5t193 -25h49v1127h-59q-112 0 -194 -24.5t-135 -69t-85 -116t-44.5 -155t-12.5 -196.5z" />
<glyph unicode="&#x153;" horiz-adv-x="1599" d="M694 0q-122 0 -218 19t-162 55t-112.5 83t-72 109t-36.5 126t-11 140q0 111 36 204.5t108.5 167t193 115.5t278.5 42h760q3 -139 -10 -289l-57 10q-14 32 -43 101t-37 88h-381v-389h444q0 -27 -46 -58t-87 -39h-311v-395h360l146 223l65 15q-17 -183 -43 -328h-764z M289 532q0 -113 19.5 -192t65.5 -137t125.5 -85.5t196.5 -27.5h47v881h-53q-119 0 -198 -27t-123.5 -85t-62 -135.5t-17.5 -191.5z" />
<glyph unicode="&#x154;" horiz-adv-x="1396" d="M612 49l-20 -49h-559l12 47l37 23l174 34v1117l-188 30l-13 23l21 49h651q228 0 332 -92t104 -254q0 -154 -100.5 -245.5t-284.5 -108.5q84 -35 150.5 -93t130.5 -143q90 -121 182 -278l143 -43l13 -35l-17 -31h-477l4 45l21 23l102 24q-118 198 -184 289 q-31 42 -47.5 62.5t-46.5 53t-53.5 49.5t-57 34.5t-70.5 25.5h-118v-504l147 -30zM453 1225v-533h202q164 0 237 69t73 204q0 130 -64 195t-223 65h-225zM512 1454l-25 59q153 80 412 252q67 -91 84 -178q-330 -84 -471 -133z" />
<glyph unicode="&#x155;" horiz-adv-x="1277" d="M51 0l10 39l33 22l150 31v879l-164 28l-10 21l18 41h580q389 0 389 -281q0 -124 -89 -198t-251 -88q133 -45 250 -183q61 -73 151 -215l131 -37l11 -30l-15 -29h-432l4 39l19 20l82 21q-113 175 -152 223q-31 39 -51 61t-49 48t-60.5 42t-68.5 25h-107v-389l129 -29 l10 -20l-18 -41h-500zM618 973h-188v-418h170q142 0 204 54t62 161q0 103 -55 153t-193 50zM522 1169l-37 39q61 62 173.5 190.5t166.5 186.5q88 -68 129 -149q-235 -130 -432 -267z" />
<glyph unicode="&#x156;" horiz-adv-x="1396" d="M612 49l-20 -49h-559l12 47l37 23l174 34v1117l-188 30l-13 23l21 49h651q228 0 332 -92t104 -254q0 -154 -100.5 -245.5t-284.5 -108.5q84 -35 150.5 -93t130.5 -143q90 -121 182 -278l143 -43l13 -35l-17 -31h-477l4 45l21 23l102 24q-118 198 -184 289 q-31 42 -47.5 62.5t-46.5 53t-53.5 49.5t-57 34.5t-70.5 25.5h-118v-504l147 -30zM453 1225v-533h202q164 0 237 69t73 204q0 130 -64 195t-223 65h-225zM799 -96q14 -106 -30 -202.5t-173 -203.5l-43 41q55 59 78 112t21.5 105.5t-11.5 122.5q49 25 158 25z" />
<glyph unicode="&#x157;" horiz-adv-x="1277" d="M51 0l10 39l33 22l150 31v879l-164 28l-10 21l18 41h580q389 0 389 -281q0 -124 -89 -198t-251 -88q133 -45 250 -183q61 -73 151 -215l131 -37l11 -30l-15 -29h-432l4 39l19 20l82 21q-113 175 -152 223q-31 39 -51 61t-49 48t-60.5 42t-68.5 25h-107v-389l129 -29 l10 -20l-18 -41h-500zM618 973h-188v-418h170q142 0 204 54t62 161q0 103 -55 153t-193 50zM784 -96q14 -107 -30 -203t-172 -203l-43 41q55 59 78 112t21.5 105.5t-11.5 122.5q49 25 157 25z" />
<glyph unicode="&#x158;" horiz-adv-x="1396" d="M612 49l-20 -49h-559l12 47l37 23l174 34v1117l-188 30l-13 23l21 49h651q228 0 332 -92t104 -254q0 -154 -100.5 -245.5t-284.5 -108.5q84 -35 150.5 -93t130.5 -143q90 -121 182 -278l143 -43l13 -35l-17 -31h-477l4 45l21 23l102 24q-118 198 -184 289 q-31 42 -47.5 62.5t-46.5 53t-53.5 49.5t-57 34.5t-70.5 25.5h-118v-504l147 -30zM453 1225v-533h202q164 0 237 69t73 204q0 130 -64 195t-223 65h-225zM674 1468l-84 -16q-124 80 -293 229l35 54q126 -72 293 -142q100 45 280 148l35 -53q-150 -139 -266 -220z" />
<glyph unicode="&#x159;" horiz-adv-x="1277" d="M51 0l10 39l33 22l150 31v879l-164 28l-10 21l18 41h580q389 0 389 -281q0 -124 -89 -198t-251 -88q133 -45 250 -183q61 -73 151 -215l131 -37l11 -30l-15 -29h-432l4 39l19 20l82 21q-113 175 -152 223q-31 39 -51 61t-49 48t-60.5 42t-68.5 25h-107v-389l129 -29 l10 -20l-18 -41h-500zM618 973h-188v-418h170q142 0 204 54t62 161q0 103 -55 153t-193 50zM645 1221l-96 -31q-21 20 -41.5 40.5t-43.5 45.5t-39 42.5t-42.5 47.5t-38 43.5t-41 48.5t-37.5 45l49 47q112 -95 277 -204q25 20 84.5 63.5t99 75t74.5 63.5l45 -41 q-110 -146 -250 -286z" />
<glyph unicode="&#x15a;" horiz-adv-x="1101" d="M76 461l74 -19q59 -163 151 -315q101 -43 219 -43q149 0 235.5 55.5t86.5 161.5q0 54 -23 97.5t-69 77t-98.5 57.5t-127.5 49q-88 29 -145 53t-112 58t-85 73t-48.5 95t-18.5 128q0 158 123.5 256t330.5 98q130 0 243.5 -36t143.5 -82q7 -58 7 -142q0 -123 -13 -219 l-61 15q-87 237 -123 327q-90 33 -205 33q-135 0 -203.5 -57t-68.5 -160q0 -39 9 -71t21 -56t37 -45.5t46 -35t58.5 -29.5t63.5 -24.5t72 -23.5q59 -19 100.5 -34t90 -37t81.5 -43.5t66 -51t52.5 -63t31.5 -77t12 -93.5q0 -91 -40.5 -161t-112 -112t-161 -63.5t-194.5 -21.5 q-152 0 -274.5 44.5t-153.5 94.5q-18 127 -18 342zM446 1454l-24 59q153 80 412 252q67 -91 84 -178q-334 -85 -472 -133z" />
<glyph unicode="&#x15b;" horiz-adv-x="1021" d="M88 377l68 -15q52 -129 133 -253q85 -33 194 -33q129 0 203 41t74 121q0 78 -70 124.5t-209 86.5q-95 28 -157 55.5t-110.5 65.5t-70.5 90t-22 122q0 134 111 215.5t296 81.5q114 0 215.5 -29.5t128.5 -66.5q7 -47 7 -113q0 -104 -13 -180l-55 12l-113 259 q-79 24 -176 24q-118 0 -176.5 -43.5t-58.5 -120.5q0 -33 8 -59.5t27.5 -47t39 -34.5t56 -28.5t63 -23t74.5 -22.5q74 -21 124.5 -39.5t103 -46.5t84 -59.5t51.5 -77.5t20 -102q0 -76 -36.5 -134.5t-100 -93.5t-143 -52t-171.5 -17q-138 0 -246 34.5t-137 75.5 q-16 103 -16 283zM444 1169l-36 39q61 62 173.5 190.5t166.5 186.5q88 -68 129 -149q-240 -133 -433 -267z" />
<glyph unicode="&#x15c;" horiz-adv-x="1101" d="M76 461l74 -19q59 -163 151 -315q101 -43 219 -43q149 0 235.5 55.5t86.5 161.5q0 54 -23 97.5t-69 77t-98.5 57.5t-127.5 49q-88 29 -145 53t-112 58t-85 73t-48.5 95t-18.5 128q0 158 123.5 256t330.5 98q130 0 243.5 -36t143.5 -82q7 -58 7 -142q0 -123 -13 -219 l-61 15q-87 237 -123 327q-90 33 -205 33q-135 0 -203.5 -57t-68.5 -160q0 -39 9 -71t21 -56t37 -45.5t46 -35t58.5 -29.5t63.5 -24.5t72 -23.5q59 -19 100.5 -34t90 -37t81.5 -43.5t66 -51t52.5 -63t31.5 -77t12 -93.5q0 -91 -40.5 -161t-112 -112t-161 -63.5t-194.5 -21.5 q-152 0 -274.5 44.5t-153.5 94.5q-18 127 -18 342zM498 1726l84 17q116 -75 292 -230l-34 -53q-126 72 -293 142q-104 -47 -281 -148l-35 53q143 132 267 219z" />
<glyph unicode="&#x15d;" horiz-adv-x="1021" d="M88 377l68 -15q52 -129 133 -253q85 -33 194 -33q129 0 203 41t74 121q0 78 -70 124.5t-209 86.5q-95 28 -157 55.5t-110.5 65.5t-70.5 90t-22 122q0 134 111 215.5t296 81.5q114 0 215.5 -29.5t128.5 -66.5q7 -47 7 -113q0 -104 -13 -180l-55 12l-113 259 q-79 24 -176 24q-118 0 -176.5 -43.5t-58.5 -120.5q0 -33 8 -59.5t27.5 -47t39 -34.5t56 -28.5t63 -23t74.5 -22.5q74 -21 124.5 -39.5t103 -46.5t84 -59.5t51.5 -77.5t20 -102q0 -76 -36.5 -134.5t-100 -93.5t-143 -52t-171.5 -17q-138 0 -246 34.5t-137 75.5 q-16 103 -16 283zM461 1524l96 30q21 -20 41.5 -40.5t43.5 -45.5t39 -42.5t42.5 -47.5t38 -43.5t41 -48.5t37.5 -45l-49 -47q-118 100 -277 205q-22 -17 -84 -63t-100.5 -76.5t-73.5 -63.5l-45 41q113 150 250 287z" />
<glyph unicode="&#x15e;" horiz-adv-x="1101" d="M956 1225q7 -58 7 -142q0 -123 -13 -219l-61 15q-87 237 -123 327q-90 33 -205 33q-135 0 -203.5 -57t-68.5 -160q0 -39 9 -71t21 -56t37 -45.5t46 -35t58.5 -29.5t63.5 -24.5t72 -23.5q59 -19 100.5 -34t90 -37t81.5 -43.5t66 -51t52.5 -63t31.5 -77t12 -93.5 q0 -82 -33.5 -147.5t-93 -108t-136 -67t-167.5 -31.5l-6 -84q201 -8 201 -156q0 -72 -68 -120t-180 -48q-60 0 -110 21t-72 49l-3 26l21 17q24 -18 65.5 -29.5t79.5 -11.5q67 0 95 23.5t28 74.5q0 55 -21 78.5t-67 23.5q-35 0 -53 -2l-10 134q-146 4 -261.5 47.5 t-144.5 91.5q-18 127 -18 342l74 -19q59 -163 151 -315q101 -43 219 -43q149 0 235.5 55.5t86.5 161.5q0 54 -23 97.5t-69 77t-98.5 57.5t-127.5 49q-88 29 -145 53t-112 58t-85 73t-48.5 95t-18.5 128q0 158 123.5 256t330.5 98q130 0 243.5 -36t143.5 -82z" />
<glyph unicode="&#x15f;" horiz-adv-x="1021" d="M88 377l68 -15q52 -129 133 -253q85 -33 194 -33q129 0 203 41t74 121q0 78 -70 124.5t-209 86.5q-95 28 -157 55.5t-110.5 65.5t-70.5 90t-22 122q0 134 111 215.5t296 81.5q114 0 215.5 -29.5t128.5 -66.5q7 -47 7 -113q0 -104 -13 -180l-55 12l-113 259 q-79 24 -176 24q-118 0 -176.5 -43.5t-58.5 -120.5q0 -33 8 -59.5t27.5 -47t39 -34.5t56 -28.5t63 -23t74.5 -22.5q74 -21 124.5 -39.5t103 -46.5t84 -59.5t51.5 -77.5t20 -102q0 -93 -54 -158.5t-138.5 -97.5t-194.5 -39l-8 -86q200 -8 200 -156q0 -72 -67.5 -120 t-179.5 -48q-60 0 -110.5 21t-72.5 49l-2 26l21 17q24 -18 65.5 -29.5t79.5 -11.5q67 0 95 23.5t28 74.5q0 55 -21 78.5t-67 23.5q-35 0 -53 -2l-10 140q-126 4 -222 37t-123 71q-16 103 -16 283z" />
<glyph unicode="&#x160;" horiz-adv-x="1101" d="M76 461l74 -19q59 -163 151 -315q101 -43 219 -43q149 0 235.5 55.5t86.5 161.5q0 54 -23 97.5t-69 77t-98.5 57.5t-127.5 49q-88 29 -145 53t-112 58t-85 73t-48.5 95t-18.5 128q0 158 123.5 256t330.5 98q130 0 243.5 -36t143.5 -82q7 -58 7 -142q0 -123 -13 -219 l-61 15q-87 237 -123 327q-90 33 -205 33q-135 0 -203.5 -57t-68.5 -160q0 -39 9 -71t21 -56t37 -45.5t46 -35t58.5 -29.5t63.5 -24.5t72 -23.5q59 -19 100.5 -34t90 -37t81.5 -43.5t66 -51t52.5 -63t31.5 -77t12 -93.5q0 -91 -40.5 -161t-112 -112t-161 -63.5t-194.5 -21.5 q-152 0 -274.5 44.5t-153.5 94.5q-18 127 -18 342zM608 1468l-84 -16q-124 80 -293 229l35 54q126 -72 293 -142q104 47 281 148l34 -53q-150 -139 -266 -220z" />
<glyph unicode="&#x161;" horiz-adv-x="1021" d="M88 377l68 -15q52 -129 133 -253q85 -33 194 -33q129 0 203 41t74 121q0 78 -70 124.5t-209 86.5q-95 28 -157 55.5t-110.5 65.5t-70.5 90t-22 122q0 134 111 215.5t296 81.5q114 0 215.5 -29.5t128.5 -66.5q7 -47 7 -113q0 -104 -13 -180l-55 12l-113 259 q-79 24 -176 24q-118 0 -176.5 -43.5t-58.5 -120.5q0 -33 8 -59.5t27.5 -47t39 -34.5t56 -28.5t63 -23t74.5 -22.5q74 -21 124.5 -39.5t103 -46.5t84 -59.5t51.5 -77.5t20 -102q0 -76 -36.5 -134.5t-100 -93.5t-143 -52t-171.5 -17q-138 0 -246 34.5t-137 75.5 q-16 103 -16 283zM567 1221l-96 -31q-21 20 -41.5 40.5t-43.5 45.5t-39 42.5t-42.5 47.5t-38 43.5t-41 48.5t-37.5 45l50 47q116 -98 276 -204q25 20 84.5 63.5t99 75t74.5 63.5l45 -41q-110 -146 -250 -286z" />
<glyph unicode="&#x162;" horiz-adv-x="1261" d="M322 0l12 47l37 23l174 34v1121h-281q-51 -133 -160 -361l-55 -12l25 471h1140q2 -88 -1.5 -239.5t-10.5 -231.5l-53 12q-22 53 -117 361h-291v-1123l189 -30l12 -23l-20 -49h-600zM737 -96q14 -107 -30 -203t-172 -203l-43 41q55 59 78 112t21.5 105.5t-11.5 122.5 q49 25 157 25z" />
<glyph unicode="&#x163;" horiz-adv-x="1155" d="M303 0l10 39l33 22l150 31v877h-242q-33 -74 -137 -279l-54 -8l23 379h1010q0 -261 -13 -381l-51 10q-21 44 -100 279h-248v-879l162 -27l10 -22l-16 -41h-537zM686 -96q14 -106 -30 -202.5t-173 -203.5l-43 41q55 59 78 112t21.5 105.5t-11.5 122.5q49 25 158 25z" />
<glyph unicode="&#x164;" horiz-adv-x="1261" d="M322 0l12 47l37 23l174 34v1121h-281q-51 -133 -160 -361l-55 -12l25 471h1140q2 -88 -1.5 -239.5t-10.5 -231.5l-53 12q-22 53 -117 361h-291v-1123l189 -30l12 -23l-20 -49h-600zM688 1468l-84 -16q-124 80 -293 229l35 54q126 -72 293 -142q104 47 281 148l34 -53 q-150 -139 -266 -220z" />
<glyph unicode="&#x165;" horiz-adv-x="1155" d="M856 41l-16 -41h-537l10 39l33 22l150 31v877h-242q-33 -74 -137 -279l-54 -8l23 379h1010q0 -261 -13 -381l-51 10q-21 44 -100 279h-248v-879l162 -27zM647 1221l-96 -31q-21 20 -41.5 40.5t-43.5 45.5t-39 42.5t-42.5 47.5t-38 43.5t-41 48.5t-37.5 45l49 47 q112 -95 277 -204q25 20 84.5 63.5t99 75t74.5 63.5l45 -41q-110 -146 -250 -286z" />
<glyph unicode="&#x166;" horiz-adv-x="1261" d="M322 0l12 47l37 23l174 34v488h-291q9 54 37 88h254v545h-281q-51 -133 -160 -361l-55 -12l25 471h1140q2 -88 -1.5 -239.5t-10.5 -231.5l-53 12q-22 53 -117 361h-291v-545h310q-3 -25 -23 -49t-45 -39h-242v-490l189 -30l12 -23l-20 -49h-600z" />
<glyph unicode="&#x167;" horiz-adv-x="1155" d="M303 0l10 39l33 22l150 31v375h-256q8 48 34 80h222v422h-242q-33 -74 -137 -279l-54 -8l23 379h1010q0 -261 -13 -381l-51 10q-21 44 -100 279h-248v-422h266q-6 -49 -61 -80h-205v-377l162 -27l10 -22l-16 -41h-537z" />
<glyph unicode="&#x168;" horiz-adv-x="1482" d="M934 1274l20 49h543l-12 -47l-37 -23l-174 -34v-750q0 -81 -15 -150t-52 -133t-95 -108.5t-148.5 -71t-207.5 -26.5q-153 0 -258.5 29.5t-168.5 91t-90.5 149t-27.5 211.5v760l-188 30l-13 23l21 49h600l-13 -47l-36 -23l-174 -34v-752q0 -198 80 -281.5t286 -83.5 q184 0 272.5 86.5t88.5 272.5v760l-189 30zM596 1544l-104 -92l-48 29q9 13 28 40.5t29.5 40.5t29 32.5t41.5 34t53 26.5q50 -8 179.5 -46.5t164.5 -47.5l108 98l39 -19q-8 -24 -17.5 -44.5t-17 -35t-19.5 -29t-18 -22t-20 -19t-18 -14.5t-19.5 -14t-17.5 -12 q-148 0 -373 94z" />
<glyph unicode="&#x169;" horiz-adv-x="1345" d="M840 1020l18 41h479l-12 -39l-31 -21l-149 -32v-590q0 -65 -13.5 -121t-46 -107.5t-84 -87.5t-132.5 -57.5t-185 -21.5q-179 0 -285.5 44t-151 127t-44.5 216v600l-162 28l-12 21l18 41h537l-11 -39l-32 -21l-150 -32v-590q0 -154 68.5 -217.5t245.5 -63.5q159 0 235 66 t76 211v596l-166 26zM522 1343l-104 -92l-47 29q10 13 28.5 40.5t29 40.5t29 32.5t41 34t52.5 26.5q50 -8 179.5 -46.5t164.5 -47.5l109 98l38 -18q-7 -21 -15 -39t-17 -33.5t-15.5 -27t-17 -23t-16 -17.5t-18 -15.5t-16 -12.5t-17 -12t-15.5 -11q-148 0 -373 94z" />
<glyph unicode="&#x16a;" horiz-adv-x="1482" d="M934 1274l20 49h543l-12 -47l-37 -23l-174 -34v-750q0 -81 -15 -150t-52 -133t-95 -108.5t-148.5 -71t-207.5 -26.5q-153 0 -258.5 29.5t-168.5 91t-90.5 149t-27.5 211.5v760l-188 30l-13 23l21 49h600l-13 -47l-36 -23l-174 -34v-752q0 -198 80 -281.5t286 -83.5 q184 0 272.5 86.5t88.5 272.5v760l-189 30zM508 1614h610q-3 -28 -24 -64t-43 -49h-580q15 86 37 113z" />
<glyph unicode="&#x16b;" horiz-adv-x="1345" d="M840 1020l18 41h479l-12 -39l-31 -21l-149 -32v-590q0 -65 -13.5 -121t-46 -107.5t-84 -87.5t-132.5 -57.5t-185 -21.5q-179 0 -285.5 44t-151 127t-44.5 216v600l-162 28l-12 21l18 41h537l-11 -39l-32 -21l-150 -32v-590q0 -154 68.5 -217.5t245.5 -63.5q159 0 235 66 t76 211v596l-166 26zM434 1413h610q-3 -28 -24 -64t-43 -49h-580q15 86 37 113z" />
<glyph unicode="&#x16c;" horiz-adv-x="1482" d="M934 1274l20 49h543l-12 -47l-37 -23l-174 -34v-750q0 -81 -15 -150t-52 -133t-95 -108.5t-148.5 -71t-207.5 -26.5q-153 0 -258.5 29.5t-168.5 91t-90.5 149t-27.5 211.5v760l-188 30l-13 23l21 49h600l-13 -47l-36 -23l-174 -34v-752q0 -198 80 -281.5t286 -83.5 q184 0 272.5 86.5t88.5 272.5v760l-189 30zM999 1722l91 17q0 -133 -85 -216t-225 -83q-150 0 -227.5 77t-77.5 189l84 23q0 -158 227 -158q103 0 158 35t55 116z" />
<glyph unicode="&#x16d;" horiz-adv-x="1345" d="M840 1020l18 41h479l-12 -39l-31 -21l-149 -32v-590q0 -65 -13.5 -121t-46 -107.5t-84 -87.5t-132.5 -57.5t-185 -21.5q-179 0 -285.5 44t-151 127t-44.5 216v600l-162 28l-12 21l18 41h537l-11 -39l-32 -21l-150 -32v-590q0 -154 68.5 -217.5t245.5 -63.5q159 0 235 66 t76 211v596l-166 26zM926 1522l90 16q0 -153 -83.5 -242.5t-225.5 -89.5q-152 0 -229 83t-77 216l84 23q0 -59 18.5 -98.5t52.5 -59t71 -26.5t86 -7q106 0 159.5 39.5t53.5 145.5z" />
<glyph unicode="&#x16e;" horiz-adv-x="1482" d="M934 1274l20 49h543l-12 -47l-37 -23l-174 -34v-750q0 -81 -15 -150t-52 -133t-95 -108.5t-148.5 -71t-207.5 -26.5q-153 0 -258.5 29.5t-168.5 91t-90.5 149t-27.5 211.5v760l-188 30l-13 23l21 49h600l-13 -47l-36 -23l-174 -34v-752q0 -198 80 -281.5t286 -83.5 q184 0 272.5 86.5t88.5 272.5v760l-189 30zM786 1786q98 0 152.5 -51t54.5 -133q0 -79 -60 -132t-147 -53q-97 0 -150.5 53t-53.5 132q0 78 60.5 131t143.5 53zM883 1602q0 60 -23 89t-74 29q-98 0 -98 -118q0 -119 98 -119q51 0 74 29.5t23 89.5z" />
<glyph unicode="&#x16f;" horiz-adv-x="1345" d="M840 1020l18 41h479l-12 -39l-31 -21l-149 -32v-590q0 -65 -13.5 -121t-46 -107.5t-84 -87.5t-132.5 -57.5t-185 -21.5q-179 0 -285.5 44t-151 127t-44.5 216v600l-162 28l-12 21l18 41h537l-11 -39l-32 -21l-150 -32v-590q0 -154 68.5 -217.5t245.5 -63.5q159 0 235 66 t76 211v596l-166 26zM713 1595q111 0 171 -57t60 -149q0 -89 -67 -148t-164 -59q-109 0 -169.5 59t-60.5 148q0 87 68.5 146.5t161.5 59.5zM819 1389q0 69 -23.5 103t-82.5 34q-109 0 -109 -137q0 -138 109 -138q59 0 82.5 34.5t23.5 103.5z" />
<glyph unicode="&#x170;" horiz-adv-x="1482" d="M934 1274l20 49h543l-12 -47l-37 -23l-174 -34v-750q0 -81 -15 -150t-52 -133t-95 -108.5t-148.5 -71t-207.5 -26.5q-153 0 -258.5 29.5t-168.5 91t-90.5 149t-27.5 211.5v760l-188 30l-13 23l21 49h600l-13 -47l-36 -23l-174 -34v-752q0 -198 80 -281.5t286 -83.5 q184 0 272.5 86.5t88.5 272.5v760l-189 30zM877 1434l-37 36q20 28 92.5 131t120.5 166q80 -57 125 -118q-17 -11 -75.5 -50.5t-84 -57t-67.5 -49t-74 -58.5zM575 1432l-43 28q132 269 164 328q95 -49 142 -98q-6 -5 -45 -41t-49.5 -45.5t-41.5 -39t-46.5 -45.5t-38.5 -40.5 t-42 -46.5z" />
<glyph unicode="&#x171;" horiz-adv-x="1345" d="M840 1020l18 41h479l-12 -39l-31 -21l-149 -32v-590q0 -65 -13.5 -121t-46 -107.5t-84 -87.5t-132.5 -57.5t-185 -21.5q-179 0 -285.5 44t-151 127t-44.5 216v600l-162 28l-12 21l18 41h537l-11 -39l-32 -21l-150 -32v-590q0 -154 68.5 -217.5t245.5 -63.5q159 0 235 66 t76 211v596l-166 26zM457 1169l-39 25q37 64 106.5 194t106.5 195q91 -47 139 -102q-153 -136 -313 -312zM764 1169l-37 29q37 50 75.5 108.5t89 137t81.5 125.5q94 -62 129 -115q-180 -136 -338 -285z" />
<glyph unicode="&#x172;" horiz-adv-x="1482" d="M1497 1323l-12 -47l-37 -23l-174 -34v-750q0 -99 -23 -181.5t-81 -153.5t-148 -109q-138 -67 -188 -125.5t-50 -132.5q0 -45 31 -75t88 -30q58 0 105 31l18 -21l-2 -26q-22 -29 -70 -49.5t-108 -20.5q-89 0 -147 43.5t-58 124.5q0 146 205 242q-44 -6 -90 -6 q-153 0 -258.5 29.5t-168.5 91t-90.5 149t-27.5 211.5v760l-188 30l-13 23l21 49h600l-13 -47l-36 -23l-174 -34v-752q0 -198 80 -281.5t286 -83.5q184 0 272.5 86.5t88.5 272.5v760l-189 30l-12 23l20 49h543z" />
<glyph unicode="&#x173;" horiz-adv-x="1345" d="M1337 1061l-12 -39l-31 -21l-149 -32v-590q0 -266 -219 -356q-132 -66 -182 -125t-50 -131q0 -45 31 -75t88 -30q58 0 105 31l18 -21l-2 -26q-22 -29 -70 -49.5t-108 -20.5q-89 0 -147 43.5t-58 124.5q0 148 211 244q-50 -4 -78 -4q-179 0 -285.5 44t-151 127t-44.5 216 v600l-162 28l-12 21l18 41h537l-11 -39l-32 -21l-150 -32v-590q0 -154 68.5 -217.5t245.5 -63.5q159 0 235 66t76 211v596l-166 26l-10 23l18 41h479z" />
<glyph unicode="&#x174;" horiz-adv-x="1701" d="M514 4l-61 -12q-70 241 -129 461q-40 148 -111.5 424.5t-85.5 330.5l-125 60l-2 24l16 31h523l-4 -45l-21 -23l-188 -49l194 -788l31 -133l67 166l267 630l67 31l265 -661l67 -179l43 152l225 760l-268 67l-12 27l20 45h420l-10 -63l-297 -943q-58 -182 -123 -313 l-57 -12l-291 725l-49 119l-49 -123l-164 -385q-4 -10 -18 -43.5t-20 -47t-19 -43.5t-22.5 -49t-23 -45t-27 -49.5t-28.5 -46.5zM846 1726l84 17q120 -77 293 -230l-35 -53q-126 72 -293 142q-104 -47 -281 -148l-34 53q146 135 266 219z" />
<glyph unicode="&#x175;" horiz-adv-x="1562" d="M485 8l-65 -18q-51 150 -117 370q-15 50 -172 603l-106 47l-5 22l15 29h469l-4 -39l-19 -21l-159 -38l161 -578l33 -133l57 133l232 494l61 26l221 -471l68 -196l43 147l188 559l-229 51l-10 29l18 37h369l-8 -51l-260 -746q-47 -140 -109 -258l-63 -16l-248 540l-45 113 q-23 -60 -43 -102l-133 -279q-74 -155 -140 -254zM786 1524l97 30q29 -27 56.5 -55t63 -68.5t50 -57t61.5 -72t51 -60.5l-49 -47q-121 103 -276 205q-22 -17 -84 -63t-100.5 -76.5t-73.5 -63.5l-45 41q116 154 249 287z" />
<glyph unicode="&#x176;" horiz-adv-x="1189" d="M307 0l12 47l37 23l174 34v437l-426 680l-102 47l-2 24l16 31h527l-4 -45l-21 -23l-192 -47l217 -352l125 -205l116 180l238 357l-231 63l-13 27l21 45h415l-10 -66q-75 -123 -257 -376.5t-220 -309.5v-469l188 -30l13 -23l-21 -49h-600zM598 1726l84 17 q120 -77 293 -230l-35 -53q-126 72 -293 142q-100 -45 -280 -148l-35 53q146 135 266 219z" />
<glyph unicode="&#x177;" horiz-adv-x="1130" d="M299 0l10 39l33 22l150 31v332l-371 549l-88 37l-4 22l14 29h471l-4 -39l-21 -21l-155 -38l180 -267q21 -31 59 -92t52 -82q86 132 102 154l199 272l-193 47l-12 29l18 37h367l-8 -53q-50 -76 -118.5 -167t-160.5 -209.5t-139 -180.5v-361l162 -27l12 -22l-18 -41h-537z M567 1524l97 30q29 -27 56.5 -55t63 -68.5t50 -57t61.5 -72t51 -60.5l-49 -47q-121 103 -276 205q-25 -19 -85 -63.5t-99.5 -76t-74.5 -63.5l-45 41q113 150 250 287z" />
<glyph unicode="&#x178;" horiz-adv-x="1189" d="M307 0l12 47l37 23l174 34v437l-426 680l-102 47l-2 24l16 31h527l-4 -45l-21 -23l-192 -47l217 -352l125 -205l116 180l238 357l-231 63l-13 27l21 45h415l-10 -66q-75 -123 -257 -376.5t-220 -309.5v-469l188 -30l13 -23l-21 -49h-600zM768 1571q0 46 31 75t78 29 q45 0 76.5 -29t31.5 -75t-31 -74.5t-77 -28.5q-47 0 -78 28.5t-31 74.5zM346 1571q0 46 31 75t78 29q45 0 76.5 -29t31.5 -75t-31 -74.5t-77 -28.5q-47 0 -78 28.5t-31 74.5z" />
<glyph unicode="&#x179;" horiz-adv-x="1177" d="M127 1323h936l24 -37q-32 -104 -137 -268l-667 -920h602l164 305l71 29q-22 -265 -53 -432h-1010l6 63q152 236 444 638t376 524h-566q-56 -144 -159 -361l-56 -12zM504 1454l-25 59q153 80 412 252q67 -91 84 -178q-330 -84 -471 -133z" />
<glyph unicode="&#x17a;" horiz-adv-x="1085" d="M135 1061h830l22 -35q-26 -80 -121 -221l-571 -713h512l143 244l66 20q-18 -211 -47 -356h-899l6 57q129 181 378 495t328 419h-479q-55 -134 -139 -289l-51 -8zM492 1169l-37 39q61 62 173.5 190.5t166.5 186.5q88 -68 129 -149q-235 -130 -432 -267z" />
<glyph unicode="&#x17b;" horiz-adv-x="1177" d="M127 1323h936l24 -37q-32 -104 -137 -268l-667 -920h602l164 305l71 29q-22 -265 -53 -432h-1010l6 63q152 236 444 638t376 524h-566q-56 -144 -159 -361l-56 -12zM502 1579q0 53 34.5 85t86.5 32t87 -32t35 -85t-34.5 -84t-87.5 -31q-52 0 -86.5 31t-34.5 84z" />
<glyph unicode="&#x17c;" horiz-adv-x="1085" d="M135 1061h830l22 -35q-26 -80 -121 -221l-571 -713h512l143 244l66 20q-18 -211 -47 -356h-899l6 57q129 181 378 495t328 419h-479q-55 -134 -139 -289l-51 -8zM440 1358q0 53 34.5 85t86.5 32t87.5 -32t35.5 -85t-35 -84t-88 -31q-52 0 -86.5 31t-34.5 84z" />
<glyph unicode="&#x17d;" horiz-adv-x="1177" d="M127 1323h936l24 -37q-32 -104 -137 -268l-667 -920h602l164 305l71 29q-22 -265 -53 -432h-1010l6 63q152 236 444 638t376 524h-566q-56 -144 -159 -361l-56 -12zM666 1468l-84 -16q-124 80 -293 229l35 54q129 -73 292 -142q104 47 281 148l35 -53 q-150 -139 -266 -220z" />
<glyph unicode="&#x17e;" horiz-adv-x="1085" d="M135 1061h830l22 -35q-26 -80 -121 -221l-571 -713h512l143 244l66 20q-18 -211 -47 -356h-899l6 57q129 181 378 495t328 419h-479q-55 -134 -139 -289l-51 -8zM614 1221l-96 -31q-29 27 -56.5 55t-63 68.5t-50 57t-61.5 72t-51 60.5l49 47q116 -98 276 -204 q25 20 84.5 63.5t99 75t74.5 63.5l45 -41q-110 -146 -250 -286z" />
<glyph unicode="&#x192;" horiz-adv-x="827" d="M115 711h180v153q0 94 15 162t53.5 130.5t111 108.5t182.5 78q68 -18 150 -112l-43 -45q-30 1 -118 4.5t-144 3.5q-15 -43 -18 -119t-3 -342v-22h275q-3 -25 -23 -49t-45 -39h-207v-131q0 -394 -313 -512q-49 13 -88 44t-60 60l31 45l223 12q14 21 17.5 94.5t3.5 346.5 v41h-217q9 54 37 88z" />
<glyph unicode="&#x218;" horiz-adv-x="1101" d="M76 461l74 -19q59 -163 151 -315q101 -43 219 -43q149 0 235.5 55.5t86.5 161.5q0 54 -23 97.5t-69 77t-98.5 57.5t-127.5 49q-88 29 -145 53t-112 58t-85 73t-48.5 95t-18.5 128q0 158 123.5 256t330.5 98q130 0 243.5 -36t143.5 -82q7 -58 7 -142q0 -123 -13 -219 l-61 15q-87 237 -123 327q-90 33 -205 33q-135 0 -203.5 -57t-68.5 -160q0 -39 9 -71t21 -56t37 -45.5t46 -35t58.5 -29.5t63.5 -24.5t72 -23.5q59 -19 100.5 -34t90 -37t81.5 -43.5t66 -51t52.5 -63t31.5 -77t12 -93.5q0 -91 -40.5 -161t-112 -112t-161 -63.5t-194.5 -21.5 q-152 0 -274.5 44.5t-153.5 94.5q-18 127 -18 342zM657 -96q14 -107 -30 -203t-172 -203l-43 41q55 59 78 112t21.5 105.5t-11.5 122.5q49 25 157 25z" />
<glyph unicode="&#x219;" horiz-adv-x="1021" d="M88 377l68 -15q52 -129 133 -253q85 -33 194 -33q129 0 203 41t74 121q0 78 -70 124.5t-209 86.5q-95 28 -157 55.5t-110.5 65.5t-70.5 90t-22 122q0 134 111 215.5t296 81.5q114 0 215.5 -29.5t128.5 -66.5q7 -47 7 -113q0 -104 -13 -180l-55 12l-113 259 q-79 24 -176 24q-118 0 -176.5 -43.5t-58.5 -120.5q0 -33 8 -59.5t27.5 -47t39 -34.5t56 -28.5t63 -23t74.5 -22.5q74 -21 124.5 -39.5t103 -46.5t84 -59.5t51.5 -77.5t20 -102q0 -76 -36.5 -134.5t-100 -93.5t-143 -52t-171.5 -17q-138 0 -246 34.5t-137 75.5 q-16 103 -16 283zM606 -96q14 -106 -30 -202.5t-173 -203.5l-43 41q55 59 78.5 112t22 105.5t-11.5 122.5q49 25 157 25z" />
<glyph unicode="&#x237;" horiz-adv-x="595" d="M-78 -315l31 45l272 10q43 65 39 151l-18 289v680l-207 21l2 55q60 16 123 28.5t118.5 22.5t65.5 12l84 35v-798q0 -120 -14.5 -217.5t-50 -190.5t-103.5 -159.5t-166 -98.5q-41 8 -95.5 46.5t-80.5 68.5z" />
<glyph unicode="&#x2c6;" horiz-adv-x="819" d="M356 1458l97 31q29 -27 56.5 -55t63 -68.5t50 -57t61.5 -72t51 -60.5l-49 -48q-121 103 -276 205q-22 -17 -84 -63t-100.5 -76.5t-73.5 -63.5l-46 41q113 150 250 287z" />
<glyph unicode="&#x2c7;" horiz-adv-x="819" d="M463 1155l-96 -31q-24 23 -50.5 50t-46 48.5t-49.5 55.5t-44.5 51t-48 57t-44.5 52l49 47q118 -100 277 -205q22 17 84 63t100.5 76.5t73.5 63.5l45 -41q-113 -150 -250 -287z" />
<glyph unicode="&#x2d8;" horiz-adv-x="819" d="M623 1456l90 17q0 -153 -84 -242.5t-226 -89.5q-152 0 -228.5 83t-76.5 216l84 22q0 -59 18.5 -98.5t53 -58.5t71 -26t85.5 -7q106 0 159.5 39t53.5 145z" />
<glyph unicode="&#x2d9;" horiz-adv-x="819" d="M289 1292q0 53 34.5 85t86.5 32t87 -32t35 -85t-34.5 -83.5t-87.5 -30.5t-87 30.5t-34 83.5z" />
<glyph unicode="&#x2da;" horiz-adv-x="819" d="M410 1530q111 0 171 -57.5t60 -149.5q0 -89 -67 -148t-164 -59q-109 0 -169.5 59t-60.5 148q0 88 68.5 147.5t161.5 59.5zM516 1323q0 69 -23.5 103t-82.5 34q-109 0 -109 -137t109 -137q59 0 82.5 34t23.5 103z" />
<glyph unicode="&#x2db;" horiz-adv-x="819" d="M483 27l6 -27q-120 -48 -168.5 -103.5t-48.5 -129.5q0 -45 31 -75t88 -30q58 0 105 31l18 -21l-2 -26q-22 -29 -70 -49.5t-108 -20.5q-89 0 -147 43.5t-58 124.5q0 90 82.5 163.5t251.5 123.5z" />
<glyph unicode="&#x2dc;" horiz-adv-x="819" d="M219 1278l-104 -92l-47 28q7 10 34 49t38.5 52t41 36t66.5 38q49 -8 178 -47t166 -48l108 99l39 -19q-8 -24 -17.5 -44.5t-17 -35t-19.5 -29t-18 -22t-20 -19t-18 -14.5t-19.5 -14t-17.5 -12q-148 0 -373 94z" />
<glyph unicode="&#x2dd;" horiz-adv-x="819" d="M154 1104l-39 24q37 63 106.5 193.5t106.5 196.5q90 -46 139 -103q-158 -140 -313 -311zM461 1104l-37 29q37 50 75 107.5t89.5 137.5t81.5 125q95 -63 129 -114q-180 -136 -338 -285z" />
<glyph unicode="&#x3c0;" horiz-adv-x="1269" d="M1223 1030l-27 -186h-209v-748l199 -16l10 -25l-18 -32q-98 -25 -271 -39q-48 0 -70 10t-53 39l37 280v531h-403v-832l-217 -24l-8 28q40 219 92 406v422q-27 -10 -52 -23t-50 -32t-38 -29.5t-39.5 -35t-31.5 -28.5l-51 17q38 149 96 211q31 33 82 49t151 16h549z" />
<glyph unicode="&#x2013;" horiz-adv-x="940" d="M119 569h739q-3 -27 -23.5 -61t-43.5 -47h-709q14 80 37 108z" />
<glyph unicode="&#x2014;" horiz-adv-x="1853" d="M119 569h1653q-3 -27 -24 -61t-44 -47h-1622q14 80 37 108z" />
<glyph unicode="&#x2018;" horiz-adv-x="569" d="M88 979l279 532h77q-8 -24 -26.5 -75.5t-22 -62t-15 -49.5t-14 -58t-11 -65.5t-14.5 -94t-15 -123.5q-51 -14 -121 -15.5t-117 11.5z" />
<glyph unicode="&#x2019;" horiz-adv-x="438" d="M418 1487l-279 -533h-78q9 26 26.5 75.5t22 62t15.5 50t14 57.5t11.5 66t14.5 94.5t15 123.5q51 14 121 15.5t117 -11.5z" />
<glyph unicode="&#x201a;" horiz-adv-x="569" d="M420 188l-279 -532h-78q9 27 26.5 75.5t22 61.5t15.5 50t14.5 57.5t11.5 66t14 94t15 123.5q51 14 121 15.5t117 -11.5z" />
<glyph unicode="&#x201c;" horiz-adv-x="894" d="M422 979l270 532h78q-10 -30 -31 -87.5t-26.5 -75.5t-18 -62t-18 -79t-13 -91.5t-14.5 -132.5q-51 -14 -115.5 -15.5t-111.5 11.5zM88 979l270 532h78q-10 -30 -31 -87.5t-26.5 -75.5t-18 -62t-18 -79t-13 -91.5t-14.5 -132.5q-51 -14 -115.5 -15.5t-111.5 11.5z" />
<glyph unicode="&#x201d;" horiz-adv-x="763" d="M410 1487l-271 -533h-78q10 29 31 87.5t26.5 76t18 62t18 79t13 91.5t14.5 133q51 14 116 15.5t112 -11.5zM743 1487l-270 -533h-78q10 29 31 87.5t26.5 76t18 62t18 79t13 91.5t14.5 133q51 14 115.5 15.5t111.5 -11.5z" />
<glyph unicode="&#x201e;" horiz-adv-x="894" d="M412 188l-271 -532h-78q10 30 31 87.5t26.5 75.5t18 62t18 79t13 91.5t14.5 132.5q51 14 116 15.5t112 -11.5zM745 188l-270 -532h-78q10 30 31 87.5t26.5 75.5t18 62t18 79t13 91.5t14.5 132.5q51 14 115.5 15.5t111.5 -11.5z" />
<glyph unicode="&#x2020;" horiz-adv-x="1083" d="M92 979h373v432q35 24 127 41v-473h448q-3 -27 -23.5 -61.5t-43.5 -47.5h-381v-1128q-34 -11 -127 -16v1144h-410q14 81 37 109z" />
<glyph unicode="&#x2021;" horiz-adv-x="1124" d="M113 979h372v432q35 24 127 41v-473h449q-3 -27 -24 -61.5t-44 -47.5h-381v-546h449q-3 -27 -24 -61.5t-44 -47.5h-381v-473q-34 -11 -127 -16v489h-409q14 81 37 109h372v546h-409q14 81 37 109z" />
<glyph unicode="&#x2022;" horiz-adv-x="704" d="M82 510q0 126 75.5 198t190.5 72q121 0 198 -70.5t77 -199.5q0 -127 -77 -194.5t-198 -67.5q-119 0 -192.5 67.5t-73.5 194.5z" />
<glyph unicode="&#x2026;" horiz-adv-x="1509" d="M160 92q0 55 32.5 87t81.5 32q53 0 87 -31t34 -88q0 -56 -33.5 -84t-87.5 -28q-52 0 -83 28t-31 84zM637 92q0 55 33 87t82 32q53 0 86.5 -31t33.5 -88q0 -56 -33 -84t-87 -28q-52 0 -83.5 28t-31.5 84zM1114 92q0 55 33 87t82 32q53 0 87 -31t34 -88q0 -56 -33.5 -84 t-87.5 -28q-52 0 -83.5 28t-31.5 84z" />
<glyph unicode="&#x2030;" horiz-adv-x="2017" d="M215 76l852 1222q26 12 100.5 19.5t120.5 7.5q-36 -50 -90 -112.5t-98 -109.5t-119.5 -126t-116.5 -123l-542 -854h-136zM344 1337q291 0 291 -305q0 -134 -78.5 -220.5t-212.5 -86.5q-79 0 -136 24.5t-88.5 68t-46 96.5t-14.5 118q0 132 79.5 218.5t205.5 86.5z M479 1032q0 49 -2 80.5t-10 62.5t-22.5 48.5t-39.5 28t-61 10.5q-83 0 -108 -54t-25 -176q0 -123 30 -177t103 -54q77 0 106 53t29 178zM1022 598q291 0 291 -305q0 -134 -78.5 -220.5t-212.5 -86.5q-79 0 -136 24.5t-88.5 68t-46 96.5t-14.5 118q0 132 79.5 218.5 t205.5 86.5zM1157 293q0 49 -2 80t-10 62.5t-22.5 48.5t-39.5 27.5t-61 10.5q-83 0 -108 -53.5t-25 -175.5q0 -123 30 -177.5t103 -54.5q77 0 106 53t29 179zM1686 598q290 0 290 -305q0 -134 -78.5 -220.5t-211.5 -86.5q-79 0 -136 24.5t-88.5 68t-46 96.5t-14.5 118 q0 132 79.5 218.5t205.5 86.5zM1821 293q0 49 -2 80t-10 62.5t-22.5 48.5t-39.5 27.5t-61 10.5q-83 0 -108.5 -53.5t-25.5 -175.5q0 -123 30 -177.5t104 -54.5q77 0 106 53t29 179z" />
<glyph unicode="&#x2039;" horiz-adv-x="579" d="M432 739l-227 -233l252 -264q-7 -65 -49 -127l-316 354l-20 66l358 368q14 -40 13.5 -88.5t-11.5 -75.5z" />
<glyph unicode="&#x203a;" horiz-adv-x="579" d="M150 121q-14 36 -14 86.5t11 77.5l228 231l-252 266q7 65 49 127l315 -354l21 -66z" />
<glyph unicode="&#x2044;" horiz-adv-x="22" d="M-463 76l852 1222q26 12 100.5 19.5t120.5 7.5q-36 -50 -90 -112.5t-98 -109.5t-119.5 -126t-116.5 -123l-542 -854h-136z" />
<glyph unicode="&#x2070;" horiz-adv-x="835" d="M92 1120q0 185 87.5 296.5t240.5 111.5q174 0 248.5 -104t74.5 -308q0 -192 -85.5 -303t-241.5 -111q-176 0 -250 105.5t-74 312.5zM584 1116q0 186 -35 263t-129 77q-98 0 -133 -75t-35 -265q0 -188 35 -265t129 -77q97 0 132.5 76t35.5 266z" />
<glyph unicode="&#x2074;" horiz-adv-x="759" d="M281 717l6 28l24 17l105 22v142h-377l6 51l270 352q100 128 154 174l84 25v-533h164q-2 -17 -14 -38.5t-25 -30.5h-125v-142l113 -22l8 -14l-15 -31h-378zM242 995h174v254q0 84 2 127l-219 -317l-52 -66q15 0 47 1t48 1z" />
<glyph unicode="&#x2075;" horiz-adv-x="755" d="M147 1092l-6 421h518q-6 -57 -36 -116h-381l-25 -236q67 6 133 6q167 0 239.5 -64t72.5 -163q0 -107 -81 -171t-214 -64q-171 0 -242 71q-16 23 -19 187l46 -9q51 -112 104 -172q31 -8 72 -8q91 0 132.5 41t41.5 123q0 81 -48 121.5t-169 40.5q-81 0 -138 -8z" />
<glyph unicode="&#x2076;" horiz-adv-x="794" d="M444 1456q-108 0 -151.5 -78.5t-46.5 -247.5q29 33 82.5 50.5t105.5 17.5q136 0 200 -62t64 -171q0 -114 -78.5 -187t-218.5 -73q-168 0 -239.5 96.5t-71.5 283.5q0 92 20.5 170t61 139.5t109.5 96.5t159 35q69 0 137.5 -20.5t86.5 -47.5q6 -15 6 -82q0 -62 -4 -112 l-43 8q-47 106 -82 168q-39 16 -97 16zM389 1124q-56 0 -98 -16.5t-45 -54.5q1 -63 4.5 -105t13 -77.5t26.5 -55.5t43.5 -30.5t65.5 -10.5q84 0 116 44t32 128q0 95 -35 136.5t-123 41.5z" />
<glyph unicode="&#x2077;" horiz-adv-x="720" d="M94 1513h576l10 -26l-55 -121l-160 -295q-23 -65 -61 -177.5t-60 -172.5q-68 -12 -172 -4q38 88 101.5 199.5t165.5 274.5t132 212h-98h-289l-65 -160l-41 -10z" />
<glyph unicode="&#x2078;" horiz-adv-x="808" d="M410 705q-157 0 -236.5 51.5t-79.5 144.5q0 160 211 197q-85 36 -130.5 85t-45.5 128q0 94 77.5 154.5t205.5 60.5q139 0 210.5 -57.5t71.5 -137.5q0 -67 -45.5 -116t-144.5 -68q101 -38 156 -89t55 -132q0 -99 -82 -160t-223 -61zM408 770q161 0 161 125q0 64 -51 104.5 t-141 71.5q-27 7 -46.5 1t-47.5 -30q-47 -42 -47 -122q0 -150 172 -150zM408 1460q-68 0 -107 -32.5t-39 -98.5q0 -56 38.5 -89.5t131.5 -65.5l8 -5q49 -5 86 45q31 42 31 103q0 143 -149 143z" />
<glyph unicode="&#x2079;" horiz-adv-x="796" d="M352 776q107 0 149.5 76.5t47.5 249.5q-28 -34 -79 -51t-108 -17q-134 0 -200 62t-66 172q0 113 82.5 185.5t224.5 72.5q86 0 146.5 -27.5t93.5 -80t47.5 -117.5t14.5 -152q0 -74 -9 -135t-34 -120t-65 -99.5t-105.5 -65t-151.5 -24.5q-63 0 -125.5 17.5t-83.5 41.5 q-19 35 -25 199l52 -7q13 -32 43 -84.5t59 -87.5q39 -8 92 -8zM410 1108q56 0 97 17.5t44 56.5q-1 60 -4 99.5t-12.5 75.5t-26.5 56t-45 31.5t-68 11.5q-149 0 -149 -176q0 -87 36.5 -129.5t127.5 -42.5z" />
<glyph unicode="&#x207f;" horiz-adv-x="903" d="M479 717l8 28l23 17l88 20v328q0 63 -29.5 94t-103.5 31q-50 0 -89.5 -15t-43.5 -40v-398l100 -22l6 -15l-12 -28h-354l6 28l24 17l88 20v445l-120 12l2 39q54 15 198 41l62 22v-94q85 82 209 82q95 0 147.5 -56.5t52.5 -162.5v-328l99 -22l8 -15l-14 -28h-355z" />
<glyph unicode="&#x2080;" horiz-adv-x="835" d="M92 117q0 185 87.5 296t240.5 111q174 0 248.5 -104t74.5 -307q0 -192 -85.5 -303t-241.5 -111q-176 0 -250 105.5t-74 312.5zM584 113q0 186 -35 263t-129 77q-98 0 -133 -75t-35 -265q0 -188 35 -265t129 -77q97 0 132.5 76t35.5 266z" />
<glyph unicode="&#x2081;" horiz-adv-x="608" d="M154 -287l10 29l24 16l105 25v592l-246 -56v48q44 19 163 63t155 59l71 35v-741l105 -23l10 -18l-14 -29h-383z" />
<glyph unicode="&#x2082;" horiz-adv-x="755" d="M643 -287h-569l8 56q26 64 77 131.5t97 101.5q46 33 66.5 48t52 40t44 39t30 36t23 40.5t10.5 42.5t5 53q0 150 -135 150q-5 0 -45 -5q-33 -40 -87.5 -110.5t-74.5 -93.5l-26 22q9 119 16 142q28 46 92.5 82t157.5 36q120 0 191 -56.5t71 -156.5q0 -39 -11 -72.5t-38 -65 t-53.5 -55t-77.5 -54.5t-88 -51t-107 -56q-13 -19 -25 -40.5t-29 -54t-21 -40.5h350l82 147l47 13q-23 -217 -33 -269z" />
<glyph unicode="&#x2083;" horiz-adv-x="761" d="M356 -299q-86 0 -152 22t-93 52q-16 23 -19 198l45 -8q65 -134 101 -180q61 -14 96 -14q97 0 138.5 39t41.5 114t-44 110.5t-165 35.5q-28 0 -56 -1t-40 -1q2 14 13 43t20 39q30 -3 59 -3q113 0 155 39.5t42 122.5q0 70 -40 106t-104 36q-4 0 -61 -5q-29 -34 -82.5 -108 t-63.5 -86l-30 27q4 102 18 145q29 42 95 71t153 29q112 0 188 -56.5t76 -154.5q0 -81 -65 -133t-193 -65q136 -3 208.5 -55t72.5 -142q0 -102 -87 -159.5t-227 -57.5z" />
<glyph unicode="&#x2084;" horiz-adv-x="759" d="M281 -287l6 29l24 16l105 23v141h-377l6 51l270 353q100 128 154 174l84 24v-532h164q-2 -17 -14 -39t-25 -31h-125v-141l113 -23l8 -14l-15 -31h-378zM242 -8h174v254q0 84 2 127l-219 -318l-52 -65q31 2 95 2z" />
<glyph unicode="&#x2085;" horiz-adv-x="755" d="M147 88l-6 422h518q-6 -58 -36 -117h-381l-25 -235q67 6 133 6q167 0 239.5 -64t72.5 -163q0 -107 -81.5 -171.5t-213.5 -64.5q-170 0 -242 72q-16 24 -19 186l46 -8q49 -108 104 -170q38 -10 72 -10q92 0 133 40.5t41 122.5q0 81 -48 121.5t-169 40.5q-81 0 -138 -8z " />
<glyph unicode="&#x2086;" horiz-adv-x="794" d="M444 453q-108 0 -151.5 -78.5t-46.5 -247.5q29 33 82.5 50.5t105.5 17.5q135 0 199.5 -62t64.5 -172q0 -114 -78.5 -187t-218.5 -73q-167 0 -239 97t-72 284q0 92 20.5 169.5t61 139t109.5 96.5t159 35q69 0 137.5 -20t86.5 -47q6 -15 6 -82q0 -63 -4 -113l-43 8 q-47 106 -82 168q-41 17 -97 17zM389 121q-56 0 -98 -17t-45 -55q1 -63 4.5 -104.5t13 -77t26.5 -55.5t43.5 -30.5t65.5 -10.5q84 0 116 44t32 128q0 95 -35 136.5t-123 41.5z" />
<glyph unicode="&#x2087;" horiz-adv-x="720" d="M94 510h576l10 -27l-55 -121l-160 -294q-23 -65 -61 -178t-60 -173q-68 -12 -172 -4q38 89 102 200.5t165 273t132 212.5q0 -1 -49 -1l-49 1h-289l-65 -159l-41 -11z" />
<glyph unicode="&#x2088;" horiz-adv-x="808" d="M410 -299q-156 0 -236 52t-80 145q0 159 211 196q-85 36 -130.5 85t-45.5 128q0 94 77.5 154.5t205.5 60.5q139 0 210.5 -57t71.5 -137q0 -67 -46 -116.5t-144 -68.5q101 -38 156 -89t55 -132q0 -99 -82 -160t-223 -61zM408 -233q161 0 161 124q0 35 -15 63t-43.5 49 t-59.5 35.5t-74 29.5q-27 7 -46.5 1t-47.5 -30q-47 -42 -47 -123q0 -149 172 -149zM408 457q-68 0 -107 -32.5t-39 -98.5q0 -57 38.5 -90.5t131.5 -65.5l8 -4q49 -5 86 45q31 42 31 102q0 144 -149 144z" />
<glyph unicode="&#x2089;" horiz-adv-x="796" d="M352 -227q107 0 149.5 76.5t47.5 248.5q-56 -67 -187 -67q-134 0 -200 61.5t-66 171.5q0 113 82.5 185.5t224.5 72.5q86 0 146.5 -27.5t93.5 -80t47.5 -117.5t14.5 -152q0 -74 -9 -135t-34 -120t-65 -99.5t-105.5 -65t-151.5 -24.5q-63 0 -125.5 17.5t-83.5 41.5 q-19 35 -25 199l52 -6q13 -33 43 -85t59 -85q36 -10 92 -10zM410 104q56 0 97 17.5t44 56.5q-1 60 -4 99.5t-12.5 76t-26.5 56.5t-45 31.5t-68 11.5q-149 0 -149 -177q0 -87 36.5 -129.5t127.5 -42.5z" />
<glyph unicode="&#x20ac;" horiz-adv-x="1302" d="M1202 1147q4 -58 4 -98q0 -115 -6 -189l-70 23q-50 129 -118 286q-132 68 -246 68q-178 0 -272 -97t-121 -286h612q-3 -25 -22.5 -49t-44.5 -39h-556q-2 -33 -2 -102q0 -26 5 -123h495q-3 -25 -22.5 -49t-44.5 -39h-416q31 -169 128 -251.5t279 -82.5q227 0 422 160 l27 -9v-41q-172 -249 -502 -249q-483 0 -569 473h-182q10 56 36 88h134q-5 49 -5 123q0 41 7 102h-166q9 54 37 88h141q22 106 69 192.5t120.5 154t180.5 105t238 37.5q132 0 261 -59.5t169 -136.5z" />
<glyph unicode="&#x2116;" horiz-adv-x="2357" d="M999 1274l21 49h528l-12 -47l-37 -23l-174 -34v-723q0 -449 -14 -510l-27 -19l-180 195q-326 407 -637 815l-90 137q4 -118 4 -176v-836l188 -30l13 -23l-21 -49h-528l12 47l37 23l174 34v1117l-188 30l-13 23l21 49h368q283 -399 686 -909l74 -111q-4 110 -4 162v756 l-188 30zM1913 1343q91 0 155 -25t100.5 -73t53 -109t16.5 -141q0 -155 -86 -251.5t-239 -96.5q-90 0 -155 27.5t-100.5 77t-52 109.5t-16.5 134q0 152 89.5 250t234.5 98zM2083 995q0 53 -4 91.5t-15 73t-29.5 55.5t-49 33t-72.5 12q-51 0 -84.5 -17.5t-51 -54t-24 -81.5 t-6.5 -112q0 -140 38 -202t128 -62q93 0 131.5 61.5t38.5 202.5zM1579 537h709q-3 -22 -19.5 -49t-34.5 -37h-684q1 3 2.5 13t3.5 17.5t5 18t7.5 20t10.5 17.5z" />
<glyph unicode="&#x2122;" horiz-adv-x="1634" d="M1235 821l6 29l16 20l97 17v319l4 99l-41 -88l-62 -113l-15 -25t-20 -32.5t-20 -29t-22 -26.5l-68 -12l-131 225l-45 92l4 -100v-313l104 -11l7 -20l-13 -31h-303l8 29l17 20l96 15v489l-98 15l-6 20l10 33h227l193 -334l178 334h246l-7 -31l-16 -20l-94 -17v-491 l102 -11l4 -20l-10 -31h-348zM102 1442h596q2 -41 0 -123.5t-6 -118.5l-41 4q-33 82 -59 172h-129v-491l102 -13l6 -20l-10 -31h-352l8 29l14 20l99 17v489h-121q-13 -31 -41 -95t-33 -75l-43 -4z" />
<glyph unicode="&#x2190;" horiz-adv-x="1525" d="M686 1143l-426 -434l1184 84q-18 -168 -41 -232l-1139 76l434 -434q-23 -18 -35.5 -27.5t-42 -21t-65.5 -17.5l-483 539l460 518q33 -5 59.5 -12.5t43 -14.5t51.5 -24z" />
<glyph unicode="&#x2191;" horiz-adv-x="1282" d="M606 1182l-444 -447q-17 35 -24 51.5t-14.5 43t-12.5 59.5l528 473l528 -475q-6 -37 -17 -65.5t-21 -43t-27 -35.5l-426 437l78 -1149q-64 -23 -232 -41z" />
<glyph unicode="&#x2192;" horiz-adv-x="1525" d="M840 209l426 432l-1184 -82q18 168 41 232l1139 -76l-435 434q21 17 35.5 27t43 21t65.5 17l483 -538l-461 -518q-33 5 -59.5 12.5t-41.5 14.5t-52 24z" />
<glyph unicode="&#x2193;" horiz-adv-x="1282" d="M676 143l444 449q17 -35 24 -51.5t14.5 -43t12.5 -59.5l-528 -473l-528 475q6 37 17 65.5t21 43t27 35.5l424 -437l-76 1149q64 23 232 41z" />
<glyph unicode="&#x2196;" horiz-adv-x="1230" d="M956 987l-645 23l893 -774q-130 -107 -192 -136l-750 854l29 -649q-26 2 -41.5 5.5t-41 15.5t-56.5 34v762h733q28 -39 40 -63t31 -72z" />
<glyph unicode="&#x2197;" horiz-adv-x="1230" d="M944 317l23 646l-774 -893q-107 130 -136 192l854 748l-649 -27q2 26 5.5 41.5t15.5 41t34 56.5h762v-733q-40 -28 -64.5 -41t-70.5 -31z" />
<glyph unicode="&#x2198;" horiz-adv-x="1230" d="M274 285l646 -25l-893 776q127 104 192 135l748 -854l-27 650q38 -4 66 -14t73 -42v-761h-733q-28 40 -41 64.5t-31 70.5z" />
<glyph unicode="&#x2199;" horiz-adv-x="1230" d="M287 954l-25 -645l776 893q107 -130 136 -192l-855 -750l650 29q-4 -38 -14 -66t-42 -73h-761v733q39 28 63 40t72 31z" />
<glyph unicode="&#x2202;" horiz-adv-x="1093" d="M485 788q102 0 180 -34t123 -95q-3 304 -83.5 442t-262.5 138q-127 0 -235 -59l-47 10v33q129 120 321 120q105 0 190.5 -36t144 -99t98.5 -151t58.5 -189.5t18.5 -216.5q0 -157 -25.5 -276t-82 -209.5t-152.5 -138t-231 -47.5q-207 0 -323 110t-116 295q0 177 113.5 290 t310.5 113zM514 82q64 0 111 20.5t77 57t48 96t26 127.5t10 162q-7 68 -77.5 104.5t-169.5 36.5q-153 0 -219 -79.5t-66 -235.5q0 -61 13.5 -111t42.5 -91.5t81 -64t123 -22.5z" />
<glyph unicode="&#x2206;" horiz-adv-x="1204" d="M-10 0l6 37l18 57l377 864q8 17 33.5 70t33 68t27 53t31.5 57t30 46t38 51l71 55l549 -1292l-10 -48l-16 -18h-1188zM489 922l-346 -828h826l-287 729l-115 289z" />
<glyph unicode="&#x220f;" horiz-adv-x="1445" d="M16 -266l13 47l37 22l161 35v1372l-188 31l-12 33l20 49h1383l-13 -57l-37 -23l-178 -35v-1372l178 -31l13 -22l-21 -49h-579l12 47l37 22l164 35v1383h-582v-1385l178 -31l12 -22l-20 -49h-578z" />
<glyph unicode="&#x2211;" horiz-adv-x="1234" d="M20 -266l9 47l24 51l543 635l-543 788l-8 27l23 41h1062q6 -318 -6 -457l-49 11q-63 154 -131 348h-639l453 -641l16 -54l-534 -657h692l174 317l59 21q-1 -12 -11.5 -129t-19.5 -204t-18 -144h-1096z" />
<glyph unicode="&#x221a;" horiz-adv-x="1136" d="M668 213l403 1364q63 15 119 8l-408 -1329q-94 -346 -182 -467l-72 -12l-295 907l-176 25l-22 30l20 49l334 33l174 -606q3 -13 49 -192q7 27 16 58t21 69.5t19 62.5z" />
<glyph unicode="&#x221e;" horiz-adv-x="1275" d="M332 399q-48 0 -90 13.5t-79 43t-59 83t-22 125.5q0 69 23.5 122.5t62 83.5t81.5 45t89 15q79 0 150 -43t149 -139q151 182 307 182q36 0 69.5 -7.5t67 -27t58 -49t40 -76.5t15.5 -106q0 -72 -22.5 -126t-58.5 -82.5t-75 -42.5t-80 -14q-88 0 -161 39t-158 137 q-149 -176 -307 -176zM944 506q139 0 139 158q0 159 -139 159q-54 0 -109 -37.5t-130 -128.5q126 -151 239 -151zM332 823q-66 0 -101.5 -40.5t-35.5 -118.5q0 -158 137 -158q109 0 239 158q-132 159 -239 159z" />
<glyph unicode="&#x222b;" horiz-adv-x="622" d="M705 1509l-43 -45q-33 1 -120.5 5t-142.5 4q-15 -38 -17.5 -90t-2.5 -248v-105v-686q0 -547 -301 -661q-49 13 -94.5 47t-65.5 61l31 45l223 12q14 21 17.5 94.5t3.5 346.5v686q0 96 8 173t31 157t61 139.5t102.5 107.5t151.5 74q40 -11 84 -47t74 -70z" />
<glyph unicode="&#x2248;" horiz-adv-x="999" d="M668 842q80 0 204 112l43 -82q-41 -54 -109 -98.5t-147 -44.5q-49 0 -112.5 30.5t-122.5 61.5t-98 31q-34 0 -78.5 -26t-72 -50.5t-52.5 -50.5q-35 38 -49 90q42 53 116 102.5t140 49.5q44 0 93.5 -19.5t86.5 -43t80.5 -43t77.5 -19.5zM668 473q78 0 204 113l43 -82 q-41 -55 -109 -99.5t-147 -44.5q-39 0 -88 19t-87 42.5t-82.5 42.5t-75.5 19q-34 0 -78.5 -26t-72 -50.5t-52.5 -50.5q-35 38 -49 90q42 53 116 102.5t140 49.5q44 0 93.5 -19.5t86.5 -43t80.5 -43t77.5 -19.5z" />
<glyph unicode="&#x2260;" horiz-adv-x="978" d="M102 901h447l123 217q54 28 151 31l-137 -248h240q-3 -27 -24 -61t-44 -47h-233l-140 -252h441q-3 -27 -24 -61.5t-44 -47.5h-434l-137 -248q-45 -17 -146 -12l146 260h-221q14 83 36 109h244l141 252h-421q0 2 2 13.5t3 18t4 18.5t6.5 20.5t9 19t11.5 18.5z" />
<glyph unicode="&#x2264;" horiz-adv-x="978" d="M840 1006l-588 -252l612 -287q-10 -74 -47 -111q-35 18 -341 171.5t-380 189.5l-18 69q79 38 239 110t334.5 150t212.5 95q11 -81 -24 -135zM102 256h824q-3 -27 -24 -61.5t-44 -47.5h-792q14 83 36 109z" />
<glyph unicode="&#x2265;" horiz-adv-x="978" d="M115 365q-11 81 24 135l588 248l-612 290q10 74 47 111q35 -18 341 -171.5t380 -189.5l18 -69q-79 -38 -239.5 -110.5t-333 -148.5t-213.5 -95zM102 256h824q-3 -27 -24 -61.5t-44 -47.5h-792q14 83 36 109z" />
<glyph unicode="&#x2460;" horiz-adv-x="1986" d="M123 674q0 178 58.5 338.5t166 284.5t274 197t369.5 73q153 0 282 -34.5t223.5 -97.5t166 -146t115 -184t65 -208.5t21.5 -222.5q0 -141 -34.5 -271t-106.5 -243t-174 -196t-245.5 -131t-312.5 -48q-152 0 -281 35t-222.5 97.5t-164.5 145.5t-114 183.5t-64.5 207 t-21.5 220.5zM991 1454q-342 0 -541.5 -207.5t-199.5 -572.5q0 -187 54 -334.5t152 -244t233.5 -147t301.5 -50.5q341 0 540.5 207t199.5 569q0 188 -53.5 336.5t-151 245.5t-233.5 147.5t-302 50.5zM739 150l13 36l34 21l144 31v811l-328 -78v57q26 10 190 72.5t226 91.5 l88 41v-997l143 -27l13 -23l-19 -36h-504z" />
<glyph unicode="&#x2461;" horiz-adv-x="1986" d="M123 674q0 178 58.5 338.5t166 284.5t274 197t369.5 73q153 0 282 -34.5t223.5 -97.5t166 -146t115 -184t65 -208.5t21.5 -222.5q0 -141 -34.5 -271t-106.5 -243t-174 -196t-245.5 -131t-312.5 -48q-152 0 -281 35t-222.5 97.5t-164.5 145.5t-114 183.5t-64.5 207 t-21.5 220.5zM991 1454q-342 0 -541.5 -207.5t-199.5 -572.5q0 -187 54 -334.5t152 -244t233.5 -147t301.5 -50.5q341 0 540.5 207t199.5 569q0 188 -53.5 336.5t-151 245.5t-233.5 147.5t-302 50.5zM1337 150h-749l12 67q32 86 99 177.5t130 137.5q79 56 123 90t87 74 t62.5 74t31.5 75.5t12 92.5q0 201 -189 201q-40 0 -63 -4q-47 -57 -119 -153t-92 -120l-37 31q3 22 6 63.5t7 69.5t10 49q40 63 123.5 110.5t205.5 47.5q156 0 250 -75.5t94 -205.5q0 -74 -25.5 -132t-97 -116t-123 -90t-176.5 -102q-15 -9 -23.5 -13.5t-21.5 -12t-24 -13.5 q-29 -43 -111 -194h469l111 204l59 15q-27 -274 -41 -348z" />
<glyph unicode="&#x2462;" horiz-adv-x="1986" d="M123 674q0 178 58.5 338.5t166 284.5t274 197t369.5 73q153 0 282 -34.5t223.5 -97.5t166 -146t115 -184t65 -208.5t21.5 -222.5q0 -141 -34.5 -271t-106.5 -243t-174 -196t-245.5 -131t-312.5 -48q-152 0 -281 35t-222.5 97.5t-164.5 145.5t-114 183.5t-64.5 207 t-21.5 220.5zM991 1454q-342 0 -541.5 -207.5t-199.5 -572.5q0 -187 54 -334.5t152 -244t233.5 -147t301.5 -50.5q341 0 540.5 207t199.5 569q0 188 -53.5 336.5t-151 245.5t-233.5 147.5t-302 50.5zM958 133q-112 0 -199 28t-122 66q-18 31 -25 267l58 -13q18 -47 57 -120 t78 -121q74 -19 129 -19q131 0 190.5 53t59.5 156q0 101 -63 151t-226 50q-51 0 -129 -4q3 23 16.5 58t26.5 48q25 -2 80 -2q154 0 213 53t59 162q0 98 -56.5 145.5t-143.5 47.5q-39 0 -89 -6q-39 -46 -111.5 -148.5t-78.5 -110.5l-39 35q14 150 27 189q37 56 123.5 95.5 t201.5 39.5q144 0 245 -75t101 -206q0 -108 -86 -177t-256 -87q180 -3 276.5 -73.5t96.5 -190.5q0 -136 -115.5 -213.5t-298.5 -77.5z" />
<glyph unicode="&#x2463;" horiz-adv-x="1986" d="M123 674q0 178 58.5 338.5t166 284.5t274 197t369.5 73q153 0 282 -34.5t223.5 -97.5t166 -146t115 -184t65 -208.5t21.5 -222.5q0 -141 -34.5 -271t-106.5 -243t-174 -196t-245.5 -131t-312.5 -48q-152 0 -281 35t-222.5 97.5t-164.5 145.5t-114 183.5t-64.5 207 t-21.5 220.5zM991 1454q-342 0 -541.5 -207.5t-199.5 -572.5q0 -187 54 -334.5t152 -244t233.5 -147t301.5 -50.5q341 0 540.5 207t199.5 569q0 188 -53.5 336.5t-151 245.5t-233.5 147.5t-302 50.5zM817 150l12 38l31 21l137 29v192h-495l8 64l358 473q115 154 203 233 l103 31v-713h219q-3 -22 -19 -49t-33 -39h-167v-194l151 -27l10 -19l-18 -40h-500zM762 518h235v356q0 4 1.5 33t3 69.5t2.5 65.5l-302 -442l-67 -88q18 1 49 2.5t52.5 2.5t25.5 1z" />
<glyph unicode="&#x2464;" horiz-adv-x="1986" d="M123 674q0 178 58.5 338.5t166 284.5t274 197t369.5 73q153 0 282 -34.5t223.5 -97.5t166 -146t115 -184t65 -208.5t21.5 -222.5q0 -141 -34.5 -271t-106.5 -243t-174 -196t-245.5 -131t-312.5 -48q-152 0 -281 35t-222.5 97.5t-164.5 145.5t-114 183.5t-64.5 207 t-21.5 220.5zM991 1454q-342 0 -541.5 -207.5t-199.5 -572.5q0 -187 54 -334.5t152 -244t233.5 -147t301.5 -50.5q341 0 540.5 207t199.5 569q0 188 -53.5 336.5t-151 245.5t-233.5 147.5t-302 50.5zM680 655l-6 559h680q-5 -62 -47 -139h-504l-35 -334q112 11 178 11 q114 0 196.5 -25t128 -69t66.5 -96t21 -113q0 -142 -107 -229t-282 -87q-220 0 -318 94q-18 28 -24 252l57 -10q68 -154 135 -233q49 -15 105 -15q124 0 181.5 56.5t57.5 168.5q0 110 -67 166t-232 56q-91 0 -184 -13z" />
<glyph unicode="&#x2465;" horiz-adv-x="1986" d="M123 674q0 178 58.5 338.5t166 284.5t274 197t369.5 73q153 0 282 -34.5t223.5 -97.5t166 -146t115 -184t65 -208.5t21.5 -222.5q0 -141 -34.5 -271t-106.5 -243t-174 -196t-245.5 -131t-312.5 -48q-152 0 -281 35t-222.5 97.5t-164.5 145.5t-114 183.5t-64.5 207 t-21.5 220.5zM991 1454q-342 0 -541.5 -207.5t-199.5 -572.5q0 -187 54 -334.5t152 -244t233.5 -147t301.5 -50.5q341 0 540.5 207t199.5 569q0 188 -53.5 336.5t-151 245.5t-233.5 147.5t-302 50.5zM1026 1145q-147 0 -205.5 -106t-64.5 -341q39 43 112.5 66.5t141.5 23.5 q181 0 266.5 -84t85.5 -227q0 -150 -103.5 -247t-287.5 -97q-219 0 -313.5 131t-94.5 379q0 123 27 227t80.5 186t143.5 128.5t208 46.5q90 0 179.5 -26.5t115.5 -61.5q8 -28 8 -109q0 -44 -6 -149l-57 12q-60 142 -105 223q-61 25 -131 25zM954 696q-35 0 -67 -4.5t-62 -15 t-49 -30.5t-20 -48q1 -80 6 -136.5t19 -104.5t37.5 -76.5t61 -44t89.5 -15.5q115 0 160 61.5t45 172.5q0 127 -49.5 184t-170.5 57z" />
<glyph unicode="&#x2466;" horiz-adv-x="1986" d="M123 674q0 178 58.5 338.5t166 284.5t274 197t369.5 73q153 0 282 -34.5t223.5 -97.5t166 -146t115 -184t65 -208.5t21.5 -222.5q0 -141 -34.5 -271t-106.5 -243t-174 -196t-245.5 -131t-312.5 -48q-152 0 -281 35t-222.5 97.5t-164.5 145.5t-114 183.5t-64.5 207 t-21.5 220.5zM991 1454q-342 0 -541.5 -207.5t-199.5 -572.5q0 -187 54 -334.5t152 -244t233.5 -147t301.5 -50.5q341 0 540.5 207t199.5 569q0 188 -53.5 336.5t-151 245.5t-233.5 147.5t-302 50.5zM635 1214h760l12 -32l-76 -160l-209 -391q-33 -90 -84.5 -244t-79.5 -233 q-95 -14 -217 -4q49 111 138 267.5t216.5 367t176.5 296.5h-518l-88 -217l-52 -12z" />
<glyph unicode="&#x2467;" horiz-adv-x="1986" d="M123 674q0 178 58.5 338.5t166 284.5t274 197t369.5 73q153 0 282 -34.5t223.5 -97.5t166 -146t115 -184t65 -208.5t21.5 -222.5q0 -141 -34.5 -271t-106.5 -243t-174 -196t-245.5 -131t-312.5 -48q-152 0 -281 35t-222.5 97.5t-164.5 145.5t-114 183.5t-64.5 207 t-21.5 220.5zM991 1454q-342 0 -541.5 -207.5t-199.5 -572.5q0 -187 54 -334.5t152 -244t233.5 -147t301.5 -50.5q341 0 540.5 207t199.5 569q0 188 -53.5 336.5t-151 245.5t-233.5 147.5t-302 50.5zM993 133q-206 0 -310.5 70.5t-104.5 193.5q0 217 276 271 q-110 45 -169.5 111.5t-59.5 170.5q0 118 101 199.5t269 81.5q95 0 168.5 -23t116 -61.5t63.5 -83.5t21 -94q0 -90 -59.5 -157t-190.5 -93q133 -51 206 -120t73 -175q0 -128 -107.5 -209.5t-292.5 -81.5zM989 217q223 0 223 170q0 48 -20 87t-58 67.5t-78.5 48.5t-94.5 39 q-36 12 -69.5 3.5t-72.5 -44.5q-65 -57 -65 -170q0 -201 235 -201zM989 1147q-196 0 -196 -180q0 -80 52 -127t179 -88l2 -2q71 -11 127 63q41 55 41 139q0 195 -205 195z" />
<glyph unicode="&#x2468;" horiz-adv-x="1986" d="M123 674q0 178 58.5 338.5t166 284.5t274 197t369.5 73q153 0 282 -34.5t223.5 -97.5t166 -146t115 -184t65 -208.5t21.5 -222.5q0 -141 -34.5 -271t-106.5 -243t-174 -196t-245.5 -131t-312.5 -48q-152 0 -281 35t-222.5 97.5t-164.5 145.5t-114 183.5t-64.5 207 t-21.5 220.5zM991 1454q-342 0 -541.5 -207.5t-199.5 -572.5q0 -187 54 -334.5t152 -244t233.5 -147t301.5 -50.5q341 0 540.5 207t199.5 569q0 188 -53.5 336.5t-151 245.5t-233.5 147.5t-302 50.5zM944 223q144 0 201 102.5t63 338.5q-38 -43 -105 -64.5t-142 -21.5 q-179 0 -268 83.5t-89 227.5q0 149 111 245.5t295 96.5q89 0 157.5 -25t112.5 -68.5t72 -108.5t39.5 -138t11.5 -164q0 -100 -11.5 -181t-44 -160t-84.5 -132.5t-139 -86t-202 -32.5q-81 0 -162 21.5t-111 54.5q-24 40 -33 264l66 -10q20 -47 60 -116t79 -113 q48 -13 123 -13zM1018 670q185 0 192 100q0 78 -4.5 131t-17 102t-36 77t-62 44.5t-93.5 16.5q-206 0 -206 -240q0 -114 51 -172.5t176 -58.5z" />
<glyph unicode="&#x2469;" horiz-adv-x="1986" d="M123 674q0 178 58.5 338.5t166 284.5t274 197t369.5 73q153 0 282 -34.5t223.5 -97.5t166 -146t115 -184t65 -208.5t21.5 -222.5q0 -141 -34.5 -271t-106.5 -243t-174 -196t-245.5 -131t-312.5 -48q-152 0 -281 35t-222.5 97.5t-164.5 145.5t-114 183.5t-64.5 207 t-21.5 220.5zM991 1454q-342 0 -541.5 -207.5t-199.5 -572.5q0 -187 54 -334.5t152 -244t233.5 -147t301.5 -50.5q341 0 540.5 207t199.5 569q0 188 -53.5 336.5t-151 245.5t-233.5 147.5t-302 50.5zM928 668q0 188 85.5 299.5t237.5 111.5q89 0 152 -28.5t99 -84.5 t51.5 -128.5t15.5 -169.5q0 -190 -84.5 -301t-235.5 -111q-90 0 -153.5 29t-99.5 85.5t-52 129t-16 168.5zM1407 668q0 190 -30 261.5t-126 71.5q-99 0 -131.5 -70.5t-32.5 -262.5q0 -188 32 -261t130 -73t128 70.5t30 263.5zM489 268l9 33l26 16l103 23v590l-207 -45v51 q35 15 133.5 51.5t142.5 56.5l68 39v-745l106 -19l11 -18l-15 -33h-377z" />
<glyph unicode="&#x25ca;" horiz-adv-x="1159" d="M1071 596l-420 -569q-34 -26 -119 -39l-481 661l12 43l457 617q33 15 107 18l473 -641q-12 -45 -29 -90zM201 662l379 -525l376 525l-376 518z" />
<glyph unicode="&#x25fc;" horiz-adv-x="1064" d="M0 1065h1065v-1065h-1065v1065z" />
<glyph unicode="&#x2776;" horiz-adv-x="1986" d="M123 674q0 178 58.5 338.5t166 284.5t274 197t369.5 73q153 0 282 -34.5t223.5 -97.5t166 -146t115 -184t65 -208.5t21.5 -222.5q0 -141 -34.5 -271t-106.5 -243t-174 -196t-245.5 -131t-312.5 -48q-152 0 -281 35t-222.5 97.5t-164.5 145.5t-114 183.5t-64.5 207 t-21.5 220.5zM752 186l-13 -36h504l19 36l-13 23l-143 27v997l-88 -41q-62 -29 -226 -91.5t-190 -72.5v-57l328 78v-811l-144 -31z" />
<glyph unicode="&#x2777;" horiz-adv-x="1986" d="M123 674q0 178 58.5 338.5t166 284.5t274 197t369.5 73q153 0 282 -34.5t223.5 -97.5t166 -146t115 -184t65 -208.5t21.5 -222.5q0 -141 -34.5 -271t-106.5 -243t-174 -196t-245.5 -131t-312.5 -48q-152 0 -281 35t-222.5 97.5t-164.5 145.5t-114 183.5t-64.5 207 t-21.5 220.5zM588 150h749q14 74 41 348l-59 -15l-111 -204h-469q82 151 111 194q215 121 254 146q150 95 200 186q37 66 37 147q0 130 -94 205.5t-250 75.5q-122 0 -205.5 -47.5t-123.5 -110.5q-6 -21 -10 -49t-7 -69.5t-6 -63.5l37 -31q20 24 92 120t119 153q23 4 63 4 q189 0 189 -201q0 -51 -12 -92.5t-31.5 -75.5t-62.5 -74t-87 -74t-123 -90q-63 -46 -130 -137.5t-99 -177.5z" />
<glyph unicode="&#x2778;" horiz-adv-x="1986" d="M123 674q0 178 58.5 338.5t166 284.5t274 197t369.5 73q153 0 282 -34.5t223.5 -97.5t166 -146t115 -184t65 -208.5t21.5 -222.5q0 -141 -34.5 -271t-106.5 -243t-174 -196t-245.5 -131t-312.5 -48q-152 0 -281 35t-222.5 97.5t-164.5 145.5t-114 183.5t-64.5 207 t-21.5 220.5zM958 133q183 0 298.5 77.5t115.5 213.5q0 120 -96.5 190.5t-276.5 73.5q170 18 256 87t86 177q0 131 -101 206t-245 75q-115 0 -201.5 -39.5t-123.5 -95.5q-13 -39 -27 -189l39 -35q6 8 78.5 110.5t111.5 148.5q50 6 89 6q87 0 143.5 -47.5t56.5 -145.5 q0 -109 -59 -162t-213 -53q-55 0 -80 2q-13 -13 -26.5 -48t-16.5 -58q78 4 129 4q163 0 226 -50t63 -151q0 -103 -59.5 -156t-190.5 -53q-55 0 -129 19q-39 48 -78 121t-57 120l-58 13q7 -236 25 -267q35 -38 122 -66t199 -28z" />
<glyph unicode="&#x2779;" horiz-adv-x="1986" d="M123 674q0 178 58.5 338.5t166 284.5t274 197t369.5 73q153 0 282 -34.5t223.5 -97.5t166 -146t115 -184t65 -208.5t21.5 -222.5q0 -141 -34.5 -271t-106.5 -243t-174 -196t-245.5 -131t-312.5 -48q-152 0 -281 35t-222.5 97.5t-164.5 145.5t-114 183.5t-64.5 207 t-21.5 220.5zM1317 150l18 40l-10 19l-151 27v194h167q17 12 33 39t19 49h-219v713l-103 -31q-88 -79 -203 -233l-358 -473l-8 -64h495v-192l-137 -29l-31 -21l-12 -38h500zM997 518h-235q-4 0 -25.5 -1t-52.5 -2.5t-49 -2.5l67 88l302 442q-1 -25 -2.5 -65.5t-3 -69.5 t-1.5 -33v-356z" />
<glyph unicode="&#x277a;" horiz-adv-x="1986" d="M123 674q0 178 58.5 338.5t166 284.5t274 197t369.5 73q153 0 282 -34.5t223.5 -97.5t166 -146t115 -184t65 -208.5t21.5 -222.5q0 -141 -34.5 -271t-106.5 -243t-174 -196t-245.5 -131t-312.5 -48q-152 0 -281 35t-222.5 97.5t-164.5 145.5t-114 183.5t-64.5 207 t-21.5 220.5zM674 1214l6 -559q93 13 184 13q165 0 232 -56t67 -166q0 -112 -57.5 -168.5t-181.5 -56.5q-56 0 -105 15q-67 79 -135 233l-57 10q6 -224 24 -252q98 -94 318 -94q175 0 282 87t107 229q0 61 -21 113t-66.5 96t-128 69t-196.5 25q-66 0 -178 -11l35 334h504 q42 77 47 139h-680z" />
<glyph unicode="&#x277b;" horiz-adv-x="1986" d="M123 674q0 178 58.5 338.5t166 284.5t274 197t369.5 73q153 0 282 -34.5t223.5 -97.5t166 -146t115 -184t65 -208.5t21.5 -222.5q0 -141 -34.5 -271t-106.5 -243t-174 -196t-245.5 -131t-312.5 -48q-152 0 -281 35t-222.5 97.5t-164.5 145.5t-114 183.5t-64.5 207 t-21.5 220.5zM1026 1145q70 0 131 -25q45 -81 105 -223l57 -12q6 105 6 149q0 81 -8 109q-26 35 -115.5 61.5t-179.5 26.5q-118 0 -208 -46.5t-143.5 -128.5t-80.5 -186t-27 -227q0 -248 94.5 -379t313.5 -131q184 0 287.5 97t103.5 247q0 143 -85.5 227t-266.5 84 q-68 0 -141.5 -23.5t-112.5 -66.5q6 235 64.5 341t205.5 106zM954 696q121 0 170.5 -57t49.5 -184q0 -111 -45 -172.5t-160 -61.5q-52 0 -89.5 15.5t-61 44t-37.5 76.5t-19 104.5t-6 136.5q1 28 20 48t49 30.5t62 15t67 4.5z" />
<glyph unicode="&#x277c;" horiz-adv-x="1986" d="M123 674q0 178 58.5 338.5t166 284.5t274 197t369.5 73q153 0 282 -34.5t223.5 -97.5t166 -146t115 -184t65 -208.5t21.5 -222.5q0 -141 -34.5 -271t-106.5 -243t-174 -196t-245.5 -131t-312.5 -48q-152 0 -281 35t-222.5 97.5t-164.5 145.5t-114 183.5t-64.5 207 t-21.5 220.5zM1395 1214h-760l-21 -362l52 12l88 217h518q-49 -86 -176.5 -296.5t-216.5 -367t-138 -267.5q122 -10 217 4q28 79 79.5 233t84.5 244l209 391l76 160z" />
<glyph unicode="&#x277d;" horiz-adv-x="1986" d="M123 674q0 178 58.5 338.5t166 284.5t274 197t369.5 73q153 0 282 -34.5t223.5 -97.5t166 -146t115 -184t65 -208.5t21.5 -222.5q0 -141 -34.5 -271t-106.5 -243t-174 -196t-245.5 -131t-312.5 -48q-152 0 -281 35t-222.5 97.5t-164.5 145.5t-114 183.5t-64.5 207 t-21.5 220.5zM993 133q185 0 292.5 81.5t107.5 209.5q0 106 -73 175t-206 120q131 26 190.5 93t59.5 157q0 49 -21 94t-63.5 83.5t-116 61.5t-168.5 23q-168 0 -269 -81.5t-101 -199.5q0 -104 59.5 -170.5t169.5 -111.5q-276 -54 -276 -271q0 -123 104.5 -193.5t310.5 -70.5 zM989 217q-235 0 -235 201q0 113 65 170q39 36 72.5 44.5t69.5 -3.5q54 -19 94.5 -39t78.5 -48.5t58 -67.5t20 -87q0 -170 -223 -170zM989 1147q205 0 205 -195q0 -84 -41 -139q-56 -74 -127 -63l-2 2q-127 41 -179 88t-52 127q0 180 196 180z" />
<glyph unicode="&#x277e;" horiz-adv-x="1986" d="M123 674q0 178 58.5 338.5t166 284.5t274 197t369.5 73q153 0 282 -34.5t223.5 -97.5t166 -146t115 -184t65 -208.5t21.5 -222.5q0 -141 -34.5 -271t-106.5 -243t-174 -196t-245.5 -131t-312.5 -48q-152 0 -281 35t-222.5 97.5t-164.5 145.5t-114 183.5t-64.5 207 t-21.5 220.5zM944 223q-75 0 -123 13q-39 44 -79 113t-60 116l-66 10q9 -224 33 -264q30 -33 111 -54.5t162 -21.5q115 0 202 32.5t139 86t84.5 132.5t44 160t11.5 181q0 91 -11.5 164t-39.5 138t-72 108.5t-112.5 68.5t-157.5 25q-184 0 -295 -96.5t-111 -245.5 q0 -144 89 -227.5t268 -83.5q75 0 142 21.5t105 64.5q-6 -236 -63 -338.5t-201 -102.5zM1018 670q-125 0 -176 58.5t-51 172.5q0 240 206 240q55 0 93.5 -16.5t62 -44.5t36 -77t17 -102t4.5 -131q-7 -100 -192 -100z" />
<glyph unicode="&#x277f;" horiz-adv-x="1986" d="M123 674q0 178 58.5 338.5t166 284.5t274 197t369.5 73q153 0 282 -34.5t223.5 -97.5t166 -146t115 -184t65 -208.5t21.5 -222.5q0 -141 -34.5 -271t-106.5 -243t-174 -196t-245.5 -131t-312.5 -48q-152 0 -281 35t-222.5 97.5t-164.5 145.5t-114 183.5t-64.5 207 t-21.5 220.5zM928 668q0 -96 16 -168.5t52 -129t99.5 -85.5t153.5 -29q151 0 235.5 111t84.5 301q0 97 -15.5 169.5t-51.5 128.5t-99 84.5t-152 28.5q-152 0 -237.5 -111.5t-85.5 -299.5zM1407 668q0 -193 -30 -263.5t-128 -70.5t-130 73t-32 261q0 192 32.5 262.5 t131.5 70.5q96 0 126 -71.5t30 -261.5zM498 301l-9 -33h377l15 33l-11 18l-106 19v745l-68 -39q-44 -20 -142.5 -56.5t-133.5 -51.5v-51l207 45v-590l-103 -23z" />
<glyph unicode="&#xfb01;" horiz-adv-x="1374" d="M59 0l13 43l37 23l153 34v772h-180q16 74 43 105h137q4 319 223 446q118 66 228 84q31 -8 73 -43t76 -75l-33 -52q-15 1 -60 5t-67 5t-60 3t-73 2t-73 -2q-23 -39 -34.5 -101.5t-13.5 -113t-2 -142.5v-16h281q-3 -23 -28.5 -54.5t-55.5 -50.5h-197v-774l201 -30l17 -23 l-27 -45h-578zM985 0v860l-209 21l2 55q60 16 123 28.5t118.5 22.5t65.5 12l84 35v-936l168 -30l13 -23l-21 -45h-344zM950 1292q0 53 34.5 85t86.5 32t87.5 -32t35.5 -85q0 -52 -35 -83t-88 -31t-87 30.5t-34 83.5zM782 0l13 43l36 23l154 34v-100h-203z" />
<glyph unicode="&#xfb02;" horiz-adv-x="1343" d="M125 977h137q4 319 223 446q114 64 308 76q66 -21 131 -53q21 4 49 8.5t45.5 7.5t28.5 6l83 35v-1405l168 -30l13 -23l-21 -45h-547l13 43l37 23l153 34v990l-26 241l-162 17l-262 2q-23 -39 -34.5 -101.5t-13.5 -113t-2 -142.5v-16h281q-3 -23 -28.5 -54.5t-55.5 -50.5 h-197v-774l201 -30l17 -23l-27 -45h-578l13 43l37 23l153 34v772h-180q16 74 43 105z" />
<glyph horiz-adv-x="665" d="M-72 -246l31 45l272 11q43 65 39 151l-24 289v971l-217 30l-15 23l25 49h612l-12 -47l-35 -23l-162 -34v-914q0 -94 -9 -174.5t-32 -161t-60 -142t-97.5 -111.5t-139.5 -76q-41 8 -96 46.5t-80 67.5z" />
<glyph horiz-adv-x="1388" d="M692 88q96 0 167.5 26t117.5 73t74.5 120.5t39.5 159t11 197.5t-11 197.5t-39.5 158.5t-74.5 119t-117.5 72t-167.5 26q-120 0 -200.5 -38t-124.5 -115.5t-62 -177.5t-18 -242q0 -113 10.5 -198t38 -158.5t73 -120.5t116.5 -73t167 -26zM692 -20q-109 0 -197.5 19.5 t-152 53t-111.5 84t-78 107t-48.5 128t-25.5 141t-7 151.5q0 110 21.5 208t69.5 185.5t118.5 150t175.5 99t235 36.5q151 0 263.5 -37t180.5 -98t109.5 -151.5t56.5 -183.5t15 -209q0 -111 -20.5 -209.5t-68 -186.5t-118.5 -151t-178 -100t-240 -37zM1217 -66 q-4 -52 -11 -84.5t-28 -99.5q-125 18 -297 48.5t-271 43.5l-20 58q37 1 152 5t165 6t139.5 8t170.5 15z" />
<glyph horiz-adv-x="665" d="M-72 -246l31 45l272 11q43 65 39 151l-24 289v971l-217 30l-15 23l25 49h612l-12 -47l-35 -23l-162 -34v-914q0 -94 -9 -174.5t-32 -161t-60 -142t-97.5 -111.5t-139.5 -76q-41 8 -96 46.5t-80 67.5zM279 1726l83 17q120 -77 293 -230l-34 -53q-126 72 -293 142 q-104 -47 -281 -148l-35 53q143 132 267 219z" />
<glyph horiz-adv-x="1226" d="M1085 518v-491l-49 -41l-78 73q-59 -37 -152.5 -57t-182.5 -20q-106 0 -191 20.5t-143.5 58.5t-99.5 87t-64 113t-33 129.5t-10 141.5q0 87 20.5 165t66 148.5t113 122t167.5 81.5t223 30q138 0 255.5 -42t143.5 -93q6 -49 3 -134.5t-13 -152.5l-64 19q-18 42 -53 128.5 t-53 127.5q-97 51 -232 51q-197 0 -283.5 -107.5t-86.5 -343.5q0 -228 90 -335t293 -107q133 0 237 39v289l-231 45l-2 29l29 26h380z" />
<glyph horiz-adv-x="1226" d="M1085 518v-491l-49 -41l-78 73q-59 -37 -152.5 -57t-182.5 -20q-106 0 -191 20.5t-143.5 58.5t-99.5 87t-64 113t-33 129.5t-10 141.5q0 87 20.5 165t66 148.5t113 122t167.5 81.5t223 30q138 0 255.5 -42t143.5 -93q6 -49 3 -134.5t-13 -152.5l-64 19q-18 42 -53 128.5 t-53 127.5q-97 51 -232 51q-197 0 -283.5 -107.5t-86.5 -343.5q0 -228 90 -335t293 -107q133 0 237 39v289l-231 45l-2 29l29 26h380zM848 1522l90 16q0 -153 -83.5 -242.5t-225.5 -89.5q-152 0 -228.5 83t-76.5 216l84 23q0 -59 18 -98.5t52.5 -59t71 -26.5t85.5 -7 q106 0 159.5 39.5t53.5 145.5z" />
<glyph horiz-adv-x="1226" d="M1085 518v-491l-49 -41l-78 73q-59 -37 -152.5 -57t-182.5 -20q-106 0 -191 20.5t-143.5 58.5t-99.5 87t-64 113t-33 129.5t-10 141.5q0 87 20.5 165t66 148.5t113 122t167.5 81.5t223 30q138 0 255.5 -42t143.5 -93q6 -49 3 -134.5t-13 -152.5l-64 19q-18 42 -53 128.5 t-53 127.5q-97 51 -232 51q-197 0 -283.5 -107.5t-86.5 -343.5q0 -228 90 -335t293 -107q133 0 237 39v289l-231 45l-2 29l29 26h380zM582 1524l96 30q21 -20 41.5 -40.5t43.5 -45.5t39 -42.5t42.5 -47.5t38 -43.5t41 -48.5t37.5 -45l-50 -47q-121 103 -276 205 q-22 -17 -84 -63t-100.5 -76.5t-73.5 -63.5l-45 41q113 150 250 287z" />
<glyph horiz-adv-x="1226" d="M1085 518v-491l-49 -41l-78 73q-59 -37 -152.5 -57t-182.5 -20q-106 0 -191 20.5t-143.5 58.5t-99.5 87t-64 113t-33 129.5t-10 141.5q0 87 20.5 165t66 148.5t113 122t167.5 81.5t223 30q138 0 255.5 -42t143.5 -93q6 -49 3 -134.5t-13 -152.5l-64 19q-18 42 -53 128.5 t-53 127.5q-97 51 -232 51q-197 0 -283.5 -107.5t-86.5 -343.5q0 -228 90 -335t293 -107q133 0 237 39v289l-231 45l-2 29l29 26h380zM727 -96q14 -106 -30 -202.5t-173 -203.5l-43 41q55 59 78 112t21.5 105.5t-11.5 122.5q49 25 158 25z" />
<glyph horiz-adv-x="1226" d="M1085 518v-491l-49 -41l-78 73q-59 -37 -152.5 -57t-182.5 -20q-106 0 -191 20.5t-143.5 58.5t-99.5 87t-64 113t-33 129.5t-10 141.5q0 87 20.5 165t66 148.5t113 122t167.5 81.5t223 30q138 0 255.5 -42t143.5 -93q6 -49 3 -134.5t-13 -152.5l-64 19q-18 42 -53 128.5 t-53 127.5q-97 51 -232 51q-197 0 -283.5 -107.5t-86.5 -343.5q0 -228 90 -335t293 -107q133 0 237 39v289l-231 45l-2 29l29 26h380zM514 1358q0 53 34.5 85t86.5 32t87.5 -32t35.5 -85t-35 -84t-88 -31q-52 0 -86.5 31t-34.5 84z" />
<glyph horiz-adv-x="1265" d="M745 39l19 20l160 39l-113 260h-459l-119 -256l218 -39l12 -24l-19 -39h-456l12 39l25 20l81 39l316 631q16 31 43 86t42.5 85.5t40.5 69.5t50 68l76 54q76 -153 145.5 -301.5t173 -377.5t142.5 -315l108 -45l2 -24l-14 -29h-492zM514 709l-125 -269h387l-90 211 q-45 100 -96 226z" />
<glyph horiz-adv-x="1198" d="M70 1020l18 41h604q192 0 283.5 -72t91.5 -186q0 -112 -68.5 -174.5t-179.5 -85.5q291 -32 291 -248q0 -61 -20.5 -111t-65.5 -93t-127.5 -67t-196.5 -24h-649l10 39l33 22l150 31v879l-164 28zM686 494h-254v-406h242q129 0 185 57.5t56 149.5q0 99 -54.5 149t-174.5 50 zM623 973h-191v-398h215q227 0 227 201q0 48 -9 80.5t-34.5 61t-77 42t-130.5 13.5z" />
<glyph horiz-adv-x="1107" d="M999 922q5 -45 5 -84q0 -142 -17 -246l-63 18q-18 42 -68 168t-74 180q-87 27 -147 27q-186 0 -266 -111.5t-80 -336.5q0 -217 83.5 -325t282.5 -108q190 0 359 125l24 -12v-35q-154 -200 -438 -200q-117 0 -208 30t-148.5 80t-94.5 122t-52 149.5t-15 168.5 q0 111 32.5 207t97.5 173.5t173.5 122t249.5 44.5q117 0 222.5 -47t141.5 -110z" />
<glyph horiz-adv-x="1306" d="M68 1020l18 41h594q110 0 196.5 -19t145.5 -55t99.5 -82.5t62.5 -108.5t31.5 -125t9.5 -139q0 -113 -30 -206t-92 -167.5t-170 -116.5t-253 -42h-629l10 39l33 22l148 31v879l-162 28zM668 971h-238v-881h238q195 0 271.5 99.5t76.5 342.5t-75.5 341t-272.5 98z" />
<glyph horiz-adv-x="1146" d="M70 1020l18 41h918q3 -130 -11 -289l-57 10q-26 53 -80 189h-426v-389h488q0 -27 -45.5 -58t-86.5 -39h-356v-395h404l147 223l66 15q-17 -183 -43 -328h-955l10 39l33 22l150 31v879l-164 28z" />
<glyph horiz-adv-x="1054" d="M51 0l10 39l33 22l150 31v879l-164 28l-10 21l18 41h889q4 -152 -10 -309l-58 10q-15 34 -45.5 116t-34.5 93h-397v-408h496q0 -27 -45.5 -56t-87.5 -38h-363v-379l244 -27l16 -22l-26 -41h-615z" />
<glyph horiz-adv-x="1226" d="M1085 518v-491l-49 -41l-78 73q-59 -37 -152.5 -57t-182.5 -20q-106 0 -191 20.5t-143.5 58.5t-99.5 87t-64 113t-33 129.5t-10 141.5q0 87 20.5 165t66 148.5t113 122t167.5 81.5t223 30q138 0 255.5 -42t143.5 -93q6 -49 3 -134.5t-13 -152.5l-64 19q-18 42 -53 128.5 t-53 127.5q-97 51 -232 51q-197 0 -283.5 -107.5t-86.5 -343.5q0 -228 90 -335t293 -107q133 0 237 39v289l-231 45l-2 29l29 26h380z" />
<glyph horiz-adv-x="1480" d="M51 0l10 39l33 22l150 31v879l-164 28l-10 21l18 41h535l-11 -39l-32 -21l-148 -32v-387h617v389l-162 28l-13 21l19 41h537l-11 -39l-33 -21l-149 -32v-879l164 -27l10 -22l-18 -41h-535l10 39l33 22l148 31v393h-617v-395l162 -27l10 -22l-16 -41h-537z" />
<glyph horiz-adv-x="673" d="M51 0l10 39l33 22l150 31v879l-164 28l-10 21l18 41h535l-11 -39l-32 -21l-148 -32v-879l162 -27l10 -22l-16 -41h-537z" />
<glyph horiz-adv-x="937" d="M922 1061l-11 -39l-30 -21l-138 -32v-652q0 -154 -96 -243.5t-299 -89.5q-87 0 -176.5 27.5t-124.5 70.5q-24 98 -24 291l65 -13q65 -158 148 -280q54 -14 98 -14q114 0 167.5 53t53.5 160v692l-203 28l-12 21l22 41h560z" />
<glyph horiz-adv-x="1286" d="M811 39l20 20l80 21l-405 418l-6 49l473 407l-189 41l-10 29l19 37h395l-10 -55q-323 -287 -502 -435l459 -475l125 -37l10 -30l-15 -29h-448zM51 0l10 39l33 22l150 31v879l-164 28l-10 21l18 41h502l-10 -39l-33 -21l-117 -32v-879l127 -27l12 -22l-18 -41h-500z" />
<glyph horiz-adv-x="1064" d="M946 360l64 13q-21 -244 -47 -373h-912l10 39l33 22l150 31v879l-164 28l-10 21l18 41h555l-10 -39l-35 -21l-166 -32v-875h365z" />
<glyph horiz-adv-x="1556" d="M942 0l10 39l33 22l150 31v598q0 136 4 189q-34 -73 -70 -125l-174 -248q-9 -12 -27 -38.5t-30 -43t-30.5 -39t-37.5 -41.5l-65 -14l-279 413q-39 56 -72 129q4 -118 4 -172v-610l164 -27l10 -22l-18 -41h-463l10 39l33 22l150 31v879l-164 28l-10 21l18 41h346l354 -547 l349 547h370l-12 -39l-31 -21l-149 -32v-879l164 -27l10 -22l-19 -41h-528z" />
<glyph horiz-adv-x="1394" d="M897 1020l16 41h465l-10 -39l-33 -21l-149 -32v-572q0 -335 -12 -403l-29 -23l-166 164q-394 426 -541 600q-17 19 -82 113q2 -45 2 -141v-617l164 -27l10 -22l-18 -41h-463l10 39l33 22l150 31v879l-164 28l-10 21l18 41h326q97 -117 295 -343.5t295 -344.5 q58 -77 69 -94q-4 47 -4 149v543l-162 28z" />
<glyph horiz-adv-x="1267" d="M631 78q102 0 170.5 29.5t106.5 90.5t53.5 140.5t15.5 193.5q0 91 -9.5 158.5t-33 125t-62.5 93.5t-99 56t-142 20q-102 0 -169.5 -29t-105 -90t-52.5 -140t-15 -194t15 -194t52.5 -140.5t105 -90.5t169.5 -29zM631 -18q-112 0 -200 20t-147 58.5t-99.5 87.5t-62.5 113.5 t-31 129t-9 141.5q0 111 31.5 207t95 173.5t172 122t250.5 44.5q112 0 200.5 -20t148.5 -58.5t101 -87t63.5 -112.5t32 -128t9.5 -141q0 -90 -18 -168.5t-60 -149.5t-105 -122t-158 -80.5t-214 -29.5z" />
<glyph horiz-adv-x="1105" d="M51 0l10 39l33 22l150 31v879l-164 28l-10 21l18 41h602q204 0 296.5 -79.5t92.5 -215.5q0 -156 -117 -235.5t-321 -79.5h-209v-361l244 -27l16 -22l-26 -41h-615zM639 973h-207v-436h189q148 0 207 55.5t59 165.5q0 54 -10 90.5t-36 66.5t-76 44t-126 14z" />
<glyph horiz-adv-x="1267" d="M1153 -141q-82 -75 -162 -121q-82 82 -233 254q-65 -10 -127 -10q-112 0 -200 20t-147 58.5t-99.5 87.5t-62.5 113.5t-31 129t-9 141.5q0 111 31.5 207t95 173.5t172 122t250.5 44.5q112 0 200.5 -20t148.5 -58.5t101 -87t63.5 -112.5t32 -128t9.5 -141 q0 -173 -71.5 -306.5t-221.5 -196.5q201 -136 260 -170zM631 78q35 0 51 2l-96 106l22 52q32 -25 101.5 -76t81.5 -60q104 41 145 146t41 284q0 91 -9.5 158.5t-33 125t-62.5 93.5t-99 56t-142 20q-102 0 -169.5 -29t-105 -90t-52.5 -140t-15 -194t15 -194t52.5 -140.5 t105 -90.5t169.5 -29z" />
<glyph horiz-adv-x="1277" d="M51 0l10 39l33 22l150 31v879l-164 28l-10 21l18 41h580q389 0 389 -281q0 -124 -89 -198t-251 -88q133 -45 250 -183q61 -73 151 -215l131 -37l11 -30l-15 -29h-432l4 39l19 20l82 21q-113 175 -152 223q-31 39 -51 61t-49 48t-60.5 42t-68.5 25h-107v-389l129 -29 l10 -20l-18 -41h-500zM618 973h-188v-418h170q142 0 204 54t62 161q0 103 -55 153t-193 50z" />
<glyph horiz-adv-x="1021" d="M88 377l68 -15q52 -129 133 -253q85 -33 194 -33q129 0 203 41t74 121q0 78 -70 124.5t-209 86.5q-95 28 -157 55.5t-110.5 65.5t-70.5 90t-22 122q0 134 111 215.5t296 81.5q114 0 215.5 -29.5t128.5 -66.5q7 -47 7 -113q0 -104 -13 -180l-55 12l-113 259 q-79 24 -176 24q-118 0 -176.5 -43.5t-58.5 -120.5q0 -33 8 -59.5t27.5 -47t39 -34.5t56 -28.5t63 -23t74.5 -22.5q74 -21 124.5 -39.5t103 -46.5t84 -59.5t51.5 -77.5t20 -102q0 -76 -36.5 -134.5t-100 -93.5t-143 -52t-171.5 -17q-138 0 -246 34.5t-137 75.5 q-16 103 -16 283z" />
<glyph horiz-adv-x="1155" d="M856 41l-16 -41h-537l10 39l33 22l150 31v877h-242q-33 -74 -137 -279l-54 -8l23 379h1010q0 -261 -13 -381l-51 10q-21 44 -100 279h-248v-879l162 -27z" />
<glyph horiz-adv-x="1345" d="M840 1020l18 41h479l-12 -39l-31 -21l-149 -32v-590q0 -65 -13.5 -121t-46 -107.5t-84 -87.5t-132.5 -57.5t-185 -21.5q-179 0 -285.5 44t-151 127t-44.5 216v600l-162 28l-12 21l18 41h537l-11 -39l-32 -21l-150 -32v-590q0 -154 68.5 -217.5t245.5 -63.5q159 0 235 66 t76 211v596l-166 26z" />
<glyph d="M750 1024l18 37h369l-9 -51q-34 -72 -147 -313t-178 -371q-7 -15 -28 -58.5t-30 -61.5t-27.5 -53t-31.5 -55.5t-31.5 -45.5t-36.5 -44l-77 -18q-149 285 -420 977l-96 43l-5 22l15 29h469l-4 -39l-19 -21l-159 -40l231 -558l80 -202q43 110 74 178l266 565l-211 51z" />
<glyph horiz-adv-x="1562" d="M485 8l-65 -18q-51 150 -117 370q-15 50 -172 603l-106 47l-5 22l15 29h469l-4 -39l-19 -21l-159 -38l161 -578l33 -133l57 133l232 494l61 26l221 -471l68 -196l43 147l188 559l-229 51l-10 29l18 37h369l-8 -51l-260 -746q-47 -140 -109 -258l-63 -16l-248 540l-45 113 q-23 -60 -43 -102l-133 -279q-74 -155 -140 -254z" />
<glyph horiz-adv-x="1220" d="M553 1022l-18 -21l-142 -34l180 -219q18 -22 84 -117l291 321l-196 43l-13 29l19 37h389l-10 -55q-77 -90 -233 -251t-187 -194l373 -465l106 -43l4 -24l-16 -29h-469l4 39l20 20l131 33l-241 291q-20 25 -45 66l-301 -351l198 -35l13 -24l-19 -39h-463l13 39l24 20 l80 37q128 144 393 434l-350 439l-94 41l-4 22l14 29h469z" />
<glyph horiz-adv-x="1130" d="M299 0l10 39l33 22l150 31v332l-371 549l-88 37l-4 22l14 29h471l-4 -39l-21 -21l-155 -38l180 -267q21 -31 59 -92t52 -82q86 132 102 154l199 272l-193 47l-12 29l18 37h367l-8 -53q-50 -76 -118.5 -167t-160.5 -209.5t-139 -180.5v-361l162 -27l12 -22l-18 -41h-537z " />
<glyph horiz-adv-x="1085" d="M135 1061h830l22 -35q-26 -80 -121 -221l-571 -713h512l143 244l66 20q-18 -211 -47 -356h-899l6 57q129 181 378 495t328 419h-479q-55 -134 -139 -289l-51 -8z" />
<glyph horiz-adv-x="1648" d="M629 0l4 35l29 26l129 31v266h-381l-160 -256l201 -39l12 -24l-19 -39h-456l12 39l25 20l88 39l415 637q111 170 222 291l53 35h704q0 -181 -12 -289l-55 10q-26 53 -80 189h-383v-389h444q0 -27 -45 -58t-86 -39h-313v-395h360l148 223l65 15q-27 -223 -43 -328h-878z M651 743l-190 -303h330v518z" />
<glyph horiz-adv-x="1599" d="M694 0q-122 0 -218 19t-162 55t-112.5 83t-72 109t-36.5 126t-11 140q0 111 36 204.5t108.5 167t193 115.5t278.5 42h760q3 -139 -10 -289l-57 10q-14 32 -43 101t-37 88h-381v-389h444q0 -27 -46 -58t-87 -39h-311v-395h360l146 223l65 15q-17 -183 -43 -328h-764z M289 532q0 -113 19.5 -192t65.5 -137t125.5 -85.5t196.5 -27.5h47v881h-53q-119 0 -198 -27t-123.5 -85t-62 -135.5t-17.5 -191.5z" />
<glyph horiz-adv-x="1267" d="M201 -111l96 162q-63 36 -106.5 87.5t-66.5 116t-32.5 131t-9.5 146.5q0 111 31.5 207t95 173.5t172 122t250.5 44.5q145 0 258 -37l55 93q38 19 119 24l-92 -153q215 -124 215 -474q0 -90 -18 -168.5t-60 -149.5t-105 -122t-158 -80.5t-214 -29.5q-149 0 -250 34 l-70 -116q-51 -11 -110 -11zM279 532q0 -133 19 -221t69 -143l464 776q-77 41 -200 41q-102 0 -171 -29.5t-108.5 -89.5t-56 -140.5t-16.5 -193.5zM631 78q103 0 173 29.5t110 90t56.5 141t16.5 193.5q0 130 -19 216.5t-67 140.5l-463 -774q73 -37 193 -37z" />
<glyph horiz-adv-x="1325" d="M70 0l10 39l33 22l147 31v400h-176q9 50 35 83h141v396l-162 28l-12 21l18 41h594q110 0 196.5 -19t145.5 -55t99.5 -82.5t62.5 -108.5t31.5 -125t9.5 -139q0 -113 -30 -206t-92 -167.5t-170 -116.5t-253 -42h-628zM635 492h-186v-402h237q195 0 271.5 99.5t76.5 342.5 t-75.5 341t-272.5 98h-237v-396h247q-6 -50 -61 -83z" />
<glyph horiz-adv-x="1128" d="M623 1061l-11 -39l-32 -21l-150 -30v-129h260q204 0 296.5 -79t92.5 -216q0 -156 -117 -236t-321 -80h-211v-143l164 -27l10 -20l-18 -41h-535l10 39l33 22l150 31v879l-164 28l-10 21l18 41h535zM639 754h-209v-437h191q148 0 207 56t59 166q0 54 -10 90.5t-36 66.5 t-76 44t-126 14z" />
<glyph horiz-adv-x="1265" d="M745 39l19 20l160 39l-113 260h-459l-119 -256l218 -39l12 -24l-19 -39h-456l12 39l25 20l81 39l316 631q16 31 43 86t42.5 85.5t40.5 69.5t50 68l76 54q76 -153 145.5 -301.5t173 -377.5t142.5 -315l108 -45l2 -24l-14 -29h-492zM514 709l-125 -269h387l-90 211 q-45 100 -96 226zM563 1169l-37 39q61 62 173.5 190.5t166.5 186.5q88 -68 129 -149q-235 -130 -432 -267z" />
<glyph horiz-adv-x="1265" d="M745 39l19 20l160 39l-113 260h-459l-119 -256l218 -39l12 -24l-19 -39h-456l12 39l25 20l81 39l316 631q16 31 43 86t42.5 85.5t40.5 69.5t50 68l76 54q76 -153 145.5 -301.5t173 -377.5t142.5 -315l108 -45l2 -24l-14 -29h-492zM846 1522l90 16q0 -153 -83.5 -242.5 t-225.5 -89.5q-152 0 -228.5 83t-76.5 216l84 23q0 -59 18 -98.5t52.5 -59t71 -26.5t85.5 -7q106 0 159.5 39.5t53.5 145.5zM514 709l-125 -269h387l-90 211q-45 100 -96 226z" />
<glyph horiz-adv-x="1265" d="M745 39l19 20l160 39l-113 260h-459l-119 -256l218 -39l12 -24l-19 -39h-456l12 39l25 20l81 39l316 631q16 31 43 86t42.5 85.5t40.5 69.5t50 68l76 54q76 -153 145.5 -301.5t173 -377.5t142.5 -315l108 -45l2 -24l-14 -29h-492zM514 709l-125 -269h387l-90 211 q-45 100 -96 226zM580 1524l96 30q29 -27 56.5 -55t63 -68.5t50 -57t61.5 -72t51 -60.5l-49 -47q-121 103 -276 205q-22 -17 -84 -63t-100.5 -76.5t-73.5 -63.5l-45 41q113 150 250 287z" />
<glyph horiz-adv-x="1265" d="M745 39l19 20l160 39l-113 260h-459l-119 -256l218 -39l12 -24l-19 -39h-456l12 39l25 20l81 39l316 631q16 31 43 86t42.5 85.5t40.5 69.5t50 68l76 54q76 -153 145.5 -301.5t173 -377.5t142.5 -315l108 -45l2 -24l-14 -29h-492zM514 709l-125 -269h387l-90 211 q-45 100 -96 226zM313 1370q0 47 31 76t78 29q45 0 76.5 -29.5t31.5 -75.5t-31 -74t-77 -28q-47 0 -78 28t-31 74zM735 1370q0 47 31 76t78 29q45 0 76.5 -29.5t31.5 -75.5t-31 -74t-77 -28q-47 0 -78 28t-31 74z" />
<glyph horiz-adv-x="1265" d="M745 39l19 20l160 39l-113 260h-459l-119 -256l218 -39l12 -24l-19 -39h-456l12 39l25 20l81 39l316 631q16 31 43 86t42.5 85.5t40.5 69.5t50 68l76 54q76 -153 145.5 -301.5t173 -377.5t142.5 -315l108 -45l2 -24l-14 -29h-492zM514 709l-125 -269h387l-90 211 q-45 100 -96 226zM838 1208l-37 -39q-197 137 -432 267q41 81 129 149q54 -58 166.5 -186.5t173.5 -190.5z" />
<glyph horiz-adv-x="1265" d="M745 39l19 20l160 39l-113 260h-459l-119 -256l218 -39l12 -24l-19 -39h-456l12 39l25 20l81 39l316 631q16 31 43 86t42.5 85.5t40.5 69.5t50 68l76 54q76 -153 145.5 -301.5t173 -377.5t142.5 -315l108 -45l2 -24l-14 -29h-492zM514 709l-125 -269h387l-90 211 q-45 100 -96 226zM354 1413h611q-3 -27 -24.5 -63.5t-43.5 -49.5h-580q15 86 37 113z" />
<glyph horiz-adv-x="1265" d="M745 39l19 20l160 39l-113 260h-459l-119 -256l218 -39l12 -24l-19 -39h-456l12 39l25 20l81 39l316 631q16 31 43 86t42.5 85.5t40.5 69.5t50 68l76 54q76 -153 145.5 -301.5t173 -377.5t142.5 -315l108 -45l2 -24l-14 -29h-53q-109 -3 -173.5 -71t-64.5 -156 q0 -49 30.5 -80t88.5 -31q57 0 104 31l19 -21l-2 -26q-22 -29 -70 -49.5t-109 -20.5q-89 0 -146.5 43.5t-57.5 124.5q0 78 57 144.5t158 111.5h-273zM514 709l-125 -269h387l-90 211q-45 100 -96 226z" />
<glyph horiz-adv-x="1265" d="M745 39l19 20l160 39l-113 260h-459l-119 -256l218 -39l12 -24l-19 -39h-456l12 39l25 20l81 39l316 631q19 38 44 88.5t42.5 83.5t36.5 64q-72 20 -111 73.5t-39 124.5q0 88 68.5 147.5t161.5 59.5q111 0 171 -57.5t60 -149.5q0 -62 -34.5 -111.5t-92.5 -74.5 q75 -153 221 -473.5t185 -405.5l108 -45l2 -24l-14 -29h-492zM514 709l-125 -269h387l-90 211q-45 100 -96 226zM731 1163q0 69 -23.5 103t-82.5 34q-109 0 -109 -137t109 -137q59 0 82.5 34t23.5 103z" />
<glyph horiz-adv-x="1265" d="M745 39l19 20l160 39l-113 260h-459l-119 -256l218 -39l12 -24l-19 -39h-456l12 39l25 20l81 39l316 631q16 31 43 86t42.5 85.5t40.5 69.5t50 68l76 54q76 -153 145.5 -301.5t173 -377.5t142.5 -315l108 -45l2 -24l-14 -29h-492zM514 709l-125 -269h387l-90 211 q-45 100 -96 226zM434 1343l-104 -92l-47 29q10 13 28.5 40.5t29 40.5t29 32.5t41 34t52.5 26.5q50 -8 179.5 -46.5t164.5 -47.5l108 98l39 -18q-7 -21 -15 -39t-17 -33.5t-15.5 -27t-17 -23t-16 -17.5t-18 -15.5t-16 -12.5t-17 -12t-15.5 -11q-148 0 -373 94z" />
<glyph horiz-adv-x="1107" d="M999 922q5 -45 5 -84q0 -142 -17 -246l-63 18q-18 42 -68 168t-74 180q-87 27 -147 27q-186 0 -266 -111.5t-80 -336.5q0 -217 83.5 -325t282.5 -108q190 0 359 125l24 -12v-35q-154 -200 -438 -200q-117 0 -208 30t-148.5 80t-94.5 122t-52 149.5t-15 168.5 q0 111 32.5 207t97.5 173.5t173.5 122t249.5 44.5q117 0 222.5 -47t141.5 -110zM535 1169l-37 39q61 62 173.5 190.5t166.5 186.5q88 -68 129 -149q-235 -130 -432 -267z" />
<glyph horiz-adv-x="1107" d="M999 922q5 -45 5 -84q0 -142 -17 -246l-63 18q-18 42 -68 168t-74 180q-87 27 -147 27q-186 0 -266 -111.5t-80 -336.5q0 -217 83.5 -325t282.5 -108q190 0 359 125l24 -12v-35q-154 -200 -438 -200q-117 0 -208 30t-148.5 80t-94.5 122t-52 149.5t-15 168.5 q0 111 32.5 207t97.5 173.5t173.5 122t249.5 44.5q117 0 222.5 -47t141.5 -110zM657 1221l-96 -31q-29 27 -56.5 55t-63 68.5t-50 57t-61.5 72t-51 60.5l49 47q116 -98 276 -204q25 20 84.5 63.5t99 75t74.5 63.5l45 -41q-110 -146 -250 -286z" />
<glyph horiz-adv-x="1107" d="M999 922q5 -45 5 -84q0 -142 -17 -246l-63 18q-18 42 -68 168t-74 180q-87 27 -147 27q-186 0 -266 -111.5t-80 -336.5q0 -217 83.5 -325t282.5 -108q190 0 359 125l24 -12v-35q-154 -200 -438 -200q-117 0 -208 30t-148.5 80t-94.5 122t-52 149.5t-15 168.5 q0 111 32.5 207t97.5 173.5t173.5 122t249.5 44.5q117 0 222.5 -47t141.5 -110zM551 1524l96 30q21 -20 41.5 -40.5t43.5 -45.5t39 -42.5t42.5 -47.5t38 -43.5t41 -48.5t37.5 -45l-49 -47q-118 100 -277 205q-22 -17 -84 -63t-100.5 -76.5t-73.5 -63.5l-45 41 q113 150 250 287z" />
<glyph horiz-adv-x="1107" d="M999 922q5 -45 5 -84q0 -142 -17 -246l-63 18q-18 42 -68 168t-74 180q-87 27 -147 27q-186 0 -266 -111.5t-80 -336.5q0 -217 83.5 -325t282.5 -108q190 0 359 125l24 -12v-35q-154 -200 -438 -200q-117 0 -208 30t-148.5 80t-94.5 122t-52 149.5t-15 168.5 q0 111 32.5 207t97.5 173.5t173.5 122t249.5 44.5q117 0 222.5 -47t141.5 -110zM483 1358q0 53 34.5 85t86.5 32t87.5 -32t35.5 -85t-35 -84t-88 -31q-52 0 -86.5 31t-34.5 84z" />
<glyph horiz-adv-x="1107" d="M549 -154l-10 138q-103 7 -183 40.5t-131 84t-84 120t-46 143.5t-13 160q0 111 32.5 207t97.5 173.5t173.5 122t249.5 44.5q117 0 222.5 -47t141.5 -110q5 -45 5 -84q0 -142 -17 -246l-63 18q-18 42 -68 168t-74 180q-87 27 -147 27q-186 0 -266 -111.5t-80 -336.5 q0 -217 83.5 -325t282.5 -108q190 0 359 125l24 -12v-35q-143 -186 -399 -198l-6 -84q201 -8 201 -156q0 -72 -68 -120t-180 -48q-60 0 -110.5 21t-72.5 49l-2 26l21 17q24 -18 65.5 -29.5t79.5 -11.5q67 0 95 23.5t28 74.5q0 55 -21 78.5t-67 23.5q-35 0 -53 -2z" />
<glyph horiz-adv-x="1325" d="M70 0l10 39l33 22l147 31v400h-176q9 50 35 83h141v396l-162 28l-12 21l18 41h594q110 0 196.5 -19t145.5 -55t99.5 -82.5t62.5 -108.5t31.5 -125t9.5 -139q0 -113 -30 -206t-92 -167.5t-170 -116.5t-253 -42h-628zM635 492h-186v-402h237q195 0 271.5 99.5t76.5 342.5 t-75.5 341t-272.5 98h-237v-396h247q-6 -50 -61 -83z" />
<glyph horiz-adv-x="1306" d="M68 1020l18 41h594q110 0 196.5 -19t145.5 -55t99.5 -82.5t62.5 -108.5t31.5 -125t9.5 -139q0 -113 -30 -206t-92 -167.5t-170 -116.5t-253 -42h-629l10 39l33 22l148 31v879l-162 28zM668 971h-238v-881h238q195 0 271.5 99.5t76.5 342.5t-75.5 341t-272.5 98zM713 1221 l-97 -31q-29 27 -56.5 55t-63 68.5t-50 57t-61.5 72t-51 60.5l49 47q116 -98 276 -204q27 21 85.5 64t98.5 74.5t75 63.5l45 -41q-110 -146 -250 -286z" />
<glyph horiz-adv-x="1146" d="M70 1020l18 41h918q3 -130 -11 -289l-57 10q-26 53 -80 189h-426v-389h488q0 -27 -45.5 -58t-86.5 -39h-356v-395h404l147 223l66 15q-17 -183 -43 -328h-955l10 39l33 22l150 31v879l-164 28zM547 1169l-37 39q61 62 173.5 190.5t166.5 186.5q88 -68 129 -149 q-235 -130 -432 -267z" />
<glyph horiz-adv-x="1146" d="M70 1020l18 41h918q3 -130 -11 -289l-57 10q-26 53 -80 189h-426v-389h488q0 -27 -45.5 -58t-86.5 -39h-356v-395h404l147 223l66 15q-17 -183 -43 -328h-955l10 39l33 22l150 31v879l-164 28zM829 1522l91 16q0 -153 -84 -242.5t-226 -89.5q-152 0 -228.5 83t-76.5 216 l84 23q0 -59 18 -98.5t52.5 -59t71 -26.5t85.5 -7q106 0 159.5 39.5t53.5 145.5z" />
<glyph horiz-adv-x="1146" d="M70 1020l18 41h918q3 -130 -11 -289l-57 10q-26 53 -80 189h-426v-389h488q0 -27 -45.5 -58t-86.5 -39h-356v-395h404l147 223l66 15q-17 -183 -43 -328h-955l10 39l33 22l150 31v879l-164 28zM670 1221l-97 -31q-29 27 -56.5 55t-63 68.5t-50 57t-61.5 72t-51 60.5 l49 47q116 -98 276 -204q25 20 84.5 63.5t99 75t74.5 63.5l46 -41q-110 -146 -250 -286z" />
<glyph horiz-adv-x="1146" d="M70 1020l18 41h918q3 -130 -11 -289l-57 10q-26 53 -80 189h-426v-389h488q0 -27 -45.5 -58t-86.5 -39h-356v-395h404l147 223l66 15q-17 -183 -43 -328h-955l10 39l33 22l150 31v879l-164 28zM563 1524l96 30q21 -20 41.5 -40.5t43.5 -45.5t39 -42.5t42.5 -47.5 t38 -43.5t41 -48.5t37.5 -45l-49 -47q-118 100 -277 205q-22 -17 -84 -63t-100.5 -76.5t-73.5 -63.5l-45 41q113 150 250 287z" />
<glyph horiz-adv-x="1146" d="M70 1020l18 41h918q3 -130 -11 -289l-57 10q-26 53 -80 189h-426v-389h488q0 -27 -45.5 -58t-86.5 -39h-356v-395h404l147 223l66 15q-17 -183 -43 -328h-955l10 39l33 22l150 31v879l-164 28zM719 1370q0 47 31 76t77 29q45 0 77 -29.5t32 -75.5t-31.5 -74t-77.5 -28 q-47 0 -77.5 28t-30.5 74zM297 1370q0 47 31 76t78 29q45 0 76.5 -29.5t31.5 -75.5t-31 -74t-77 -28q-47 0 -78 28t-31 74z" />
<glyph horiz-adv-x="1146" d="M70 1020l18 41h918q3 -130 -11 -289l-57 10q-26 53 -80 189h-426v-389h488q0 -27 -45.5 -58t-86.5 -39h-356v-395h404l147 223l66 15q-17 -183 -43 -328h-955l10 39l33 22l150 31v879l-164 28zM496 1358q0 53 34 85t86 32t87.5 -32t35.5 -85t-35 -84t-88 -31 q-52 0 -86 31t-34 84z" />
<glyph horiz-adv-x="1146" d="M70 1020l18 41h918q3 -130 -11 -289l-57 10q-26 53 -80 189h-426v-389h488q0 -27 -45.5 -58t-86.5 -39h-356v-395h404l147 223l66 15q-17 -183 -43 -328h-955l10 39l33 22l150 31v879l-164 28zM821 1208l-37 -39q-197 137 -432 267q41 81 129 149q54 -58 166.5 -186.5 t173.5 -190.5z" />
<glyph horiz-adv-x="1146" d="M983 313l66 15q-17 -183 -43 -328h-955l10 39l33 22l150 31v879l-164 28l-10 21l18 41h918q3 -130 -11 -289l-57 10q-26 53 -80 189h-426v-389h488q0 -27 -45.5 -58t-86.5 -39h-356v-395h404zM338 1413h610q-3 -28 -24 -64t-43 -49h-580q15 86 37 113z" />
<glyph horiz-adv-x="1146" d="M983 313l66 15q-17 -183 -43 -328q-120 -48 -169 -103.5t-49 -129.5q0 -45 31 -75t88 -30q58 0 105 31l18 -21l-2 -26q-22 -29 -70 -49.5t-108 -20.5q-89 0 -147 43.5t-58 124.5q0 160 242 256h-836l10 39l33 22l150 31v879l-164 28l-10 21l18 41h918q3 -130 -11 -289 l-57 10q-26 53 -80 189h-426v-389h488q0 -27 -45.5 -58t-86.5 -39h-356v-395h404z" />
<glyph horiz-adv-x="1226" d="M1085 518v-491l-49 -41l-78 73q-59 -37 -152.5 -57t-182.5 -20q-106 0 -191 20.5t-143.5 58.5t-99.5 87t-64 113t-33 129.5t-10 141.5q0 87 20.5 165t66 148.5t113 122t167.5 81.5t223 30q138 0 255.5 -42t143.5 -93q6 -49 3 -134.5t-13 -152.5l-64 19q-18 42 -53 128.5 t-53 127.5q-97 51 -232 51q-197 0 -283.5 -107.5t-86.5 -343.5q0 -228 90 -335t293 -107q133 0 237 39v289l-231 45l-2 29l29 26h380zM848 1522l90 16q0 -153 -83.5 -242.5t-225.5 -89.5q-152 0 -228.5 83t-76.5 216l84 23q0 -59 18 -98.5t52.5 -59t71 -26.5t85.5 -7 q106 0 159.5 39.5t53.5 145.5z" />
<glyph horiz-adv-x="1226" d="M1085 518v-491l-49 -41l-78 73q-59 -37 -152.5 -57t-182.5 -20q-106 0 -191 20.5t-143.5 58.5t-99.5 87t-64 113t-33 129.5t-10 141.5q0 87 20.5 165t66 148.5t113 122t167.5 81.5t223 30q138 0 255.5 -42t143.5 -93q6 -49 3 -134.5t-13 -152.5l-64 19q-18 42 -53 128.5 t-53 127.5q-97 51 -232 51q-197 0 -283.5 -107.5t-86.5 -343.5q0 -228 90 -335t293 -107q133 0 237 39v289l-231 45l-2 29l29 26h380zM582 1524l96 30q21 -20 41.5 -40.5t43.5 -45.5t39 -42.5t42.5 -47.5t38 -43.5t41 -48.5t37.5 -45l-50 -47q-121 103 -276 205 q-22 -17 -84 -63t-100.5 -76.5t-73.5 -63.5l-45 41q113 150 250 287z" />
<glyph horiz-adv-x="1226" d="M1085 518v-491l-49 -41l-78 73q-59 -37 -152.5 -57t-182.5 -20q-106 0 -191 20.5t-143.5 58.5t-99.5 87t-64 113t-33 129.5t-10 141.5q0 87 20.5 165t66 148.5t113 122t167.5 81.5t223 30q138 0 255.5 -42t143.5 -93q6 -49 3 -134.5t-13 -152.5l-64 19q-18 42 -53 128.5 t-53 127.5q-97 51 -232 51q-197 0 -283.5 -107.5t-86.5 -343.5q0 -228 90 -335t293 -107q133 0 237 39v289l-231 45l-2 29l29 26h380zM727 -96q14 -106 -30 -202.5t-173 -203.5l-43 41q55 59 78 112t21.5 105.5t-11.5 122.5q49 25 158 25z" />
<glyph horiz-adv-x="1226" d="M1085 518v-491l-49 -41l-78 73q-59 -37 -152.5 -57t-182.5 -20q-106 0 -191 20.5t-143.5 58.5t-99.5 87t-64 113t-33 129.5t-10 141.5q0 87 20.5 165t66 148.5t113 122t167.5 81.5t223 30q138 0 255.5 -42t143.5 -93q6 -49 3 -134.5t-13 -152.5l-64 19q-18 42 -53 128.5 t-53 127.5q-97 51 -232 51q-197 0 -283.5 -107.5t-86.5 -343.5q0 -228 90 -335t293 -107q133 0 237 39v289l-231 45l-2 29l29 26h380zM514 1358q0 53 34.5 85t86.5 32t87.5 -32t35.5 -85t-35 -84t-88 -31q-52 0 -86.5 31t-34.5 84z" />
<glyph horiz-adv-x="1480" d="M51 0l10 39l33 22l150 31v879l-164 28l-10 21l18 41h535l-11 -39l-32 -21l-148 -32v-387h617v389l-162 28l-13 21l19 41h537l-11 -39l-33 -21l-149 -32v-879l164 -27l10 -22l-18 -41h-535l10 39l33 22l148 31v393h-617v-395l162 -27l10 -22l-16 -41h-537zM692 1524l96 30 q21 -20 41.5 -40.5t43.5 -45.5t39 -42.5t42.5 -47.5t38 -43.5t41 -48.5t37.5 -45l-49 -47q-118 100 -277 205q-22 -17 -84 -63t-100.5 -76.5t-73.5 -63.5l-45 41q113 150 250 287z" />
<glyph horiz-adv-x="1515" d="M68 0l10 39l33 22l149 31v649h-194q8 44 30 72h164v158l-164 28l-10 21l18 41h535l-10 -39l-33 -21l-147 -32v-156h616v158l-162 28l-12 21l18 41h537l-10 -39l-33 -21l-150 -32v-156h220q-11 -46 -58 -72h-162v-651l164 -27l10 -22l-18 -41h-535l11 39l33 22l147 31v393 h-616v-395l161 -27l11 -22l-17 -41h-536zM449 741v-159h616v159h-616z" />
<glyph horiz-adv-x="673" d="M604 41l-16 -41h-537l10 39l33 22l150 31v879l-164 28l-10 21l18 41h535l-11 -39l-32 -21l-148 -32v-879l162 -27zM270 1169l-37 39q61 62 173.5 190.5t166.5 186.5q88 -68 129 -149q-235 -130 -432 -267z" />
<glyph horiz-adv-x="673" d="M51 0l10 39l33 22l150 31v879l-164 28l-10 21l18 41h535l-11 -39l-32 -21l-148 -32v-879l162 -27l10 -22l-16 -41h-537zM553 1522l90 16q0 -153 -83.5 -242.5t-225.5 -89.5q-152 0 -228.5 83t-76.5 216l84 23q0 -59 18 -98.5t52.5 -59t71 -26.5t85.5 -7q106 0 159.5 39.5 t53.5 145.5z" />
<glyph horiz-adv-x="673" d="M51 0l10 39l33 22l150 31v879l-164 28l-10 21l18 41h535l-11 -39l-32 -21l-148 -32v-879l162 -27l10 -22l-16 -41h-537zM287 1524l96 30q21 -20 41.5 -40.5t43.5 -45.5t39 -42.5t42.5 -47.5t38 -43.5t41 -48.5t37.5 -45l-50 -47q-121 103 -276 205q-22 -17 -84 -63 t-100.5 -76.5t-73.5 -63.5l-45 41q113 150 250 287z" />
<glyph horiz-adv-x="673" d="M51 0l10 39l33 22l150 31v879l-164 28l-10 21l18 41h535l-11 -39l-32 -21l-148 -32v-879l162 -27l10 -22l-16 -41h-537zM20 1370q0 47 31 76t78 29q45 0 77 -29.5t32 -75.5t-31.5 -74t-77.5 -28q-47 0 -78 28t-31 74zM442 1370q0 47 31 76t78 29q45 0 76.5 -29.5 t31.5 -75.5t-31 -74t-77 -28q-47 0 -78 28t-31 74z" />
<glyph horiz-adv-x="673" d="M51 0l10 39l33 22l150 31v879l-164 28l-10 21l18 41h535l-11 -39l-32 -21l-148 -32v-879l162 -27l10 -22l-16 -41h-537zM545 1208l-37 -39q-197 137 -432 267q41 81 129 149q54 -58 166.5 -186.5t173.5 -190.5z" />
<glyph horiz-adv-x="673" d="M604 41l-16 -41h-537l10 39l33 22l150 31v879l-164 28l-10 21l18 41h535l-11 -39l-32 -21l-148 -32v-879l162 -27zM61 1413h611q-3 -27 -24.5 -63.5t-43.5 -49.5h-579q0 1 2.5 16.5t4.5 24.5t6 24t9.5 27t13.5 21z" />
<glyph horiz-adv-x="673" d="M604 41l-16 -41h-72q-109 -3 -173 -71t-64 -156q0 -50 30 -80.5t88 -30.5t105 31l18 -21l-2 -26q-22 -29 -70 -49.5t-108 -20.5q-89 0 -147 43.5t-58 124.5q0 78 57 144.5t158 111.5h-299l10 39l33 22l150 31v879l-164 28l-10 21l18 41h535l-11 -39l-32 -21l-148 -32 v-879l162 -27z" />
<glyph horiz-adv-x="673" d="M604 41l-16 -41h-537l10 39l33 22l150 31v879l-164 28l-10 21l18 41h535l-11 -39l-32 -21l-148 -32v-879l162 -27zM150 1343l-105 -92l-47 29q10 13 28.5 40.5t29 40.5t29 32.5t41 34t52.5 26.5q50 -8 179.5 -46.5t164.5 -47.5l109 98l39 -18q-8 -24 -18 -44.5t-17 -35 t-19.5 -29.5t-18 -22t-20 -19t-18 -15t-20 -14t-17.5 -12q-147 0 -372 94z" />
<glyph horiz-adv-x="673" d="M604 41l-16 -41h-537l10 39l33 22l150 31v879l-164 28l-10 21l18 41h535l-11 -39l-32 -21l-148 -32v-879l162 -27zM219 1358q0 53 34.5 85t86.5 32t87.5 -32t35.5 -85t-35 -84t-88 -31q-52 0 -86.5 31t-34.5 84z" />
<glyph horiz-adv-x="937" d="M922 1061l-11 -39l-30 -21l-138 -32v-652q0 -154 -96 -243.5t-299 -89.5q-87 0 -176.5 27.5t-124.5 70.5q-24 98 -24 291l65 -13q65 -158 148 -280q54 -14 98 -14q114 0 167.5 53t53.5 160v692l-203 28l-12 21l22 41h560zM594 1524l96 30q21 -20 41.5 -40.5t43.5 -45.5 t39 -42.5t42.5 -47.5t38 -43.5t41 -48.5t37.5 -45l-49 -47q-118 100 -277 205q-22 -17 -84 -63t-100.5 -76.5t-73.5 -63.5l-45 41q113 150 250 287z" />
<glyph horiz-adv-x="1286" d="M811 39l20 20l80 21l-405 418l-6 49l473 407l-189 41l-10 29l19 37h395l-10 -55q-323 -287 -502 -435l459 -475l125 -37l10 -30l-15 -29h-448zM51 0l10 39l33 22l150 31v879l-164 28l-10 21l18 41h502l-10 -39l-33 -21l-117 -32v-879l127 -27l12 -22l-18 -41h-500z M766 -96q14 -106 -30 -202.5t-173 -203.5l-43 41q55 59 78 112t21.5 105.5t-11.5 122.5q49 25 158 25z" />
<glyph horiz-adv-x="1064" d="M70 1020l18 41h555l-10 -39l-35 -21l-166 -32v-875h365l149 266l64 13q-21 -244 -47 -373h-912l10 39l33 22l150 31v879l-164 28zM272 1169l-36 39q61 62 172.5 190t166.5 187q90 -70 130 -149q-240 -133 -433 -267z" />
<glyph horiz-adv-x="1064" d="M643 1061l-10 -39l-35 -21l-166 -32v-875h365l149 266l64 13q-21 -244 -47 -373h-912l10 39l33 22l150 31v879l-164 28l-10 21l18 41h344h211zM926 1057l-193 -393l-49 18q34 111 42.5 177t10.5 196q41 10 96 11t93 -9z" />
<glyph horiz-adv-x="1064" d="M643 1061l-10 -39l-35 -21l-166 -32v-875h365l149 266l64 13q-21 -244 -47 -373h-912l10 39l33 22l150 31v879l-164 28l-10 21l18 41h344h211zM762 -96q14 -106 -30 -202.5t-173 -203.5l-43 41q55 59 78 112t21.5 105.5t-11.5 122.5q49 25 158 25z" />
<glyph horiz-adv-x="1064" d="M643 1061l-10 -39l-35 -21l-166 -32v-875h365l149 266l64 13q-21 -244 -47 -373h-912l10 39l33 22l150 31v879l-164 28l-10 21l18 41h344h211zM639 571q0 51 30 79t76 28q48 0 78.5 -28t30.5 -79q0 -50 -30.5 -77t-78.5 -27q-47 0 -76.5 27t-29.5 77z" />
<glyph horiz-adv-x="1083" d="M70 0l10 39l33 22l149 31v291l-139 -55q-19 57 -10 86l149 59v498l-164 28l-10 21l18 41h556l-11 -39l-35 -21l-165 -32v-420l331 135q7 -20 3 -49.5t-17 -46.5l-317 -129v-365h364l150 266l63 13q-21 -244 -47 -373h-911z" />
<glyph horiz-adv-x="1394" d="M897 1020l16 41h465l-10 -39l-33 -21l-149 -32v-572q0 -335 -12 -403l-29 -23l-166 164q-394 426 -541 600q-17 19 -82 113q2 -45 2 -141v-617l164 -27l10 -22l-18 -41h-463l10 39l33 22l150 31v879l-164 28l-10 21l18 41h326q97 -117 295 -343.5t295 -344.5 q58 -77 69 -94q-4 47 -4 149v543l-162 28zM647 1169l-37 39q61 62 173.5 190.5t166.5 186.5q88 -68 129 -149q-235 -130 -432 -267z" />
<glyph horiz-adv-x="1394" d="M897 1020l16 41h465l-10 -39l-33 -21l-149 -32v-572q0 -335 -12 -403l-29 -23l-166 164q-394 426 -541 600q-17 19 -82 113q2 -45 2 -141v-617l164 -27l10 -22l-18 -41h-463l10 39l33 22l150 31v879l-164 28l-10 21l18 41h326q97 -117 295 -343.5t295 -344.5 q58 -77 69 -94q-4 47 -4 149v543l-162 28zM770 1221l-96 -31q-21 20 -41.5 40.5t-43.5 45.5t-39 42.5t-42.5 47.5t-38 43.5t-41 48.5t-37.5 45l49 47q112 -95 277 -204q25 20 84.5 63.5t99 75t74.5 63.5l45 -41q-110 -146 -250 -286z" />
<glyph horiz-adv-x="1394" d="M897 1020l16 41h465l-10 -39l-33 -21l-149 -32v-572q0 -335 -12 -403l-29 -23l-166 164q-394 426 -541 600q-17 19 -82 113q2 -45 2 -141v-617l164 -27l10 -22l-18 -41h-463l10 39l33 22l150 31v879l-164 28l-10 21l18 41h326q97 -117 295 -343.5t295 -344.5 q58 -77 69 -94q-4 47 -4 149v543l-162 28zM809 -96q14 -106 -30 -202.5t-173 -203.5l-43 41q55 59 78 112t21.5 105.5t-11.5 122.5q49 25 158 25z" />
<glyph horiz-adv-x="1394" d="M897 1020l16 41h465l-10 -39l-33 -21l-149 -32v-572q0 -335 -12 -403l-29 -23l-166 164q-394 426 -541 600q-17 19 -82 113q2 -45 2 -141v-617l164 -27l10 -22l-18 -41h-463l10 39l33 22l150 31v879l-164 28l-10 21l18 41h326q97 -117 295 -343.5t295 -344.5 q58 -77 69 -94q-4 47 -4 149v543l-162 28zM526 1343l-104 -92l-47 29q10 13 28.5 40.5t29 40.5t29 32.5t41 34t52.5 26.5q50 -8 179.5 -46.5t164.5 -47.5l109 98l39 -18q-8 -24 -18 -44.5t-17 -35t-19.5 -29.5t-18 -22t-20 -19t-18 -15t-20 -14t-17.5 -12q-148 0 -373 94z " />
<glyph horiz-adv-x="1824" d="M1327 1020l16 41h465l-10 -39l-33 -21l-149 -32v-572q0 -335 -12 -403l-29 -23l-166 164q-394 426 -541 600q-17 19 -82 113q2 -45 2 -141v-617l164 -27l11 -22l-19 -41h-463l11 39l32 22l150 31v879l-164 28l-10 21l18 41h326q97 -117 295 -343.5t295 -344.5 q58 -77 69 -94q-4 47 -4 149v543l-162 28zM530 1491l-215 -410h-69q6 18 20 57.5t17 47.5t11.5 38t11 44.5t9 50.5t11.5 73t12 95q38 11 96.5 12.5t95.5 -8.5z" />
<glyph horiz-adv-x="1394" d="M897 1020l16 41h465l-10 -39l-33 -21l-149 -32v-684q0 -63 -4 -114t-14.5 -107.5t-30.5 -101.5t-50 -86.5t-75.5 -73t-104.5 -50.5q-37 5 -85.5 38t-73.5 60l28 39l240 9q29 60 37 122l-74 82q-82 88 -170.5 191.5t-206.5 245.5t-164 196q-20 23 -84 115q4 -74 4 -107 v-653l164 -27l10 -22l-18 -41h-463l10 39l33 22l150 31v879l-164 28l-10 21l18 41h326q57 -70 183.5 -228t223 -275.5t183.5 -219.5q20 -25 73 -105q-4 56 -8 170v568l-162 28z" />
<glyph horiz-adv-x="1267" d="M631 78q102 0 170.5 29.5t106.5 90.5t53.5 140.5t15.5 193.5q0 91 -9.5 158.5t-33 125t-62.5 93.5t-99 56t-142 20q-102 0 -169.5 -29t-105 -90t-52.5 -140t-15 -194t15 -194t52.5 -140.5t105 -90.5t169.5 -29zM631 -18q-112 0 -200 20t-147 58.5t-99.5 87.5t-62.5 113.5 t-31 129t-9 141.5q0 111 31.5 207t95 173.5t172 122t250.5 44.5q112 0 200.5 -20t148.5 -58.5t101 -87t63.5 -112.5t32 -128t9.5 -141q0 -90 -18 -168.5t-60 -149.5t-105 -122t-158 -80.5t-214 -29.5zM561 1169l-37 39q61 62 173.5 190.5t166.5 186.5q88 -68 129 -149 q-235 -130 -432 -267z" />
<glyph horiz-adv-x="1267" d="M631 78q102 0 170.5 29.5t106.5 90.5t53.5 140.5t15.5 193.5q0 91 -9.5 158.5t-33 125t-62.5 93.5t-99 56t-142 20q-102 0 -169.5 -29t-105 -90t-52.5 -140t-15 -194t15 -194t52.5 -140.5t105 -90.5t169.5 -29zM631 -18q-112 0 -200 20t-147 58.5t-99.5 87.5t-62.5 113.5 t-31 129t-9 141.5q0 111 31.5 207t95 173.5t172 122t250.5 44.5q112 0 200.5 -20t148.5 -58.5t101 -87t63.5 -112.5t32 -128t9.5 -141q0 -90 -18 -168.5t-60 -149.5t-105 -122t-158 -80.5t-214 -29.5zM844 1522l90 16q0 -153 -83.5 -242.5t-225.5 -89.5q-152 0 -229 83 t-77 216l84 23q0 -59 18.5 -98.5t52.5 -59t71 -26.5t86 -7q106 0 159.5 39.5t53.5 145.5z" />
<glyph horiz-adv-x="1267" d="M631 78q102 0 170.5 29.5t106.5 90.5t53.5 140.5t15.5 193.5q0 91 -9.5 158.5t-33 125t-62.5 93.5t-99 56t-142 20q-102 0 -169.5 -29t-105 -90t-52.5 -140t-15 -194t15 -194t52.5 -140.5t105 -90.5t169.5 -29zM631 -18q-112 0 -200 20t-147 58.5t-99.5 87.5t-62.5 113.5 t-31 129t-9 141.5q0 111 31.5 207t95 173.5t172 122t250.5 44.5q112 0 200.5 -20t148.5 -58.5t101 -87t63.5 -112.5t32 -128t9.5 -141q0 -90 -18 -168.5t-60 -149.5t-105 -122t-158 -80.5t-214 -29.5zM578 1524l96 30q29 -27 56.5 -55t63 -68.5t50 -57t61.5 -72t51 -60.5 l-49 -47q-121 103 -276 205q-22 -17 -84 -63t-100.5 -76.5t-73.5 -63.5l-45 41q113 150 250 287z" />
<glyph horiz-adv-x="1267" d="M631 78q102 0 170.5 29.5t106.5 90.5t53.5 140.5t15.5 193.5q0 91 -9.5 158.5t-33 125t-62.5 93.5t-99 56t-142 20q-102 0 -169.5 -29t-105 -90t-52.5 -140t-15 -194t15 -194t52.5 -140.5t105 -90.5t169.5 -29zM631 -18q-112 0 -200 20t-147 58.5t-99.5 87.5t-62.5 113.5 t-31 129t-9 141.5q0 111 31.5 207t95 173.5t172 122t250.5 44.5q112 0 200.5 -20t148.5 -58.5t101 -87t63.5 -112.5t32 -128t9.5 -141q0 -90 -18 -168.5t-60 -149.5t-105 -122t-158 -80.5t-214 -29.5zM311 1370q0 47 31 76t78 29q45 0 76.5 -29.5t31.5 -75.5t-31 -74 t-77 -28q-47 0 -78 28t-31 74zM733 1370q0 47 31 76t78 29q45 0 76.5 -29.5t31.5 -75.5t-31 -74t-77 -28q-47 0 -78 28t-31 74z" />
<glyph horiz-adv-x="1267" d="M631 78q102 0 170.5 29.5t106.5 90.5t53.5 140.5t15.5 193.5q0 91 -9.5 158.5t-33 125t-62.5 93.5t-99 56t-142 20q-102 0 -169.5 -29t-105 -90t-52.5 -140t-15 -194t15 -194t52.5 -140.5t105 -90.5t169.5 -29zM631 -18q-112 0 -200 20t-147 58.5t-99.5 87.5t-62.5 113.5 t-31 129t-9 141.5q0 111 31.5 207t95 173.5t172 122t250.5 44.5q112 0 200.5 -20t148.5 -58.5t101 -87t63.5 -112.5t32 -128t9.5 -141q0 -90 -18 -168.5t-60 -149.5t-105 -122t-158 -80.5t-214 -29.5zM836 1208l-37 -39q-197 137 -432 267q41 81 129 149 q54 -58 166.5 -186.5t173.5 -190.5z" />
<glyph horiz-adv-x="1267" d="M631 78q102 0 170.5 29.5t106.5 90.5t53.5 140.5t15.5 193.5q0 91 -9.5 158.5t-33 125t-62.5 93.5t-99 56t-142 20q-102 0 -169.5 -29t-105 -90t-52.5 -140t-15 -194t15 -194t52.5 -140.5t105 -90.5t169.5 -29zM631 -18q-112 0 -200 20t-147 58.5t-99.5 87.5t-62.5 113.5 t-31 129t-9 141.5q0 111 31.5 207t95 173.5t172 122t250.5 44.5q112 0 200.5 -20t148.5 -58.5t101 -87t63.5 -112.5t32 -128t9.5 -141q0 -90 -18 -168.5t-60 -149.5t-105 -122t-158 -80.5t-214 -29.5zM375 1169l-39 25q37 64 106.5 194t106.5 195q91 -47 139 -102 q-153 -136 -313 -312zM682 1169l-37 29q37 50 75.5 108.5t89 137t81.5 125.5q94 -62 129 -115q-180 -136 -338 -285z" />
<glyph horiz-adv-x="1267" d="M631 78q102 0 170.5 29.5t106.5 90.5t53.5 140.5t15.5 193.5q0 91 -9.5 158.5t-33 125t-62.5 93.5t-99 56t-142 20q-102 0 -169.5 -29t-105 -90t-52.5 -140t-15 -194t15 -194t52.5 -140.5t105 -90.5t169.5 -29zM631 -18q-112 0 -200 20t-147 58.5t-99.5 87.5t-62.5 113.5 t-31 129t-9 141.5q0 111 31.5 207t95 173.5t172 122t250.5 44.5q112 0 200.5 -20t148.5 -58.5t101 -87t63.5 -112.5t32 -128t9.5 -141q0 -90 -18 -168.5t-60 -149.5t-105 -122t-158 -80.5t-214 -29.5zM352 1413h611q-3 -27 -24.5 -63.5t-43.5 -49.5h-580q15 86 37 113z" />
<glyph horiz-adv-x="1267" d="M631 78q102 0 170.5 29.5t106.5 90.5t53.5 140.5t15.5 193.5q0 91 -9.5 158.5t-33 125t-62.5 93.5t-99 56t-142 20q-102 0 -169.5 -29t-105 -90t-52.5 -140t-15 -194t15 -194t52.5 -140.5t105 -90.5t169.5 -29zM631 -18q-112 0 -200 20t-147 58.5t-99.5 87.5t-62.5 113.5 t-31 129t-9 141.5q0 111 31.5 207t95 173.5t172 122t250.5 44.5q112 0 200.5 -20t148.5 -58.5t101 -87t63.5 -112.5t32 -128t9.5 -141q0 -90 -18 -168.5t-60 -149.5t-105 -122t-158 -80.5t-214 -29.5zM440 1343l-104 -92l-47 29q10 13 28.5 40.5t29 40.5t29 32.5t41 34 t52.5 26.5q50 -8 179.5 -46.5t164.5 -47.5l109 98l39 -18q-8 -24 -18 -44.5t-17 -35t-19.5 -29.5t-18 -22t-20 -19t-18 -15t-20 -14t-17.5 -12q-148 0 -373 94z" />
</font>
</defs>
</svg>
