<?xml version="1.0" encoding="UTF-8" standalone="no"?>
<!-- Generator: Adobe Illustrator 15.0.0, SVG Export Plug-In . SVG Version: 6.00 Build 0)  -->

<svg
   xmlns:dc="http://purl.org/dc/elements/1.1/"
   xmlns:cc="http://creativecommons.org/ns#"
   xmlns:rdf="http://www.w3.org/1999/02/22-rdf-syntax-ns#"
   xmlns:svg="http://www.w3.org/2000/svg"
   xmlns="http://www.w3.org/2000/svg"
   xmlns:sodipodi="http://sodipodi.sourceforge.net/DTD/sodipodi-0.dtd"
   xmlns:inkscape="http://www.inkscape.org/namespaces/inkscape"
   version="1.1"
   id="Vrstva_1"
   x="0px"
   y="0px"
   width="297.52716"
   height="263.42035"
   viewBox="0 0 297.52716 263.42035"
   enable-background="new 0 0 300 300"
   xml:space="preserve"
   inkscape:version="0.47 r22583"
   sodipodi:docname="ZZ.svg"><metadata
   id="metadata37"><rdf:RDF><cc:Work
       rdf:about=""><dc:format>image/svg+xml</dc:format><dc:type
         rdf:resource="http://purl.org/dc/dcmitype/StillImage" /></cc:Work></rdf:RDF></metadata><defs
   id="defs35"><inkscape:perspective
     sodipodi:type="inkscape:persp3d"
     inkscape:vp_x="0 : 150 : 1"
     inkscape:vp_y="0 : 1000 : 0"
     inkscape:vp_z="300 : 150 : 1"
     inkscape:persp3d-origin="150 : 100 : 1"
     id="perspective39" /></defs><sodipodi:namedview
   pagecolor="#ffffff"
   bordercolor="#666666"
   borderopacity="1"
   objecttolerance="10"
   gridtolerance="10"
   guidetolerance="10"
   inkscape:pageopacity="0"
   inkscape:pageshadow="2"
   inkscape:window-width="1280"
   inkscape:window-height="1004"
   id="namedview33"
   showgrid="false"
   inkscape:zoom="0.78666667"
   inkscape:cx="148.36821"
   inkscape:cy="126.252"
   inkscape:window-x="-8"
   inkscape:window-y="-8"
   inkscape:window-maximized="1"
   inkscape:current-layer="Vrstva_1" />
<path
   clip-rule="evenodd"
   d="m 130.82821,9.5313465 c 6.532,-8.97900003 15.783,-11.158 25.031,-8.434 2.178,0.816 4.356,2.174 6.261,3.536 1.903,1.631 3.263,2.993 4.354,4.897 l 127.352,220.6940035 c 0.546,0.816 2.178,3.536 2.997,6.529 1.357,5.444 1.084,11.974 -3.811,18.232 -4.9,6.262 -10.887,8.435 -16.873,8.435 H 21.433213 c -5.442,-0.27 -11.158,-1.089 -17.4160001,-8.98 -4.08199996,-5.986 -5.171,-12.789 -2.723,-19.318 0.545,-1.635 1.361,-3.265 1.897,-4.081 l 0.281,-0.816"
   id="path3"
   style="fill-rule:evenodd" />
<path
   clip-rule="evenodd"
   d="M 276.13921,260.70035 H 21.430213 c -2.716,0 -5.171,-0.542 -7.616,-1.631 -2.453,-1.089 -4.6280001,-2.724 -6.2580001,-4.629 -3.538,-4.081 -5.442,-9.521 -4.898,-14.421 0.541,-2.719 1.628,-5.17 2.176,-6.532 0.541,-1.357 0.817,-1.63 1.089,-1.903 L 133.27121,10.893346 c 5.986,-8.1639995 14.97,-10.06799953 23.408,-6.5319995 1.632,0.819 3.264,1.904 4.355,2.993 1.359,1.088 2.443,2.177 3.263,3.5389995 l 127.078,220.691004 c 4.083,5.986 6.268,15.512 -3.263,24.762 -3.809,2.994 -7.89,4.354 -11.973,4.354"
   id="path5"
   style="fill:#ffffff;fill-rule:evenodd" />
<path
   clip-rule="evenodd"
   d="m 279.94821,254.71435 c 2.443,-0.816 4.628,-1.903 6.806,-4.897 3.264,-4.897 3.81,-10.343 0,-15.51 L 159.66921,13.613346 c -5.439,-6.5289995 -11.974,-7.3479995 -18.771,-2.993 -1.092,0.816 -2.178,1.631 -2.997,2.993 L 10.549213,234.30735 c -3.2710001,4.626 -3.8110001,9.796 0,15.51 2.993,4.081 7.074,5.451 10.884,5.451 l 254.705997,0.262 c 1.358,-0.001 2.723,-0.262 3.809,-0.816"
   id="path7"
   style="fill:#d9261c;fill-rule:evenodd" />
<polyline
   clip-rule="evenodd"
   points="52.997,237.613 248.657,237.613 150.959,68.078 "
   id="polyline9"
   style="fill:#ffffff;fill-rule:evenodd"
   transform="translate(-1.6317871,-12.831654)" />
<polyline
   clip-rule="evenodd"
   points="168.652,186.454 170.012,184.549 168.099,182.917 166.748,184.822 "
   id="polyline11"
   style="fill-rule:evenodd"
   transform="translate(-1.6317871,-12.831654)" />
<polyline
   clip-rule="evenodd"
   points="183.616,194.345 184.974,192.713 183.344,191.352 181.984,192.986 "
   id="polyline13"
   style="fill-rule:evenodd"
   transform="translate(-1.6317871,-12.831654)" />
<polyline
   clip-rule="evenodd"
   points="186.879,201.421 189.057,199.516 187.151,197.338 184.974,199.242 "
   id="polyline15"
   style="fill-rule:evenodd"
   transform="translate(-1.6317871,-12.831654)" />
<polyline
   clip-rule="evenodd"
   points="199.397,203.324 201.849,201.146 199.671,198.699 197.221,200.884 "
   id="polyline17"
   style="fill-rule:evenodd"
   transform="translate(-1.6317871,-12.831654)" />
<polyline
   clip-rule="evenodd"
   points="211.372,210.399 213.549,208.223 211.646,206.048 209.467,208.223 "
   id="polyline19"
   style="fill-rule:evenodd"
   transform="translate(-1.6317871,-12.831654)" />
<polyline
   clip-rule="evenodd"
   points="174.64,188.63 176.271,187.815 175.725,186.454 174.087,187 "
   id="polyline21"
   style="fill-rule:evenodd"
   transform="translate(-1.6317871,-12.831654)" />
<polyline
   clip-rule="evenodd"
   points="185.793,184.275 189.33,182.101 187.151,178.563 183.616,180.466 "
   id="polyline23"
   style="fill-rule:evenodd"
   transform="translate(-1.6317871,-12.831654)" />
<polyline
   clip-rule="evenodd"
   points="218.724,221.831 220.355,218.837 217.358,216.934 215.453,220.195 "
   id="polyline25"
   style="fill-rule:evenodd"
   transform="translate(-1.6317871,-12.831654)" />
<polyline
   clip-rule="evenodd"
   points="211.099,200.604 213.275,197.338 210.013,194.892 207.835,198.153 "
   id="polyline27"
   style="fill-rule:evenodd"
   transform="translate(-1.6317871,-12.831654)" />
<path
   clip-rule="evenodd"
   d="m 191.50621,192.39735 -44.349,16.057 33.469,-15.502 -1.365,-0.555 -36.187,16.875 35.101,-22.042 v -1.089 l -36.193,22.585 23.401,-30.206 h -1.086 l -24.765,31.837 -2.718,1.64 v -4.902 c 1.632,0.27 4.894,-0.273 5.167,-2.992 0,-5.167 0,-10.343 -0.273,-15.513 0,-2.448 -4.354,-4.615 -7.345,-5.988 -1.092,-0.541 -2.45,-1.631 -2.996,-3.535 -1.359,-4.629 -2.718,-9.526 -4.348,-14.147 -1.907,-3.271 -4.9,-3.812 -7.352,-3.812 H 88.374213 l -2.721,3.812 h 37.008997 l 4.084,17.142 H 76.131213 l -5.986,10.337 h 53.332997 v 2.725 H 68.510213 l -1.905,2.992 h 56.873997 v 2.994 H 64.972213 l -7.348,13.062 c 2.721,0 5.445,0.271 8.164,-0.272 0.273,-0.273 0.543,-0.547 0.543,-0.816 v -5.986 h 59.050997 c 0,2.178 -0.27,4.352 0.273,6.803 0.264,0.272 0.818,0.272 1.091,0.272 3.535,-0.272 7.071,0.271 10.607,-0.272 l 71.027,-2.451 v -1.089 l -69.124,2.451 64.769,-11.431 v -1.086 l -61.226,10.886 49.252,-17.961"
   id="path29"
   style="fill-rule:evenodd" />
<path
   clip-rule="evenodd"
   d="m 130.82821,190.76535 c -2.998,0.543 -5.172,5.445 -2.998,8.165 2.724,3.81 8.431,2.994 9.53,-2.451 0.813,-2.447 -3.27,-6.803 -6.532,-5.714"
   id="path31"
   style="fill:#ffffff;fill-rule:evenodd" />
</svg>