<?xml version="1.0" encoding="UTF-8" standalone="no"?>
<!-- Generator: Adobe Illustrator 15.0.0, SVG Export Plug-In . SVG Version: 6.00 Build 0)  -->

<svg
   xmlns:dc="http://purl.org/dc/elements/1.1/"
   xmlns:cc="http://creativecommons.org/ns#"
   xmlns:rdf="http://www.w3.org/1999/02/22-rdf-syntax-ns#"
   xmlns:svg="http://www.w3.org/2000/svg"
   xmlns="http://www.w3.org/2000/svg"
   xmlns:sodipodi="http://sodipodi.sourceforge.net/DTD/sodipodi-0.dtd"
   xmlns:inkscape="http://www.inkscape.org/namespaces/inkscape"
   version="1.1"
   id="Vrstva_1"
   x="0px"
   y="0px"
   width="296.47821"
   height="262.48926"
   viewBox="0 0 296.47821 262.48926"
   enable-background="new 0 0 300 300"
   xml:space="preserve"
   inkscape:version="0.47 r22583"
   sodipodi:docname="ZZ.svg"><metadata
   id="metadata17"><rdf:RDF><cc:Work
       rdf:about=""><dc:format>image/svg+xml</dc:format><dc:type
         rdf:resource="http://purl.org/dc/dcmitype/StillImage" /></cc:Work></rdf:RDF></metadata><defs
   id="defs15"><inkscape:perspective
     sodipodi:type="inkscape:persp3d"
     inkscape:vp_x="0 : 150 : 1"
     inkscape:vp_y="0 : 1000 : 0"
     inkscape:vp_z="300 : 150 : 1"
     inkscape:persp3d-origin="150 : 100 : 1"
     id="perspective19" /></defs><sodipodi:namedview
   pagecolor="#ffffff"
   bordercolor="#666666"
   borderopacity="1"
   objecttolerance="10"
   gridtolerance="10"
   guidetolerance="10"
   inkscape:pageopacity="0"
   inkscape:pageshadow="2"
   inkscape:window-width="1280"
   inkscape:window-height="1004"
   id="namedview13"
   showgrid="false"
   inkscape:zoom="0.78666667"
   inkscape:cx="148.03994"
   inkscape:cy="132.138"
   inkscape:window-x="-8"
   inkscape:window-y="-8"
   inkscape:window-maximized="1"
   inkscape:current-layer="Vrstva_1" />
<path
   clip-rule="evenodd"
   d="m 130.36294,9.4942716 c 6.51,-8.94800002 15.729,-11.118 24.95,-8.396 2.17,0.801 4.336,2.159 6.238,3.516 1.897,1.625 3.252,2.983 4.336,4.88 l 126.905,219.9129984 c 0.538,0.816 2.171,3.527 2.979,6.51 1.361,5.42 1.089,11.93 -3.796,18.168 -4.876,6.238 -10.842,8.404 -16.808,8.404 H 21.356936 c -5.421,-0.27 -11.122,-1.086 -17.3520003,-8.948 -4.06700002,-5.966 -5.157,-12.743 -2.714,-19.251 0.544,-1.628 1.354,-3.258 1.898,-4.066 l 0.272,-0.816"
   id="path3"
   style="fill-rule:evenodd" />
<path
   clip-rule="evenodd"
   d="M 275.16794,259.77827 H 21.356936 c -2.714,0 -5.153,-0.544 -7.591,-1.625 -2.442,-1.089 -4.6130003,-2.715 -6.2380003,-4.612 -3.523,-4.067 -5.425,-9.488 -4.884,-14.373 0.544,-2.711 1.629,-5.149 2.17,-6.506 0.544,-1.357 0.816,-1.63 1.088,-1.898 L 132.80494,10.851272 c 5.965,-8.1360004 14.914,-10.03400042 23.317,-6.5100004 1.629,0.816 3.259,1.897 4.34,2.983 1.357,1.085 2.441,2.169 3.255,3.5270004 l 126.634,219.911998 c 4.068,5.966 6.237,15.458 -3.251,24.675 -3.799,2.982 -7.868,4.34 -11.932,4.34"
   id="path5"
   style="fill:#ffffff;fill-rule:evenodd" />
<path
   clip-rule="evenodd"
   d="m 278.96294,253.81227 c 2.436,-0.816 4.609,-1.897 6.774,-4.88 3.26,-4.88 3.8,-10.307 0,-15.459 L 159.10894,13.562272 c -5.427,-6.5140004 -11.932,-7.3230004 -18.714,-2.983 -1.081,0.813 -2.169,1.625 -2.979,2.983 L 10.510936,233.47327 c -3.2550003,4.613 -3.7990003,9.763 0,15.459 2.983,4.063 7.05,5.425 10.846,5.425 l 253.811004,0.269 c 1.353,-0.001 2.707,-0.269 3.795,-0.814"
   id="path7"
   style="fill:#d9261c;fill-rule:evenodd" />
<polyline
   clip-rule="evenodd"
   points="52.601,243.906 247.569,243.906 150.219,74.969 "
   id="polyline9"
   style="fill:#ffffff;fill-rule:evenodd"
   transform="translate(-1.9600643,-19.648728)" />
<path
   clip-rule="evenodd"
   d="m 102.43194,163.78627 c -0.547,-1.086 0,-2.711 1.09,-3.524 0.268,-0.272 1.625,-1.625 2.979,-2.714 1.088,-0.541 1.35,-0.275 2.169,-0.813 1.358,-1.897 0.544,-2.982 2.171,-5.152 0,-0.539 1.897,-1.897 0.544,-2.169 -1.899,-1.086 -3.255,-2.438 -6.238,-2.438 -0.816,-1.086 1.084,-2.983 2.169,-2.983 0.272,0 1.353,0.813 2.438,1.354 2.169,0.816 2.442,1.088 3.255,1.088 0.544,-0.271 1.625,-0.271 2.982,-0.544 h 3.792 c 1.633,-0.272 0.544,-0.812 0.816,-1.084 0.269,-0.813 2.714,-2.443 2.441,1.084 0,1.357 -1.353,1.898 0.272,3.524 2.979,2.714 4.34,3.258 7.048,3.799 1.089,0.268 2.169,0.268 3.527,0 2.169,-0.272 5.696,-1.63 9.76,-1.357 3.255,0.544 6.779,2.169 10.574,2.715 3.258,0.54 5.966,0.54 9.485,0.54 3.262,0.27 5.966,0 7.87,-0.272 0.813,0 1.902,0 3.527,-0.268 1.353,0 3.252,0 4.341,-0.279 1.896,-0.267 2.158,-0.538 3.25,-0.811 3.255,-0.268 7.051,-0.54 10.034,4.885 1.625,2.979 2.441,5.966 1.89,9.49 -0.265,0.812 -0.537,1.355 -0.537,2.441 0,1.081 0,2.169 0.272,5.149 0,2.985 0.265,7.321 0,9.765 0,2.438 -0.272,2.709 -0.272,2.976 0,0.819 -0.544,1.633 1.089,3.258 0,0.816 -0.272,2.17 -0.552,3.255 -0.806,2.17 -2.703,-1.897 -3.789,-0.813 -1.084,1.899 -2.713,6.238 -1.353,10.034 0.269,0.812 1.353,2.17 -1.628,4.067 0,0.544 0,1.354 -0.813,1.626 h -1.086 c -0.812,0 -2.169,0 -2.711,-0.813 -0.271,-0.813 1.354,-2.169 1.627,-3.255 0.809,-1.625 0.272,-1.897 0.272,-2.982 0.271,-1.086 0.271,-3.522 0,-5.693 -0.272,-0.54 -0.272,-1.084 -1.09,-1.897 -0.537,-0.813 -1.897,-1.897 -2.707,-2.438 -1.629,-1.364 -1.088,-0.545 -1.629,-0.816 -0.54,0 -1.897,0.816 -1.084,1.897 0.271,1.898 -2.991,1.898 -2.991,0 -0.806,-0.813 -1.35,0 -2.431,1.085 -1.089,0.541 -1.63,-1.085 -2.17,-1.897 -1.626,-0.269 -3.796,1.356 -4.068,-1.085 0,-0.272 0.272,-1.086 0.813,-1.354 0.813,-0.272 -0.541,-0.544 -0.813,-1.089 0,-0.541 -1.896,-0.269 -3.796,-0.269 -3.527,0 -5.966,-1.357 -9.496,-1.897 -1.897,-0.272 -4.061,-0.272 -5.421,-0.272 -2.439,-0.269 -1.897,-0.269 -2.707,-0.269 -1.629,-0.272 -4.885,2.438 -3.807,4.877 0.28,0.272 0.28,0.544 0,1.357 -0.262,1.629 -1.891,4.881 -2.159,6.777 -0.272,1.626 0.809,2.983 0.54,4.613 -0.272,1.625 -2.442,3.795 -3.253,5.693 0,2.441 -0.813,1.625 -1.627,2.17 -0.544,0 -0.816,0.813 -1.356,0.541 -0.542,0 -1.63,-1.086 -1.63,-1.627 -0.269,-2.17 2.169,-1.356 2.714,-3.255 0.272,-1.084 0.544,-1.897 0.544,-2.983 v -1.625 -4.066 c 0.542,-2.983 0.809,-2.983 0.542,-4.609 0,-1.629 -2.711,-4.34 -4.34,-5.425 -2.983,-2.438 -3.255,-6.506 -5.966,-9.221 -0.812,-0.812 -1.625,-2.17 -2.165,-3.52 -0.546,-1.089 -0.818,-2.446 -1.09,-3.258 -0.54,-1.899 -0.809,-1.899 -1.628,-2.438 -1.895,-0.816 -2.708,0 -5.146,-4.068 -1.908,-1.089 -1.908,-0.545 -3.799,-0.816 -0.812,0.271 -2.169,0.271 -3.794,1.085 -0.813,0.54 -1.899,0.54 -2.711,0 -0.269,0.267 -1.355,-1.362 -2.984,-2.987"
   id="path11"
   style="fill-rule:evenodd" />
</svg>