<?xml version="1.0" encoding="UTF-8" standalone="no"?>
<!-- Generator: Adobe Illustrator 15.0.0, SVG Export Plug-In . SVG Version: 6.00 Build 0)  -->

<svg
   xmlns:dc="http://purl.org/dc/elements/1.1/"
   xmlns:cc="http://creativecommons.org/ns#"
   xmlns:rdf="http://www.w3.org/1999/02/22-rdf-syntax-ns#"
   xmlns:svg="http://www.w3.org/2000/svg"
   xmlns="http://www.w3.org/2000/svg"
   xmlns:sodipodi="http://sodipodi.sourceforge.net/DTD/sodipodi-0.dtd"
   xmlns:inkscape="http://www.inkscape.org/namespaces/inkscape"
   version="1.1"
   id="Vrstva_1"
   x="0px"
   y="0px"
   width="297.73935"
   height="263.6116"
   viewBox="0 0 297.73935 263.6116"
   enable-background="new 0 0 300 300"
   xml:space="preserve"
   inkscape:version="0.47 r22583"
   sodipodi:docname="ZZ.svg"><metadata
   id="metadata17"><rdf:RDF><cc:Work
       rdf:about=""><dc:format>image/svg+xml</dc:format><dc:type
         rdf:resource="http://purl.org/dc/dcmitype/StillImage" /></cc:Work></rdf:RDF></metadata><defs
   id="defs15"><inkscape:perspective
     sodipodi:type="inkscape:persp3d"
     inkscape:vp_x="0 : 150 : 1"
     inkscape:vp_y="0 : 1000 : 0"
     inkscape:vp_z="300 : 150 : 1"
     inkscape:persp3d-origin="150 : 100 : 1"
     id="perspective19" /></defs><sodipodi:namedview
   pagecolor="#ffffff"
   bordercolor="#666666"
   borderopacity="1"
   objecttolerance="10"
   gridtolerance="10"
   guidetolerance="10"
   inkscape:pageopacity="0"
   inkscape:pageshadow="2"
   inkscape:window-width="1280"
   inkscape:window-height="1004"
   id="namedview13"
   showgrid="false"
   inkscape:zoom="0.78666667"
   inkscape:cx="148.93908"
   inkscape:cy="131.612"
   inkscape:window-x="-8"
   inkscape:window-y="-8"
   inkscape:window-maximized="1"
   inkscape:current-layer="Vrstva_1" />
<path
   clip-rule="evenodd"
   d="m 130.91908,9.5386157 c 6.536,-8.98600005 15.794,-11.165 25.052,-8.442 2.179,0.816 4.358,2.18 6.263,3.541 1.906,1.634 3.27,2.995 4.359,4.901 l 127.443,220.8510043 c 0.547,0.815 2.18,3.542 2.998,6.534 1.359,5.447 1.086,11.981 -3.811,18.246 -4.905,6.265 -10.896,8.442 -16.887,8.442 H 21.448076 c -5.448,-0.273 -11.166,-1.089 -17.4299997,-8.986 -4.08300003,-5.994 -5.173,-12.797 -2.722,-19.335 0.545,-1.633 1.361,-3.266 1.906,-4.086 l 0.273,-0.815"
   id="path3"
   style="fill-rule:evenodd" />
<path
   clip-rule="evenodd"
   d="M 276.33608,260.88762 H 21.448076 c -2.722,0 -5.173,-0.544 -7.625,-1.634 -2.451,-1.086 -4.6279997,-2.722 -6.2629997,-4.628 -3.54,-4.084 -5.446,-9.533 -4.901,-14.435 0.545,-2.722 1.634,-5.174 2.177,-6.533 0.545,-1.362 0.819,-1.633 1.09,-1.906 L 133.37208,10.901616 c 5.991,-8.1700003 14.977,-10.07600035 23.418,-6.5360003 1.633,0.816 3.266,1.906 4.359,2.996 1.357,1.09 2.448,2.177 3.264,3.5410003 l 127.177,220.850004 c 4.081,5.991 6.261,15.521 -3.272,24.78 -3.813,2.994 -7.897,4.355 -11.982,4.355"
   id="path5"
   style="fill:#ffffff;fill-rule:evenodd" />
<path
   clip-rule="evenodd"
   d="m 280.14808,254.89562 c 2.453,-0.813 4.631,-1.906 6.811,-4.898 3.266,-4.905 3.812,-10.349 0,-15.524 L 159.78308,13.624616 c -5.444,-6.5360003 -11.98,-7.3520003 -18.787,-2.996 -1.091,0.816 -2.18,1.634 -2.997,2.996 L 10.556076,234.47362 c -3.2689997,4.629 -3.8129997,9.804 0,15.524 2.996,4.086 7.079,5.445 10.893,5.445 l 254.888004,0.273 c 1.362,0.001 2.724,-0.273 3.811,-0.82"
   id="path7"
   style="fill:#d9261c;fill-rule:evenodd" />
<polyline
   clip-rule="evenodd"
   points="52.463,243.214 248.262,243.214 150.226,73.832 "
   id="polyline9"
   style="fill:#ffffff;fill-rule:evenodd"
   transform="translate(-1.0609237,-18.000384)" />
<path
   clip-rule="evenodd"
   d="m 202.53908,213.77862 -11.435,-7.897 -11.439,7.897 c -0.542,-12.802 2.448,-25.869 -4.628,-38.672 -3.812,-8.986 -15.524,-19.604 -24.784,-22.874 -8.167,-3.269 -16.064,-3.542 -24.235,-2.995 l -13.889,-10.348 13.615,-12.525 c 20.152,-1.363 41.123,2.722 61.001,24.78 13.887,17.426 17.152,34.586 15.793,52.013"
   id="path11"
   style="fill-rule:evenodd" />
</svg>