<?xml version="1.0" encoding="utf-8"?>
<!-- Generator: Adobe Illustrator 15.0.0, SVG Export Plug-In . SVG Version: 6.00 Build 0)  -->
<!DOCTYPE svg PUBLIC "-//W3C//DTD SVG 1.1//EN" "http://www.w3.org/Graphics/SVG/1.1/DTD/svg11.dtd">
<svg version="1.1" id="Vrstva_1" xmlns="http://www.w3.org/2000/svg" xmlns:xlink="http://www.w3.org/1999/xlink" x="0px" y="0px"
	 width="300px" height="300px" viewBox="0 0 300 300" enable-background="new 0 0 300 300" xml:space="preserve">
<path fill-rule="evenodd" clip-rule="evenodd" d="M132.317,27.429c6.554-9.014,15.841-11.2,25.13-8.467
	c2.184,0.819,4.365,2.186,6.282,3.552c1.913,1.638,3.276,3.004,4.369,4.916l127.833,221.52c0.54,0.82,2.186,3.55,3.002,6.56
	c1.369,5.461,1.095,12.018-3.822,18.298c-4.915,6.282-10.925,8.469-16.933,8.469H22.514c-5.465-0.274-11.2-1.093-17.483-9.015
	c-4.096-6.009-5.189-12.839-2.731-19.394c0.547-1.642,1.365-3.279,1.904-4.098l0.28-0.82"/>
<path fill-rule="evenodd" clip-rule="evenodd" fill="#FFFFFF" d="M278.179,279.546H22.51c-2.727,0-5.191-0.551-7.645-1.643
	c-2.462-1.092-4.646-2.731-6.282-4.643c-3.55-4.097-5.462-9.558-4.916-14.479c0.542-2.729,1.633-5.186,2.183-6.554
	c0.543-1.366,0.821-1.641,1.094-1.916L134.772,28.794c6.011-8.192,15.023-10.104,23.494-6.554c1.635,0.819,3.277,1.912,4.372,3.006
	c1.362,1.09,2.454,2.183,3.273,3.548l127.559,221.519c4.099,6.01,6.285,15.573-3.274,24.859
	C286.37,278.178,282.275,279.546,278.179,279.546"/>
<path fill-rule="evenodd" clip-rule="evenodd" fill="#D9261C" d="M282,273.536c2.453-0.824,4.644-1.913,6.829-4.921
	c3.278-4.912,3.822-10.377,0-15.567L161.27,31.526c-5.465-6.555-12.019-7.375-18.845-3.004c-1.093,0.819-2.187,1.639-3.005,3.004
	L11.588,253.048c-3.283,4.647-3.826,9.833,0,15.567c3.004,4.097,7.1,5.465,10.925,5.465l255.665,0.271
	C279.542,274.352,280.908,274.08,282,273.536"/>
<polyline fill-rule="evenodd" clip-rule="evenodd" fill="#FFFFFF" points="52.286,244.035 248.403,244.035 150.344,74.137 "/>
<path fill-rule="evenodd" clip-rule="evenodd" d="M115.653,194.594c0.274,5.191,1.915,10.926,9.013,15.022
	c5.465,3.006,11.2,2.73,16.665-0.271l30.045-22.672v46.708l9.832-4.645l10.656,4.917v-53.539c-0.822-4.642-2.733-9.558-8.195-13.381
	c-6.831-4.373-13.932-4.373-20.76-0.547l-27.314,22.124v-38.514l-10.653-10.106l-9.288,10.106"/>
</svg>
