<?xml version="1.0" encoding="UTF-8" standalone="no"?>
<svg width="301px" height="355px" viewBox="0 0 301 355" version="1.1" xmlns="http://www.w3.org/2000/svg" xmlns:xlink="http://www.w3.org/1999/xlink" xmlns:sketch="http://www.bohemiancoding.com/sketch/ns">
    <!-- Generator: Sketch 3.3 (11970) - http://www.bohemiancoding.com/sketch -->
    <title>A2c</title>
    <desc>Created with Sketch.</desc>
    <defs></defs>
    <g id="Page-1" stroke="none" stroke-width="1" fill="none" fill-rule="evenodd" sketch:type="MSPage">
        <g id="A2c" sketch:type="MSLayerGroup">
            <g id="A2a" sketch:type="MSShapeGroup">
                <path d="M132.279,10.148 C138.857,1.109 148.165,-1.082 157.478,1.657 C159.67,2.478 161.862,3.848 163.78,5.218 C165.696,6.862 167.063,8.231 168.164,10.148 L296.343,232.278 C296.886,233.098 298.536,235.837 299.357,238.852 C300.727,244.329 300.454,250.905 295.523,257.202 C290.594,263.502 284.568,265.694 278.542,265.694 L22.173,265.694 C16.694,265.419 10.944,264.598 4.642,256.655 C0.536,250.63 -0.561,243.779 1.908,237.207 C2.453,235.561 3.274,233.921 3.822,233.099 L4.094,232.279" id="Shape" fill="#000000"></path>
                <path d="M278.54,262.956 L22.17,262.956 C19.436,262.956 16.97,262.406 14.503,261.31 C12.035,260.214 9.848,258.572 8.205,256.655 C4.644,252.546 2.727,247.071 3.275,242.137 C3.823,239.4 4.917,236.936 5.465,235.566 C6.009,234.195 6.288,233.92 6.56,233.645 L134.747,11.518 C140.771,3.302 149.811,1.385 158.303,4.946 C159.946,5.766 161.586,6.863 162.682,7.958 C164.054,9.052 165.145,10.148 165.97,11.518 L293.879,233.646 C297.984,239.67 300.177,249.26 290.593,258.573 C286.759,261.586 282.65,262.956 278.54,262.956" id="Shape" fill="#FFFFFF"></path>
                <path d="M282.375,256.93 C284.841,256.107 287.034,255.014 289.222,251.998 C292.509,247.067 293.059,241.588 289.222,236.387 L161.312,14.257 C155.835,7.683 149.261,6.862 142.414,11.244 C141.319,12.065 140.223,12.888 139.401,14.257 L11.218,236.387 C7.93,241.042 7.383,246.247 11.218,251.998 C14.231,256.106 18.338,257.477 22.173,257.477 L278.54,257.748 C279.907,257.747 281.278,257.477 282.375,256.93" id="Shape" fill="#D9261C"></path>
                <path d="M51.754,226.802 L248.687,226.802 L150.084,56.163" id="Shape" fill="#FFFFFF"></path>
                <path d="M181.581,177.223 C181.306,182.156 179.663,187.907 172.542,192.29 C167.063,195.028 161.312,195.028 155.835,191.74 L125.706,169.006 L125.706,216.118 L115.846,211.187 L105.164,216.393 L105.164,162.432 C105.984,158.053 107.902,152.849 113.379,149.286 C120.228,144.902 127.349,144.632 134.196,148.74 L161.586,170.927 L161.586,132.033 L172.267,122.172 L181.581,132.033" id="Shape" fill="#000000"></path>
            </g>
            <g id="Dopravná_značka_E4-Copy-+-Rectangle-2-Copy" transform="translate(46.000000, 282.000000)" sketch:type="MSShapeGroup">
                <g id="Dopravná_značka_E4-Copy" transform="translate(18.000000, 15.000000)" fill="#1F1917">
                    <g id="layer1" transform="translate(1.031959, 0.124016)">
                        <path d="M7.47524282,10.408318 L7.47524282,40.7330966 L18.8579279,40.7330966 L18.8579279,10.408318 L25.4978212,12.8877073 L13.3562934,0.109334634 L0.26622,12.8877073" id="path3280"></path>
                        <path d="M154.880965,12.1248117 L154.880965,42.4495902 L166.26364,42.4495902 L166.26364,12.1248117 L172.903544,14.604201 L160.762016,1.82583902 L147.861645,14.604201" id="path3282"></path>
                        <path d="M66.1603402,39.1591093 L66.7265661,32.197762 L57.2386344,32.197762 L64.6307842,20.4421317 C65.8249152,18.5423298 66.7587081,16.4205532 66.4680961,13.6248898 C66.1774627,10.830278 64.888998,7.52629659 62.7858398,5.70913951 C60.6819022,3.89277659 57.7629828,3.56324878 55.8084291,3.44616585 C53.8530747,3.32897561 52.8610506,3.42502439 51.427931,3.81172 C49.9937761,4.19767512 48.1177358,4.8749961 46.6090064,6.10197366 C45.1002769,7.32894049 43.9575133,9.10399707 43.3657211,11.0382263 L49.6082753,15.7485337 C49.7368645,13.7779883 50.9467944,11.7483971 52.7938524,10.8917385 C54.6408998,10.0358849 57.1250647,10.353479 58.0565091,12.2673288 C58.9879215,14.1806312 58.3389655,17.6697776 56.832339,19.8564702 C52.4226026,26.2824556 47.9151059,32.7084732 43.6041865,39.1336859" id="path3286"></path>
                        <path d="M93.4677081,16.8417298 L88.8561423,25.7733434 L88.8561423,4.18336976 L82.3469411,4.18336976 L82.3469411,39.1591093 L88.8561423,39.1591093 L88.8561423,28.4013346 L93.6431919,39.1569951 L100.504951,39.1569951 L94.9427157,26.8162293 L99.9766425,16.8417298" id="path3288"></path>
                        <path d="M120.316858,22.529481 C120.980321,21.9019659 121.858541,21.6404985 122.817633,22.570798 C123.064009,22.8735824 123.179916,23.2706449 123.179137,23.6557951 L123.155332,39.1591093 L129.805772,39.1591093 L129.805772,23.424559 L129.797232,23.4256322 C129.681506,21.6092585 129.792962,19.990241 127.269055,17.8271366 C125.722931,16.6796273 124.15912,16.4658732 122.317058,16.708238 C121.218594,16.8646312 120.039216,17.5394624 118.785018,18.6170439 C116.489755,15.8823044 113.377717,16.0812488 110.549961,18.2822254 L110.549961,16.8441337 L104.113733,16.8441337 L104.113733,39.1233512 L110.549961,39.1233512 C110.576327,33.6681776 110.454314,28.180959 110.628954,22.7588927 C111.224163,21.6715239 111.867343,21.7872654 112.791134,22.0455454 C113.421654,22.3954527 113.609788,23.1080166 113.573173,23.6200585 L113.549582,39.1233512 L119.914673,39.1233512 L119.916808,23.5840322 C119.921078,23.2394049 120.023449,22.8685493 120.314659,22.5289659" id="path3290"></path>
                    </g>
                </g>
                <path d="M3,9.00612329 L3,9.00612329 L3,63.9938767 C3,67.3135553 5.6849924,70 8.99890779,70 L202.001092,70 C205.315079,70 208,67.3124404 208,63.9938767 L208,9.00612329 C208,5.6864447 205.315008,3 202.001092,3 L8.99890779,3 C5.68492093,3 3,5.68755956 3,9.00612329 L3,9.00612329 Z M0,9.00612329 C0,4.03217874 4.02659333,0 8.99890779,0 L202.001092,0 C206.971052,0 211,4.02877949 211,9.00612329 L211,63.9938767 C211,68.9678213 206.973407,73 202.001092,73 L8.99890779,73 C4.02894825,73 0,68.9712205 0,63.9938767 L0,9.00612329 L0,9.00612329 Z" id="Shape" fill="#000000"></path>
            </g>
        </g>
    </g>
</svg>