<?xml version="1.0" encoding="UTF-8" standalone="no"?>
<svg width="301px" height="416px" viewBox="0 0 301 416" version="1.1" xmlns="http://www.w3.org/2000/svg" xmlns:xlink="http://www.w3.org/1999/xlink" xmlns:sketch="http://www.bohemiancoding.com/sketch/ns">
    <!-- Generator: Sketch 3.3 (11970) - http://www.bohemiancoding.com/sketch -->
    <title>A2d</title>
    <desc>Created with Sketch.</desc>
    <defs></defs>
    <g id="Page-1" stroke="none" stroke-width="1" fill="none" fill-rule="evenodd" sketch:type="MSPage">
        <g id="A2d" sketch:type="MSLayerGroup">
            <g id="A2a" sketch:type="MSShapeGroup">
                <path d="M132.279,10.148 C138.857,1.109 148.165,-1.082 157.478,1.657 C159.67,2.478 161.862,3.848 163.78,5.218 C165.696,6.862 167.063,8.231 168.164,10.148 L296.343,232.278 C296.886,233.098 298.536,235.837 299.357,238.852 C300.727,244.329 300.454,250.905 295.523,257.202 C290.594,263.502 284.568,265.694 278.542,265.694 L22.173,265.694 C16.694,265.419 10.944,264.598 4.642,256.655 C0.536,250.63 -0.561,243.779 1.908,237.207 C2.453,235.561 3.274,233.921 3.822,233.099 L4.094,232.279" id="Shape" fill="#000000"></path>
                <path d="M278.54,262.956 L22.17,262.956 C19.436,262.956 16.97,262.406 14.503,261.31 C12.035,260.214 9.848,258.572 8.205,256.655 C4.644,252.546 2.727,247.071 3.275,242.137 C3.823,239.4 4.917,236.936 5.465,235.566 C6.009,234.195 6.288,233.92 6.56,233.645 L134.747,11.518 C140.771,3.302 149.811,1.385 158.303,4.946 C159.946,5.766 161.586,6.863 162.682,7.958 C164.054,9.052 165.145,10.148 165.97,11.518 L293.879,233.646 C297.984,239.67 300.177,249.26 290.593,258.573 C286.759,261.586 282.65,262.956 278.54,262.956" id="Shape" fill="#FFFFFF"></path>
                <path d="M282.375,256.93 C284.841,256.107 287.034,255.014 289.222,251.998 C292.509,247.067 293.059,241.588 289.222,236.387 L161.312,14.257 C155.835,7.683 149.261,6.862 142.414,11.244 C141.319,12.065 140.223,12.888 139.401,14.257 L11.218,236.387 C7.93,241.042 7.383,246.247 11.218,251.998 C14.231,256.106 18.338,257.477 22.173,257.477 L278.54,257.748 C279.907,257.747 281.278,257.477 282.375,256.93" id="Shape" fill="#D9261C"></path>
                <path d="M51.754,226.802 L248.687,226.802 L150.084,56.163" id="Shape" fill="#FFFFFF"></path>
                <path d="M181.581,177.223 C181.306,182.156 179.663,187.907 172.542,192.29 C167.063,195.028 161.312,195.028 155.835,191.74 L125.706,169.006 L125.706,216.118 L115.846,211.187 L105.164,216.393 L105.164,162.432 C105.984,158.053 107.902,152.849 113.379,149.286 C120.228,144.902 127.349,144.632 134.196,148.74 L161.586,170.927 L161.586,132.033 L172.267,122.172 L181.581,132.033" id="Shape" fill="#000000"></path>
            </g>
            <g id="Dopravná_značka_E1-Copy-+-Rectangle-1-Copy" transform="translate(83.000000, 279.000000)" sketch:type="MSShapeGroup">
                <g id="Dopravná_značka_E1-Copy" transform="translate(26.000000, 41.000000)" fill="#1F1917">
                    <g id="layer1" transform="translate(0.570715, 0.013719)">
                        <path d="M0.493670167,44.021798 L21.9198228,44.021798 L21.9198228,53.2605554 L33.2395564,53.2605554 L33.2395564,43.8211025 L37.0242043,43.8211025 L37.5552452,33.1690762 L32.8607859,33.1690762 L32.8607859,0.741966835 L21.5410523,0.541606329 L21.7302646,33.3694367 L13.9714108,33.3694367 L19.2870697,7.68777494 L10.1150855,2.80227873" id="path3248"></path>
                        <path d="M81.6136787,53.2605554 L72.3700033,37.2384752 L81.8808972,19.2921904 L71.1828819,19.2921904 L66.7400787,28.8873273 L62.2969365,19.2921904 L51.5989213,19.2921904 L61.110327,37.2384752 L51.8661398,53.2605554 L62.5641688,53.2605554 L66.7400787,46.505798 L70.9165003,53.2605554" id="path3250"></path>
                    </g>
                </g>
                <path d="M3,12.0078247 L3,12.0078247 L3,124.992175 C3,129.970462 7.03081871,134 12.0078247,134 L124.992175,134 C129.970462,134 134,129.969181 134,124.992175 L134,12.0078247 C134,7.02953788 129.969181,3 124.992175,3 L12.0078247,3 C7.02953788,3 3,7.03081871 3,12.0078247 L3,12.0078247 Z M0,12.0078247 C0,5.37608626 5.37056236,0 12.0078247,0 L124.992175,0 C131.623914,0 137,5.37056236 137,12.0078247 L137,124.992175 C137,131.623914 131.629438,137 124.992175,137 L12.0078247,137 C5.37608626,137 0,131.629438 0,124.992175 L0,12.0078247 L0,12.0078247 Z" id="Shape" fill="#000000"></path>
            </g>
        </g>
    </g>
</svg>