<?xml version="1.0" encoding="utf-8"?>
<!-- Generator: Adobe Illustrator 15.0.0, SVG Export Plug-In . SVG Version: 6.00 Build 0)  -->
<!DOCTYPE svg PUBLIC "-//W3C//DTD SVG 1.1//EN" "http://www.w3.org/Graphics/SVG/1.1/DTD/svg11.dtd">
<svg version="1.1" id="Vrstva_1" xmlns="http://www.w3.org/2000/svg" xmlns:xlink="http://www.w3.org/1999/xlink" x="0px" y="0px"
	 width="300px" height="300px" viewBox="0 0 300 300" enable-background="new 0 0 300 300" xml:space="preserve">
<path fill-rule="evenodd" clip-rule="evenodd" d="M131.276,30.974c6.553-9.285,16.111-11.469,25.122-8.465
	c2.186,0.818,4.371,1.911,6.283,3.549c1.91,1.365,3.271,3.004,4.369,4.916l127.516,221.18c0.549,0.819,2.186,3.548,3.008,6.552
	c1.361,5.737,1.088,12.016-3.826,18.566c-4.916,6.007-10.922,8.192-16.654,8.192H21.505c-5.459-0.271-11.196-1.089-17.474-9.008
	c-4.096-6.007-5.189-12.836-2.733-19.117c0.548-1.912,1.366-3.548,1.911-4.366c0.273-0.819,0.548-0.819,0.548-0.819"/>
<path fill-rule="evenodd" clip-rule="evenodd" fill="#FFFFFF" d="M277.094,283.01H21.505c-2.729,0-5.185-0.818-7.645-1.912
	c-2.459-0.818-4.644-2.454-6.281-4.369c-3.548-4.094-5.459-9.557-4.641-14.745c0.271-2.459,1.367-4.913,1.911-6.556
	c0.819-1.363,0.819-1.636,1.092-1.91l127.79-221.179c6.007-8.464,15.022-10.375,23.484-6.553c1.643,0.82,3.277,1.639,4.641,3.003
	c1.096,1.092,2.186,2.186,3.008,3.55l127.516,221.179c3.826,6.007,6.285,15.566-3.549,24.852
	C285.01,281.643,281.188,283.01,277.094,283.01"/>
<path fill-rule="evenodd" clip-rule="evenodd" fill="#D9261C" d="M281.188,277.003c1.912-0.818,4.098-2.187,6.553-5.19
	c3.277-4.641,3.553-10.104,0-15.562L160.221,34.798c-5.459-6.286-12.015-7.374-18.84-3.003c-1.092,0.818-2.185,1.911-3.004,3.003
	l-127.8,221.453c-3.271,4.914-3.815,9.829,0,15.562c3,4.098,7.106,5.734,10.929,5.734h255.589
	C278.457,277.547,279.822,277.275,281.188,277.003"/>
<polyline fill-rule="evenodd" clip-rule="evenodd" fill="#FFFFFF" points="50.179,246.966 246.508,246.966 148.48,76.849 "/>
<path fill-rule="evenodd" clip-rule="evenodd" d="M132.917,141.564v94.746h-10.102v-96.111c3.543,0.273,7.095,0,10.648,0.273
	l33.857,5.736l43.965,55.97c-1.65,4.374-7.654,9.837-12.014,11.474l-54.069-44.236"/>
<path fill-rule="evenodd" clip-rule="evenodd" fill="#FFFFFF" d="M134.555,141.838l10.647,24.3
	c1.641-5.729,6.825-13.106,13.382-17.203c1.637-0.819,3.273-1.637,4.641-2.182"/>
<path fill-rule="evenodd" clip-rule="evenodd" fill="#FFFFFF" d="M169.506,187.712c1.092-4.646,4.641-10.652,10.922-13.66
	c1.912-0.814,3.822-1.633,5.734-1.903l-10.92-13.925c-5.191,1.637-11.744,5.458-16.111,12.284c-1.096,2.186-2.184,4.097-2.732,6.281
	"/>
<path fill-rule="evenodd" clip-rule="evenodd" fill="#FFFFFF" d="M192.443,206.552c1.092-3.822,4.914-9.011,9.828-10.922l1.91-0.541
	l-8.734-11.199c-4.098,1.088-9.561,4.91-12.285,10.373c-0.549,1.093-0.822,2.46-1.371,3.552"/>
</svg>
