<?xml version="1.0" encoding="utf-8"?>
<!-- Generator: Adobe Illustrator 15.0.0, SVG Export Plug-In . SVG Version: 6.00 Build 0)  -->
<!DOCTYPE svg PUBLIC "-//W3C//DTD SVG 1.1//EN" "http://www.w3.org/Graphics/SVG/1.1/DTD/svg11.dtd">
<svg version="1.1" id="Vrstva_1" xmlns="http://www.w3.org/2000/svg" xmlns:xlink="http://www.w3.org/1999/xlink" x="0px" y="0px"
	 width="300px" height="300px" viewBox="0 0 300 300" enable-background="new 0 0 300 300" xml:space="preserve">
<path fill-rule="evenodd" clip-rule="evenodd" d="M132.355,27.615c6.544-8.997,15.809-11.178,25.079-8.452
	c2.182,0.819,4.36,2.182,6.27,3.545c1.911,1.636,3.274,2.998,4.362,4.907l127.589,221.1c0.54,0.818,2.182,3.542,3.001,6.544
	c1.359,5.452,1.091,11.996-3.814,18.265c-4.908,6.271-10.908,8.453-16.904,8.453H22.761c-5.454-0.273-11.182-1.091-17.45-8.997
	c-4.088-5.997-5.179-12.818-2.725-19.356c0.544-1.639,1.362-3.275,1.909-4.09l0.273-0.818"/>
<path fill-rule="evenodd" clip-rule="evenodd" fill="#FFFFFF" d="M277.938,279.252H22.761c-2.729,0-5.184-0.548-7.635-1.639
	c-2.453-1.092-4.635-2.727-6.269-4.634c-3.547-4.09-5.454-9.542-4.91-14.451c0.547-2.724,1.635-5.178,2.181-6.544
	c0.547-1.36,0.821-1.637,1.091-1.909L134.808,28.977c6-8.177,14.995-10.087,23.445-6.542c1.633,0.819,3.272,1.91,4.364,2.999
	c1.359,1.091,2.454,2.182,3.268,3.543l127.319,221.098c4.092,5.999,6.269,15.544-3.271,24.812
	C286.115,277.885,282.027,279.252,277.938,279.252"/>
<path fill-rule="evenodd" clip-rule="evenodd" fill="#D9261C" d="M281.752,273.254c2.451-0.822,4.636-1.909,6.818-4.911
	c3.271-4.902,3.813-10.357,0-15.538l-127.315-221.1c-5.456-6.544-11.997-7.36-18.813-2.999c-1.091,0.819-2.182,1.636-3,2.999
	l-127.588,221.1c-3.269,4.636-3.817,9.813,0,15.538c3.002,4.089,7.092,5.452,10.908,5.452l255.177,0.276
	C279.311,274.071,280.661,273.795,281.752,273.254"/>
<polyline fill-rule="evenodd" clip-rule="evenodd" fill="#FFFFFF" points="51.656,243.534 247.401,243.534 149.53,73.96 "/>
<path fill-rule="evenodd" clip-rule="evenodd" d="M183.881,195.283c5.183,2.995,3.546,9.539-1.363,10.63
	c-3.268,1.092-7.907-3.545-6.271-6.813c0.547-3.001,4.637-5.181,7.094-3.817H183.881"/>
<polyline fill-rule="evenodd" clip-rule="evenodd" points="241.133,239.72 95.546,174.834 57.926,239.72 "/>
<path fill-rule="evenodd" clip-rule="evenodd" fill="#FFFFFF" d="M182.518,198.278c-2.455-1.907-5.181,4.364-0.816,4.637
	C183.609,202.915,185.243,199.642,182.518,198.278"/>
<path fill-rule="evenodd" clip-rule="evenodd" fill="#FFFFFF" d="M174.886,182.193c-2.457-1.636-5.449,4.363-0.816,4.636
	C175.977,186.829,177.609,183.557,174.886,182.193"/>
<polyline fill-rule="evenodd" clip-rule="evenodd" points="168.066,200.46 166.157,199.369 187.423,184.375 189.602,185.466 "/>
<g>
	<path d="M144.802,163.925l0.021,0.059l-9.235,20.042l-0.118,0.044l-4.526-2.086l-0.03-0.111l7.304-15.852l-5.004-1.442
		l-0.021-0.059l1.584-3.438c0.037-0.081,1.057,0.204,3.059,0.855L144.802,163.925z"/>
	<path d="M154.824,168.575l0.31,0.143c2.328,1.072,3.85,2.61,4.567,4.612c0.684,1.673,0.621,3.386-0.188,5.142l-0.198,0.43
		c-0.94,2.042-3.323,3.892-7.148,5.549l-2.506,1.305l6.031,2.778l-0.018,0.041c-1.646,2.205-2.568,3.382-2.767,3.529l-0.04-0.019
		l-13.496-6.267l0.019-0.041c3.151-1.49,6.607-3.252,10.368-5.287c2.322-1.035,3.784-1.947,4.387-2.734l0.627-1.046
		c0.512-1.11,0.296-2.22-0.648-3.328c-0.322-0.312-0.646-0.542-0.969-0.69c-1.218-0.561-2.536-0.408-3.955,0.457
		c-0.504,0.268-0.845,0.523-1.021,0.768l-0.041-0.019c-0.125-0.058-1.036-1.347-2.73-3.864c1.764-1.543,3.685-2.308,5.764-2.295
		C152.486,167.78,153.705,168.06,154.824,168.575z"/>
</g>
<path fill-rule="evenodd" clip-rule="evenodd" d="M176.382,177.964c5.181,2.995,3.548,9.539-1.363,10.627
	c-3.27,1.095-7.904-3.545-6.271-6.813c0.548-3.003,4.639-5.184,7.093-3.813H176.382"/>
<path fill-rule="evenodd" clip-rule="evenodd" fill="#FFFFFF" d="M175.019,180.959c-2.454-1.908-5.181,4.362-0.818,4.637
	C176.109,185.596,177.742,182.319,175.019,180.959"/>
</svg>
