<?xml version="1.0" encoding="utf-8"?>
<!-- Generator: Adobe Illustrator 15.0.0, SVG Export Plug-In . SVG Version: 6.00 Build 0)  -->
<!DOCTYPE svg PUBLIC "-//W3C//DTD SVG 1.1//EN" "http://www.w3.org/Graphics/SVG/1.1/DTD/svg11.dtd">
<svg version="1.1" id="Vrstva_1" xmlns="http://www.w3.org/2000/svg" xmlns:xlink="http://www.w3.org/1999/xlink" x="0px" y="0px"
	 width="300px" height="300px" viewBox="0 0 300 300" enable-background="new 0 0 300 300" xml:space="preserve">
<path fill-rule="evenodd" clip-rule="evenodd" d="M132.75,27.002c6.555-9.01,15.834-11.194,25.117-8.463
	c2.186,0.818,4.367,2.184,6.277,3.549c1.914,1.639,3.281,3.003,4.369,4.914l127.775,221.42c0.541,0.818,2.186,3.547,3.004,6.555
	c1.361,5.459,1.091,12.014-3.822,18.29c-4.915,6.28-10.924,8.465-16.931,8.465H22.998c-5.462-0.274-11.199-1.093-17.479-9.01
	c-4.092-6.007-5.185-12.835-2.726-19.386c0.544-1.641,1.363-3.277,1.911-4.096l0.274-0.818"/>
<path fill-rule="evenodd" clip-rule="evenodd" fill="#FFFFFF" d="M278.545,278.999H22.998c-2.733,0-5.188-0.545-7.647-1.64
	c-2.455-1.09-4.64-2.727-6.273-4.64c-3.555-4.092-5.466-9.555-4.922-14.469c0.548-2.732,1.641-5.188,2.185-6.555
	c0.548-1.363,0.822-1.637,1.092-1.911l127.774-221.42c6.006-8.189,15.016-10.1,23.478-6.552c1.642,0.82,3.278,1.912,4.37,3.003
	c1.363,1.092,2.46,2.184,3.278,3.549l127.5,221.42c4.095,6.007,6.28,15.562-3.278,24.848
	C286.734,277.633,282.64,278.999,278.545,278.999"/>
<path fill-rule="evenodd" clip-rule="evenodd" fill="#D9261C" d="M282.366,272.993c2.455-0.818,4.64-1.91,6.825-4.914
	c3.276-4.914,3.821-10.376,0-15.561L161.689,31.096c-5.462-6.553-12.013-7.371-18.838-3.003c-1.091,0.818-2.185,1.639-3.003,3.003
	L12.074,252.519c-3.273,4.64-3.822,9.828,0,15.561c3.007,4.096,7.099,5.459,10.924,5.459l255.547,0.273
	C279.911,273.812,281.273,273.538,282.366,272.993"/>
<polyline fill-rule="evenodd" clip-rule="evenodd" fill="#FFFFFF" points="53.304,243.235 249.604,243.235 151.317,73.143 "/>
<path fill-rule="evenodd" clip-rule="evenodd" d="M142.033,166.519c2.455-0.823,6.282-0.548,7.648,2.729
	c1.362,2.729-0.275,7.1-3.826,7.918c-3.822,1.64-9.283-5.188-5.731-9.01C140.667,167.337,141.489,166.792,142.033,166.519"/>
<path fill-rule="evenodd" clip-rule="evenodd" d="M159.509,170.884c2.186-0.818,6.007-0.544,7.368,3.003
	c1.367,2.46-0.272,7.1-3.821,7.644c-3.821,1.642-9.283-5.184-5.731-9.005C158.143,171.702,158.686,171.429,159.509,170.884"/>
<polyline fill-rule="evenodd" clip-rule="evenodd" points="152.954,186.175 151.043,187.264 153.228,161.327 155.412,160.237 "/>
<path fill-rule="evenodd" clip-rule="evenodd" fill="#FFFFFF" d="M143.399,169.244c-3.822,1.909,1.912,7.373,3.548,3.006
	C147.221,170.61,145.036,168.429,143.399,169.244"/>
<path fill-rule="evenodd" clip-rule="evenodd" fill="#FFFFFF" d="M160.598,173.613c-3.822,2.186,1.91,7.368,3.558,3.004
	C164.419,174.976,162.237,172.795,160.598,173.613"/>
<polyline fill-rule="evenodd" clip-rule="evenodd" points="58.488,238.32 204.278,173.344 241.957,238.32 "/>
<g>
	<path d="M113.205,179.928l0.06,0.021l9.516,19.946l-0.042,0.119l-4.505,2.149l-0.105-0.049l-7.526-15.775l-4.314,2.929
		l-0.059-0.022l-1.633-3.422c-0.039-0.08,0.834-0.682,2.617-1.806L113.205,179.928z"/>
	<path d="M123.205,175.19l0.308-0.146c2.317-1.105,4.476-1.293,6.477-0.563c1.726,0.545,3.005,1.69,3.839,3.438l0.204,0.428
		c0.969,2.032,0.867,5.051-0.307,9.059l-0.602,2.765l6.003-2.864l0.019,0.04c0.644,2.68,0.959,4.144,0.945,4.391l-0.04,0.019
		l-13.468,6.376l-0.019-0.04c0.87-3.38,1.727-7.169,2.568-11.367c0.691-2.452,0.926-4.161,0.705-5.129l-0.402-1.153
		c-0.527-1.105-1.521-1.649-2.979-1.633c-0.446,0.05-0.831,0.15-1.151,0.304c-1.212,0.578-1.939,1.691-2.183,3.339
		c-0.116,0.56-0.137,0.985-0.063,1.277l-0.041,0.02c-0.125,0.059-1.699-0.064-4.724-0.373c-0.058-2.347,0.584-4.315,1.926-5.907
		C121.096,176.481,122.09,175.723,123.205,175.19z"/>
</g>
</svg>
