<?xml version="1.0" encoding="utf-8"?>
<!-- Generator: Adobe Illustrator 15.0.0, SVG Export Plug-In . SVG Version: 6.00 Build 0)  -->
<!DOCTYPE svg PUBLIC "-//W3C//DTD SVG 1.1//EN" "http://www.w3.org/Graphics/SVG/1.1/DTD/svg11.dtd">
<svg version="1.1" id="Vrstva_1" xmlns="http://www.w3.org/2000/svg" xmlns:xlink="http://www.w3.org/1999/xlink" x="0px" y="0px"
	 width="300px" height="300px" viewBox="0 0 300 300" enable-background="new 0 0 300 300" xml:space="preserve">
<path fill-rule="evenodd" clip-rule="evenodd" d="M132.431,24.449c6.542-8.994,15.808-11.174,25.073-8.449
	c2.18,0.817,4.357,2.179,6.265,3.543c1.91,1.633,3.276,2.998,4.365,4.905L295.682,245.48c0.544,0.821,2.182,3.545,3.002,6.543
	c1.355,5.449,1.087,11.992-3.814,18.261c-4.91,6.271-10.905,8.446-16.904,8.446H22.869c-5.453-0.269-11.175-1.09-17.448-8.993
	c-4.083-5.996-5.174-12.808-2.721-19.349c0.545-1.636,1.362-3.271,1.9-4.087l0.281-0.821"/>
<path fill-rule="evenodd" clip-rule="evenodd" fill="#FFFFFF" d="M277.967,276.007H22.865c-2.721,0-5.179-0.548-7.627-1.638
	c-2.457-1.091-4.636-2.724-6.268-4.632c-3.547-4.088-5.454-9.536-4.905-14.445c0.541-2.727,1.629-5.177,2.179-6.539
	c0.542-1.364,0.819-1.639,1.09-1.912L134.882,25.81c5.996-8.175,14.989-10.083,23.442-6.54c1.633,0.817,3.268,1.907,4.361,2.998
	c1.357,1.089,2.447,2.18,3.267,3.542l127.275,221.031c4.088,5.996,6.27,15.537-3.269,24.805
	C286.145,274.643,282.058,276.007,277.967,276.007"/>
<path fill-rule="evenodd" clip-rule="evenodd" fill="#D9261C" d="M281.784,270.011c2.45-0.821,4.635-1.906,6.814-4.908
	c3.269-4.901,3.816-10.354,0-15.534L161.318,28.537c-5.453-6.542-11.99-7.359-18.802-2.998c-1.092,0.816-2.182,1.636-3,2.998
	L11.968,249.568c-3.279,4.638-3.817,9.813,0,15.534c2.998,4.087,7.085,5.452,10.901,5.452l255.098,0.271
	C279.332,270.825,280.696,270.555,281.784,270.011"/>
<polyline fill-rule="evenodd" clip-rule="evenodd" fill="#FFFFFF" points="52.304,240.575 247.984,240.575 150.147,71.052 "/>
<polyline fill-rule="evenodd" clip-rule="evenodd" points="170.589,213.594 170.589,184.705 152.054,158.541 152.054,132.92 
	172.223,132.92 172.223,154.996 190.483,182.523 190.483,229.674 170.589,229.674 "/>
<polyline fill-rule="evenodd" clip-rule="evenodd" points="120.708,132.649 120.708,229.674 140.877,229.674 140.877,132.649 "/>
</svg>
