<?xml version="1.0" encoding="utf-8"?>
<!-- Generator: Adobe Illustrator 15.0.0, SVG Export Plug-In . SVG Version: 6.00 Build 0)  -->
<!DOCTYPE svg PUBLIC "-//W3C//DTD SVG 1.1//EN" "http://www.w3.org/Graphics/SVG/1.1/DTD/svg11.dtd">
<svg version="1.1" id="Vrstva_1" xmlns="http://www.w3.org/2000/svg" xmlns:xlink="http://www.w3.org/1999/xlink" x="0px" y="0px"
	 width="300px" height="300px" viewBox="0 0 300 300" enable-background="new 0 0 300 300" xml:space="preserve">
<path fill-rule="evenodd" clip-rule="evenodd" d="M201.9,288.191c-44.119,14.986-87.954,11.879-131.789-15.554
	c-11.028-7.073-23.188-17.537-32.804-29.413C3.089,200.239-2.285,156.97,7.047,113.984c6.505-26.018,18.665-52.602,47.793-78.336
	C96.129,1.993,137.421-4.51,178.709,2.559c27.998,5.656,56.563,17.251,83.992,47.228c34.786,41.291,41.288,82.296,35.351,123.303
	c-5.654,29.41-17.25,59.107-49.773,88.232C232.725,274.333,217.171,282.533,201.9,288.191"/>
<path fill-rule="evenodd" clip-rule="evenodd" fill="#FFFFFF" d="M200.769,285.648c-44.402,14.986-88.802,11.875-133.201-18.102
	c-14.422-9.899-30.828-27.149-39.593-41.855C1.39,181.009-0.59,136.326,17.228,91.925c7.637-18.099,19.232-36.48,39.309-54.016
	C97.261,4.538,137.701-1.684,178.142,5.104c27.434,5.656,55.431,16.969,82.58,46.662c33.936,40.442,40.44,80.601,34.503,121.042
	c-5.374,28.845-16.686,57.974-48.925,86.255C231.31,272.069,216.039,279.99,200.769,285.648"/>
<path fill-rule="evenodd" clip-rule="evenodd" fill="#D9261C" d="M203.312,278.575c17.534-7.069,35.635-17.817,52.604-36.762
	c33.087-38.745,39.593-77.49,33.935-116.236c-5.09-27.713-16.121-55.71-46.662-83.144C202.748,9.064,162.308,3.69,121.867,11.326
	c-24.89,5.939-50.341,16.969-74.943,43.551C14.117,93.622,7.611,132.367,13.269,171.11c5.09,27.715,15.838,55.996,46.662,83.426
	c40.44,33.092,80.881,38.745,121.322,30.828C188.605,283.949,195.959,281.686,203.312,278.575"/>
<path fill-rule="evenodd" clip-rule="evenodd" fill="#FFFFFF" d="M186.91,246.619c14.139-5.374,28.845-13.574,42.704-29.129
	c27.433-32.805,30.544-65.329,22.06-98.134c-5.091-16.401-13.575-33.369-31.676-49.773C187.194,43,154.387,39.607,121.583,48.655
	c-16.402,5.092-33.372,13.575-49.493,32.24c-26.298,32.805-29.409,65.611-20.076,98.417c5.09,16.403,13.854,33.089,32.52,49.207
	c33.091,25.737,65.895,28.845,98.702,19.232C184.363,247.467,185.495,246.899,186.91,246.619"/>
<path fill-rule="evenodd" clip-rule="evenodd" d="M230.462,172.808c-2.264-5.939-10.464-13.575-16.686-15.272
	c-0.848-1.697-1.979-3.11-2.264-4.808c-0.28-1.979,1.979-2.827,2.547-5.656c-0.283-1.131-1.131-2.545-1.695-3.676l-14.426,2.829
	c0.283-2.263,0-4.524-0.564-6.787l3.675-3.111c-7.633-9.333-14.423-18.949-22.34-28.281c-3.11-2.545-6.222-2.827-9.332-3.958
	c-1.132-1.697-1.415-3.111,0.563-4.808c2.264-5.372,1.132-12.161-5.938-16.402c-6.222-2.829-12.727-3.111-18.381,4.806
	c-1.979,3.113-2.547,6.506-1.699,9.898l4.242,2.263c-0.28,1.697,0.567,3.676,1.699,5.656c-0.852,0.566,0.28,1.697,1.412,1.414
	c3.11,2.829,6.505,2.829,9.616,2.263c2.547,3.11,0,7.069-1.132,10.464c-1.695,3.676-4.242,7.635-8.201,11.03l-18.101,5.938
	l-3.391-0.565l-4.242-4.807l-20.644,0.564l5.37,16.685l-2.543,8.485c-9.616-0.848-19.512,0.565-28.281,11.029l5.374,4.809
	c-6.221,9.332-6.505,19.513,5.374,28.279c9.333,5.092,19.229,4.808,27.713-6.222c0.848-1.132,1.416-2.262,1.695-3.393l6.222,2.827
	c4.81-11.028,4.526-22.624-8.48-32.804c-1.7-1.132-3.395-1.981-5.09-2.829l2.827-8.2c1.695,0.565,3.395,1.129,5.09,1.413
	l17.817,25.452c0,4.524,1.131,9.332,3.395,14.141c3.111,2.827,6.501,3.11,9.613,2.827l0.283,0.85l7.917-0.284l0.852-0.565
	l27.714-2.546c6.222,8.203,13.858,10.465,20.928,9.617c5.09-0.85,11.876-3.961,15.271-11.03c2.263-4.524,1.979-9.051,2.263-13.574
	l4.526-2.546"/>
<path fill-rule="evenodd" clip-rule="evenodd" fill="#FFFFFF" d="M197.938,179.595c0.567-1.131,1.131-2.263,1.982-3.395l3.107,3.677
	c-1.412,2.263,0,6.222,3.679,6.222c2.826,0.284,5.373-4.242,3.395-6.504c-0.852-1.415-1.979-1.697-3.111-1.697
	c-1.131-1.413-2.263-2.545-3.395-3.677c3.675-1.697,9.333,0,11.312,5.091c1.416,3.676-0.563,9.05-5.374,10.745
	c-3.674,1.132-8.2,1.132-11.312-4.806C197.374,183.271,197.374,181.29,197.938,179.595"/>
<path fill-rule="evenodd" clip-rule="evenodd" fill="#FFFFFF" d="M105.746,178.464c5.658,3.958,5.938,10.464-0.284,14.988
	c-4.242,1.979-9.048,2.263-13.007-3.677c-1.979-4.242-0.568-9.898,4.806-12.161c1.699-0.564,3.111-0.848,4.526-0.564l-1.416,4.807
	c-3.958,0.85-3.958,7.637,1.131,7.353c2.263,0.284,4.81-3.958,2.547-6.222"/>
<path fill-rule="evenodd" clip-rule="evenodd" fill="#FFFFFF" d="M139.117,162.909c3.395,1.414,6.785,2.262,10.18,2.545
	c-0.848,2.545-0.564,5.091,1.132,7.636l-8.765,1.979l-14.143-20.361c0-0.848-1.131-1.979,0-2.827
	c1.979,1.131,3.679,4.242,5.938,6.222C135.442,159.799,137.137,161.496,139.117,162.909"/>
<path fill-rule="evenodd" clip-rule="evenodd" fill="#FFFFFF" d="M145.054,143.679l-0.28-0.284l1.695-1.695l8.765-1.981
	l11.032-8.201l7.353,6.505c-5.09,2.545-10.18,5.656-14.99,11.311C154.106,147.355,149.58,145.374,145.054,143.679"/>
</svg>
