<?xml version="1.0" encoding="utf-8"?>
<!-- Generator: Adobe Illustrator 15.0.0, SVG Export Plug-In . SVG Version: 6.00 Build 0)  -->
<!DOCTYPE svg PUBLIC "-//W3C//DTD SVG 1.1//EN" "http://www.w3.org/Graphics/SVG/1.1/DTD/svg11.dtd">
<svg version="1.1" id="Vrstva_1" xmlns="http://www.w3.org/2000/svg" xmlns:xlink="http://www.w3.org/1999/xlink" x="0px" y="0px"
	 width="300px" height="450px" viewBox="0 0 300 450" enable-background="new 0 0 300 450" xml:space="preserve">
<path fill-rule="evenodd" clip-rule="evenodd" fill="#FFFFFF" d="M4.174,19.039c0-1.911,0.383-3.83,1.116-5.596
	c0.73-1.767,1.814-3.389,3.168-4.744C9.81,7.344,11.436,6.26,13.202,5.53c1.767-0.733,3.681-1.116,5.596-1.116H283.15
	c1.915,0,3.83,0.383,5.597,1.116c1.767,0.73,3.393,1.814,4.743,3.168c1.355,1.355,2.438,2.977,3.169,4.744
	c0.733,1.767,1.116,3.685,1.116,5.596v411.193c0,1.915-0.383,3.829-1.116,5.596c-0.73,1.771-1.813,3.393-3.169,4.744
	c-1.351,1.354-2.977,2.438-4.743,3.172c-1.767,0.729-3.682,1.112-5.597,1.112H18.798c-1.915,0-3.83-0.383-5.596-1.112
	c-1.767-0.733-3.393-1.817-4.744-3.172c-1.354-1.352-2.438-2.974-3.168-4.744c-0.733-1.767-1.116-3.681-1.116-5.596V19.039z"/>
<path fill="none" stroke="#000000" stroke-width="0.216" stroke-linejoin="round" stroke-miterlimit="10" d="M4.174,19.039
	c0-1.911,0.383-3.83,1.116-5.596c0.73-1.767,1.814-3.389,3.168-4.744C9.81,7.344,11.436,6.26,13.202,5.53
	c1.767-0.733,3.681-1.116,5.596-1.116H283.15c1.915,0,3.83,0.383,5.597,1.116c1.767,0.73,3.393,1.814,4.743,3.168
	c1.355,1.355,2.438,2.977,3.169,4.744c0.733,1.767,1.116,3.685,1.116,5.596v411.193c0,1.915-0.383,3.829-1.116,5.596
	c-0.73,1.771-1.813,3.393-3.169,4.744c-1.351,1.354-2.977,2.438-4.743,3.172c-1.767,0.729-3.682,1.112-5.597,1.112H18.798
	c-1.915,0-3.83-0.383-5.596-1.112c-1.767-0.733-3.393-1.817-4.744-3.172c-1.354-1.352-2.438-2.974-3.168-4.744
	c-0.733-1.767-1.116-3.681-1.116-5.596V19.039z"/>
<path fill-rule="evenodd" clip-rule="evenodd" fill="#291770" d="M15.922,430.231V19.039C15.818,18.11,16.8,16.64,17.7,16.383
	c0.347-0.145,0.722-0.217,1.098-0.217H283.15c0.929-0.108,2.399,0.874,2.655,1.77c0.145,0.351,0.221,0.726,0.221,1.102v411.193
	c0.104,0.929-0.878,2.398-1.773,2.655c-0.351,0.145-0.727,0.221-1.103,0.221H18.798c-0.929,0.104-2.399-0.875-2.655-1.774
	C15.999,430.986,15.922,430.607,15.922,430.231"/>
<polyline fill-rule="evenodd" clip-rule="evenodd" fill="#FFFFFF" points="162.943,99.534 162.943,40.936 147.496,40.936 
	147.496,99.534 "/>
<polyline fill-rule="evenodd" clip-rule="evenodd" fill="#FFFFFF" points="161.347,417.037 161.347,358.172 145.631,358.172 
	145.631,417.037 "/>
<polyline fill-rule="evenodd" clip-rule="evenodd" fill="#FFFFFF" points="161.347,316.621 161.347,258.019 145.631,258.019 
	145.631,316.621 "/>
<polyline fill-rule="evenodd" clip-rule="evenodd" fill="#FFFFFF" points="162.146,205.28 162.146,146.414 146.43,146.414 
	146.43,205.28 "/>
<polyline fill-rule="evenodd" clip-rule="evenodd" fill="#FFFFFF" points="223.457,210.865 246.099,183.693 229.852,177.57 
	279.394,169.846 279.661,219.387 269.538,203.405 223.457,258.275 223.457,396.344 192.828,396.344 192.828,99.357 176.311,105.217 
	209.342,67.128 241.571,105.217 223.457,99.357 "/>
<path fill-rule="evenodd" clip-rule="evenodd" fill="#FFFFFF" d="M83.438,71.712l-49.01-8.255l-1.066,50.34l9.057-15.181
	l54.975,65.6c-0.473-0.155-0.954-0.296-1.445-0.43c-3.739-1.008-7.901-1.369-12.272-1.315c-4.375,0.054-8.967,0.524-12.865,1.514
	c-3.898,0.986-7.103,2.497-10.43,4.718c-3.324,2.222-6.77,5.155-9.657,8.306c-2.883,3.15-5.206,6.521-6.962,10.126
	c-1.755,3.605-2.94,7.45-3.732,12.63c-0.791,5.184-1.004,11.709-0.997,18.201l0.105,30.886l-20.308-3.845l35.395,56.721
	l35.394-56.724l-20.217,3.836l-0.116-31.022c-0.004-4.086,0.163-8.179,0.383-10.958c0.22-2.782,0.499-4.249,0.885-5.419
	c0.386-1.17,0.878-2.041,1.676-3.045c0.802-1.001,1.908-2.128,2.912-3.006c1.962-1.702,3.461-2.471,6.099-2.691
	c2.785-0.213,5.82,0.021,7.594,0.802c0.979,0.405,1.832,0.972,2.814,1.828c0.983,0.86,2.095,2.005,2.901,3.009
	c0.81,1.008,1.312,1.875,1.702,3.017c0.394,1.142,0.672,2.558,0.896,5.373c0.228,2.818,0.401,7.03,0.401,11.235l0.007,177.856
	h30.629v-35.998h0.007v-93.957h0.159l-0.022-47.897c-0.003-2.677-0.043-5.365-0.145-7.959V153.22L65.858,78.905"/>
</svg>
