<?xml version="1.0" encoding="utf-8"?>
<!-- Generator: Adobe Illustrator 15.0.0, SVG Export Plug-In . SVG Version: 6.00 Build 0)  -->
<!DOCTYPE svg PUBLIC "-//W3C//DTD SVG 1.1//EN" "http://www.w3.org/Graphics/SVG/1.1/DTD/svg11.dtd">
<svg version="1.1" id="Vrstva_1" xmlns="http://www.w3.org/2000/svg" xmlns:xlink="http://www.w3.org/1999/xlink" x="0px" y="0px"
	 width="300px" height="450px" viewBox="0 0 300 450" enable-background="new 0 0 300 450" xml:space="preserve">
<rect x="13.5" y="13.5" fill="#FFFFFF" stroke="#000000" stroke-miterlimit="10" width="274" height="421.353"/>
<polyline fill="#858282" points="97.221,434.853 97.121,308.768 8.793,184.06 14.274,430.353 "/>
<polyline fill="#858282" points="223.163,8.845 223.163,156.239 289.66,239.678 295.307,13.487 "/>
<path d="M143.017,98.472l29.941-40.011l29.681,40.011H185.15l0.266,72.873c0.527,7.684,1.057,15.368,4.504,23.318
	c3.441,7.946,10.333,15.368,16.428,23.581l47.17,66.512c5.03,7.421,10.599,14.309,14.308,21.991
	c3.709,7.95,6.096,16.433,8.216,24.911v65.185h-22.79v-47.168c-0.267-7.685-0.53-15.368-3.181-22.786
	c-2.648-7.156-7.418-14.312-12.453-21.197l-55.114-77.377c-5.567-7.949-11.397-15.899-15.106-25.438
	c-3.441-9.539-5.297-20.403-6.89-31.53V98.472"/>
<path d="M34.979,98.68l29.942-40.011l29.68,40.011H77.112l0.263,72.873c0.532,7.684,0.798,15.368,4.507,23.318
	c3.443,7.95,10.333,15.368,16.428,23.581l47.168,66.511c5.031,7.422,10.599,14.309,14.308,21.992
	c3.709,7.95,6.096,16.432,8.213,24.91v65.186h-22.787v-47.169c-0.266-7.684-0.532-15.368-3.181-22.786
	c-2.649-7.154-7.418-14.312-12.454-21.197L74.46,228.521c-5.563-7.949-11.393-15.899-15.102-25.438s-5.301-20.403-6.89-31.531V98.68
	"/>
<line fill="none" stroke="#1F1A17" stroke-width="2.126" stroke-miterlimit="10" x1="210.443" y1="437.469" x2="210.443" y2="396.311"/>
<line fill="none" stroke="#1F1A17" stroke-width="2.126" stroke-miterlimit="10" x1="207.001" y1="374.318" x2="207.001" y2="327.416"/>
<line fill="none" stroke="#1F1A17" stroke-width="2.126" stroke-miterlimit="10" x1="119.558" y1="185.915" x2="119.558" y2="139.278"/>
<line fill="none" stroke="#1F1A17" stroke-width="2.126" stroke-miterlimit="10" x1="119.558" y1="113.578" x2="119.558" y2="66.675"/>
<line fill="none" stroke="#1F1A17" stroke-width="2.126" stroke-miterlimit="10" x1="119.558" y1="38.322" x2="119.558" y2="4.671"/>
<line fill="none" stroke="#1F1A17" stroke-width="2.126" stroke-miterlimit="10" x1="133.866" y1="207.645" x2="154.007" y2="239.973"/>
<line fill="none" stroke="#1F1A17" stroke-width="2.126" stroke-miterlimit="10" x1="172.818" y1="268.854" x2="192.959" y2="301.184"/>
<path d="M15.248,22.154c0.004-3.5,0.194-4.798,3.928-4.774l262.646-1.224c0.377,0,0.762,0.077,1.113,0.223
	c0.353,0.146,0.676,0.361,0.944,0.632c0.272,0.271,0.489,0.593,0.634,0.945c0.146,0.353,0.223,0.735,0.223,1.116v408.959
	c0,0.381-0.075,0.762-0.223,1.114c-0.145,0.354-0.359,0.679-0.634,0.947c-0.271,0.271-0.593,0.485-0.944,0.633
	c-0.353,0.145-0.736,0.224-1.117,0.224H18.954c-0.384,0-0.766-0.079-1.118-0.224c-0.352-0.146-0.676-0.362-0.945-0.633
	c-0.273-0.27-0.489-0.593-0.632-0.947c-0.147-0.354-0.223-0.733-0.223-1.114 M4.351,19.072L4.351,19.072v408.959
	c0,1.912,0.385,3.824,1.114,5.585c0.729,1.769,1.812,3.386,3.163,4.736c1.352,1.352,2.972,2.438,4.737,3.166
	c1.765,0.729,3.677,1.11,5.589,1.11h262.869c1.907,0,3.819-0.381,5.585-1.11c1.765-0.729,3.386-1.814,4.736-3.166
	c1.352-1.352,2.434-2.969,3.162-4.736c0.733-1.761,1.114-3.673,1.114-5.585V19.072c0-1.91-0.381-3.821-1.114-5.585
	c-0.729-1.766-1.812-3.385-3.162-4.737c-1.352-1.351-2.973-2.435-4.736-3.165c-1.766-0.731-3.678-1.112-5.59-1.112H18.954
	c-1.912,0-3.824,0.381-5.589,1.112C11.6,6.315,9.979,7.399,8.628,8.75c-1.351,1.352-2.433,2.971-3.163,4.737
	C4.736,15.251,4.358,17.162,4.351,19.072z"/>
</svg>
