<?xml version="1.0" encoding="utf-8"?>
<!-- Generator: Adobe Illustrator 15.0.0, SVG Export Plug-In . SVG Version: 6.00 Build 0)  -->
<!DOCTYPE svg PUBLIC "-//W3C//DTD SVG 1.1//EN" "http://www.w3.org/Graphics/SVG/1.1/DTD/svg11.dtd">
<svg version="1.1" id="Vrstva_1" xmlns="http://www.w3.org/2000/svg" xmlns:xlink="http://www.w3.org/1999/xlink" x="0px" y="0px"
	 width="300px" height="300px" viewBox="0 0 300 300" enable-background="new 0 0 300 300" xml:space="preserve">
<path fill-rule="evenodd" clip-rule="evenodd" d="M195.768,290.192c-43.561,13.212-87.119,9.556-130.398-19.672
	c-14.612-10.116-31.193-27.54-40.187-42.432C-1.797,182.844-3.764,137.595,14.222,92.35c7.869-18.268,19.392-36.815,40.188-54.801
	C95.439,4.107,136.471-2.357,177.502,4.669c27.817,5.621,55.925,17.141,83.465,47.212c34.568,40.749,41.028,81.498,35.128,122.531
	c-5.622,29.225-17.141,58.734-49.46,87.398C229.493,276.143,212.63,284.856,195.768,290.192"/>
<path fill-rule="evenodd" clip-rule="evenodd" fill="#FFFFFF" d="M194.925,287.665c-42.718,12.926-85.434,9.274-128.149-19.39
	c-14.334-9.838-30.353-27.262-39.064-41.594C1.014,182.279-0.953,137.877,16.751,93.475c7.869-17.988,19.112-36.253,39.344-53.676
	c40.188-33.162,80.656-39.345,120.842-32.6c27.262,5.62,55.083,16.861,82.063,46.369c33.722,40.187,40.187,80.093,34.286,120.28
	c-5.341,28.664-16.863,57.61-48.622,85.996C228.083,273.894,211.506,282.325,194.925,287.665"/>
<path fill-rule="evenodd" clip-rule="evenodd" fill="#291770" d="M197.452,280.919c19.111-7.025,38.224-17.984,56.771-38.221
	c32.88-38.502,39.345-77,33.722-115.501c-5.058-27.822-16.021-55.644-46.369-82.903c-40.19-33.162-80.373-38.502-120.562-30.913
	c-24.73,5.9-50.023,16.861-74.473,43.278c-32.881,38.5-39.344,77.282-33.724,115.786c5.058,27.536,16.019,55.361,46.37,82.618
	c40.188,33.162,80.375,38.784,120.564,30.913C185.651,284.574,191.552,282.886,197.452,280.919"/>
<polyline fill-rule="evenodd" clip-rule="evenodd" fill="#FFFFFF" points="223.311,149.68 238.764,119.047 262.373,209.541 
	171.879,185.931 202.514,170.196 151.365,129.445 100.498,170.196 131.13,185.931 40.358,209.541 63.964,119.047 79.703,149.68 
	151.365,60.593 "/>
</svg>
