<?xml version="1.0" encoding="utf-8"?>
<!-- Generator: Adobe Illustrator 16.0.0, SVG Export Plug-In . SVG Version: 6.00 Build 0)  -->
<!DOCTYPE svg PUBLIC "-//W3C//DTD SVG 1.1//EN" "http://www.w3.org/Graphics/SVG/1.1/DTD/svg11.dtd">
<svg version="1.1" id="Layer_1" xmlns="http://www.w3.org/2000/svg" xmlns:xlink="http://www.w3.org/1999/xlink" x="0px" y="0px"
	 width="482.7px" height="622.7px" viewBox="0 0 482.7 622.7" enable-background="new 0 0 482.7 622.7" xml:space="preserve">
<path fill="#FFFFFF" d="M242.1,617.6C242.1,617.6,242.1,617.6,242.1,617.6c77.2-0.1,154.3-0.1,231.5-0.1c1.2,0,2.5-0.4,3.7-0.6
	c-1-0.7-2-1.6-3.1-2.2c-19.1-10.5-38.3-20.9-57.3-31.6c-2.1-1.2-4.2-3.8-4.9-6.1c-18.1-64.2-36.1-128.4-54.1-192.6
	c-34.5-122.8-69-245.5-103.6-368.3C252.5,9.7,247.9,6,241.9,6c-6,0-10.2,3.4-12,9.9c-23.7,83.7-47.4,167.3-71,251
	c-29.1,103.2-58.1,206.4-87.4,309.6c-0.8,2.9-3.4,6.1-6.1,7.6c-17.9,10.3-36,20.1-54.1,30.1c-1.4,0.8-2.6,1.8-4,2.8
	c1.6,0.2,3.1,0.6,4.7,0.6C88.7,617.7,165.4,617.6,242.1,617.6z"/>
<path fill-rule="evenodd" clip-rule="evenodd" fill="#322522" d="M242.1,617.6c-76.7,0-153.3,0-230,0c-1.6,0-3.1-0.4-4.7-0.6
	c1.3-0.9,2.6-2,4-2.8c18-10,36.2-19.9,54.1-30.1c2.6-1.5,5.2-4.7,6.1-7.6c29.3-103.2,58.3-206.4,87.4-309.6
	c23.6-83.7,47.3-167.3,71-251c1.8-6.4,5.9-9.9,12-9.9c6,0,10.6,3.7,12.4,10.1c34.5,122.8,69.1,245.5,103.6,368.3
	c18,64.2,35.9,128.4,54.1,192.6c0.7,2.4,2.8,4.9,4.9,6.1c19,10.7,38.2,21.1,57.3,31.6c1.1,0.6,2.1,1.5,3.1,2.2
	c-1.2,0.2-2.5,0.6-3.7,0.6C396.4,617.6,319.2,617.6,242.1,617.6C242.1,617.6,242.1,617.6,242.1,617.6z M203.4,157.8
	c-1.5,1.4-3.8,2.5-4.3,4.1c-7.2,24.7-14.1,49.5-21,74.3c-2.8,10.2-5.4,20.5-8.1,30.8c-3.5,12.5-7,25.1-10.6,37.6
	c-3.8,13.2-7.7,26.3-11.4,39.4c-3.8,13.3-7.5,26.6-11.1,39.9c-2.5,9.3-4.9,18.6-7.4,28c-0.6,1.2-1.4,2.3-1.8,3.5
	c-9.3,33.1-18.6,66.3-28,99.4c-1.3,4.7,1.9,3.2,3.7,3.2c92.1,0,184.3,0,276.4,0.1c4.3,0,4.5-1.2,3.5-4.9
	c-8.4-29.4-16.6-58.9-24.9-88.3c-1.2-4.4-2.9-8.7-4.4-13c0-0.8,0.3-1.7,0.1-2.5c-3.5-12.7-7.2-25.4-10.7-38
	c-3-10.8-6.1-21.5-9.1-32.3c-2.9-10.6-5.7-21.3-8.7-32c-3.8-13.4-7.7-26.7-11.6-40.1c-9.9-35.6-19.7-71.2-29.7-106.8
	c-0.3-1.1-2.3-1.6-3.6-2.4c0.3-2.3,1.3-4.7,0.8-6.7c-2.2-8.8-4.9-17.4-7.3-26.1c-4.4-15.6-8.7-31.3-13.1-47
	c-3.6-13-7.3-25.9-11-38.9c-1.8-6.5-3.7-13-5.7-19.4c-0.3-1-1.6-1.7-2.5-2.6c-0.8,0.9-2.1,1.6-2.4,2.7c-0.9,2.5-1.4,5.1-2.1,7.7
	c-5.1,17.7-10.2,35.4-15.2,53.1c-3.8,13.4-7.6,26.9-11.3,40.3c-3,10.9-6,21.8-8.8,32.8C201.6,154.8,202.9,156.4,203.4,157.8z
	 M242.4,607.3C242.4,607.3,242.4,607.2,242.4,607.3c58.2-0.1,116.3-0.1,174.5-0.1c5.3,0,10.7,0,16-0.1c0.8,0,1.7-0.6,2.5-0.9
	c-0.6-0.5-1.2-1-1.9-1.4c-4.7-2.7-9.5-5.1-14.1-8c-7.3-4.7-16.3-6.4-18.3-18c-2.9-16.4-8.8-32.3-13.1-48.5
	c-3.1-11.6-2.9-11.7-15.2-11.7c-89,0-178,0-266.9,0c-1.7,0-3.4-0.1-5,0.3c-1,0.3-2.5,1.2-2.7,2.1c-5.6,20-11,40.1-16.5,60.2
	c-1.3,5-3.7,9-8.5,11.5c-6.6,3.4-13,7-19.5,10.7c-1.3,0.7-2.2,2.1-3.3,3.1c1.4,0.3,2.8,0.9,4.1,0.9
	C117.1,607.3,179.7,607.3,242.4,607.3z"/>
<path fill-rule="evenodd" clip-rule="evenodd" fill="#D82927" d="M242.4,607.3c-62.6,0-125.3,0-187.9,0c-1.4,0-2.8-0.6-4.1-0.9
	c1.1-1.1,2.1-2.4,3.3-3.1c6.4-3.7,12.9-7.3,19.5-10.7c4.8-2.5,7.2-6.5,8.5-11.5c5.5-20.1,10.9-40.2,16.5-60.2
	c0.2-0.9,1.7-1.8,2.7-2.1c1.6-0.4,3.3-0.3,5-0.3c89,0,178,0,266.9,0c12.3,0,12.1,0.1,15.2,11.7c4.3,16.2,10.2,32.1,13.1,48.5
	c2.1,11.6,11,13.3,18.3,18c4.5,2.9,9.4,5.4,14.1,8c0.7,0.4,1.3,0.9,1.9,1.4c-0.8,0.3-1.6,0.9-2.5,0.9c-5.3,0.1-10.7,0.1-16,0.1
	C358.7,607.2,300.5,607.2,242.4,607.3C242.4,607.2,242.4,607.3,242.4,607.3z"/>
<path fill-rule="evenodd" clip-rule="evenodd" fill="#FFFFFF" d="M353.8,411.9c1.5,4.3,3.2,8.6,4.4,13c8.3,29.4,16.5,58.9,24.9,88.3
	c1,3.7,0.8,4.9-3.5,4.9c-92.1-0.1-184.3-0.1-276.4-0.1c-1.8,0-5.1,1.5-3.7-3.2c9.4-33.1,18.7-66.2,28-99.4c0.3-1.2,1.2-2.3,1.8-3.5
	c2,0.2,3.9,0.5,5.9,0.5c67.7,0,135.4,0,203.1,0C343.6,412.3,348.7,412,353.8,411.9z"/>
<path fill-rule="evenodd" clip-rule="evenodd" fill="#D82927" d="M353.8,411.9c-5.1,0.2-10.3,0.5-15.4,0.5c-67.7,0-135.4,0-203.1,0
	c-2,0-3.9-0.3-5.9-0.5c2.5-9.3,4.8-18.7,7.4-28c3.6-13.3,7.4-26.6,11.1-39.9c3.7-13.2,7.6-26.3,11.4-39.4c3.6-12.5,7.1-25,10.6-37.6
	c48,0,95.9,0,143.9,0c3.9,13.4,7.8,26.7,11.6,40.1c3,10.6,5.8,21.3,8.7,32c3,10.8,6,21.6,9.1,32.3c3.6,12.7,7.2,25.4,10.7,38
	C354.1,410.2,353.9,411,353.8,411.9z"/>
<path fill-rule="evenodd" clip-rule="evenodd" fill="#FFFFFF" d="M313.8,266.9c-48,0-95.9,0-143.9,0c2.7-10.3,5.3-20.5,8.1-30.8
	c6.9-24.8,14.4-53.7,21.6-78.5c0.5-1.6,2.3,1.4,3.8,0c3,0.1,6,0.3,8.9,0.3c22.7-0.1,45.5-0.2,68.2-0.3c1.2,0.8,2.5-1.1,2.8,0
	C293.3,193.3,304,231.4,313.8,266.9z"/>
<path fill-rule="evenodd" clip-rule="evenodd" fill="#D82927" d="M283.3,157.8c0,0-48.2,0.2-71,0.3c-3,0-12.7-0.3-12.7-0.3
	s1.9-3,2.2-4.2c2.8-11,5.8-21.9,8.8-32.8c3.7-13.5,7.5-26.9,11.3-40.3c5-17.7,10.2-35.4,15.2-53.1c0.7-2.5,1.2-5.2,2.1-7.7
	c0.4-1.1,1.6-1.8,2.4-2.7c0.9,0.9,2.2,1.6,2.5,2.6c2,6.4,3.8,12.9,5.7,19.4c3.7,13,7.4,25.9,11,38.9c4.4,15.6,8.7,31.3,13.1,47
	c2.4,8.7,5.1,17.3,7.3,26.1C281.9,153.1,283.3,157.8,283.3,157.8z"/>
</svg>
