<?xml version="1.0" encoding="UTF-8" standalone="no"?>
<svg width="254px" height="682px" viewBox="0 0 254 682" version="1.1" xmlns="http://www.w3.org/2000/svg" xmlns:xlink="http://www.w3.org/1999/xlink" xmlns:sketch="http://www.bohemiancoding.com/sketch/ns">
    <!-- Generator: Sketch 3.3.1 (12002) - http://www.bohemiancoding.com/sketch -->
    <title>E11b</title>
    <desc>Created with Sketch.</desc>
    <defs></defs>
    <g id="Page-1" stroke="none" stroke-width="1" fill="none" fill-rule="evenodd" sketch:type="MSPage">
        <g id="E11b" sketch:type="MSArtboardGroup">
            <g id="Dopravná_značka_A29b-Copy" sketch:type="MSLayerGroup" transform="translate(58.000000, 249.000000)">
                <path d="M107.438,-0.006 C110.718,-0.006 114.403,0.405 117.683,2.042 C120.961,3.273 123.83,5.321 126.297,7.781 C131.616,13.108 134.485,20.073 134.485,26.632 L134.485,392.988 C134.485,396.678 133.667,400.37 132.432,403.643 C130.799,406.922 128.748,409.79 126.296,412.252 C120.96,417.577 113.995,420.033 107.437,420.033 L27.116,420.033 C23.842,420.033 20.152,419.217 16.872,417.988 C13.593,416.754 10.725,414.709 8.268,412.252 C2.938,406.922 0.07,399.958 0.07,392.987 L0.07,26.632 C0.07,23.353 0.893,19.665 2.121,16.385 C3.761,13.108 5.823,10.238 8.268,7.781 C13.593,2.454 20.563,-0.006 27.116,-0.006" id="Shape" fill="#000000" sketch:type="MSShapeGroup"></path>
                <path d="M107.438,6.142 C113.997,5.734 124.653,12.698 126.297,18.84 C127.52,21.305 127.925,24.173 127.925,26.632 L127.925,392.988 C128.749,399.959 121.789,410.202 115.225,412.253 C112.781,413.07 109.896,413.476 107.438,413.476 L27.116,413.476 C20.563,414.299 9.908,407.334 8.268,401.187 C7.039,398.725 6.628,395.857 6.628,392.989 L6.628,26.632 C5.823,20.076 12.776,9.824 19.34,7.781 C21.792,6.961 24.66,6.141 27.116,6.141" id="Shape" fill="#FFFFFF" sketch:type="MSShapeGroup"></path>
                <path d="M127.925,321.276 L127.925,290.128 L6.628,344.632 L6.628,376.18" id="Shape" fill="#D9261C" sketch:type="MSShapeGroup"></path>
            </g>
            <g id="Dopravná_značka_E11-Copy" sketch:type="MSLayerGroup" transform="translate(11.500000, 8.000000)">
                <g id="layer1" transform="translate(0.443389, 0.460728)" sketch:type="MSShapeGroup">
                    <path d="M181.958751,24.883868 L178.712272,21.434216 L166.53801,33.60944 L161.668298,28.536428 L152.740503,37.262 L157.813107,42.335 L140.160433,59.989076 L135.290709,54.916076 L126.565818,63.641648 L131.435542,68.714648 L113.985747,86.165804 L108.913143,81.295712 L100.18824,90.021284 L105.057952,95.094284 L87.6081575,112.54544 L82.5355534,107.67536 L73.8106502,116.400932 L78.6803742,121.271012 L62.650909,137.504636 L57.781197,132.431636 L48.8534137,141.360116 L52.911497,145.215608 L38.302373,159.825872 L34.2442897,155.97038 L25.5193985,164.695952 L30.3890985,169.566056 L19.0264532,181.132508 L22.475824,184.37924 L33.8384814,173.015696 L62.650909,201.830372 L51.694072,212.788076 L55.1434429,216.237716 L66.1002799,205.280024 L70.9700039,210.150104 L79.694895,201.221612 L74.825183,196.554452 L89.434295,181.741268 L94.304019,186.611348 L103.028898,177.885788 L98.1591982,173.015696 L114.391556,156.98498 L119.261256,161.855084 L127.986159,152.92658 L123.116447,148.259408 L140.769133,130.605356 L145.638845,135.475436 L154.363748,126.749864 L149.494024,121.879772 L167.146723,104.225708 L171.813519,109.0958 L180.741314,100.370228 L175.871614,95.500124 L193.321408,77.846072 L198.191108,82.716152 L207.118904,73.99058 L202.249192,69.120488 L214.220562,57.148184 L210.974083,53.698544 L198.799821,65.873768 L169.987393,36.85616" id="path4350" fill="#000000"></path>
                    <path d="M172.422231,92.050484 L143.609804,63.235808 L161.26249,45.784652 L190.07493,74.59934" id="path4352" fill="#FFFFFF"></path>
                    <path d="M163.69734,100.978988 L134.8849,71.961368 L117.232226,89.615444 L146.044654,118.43012" id="path4354" fill="#FFFFFF"></path>
                    <path d="M137.319762,127.155704 L108.507335,98.341016 L90.8546362,115.995092 L119.869968,144.809768" id="path4356" fill="#FFFFFF"></path>
                    <path d="M110.942173,153.535352 L82.129745,124.720664 L66.1002799,140.751356 L94.9127315,169.768976" id="path4358" fill="#FFFFFF"></path>
                    <path d="M86.1878404,178.494536 L57.1724845,149.67986 L42.5633605,164.290112 L71.3758122,193.104812" id="path4360" fill="#FFFFFF"></path>
                    <path d="M87.6081575,95.703044 L87.6081575,13.317404 L144.218516,13.317404 L144.218516,39.291212" id="path4362" fill="#000000"></path>
                    <path d="M144.218516,216.846476 L144.218516,143.389328 L87.6081575,199.801184 L87.6081575,216.846476" id="path4364" fill="#000000"></path>
                    <path d="M113.377035,0.939272 L214.62637,0.939272 C216.249615,0.939272 217.872837,1.142192 219.293178,1.750952 C220.713507,2.359712 221.930932,3.374312 223.148369,4.3889 C225.583207,6.823952 226.597728,9.867764 226.597728,12.911564 L226.597728,215.426048 C226.597728,217.049396 226.394824,218.672768 225.786111,220.093208 C225.177399,221.513648 224.162878,222.73118 223.148369,223.948688 C220.713507,226.18082 217.669932,227.39834 214.62637,227.39834 L113.377035,227.39834 L113.377035,221.9195 L214.62637,221.9195 C216.046711,221.71658 217.669932,221.310728 219.090274,219.890288 C220.510603,218.672768 221.119315,217.049396 221.119315,215.426048 L221.119315,12.911564 C221.119315,11.491112 220.713507,9.867764 219.090274,8.447312 C217.872837,7.229792 216.249615,6.418112 214.62637,6.621032 L113.377035,6.621032 L113.377035,0.939272 L113.377035,0.939272 Z M12.1276875,227.39834 C10.5044662,227.39834 8.88122087,227.19542 7.4608917,226.58666 C6.04056253,225.9779 4.62022137,224.963288 3.60571253,223.948688 C1.17085053,221.513648 0.1563297,218.469848 0.1563297,215.426048 L0.1563297,12.911564 C0.1563297,11.288192 0.359233867,9.867764 0.967946367,8.244392 C1.57665887,6.823952 2.5911917,5.606432 3.60571253,4.3889 C6.04056253,2.156792 9.08412503,0.939272 12.1276875,0.939272 L113.377035,0.939272 L113.377035,6.621032 L12.1276875,6.621032 C10.7073704,6.621032 9.08412503,7.026872 7.66379587,8.447312 C6.2434667,9.664844 5.6347422,11.288192 5.6347422,12.911564 L5.6347422,215.426048 C5.6347422,216.846476 6.04056253,218.469848 7.66379587,219.890288 C8.88122087,221.107808 10.5044662,221.9195 12.1276875,221.9195 L113.377035,221.9195 L113.377035,227.39834 L12.1276875,227.39834 Z" id="path4384" fill="#000000"></path>
                </g>
            </g>
        </g>
    </g>
</svg>