<?xml version="1.0" encoding="UTF-8" standalone="no"?>
<!-- Created with Inkscape (http://www.inkscape.org/) -->

<svg
   xmlns:dc="http://purl.org/dc/elements/1.1/"
   xmlns:cc="http://creativecommons.org/ns#"
   xmlns:rdf="http://www.w3.org/1999/02/22-rdf-syntax-ns#"
   xmlns:svg="http://www.w3.org/2000/svg"
   xmlns="http://www.w3.org/2000/svg"
   xmlns:sodipodi="http://sodipodi.sourceforge.net/DTD/sodipodi-0.dtd"
   xmlns:inkscape="http://www.inkscape.org/namespaces/inkscape"
   width="198.78447"
   height="198.60617"
   id="svg3410"
   version="1.1"
   inkscape:version="0.47 r22583"
   sodipodi:docname="Dopravná značka E1.svg">
  <defs
     id="defs3412">
    <inkscape:perspective
       sodipodi:type="inkscape:persp3d"
       inkscape:vp_x="0 : 526.18109 : 1"
       inkscape:vp_y="0 : 1000 : 0"
       inkscape:vp_z="744.09448 : 526.18109 : 1"
       inkscape:persp3d-origin="372.04724 : 350.78739 : 1"
       id="perspective3418" />
    <inkscape:perspective
       id="perspective3428"
       inkscape:persp3d-origin="0.5 : 0.33333333 : 1"
       inkscape:vp_z="1 : 0.5 : 1"
       inkscape:vp_y="0 : 1000 : 0"
       inkscape:vp_x="0 : 0.5 : 1"
       sodipodi:type="inkscape:persp3d" />
    <inkscape:perspective
       id="perspective3382"
       inkscape:persp3d-origin="0.5 : 0.33333333 : 1"
       inkscape:vp_z="1 : 0.5 : 1"
       inkscape:vp_y="0 : 1000 : 0"
       inkscape:vp_x="0 : 0.5 : 1"
       sodipodi:type="inkscape:persp3d" />
    <inkscape:perspective
       id="perspective3500"
       inkscape:persp3d-origin="0.5 : 0.33333333 : 1"
       inkscape:vp_z="1 : 0.5 : 1"
       inkscape:vp_y="0 : 1000 : 0"
       inkscape:vp_x="0 : 0.5 : 1"
       sodipodi:type="inkscape:persp3d" />
  </defs>
  <sodipodi:namedview
     id="base"
     pagecolor="#ffffff"
     bordercolor="#666666"
     borderopacity="1.0"
     inkscape:pageopacity="0.0"
     inkscape:pageshadow="2"
     inkscape:zoom="1.1896297"
     inkscape:cx="467.43314"
     inkscape:cy="99.203421"
     inkscape:document-units="px"
     inkscape:current-layer="layer1"
     showgrid="false"
     inkscape:window-width="1600"
     inkscape:window-height="838"
     inkscape:window-x="-8"
     inkscape:window-y="-8"
     inkscape:window-maximized="1" />
  <metadata
     id="metadata3415">
    <rdf:RDF>
      <cc:Work
         rdf:about="">
        <dc:format>image/svg+xml</dc:format>
        <dc:type
           rdf:resource="http://purl.org/dc/dcmitype/StillImage" />
        <dc:title></dc:title>
      </cc:Work>
    </rdf:RDF>
  </metadata>
  <g
     inkscape:label="Livello 1"
     inkscape:groupmode="layer"
     id="layer1"
     transform="translate(222.74733,-216.81515)">
    <path
       d="m -222.74733,235.89133 c 0,-2.49595 0.53485,-4.9919 1.60455,-7.30956 0.8914,-2.31767 2.31766,-4.45705 4.10048,-6.23987 3.74392,-3.74392 8.73582,-5.52675 13.54944,-5.52675 l 160.275524,0 c 2.49596,0 4.99263,0.53485 7.30957,1.42626 2.31767,0.89141 4.45705,2.31767 6.23987,4.10049 3.74392,3.9222 5.70503,8.9141 5.70503,13.54943 l 0,160.45381 c 0,2.49596 -0.53485,4.9919 -1.42626,7.30956 -1.06969,2.31768 -2.49595,4.45706 -4.27877,6.23988 -3.74392,3.74391 -8.73582,5.52674 -13.54944,5.52674 l -160.275524,0 c -2.49596,0 -4.9919,-0.35657 -7.30957,-1.42626 -2.31767,-0.8914 -4.45705,-2.31766 -6.23987,-4.10048 -3.74393,-3.74392 -5.70503,-8.73582 -5.70503,-13.54944"
       style="fill:#1f1917;fill-opacity:1;fill-rule:evenodd;stroke:none"
       id="path3328" />
    <path
       d="m -220.9645,235.89133 c 0,-2.13939 0.53484,-4.45705 1.42625,-6.59643 0.71313,-2.13939 2.13938,-4.10049 3.74392,-5.70503 3.38736,-3.38736 8.0227,-4.99189 12.30147,-4.99189 l 160.275524,0 c 2.31768,0 4.63534,0.35655 6.77472,1.24797 1.96184,0.89141 3.92294,2.13939 5.52675,3.74392 3.56564,3.56564 5.17017,8.02269 5.17017,12.30146 l 0,160.45381 c 0,2.31767 -0.53484,4.45705 -1.24724,6.59644 -0.89214,2.13938 -2.3184,4.10048 -3.92293,5.70502 -3.38661,3.38736 -7.84441,5.17018 -12.30147,5.17018 l -160.275524,0 c -2.31768,0 -4.63534,-0.53484 -6.77473,-1.42625 -1.9611,-0.89142 -3.92219,-2.13939 -5.52674,-3.74393 -3.38736,-3.38735 -5.17017,-8.02269 -5.17017,-12.30146"
       style="fill:#ffffff;fill-opacity:1;fill-rule:evenodd;stroke:none"
       id="path3330" />
    <path
       d="m -217.39887,235.89133 c 0,-1.78282 0.35657,-3.56564 1.0697,-5.17018 0.71313,-1.78282 1.60454,-3.20908 3.03079,-4.63534 2.67424,-2.67422 6.23988,-4.10047 9.80552,-4.10047 l 160.275524,0 c 1.78283,0 3.74393,0.35656 5.3492,1.06968 1.78282,0.71313 3.20835,1.78283 4.45632,3.03079 2.85324,2.85252 4.10048,6.41816 4.10048,9.80552 l 0,160.45381 c 0,1.78283 -0.35656,3.56564 -1.06896,5.34847 -0.71385,1.60453 -1.60527,3.20907 -3.03152,4.45705 -2.6735,2.67423 -6.23987,4.10048 -9.80552,4.10048 l -160.275524,0 c -1.78283,0 -3.74393,-0.35656 -5.34847,-1.06969 -1.60453,-0.71313 -3.20907,-1.78282 -4.45705,-3.03079 -2.85251,-2.67424 -4.10049,-6.41816 -4.10049,-9.80552"
       style="fill:#291770;fill-opacity:1;fill-rule:evenodd;stroke:none"
       id="path3332" />
    <path
       d="m -217.39887,235.89133 c 0,-1.78282 0.35657,-3.56564 1.0697,-5.17018 0.71313,-1.78282 1.60454,-3.20908 3.03079,-4.63534 2.67424,-2.67422 6.23988,-4.10047 9.80552,-4.10047 l 160.275524,0 c 1.78283,0 3.74393,0.35656 5.3492,1.06968 1.78282,0.71313 3.20835,1.78283 4.45632,3.03079 2.85324,2.85252 4.10048,6.41816 4.10048,9.80552 l 0,160.45381 c 0,1.78283 -0.35656,3.56564 -1.06896,5.34847 -0.71385,1.60453 -1.60527,3.20907 -3.03152,4.45705 -2.6735,2.67423 -6.23987,4.10048 -9.80552,4.10048 l -160.275524,0 c -1.78283,0 -3.74393,-0.35656 -5.34847,-1.06969 -1.60453,-0.71313 -3.20907,-1.78282 -4.45705,-3.03079 -2.85251,-2.67424 -4.10049,-6.41816 -4.10049,-9.80552"
       style="fill:#291770;fill-opacity:1;fill-rule:evenodd;stroke:none"
       id="path3334" />
    <path
       d="m -110.59037,330.26912 c 0.5319,4.281 0.24837,8.66772 -0.85079,12.84323 -1.09841,4.17576 -3.01246,8.13933 -5.60474,11.60171 -2.59278,3.46263 -5.86277,6.42237 -9.5527,8.64891 -7.31724,4.43725 -16.3908,5.90435 -24.84856,3.91799 -4.19109,-0.97511 -8.20319,-2.76684 -11.74284,-5.26006 -3.53888,-2.49396 -6.60633,-5.68893 -8.95198,-9.32688 -4.69846,-7.24988 -6.42928,-16.31056 -4.71753,-24.75792 0.84313,-4.20944 2.51229,-8.25222 4.86634,-11.84239 l -3.23655,-19.54093 c -5.00454,4.13638 -9.20308,9.25877 -12.23609,14.97989 -3.03277,5.72112 -4.90054,12.04096 -5.48887,18.48017 -0.58734,6.4392 0.104,12.99726 2.04059,19.18091 1.9356,6.18292 5.11743,11.99121 9.29791,16.97245 4.17973,4.98076 9.35906,9.13447 15.12376,12.12119 5.76321,2.98722 12.1113,4.80866 18.55742,5.34773 6.44638,0.53757 12.99081,-0.20577 19.14577,-2.18791 6.15494,-1.98266 11.92039,-5.20461 16.84615,-9.42567 4.92604,-4.22132 9.01242,-9.44202 11.962474,-15.23321 l -10.609764,-26.51921 z m 14.394564,-23.72413 -55.717354,0 -0.76091,-4.59944 43.28588,0 0,-15.11905 -45.78605,0 -2.84483,-17.20272 c 2.06137,-0.22682 4.08019,-0.8513 5.90658,-1.83681 1.82615,-0.98625 3.45892,-2.33377 4.77698,-3.93781 2.73735,-3.31209 3.95042,-7.59455 3.58964,-11.63462 -0.17987,-2.08244 -0.76017,-4.13195 -1.70431,-5.99053 -0.94416,-1.85934 -2.25108,-3.52653 -3.82045,-4.88319 -3.25761,-2.82726 -7.49551,-4.1265 -11.49573,-3.86749 -2.06906,0.12855 -4.1131,0.65766 -5.98011,1.55675 -1.867,0.89858 -3.55722,2.16687 -4.95253,3.70827 -3.74392,4.15371 -4.98844,9.82853 -3.58248,15.16586 l 10.56,63.75959 58.31506,0 18.786964,46.95774 34.84224,-11.82851 -4.69006,-13.53384 -21.52805,6.99857"
       style="fill:#ffffff;fill-opacity:1;fill-rule:evenodd;stroke:none"
       id="path3336" />
  </g>
</svg>
