<?xml version="1.0" encoding="UTF-8" standalone="no"?>
<!-- Created with Inkscape (http://www.inkscape.org/) -->

<svg
   xmlns:dc="http://purl.org/dc/elements/1.1/"
   xmlns:cc="http://creativecommons.org/ns#"
   xmlns:rdf="http://www.w3.org/1999/02/22-rdf-syntax-ns#"
   xmlns:svg="http://www.w3.org/2000/svg"
   xmlns="http://www.w3.org/2000/svg"
   xmlns:sodipodi="http://sodipodi.sourceforge.net/DTD/sodipodi-0.dtd"
   xmlns:inkscape="http://www.inkscape.org/namespaces/inkscape"
   width="191.6353"
   height="65.654427"
   id="svg3410"
   version="1.1"
   inkscape:version="0.47 r22583"
   sodipodi:docname="Dopravná značka E5b.svg">
  <defs
     id="defs3412">
    <inkscape:perspective
       sodipodi:type="inkscape:persp3d"
       inkscape:vp_x="0 : 526.18109 : 1"
       inkscape:vp_y="0 : 1000 : 0"
       inkscape:vp_z="744.09448 : 526.18109 : 1"
       inkscape:persp3d-origin="372.04724 : 350.78739 : 1"
       id="perspective3418" />
    <inkscape:perspective
       id="perspective3428"
       inkscape:persp3d-origin="0.5 : 0.33333333 : 1"
       inkscape:vp_z="1 : 0.5 : 1"
       inkscape:vp_y="0 : 1000 : 0"
       inkscape:vp_x="0 : 0.5 : 1"
       sodipodi:type="inkscape:persp3d" />
    <inkscape:perspective
       id="perspective3382"
       inkscape:persp3d-origin="0.5 : 0.33333333 : 1"
       inkscape:vp_z="1 : 0.5 : 1"
       inkscape:vp_y="0 : 1000 : 0"
       inkscape:vp_x="0 : 0.5 : 1"
       sodipodi:type="inkscape:persp3d" />
    <inkscape:perspective
       id="perspective4184"
       inkscape:persp3d-origin="0.5 : 0.33333333 : 1"
       inkscape:vp_z="1 : 0.5 : 1"
       inkscape:vp_y="0 : 1000 : 0"
       inkscape:vp_x="0 : 0.5 : 1"
       sodipodi:type="inkscape:persp3d" />
    <inkscape:perspective
       id="perspective4218"
       inkscape:persp3d-origin="0.5 : 0.33333333 : 1"
       inkscape:vp_z="1 : 0.5 : 1"
       inkscape:vp_y="0 : 1000 : 0"
       inkscape:vp_x="0 : 0.5 : 1"
       sodipodi:type="inkscape:persp3d" />
    <inkscape:perspective
       id="perspective4279"
       inkscape:persp3d-origin="0.5 : 0.33333333 : 1"
       inkscape:vp_z="1 : 0.5 : 1"
       inkscape:vp_y="0 : 1000 : 0"
       inkscape:vp_x="0 : 0.5 : 1"
       sodipodi:type="inkscape:persp3d" />
    <inkscape:perspective
       id="perspective4838"
       inkscape:persp3d-origin="0.5 : 0.33333333 : 1"
       inkscape:vp_z="1 : 0.5 : 1"
       inkscape:vp_y="0 : 1000 : 0"
       inkscape:vp_x="0 : 0.5 : 1"
       sodipodi:type="inkscape:persp3d" />
    <inkscape:perspective
       id="perspective4872"
       inkscape:persp3d-origin="0.5 : 0.33333333 : 1"
       inkscape:vp_z="1 : 0.5 : 1"
       inkscape:vp_y="0 : 1000 : 0"
       inkscape:vp_x="0 : 0.5 : 1"
       sodipodi:type="inkscape:persp3d" />
    <inkscape:perspective
       id="perspective4912"
       inkscape:persp3d-origin="0.5 : 0.33333333 : 1"
       inkscape:vp_z="1 : 0.5 : 1"
       inkscape:vp_y="0 : 1000 : 0"
       inkscape:vp_x="0 : 0.5 : 1"
       sodipodi:type="inkscape:persp3d" />
  </defs>
  <sodipodi:namedview
     id="base"
     pagecolor="#ffffff"
     bordercolor="#666666"
     borderopacity="1.0"
     inkscape:pageopacity="0.0"
     inkscape:pageshadow="2"
     inkscape:zoom="1.9937492"
     inkscape:cx="38.790984"
     inkscape:cy="-31.800131"
     inkscape:document-units="px"
     inkscape:current-layer="layer1"
     showgrid="false"
     inkscape:window-width="1600"
     inkscape:window-height="838"
     inkscape:window-x="-8"
     inkscape:window-y="-8"
     inkscape:window-maximized="1" />
  <metadata
     id="metadata3415">
    <rdf:RDF>
      <cc:Work
         rdf:about="">
        <dc:format>image/svg+xml</dc:format>
        <dc:type
           rdf:resource="http://purl.org/dc/dcmitype/StillImage" />
        <dc:title></dc:title>
      </cc:Work>
    </rdf:RDF>
  </metadata>
  <g
     inkscape:label="Livello 1"
     inkscape:groupmode="layer"
     id="layer1"
     transform="translate(-205.89483,-278.95146)">
    <rect
       style="fill:#ffffff;fill-opacity:1;stroke:none"
       id="rect4174"
       width="217.17877"
       height="83.260223"
       x="189.63252"
       y="270.77411"
       rx="19.371056"
       ry="18.173958" />
    <path
       d="m 301.79842,278.95146 85.59137,0 c 1.37496,0 2.74992,0.17187 3.95301,0.68748 1.2031,0.51562 2.40619,1.37497 3.26554,2.23432 2.06244,2.06244 2.92179,4.64049 2.92179,7.21855 l 0,45.37374 c 0,1.37496 -0.17187,2.74992 -0.68748,3.95301 -0.51561,1.20309 -1.20309,2.23431 -2.23431,3.26554 -1.89057,1.89057 -4.6405,2.92179 -7.21855,2.92179 l -85.59137,0 0,-4.6405 85.59137,0 c 1.37496,0 2.57805,-0.51561 3.95301,-1.7187 1.03122,-1.03122 1.54684,-2.40618 1.54684,-3.78114 l 0,-45.37374 c 0,-1.20309 -0.34374,-2.57806 -1.54684,-3.78115 -1.03122,-1.20309 -2.57805,-1.7187 -3.95301,-1.7187 l -85.59137,0 0,-4.6405 z m -85.76325,65.65443 c -1.37496,0 -2.57805,-0.17187 -3.95301,-0.68748 -1.20309,-0.51561 -2.23431,-1.37496 -3.26554,-2.23431 -1.89057,-2.06245 -2.92179,-4.6405 -2.92179,-7.21855 l 0,-45.37374 c 0,-1.37496 0.34374,-2.74993 0.85935,-3.95302 0.34374,-1.20309 1.20309,-2.23431 2.06244,-3.26553 2.06245,-2.06245 4.6405,-2.9218 7.21855,-2.9218 l 85.76325,0 0,4.6405 -85.76325,0 c -1.20309,0 -2.57805,0.34374 -3.78114,1.7187 -1.03122,1.03122 -1.54683,2.40619 -1.54683,3.78115 l 0,45.37374 c 0,1.20309 0.34374,2.57805 1.54683,3.78114 1.03122,1.20309 2.40618,1.7187 3.78114,1.7187 l 85.76325,0 0,4.6405"
       style="fill:#000000;fill-opacity:1;fill-rule:evenodd;stroke:none"
       id="path4370" />
    <path
       d="m 268.0758,302.7963 c 0.57719,-2.21688 -1.45613,-5.06158 -4.01986,-5.47359 -2.56325,-0.41201 -5.65835,1.60914 -6.94187,4.05734 l -3.66202,-6.42842 c 2.35676,-2.03453 4.86104,-3.3121 7.02972,-3.59639 2.94876,-0.49724 6.10473,-0.40246 9.35738,0.86627 0.92237,0.36665 1.76285,0.81185 2.49618,1.30239 2.26676,1.53347 3.3665,3.27724 3.81718,4.95059 0.148,0.56144 0.21984,1.11716 0.28741,2.16579 0.0678,1.04889 0.13062,2.58976 -0.57649,4.16619 -0.70849,1.57739 -2.1868,3.19058 -3.93392,4.29603 1.60699,0.14972 3.07195,1.13221 4.11677,3.33597 1.04531,2.20398 1.67,5.6297 0.76721,8.41566 -0.90328,2.78646 -3.33522,4.93268 -5.20217,6.20142 -1.8667,1.26873 -3.16791,1.65998 -4.49488,1.93259 -2.58212,0.53805 -5.35567,0.60298 -8.03327,-0.0338 -1.29976,-0.3065 -2.54964,-0.76603 -3.68567,-1.34848 -1.13625,-0.58268 -2.15863,-1.28973 -3.07409,-2.11519 l 4.17217,-5.81923 c 2.16794,2.17797 5.87078,3.31614 8.65581,2.24433 2.78452,-1.0718 4.65195,-4.35286 3.63219,-6.7896 -1.01906,-2.43721 -4.92529,-4.0301 -7.83967,-3.63146 l 0.95554,-5.10479 c 2.41287,0.21197 5.59988,-1.37688 6.17635,-3.59352"
       style="fill:#000000;fill-opacity:1;fill-rule:evenodd;stroke:none"
       id="path4784" />
    <path
       d="m 285.22224,336.1112 c 2.15793,-2.4704 2.32575,-4.66079 2.30879,-7.03785 l 0,-6.97029 -6.54728,0 0,6.97029 c -0.22941,2.08608 0.81661,3.85419 -1.19643,5.91472 l 3.69068,2.90677 c 0.6407,-0.58245 1.24486,-1.20573 1.74424,-1.78364"
       style="fill:#000000;fill-opacity:1;fill-rule:evenodd;stroke:none"
       id="path4786" />
    <path
       d="m 306.27564,302.83879 -0.50463,4.99499 -5.7949,-0.008 -0.37429,3.27174 c 3.07552,-0.20172 6.41601,1.2186 8.09961,3.70858 1.68292,2.49021 1.70797,6.05078 0.70183,8.67872 -1.00569,2.629 -3.04308,4.32479 -5.30986,5.12112 -2.26748,0.79585 -4.76438,0.69225 -6.70151,0.22605 -1.93736,-0.46548 -3.31423,-1.29451 -4.33279,-2.46227 l 2.92132,-4.03561 c 1.47904,1.57595 4.33806,2.33719 6.24676,1.14889 1.90753,-1.18756 2.865,-4.32444 1.22553,-6.09327 -1.63968,-1.76811 -5.87558,-2.16795 -8.63887,-1.08731 l 1.10165,-13.44528"
       style="fill:#000000;fill-opacity:1;fill-rule:evenodd;stroke:none"
       id="path4788" />
    <path
       d="m 350.12689,323.27846 c -0.48505,-0.0256 -1.09544,0.68486 -2.04621,-0.61897 -0.23275,-0.54282 -0.12432,-1.1816 -0.15277,-1.7736 l 0,-10.60057 2.90222,0 0,-5.31916 -2.90222,0 0,-10.56118 -6.74091,2.12474 0,8.93989 -1.91157,4.81571 1.83639,0 c -0.002,4.29675 0.008,8.59351 -0.008,12.89026 0.0191,1.23556 0.0921,2.55107 0.80254,3.75155 0.32487,0.51822 0.79633,0.97893 1.28641,1.31408 1.00733,0.72663 2.41619,0.83691 3.83794,0.80517 1.6638,-0.0258 2.9631,-0.4304 4.07071,-0.86151 l 0,-5.3664 c -0.39912,0.20552 -0.62662,0.37 -0.97584,0.45999"
       style="fill:#000000;fill-opacity:1;fill-rule:evenodd;stroke:none"
       id="path4790" />
  </g>
</svg>
