<?xml version="1.0" encoding="UTF-8" standalone="no"?>
<!-- Created with Inkscape (http://www.inkscape.org/) -->

<svg
   xmlns:dc="http://purl.org/dc/elements/1.1/"
   xmlns:cc="http://creativecommons.org/ns#"
   xmlns:rdf="http://www.w3.org/1999/02/22-rdf-syntax-ns#"
   xmlns:svg="http://www.w3.org/2000/svg"
   xmlns="http://www.w3.org/2000/svg"
   version="1.1"
   width="173.16406"
   height="87.304688"
   id="svg7751">
  <defs
     id="defs7753" />
  <metadata
     id="metadata7756">
    <rdf:RDF>
      <cc:Work
         rdf:about="">
        <dc:format>image/svg+xml</dc:format>
        <dc:type
           rdf:resource="http://purl.org/dc/dcmitype/StillImage" />
        <dc:title></dc:title>
      </cc:Work>
    </rdf:RDF>
  </metadata>
  <g
     transform="translate(-281.97537,-508.70245)"
     id="layer1">
    <g
       transform="matrix(1.25,0,0,-1.25,-6.0324464,1133.2337)"
       id="g6471">
      <path
         d="m 232.5144,429.8848 c -0.2597,0 -0.5196,0.0519 -0.7594,0.1511 -0.2401,0.0992 -0.4604,0.2466 -0.6438,0.4303 -0.1837,0.1837 -0.3311,0.4036 -0.4303,0.6437 -0.0992,0.2401 -0.1511,0.4998 -0.1511,0.7594 l 0,65.6561 c 0,0.2596 0.0519,0.5193 0.1511,0.7594 0.0992,0.2398 0.2463,0.4601 0.43,0.6437 0.184,0.1837 0.404,0.3308 0.6441,0.4301 0.2398,0.0992 0.4997,0.151 0.7594,0.151 l 134.3378,0 c 0.2596,0 0.5193,-0.0518 0.7594,-0.151 0.2398,-0.0993 0.4601,-0.2464 0.6437,-0.4301 0.1837,-0.1836 0.3308,-0.4039 0.4301,-0.6437 0.0992,-0.2401 0.151,-0.4998 0.151,-0.7594 l 0,-65.6561 c 0,-0.2596 -0.0518,-0.5196 -0.151,-0.7594 -0.0993,-0.2401 -0.2464,-0.46 -0.4301,-0.6437 -0.1836,-0.1837 -0.4039,-0.3308 -0.644,-0.4303 -0.2398,-0.0992 -0.4995,-0.1511 -0.7591,-0.1511 l -134.3378,0 z"
         id="path6134"
         style="fill:#ffffff;fill-opacity:1;fill-rule:evenodd;stroke:#1f1917;stroke-width:0.21600001;stroke-linecap:butt;stroke-linejoin:round;stroke-miterlimit:10;stroke-opacity:1;stroke-dasharray:none" />
      <path
         d="m 365.5066,432.2767 -132.0015,0 -0.5837,0.5833 0,63.8873 0.5837,0.5833 132.0015,0 0.5834,-0.5833 0,-63.8873"
         id="path6136"
         style="fill:#00994c;fill-opacity:1;fill-rule:evenodd;stroke:none" />
      <path
         d="m 358.5257,470.6569 c -0.051,0.2115 -0.1919,0.3884 -0.4535,0.4536 -0.0735,0.0161 -0.15,0.0184 -0.2243,0.007 l -12.814,-2.0651 c -0.2273,-0.0416 -0.4184,-0.1851 -0.4875,-0.4595 -0.0542,-0.2863 0.0626,-0.4912 0.2466,-0.6233 l 3.7865,-2.5787 -19.3178,-19.3175 4.2267,-4.2265 19.3181,19.3179 2.5795,-3.7866 c 0.0803,-0.1168 0.2098,-0.2185 0.3878,-0.2514 0.3634,-0.0388 0.6061,0.1199 0.6951,0.4927 l 2.0633,12.8137 c 0.0122,0.0743 0.01,0.1508 -0.007,0.2242"
         id="path6138"
         style="fill:#ffffff;fill-opacity:1;fill-rule:evenodd;stroke:none" />
      <path
         d="m 255.2947,470.319 c -0.0485,-0.0122 0.002,-1.4417 -0.8597,-2.279 -1.1424,-1.1101 -2.8061,-1.1189 -4.1568,-0.4964 -0.2803,0.129 -0.5286,0.2911 -0.7483,0.4859 l 1.0066,2.2365 c 0.0499,-0.0822 0.36,-0.4093 0.432,-0.46 0.7322,-0.5157 1.7657,0.0445 1.6529,0.9532 l 0.01,9.5783 2.6441,0.0264"
         id="path6140"
         style="fill:#ffffff;fill-opacity:1;fill-rule:evenodd;stroke:none" />
      <path
         d="m 261.7038,467.4322 2.3196,0 c 0,1.6949 0,3.3894 0,5.0842 -0.006,0.3583 -0.055,0.7164 -0.1267,1.0267 -0.1258,0.5449 -0.3447,0.9964 -0.8022,1.4528 -1.1619,1.1804 -2.6512,0.8589 -4.0376,0.9139 l -0.3277,-1.9261 0.9827,0 c 0.324,0 0.6486,-0.009 0.8521,-0.0224 0.421,-0.025 0.5171,-0.0978 0.8164,-0.3467 0.2364,-0.3087 0.235,-0.5241 0.275,-0.8946 -0.502,0.2851 -1.2498,0.3209 -2.0313,0.1851 -0.5466,-0.099 -1.1699,-0.6231 -1.4426,-1.1115 -0.2639,-0.4326 -0.3053,-0.8677 -0.324,-1.408 -0.008,-0.3152 0.004,-0.6655 0.0386,-0.9379 0.0626,-0.4955 0.2092,-0.8062 0.5091,-1.1824 0.5196,-0.6074 1.0494,-0.824 1.6001,-0.8645 0.453,-0.0471 1.0667,0.0677 1.6881,0.2899 l 0.0104,-0.2585 z m -0.9493,3.7965 c -0.1681,-0.0363 -0.4079,-0.2135 -0.4572,-0.3569 -0.1307,-0.3201 -0.2293,-0.8053 0.0649,-1.3264 0.3524,-0.348 0.8039,-0.4637 1.2807,0.0706 0.2205,0.3181 0.1996,0.5811 0.1335,1.0259 -0.1582,0.4938 -0.6452,0.6979 -1.0219,0.5868"
         id="path6142"
         style="fill:#ffffff;fill-opacity:1;fill-rule:evenodd;stroke:none" />
      <path
         d="m 268.9892,472.216 c -0.057,-0.1917 -0.0888,-0.383 -0.0905,-0.5749 l -0.0394,-4.2474 -2.1486,0 0,8.2842 2.2008,0 0.003,-0.7171 c 0.6089,0.6142 1.2433,0.7157 1.9729,0.7066 l 0,-2.2929 c -0.5051,-0.0397 -1.0763,0.1879 -1.6557,-0.6171 -0.102,-0.1576 -0.1859,-0.3495 -0.2426,-0.5414"
         id="path6144"
         style="fill:#ffffff;fill-opacity:1;fill-rule:evenodd;stroke:none" />
      <path
         d="m 274.5255,475.3749 c -0.2673,-0.1928 -0.5054,-0.4309 -0.7021,-0.6956 -0.1968,-0.2648 -0.3524,-0.557 -0.4788,-1.0715 -0.1264,-0.5145 -0.2239,-1.2518 -0.2239,-1.9897 2e-4,-0.7378 0.0978,-1.4765 0.225,-1.9927 0.127,-0.5162 0.2838,-0.8104 0.4814,-1.0769 0.9992,-1.2583 2.2271,-1.4865 3.4565,-1.1384 0.3067,0.0978 0.603,0.2461 0.8708,0.4394 0.2676,0.1936 0.5069,0.4325 0.7044,0.699 0.1982,0.2665 0.3546,0.5607 0.4816,1.0769 0.1273,0.5162 0.2248,1.2549 0.2248,1.9927 3e-4,0.7379 -0.0972,1.4752 -0.2236,1.9897 -0.1267,0.5145 -0.2821,0.8067 -0.4788,1.0715 -1.0001,1.2563 -2.2283,1.4825 -3.4651,1.1347 -0.3078,-0.0981 -0.6049,-0.2463 -0.8722,-0.4391 z m 1.1118,-1.8196 c -0.0701,-0.1346 -0.1012,-0.2761 -0.1222,-0.6015 -0.021,-0.3251 -0.0318,-0.8342 -0.032,-1.3291 -3e-4,-0.495 0.0104,-0.976 0.0323,-1.2776 0.0215,-0.3013 0.0541,-0.4238 0.1247,-0.5485 0.2579,-0.4445 0.6868,-0.5769 1.0953,-0.3373 0.1225,0.0805 0.2293,0.2058 0.2996,0.3299 0.07,0.1239 0.1035,0.2469 0.1225,0.5499 0.0193,0.3031 0.0241,0.7861 0.0238,1.2836 0,0.4974 -0.005,1.0088 -0.0235,1.3356 -0.0185,0.3266 -0.0502,0.4689 -0.1199,0.6027 -0.2557,0.4603 -0.6914,0.5785 -1.0982,0.337 -0.1233,-0.0822 -0.2324,-0.21 -0.3024,-0.3447"
         id="path6146"
         style="fill:#ffffff;fill-opacity:1;fill-rule:evenodd;stroke:none" />
      <path
         d="m 283.7472,475.776 -2.4511,0 2.4636,-8.3823 c 0.7126,0 1.4255,0 2.1384,0 l 2.4636,8.3823 -2.4511,0 -1.0817,-3.8285"
         id="path6148"
         style="fill:#ffffff;fill-opacity:1;fill-rule:evenodd;stroke:none" />
      <path
         d="m 293.9553,469.8437 c -0.0978,-0.1613 -0.1383,-0.275 -0.3912,-0.4332 -0.2653,-0.1176 -0.5108,-0.0921 -0.8078,0.3869 -0.0582,0.1066 -0.108,0.2348 -0.1514,0.3827 -0.0434,0.148 -0.0802,0.3161 -0.1029,0.7107 -0.0224,0.3943 -0.0303,1.0153 -0.0176,1.4139 0.0128,0.3983 0.0462,0.5743 0.0867,0.7313 0.1015,0.3053 0.1032,0.5372 0.5358,0.8609 0.2653,0.1398 0.5408,0.07 0.8144,-0.3597 0.146,-0.2234 0.2424,-0.5341 0.2412,-0.8325 l 1.9658,0.8384 c -0.0263,0.33 -0.1012,0.6571 -0.2089,0.9355 -0.108,0.2781 -0.2486,0.5077 -0.4294,0.6902 -0.4419,0.4119 -0.8728,0.559 -1.3419,0.6466 -0.2702,0.0454 -0.5854,0.0624 -0.8893,0.0581 -0.987,-0.0227 -1.7008,-0.174 -2.5767,-1.3895 -0.1635,-0.2475 -0.3087,-0.5301 -0.4294,-0.8388 -0.1208,-0.3087 -0.2169,-0.6432 -0.265,-1.1786 -0.0482,-0.5358 -0.048,-1.2725 0,-1.8083 0.0481,-0.5357 0.1442,-0.8699 0.265,-1.1786 0.1207,-0.3087 0.2659,-0.5916 0.4294,-0.8391 0.5692,-0.8348 1.1858,-1.1837 1.7303,-1.3042 0.5735,-0.0981 1.5525,-0.1823 2.2992,0.2395 0.1998,0.1097 0.4022,0.2484 0.5973,0.4218 0.4507,0.3847 0.7253,0.9176 0.767,1.4443 l -1.8479,0.9958 c -0.0816,-0.1551 -0.1613,-0.3764 -0.2727,-0.5941"
         id="path6150"
         style="fill:#ffffff;fill-opacity:1;fill-rule:evenodd;stroke:none" />
      <path
         d="m 304.5124,470.6649 0.013,0.9433 c 0.007,0.4547 0.006,0.9119 -0.0448,1.2787 -0.1094,0.6789 -0.2729,1.1461 -0.6157,1.6912 -0.1686,0.2466 -0.3928,0.4773 -0.6491,0.6746 -0.2565,0.1976 -0.5457,0.3614 -1.0117,0.4434 -0.4663,0.0819 -1.1097,0.0819 -1.5775,8e-4 -0.4677,-0.0811 -0.7594,-0.2435 -1.0156,-0.4405 -0.2563,-0.1967 -0.4774,-0.4277 -0.6576,-0.6724 -0.18,-0.2449 -0.3189,-0.5034 -0.4474,-0.9351 -0.1286,-0.432 -0.2466,-1.0375 -0.2897,-1.6175 -0.0428,-0.5799 -0.0107,-1.1344 0.0596,-1.6004 0.0708,-0.4663 0.18,-0.8439 0.3047,-1.1619 0.125,-0.3181 0.2656,-0.5766 0.4487,-0.8136 0.684,-0.8648 1.5764,-1.1355 2.4361,-1.1738 0.3118,-0.0198 0.6248,-0.0221 0.9131,-0.0147 0.6562,0.0181 1.2084,0.0703 1.8062,0.5414 l -0.4587,1.8346 c -0.5561,-0.3819 -1.1545,-0.4343 -1.7489,-0.4057 -0.2055,0.0182 -0.4278,0.0632 -0.6115,0.1602 -0.5269,0.3223 -0.7044,0.8013 -0.7191,1.2674 l 3.8659,0 z m -2.2672,1.7688 c -0.0445,0.392 0.1738,0.7786 -0.3569,1.3229 -0.2131,0.1562 -0.5357,0.2117 -0.8319,0.0972 -0.3668,-0.1516 -0.565,-0.5267 -0.567,-0.8566 l 0,-0.5635"
         id="path6152"
         style="fill:#ffffff;fill-opacity:1;fill-rule:evenodd;stroke:none" />
      <path
         d="m 250.5742,483.4922 c 0.6222,0.0153 1.2696,0.1431 1.8791,0.9527 0.104,0.1432 0.2046,0.3098 0.3004,0.5102 0.0956,0.2007 0.1866,0.4352 0.2682,0.7186 0.0813,0.2832 0.1536,0.6154 0.2049,1.0194 0.0511,0.4036 0.0811,0.879 0.0808,1.3617 -3e-4,0.4828 -0.0306,0.9729 -0.0822,1.3833 -0.0513,0.4108 -0.1239,0.7422 -0.2046,1.0228 -0.0811,0.2809 -0.1704,0.5111 -0.2648,0.7078 -0.0944,0.1967 -0.1936,0.36 -0.2957,0.5 -0.7783,0.9689 -1.4694,0.9817 -2.3173,0.8975 -0.4881,-0.0924 -0.957,-0.2764 -1.4238,-0.8975 -0.1021,-0.14 -0.2013,-0.3033 -0.2957,-0.5 -0.0944,-0.1967 -0.1839,-0.4269 -0.265,-0.7078 -0.0808,-0.2806 -0.1531,-0.612 -0.2047,-1.0228 -0.0513,-0.4104 -0.0819,-0.9005 -0.0822,-1.3889 0,-0.4882 0.0304,-0.9746 0.0817,-1.3839 0.0513,-0.409 0.1236,-0.741 0.2043,-1.023 0.0808,-0.2818 0.1704,-0.5137 0.2648,-0.7115 0.0944,-0.1979 0.1939,-0.362 0.2959,-0.5029 0.6256,-0.813 1.2155,-0.9125 1.8559,-0.9357 z m -6e-4,1.5721 c 0.2089,-0.023 0.4944,0.1837 0.5964,0.3957 0.0391,0.0677 0.0788,0.1502 0.1188,0.2571 0.0397,0.1069 0.0794,0.2381 0.1182,0.4153 0.0391,0.1771 0.0771,0.4008 0.1054,0.7276 0.0281,0.3269 0.0462,0.7572 0.0465,1.196 0,0.4391 -0.0184,0.8866 -0.0462,1.2203 -0.028,0.3336 -0.0657,0.553 -0.1037,0.7259 -0.0819,0.3388 -0.1333,0.5417 -0.3402,0.8048 -0.3067,0.3101 -0.6262,0.318 -0.9422,0 -0.1075,-0.1281 -0.1624,-0.2404 -0.2257,-0.4042 -0.0382,-0.1021 -0.0765,-0.2279 -0.1145,-0.4006 -0.038,-0.1729 -0.0757,-0.3923 -0.1037,-0.7259 -0.0278,-0.3337 -0.0462,-0.7812 -0.0462,-1.2382 0,-0.4569 0.0184,-0.9232 0.0459,-1.2628 0.0275,-0.3396 0.0643,-0.5522 0.1012,-0.7197 0.0955,-0.3629 0.1233,-0.5913 0.4362,-0.8759 0.1194,-0.0879 0.2325,-0.1143 0.3538,-0.1154"
         id="path6154"
         style="fill:#ffffff;fill-opacity:1;fill-rule:evenodd;stroke:none" />
      <path
         d="m 257.279,483.7912 c -0.5596,-0.2355 -1.0962,-0.1955 -1.7048,0.5477 -0.0998,0.1301 -0.1874,0.2738 -0.2616,0.4351 -0.0743,0.161 -0.1355,0.3396 -0.1846,0.5655 -0.049,0.2262 -0.0861,0.5001 -0.1077,0.8167 -0.0215,0.3169 -0.0275,0.6766 -0.0167,0.9527 0.0187,0.5111 0.1071,0.8116 0.2888,1.1914 0.0845,0.1712 0.1846,0.3342 0.2892,0.472 0.6556,0.7908 1.3155,0.8796 2.0387,0.3135 l -0.009,3.3749 1.6645,0 0,-8.759 -1.6645,0 -0.002,0.3072 c -0.1024,-0.0878 -0.2163,-0.1627 -0.3305,-0.2177 z m 0.2001,4.0391 c 0.1763,-0.218 0.212,-0.405 0.2486,-0.6369 0.0144,-0.1165 0.0215,-0.2642 0.0227,-0.472 10e-4,-0.2075 -0.004,-0.4751 -0.0122,-0.6653 -0.0315,-0.4325 -0.0318,-0.6256 -0.3118,-0.9433 -0.2968,-0.2914 -0.6347,0.1088 -0.7359,0.4532 -0.0746,0.2206 -0.0748,0.4397 -0.0842,0.7657 -0.003,0.2046 -10e-4,0.447 0.006,0.6176 0.0246,0.4459 0.0586,0.5726 0.3407,0.9284 0.1814,0.1584 0.3495,0.146 0.5264,-0.0474"
         id="path6156"
         style="fill:#ffffff;fill-opacity:1;fill-rule:evenodd;stroke:none" />
      <path
         d="m 263.38,489.3267 c 0.4473,0.0525 0.8671,-0.0456 1.3597,-0.6567 0.0998,-0.1302 0.1874,-0.2739 0.2617,-0.4352 0.0743,-0.161 0.1355,-0.3396 0.1845,-0.5658 0.0491,-0.2259 0.0862,-0.4997 0.108,-0.8163 0.0213,-0.317 0.0272,-0.6767 0.0167,-0.9528 -0.0187,-0.5113 -0.1074,-0.8115 -0.2888,-1.1914 -0.0848,-0.1715 -0.1845,-0.3342 -0.2891,-0.4719 -0.6557,-0.7912 -1.3156,-0.8796 -2.039,-0.3135 l 0.009,-1.914 -1.6642,-0.5312 0,7.8293 1.6642,0 0.002,-0.3076 c 0.2089,0.1795 0.4484,0.2926 0.6755,0.3271 z m -0.6483,-3.9982 c -0.0851,0.1743 -0.1196,0.2979 -0.1454,0.487 -0.0145,0.1165 -0.0213,0.2642 -0.0224,0.4719 -10e-4,0.2075 0.003,0.4751 0.0122,0.665 0.0311,0.4329 0.0317,0.6259 0.3115,0.9437 0.2968,0.2914 0.6347,-0.1091 0.7361,-0.4533 0.0743,-0.2205 0.0749,-0.4399 0.084,-0.7656 0.003,-0.2047 0.001,-0.447 -0.006,-0.6177 -0.0247,-0.4461 -0.0584,-0.5726 -0.3405,-0.9286 -0.2171,-0.2271 -0.5147,-0.0434 -0.6298,0.1976"
         id="path6158"
         style="fill:#ffffff;fill-opacity:1;fill-rule:evenodd;stroke:none" />
      <path
         d="m 267.8031,489.0609 c -0.1808,-0.1304 -0.3415,-0.2912 -0.4745,-0.47 -0.1329,-0.1792 -0.2381,-0.3765 -0.3234,-0.7243 -0.0856,-0.3478 -0.1514,-0.8458 -0.1514,-1.3445 0,-0.4986 0.0661,-0.9978 0.152,-1.3464 0.0859,-0.349 0.1916,-0.5477 0.3254,-0.7277 0.6752,-0.8504 1.5046,-1.0046 2.3357,-0.7693 0.2072,0.0661 0.4077,0.1661 0.5885,0.2968 0.1809,0.1307 0.3424,0.2922 0.4759,0.4725 0.1338,0.18 0.2396,0.3787 0.3255,0.7277 0.0858,0.3486 0.1519,0.8478 0.1519,1.3464 0,0.4987 -0.0658,0.9967 -0.1514,1.3445 -0.0853,0.3478 -0.1905,0.5451 -0.3234,0.7243 -0.6758,0.8489 -1.5058,1.0017 -2.3417,0.7667 -0.2078,-0.0663 -0.4085,-0.1664 -0.5891,-0.2967 z m 0.7512,-1.2297 c -0.0473,-0.091 -0.0683,-0.1865 -0.0825,-0.4062 -0.0141,-0.22 -0.0215,-0.5638 -0.0218,-0.8983 0,-0.3345 0.007,-0.6596 0.0218,-0.8635 0.0148,-0.2038 0.0366,-0.2863 0.0845,-0.3707 0.1741,-0.3002 0.464,-0.3898 0.7401,-0.2279 0.0828,0.0544 0.1548,0.1391 0.2024,0.2231 0.0474,0.0836 0.0701,0.1666 0.0828,0.3716 0.013,0.2046 0.0162,0.5312 0.0162,0.8674 0,0.3359 -0.003,0.6814 -0.0159,0.9022 -0.0125,0.2209 -0.034,0.317 -0.0811,0.4074 -0.1729,0.3112 -0.4674,0.3909 -0.7421,0.2279 -0.0833,-0.0556 -0.157,-0.142 -0.2044,-0.233"
         id="path6160"
         style="fill:#ffffff;fill-opacity:1;fill-rule:evenodd;stroke:none" />
      <path
         d="m 275.6021,485.5462 c -0.0751,-0.1406 -0.0726,-0.3093 -0.3659,-0.5159 -0.1792,-0.0794 -0.345,-0.0621 -0.5457,0.2616 -0.0394,0.072 -0.0731,0.1585 -0.1023,0.2585 -0.0295,0.1001 -0.0545,0.2135 -0.0695,0.4802 -0.0153,0.2665 -0.0207,0.6863 -0.0119,0.9556 0.009,0.269 0.0312,0.388 0.0584,0.4941 0.0689,0.2063 0.0697,0.3631 0.362,0.5819 0.1794,0.0944 0.3657,0.0471 0.5505,-0.2432 0.0986,-0.1508 0.1638,-0.3609 0.163,-0.5627 l 1.3283,0.5667 c -0.0179,0.223 -0.0683,0.4439 -0.1412,0.6321 -0.0728,0.1879 -0.1678,0.343 -0.2903,0.4666 -0.2984,0.278 -0.5896,0.3775 -0.9068,0.4368 -0.1822,0.0306 -0.3954,0.0422 -0.6006,0.0391 -0.667,-0.0153 -1.1492,-0.1176 -1.7413,-0.9388 -0.1106,-0.1673 -0.2087,-0.3583 -0.2903,-0.567 -0.0814,-0.2083 -0.1466,-0.4342 -0.1789,-0.7965 -0.0326,-0.3617 -0.0326,-0.8597 0,-1.2217 0.0323,-0.362 0.0975,-0.5879 0.1789,-0.7966 0.0816,-0.2083 0.1797,-0.3996 0.2903,-0.5666 0.3846,-0.5644 0.8013,-0.8002 1.1692,-0.8816 0.3875,-0.0663 1.0491,-0.1233 1.5537,0.1619 0.1349,0.0742 0.2716,0.1678 0.4037,0.2849 0.3044,0.2599 0.4901,0.6202 0.5181,0.9759 l -1.2486,0.673 c -0.0269,-0.0545 -0.053,-0.1094 -0.0828,-0.1783 z m -0.8782,5.794 -1.2379,0 0.9298,-1.5948 c 0.4416,0 0.8833,0 1.3249,0 l 0.8856,1.5948 -1.2376,0 -0.3325,-0.6302"
         id="path6162"
         style="fill:#ffffff;fill-opacity:1;fill-rule:evenodd;stroke:none" />
      <path
         d="m 278.6992,490.1196 1.2856,0 1.3816,1.5157 -1.649,0 -1.0182,-1.5157 z m -0.174,-0.9216 0,-5.5306 1.6733,0 0,5.5306"
         id="path6164"
         style="fill:#ffffff;fill-opacity:1;fill-rule:evenodd;stroke:none" />
      <path
         d="m 283.5011,489.3318 -1.6562,0 1.6647,-5.6644 c 0.4816,0 0.9635,0 1.4451,0 l 1.6648,5.6644 -1.6563,0 -0.731,-2.5869"
         id="path6166"
         style="fill:#ffffff;fill-opacity:1;fill-rule:evenodd;stroke:none" />
      <path
         d="m 290.0667,483.6934 1.5676,0 c 0,1.1455 0,2.2904 0,3.4356 -0.004,0.2424 -0.0371,0.4842 -0.0856,0.694 -0.085,0.3682 -0.233,0.6732 -0.542,0.9816 -0.7852,0.7977 -1.7918,0.5805 -2.7286,0.6177 l -0.2214,-1.3017 0.6642,0 c 0.2191,0 0.4382,-0.006 0.5757,-0.015 0.2846,-0.017 0.3495,-0.0661 0.5516,-0.2345 0.1596,-0.2086 0.1587,-0.354 0.1859,-0.6043 -0.3393,0.1928 -0.8447,0.2169 -1.3728,0.125 -0.369,-0.0669 -0.7903,-0.4212 -0.9745,-0.7512 -0.1783,-0.2919 -0.2064,-0.5862 -0.2191,-0.9513 -0.005,-0.2129 0.003,-0.4498 0.026,-0.6338 0.0423,-0.3351 0.1415,-0.5448 0.3442,-0.7991 0.3512,-0.4104 0.7089,-0.5567 1.0811,-0.5842 0.3061,-0.0318 0.7208,0.0459 1.1407,0.1959 l 0.007,-0.1747 z m -0.6412,2.5654 c -0.1136,-0.0244 -0.2758,-0.144 -0.3092,-0.2409 -0.0882,-0.2163 -0.1548,-0.5443 0.0439,-0.8964 0.2381,-0.2349 0.5431,-0.3135 0.8654,0.0477 0.1491,0.2151 0.135,0.3928 0.0902,0.693 -0.1069,0.334 -0.436,0.4717 -0.6903,0.3966"
         id="path6168"
         style="fill:#ffffff;fill-opacity:1;fill-rule:evenodd;stroke:none" />
      <path
         d="m 295.7199,483.7912 c -0.5593,-0.2355 -1.0962,-0.1955 -1.7045,0.5477 -0.0998,0.1301 -0.1874,0.2738 -0.2616,0.4351 -0.0743,0.161 -0.1355,0.3396 -0.1849,0.5655 -0.049,0.2262 -0.0861,0.5001 -0.1077,0.8167 -0.0215,0.3169 -0.0275,0.6766 -0.0167,0.9527 0.0187,0.5111 0.1074,0.8116 0.2889,1.1914 0.0847,0.1712 0.1845,0.3342 0.2891,0.472 0.6556,0.7908 1.3155,0.8796 2.0389,0.3135 l -0.009,3.3749 1.6642,0 0,-8.759 -1.6642,0 -0.002,0.3072 c -0.1021,-0.0878 -0.216,-0.1627 -0.3305,-0.2177 z m 0.2004,4.0391 c 0.176,-0.218 0.212,-0.405 0.2486,-0.6369 0.0144,-0.1165 0.0212,-0.2642 0.0224,-0.472 10e-4,-0.2075 -0.003,-0.4751 -0.0122,-0.6653 -0.0312,-0.4325 -0.0318,-0.6256 -0.3115,-0.9433 -0.2971,-0.2914 -0.635,0.1088 -0.7362,0.4532 -0.0743,0.2206 -0.0748,0.4397 -0.0839,0.7657 -0.003,0.2046 -0.001,0.447 0.006,0.6176 0.0246,0.4459 0.0584,0.5726 0.3404,0.9284 0.1817,0.1584 0.3495,0.146 0.5267,-0.0474"
         id="path6170"
         style="fill:#ffffff;fill-opacity:1;fill-rule:evenodd;stroke:none" />
      <path
         d="m 301.0873,483.6674 0,8.7536 -1.6733,0 0,-8.7536"
         id="path6172"
         style="fill:#ffffff;fill-opacity:1;fill-rule:evenodd;stroke:none" />
      <path
         d="m 303.7363,489.0609 c -0.1809,-0.1304 -0.3416,-0.2912 -0.4746,-0.47 -0.1329,-0.1792 -0.2381,-0.3765 -0.3234,-0.7243 -0.0856,-0.3478 -0.1514,-0.8458 -0.1514,-1.3445 0,-0.4986 0.0661,-0.9978 0.152,-1.3464 0.0859,-0.349 0.1916,-0.5477 0.3254,-0.7277 0.6752,-0.8504 1.5046,-1.0046 2.3357,-0.7693 0.2072,0.0661 0.4077,0.1661 0.5885,0.2968 0.1809,0.1307 0.3424,0.2922 0.4759,0.4725 0.1338,0.18 0.2396,0.3787 0.3255,0.7277 0.0858,0.3486 0.1519,0.8478 0.1519,1.3464 0,0.4987 -0.0658,0.9967 -0.1511,1.3445 -0.0856,0.3478 -0.1908,0.5451 -0.3237,0.7243 -0.6758,0.8489 -1.5058,1.0017 -2.3417,0.7667 -0.2081,-0.0663 -0.4085,-0.1664 -0.589,-0.2967 z m 0.7511,-1.2297 c -0.0476,-0.091 -0.0683,-0.1865 -0.0825,-0.4062 -0.0141,-0.22 -0.0215,-0.5638 -0.0218,-0.8983 0,-0.3345 0.007,-0.6596 0.0218,-0.8635 0.0148,-0.2038 0.0366,-0.2863 0.0842,-0.3707 0.1744,-0.3002 0.4643,-0.3898 0.7404,-0.2279 0.0825,0.0544 0.1548,0.1391 0.2024,0.2231 0.0474,0.0836 0.0701,0.1666 0.0828,0.3716 0.013,0.2046 0.0162,0.5312 0.0162,0.8674 0,0.3359 -0.003,0.6814 -0.0159,0.9022 -0.0125,0.2209 -0.034,0.317 -0.0811,0.4074 -0.1729,0.3112 -0.4674,0.3909 -0.7421,0.2279 -0.0833,-0.0556 -0.157,-0.142 -0.2044,-0.233"
         id="path6174"
         style="fill:#ffffff;fill-opacity:1;fill-rule:evenodd;stroke:none" />
      <path
         d="m 244.2056,439.2703 15.0111,0 c 1.3224,0 2.4041,1.167 2.4041,2.5937 l 0,14.6316 c 0,1.4267 -1.0817,2.5937 -2.4041,2.5937 l -15.0111,0 c -1.3224,0 -2.4041,-1.167 -2.4041,-2.5937 l 0,-14.6316 c 0,-1.4267 1.0817,-2.5937 2.4041,-2.5937"
         id="path6176"
         style="fill:#ffffff;fill-opacity:1;fill-rule:evenodd;stroke:none" />
      <path
         d="m 244.2056,439.518 15.0111,0 0,-0.4954 -15.0111,0 0,0.4954 z m 15.0111,0 0.002,0 0,-0.4954 -0.002,0 0,0.4954 z m 0.002,0 c 0.589,3e-4 1.1265,0.2625 1.5163,0.6832 l 0.3605,-0.3368 c -0.4804,-0.5187 -1.1452,-0.8413 -1.8768,-0.8418 l 0,0.4954 z m 1.5163,0.6832 c 0.3931,0.4249 0.638,1.0117 0.6389,1.6583 l 0.4938,0 c -0.001,-0.7753 -0.2968,-1.4817 -0.7722,-1.9951 l -0.3605,0.3368 z m 0.6389,1.6583 0,0.004 0.4938,0 0,-0.004 -0.4938,0 z m 0,0.004 0,14.6316 0.4938,0 0,-14.6316 -0.4938,0 z m 0,14.6316 0,0.002 0.4938,0 0,-0.002 -0.4938,0 z m 0,0.002 c -3e-4,0.6477 -0.2461,1.2359 -0.6401,1.6611 l 0.3606,0.3384 c 0.4759,-0.5136 0.7727,-1.222 0.7733,-1.9995 l -0.4938,0 z m -0.6401,1.6611 c -0.3897,0.4203 -0.9263,0.6817 -1.5131,0.6825 l 0,0.4955 c 0.7305,-0.001 1.3944,-0.3225 1.8737,-0.8396 l -0.3606,-0.3384 z m -1.5131,0.6825 -0.004,0 0,0.4955 0.004,0 0,-0.4955 z m -0.004,0 -15.0111,0 0,0.4955 15.0111,0 0,-0.4955 z m -15.0111,0 -0.002,0 0,0.4955 0.002,0 0,-0.4955 z m -0.002,0 c -0.589,-2e-4 -1.1265,-0.2622 -1.5163,-0.6831 l -0.3605,0.3367 c 0.4802,0.5188 1.1452,0.8414 1.8768,0.8419 l 0,-0.4955 z m -1.5163,-0.6831 c -0.3931,-0.4246 -0.638,-1.012 -0.6389,-1.6583 l -0.4938,0 c 0.001,0.7753 0.2968,1.482 0.7722,1.995 l 0.3605,-0.3367 z m -0.6389,-1.6583 0,-0.004 -0.4938,0 0,0.004 0.4938,0 z m 0,-0.004 0,-14.6316 -0.4938,0 0,14.6316 0.4938,0 z m 0,-14.6316 0,-0.002 -0.4938,0 0,0.002 0.4938,0 z m 0,-0.002 c 3e-4,-0.6471 0.2455,-1.2359 0.6401,-1.6611 l -0.3606,-0.3384 c -0.4765,0.5139 -0.7727,1.2223 -0.7733,1.9995 l 0.4938,0 z m 0.6401,-1.6611 c 0.3897,-0.4203 0.9261,-0.6817 1.5131,-0.6826 l 0,-0.4954 c -0.7308,10e-4 -1.3944,0.3225 -1.8737,0.8396 l 0.3606,0.3384 z m 1.5131,-0.6826 0.004,0 0,-0.4954 -0.004,0"
         id="path6178"
         style="fill:#1f1917;fill-opacity:1;fill-rule:nonzero;stroke:none" />
      <path
         d="m 249.0381,455.5678 0,0.453"
         id="path6180"
         style="fill:none;stroke:#ffffff;stroke-width:0.21600001;stroke-linecap:butt;stroke-linejoin:miter;stroke-miterlimit:10;stroke-opacity:1;stroke-dasharray:none" />
      <path
         d="m 254.4712,456.5018 0,-14.4604 2.2074,0 0,-0.2548 -10.046,0 0,-0.7072 -2.1223,0 0,0.2829 1.8394,0 0,0.6791 2.6884,0 0,10.8667 -0.8773,0 c 0,-2.6884 0,-5.4051 0,-8.1219 -0.0567,-0.2545 -0.1982,-0.5941 -0.6792,-0.7922 -0.4244,-0.1415 -0.9621,-0.1415 -1.33,0.5944 -0.0567,0.1414 -0.0567,0.2545 -0.0848,0.396 0.0281,2.7167 0,5.4615 0.0281,8.1782 0,0.2546 0.3396,0.5094 0.566,0.4811 l 0.7356,0 c 0,0.5377 0,1.0754 0,1.6412 0.0284,0.1982 0.1134,0.3963 0.2549,0.5944 l 1.811,1.5563 c 0.2829,0.1414 0.5378,0.2548 0.8207,0.3112 1.1035,-0.0281 2.1789,0.0283 3.2825,-0.0281 0.3679,-0.0567 0.8773,-0.5944 0.9056,-1.0187 l 0,-0.1982 z"
         id="path6182"
         style="fill:#1f1917;fill-opacity:1;fill-rule:evenodd;stroke:#1f1917;stroke-width:0.21600001;stroke-linecap:butt;stroke-linejoin:miter;stroke-miterlimit:10;stroke-opacity:1;stroke-dasharray:none" />
      <path
         d="m 251.7829,455.4547 c -0.3113,-0.0564 -0.3113,-0.6225 0.085,-0.6225 0.2829,0 0.481,0.5094 0.0564,0.6225 l 0.2265,1.3017 0.9904,0 0,-3.1975 -2.6033,0 0,3.1975 1.0752,0 0.1698,-1.3017 z"
         id="path6184"
         style="fill:#ffffff;fill-opacity:1;fill-rule:evenodd;stroke:#1f1917;stroke-width:0.21600001;stroke-linecap:butt;stroke-linejoin:miter;stroke-miterlimit:10;stroke-opacity:1;stroke-dasharray:none" />
      <path
         d="m 247.3965,444.9844 c 0.0567,-0.2262 -0.4527,-0.4811 -0.5374,-0.0284 0,2.6037 -0.0284,5.2353 0,7.8387 0.0283,0.0567 0.1131,0.1134 0.1698,0.1134 l 0.3676,0 0,-7.9237 z"
         id="path6186"
         style="fill:#ffffff;fill-opacity:1;fill-rule:evenodd;stroke:#1f1917;stroke-width:0.21600001;stroke-linecap:butt;stroke-linejoin:miter;stroke-miterlimit:10;stroke-opacity:1;stroke-dasharray:none" />
      <path
         d="m 248.2739,455.3133 0.7642,0.7075 0,-2.3771 -0.8773,0 c 0,0.5093 -0.0284,1.0187 0.0283,1.5281 0.0283,0.0284 0.0564,0.0848 0.0848,0.1415 z"
         id="path6188"
         style="fill:#ffffff;fill-opacity:1;fill-rule:evenodd;stroke:#1f1917;stroke-width:0.21600001;stroke-linecap:butt;stroke-linejoin:miter;stroke-miterlimit:10;stroke-opacity:1;stroke-dasharray:none" />
      <path
         d="m 247.3965,444.956 0,0.0284"
         id="path6190"
         style="fill:none;stroke:#ffffff;stroke-width:0.21600001;stroke-linecap:butt;stroke-linejoin:miter;stroke-miterlimit:10;stroke-opacity:1;stroke-dasharray:none" />
      <path
         d="m 246.0668,444.9844 0,-0.0284"
         id="path6192"
         style="fill:none;stroke:#ffffff;stroke-width:0.21600001;stroke-linecap:butt;stroke-linejoin:miter;stroke-miterlimit:10;stroke-opacity:1;stroke-dasharray:none" />
      <path
         d="m 270.0011,439.2703 15.0109,0 c 1.3226,0 2.4041,1.167 2.4041,2.5937 l 0,14.6316 c 0,1.4267 -1.0815,2.5937 -2.4041,2.5937 l -15.0109,0 c -1.3223,0 -2.404,-1.167 -2.404,-2.5937 l 0,-14.6316 c 0,-1.4267 1.0817,-2.5937 2.404,-2.5937"
         id="path6194"
         style="fill:#ffffff;fill-opacity:1;fill-rule:evenodd;stroke:none" />
      <path
         d="m 270.0011,439.518 15.0109,0 0,-0.4954 -15.0109,0 0,0.4954 z m 15.0109,0 0.002,0 0,-0.4954 -0.002,0 0,0.4954 z m 0.002,0 c 0.589,3e-4 1.1265,0.2623 1.5165,0.6832 l 0.3606,-0.3368 c -0.4805,-0.5187 -1.1455,-0.8413 -1.8771,-0.8418 l 0,0.4954 z m 1.5165,0.6832 c 0.3929,0.4246 0.6378,1.012 0.6387,1.6583 l 0.4938,0 c -0.001,-0.775 -0.2968,-1.4814 -0.7719,-1.9951 l -0.3606,0.3368 z m 0.6387,1.6583 0,0.004 0.4938,0 0,-0.004 -0.4938,0 z m 0,0.004 0,14.6316 0.4938,0 0,-14.6316 -0.4938,0 z m 0,14.6316 0,0.002 0.4938,0 0,-0.002 -0.4938,0 z m 0,0.002 c -3e-4,0.6474 -0.2455,1.2359 -0.6401,1.6611 l 0.3606,0.3384 c 0.4765,-0.5139 0.7727,-1.222 0.7733,-1.9995 l -0.4938,0 z m -0.6401,1.6611 c -0.3898,0.4203 -0.9261,0.6817 -1.5131,0.6825 l 0,0.4955 c 0.7307,-0.001 1.3943,-0.3225 1.8737,-0.8396 l -0.3606,-0.3384 z m -1.5131,0.6825 -0.004,0 0,0.4955 0.004,0 0,-0.4955 z m -0.004,0 -15.0109,0 0,0.4955 15.0109,0 0,-0.4955 z m -15.0109,0 -0.002,0 0,0.4955 0.002,0 0,-0.4955 z m -0.002,0 c -0.589,-2e-4 -1.1264,-0.2622 -1.5162,-0.6831 l -0.3606,0.3367 c 0.4802,0.5188 1.1452,0.8414 1.8768,0.8419 l 0,-0.4955 z m -1.5162,-0.6831 c -0.3932,-0.4246 -0.6381,-1.012 -0.6389,-1.6583 l -0.4938,0 c 0.001,0.7753 0.2968,1.482 0.7721,1.995 l 0.3606,-0.3367 z m -0.6389,-1.6583 0,-0.004 -0.4938,0 0,0.004 0.4938,0 z m 0,-0.004 0,-14.6316 -0.4938,0 0,14.6316 0.4938,0 z m 0,-14.6316 0,-0.002 -0.4938,0 0,0.002 0.4938,0 z m 0,-0.002 c 3e-4,-0.6471 0.2454,-1.2359 0.64,-1.6611 l -0.3605,-0.3384 c -0.4765,0.5139 -0.7728,1.2223 -0.7733,1.9995 l 0.4938,0 z m 0.64,-1.6611 c 0.3898,-0.4203 0.9261,-0.6817 1.5132,-0.6826 l 0,-0.4954 c -0.7308,10e-4 -1.3944,0.3225 -1.8737,0.8396 l 0.3605,0.3384 z m 1.5132,-0.6826 0.004,0 0,-0.4954 -0.004,0"
         id="path6196"
         style="fill:#1f1917;fill-opacity:1;fill-rule:nonzero;stroke:none" />
      <path
         d="m 271.0324,447.0936 0,1.4613 8.2584,-5.4377 0,-1.4613 0.9516,0.0341 0,1.9712 3.7724,2.7527 0.034,-0.7815 0.8495,0 c 0,1.6991 0,3.3984 -0.034,5.0978 -0.068,0.1698 -0.2378,0.2038 -0.3739,0.1018 l -1.631,-1.1554 c -1.8355,1.7671 -3.6706,2.6847 -5.5058,3.3304 l -1.2234,1.9712 c -0.034,0.6457 0.034,1.2575 -0.034,1.9032 -0.068,0.136 -0.2719,0.1701 -0.3739,0.102 -1.8011,-1.2574 -3.5685,-2.4808 -5.3697,-3.7383 -0.17,-0.2041 -0.2378,-0.4079 -0.2378,-0.6117 l 0,-5.5398"
         id="path6198"
         style="fill:#1f1917;fill-opacity:1;fill-rule:evenodd;stroke:none" />
      <path
         d="m 271.0664,450.2883 1.3252,-0.8496 -1.3252,2.039"
         id="path6200"
         style="fill:#ffffff;fill-opacity:1;fill-rule:evenodd;stroke:none" />
      <path
         d="m 271.3723,451.5457 1.2234,-1.8351 4.4181,3.3304 -1.1217,1.7334"
         id="path6202"
         style="fill:#ffffff;fill-opacity:1;fill-rule:evenodd;stroke:none" />
      <path
         d="m 277.9313,452.5654 c 1.5633,-0.5777 3.1267,-1.4616 4.724,-3.0589 -0.9856,-0.6795 -1.9712,-1.3592 -2.9568,-2.107 -0.2039,-0.1698 -0.2379,-0.3739 -0.2719,-0.5777 l 0,-1.9712 -6.8309,4.5201 4.5879,3.4325 c 0.2721,-0.0681 0.5099,-0.1698 0.7477,-0.2378"
         id="path6204"
         style="fill:#ffffff;fill-opacity:1;fill-rule:evenodd;stroke:none" />
      <path
         d="m 295.7964,439.2703 15.0112,0 c 1.3223,0 2.404,1.167 2.404,2.5937 l 0,14.6316 c 0,1.4267 -1.0817,2.5937 -2.404,2.5937 l -15.0112,0 c -1.3224,0 -2.4038,-1.167 -2.4038,-2.5937 l 0,-14.6316 c 0,-1.4267 1.0814,-2.5937 2.4038,-2.5937"
         id="path6206"
         style="fill:#ffffff;fill-opacity:1;fill-rule:evenodd;stroke:none" />
      <path
         d="m 295.7964,439.518 15.0112,0 0,-0.4954 -15.0112,0 0,0.4954 z m 15.0112,0 0.002,0 0,-0.4954 -0.002,0 0,0.4954 z m 0.002,0 c 0.5891,3e-4 1.1265,0.2623 1.5163,0.6832 l 0.3606,-0.3368 c -0.4802,-0.5187 -1.1452,-0.8413 -1.8769,-0.8418 l 0,0.4954 z m 1.5163,0.6832 c 0.3932,0.4246 0.6381,1.0117 0.6389,1.6583 l 0.4938,0 c -10e-4,-0.7753 -0.2968,-1.4817 -0.7721,-1.9951 l -0.3606,0.3368 z m 0.6389,1.6583 0,0.004 0.4938,0 0,-0.004 -0.4938,0 z m 0,0.004 0,14.6316 0.4938,0 0,-14.6316 -0.4938,0 z m 0,14.6316 0,0.002 0.4938,0 0,-0.002 -0.4938,0 z m 0,0.002 c -3e-4,0.6474 -0.2455,1.2359 -0.64,1.6611 l 0.3605,0.3384 c 0.4765,-0.5139 0.7728,-1.222 0.7733,-1.9995 l -0.4938,0 z m -0.64,1.6611 c -0.3898,0.4203 -0.9261,0.6817 -1.5132,0.6825 l 0,0.4955 c 0.7308,-0.001 1.3944,-0.3225 1.8737,-0.8396 l -0.3605,-0.3384 z m -1.5132,0.6825 -0.004,0 0,0.4955 0.004,0 0,-0.4955 z m -0.004,0 -15.0112,0 0,0.4955 15.0112,0 0,-0.4955 z m -15.0112,0 -0.002,0 0,0.4955 0.002,0 0,-0.4955 z m -0.002,0 c -0.589,-2e-4 -1.1265,-0.2624 -1.5162,-0.6831 l -0.3606,0.3367 c 0.4805,0.5188 1.1452,0.8414 1.8768,0.8419 l 0,-0.4955 z m -1.5162,-0.6831 c -0.3929,-0.4244 -0.6378,-1.0117 -0.6387,-1.6583 l -0.4938,0 c 0.001,0.7753 0.2971,1.482 0.7719,1.995 l 0.3606,-0.3367 z m -0.6387,-1.6583 0,-0.004 -0.4938,0 0,0.004 0.4938,0 z m 0,-0.004 0,-14.6316 -0.4938,0 0,14.6316 0.4938,0 z m 0,-14.6316 0,-0.002 -0.4938,0 0,0.002 0.4938,0 z m 0,-0.002 c 3e-4,-0.6471 0.2455,-1.2359 0.6401,-1.6611 l -0.3606,-0.3384 c -0.4765,0.5139 -0.7727,1.2223 -0.7733,1.9995 l 0.4938,0 z m 0.6401,-1.6611 c 0.3895,-0.4201 0.9255,-0.6817 1.5128,-0.6826 l 0,-0.4954 c -0.7307,10e-4 -1.3943,0.3225 -1.8734,0.8396 l 0.3606,0.3384 z m 1.5128,-0.6826 0.004,0 0,-0.4954 -0.004,0"
         id="path6208"
         style="fill:#1f1917;fill-opacity:1;fill-rule:nonzero;stroke:none" />
      <path
         d="m 307.9556,451.0006 c -0.5037,-0.1482 -1.0077,-0.1482 -1.5117,0.0295 l -2.4605,-2.4307 c 1.8678,-1.6897 3.7352,-3.3792 5.6027,-5.0689 0.3852,-0.504 0.415,-1.1265 -0.3852,-1.5713 -0.3263,-0.1184 -0.6523,-0.1184 -0.9783,0.1188 l -5.3654,5.3949 c -1.7489,-1.749 -3.4979,-3.4979 -5.2767,-5.2172 -0.5037,-0.3557 -1.0669,-0.3557 -1.4819,0.2668 -0.2075,0.3855 -0.2075,0.7707 0.0887,1.1562 l 5.5434,4.9207 c -0.8597,0.8597 -1.6897,1.7192 -2.5494,2.5495 -0.8595,-0.3558 -1.7193,-0.0298 -2.579,0.9187 -0.7707,0.8895 -1.067,1.8082 -1.0967,2.6977 0.0297,0.2668 0.178,0.6225 0.6522,0.83 0.919,0.1777 1.8377,-0.2667 2.7865,-0.8597 0.415,-0.2965 1.0077,-0.7708 1.2744,-1.2748 0.1483,-0.4742 0.1188,-0.9187 -0.0887,-1.3932 0.919,-0.8002 1.8082,-1.6302 2.7272,-2.4307 l 2.7865,2.4899 c -0.1188,0.7708 0,1.5713 0.9485,2.342 0.1482,0.1483 0.2965,0.2668 0.4447,0.3558 0.741,0.4742 1.4525,0.9782 2.164,1.4227 0.1185,0.0297 0.2667,-0.1778 0.1185,-0.2962 -0.6818,-0.6225 -1.3933,-1.2155 -2.075,-1.8678 -0.1482,-0.1777 0.0593,-0.5632 0.3555,-0.4445 0.8005,0.5928 1.601,1.245 2.431,1.9565 0.1777,0.1185 0.4742,-0.1482 0.326,-0.3557 -0.6523,-0.7413 -1.334,-1.4525 -1.9565,-2.1938 -0.089,-0.1482 0.1185,-0.5037 0.415,-0.3852 0.0592,0.0295 0.089,0.0295 0.1482,0.1185 0.6225,0.6522 1.245,1.334 1.8973,1.9565 0.0887,0.089 0.3557,-0.1185 0.1777,-0.2965 -0.6225,-0.83 -1.2152,-1.66 -1.8972,-2.49 -0.3558,-0.3852 -0.8003,-0.83 -1.1858,-0.9485"
         id="path6210"
         style="fill:#1f1917;fill-opacity:1;fill-rule:evenodd;stroke:none" />
    </g>
  </g>
</svg>
