<?xml version="1.0" encoding="utf-8"?>
<!-- Generator: Adobe Illustrator 15.0.0, SVG Export Plug-In . SVG Version: 6.00 Build 0)  -->
<!DOCTYPE svg PUBLIC "-//W3C//DTD SVG 1.1//EN" "http://www.w3.org/Graphics/SVG/1.1/DTD/svg11.dtd">
<svg version="1.1" id="Vrstva_1" xmlns="http://www.w3.org/2000/svg" xmlns:xlink="http://www.w3.org/1999/xlink" x="0px" y="0px"
	 width="215px" height="300px" viewBox="0 0 215 300" enable-background="new 0 0 215 300" xml:space="preserve">
<path fill-rule="evenodd" clip-rule="evenodd" d="M193.638,1c2.672,0,5.345,0.572,7.828,1.718c2.48,0.954,4.77,2.482,6.681,4.392
	c4.009,4.008,5.92,9.354,5.92,14.509v253.732c0,2.672-0.384,5.345-1.528,7.825c-0.955,2.483-2.483,4.774-4.392,6.684
	c-4.009,4.008-9.355,5.917-14.509,5.917H21.619c-2.672,0-5.345-0.57-7.827-1.528c-2.482-0.953-4.773-2.48-6.682-4.389
	C3.1,285.848,1,280.312,1,275.351V21.619c0-2.672,0.572-5.346,1.718-7.828C3.672,11.31,5.2,9.019,7.11,7.11
	C11.119,3.1,16.464,1,21.619,1"/>
<path fill-rule="evenodd" clip-rule="evenodd" fill="#FFFFFF" d="M193.638,2.91c2.48,0,4.772,0.572,7.062,1.526
	c2.291,0.955,4.392,2.292,6.111,4.01c3.625,3.626,5.536,8.59,5.536,13.172v253.732c0,2.289-0.572,4.771-1.528,7.063
	c-0.952,2.289-2.289,4.39-4.008,6.108c-3.628,3.628-8.592,5.345-13.173,5.345H21.619c-2.482,0-4.964-0.38-7.064-1.336
	c-2.291-0.955-4.391-2.292-6.108-4.009c-3.628-3.628-5.537-8.592-5.537-13.172V21.619c0-2.482,0.572-4.964,1.526-7.064
	c0.956-2.291,2.292-4.391,4.01-6.108c3.626-3.628,8.59-5.537,13.172-5.537"/>
<path fill-rule="evenodd" clip-rule="evenodd" fill="#291770" d="M193.638,6.728c1.908,0,3.819,0.382,5.726,1.145
	c1.719,0.764,3.438,1.91,4.774,3.246c2.864,2.864,4.392,6.873,4.392,10.5v253.732c0,1.908-0.383,3.816-1.146,5.536
	c-0.765,1.908-1.909,3.625-3.245,4.961c-2.864,2.864-6.872,4.392-10.5,4.392H21.619c-1.908,0-3.818-0.38-5.727-1.145
	c-1.718-0.764-3.438-1.908-4.773-3.247c-3.055-3.053-4.391-6.872-4.391-10.497V21.619c0-1.908,0.382-3.818,1.145-5.728
	c0.764-1.718,1.91-3.436,3.246-4.772c2.864-3.054,6.874-4.39,10.5-4.39"/>
<path fill-rule="evenodd" clip-rule="evenodd" fill="#291770" d="M120.516,101.805c2.862,0.382,6.681-1.146,8.973-4.964
	c5.536-10.118,5.536-20.619,1.336-31.311c-1.146-3.246-5.728-7.637-9.546-7.255c-11.073,0.19-22.337,0.19-33.602,0.19v43.339"/>
<path fill-rule="evenodd" clip-rule="evenodd" fill="#FFFFFF" d="M112.878,265.613l-35.702,0.189c2.672-0.572,6.3-5.726,6.11-9.355
	c0-0.762,0-1.528-0.191-2.289l29.783-5.156v-41.047l-25.201,4.392l-21.001,21.955l-21.574,9.355
	c-1.526,1.145-1.908,2.862-1.526,4.391c0.572,3.629,1.146,7.446,1.908,11.263c0.382,0.575,1.338,1.147,2.1,1.147l14.51-2.675
	c0.572,2.483,1.528,5.155,5.154,7.639l0.956,0.381l-37.993,0.191v8.209h82.667 M142.28,243.657c0.381,2.48,2.29,5.726,5.154,7.445
	l0.954,0.574l-29.593-0.191v14.128h-5.918v8.59h15.464v-12.409h60.521v-10.309l-31.883,0.191l0.954-0.574
	c2.482-1.145,5.536-5.728,5.347-9.165l-0.192-1.908c8.21-1.527,16.229-2.674,24.438-4.392c0.763-0.382,1.719-1.526,1.719-2.673
	l-1.719-9.736c-0.382-0.955-1.527-2.1-2.481-2.673h-25.965l-34.175-14.701l-12.028,2.101v41.047L142.28,243.657z"/>
<path fill-rule="evenodd" clip-rule="evenodd" fill="#291770" d="M109.823,225.901v2.1l-25.965,4.582l10.5-16.61l13.173-2.481
	 M109.823,213.109l-0.382,0.191l0.382,1.908V213.109z M109.823,228.001v-2.1l0.19,1.909L109.823,228.001z M127.006,210.055
	l-17.183,3.055v2.1l2.101,12.41l34.557-6.108L127.006,210.055z"/>
<path fill-rule="evenodd" clip-rule="evenodd" fill="#FFFFFF" d="M89.395,182.754H68.012V27.919h37.611c1.718,0,3.437,0,5.346,0.192
	v21.573c-1.909-0.19-3.627-0.382-5.346-0.382H89.395v53.458h16.037c1.91,0,3.628-0.19,5.537-0.572v21.573
	c-1.909,0.192-3.627,0.382-5.346,0.382H89.205 M110.969,28.111c3.055,0.382,6.109,0.954,9.165,1.908
	c4.772,1.528,9.354,3.818,13.555,6.874c4.2,3.054,7.828,6.682,10.882,10.882c5.918,8.4,8.973,17.755,9.164,27.109v1.528
	c-0.191,4.772-0.954,9.354-2.291,14.128c-1.527,4.772-3.818,9.354-6.873,13.555c-3.054,4.01-6.682,7.828-10.882,10.882
	c-7.064,4.964-14.893,7.828-22.72,8.782v-21.573c0.955-0.192,1.719-0.382,2.673-0.764c2.674-0.764,5.346-2.1,7.637-3.818
	c2.291-1.72,4.392-3.628,5.918-6.11c5.155-7.064,6.302-15.465,3.819-23.675c-0.764-2.672-2.1-5.154-3.819-7.445
	c-1.526-2.292-3.627-4.392-5.918-6.11c-3.245-2.29-6.873-3.818-10.31-4.582V28.111z"/>
</svg>
