<?xml version="1.0" encoding="utf-8"?>
<!-- Generator: Adobe Illustrator 15.0.0, SVG Export Plug-In . SVG Version: 6.00 Build 0)  -->
<!DOCTYPE svg PUBLIC "-//W3C//DTD SVG 1.1//EN" "http://www.w3.org/Graphics/SVG/1.1/DTD/svg11.dtd">
<svg version="1.1" id="Vrstva_1" xmlns="http://www.w3.org/2000/svg" xmlns:xlink="http://www.w3.org/1999/xlink" x="0px" y="0px"
	 width="300px" height="300px" viewBox="0 0 300 300" enable-background="new 0 0 300 300" xml:space="preserve">
<path fill-rule="evenodd" clip-rule="evenodd" d="M31.066,297.784c-3.713,0-7.425-0.795-10.872-2.388
	c-3.447-1.324-6.628-3.445-9.28-6.097c-5.569-5.57-8.486-12.993-8.486-20.15V30.508c0-3.713,0.796-7.425,2.388-10.872
	c1.325-3.447,3.445-6.63,6.098-9.28c5.569-5.569,12.992-8.22,20.152-8.22h238.64c3.712,0,7.423,0.53,10.872,2.12
	c3.449,1.327,6.628,3.447,9.279,6.1c5.57,5.567,8.218,12.992,8.218,20.152v238.642c0,3.712-0.529,7.423-2.118,10.868
	c-1.327,3.449-3.449,6.632-6.1,9.282c-5.567,5.567-12.994,8.484-20.151,8.484"/>
<path fill-rule="evenodd" clip-rule="evenodd" fill="#FFFFFF" d="M31.066,289.829c-2.652,0-5.303-0.529-7.955-1.59
	c-2.386-1.061-4.772-2.654-6.628-4.51c-3.978-3.978-6.1-9.545-6.1-14.58V30.508c0-2.652,0.531-5.303,1.592-7.955
	c1.061-2.386,2.65-4.772,4.508-6.63c3.976-3.976,9.545-6.098,14.583-6.098h238.64c2.654,0,5.567,0.531,7.956,1.592
	c2.388,1.061,4.771,2.65,6.628,4.506c4.24,3.978,6.096,9.547,6.096,14.585v238.642c0,2.65-0.528,5.301-1.59,7.955
	c-1.061,2.385-2.65,4.77-4.506,6.625c-3.978,3.978-9.545,6.1-14.584,6.1"/>
<polyline fill-rule="evenodd" clip-rule="evenodd" fill="#009140" points="73.833,179.038 10.461,143.243 73.833,104 289.929,104 
	258.111,143.243 289.929,179.038 "/>
</svg>
