<?xml version="1.0" encoding="utf-8"?>
<!-- Generator: Adobe Illustrator 15.0.0, SVG Export Plug-In . SVG Version: 6.00 Build 0)  -->
<!DOCTYPE svg PUBLIC "-//W3C//DTD SVG 1.1//EN" "http://www.w3.org/Graphics/SVG/1.1/DTD/svg11.dtd">
<svg version="1.1" id="Vrstva_1" xmlns="http://www.w3.org/2000/svg" xmlns:xlink="http://www.w3.org/1999/xlink" x="0px" y="0px"
	 width="300px" height="180px" viewBox="0 0 300 180" enable-background="new 0 0 300 180" xml:space="preserve">
<path fill-rule="evenodd" clip-rule="evenodd" d="M2,13.744c0-1.31,0.291-2.619,0.727-3.781c0.436-1.164,1.164-2.182,2.036-3.055
	C6.799,4.872,9.272,4,11.743,4h277.921c1.308,0,2.616,0.29,3.779,0.726c1.164,0.438,2.328,1.164,3.2,2.182
	c1.892,1.892,2.765,4.363,2.765,6.836v152.703c0,1.31-0.146,2.617-0.729,3.781c-0.434,1.164-1.162,2.182-2.035,3.054
	c-1.89,2.035-4.508,2.909-6.979,2.909H11.743c-1.309,0-2.617-0.292-3.78-0.728c-1.164-0.437-2.182-1.164-3.2-2.182
	C2.873,171.393,2,168.919,2,166.447"/>
<path fill-rule="evenodd" clip-rule="evenodd" fill="#FFFFFF" d="M3.163,13.744c0-1.164,0.146-2.327,0.582-3.345
	c0.437-1.018,1.164-1.892,1.891-2.764c1.746-1.6,3.927-2.472,6.108-2.472h277.921c1.164,0,2.326,0.144,3.346,0.582
	c1.018,0.436,2.036,1.162,2.762,1.89c1.745,1.746,2.617,3.927,2.474,6.109v152.703c0,1.164-0.146,2.327-0.584,3.346
	c-0.435,1.018-1.018,1.89-1.89,2.763c-1.6,1.601-3.926,2.472-6.107,2.472H11.743c-1.163,0-2.326-0.146-3.344-0.582
	c-1.018-0.436-2.037-1.163-2.764-1.89c-1.745-1.745-2.473-3.927-2.473-6.108"/>
<path fill-rule="evenodd" clip-rule="evenodd" fill="#291770" d="M289.664,9.089c1.598-0.144,3.926,1.456,4.363,2.909
	c0.145,0.582,0.29,1.164,0.29,1.746v152.703c0.145,1.453-1.453,3.781-2.764,4.217c-0.582,0.292-1.163,0.437-1.89,0.437H11.743
	c-1.454,0.146-3.926-1.454-4.217-2.908c-0.291-0.581-0.436-1.163-0.436-1.745V13.744c-0.146-1.456,1.454-3.781,2.908-4.217
	c0.582-0.292,1.164-0.438,1.745-0.438"/>
<path fill-rule="evenodd" clip-rule="evenodd" fill="#FFFFFF" d="M285.301,97.076v3.054h-98.312c-3.346,0-5.673-0.146-7.563-0.872
	c-2.907-0.873-6.691-2.764-10.324-6.69c-4.655-5.235-6.255-10.762-6.255-16.288l-0.145-14.835h3.054l0.146,14.835
	c0.145,5.089,1.162,10.617,7.562,16.288c2.472,2.182,6.688,4.363,10.18,4.363C217.385,97.221,251.415,97.076,285.301,97.076"/>
<line fill="none" stroke="#FFFFFF" stroke-width="0.216" stroke-miterlimit="10" x1="146.995" y1="60.137" x2="146.995" y2="60.283"/>
<path fill-rule="evenodd" clip-rule="evenodd" fill="#FFFFFF" d="M101.33,57.083c0-3.491,0-6.836,0.146-10.326
	c0-1.6,2.618-3.199,4.653-4.073c0.582-0.29,1.309-1.018,1.746-1.744v6.107c-1.309,0-3.346,1.018-3.927,2.91
	c-0.29,1.454-0.145,3.345,2.182,4.653c0.582,0.292,1.164,0.436,1.746,0.436v8.727c-1.018,0.146-2.037,0-3.2-0.146
	c-0.146-0.144-0.291-0.29-0.291-0.582l0.145-3.926C103.075,59.409,101.33,58.391,101.33,57.083 M107.875,40.94
	c0.291-0.292,0.436-0.728,0.436-1.164c0.873-3.199,1.455-6.545,2.327-9.89c1.019-1.89,3.054-2.618,4.654-2.618
	c4.799,0,9.454,0,14.107,0v2.618c-5.09,0-10.325,0-15.416,0.146c-0.291,0.146-0.727,0.436-0.873,0.728l-2.472,10.906h18.761v7.563
	h-15.271v1.456h15.271v1.89h-15.271v1.31h15.271v4.943h-18.324c0,1.6,0,3.055-0.146,4.509c-0.145,0.29-0.436,0.436-0.727,0.436
	c-0.727,0-1.6,0-2.327,0v-8.727c1.163,0.146,2.472-0.436,3.635-2.182c0.582-1.744,0.727-3.779-1.891-5.381
	c-0.582-0.29-1.018-0.29-1.454-0.436c-0.146,0-0.146,0-0.291,0V40.94z M129.398,27.268c5.09,0,10.035,0,15.125,0
	c1.163,0.146,3.344,1.456,3.781,3.346c0.872,3.199,1.6,6.399,2.618,9.744v0.146v6.543c-1.164,0-3.346,1.018-3.781,2.91
	c-0.291,1.454-0.291,3.345,2.036,4.653c0.582,0.292,1.164,0.436,1.746,0.436v8.727c-1.164,0.146-2.328,0.146-3.636-0.146
	c-0.145-0.144-0.291-0.29-0.291-0.582v-4.217h-17.597v-4.943h15.417v-1.31h-15.417v-1.89h15.417v-1.456h-15.417v-7.563h18.47
	l-2.327-11.052c-0.146-0.146-0.437-0.582-0.873-0.728c-5.09,0-10.18,0-15.271,0V27.268z M150.922,40.504
	c0.727,1.454,2.762,2.18,4.508,3.2c1.308,1.018,1.6,2.182,1.6,3.343c0,3.491,0.292,6.981-0.146,10.472
	c-0.58,1.308-1.601,1.454-2.908,1.454c0,1.454,0.146,2.91,0,4.363c-0.146,0.29-0.582,0.436-0.728,0.436c-0.727,0-1.455,0-2.327,0
	v-8.727c1.309,0.146,2.617-0.436,3.634-2.326c0.728-1.6,0.874-3.635-1.89-5.237c-0.582-0.29-1.018-0.29-1.454-0.436
	c0,0-0.146,0-0.291,0V40.504z"/>
<polyline fill-rule="evenodd" clip-rule="evenodd" fill="#FFFFFF" points="242.106,83.841 242.106,65.372 232.945,65.372 
	232.945,83.841 "/>
<polyline fill-rule="evenodd" clip-rule="evenodd" fill="#FFFFFF" points="209.386,83.841 209.386,48.792 206.04,48.938 
	237.309,30.614 267.848,48.938 264.068,48.792 264.068,83.841 244.288,83.841 244.288,62.9 230.472,62.9 230.472,83.841 "/>
<polyline fill-rule="evenodd" clip-rule="evenodd" fill="#291770" points="232.8,58.973 241.526,58.973 241.526,47.629 
	232.8,47.629 "/>
<polyline fill-rule="evenodd" clip-rule="evenodd" fill="#FFFFFF" points="233.525,48.356 240.942,48.356 240.942,58.245 
	233.525,58.245 "/>
<path fill-rule="evenodd" clip-rule="evenodd" fill="#FFFFFF" d="M113.836,137.07c2.473,0,4.509,2.035,4.509,4.653
	c0,2.473-2.037,4.509-4.509,4.509c-2.618,0-4.653-2.036-4.653-4.509C109.183,139.105,111.219,137.07,113.836,137.07"/>
<path fill-rule="evenodd" clip-rule="evenodd" fill="#FFFFFF" d="M51.592,77.588c1.455-0.29,3.781-2.908,3.49-4.799
	c-0.145-1.308-0.145-2.618-2.182-4.217c-2.036-1.164-4.362-1.746-6.979,1.164c-1.31,1.89-1.455,4.071,0.145,5.963
	c0.436,0.582,1.018,1.018,1.745,1.454l-1.309,3.2c-3.781,1.164-7.708,0.872-11.343,4.799c-2.037,2.036-4.217,4.509-6.399,6.835
	c-1.891,2.327-3.346,3.927-4.073,5.091c-1.309,2.036-2.472,4.8-4.072,7.563c-1.018,1.453-1.745,2.472-2.036,3.635
	c-0.146,0.437-0.291,1.019,0,1.454c0.291,0.582,1.454,0.728,2.036-0.146c0.873-1.018,1.455-2.035,2.618-3.489
	c1.455-1.745,3.055-4.509,4.509-6.835c2.036-2.617,5.526-4.799,8.144-6.836c0.727-0.58,1.6-1.162,2.327-1.89
	c-0.291,2.181-0.582,4.217-1.018,6.109c-0.727,3.635-1.164,6.107-1.745,9.017c-0.437,1.454-1.019,3.054-1.6,4.363
	c-0.582,1.308-1.019,2.472-1.891,4.507c-0.728,2.036-1.891,5.092-2.909,7.709c-0.873,2.617-1.891,5.089-2.763,7.125
	c-1.018,2.182-2.036,4.073-3.055,5.963c-1.745,3.491-3.199,6.545-4.508,9.309c2.909,1.018,5.963,1.6,7.563,1.89
	c1.745,0.146,2.036,0,2.182-0.29c0.727-0.728,0.291-1.892-1.6-3.054c-0.437-0.292-1.018-0.582-1.6-0.728
	c1.745-3.346,3.491-6.545,5.235-9.309c1.746-2.764,3.345-5.089,4.654-7.125c2.908-4.073,3.635-6.69,4.799-9.891
	c0.582-1.745,1.309-3.635,2.036-5.526c1.018,3.056,2.182,6.255,3.2,9.019c2.618,7.416,4.799,13.088,7.272,19.778
	c0.873,1.89,1.6,3.926,2.326,5.817c3.055-0.292,6.981-1.164,8.581-2.036c1.455-0.728,0.728-1.31-0.145-1.6
	c-1.455-0.728-3.055-0.874-4.508-1.164c-1.309-3.345-2.473-6.69-3.346-9.598c-0.873-2.764-1.309-5.237-1.891-7.563
	c-0.582-2.327-1.309-4.509-1.745-6.108c-1.018-3.054-1.746-4.508-2.328-6.399c1.31-6.106,2.328-12.216,3.927-18.179
	c1.454,3.636,3.2,7.127,6.108,10.326c3.491,0.437,7.126,0.872,9.308,1.164c2.327,0.144,3.2,0.29,3.781,0.144
	c0.727-0.144,0.873-0.726,0.727-1.162c0-0.438-0.582-0.728-1.163-0.873c-0.582-0.146-1.31-0.29-2.472-0.582
	c-2.327-0.582-5.963-1.6-9.163-2.908c-1.164-2.764-2.036-6.398-3.2-10.034c-0.582-1.892-1.164-3.638-1.891-5.091
	c-1.6-2.472-3.781-3.345-5.672-3.345l0.437-2.618C50.574,77.588,51.01,77.588,51.592,77.588"/>
<path fill-rule="evenodd" clip-rule="evenodd" fill="#FFFFFF" d="M147.577,119.909c0,1.453-2.908,0.728-4.217,1.018
	c-1.309,0.292-2.472,0.582-3.781,0.874c-1.018,1.161-2.182,2.325-3.344,3.489c-2.182,2.182-4.363,4.071-6.254,4.945
	c-0.873,0.436-1.6,0.872-2.473,1.453l0.728,0.872c2.181-0.726,4.217-1.743,5.817-2.617c3.053-1.89,4.363-3.199,6.69-4.071
	c1.018-0.437,2.182-0.729,3.199-1.019c1.745,3.2,3.2,6.107,3.635,8.871c0.437,1.018-0.145,1.746-1.891,2.474
	c-2.471,1.308-5.671,3.199-8.726,6.835c-1.6,2.035-2.617,3.635-3.781,5.089c-1.018,1.456-2.473,3.346-3.926,3.056
	c-0.873-0.292-2.182-0.874-3.49,0.29l4.217,3.635c0.873-1.6,2.182-2.035,3.199-2.471c1.164-0.437,3.055-2.618,4.508-4.51
	c0.728-1.018,1.309-1.744,2.328-2.617c1.89-1.454,5.671-3.2,8.871-4.653c1.309-0.729,2.327-1.164,3.49-1.892
	c3.198,3.781,7.854,4.509,11.925,7.708c1.311-0.29,2.62-0.436,4.071-0.728c1.311-0.29,2.766-0.582,3.784-0.872
	c1.018-0.146,1.743-0.436,2.035,0c0.292,0.437,0.436,1.6,0.872,2.182c0.728,0.872,1.89,1.019,2.764,0.729l-1.454-7.563
	l-11.054,1.164c-1.744,0.145-2.616-2.182-3.78-3.346c-2.327-2.327-4.217-4.073-5.091-6.108c-0.728-1.89-0.582-4.508-1.018-6.835
	c-0.146-1.164-0.436-2.036-0.29-2.618c0.434-1.018,2.762-0.871,4.507-1.453c2.618-0.874,5.817-1.02,8.291-3.928
	c1.018-1.31,2.182-3.054,3.346-4.945l-1.892-0.726c-2.618,3.199-5.382,5.235-8.145,6.107c-3.346,0.873-6.981,1.163-10.617,1.453
	l-1.018-2.472c0.872-0.29,2.618-2.327,2.472-3.781c-0.146-1.018-0.146-1.89-1.745-3.199c-1.6-1.018-3.49-1.454-5.526,0.872
	c-1.019,1.745-1.6,3.491,0.872,5.673c0.582,0.436,1.309,0.726,1.891,0.726"/>
</svg>
