<?xml version="1.0" encoding="utf-8"?>
<!-- Generator: Adobe Illustrator 15.0.0, SVG Export Plug-In . SVG Version: 6.00 Build 0)  -->
<!DOCTYPE svg PUBLIC "-//W3C//DTD SVG 1.1//EN" "http://www.w3.org/Graphics/SVG/1.1/DTD/svg11.dtd">
<svg version="1.1" id="Vrstva_1" xmlns="http://www.w3.org/2000/svg" xmlns:xlink="http://www.w3.org/1999/xlink" x="0px" y="0px"
	 width="300px" height="300px" viewBox="0 0 300 300" enable-background="new 0 0 300 300" xml:space="preserve">
<path fill-rule="evenodd" clip-rule="evenodd" d="M29.553,298.534c-3.735,0-7.472-0.804-10.941-2.136
	c-3.469-1.604-6.67-3.735-9.339-6.406C3.669,284.39,1,276.92,1,269.714V29.82c0-3.737,0.802-7.74,2.135-11.207
	c1.602-3.469,3.735-6.404,6.137-9.074C15.143,3.669,22.614,1,29.553,1h240.159c3.735,0,7.47,0.802,10.941,2.135
	c3.467,1.602,6.67,3.737,9.337,6.404c5.604,5.604,8.274,13.075,8.274,20.281v239.894c0,3.734-0.804,7.737-2.136,11.209
	c-1.332,3.467-3.467,6.402-6.139,9.069c-5.603,5.871-13.34,8.542-20.278,8.542"/>
<path fill-rule="evenodd" clip-rule="evenodd" fill="#FFFFFF" d="M29.553,295.863c-3.203,0-6.67-0.536-9.874-1.868
	c-3.201-1.332-6.137-3.199-8.538-5.87c-5.07-5.07-7.472-11.741-7.472-18.411V29.82c0-3.469,0.534-6.938,1.867-10.141
	c1.334-3.201,3.202-5.871,5.604-8.272c5.337-5.336,12.007-7.738,18.412-7.738h240.159c3.203,0,6.67,0.534,9.873,1.867
	c3.203,1.336,6.135,3.203,8.538,5.871c5.07,5.071,7.471,11.741,7.471,18.413v239.894c0,3.467-0.532,6.938-1.868,10.138
	c-1.332,3.203-3.199,5.87-5.603,8.273c-5.335,5.335-12.009,7.738-18.411,7.738"/>
<path fill-rule="evenodd" clip-rule="evenodd" fill="#291770" d="M29.819,290.528c-2.936,0-5.603-0.536-8.004-1.604
	c-2.669-0.8-4.803-2.399-6.938-4.268c-4.003-4.271-6.138-9.605-5.871-14.943V29.82c0-2.935,0.534-5.604,1.334-8.006
	c1.067-2.669,2.669-4.803,4.537-6.938c4.269-4.003,9.605-5.871,14.942-5.871h239.893c2.667,0,5.338,0.534,7.738,1.602
	c2.667,0.8,5.07,2.401,6.938,4.269c4.003,4.269,6.139,9.607,6.139,14.944v239.894c0,2.935-0.536,5.603-1.6,8.002
	c-1.071,2.671-2.671,4.807-4.539,6.941c-4.271,4.003-9.605,5.871-14.676,5.871"/>
<polyline fill-rule="evenodd" clip-rule="evenodd" fill="#FFFFFF" points="61.575,33.022 61.575,264.911 114.675,264.911 
	114.675,160.308 190.728,160.308 190.728,205.402 246.229,205.402 246.229,97.598 190.728,97.598 190.728,136.292 114.675,136.292 
	114.675,33.022 "/>
<polyline fill-rule="evenodd" clip-rule="evenodd" fill="#D9261C" points="207.804,119.212 207.804,184.591 230.75,184.591 
	230.75,119.212 "/>
</svg>
