<?xml version="1.0" encoding="utf-8"?>
<!-- Generator: Adobe Illustrator 15.0.0, SVG Export Plug-In . SVG Version: 6.00 Build 0)  -->
<!DOCTYPE svg PUBLIC "-//W3C//DTD SVG 1.1//EN" "http://www.w3.org/Graphics/SVG/1.1/DTD/svg11.dtd">
<svg version="1.1" id="Vrstva_1" xmlns="http://www.w3.org/2000/svg" xmlns:xlink="http://www.w3.org/1999/xlink" x="0px" y="0px"
	 width="841.89px" height="595.28px" viewBox="0 0 841.89 595.28" enable-background="new 0 0 841.89 595.28" xml:space="preserve">
<path fill-rule="evenodd" clip-rule="evenodd" fill="#FFFFFF" d="M38.745,359.794c-4.163,0-8.332-0.765-12.498-2.297
	c-3.753-1.533-7.5-3.837-10.417-6.524c-6.671-5.754-9.585-13.806-9.585-21.479V206.738c0-3.835,0.83-7.672,2.499-11.507
	c1.249-3.458,3.75-6.903,7.086-9.591c6.25-6.133,15-8.819,22.916-8.819l768.039-0.386c4.164,0,8.332,1.155,12.501,2.304
	c3.757,1.533,7.501,3.835,10.831,6.902c6.254,5.754,9.59,13.806,9.59,21.099v122.756c0,3.837-0.831,7.673-2.504,11.51
	c-1.665,3.45-4.162,6.901-7.086,9.585c-6.661,6.137-15.413,9.205-23.332,8.825L38.745,359.794z"/>
<path fill="none" stroke="#1F1A17" stroke-width="0.216" stroke-miterlimit="10" d="M38.745,359.794
	c-4.163,0-8.332-0.765-12.498-2.297c-3.753-1.533-7.5-3.837-10.417-6.524c-6.671-5.754-9.585-13.806-9.585-21.479V206.738
	c0-3.835,0.83-7.672,2.499-11.507c1.249-3.458,3.75-6.903,7.086-9.591c6.25-6.133,15-8.819,22.916-8.819l768.039-0.386
	c4.164,0,8.332,1.155,12.501,2.304c3.757,1.533,7.501,3.835,10.831,6.902c6.254,5.754,9.59,13.806,9.59,21.099v122.756
	c0,3.837-0.831,7.673-2.504,11.51c-1.665,3.45-4.162,6.901-7.086,9.585c-6.661,6.137-15.413,9.205-23.332,8.825L38.745,359.794z"/>
<path fill-rule="evenodd" clip-rule="evenodd" fill="#2D286D" d="M40.916,348.687c-2.896,0-6.205-0.366-9.099-1.475
	c-2.897-1.103-5.794-2.941-7.862-4.784c-4.961-4.41-7.445-9.936-7.445-15.448V209.253c0-2.578,0.824-5.517,2.067-8.097
	c1.241-2.573,2.897-5.146,5.378-6.988c4.552-4.411,11.169-6.622,16.961-6.622h85.167c3.311,0,6.205,0.734,9.102,1.838
	c3.308,1.107,5.789,2.578,8.272,4.421c4.551,4.411,7.032,10.296,7.032,15.447v117.726c0,2.939-0.827,5.513-2.067,8.092
	c-1.24,2.946-2.897,5.15-4.964,7.356c-4.965,4.049-11.169,6.259-17.375,6.259"/>
<path fill-rule="evenodd" clip-rule="evenodd" fill="#2D286D" d="M187.05,348.687c-2.896,0-6.205-0.366-9.103-1.475
	c-2.896-1.103-5.792-2.941-7.858-4.784c-4.964-4.41-7.448-9.936-7.448-15.448V209.253c0-2.578,0.827-5.517,2.07-8.097
	c1.24-2.573,2.894-5.146,5.378-6.988c4.548-4.411,11.167-6.622,16.961-6.622h616.907c3.313,0,6.208,0.734,9.103,1.838
	c3.307,1.107,5.788,2.578,8.271,4.421c4.548,4.411,7.034,10.296,7.034,15.447v117.726c0,2.939-0.822,5.513-2.068,8.092
	c-1.24,2.946-2.899,5.15-4.966,7.356c-4.964,4.049-11.165,6.259-17.373,6.259"/>
<polyline fill-rule="evenodd" clip-rule="evenodd" fill="#FFFFFF" points="722.395,249.2 753.565,212.917 785.967,249.2 
	769.559,245.341 769.559,323.315 740.029,323.315 740.029,245.341 "/>
<polyline fill-rule="evenodd" clip-rule="evenodd" fill="#FFFFFF" points="630.693,300.126 653.034,245.916 629.96,245.916 
	631.429,233.099 670.618,233.099 644.615,300.126 "/>
<path fill-rule="evenodd" clip-rule="evenodd" fill="#FFFFFF" d="M102.395,302.808l1.223-14.965H83.11l15.977-25.267
	c2.582-4.084,4.597-8.644,3.972-14.656c-0.629-6.007-3.412-13.11-7.96-17.017c-4.545-3.904-10.854-4.617-15.078-4.868
	c-4.226-0.247-6.368-0.04-9.466,0.791c-3.099,0.828-7.152,2.286-10.415,4.922c-3.258,2.637-5.728,6.456-7.009,10.606l13.493,10.13
	c0.278-4.237,2.891-8.602,6.882-10.438c3.991-1.838,9.361-1.16,11.373,2.957c2.013,4.111,0.612,11.611-2.645,16.315l-28.586,41.261
	v0.178"/>
<polyline fill-rule="evenodd" clip-rule="evenodd" fill="#FFFFFF" points="206.294,300.908 206.294,230.996 220.326,230.996 
	233.787,260.105 246.987,230.985 260.944,231.008 260.967,300.948 247.007,300.901 247.071,261.725 233.839,289.979 
	220.326,261.674 220.326,300.908 "/>
<path fill-rule="evenodd" clip-rule="evenodd" fill="#FFFFFF" d="M288.313,281.682h9.691l-4.843-20.628 M284.087,300.941
	l1.617-6.954h15.158l1.493,6.954h13.914l-16.094-69.956H286.21l-16.16,69.956H284.087z"/>
<polyline fill-rule="evenodd" clip-rule="evenodd" fill="#FFFFFF" points="325.057,300.948 325.057,230.985 339.1,230.985 
	339.1,288.521 351.777,288.521 351.777,300.948 "/>
<path fill-rule="evenodd" clip-rule="evenodd" fill="#FFFFFF" d="M378.653,281.682h9.69l-4.844-20.628 M374.43,300.941l1.616-6.954
	h15.157l1.491,6.954h13.917l-16.097-69.956h-13.963l-16.163,69.956H374.43z"/>
<path fill-rule="evenodd" clip-rule="evenodd" fill="#FFFFFF" d="M444.005,287.159c-1.033,1.275-1.921,1.833-2.882,2.239
	c-0.387,0.162-0.816,0.312-1.627,0.42c-0.812,0.109-2.007,0.167-3.195,0.145c-1.733-0.012-3.391-0.735-5.093-2.471
	c-0.475-0.482-0.957-1.066-1.445-1.769c-0.487-0.7-0.982-1.526-1.461-2.493c-0.479-0.969-0.945-2.077-1.373-3.317
	c-0.428-1.246-0.815-2.631-1.135-4.112c-0.318-1.487-0.57-3.073-0.743-4.709c-0.171-1.631-0.265-3.308-0.246-5.41
	c0.018-2.102,0.141-4.628,0.369-6.816c0.228-2.188,0.562-4.043,0.935-5.621c0.373-1.575,0.79-2.873,1.218-3.964
	s0.869-1.979,1.312-2.722c0.439-0.746,0.878-1.349,1.317-1.855c1.821-2.055,3.561-2.646,5.353-2.744
	c0.801-0.028,1.604,0.04,2.377,0.2c0.775,0.162,1.514,0.413,2.054,0.633c1.165,0.516,1.411,0.718,2.063,1.24
	c0.343,0.293,0.773,0.711,1.184,1.153l6.601-11.043c-1.136-0.896-2.389-1.653-3.928-2.326c-1.541-0.671-3.371-1.273-5.242-1.659
	c-1.869-0.39-3.779-0.557-5.505-0.563c-1.725-0.012-3.265,0.148-4.703,0.408c-1.442,0.258-2.776,0.614-4.04,1.073
	c-1.262,0.449-2.443,1.005-3.569,1.666c-1.122,0.66-2.187,1.43-3.208,2.331c-1.016,0.896-1.99,1.925-2.911,3.124
	c-0.921,1.195-1.797,2.562-2.616,4.169c-0.818,1.602-1.581,3.446-2.259,5.639c-0.676,2.2-1.271,4.75-1.684,7.794
	c-0.417,3.044-0.654,6.581-0.652,9.999c0,3.41,0.239,6.706,0.673,9.636c0.434,2.922,1.063,5.478,1.809,7.724
	c0.746,2.251,1.613,4.197,2.564,5.908c0.95,1.724,1.987,3.206,3.095,4.515c1.11,1.309,2.297,2.436,3.557,3.422
	c1.257,0.988,2.597,1.826,4.026,2.544c1.428,0.713,2.946,1.3,4.583,1.758c1.636,0.46,3.383,0.799,5.369,0.948
	c1.988,0.16,4.213,0.138,6.168-0.138c1.956-0.271,3.641-0.793,5.153-1.488c1.514-0.694,2.854-1.573,4.044-2.624l-5.436-12.083
	C444.603,286.356,444.303,286.786,444.005,287.159"/>
<polyline fill-rule="evenodd" clip-rule="evenodd" fill="#FFFFFF" points="459.286,300.948 459.286,230.985 473.407,230.985 
	473.407,261.914 487.37,230.985 502.916,230.985 485.941,268.897 502.601,300.948 485.941,300.948 473.407,271.597 473.407,300.948 
	"/>
<polyline fill-rule="evenodd" clip-rule="evenodd" fill="#FFFFFF" points="512.11,230.985 528.244,270.926 528.249,300.872 
	542.016,300.941 542.033,270.666 558.049,230.985 544.176,230.985 535.029,253.427 526.107,230.985 "/>
</svg>
