<?xml version="1.0" encoding="utf-8"?>
<!-- Generator: Adobe Illustrator 16.0.0, SVG Export Plug-In . SVG Version: 6.00 Build 0)  -->
<!DOCTYPE svg PUBLIC "-//W3C//DTD SVG 1.1//EN" "http://www.w3.org/Graphics/SVG/1.1/DTD/svg11.dtd">
<svg version="1.1" id="Layer_1" xmlns:sketch="http://www.bohemiancoding.com/sketch/ns"
	 xmlns="http://www.w3.org/2000/svg" xmlns:xlink="http://www.w3.org/1999/xlink" x="0px" y="0px" width="452px" height="114px"
	 viewBox="0 0 452 114" enable-background="new 0 0 452 114" xml:space="preserve">
<title>IS-22a</title>
<desc>Created with Sketch.</desc>
<path fill="#FFFFFF" d="M226.7,107.1C226.7,107.1,226.7,107,226.7,107.1c12.7-0.1,25.3-0.1,38-0.1c53.7,0,107.3,0,161,0
	c0.8,0,1.7,0,2.5,0c8.6-0.3,15.8-7.6,15.8-16.2c0-20.9,0-41.8,0-62.7c0-5-2-9.2-5.9-12.4c-3.6-3-7.9-4.1-12.5-4.1
	c-47.3,0-94.6,0-142,0.1c-85.1,0-170.1,0.1-255.2,0.1c-0.3,0-0.7,0-1,0c-8.9,0-17.2,6.6-17.1,17.2c0.3,20.4,0.1,40.8,0.1,61.2
	c0,1.6,0.1,3.2,0.4,4.7c1.8,7.5,8.4,12.3,16.7,12.3C93.9,107.1,160.3,107.1,226.7,107.1z"/>
<path fill-rule="evenodd" clip-rule="evenodd" d="M226.7,107.1c-66.4,0-132.8,0-199.2,0c-8.3,0-14.9-4.8-16.7-12.3
	c-0.4-1.5-0.4-3.1-0.4-4.7c0-20.4,0.2-40.8-0.1-61.2c-0.2-10.6,8.1-17.2,17.1-17.2c0.3,0,0.7,0,1,0c85.1,0,170.1-0.1,255.2-0.1
	c47.3,0,94.6,0,142-0.1c4.6,0,8.9,1.1,12.5,4.1c3.9,3.2,5.9,7.4,5.9,12.4c0,20.9,0,41.8,0,62.7c0,8.6-7.2,15.9-15.8,16.2
	c-0.8,0-1.7,0-2.5,0c-53.7,0-107.3,0-161,0C252.1,107,239.4,107,226.7,107.1C226.7,107,226.7,107.1,226.7,107.1z M265.7,101.4
	c52.6,0,105.1,0,157.7,0c0.8,0,1.5,0,2.2,0c7-0.3,12.3-5.4,12.3-11.9c0-20.2,0.1-40.3,0-60.5c0-4.7-2.2-8.5-6.8-10.1
	c-2.9-1-6.1-1.5-9.2-1.5c-104.3-0.1-208.6-0.1-312.9-0.1c-1.2,0-2.3,0.1-3.5,0.2C98.6,18.2,94,23.2,94,30.2c0,19.5,0,39,0,58.5
	c0,1.1,0,2.2,0.3,3.2c1.3,5.8,6.5,9.5,13.2,9.5C160.3,101.4,213,101.4,265.7,101.4z M88,59.4c0-9.7,0-19.5,0-29.2
	c0-7.4-4.1-11.9-11.6-12.7c-0.3,0-0.7-0.1-1-0.1c-15.9,0-31.8-0.1-47.7,0.2c-7.2,0.2-11.7,5.5-11.7,12.7c0,19.5,0,39,0,58.5
	c0,7.2,5.1,12.6,12.2,12.7c15.7,0.1,31.5,0.1,47.2,0c7.5-0.1,12.4-5.2,12.5-12.7C88,78.9,88,69.2,88,59.4z"/>
<path fill-rule="evenodd" clip-rule="evenodd" fill="#FFFFFF" d="M265.7,101.4c-52.7,0-105.5,0-158.2,0c-6.8,0-12-3.7-13.2-9.5
	c-0.2-1-0.3-2.1-0.3-3.2c0-19.5,0-39,0-58.5c0-7,4.6-12,11.5-12.7c1.2-0.1,2.3-0.2,3.5-0.2c104.3,0,208.6,0,312.9,0.1
	c3.1,0,6.3,0.5,9.2,1.5c4.6,1.6,6.8,5.4,6.8,10.1c0.1,20.2,0.1,40.3,0,60.5c0,6.6-5.3,11.6-12.3,11.9c-0.7,0-1.5,0-2.2,0
	C370.9,101.4,318.3,101.4,265.7,101.4z M410.2,51.4c-13.6,0-26.9,0-40.3,0c0,5.1,0,10,0,15.2c13.4,0,26.7,0,40.3,0
	c-0.6,3-1.1,5.7-1.8,9.1c6.5-5.6,12.5-10.8,18.7-16.1c-6.2-5.5-12.2-10.9-18.7-16.7C409,46.2,409.6,48.7,410.2,51.4z M235,38.4
	c-2.5,0-4.7,0-6.9,0c0,12.7,0,25.1,0,37.5c2.4,0,4.5,0,7,0c0-3.5,0-6.9,0-10.3c1.7,2.9,3,5.9,4.4,8.8c0.3,0.6,1,1.4,1.6,1.5
	c2,0.2,4.1,0.1,6.5,0.1c-1.7-3.8-3.2-7.3-4.9-10.7c-1-1.9-0.9-3.5,0.2-5.3c1.5-2.5,2.6-5.1,4.1-8.1c-1.8,0-3.2,0.1-4.5,0
	c-2-0.3-3,0.6-3.8,2.4c-0.9,2.2-2.1,4.2-3.2,6.3c-0.1,0-0.3-0.1-0.4-0.1C235,53.2,235,46,235,38.4z M253.2,63.6
	c0.4,2.4,0.6,4.8,1.3,7.1c1.2,3.7,4.8,5.9,8.7,5.8c3.8-0.2,7.3-2.8,8.3-6.5c1.1-4.2,1.1-8.4,0-12.6c-0.9-3.6-4.4-6.3-8.3-6.4
	c-3.9-0.2-7.5,2.1-8.7,5.8C253.8,59,253.6,61.3,253.2,63.6z M117.2,38.4c0,12.6,0,25.1,0,37.5c4.8,0,9.5,0,14.1,0c0-2.2,0-4.3,0-6.5
	c-2.3,0-4.5,0-6.8,0c0-10.4,0-20.6,0-31C122,38.4,119.7,38.4,117.2,38.4z M158.3,66.6c-0.4-3.2-0.4-6.1-1.2-8.9
	c-1.1-4.3-4.3-6.3-8.5-6.1c-4.3,0.2-7.4,2.4-8.3,6.6c-0.6,2.8-1,5.8-0.7,8.6c0.9,8.7,10.4,13.1,17.3,8c-0.4-1.6-0.9-3.2-1.3-4.8
	c-6.2,1.6-8.7,0.6-8.7-3.4C150.4,66.6,154,66.6,158.3,66.6z M174.5,40.8c-1.9,0.6-3.4,1.2-4.9,1.5c-1.8,0.3-2.1,1.2-2.2,2.9
	c-0.1,3.8-0.6,7.7-0.9,11.7c0.2,0.6,0.8,1.5,0.8,2.5c0.1,3.9,0,7.8,0.1,11.7c0.1,4,2.3,5.6,6.7,5.3c3.4-0.3,3.8-0.9,3.3-5.5
	c0-0.1-0.1-0.1-0.1-0.2c-1.2-0.3-2.7-1-2.8-1.8c-0.2-3.9-0.1-7.8-0.1-11.7c1.1-0.2,1.8-0.3,2.7-0.5c0-1.7,0-3.2,0-4.9
	c-0.9-0.2-1.7-0.3-2.6-0.4C174.5,48,174.5,44.6,174.5,40.8z M203.5,75.1c2.7,0.5,5.2,1.2,7.7,1.4c3.7,0.2,6.4-1.8,7.4-4.8
	c1.1-3.6,0.1-6.8-2.8-9.1c-1.1-0.8-2.3-1.4-3.2-2.3c-0.6-0.6-0.6-1.7-0.9-2.6c0.9-0.2,1.8-0.5,2.7-0.4c0.8,0.1,1.5,0.6,2.2,1
	c2.3-6,2.6-6-3.6-7.1c-3.5-0.6-7.1,1.5-8.2,4.3c-1.2,3.2-0.2,6.8,2.6,9.1c1.1,0.9,2.3,1.7,3.3,2.7c0.6,0.6,0.6,1.7,0.9,2.6
	c-0.9,0.2-1.8,0.8-2.7,0.6c-1.3-0.2-2.6-0.9-4-1.4C204.4,70.9,204,72.6,203.5,75.1z M187.2,52.3c0,8,0,15.8,0,23.6
	c2.4,0,4.6,0,6.9,0c0-7.9,0-15.8,0-23.6C191.7,52.3,189.5,52.3,187.2,52.3z M187.6,41.4c0,2.2,0,4,0,6c2.2,0,4.2,0,6.2,0
	c0-2.1,0-4,0-6C191.7,41.4,189.8,41.4,187.6,41.4z"/>
<path fill-rule="evenodd" clip-rule="evenodd" fill="#FFFFFF" d="M88,59.4c0,9.7,0,19.5,0,29.2c0,7.5-4.9,12.6-12.5,12.7
	c-15.7,0.1-31.5,0.1-47.2,0c-7.1,0-12.2-5.5-12.2-12.7c0-19.5,0-39,0-58.5c0-7.2,4.5-12.5,11.7-12.7c15.9-0.3,31.8-0.2,47.7-0.2
	c0.3,0,0.7,0.1,1,0.1C83.9,18.3,88,22.8,88,30.2C88,40,88,49.7,88,59.4z M50.6,82.1c3.4,0.1,4.9-1.5,5.8-4.6c1.8-6,4.1-11.8,6-17.7
	c0.6-1.7,1.5-2.5,3.2-2.9c5.2-1.3,10.4-2.8,15.6-4.4c2.2-0.6,3.5-2.7,3-4.2c-0.5-1.7-2.6-2.5-4.8-1.9c-4.9,1.3-9.8,2.5-14.7,4
	c-2.3,0.7-4,0.5-5.8-1.2C54.3,45,49.3,41.2,44.7,37c-2.3-2.1-4.1-1.6-6.6-0.5c2.1,3.1,4,6,5.9,8.8c2,2.9,4.1,5.6,4.2,9.5
	c-4.4,1.2-8.9,2.1-13.2,3.7c-4.2,1.6-7.6,1.4-10.4-2.5c-1.4-1.9-3-1.5-4.8-0.3c1.6,2.8,3.1,5.4,4.7,8.2c-0.6,0.4-1.1,0.8-1.8,1.3
	c0.9,0.2,1.5,0.3,2.5,0.4c0,3.1,0,6.1,0,9.2c3.1-0.4,3.4-0.4,3.7-2.4c0.6-5,3.5-7.3,8.2-7.8c0.1,0,0.2-0.1,0.2-0.1
	c4.2-1.1,8.4-2.3,12.8-3.4C52.9,68.4,50.1,75.2,50.6,82.1z"/>
<path fill-rule="evenodd" clip-rule="evenodd" d="M410.2,51.4c-0.6-2.8-1.1-5.3-1.8-8.5c6.5,5.8,12.5,11.2,18.7,16.7
	c-6.2,5.3-12.2,10.5-18.7,16.1c0.7-3.4,1.2-6.1,1.8-9.1c-13.6,0-26.9,0-40.3,0c0-5.1,0-10,0-15.2C383.3,51.4,396.5,51.4,410.2,51.4z
	"/>
<path fill-rule="evenodd" clip-rule="evenodd" d="M235,38.4c0,7.6,0,14.8,0,22c0.1,0.1,0.3,0.1,0.4,0.1c1.1-2.1,2.3-4.1,3.2-6.3
	c0.8-1.8,1.8-2.6,3.8-2.4c1.4,0.2,2.8,0,4.5,0c-1.5,3-2.7,5.6-4.1,8.1c-1.1,1.8-1.1,3.4-0.2,5.3c1.7,3.4,3.2,6.9,4.9,10.7
	c-2.4,0-4.5,0.1-6.5-0.1c-0.6-0.1-1.3-0.9-1.6-1.5c-1.4-2.9-2.7-5.9-4.4-8.8c0,3.4,0,6.7,0,10.3c-2.5,0-4.6,0-7,0
	c0-12.4,0-24.8,0-37.5C230.3,38.4,232.6,38.4,235,38.4z"/>
<path fill-rule="evenodd" clip-rule="evenodd" d="M253.2,63.6c0.4-2.3,0.6-4.7,1.3-6.8c1.2-3.7,4.8-6,8.7-5.8
	c3.9,0.2,7.4,2.8,8.3,6.4c1.1,4.2,1.1,8.4,0,12.6c-0.9,3.6-4.4,6.3-8.3,6.5c-3.9,0.2-7.5-2.1-8.7-5.8
	C253.8,68.5,253.6,66.1,253.2,63.6z M265.5,63.6c-0.1-1.5,0-3.2-0.5-4.6c-0.3-0.9-1.5-2-2.3-2c-0.8,0-2.1,1.3-2.1,2.1
	c-0.3,2.9-0.3,5.9,0,8.9c0.1,0.9,1.5,1.6,2.3,2.4c0.8-0.8,1.9-1.4,2.2-2.3C265.5,66.7,265.4,65.1,265.5,63.6z"/>
<path fill-rule="evenodd" clip-rule="evenodd" d="M117.2,38.4c2.5,0,4.8,0,7.3,0c0,10.3,0,20.5,0,31c2.3,0,4.5,0,6.8,0
	c0,2.3,0,4.3,0,6.5c-4.6,0-9.3,0-14.1,0C117.2,63.4,117.2,51,117.2,38.4z"/>
<path fill-rule="evenodd" clip-rule="evenodd" d="M158.3,66.6c-4.3,0-7.9,0-11.4,0c0,4,2.5,5,8.7,3.4c0.4,1.6,0.9,3.2,1.3,4.8
	c-6.9,5.1-16.4,0.7-17.3-8c-0.3-2.8,0.1-5.8,0.7-8.6c0.9-4.2,4-6.4,8.3-6.6c4.2-0.2,7.4,1.9,8.5,6.1
	C157.9,60.4,157.9,63.3,158.3,66.6z M146.2,61.2c1.7,0,3.4,0,4.9,0c0.2-2.7-0.6-4.2-2.3-4.2C147.1,57,146.1,58.6,146.2,61.2z"/>
<path fill-rule="evenodd" clip-rule="evenodd" d="M174.5,40.8c0,3.8,0,7.2,0,10.7c0.9,0.2,1.7,0.3,2.6,0.4c0,1.7,0,3.2,0,4.9
	c-0.8,0.2-1.6,0.3-2.7,0.5c0,3.9-0.1,7.8,0.1,11.7c0,0.8,1.6,1.5,2.8,1.8c0,0.1,0.1,0.1,0.1,0.2c0.5,4.6,0.1,5.2-3.3,5.5
	c-4.4,0.4-6.6-1.3-6.7-5.3c-0.1-3.9,0-7.8-0.1-11.7c0-1-0.6-2-0.8-2.5c0.3-4.1,0.8-7.9,0.9-11.7c0.1-1.7,0.4-2.6,2.2-2.9
	C171.1,42,172.6,41.4,174.5,40.8z"/>
<path fill-rule="evenodd" clip-rule="evenodd" d="M203.5,75.1c0.5-2.5,0.9-4.1,1.3-6.1c1.4,0.5,2.7,1.2,4,1.4
	c0.8,0.1,1.8-0.4,2.7-0.6c-0.3-0.9-0.4-1.9-0.9-2.6c-0.9-1-2.2-1.8-3.3-2.7c-2.8-2.3-3.9-6-2.6-9.1c1.1-2.9,4.7-5,8.2-4.3
	c6.1,1.1,5.8,1.1,3.6,7.1c-0.7-0.3-1.5-0.9-2.2-1c-0.9-0.1-1.8,0.2-2.7,0.4c0.3,0.9,0.3,2,0.9,2.6c0.9,0.9,2.2,1.5,3.2,2.3
	c3,2.3,4,5.5,2.8,9.1c-0.9,3-3.7,5-7.4,4.8C208.6,76.3,206.2,75.6,203.5,75.1z"/>
<path fill-rule="evenodd" clip-rule="evenodd" d="M187.2,52.3c2.3,0,4.5,0,6.9,0c0,7.9,0,15.7,0,23.6c-2.3,0-4.5,0-6.9,0
	C187.2,68.1,187.2,60.3,187.2,52.3z"/>
<path fill-rule="evenodd" clip-rule="evenodd" d="M187.6,41.4c2.1,0,4.1,0,6.2,0c0,2,0,3.9,0,6c-2,0-4,0-6.2,0
	C187.6,45.4,187.6,43.5,187.6,41.4z"/>
<path fill-rule="evenodd" clip-rule="evenodd" d="M50.6,82.1c-0.5-6.9,2.3-13.8-0.3-20.9c-4.3,1.2-8.6,2.3-12.8,3.4
	c-0.1,0-0.2,0.1-0.2,0.1c-4.8,0.5-7.6,2.8-8.2,7.8c-0.3,2-0.6,2-3.7,2.4c0-3.1,0-6.1,0-9.2c-0.9-0.2-1.5-0.3-2.5-0.4
	c0.7-0.5,1.2-0.9,1.8-1.3c-1.6-2.8-3.1-5.4-4.7-8.2c1.8-1.2,3.4-1.6,4.8,0.3c2.8,3.8,6.2,4,10.4,2.5c4.3-1.6,8.8-2.5,13.2-3.7
	c-0.1-3.9-2.2-6.6-4.2-9.5c-2-2.9-3.9-5.8-5.9-8.8c2.5-1.2,4.3-1.6,6.6,0.5c4.6,4.2,9.6,8,14.3,12.2c1.9,1.7,3.5,1.9,5.8,1.2
	c4.8-1.5,9.8-2.7,14.7-4c2.2-0.6,4.3,0.3,4.8,1.9c0.5,1.5-0.9,3.6-3,4.2c-5.2,1.5-10.4,3-15.6,4.4c-1.7,0.4-2.6,1.2-3.2,2.9
	c-2,5.9-4.2,11.7-6,17.7C55.5,80.6,54,82.2,50.6,82.1z"/>
<path fill-rule="evenodd" clip-rule="evenodd" fill="#FFFFFF" d="M265.5,63.6c-0.1,1.5,0,3.1-0.5,4.5c-0.3,0.9-1.4,1.6-2.2,2.3
	c-0.8-0.8-2.2-1.5-2.3-2.4c-0.3-2.9-0.3-5.9,0-8.9c0.1-0.8,1.4-2.1,2.1-2.1c0.8,0,2,1.1,2.3,2C265.5,60.4,265.4,62.1,265.5,63.6z"/>
<path fill-rule="evenodd" clip-rule="evenodd" fill="#FFFFFF" d="M146.2,61.2c-0.1-2.7,0.9-4.2,2.6-4.2c1.7,0,2.6,1.5,2.3,4.2
	C149.5,61.2,147.9,61.2,146.2,61.2z"/>
</svg>
