<?xml version="1.0" encoding="utf-8"?>
<!-- Generator: Adobe Illustrator 16.0.0, SVG Export Plug-In . SVG Version: 6.00 Build 0)  -->
<!DOCTYPE svg PUBLIC "-//W3C//DTD SVG 1.1//EN" "http://www.w3.org/Graphics/SVG/1.1/DTD/svg11.dtd">
<svg version="1.1" id="Layer_1" xmlns:sketch="http://www.bohemiancoding.com/sketch/ns"
	 xmlns="http://www.w3.org/2000/svg" xmlns:xlink="http://www.w3.org/1999/xlink" x="0px" y="0px" width="875px" height="206px"
	 viewBox="0 0 875 206" enable-background="new 0 0 875 206" xml:space="preserve">
<title>IS-23b</title>
<desc>Created with Sketch.</desc>
<path fill="#FEFDFD" d="M437.5,205c134.5,0,269,0,403.4,0c17.7,0,31-13.2,31-30.8c0-43.8,0-87.7-0.1-131.5c0-3.4-0.6-7-1.7-10.3
	c-4.9-14.7-16.8-21.3-33.5-21.3C572.8,11,308.9,11,44.9,11c-4.8,0-9.6,0.4-14.3,0.9C14.2,13.9,3.1,26,3,42.6
	c-0.1,43.8-0.2,87.7,0,131.5C3.1,192.2,16.5,205,34.6,205C168.9,205,303.2,205,437.5,205z"/>
<path fill-rule="evenodd" clip-rule="evenodd" fill="#201B18" d="M437.5,205c-134.3,0-268.6,0-402.9,0C16.5,205,3.1,192.2,3,174.1
	C2.9,130.3,2.9,86.4,3,42.6C3.1,26,14.2,13.9,30.6,11.9c4.7-0.6,9.5-0.9,14.3-0.9c264,0,527.9-0.1,791.9,0
	c16.7,0,28.6,6.7,33.5,21.3c1.1,3.3,1.7,6.8,1.7,10.3c0.1,43.8,0.1,87.7,0.1,131.5c0,17.7-13.3,30.8-31,30.8
	C706.5,205,572,205,437.5,205z M437.1,202c24.7,0,49.3,0,74,0c110.7,0.1,221.3,0.1,332,0.2c13.4,0,26-12.5,26-25.9
	c0-45.2,0.1-90.3-0.1-135.5c0-4.3-1.6-9-3.7-12.7c-6-10.4-15.4-13.3-27.3-13.3C571,15,304,15,37,15c-1,0-2,0.2-3,0
	C21.1,12.6,5.9,26,5.9,41.4C6.1,86.1,6,130.7,6,175.4c0,2,0.2,4,0.7,5.9C10.2,195,20.3,202,36.2,202C169.8,202,303.5,202,437.1,202z
	"/>
<path fill-rule="evenodd" clip-rule="evenodd" fill="#FAF8F7" d="M437.1,202c-133.7,0-267.3,0-401,0c-15.8,0-25.9-7-29.5-20.7
	c-0.5-1.9-0.7-3.9-0.7-5.9c0-44.7,0.1-89.3-0.1-134C5.9,26,21.1,12.6,34,15c1,0.2,2,0,3,0c267,0,534,0.1,801-0.2
	c11.9,0,21.3,2.9,27.3,13.3c2.2,3.7,3.7,8.4,3.7,12.7c0.2,45.2,0.1,90.3,0.1,135.5c0,13.4-12.6,26-26,25.9
	c-110.7-0.1-221.3-0.1-332-0.2C486.5,202,461.8,202,437.1,202z M438,24.8c-133.3,0-266.6,0-399.9,0c-2.2,0-4.3,0-6.5,0.1
	c-8.8,0.7-15.6,7.6-15.6,16.4c-0.1,44.7-0.1,89.3,0,134c0,7.2,4.3,13.4,11.1,15.5c3.4,1.1,7.2,1.2,10.8,1.2c263,0.1,525.9,0,788.9,0
	c5,0,10,0.1,15,0c10.2-0.3,17.4-7.1,17.4-17.3c0.1-44.3,0.1-88.7,0-133c0-9.8-7-16.4-16.8-16.9c-1.5-0.1-3,0-4.5,0
	C704.6,24.8,571.3,24.8,438,24.8z"/>
<path fill-rule="evenodd" clip-rule="evenodd" fill="#8B4506" d="M438,24.8c133.3,0,266.6,0,399.9,0c1.5,0,3,0,4.5,0
	c9.8,0.5,16.7,7.2,16.8,16.9c0.1,44.3,0.1,88.7,0,133c0,10.2-7.2,17.1-17.4,17.3c-5,0.1-10,0-15,0c-263,0-525.9,0-788.9,0
	c-3.6,0-7.4-0.2-10.8-1.2c-6.8-2.1-11.1-8.4-11.1-15.5c0-44.7-0.1-89.3,0-134c0-8.8,6.8-15.7,15.6-16.4c2.2-0.2,4.3-0.1,6.5-0.1
	C171.4,24.8,304.7,24.8,438,24.8z M642.2,136.9c3.8,0,7.5,0,11.7,0c0-9.9,0.3-19.3-0.1-28.7c-0.3-6.3-6-9.8-12.1-8.2
	c-1.3,0.3-2.7,0.5-4.1,0.5c-3.7-0.1-7.4-0.4-11.2-0.5c0,12.8,0,24.8,0,37c4,0,7.6,0,11.3,0C639.2,136.9,640.7,136.9,642.2,136.9z
	 M783.9,166.1c0-24.7,0-49.1,0-73.8c7.6,1.4,14.7,2.7,21.8,4c0.3-0.4,0.5-0.9,0.8-1.3c-12.2-14.8-24.3-29.6-36.7-44.7
	c-12.5,15.6-24.5,30.7-37.2,46.6c8.6-1.7,15.8-3.1,23.6-4.6c0,24.9,0,49.3,0,73.8C765.5,166.1,774.4,166.1,783.9,166.1z M100.5,36.1
	c-18.3,0-36.7,0-55,0c-12.9,0-18.3,5.3-18.3,18.1c0,36.3,0,72.7,0,109c0,12,5.7,17.8,17.7,17.8c36.5,0,73,0,109.5,0
	c12.4,0,18-5.6,18-18c0-19.8,0-39.7,0-59.5c0-17,0.1-34,0-51c-0.1-10.8-5.9-16.4-16.4-16.4C137.5,36,119,36.1,100.5,36.1z M471,79.1
	c0,19.5,0,38.5,0,57.5c4.1,0,7.8,0,12.2,0c0-6.9,0-13.5,0-20.1c3.2,5.8,5.6,11.6,8.2,17.3c0.6,1.3,2,2.9,3.2,3
	c3.9,0.4,7.8,0.1,12.4,0.1c-4-7.7-7.4-14.7-11.2-21.4c-2-3.5-2.2-6.5-0.4-10.2c4.1-8.5,7.8-17.2,11.9-26.4c-3,0-5.3,0.3-7.5-0.1
	c-4.6-0.8-6.8,1.2-8.4,5.4c-2.2,5.8-5,11.3-7.6,16.9c-0.3-0.1-0.7-0.2-1-0.3c0-7.2,0-14.5,0-21.9C478.7,79.1,475.1,79.1,471,79.1z
	 M584.7,136.8c0-9.4,0.3-18.5-0.1-27.6c-0.3-5.9-4.8-10.1-10.2-9.5c-5,0.6-9.6,1.9-14.9-0.1c-3.6-1.3-8.2,0.2-12.3,0.4
	c-1.7,0.1-3.5,0-5.2,0c0,12.7,0,24.7,0,36.7c3.8,0,7.2,0,10.9,0c0-1.4,0-2.6,0-3.7c0-7-0.1-14,0-21c0-1,1.1-2.1,1.7-3.1
	c0.9,1,2.1,1.9,2.5,3c0.5,1.4,0.2,3,0.2,4.5c0,6.8,0,13.5,0,20.4c3.8,0,7.3,0,11.1,0c0-7.8-0.1-15.5,0.1-23.1c0-1.6,1.5-3.1,2.3-4.6
	c0.8,1.6,2.1,3.1,2.2,4.7c0.2,7.6,0.1,15.2,0.1,23.3c2.8,0,5.1,0,7.3,0C581.7,137,583,136.9,584.7,136.8z M242.7,124.6
	c-6.8,4.8-11.6,3.4-14.5-4.2c-3-8-3-16.3-0.6-24.5c2.2-7.5,6.2-9,13.5-5.2c1.8-3,3.5-6.1,5.3-9.1c-10.2-6.6-23.2-4.9-28.3,4.3
	c-7.8,13.9-7.8,28.5-0.3,42.4c5.7,10.7,21.4,13.2,29.2,5.7C245.6,131.1,244.2,128.1,242.7,124.6z M425.5,151.7
	c4.6-17.5,9-34.8,13.5-52.1c-10.9-1.6-10.8-1.6-13.3,8c-0.5,2.1-1.4,4.1-2.2,6.2c-0.6-0.5-1.2-0.8-1.3-1.2
	c-1.3-4.4-2.5-8.8-3.8-13.4c-3.7,0-7.3,0-11.3,0c1.9,6.8,3.7,13.4,5.5,19.9c2.8,10.6,7.8,21.2,0.5,32.5
	C417.8,151.7,421.4,151.7,425.5,151.7z M386.7,136.8c0-1.9,0-3.3,0-4.8c0-6.7-0.1-13.3,0.1-20c0-1,1.1-2,1.7-3c0.8,1,2,1.8,2.4,3
	c0.4,1.2,0.1,2.6,0.1,4c0,6.9,0,13.9,0,20.7c4.2,0,7.8,0,11.7,0c0-9.6,0.2-18.9-0.1-28.2c-0.2-6.3-5.8-10.1-11.9-8.5
	c-1.3,0.3-2.7,0.6-4.1,0.6c-3.7-0.1-7.5-0.4-11.4-0.7c0,12.7,0,24.8,0,37C379.1,136.8,382.5,136.8,386.7,136.8z M616,127.2
	c-9.1,2.1-11.1,1.5-12.9-4.6c5.6,0,11,0,16.7,0c0-3.7,0.3-6.8,0-9.9c-0.8-8.1-6-13.1-13.4-13.4c-7.5-0.3-12.7,3.9-14.2,11.8
	c-0.6,3.2-1,6.6-0.8,9.9c0.6,11.5,6.4,16.9,17.8,16.8c9.2,0,10.2-1.6,7.3-10.2C616.3,127.4,616.2,127.3,616,127.2z M261,122.6
	c5.8,0,11.1,0,16.6,0c0-4.2,0.6-8-0.1-11.7c-1.5-7.9-6.3-11.8-13.8-11.7c-7.2,0-12.2,4.3-13.5,12.1c-0.6,3.9-1,8-0.4,11.8
	c1.5,10.6,6.6,14.6,17.2,14.6c9.2,0,10.2-1.4,7.6-10.1c-0.1-0.2-0.5-0.4-0.8-0.5C265.8,129.4,263.4,128.7,261,122.6z M535,137
	c0-7.9,0-15.2,0-22.5c0-10-4.7-15-14.7-15.8c-8.1-0.7-9.2,0.4-8.6,8.9c10.7,1.2,10.7,1.2,11.6,4.4c-2,0-4-0.1-6,0
	c-6.3,0.3-10.2,5-10.2,12.3c0,7.6,4,12.5,10.4,12.7C523.1,137.1,528.7,137,535,137z M370,122.6c0-3.6,0.1-6.4,0-9.2
	c-0.3-8-5.2-13.5-12.6-14.2c-7.7-0.6-13.3,3.5-14.9,11.6c-0.7,3.5-1,7.3-0.7,10.9c0.8,11.1,6.4,16.1,17.5,16
	c9.2,0,10.3-1.4,7.5-10.1c-0.1-0.2-0.5-0.4-0.8-0.6c-8.1,2.4-11.1,1.4-12.5-4.5C358.9,122.6,364.2,122.6,370,122.6z M340,99.5
	c-2.2-0.1-3.9,0-5.5-0.3c-4.8-0.9-6.9,1.3-7.6,5.8c-0.5,2.9-1.7,5.6-2.6,8.4c-2.1-4.2-2.5-8.6-4.5-12.1c-2.7-4.6-7.5-1.4-11.9-2.1
	c3.8,13.1,7.4,25.3,11,37.6c3.5,0,6.6,0,10.1,0C332.6,124.7,336.1,112.5,340,99.5z M301.8,98.9c-6.4,4.2-12.5-0.9-18.6,1.2
	c0,12.4,0,24.4,0,36.6c3.3,0,6.3,0,9.4,0c0.1-0.8,0.3-1.3,0.3-1.8c0-4.3,0.1-8.7,0.1-13c0-8.4,0.9-9.7,8.8-12.1
	C301.8,106.8,301.8,103.6,301.8,98.9z M224.7,64.2c-0.2,0.5-0.4,0.9-0.6,1.4c3.7,3.6,3.3,11,11.7,10.3c7.1-0.6,6-7.2,9.7-10.2
	c-0.2-0.5-0.5-1-0.7-1.5c-3.5,0.6-7,1.3-10.1,1.8C231.4,65.4,228,64.8,224.7,64.2z M639.8,85.4c-3.2-0.6-6.5-1.2-9.8-1.9
	c2.8,5.4,2.9,12.7,11.5,11.5c6.8-0.9,5.5-7.2,8.9-10.2c-0.2-0.4-0.5-0.9-0.7-1.3C646.2,84.2,642.8,84.8,639.8,85.4z M436.4,84.4
	c-11.6-0.7-12.3-0.2-17,10.1C427.9,95.7,430.9,93.9,436.4,84.4z"/>
<path fill-rule="evenodd" clip-rule="evenodd" fill="#FDFBF9" d="M783.9,166.1c-9.4,0-18.4,0-27.7,0c0-24.5,0-48.9,0-73.8
	c-7.8,1.5-15.1,3-23.6,4.6c12.7-15.9,24.8-31,37.2-46.6c12.4,15.1,24.6,29.9,36.7,44.7c-0.3,0.4-0.5,0.9-0.8,1.3
	c-7.1-1.3-14.2-2.6-21.8-4C783.9,117,783.9,141.4,783.9,166.1z"/>
<path fill-rule="evenodd" clip-rule="evenodd" fill="#F4F0EE" d="M100.5,36.1c18.5,0,37,0,55.5,0c10.5,0,16.3,5.6,16.4,16.4
	c0.2,17,0,34,0,51c0,19.8,0,39.7,0,59.5c0,12.4-5.6,18-18,18c-36.5,0-73,0-109.5,0c-12,0-17.7-5.8-17.7-17.8c0-36.3,0-72.7,0-109
	c0-12.8,5.3-18.1,18.3-18.1C63.8,36.1,82.2,36.1,100.5,36.1z M167.3,108.3c0-18.7,0-37.3,0-56c0-8.1-3.3-11.4-11.5-11.4
	c-37.1,0-74.3,0-111.4,0c-8.7,0-12,3.3-12,12.2c0,37,0,73.9,0,110.9c0,8.6,3.5,12,12.1,12c37,0,73.9,0,110.9,0
	c8.4,0,11.8-3.4,11.8-11.7C167.3,145.6,167.3,127,167.3,108.3z"/>
<path fill-rule="evenodd" clip-rule="evenodd" fill="#FCFAF7" d="M471,79.1c4,0,7.6,0,11.7,0c0,7.4,0,14.6,0,21.9
	c0.3,0.1,0.7,0.2,1,0.3c2.6-5.6,5.4-11.1,7.6-16.9c1.6-4.2,3.8-6.2,8.4-5.4c2.2,0.4,4.6,0.1,7.5,0.1c-4.1,9.2-7.7,17.9-11.9,26.4
	c-1.8,3.7-1.6,6.7,0.4,10.2c3.8,6.8,7.2,13.8,11.2,21.4c-4.6,0-8.5,0.2-12.4-0.1c-1.2-0.1-2.6-1.7-3.2-3c-2.6-5.7-5-11.6-8.2-17.3
	c0,6.6,0,13.2,0,20.1c-4.3,0-8.1,0-12.2,0C471,117.7,471,98.6,471,79.1z"/>
<path fill-rule="evenodd" clip-rule="evenodd" fill="#FAF7F4" d="M584.7,136.8c-1.7,0.1-2.9,0.2-4.2,0.2c-2.3,0-4.6,0-7.3,0
	c0-8.1,0.1-15.7-0.1-23.3c0-1.6-1.4-3.1-2.2-4.7c-0.8,1.5-2.2,3.1-2.3,4.6c-0.2,7.6-0.1,15.3-0.1,23.1c-3.8,0-7.3,0-11.1,0
	c0-6.9,0-13.6,0-20.4c0-1.5,0.3-3.1-0.2-4.5c-0.4-1.2-1.6-2-2.5-3c-0.6,1-1.7,2.1-1.7,3.1c-0.1,7,0,14,0,21c0,1.1,0,2.3,0,3.7
	c-3.7,0-7.1,0-10.9,0c0-12,0-24,0-36.7c1.7,0,3.5,0.1,5.2,0c4.1-0.2,8.8-1.7,12.3-0.4c5.3,2,9.9,0.7,14.9,0.1
	c5.4-0.6,9.9,3.6,10.2,9.5C585,118.3,584.7,127.4,584.7,136.8z"/>
<path fill-rule="evenodd" clip-rule="evenodd" fill="#FBF9F6" d="M242.7,124.6c1.6,3.5,2.9,6.5,4.3,9.5c-7.8,7.6-23.5,5-29.2-5.7
	c-7.5-13.9-7.5-28.6,0.3-42.4c5.2-9.1,18.1-10.9,28.3-4.3c-1.8,3-3.5,6-5.3,9.1c-7.3-3.8-11.3-2.3-13.5,5.2
	c-2.5,8.2-2.5,16.4,0.6,24.5C231,128,235.9,129.4,242.7,124.6z"/>
<path fill-rule="evenodd" clip-rule="evenodd" fill="#FBF8F4" d="M425.5,151.7c-4.1,0-7.7,0-12.4,0c7.3-11.4,2.3-21.9-0.5-32.5
	c-1.7-6.5-3.6-13.1-5.5-19.9c4,0,7.6,0,11.3,0c1.3,4.6,2.5,9,3.8,13.4c0.1,0.4,0.7,0.7,1.3,1.2c0.8-2.2,1.7-4.2,2.2-6.2
	c2.5-9.6,2.4-9.6,13.3-8C434.5,116.9,430.1,134.2,425.5,151.7z"/>
<path fill-rule="evenodd" clip-rule="evenodd" fill="#FAF5F0" d="M637.7,136.9c-3.6,0-7.3,0-11.3,0c0-12.1,0-24.2,0-37
	c3.7,0.2,7.5,0.4,11.2,0.5c1.4,0,2.7-0.2,4.1-0.5c6.1-1.6,11.9,1.9,12.1,8.2c0.4,9.4,0.1,18.9,0.1,28.7c-4.1,0-7.9,0-11.7,0
	c0-8,0.2-15.9,0-23.9c0-1.4-1.6-2.7-2.4-4c-0.7,1.3-1.9,2.6-1.9,3.9C637.6,120.9,637.7,128.9,637.7,136.9z"/>
<path fill-rule="evenodd" clip-rule="evenodd" fill="#F9F6F2" d="M386.7,136.8c-4.2,0-7.7,0-11.4,0c0-12.2,0-24.3,0-37
	c3.9,0.2,7.6,0.6,11.4,0.7c1.4,0,2.8-0.3,4.1-0.6c6.1-1.6,11.7,2.2,11.9,8.5c0.2,9.3,0.1,18.6,0.1,28.2c-3.9,0-7.4,0-11.7,0
	c0-6.8,0-13.8,0-20.7c0-1.3,0.3-2.8-0.1-4c-0.4-1.1-1.6-2-2.4-3c-0.6,1-1.7,2-1.7,3c-0.2,6.7-0.1,13.3-0.1,20
	C386.7,133.5,386.7,135,386.7,136.8z"/>
<path fill-rule="evenodd" clip-rule="evenodd" fill="#F8F5F1" d="M616,127.2c0.1,0.1,0.3,0.2,0.4,0.3c3,8.6,1.9,10.2-7.3,10.2
	c-11.4,0.1-17.2-5.3-17.8-16.8c-0.2-3.3,0.2-6.7,0.8-9.9c1.5-7.9,6.7-12.1,14.2-11.8c7.5,0.3,12.6,5.3,13.4,13.4
	c0.3,3.1,0,6.3,0,9.9c-5.7,0-11.1,0-16.7,0C605,128.7,606.9,129.3,616,127.2z M601.2,112.3c0.4,0.5,0.7,1,1.1,1.5c2.2,0,4.5,0,8.4,0
	c-2.1-2.6-3.4-4.1-4.7-5.7C604.4,109.5,602.8,110.9,601.2,112.3z"/>
<path fill-rule="evenodd" clip-rule="evenodd" fill="#F9F5F2" d="M261,122.6c2.4,6.1,4.8,6.8,12.9,4.5c0.3,0.2,0.7,0.3,0.8,0.6
	c2.6,8.7,1.6,10-7.6,10.1c-10.6,0-15.7-4-17.2-14.6c-0.6-3.9-0.2-8,0.4-11.8c1.3-7.8,6.3-12.1,13.5-12.1c7.5,0,12.3,3.8,13.8,11.7
	c0.7,3.6,0.1,7.5,0.1,11.7C272.1,122.6,266.8,122.6,261,122.6z M266.6,113.9c0.5-0.5,1-0.9,1.4-1.4c-1.5-1.5-3-3-4.5-4.5
	c-1.4,1.6-2.9,3.2-4.3,4.7c0.3,0.4,0.7,0.7,1,1.1C262.4,113.9,264.5,113.9,266.6,113.9z"/>
<path fill-rule="evenodd" clip-rule="evenodd" fill="#FAF8F5" d="M535,137c-6.3,0-11.9,0.1-17.5,0c-6.4-0.1-10.4-5.1-10.4-12.7
	c0-7.3,3.9-12,10.2-12.3c2-0.1,4,0,6,0c-0.8-3.3-0.8-3.3-11.6-4.4c-0.6-8.4,0.5-9.6,8.6-8.9c10,0.8,14.6,5.9,14.7,15.8
	C535,121.8,535,129.1,535,137z M520.2,128.6c0.6,0,1.3,0,1.9,0.1c1-1.5,2.8-3,2.6-4.4c-0.1-1.5-2.1-2.8-3.3-4.2
	c-1.2,1.3-3.1,2.5-3.3,3.9C518,125.4,519.5,127,520.2,128.6z"/>
<path fill-rule="evenodd" clip-rule="evenodd" fill="#F9F6F3" d="M370,122.6c-5.8,0-11.1,0-16.5,0c1.4,5.9,4.3,6.9,12.5,4.5
	c0.3,0.2,0.7,0.3,0.8,0.6c2.7,8.7,1.7,10.1-7.5,10.1c-11.1,0-16.7-4.9-17.5-16c-0.3-3.6,0-7.4,0.7-10.9c1.6-8,7.3-12.2,14.9-11.6
	c7.4,0.6,12.3,6.2,12.6,14.2C370.1,116.2,370,119.1,370,122.6z M359.4,113.8c0.3-0.4,0.7-0.7,1-1.1c-1.5-1.6-2.9-3.2-4.4-4.7
	c-1.5,1.6-3.1,3.1-4.6,4.7c0.3,0.4,0.6,0.8,0.9,1.1C354.6,113.8,357,113.8,359.4,113.8z"/>
<path fill-rule="evenodd" clip-rule="evenodd" fill="#FAF6F2" d="M340,99.5c-3.8,13-7.4,25.2-11,37.4c-3.5,0-6.6,0-10.1,0
	c-3.6-12.3-7.2-24.5-11-37.6c4.4,0.7,9.2-2.5,11.9,2.1c2.1,3.4,2.5,7.9,4.5,12.1c0.9-2.8,2.1-5.6,2.6-8.4c0.7-4.6,2.8-6.7,7.6-5.8
	C336,99.5,337.7,99.4,340,99.5z"/>
<path fill-rule="evenodd" clip-rule="evenodd" fill="#FCFBF7" d="M301.8,98.9c0,4.7,0,7.8,0,10.9c-7.9,2.4-8.8,3.7-8.8,12.1
	c0,4.3,0,8.7-0.1,13c0,0.5-0.1,1-0.3,1.8c-3,0-6.1,0-9.4,0c0-12.1,0-24.2,0-36.6C289.3,98.1,295.4,103.1,301.8,98.9z"/>
<path fill-rule="evenodd" clip-rule="evenodd" fill="#F7F2ED" d="M224.7,64.2c3.4,0.6,6.7,1.2,10.1,1.8c3.1-0.6,6.6-1.2,10.1-1.8
	c0.2,0.5,0.5,1,0.7,1.5c-3.7,3-2.6,9.6-9.7,10.2c-8.4,0.7-8-6.7-11.7-10.3C224.3,65.1,224.5,64.7,224.7,64.2z"/>
<path fill-rule="evenodd" clip-rule="evenodd" fill="#F8F5F1" d="M639.8,85.4c3-0.6,6.4-1.2,9.8-1.9c0.2,0.4,0.5,0.9,0.7,1.3
	c-3.4,3-2.1,9.3-8.9,10.2c-8.6,1.2-8.6-6.2-11.5-11.5C633.3,84.1,636.6,84.8,639.8,85.4z"/>
<path fill-rule="evenodd" clip-rule="evenodd" fill="#F4EDE6" d="M436.4,84.4c-5.5,9.5-8.5,11.3-17,10.1
	C424.1,84.2,424.9,83.7,436.4,84.4z"/>
<path fill-rule="evenodd" clip-rule="evenodd" fill="#814817" d="M637.7,136.9c0-8,0-15.9,0.2-23.9c0-1.3,1.2-2.6,1.9-3.9
	c0.9,1.3,2.4,2.6,2.4,4c0.2,7.9,0,15.9,0,23.9C640.7,136.9,639.2,136.9,637.7,136.9z"/>
<path fill-rule="evenodd" clip-rule="evenodd" fill="#2C2826" d="M167.3,108.3c0,18.7,0,37.3,0,56c0,8.3-3.5,11.7-11.8,11.7
	c-37,0-73.9,0-110.9,0c-8.6,0-12.1-3.5-12.1-12c0-37,0-73.9,0-110.9c0-8.9,3.2-12.1,12-12.2c37.1,0,74.3,0,111.4,0
	c8.2,0,11.5,3.3,11.5,11.4C167.3,71,167.3,89.7,167.3,108.3z M37,108.6c0,18.3,0,36.6,0,55c0,6.1,1.5,7.7,7.7,7.7
	c36.8,0,73.6,0,110.4,0c6,0,7.7-1.8,7.7-7.8c0-36.6,0-73.3,0-109.9c0-6.4-1.5-7.8-8-7.8c-36.6,0-73.3,0-109.9,0
	c-6.7,0-7.8,1.2-7.8,7.9C37,71.9,37,90.3,37,108.6z"/>
<path fill-rule="evenodd" clip-rule="evenodd" fill="#814817" d="M601.2,112.3c1.6-1.4,3.2-2.8,4.8-4.2c1.3,1.6,2.6,3.1,4.7,5.7
	c-4,0-6.2,0-8.4,0C601.9,113.3,601.6,112.8,601.2,112.3z"/>
<path fill-rule="evenodd" clip-rule="evenodd" fill="#8A5120" d="M266.6,113.9c-2.1,0-4.2,0-6.3,0c-0.3-0.4-0.7-0.7-1-1.1
	c1.4-1.6,2.9-3.2,4.3-4.7c1.5,1.5,3,3,4.5,4.5C267.6,113,267.1,113.5,266.6,113.9z"/>
<path fill-rule="evenodd" clip-rule="evenodd" fill="#8A5120" d="M520.2,128.6c-0.8-1.5-2.3-3.2-2-4.6c0.2-1.4,2.1-2.6,3.3-3.9
	c1.2,1.4,3.1,2.7,3.3,4.2c0.1,1.4-1.7,2.9-2.6,4.4C521.5,128.6,520.8,128.6,520.2,128.6z"/>
<path fill-rule="evenodd" clip-rule="evenodd" fill="#8A5120" d="M359.4,113.8c-2.4,0-4.8,0-7.2,0c-0.3-0.4-0.6-0.8-0.9-1.1
	c1.5-1.6,3.1-3.1,4.6-4.7c1.5,1.6,2.9,3.2,4.4,4.7C360.1,113.1,359.7,113.5,359.4,113.8z"/>
<path fill-rule="evenodd" clip-rule="evenodd" fill="#FCFCFC" d="M37,108.6c0-18.3,0-36.6,0-55c0-6.7,1.2-7.9,7.8-7.9
	c36.6,0,73.3,0,109.9,0c6.5,0,8,1.4,8,7.8c0,36.6,0,73.3,0,109.9c0,6-1.7,7.8-7.7,7.8c-36.8,0-73.6,0-110.4,0
	c-6.1,0-7.7-1.6-7.7-7.7C37,145.2,37,126.9,37,108.6z M69.3,72.3c-4.4,5-8.3,8.9-11.5,13.3c-1.8,2.5-3.4,5.8-3.7,8.8
	c-1.4,15.1-2.4,30.2-3.3,45.3c-0.2,2.9-1,4.6-3.8,5.5c-2.9,0.9-4.8,2.8-3.7,5.5c37.7-13.9,74.9-13.8,112.7-0.1
	c1.7-5.1-4-4.8-7.1-7.3c-1.3-16.7-2.5-33.8-3.9-50.8c-0.1-1.7-0.6-3.7-1.6-4.9c-4.1-5-8.5-9.8-13.2-15.2c-3.1,7.8-9.3,7.5-15.8,7.4
	c-10-0.3-20-0.3-30,0C78.2,79.9,72.3,80.1,69.3,72.3z"/>
<path fill-rule="evenodd" clip-rule="evenodd" fill="#292624" d="M69.3,72.3c3.1,7.8,8.9,7.6,15.1,7.5c10-0.2,20-0.3,30,0
	c6.5,0.2,12.8,0.5,15.8-7.4c4.7,5.4,9.1,10.2,13.2,15.2c1,1.3,1.5,3.2,1.6,4.9c1.4,17.1,2.7,34.1,3.9,50.8c3.1,2.4,8.7,2.1,7.1,7.3
	c-37.7-13.7-75-13.8-112.7,0.1c-1.2-2.7,0.7-4.6,3.7-5.5c2.8-0.9,3.7-2.6,3.8-5.5c0.9-15.1,1.9-30.2,3.3-45.3c0.3-3,1.8-6.3,3.7-8.8
	C61,81.2,64.9,77.3,69.3,72.3z M82.6,93.5c0.6,14.7,1.2,28.9,1.8,43.2c10.3,0,20.2,0,30.5,0c0.7-14.5,1.3-28.8,2-43.2
	C105.2,93.5,94.3,93.5,82.6,93.5z M119.6,104c-0.5,11.2-1,22.2-1.5,33c9.5,1.8,18.4,3.4,27.6,5.1c-1-12.9-2-25.4-3.1-38.1
	C135,104,127.8,104,119.6,104z M79.8,103.9c-7.7,0-15.1,0-23,0c-1,12.8-2,25.4-3,38.1c9.4-1.8,18.3-3.5,27.5-5.2
	C80.8,125.9,80.3,115.1,79.8,103.9z M121.8,83.4c-15,0-29.6,0-44.2,0c2.2,5.4,5.8,7.2,11.4,6.7c7.3-0.6,14.7-0.6,21.9,0
	C116.5,90.5,119.7,88.5,121.8,83.4z M57.4,99.7c7.5,0,14.9,0,22.5,0c-0.3-2.3-0.5-4.2-0.8-6.5c-5.5,0-10.8,0.3-16.1-0.1
	C58.1,92.8,56.3,94.5,57.4,99.7z M120.2,99.8c7.4,0,14.6,0,22.1,0c-0.2-2.2-0.4-4.1-0.6-6.2c-7.3,0-14.3,0-21.5,0
	C120.2,95.7,120.2,97.5,120.2,99.8z M78.5,89.8c-3.4-4.3-6.4-8.1-9.6-12.1c-3.6,4.2-6.8,7.9-10.5,12.1
	C65.3,89.8,71.4,89.8,78.5,89.8z M130.5,77.7c-3.3,4.2-6.2,7.9-9.3,11.9c6.8,0,13.1,0,19.8,0C137.3,85.4,134,81.8,130.5,77.7z"/>
<path fill-rule="evenodd" clip-rule="evenodd" fill="#F9F9F9" d="M82.6,93.5c11.7,0,22.6,0,34.3,0c-0.7,14.5-1.3,28.7-2,43.2
	c-10.3,0-20.2,0-30.5,0C83.8,122.4,83.2,108.2,82.6,93.5z"/>
<path fill-rule="evenodd" clip-rule="evenodd" fill="#FAFAFA" d="M119.6,104c8.2,0,15.4,0,23,0c1,12.7,2,25.2,3.1,38.1
	c-9.2-1.7-18.1-3.3-27.6-5.1C118.6,126.2,119.1,115.2,119.6,104z"/>
<path fill-rule="evenodd" clip-rule="evenodd" fill="#FBFBFB" d="M79.8,103.9c0.5,11.1,1,22,1.5,32.9c-9.3,1.7-18.2,3.4-27.5,5.2
	c1-12.7,2-25.4,3-38.1C64.6,103.9,72,103.9,79.8,103.9z"/>
<path fill-rule="evenodd" clip-rule="evenodd" fill="#FCFCFC" d="M121.8,83.4c-2.1,5.1-5.4,7.1-10.9,6.7c-7.3-0.5-14.7-0.6-21.9,0
	c-5.6,0.4-9.2-1.3-11.4-6.7C92.2,83.4,106.9,83.4,121.8,83.4z"/>
<path fill-rule="evenodd" clip-rule="evenodd" fill="#EFEEEE" d="M57.4,99.7c-1.1-5.2,0.7-6.9,5.7-6.5c5.2,0.4,10.5,0.1,16.1,0.1
	c0.3,2.3,0.5,4.2,0.8,6.5C72.2,99.7,64.9,99.7,57.4,99.7z"/>
<path fill-rule="evenodd" clip-rule="evenodd" fill="#F4F0EE" d="M120.2,99.8c0-2.3,0-4.1,0-6.2c7.2,0,14.3,0,21.5,0
	c0.2,2.1,0.4,4.1,0.6,6.2C134.8,99.8,127.6,99.8,120.2,99.8z"/>
<path fill-rule="evenodd" clip-rule="evenodd" fill="#F6F6F5" d="M78.5,89.8c-7.1,0-13.1,0-20.1,0c3.7-4.2,6.8-7.9,10.5-12.1
	C72,81.7,75,85.4,78.5,89.8z"/>
<path fill-rule="evenodd" clip-rule="evenodd" fill="#F6F6F5" d="M130.5,77.7c3.6,4.1,6.8,7.7,10.5,11.9c-6.7,0-13,0-19.8,0
	C124.3,85.6,127.2,81.9,130.5,77.7z"/>
</svg>
