<?xml version="1.0" encoding="utf-8"?>
<!-- Generator: Adobe Illustrator 16.0.0, SVG Export Plug-In . SVG Version: 6.00 Build 0)  -->
<!DOCTYPE svg PUBLIC "-//W3C//DTD SVG 1.1//EN" "http://www.w3.org/Graphics/SVG/1.1/DTD/svg11.dtd">
<svg version="1.1" id="Layer_1" xmlns:sketch="http://www.bohemiancoding.com/sketch/ns"
	 xmlns="http://www.w3.org/2000/svg" xmlns:xlink="http://www.w3.org/1999/xlink" x="0px" y="0px" width="1041px" height="510px"
	 viewBox="0 0 1041 510" enable-background="new 0 0 1041 510" xml:space="preserve">
<title>IS-36b</title>
<desc>Created with Sketch.</desc>
<g>
	<path fill="#FCFCFC" d="M521.1,510c160.1,0,320.3,0,480.4,0c21.7,0,34.6-12.8,34.6-34.4c0-144.1-0.1-288.3,0.2-432.4
		c0-18.7-13.3-35-34.9-35C681.1,8.4,360.8,8.3,40.5,8.4c-3.3,0-6.7,0.3-9.9,1.1C15.5,13.3,6.4,26.2,6.3,43.6c0,81.7,0,163.3,0,245
		c0,62.2,0,124.3,0,186.5c0,21.2,13.5,35,34.3,35C200.8,510,361,510,521.1,510z"/>
	<path fill-rule="evenodd" clip-rule="evenodd" fill="#221D1A" d="M521.1,510c-160.1,0-320.3,0-480.4,0c-20.8,0-34.3-13.8-34.3-35
		c0-62.2,0-124.3,0-186.5c0-81.7,0-163.3,0-245c0-17.4,9.2-30.3,24.3-34.1c3.2-0.8,6.6-1.1,9.9-1.1c320.3,0,640.6,0,960.9-0.2
		c21.6,0,34.9,16.3,34.9,35c-0.3,144.1-0.2,288.3-0.2,432.4c0,21.6-12.9,34.4-34.6,34.4C841.4,510,681.3,510,521.1,510z
		 M1020.9,64.8c0-7.3-0.5-14.7,0.2-21.9c1-10.1-8.2-20.1-19.5-19.9c-18.6,0.3-37.3,0.1-55.9,0.2c-1.8,0-3.7-0.1-5.5-0.1
		c-299.3,0-598.6,0-897.9,0C28.8,23.1,22,29.9,22,43.3c0,138.7,0,277.3,0,416c0,1.8,0.1,3.7,0.1,5.5c0,4.1-0.2,8.3-0.1,12.4
		c0.1,10,7.6,17.8,17.6,17.8c27.1,0.1,54.1,0,81.2-0.1c2,0,4,0.1,6,0.1c291.4,0,582.8,0,874.3,0c13.3,0,20-6.6,20-19.8
		c0-133.6,0-267.3,0-400.9C1021,71.2,1020.9,68,1020.9,64.8z"/>
	<path fill-rule="evenodd" clip-rule="evenodd" fill="#FEFEFD" d="M22.1,464.7c0-1.8-0.1-3.7-0.1-5.5c0-138.7,0-277.3,0-416
		c0-13.4,6.8-20.2,20.3-20.2c299.3,0,598.6,0,897.9,0c1.8,0,3.7,0,5.5,0.1c-8.3,4.1-16.6,8.4-25,12.4
		C818.6,84.4,716.4,133.2,614.2,182c-15.3,7.3-30.5,14.8-45.7,22.2c-1.2-0.6-2.4-1.1-3.4-1.9c-15.3-10.5-35-10.7-50.4-0.3
		c-13.4,9-19.6,22-20.7,37.7c-1.7,0.7-3.4,1.3-5.1,2.1c-10.5,4.9-21.1,9.9-31.6,14.8c-5.6-19.6-11.2-39.1-16.8-58.6
		c-10.4,0-20.3,0-30.3,0c-4.1,15.4-8.1,30.6-12.2,45.8c-4.3,16-8.8,32-13.1,48c-14,6.7-28.1,13.5-42.1,20.2c-1-1.1-2-2.2-2.9-3.3
		c-14.1,16.3-27.7,10.4-35-3.9c-0.7-1.3-1.2-2.8-1.6-4.2c-4.7-17.8-5.3-35.9-2.6-54c2.2-14.3,11.8-22,24.4-19.5
		c5.3,1.1,10.1,4.8,15.4,7.5c4.5-8.2,9.7-17.5,15.1-27.1c-3.5-2.1-6.4-4.1-9.4-5.7c-12.5-6.7-25.6-9.7-39.9-6.7
		c-20.9,4.4-30.1,19.4-35,38c-6.1,23.6-4.9,47.4-0.8,71.3c1.9,11,5,21.3,13.1,29.6c1.4,1.4,2.5,3,3.8,4.4c-1.4,0.5-2.8,1-4.2,1.6
		c-37.9,18.1-75.8,36.3-113.8,54.4C120.2,418,71.2,441.4,22.1,464.7z M353.7,154c-3.3,0-5.5,0.2-7.6,0c-11.1-1.5-20.6,0.3-26.2,11.4
		c-0.2,0.4-0.8,0.5-1.3,0.9c-3.1-3.3-6.1-6.6-9.2-9.8c-1-1-2.3-2.3-3.5-2.3c-6.6-0.2-13.1-0.1-20.7-0.1c6.7,9,12.8,17.3,19.1,25.3
		c2,2.5,23.8,1.9,26.2-0.6C338,170.8,345.4,162.8,353.7,154z"/>
	<path fill-rule="evenodd" clip-rule="evenodd" fill="#FEFEFE" d="M1020.9,64.8c0,3.2,0.1,6.3,0.1,9.5c0,133.6,0,267.3,0,400.9
		c0,13.2-6.6,19.8-20,19.8c-291.4,0-582.8,0-874.3,0c-2,0-4-0.1-6-0.1c1-0.6,1.8-1.4,2.9-1.9c15.4-7.4,30.9-14.8,46.3-22.1
		c74.1-35.4,148.1-70.8,222.2-106.2c18.1-8.7,36.3-17.2,54.5-25.8c0.8,3.3,1.7,6.6,2.5,9.7c11.5,0,22.6,0,34,0
		c-0.3-1.2-0.6-2-0.8-2.8c-1.8-7.3-3.7-14.6-5.5-22c7.8-3.6,15.7-7.1,23.4-10.9c12.4-6,24.7-12.1,37.1-18.1
		c4.7,2.9,7.1,7.4,6.1,12.6c-1.3,6.5-5.2,11.6-12,13.3c-8.1,2.1-12.8-2.8-16.9-8.9c-6.5,5.9-12.8,11.8-19.4,17.8
		c9.7,14,22.6,22.1,39.1,21.6c18.8-0.6,32.7-10.3,39.9-28.2c6-15,4.3-29.6-4.4-43.3c14.7-7,29.5-14,44.2-21c0.1,1.3,0.3,2.6,0.3,4
		c0.1,26.6,0.3,53.3,0.4,79.9c0,1.9,0,3.9,0,5.9c10.3,0,20.2,0,30.3,0c0-33.3,0-66.3,0-99.2c0-2,0.3-3.9,0.4-5.9
		c1.2-0.5,2.5-1,3.7-1.5c16.3-7.7,32.7-15.4,49-23.1c-0.1,1-0.2,2-0.5,3c-8.1,30.1-16.1,60.2-24.2,90.3c-3.2,12.1-6.5,24.3-9.8,36.7
		c11.3,0,22.1,0,33,0c1.6-6.3,3.1-12.5,4.6-18.6c12.5,0,24.5,0,36.7,0c1.5,6.2,3,12.3,4.5,18.4c11.3,0,22.5,0,33.8,0
		c-0.2-1-0.2-1.7-0.4-2.3c-8.8-30.6-17.6-61.2-26.3-91.8c-5.1-17.8-10-35.7-15-53.6c0.5-0.1,1-0.2,1.4-0.4
		c79.4-37.9,158.7-75.8,238.1-113.7C989.6,79.4,1005.2,72.2,1020.9,64.8z"/>
	<path fill-rule="evenodd" clip-rule="evenodd" fill="#CD3928" d="M698.1,218.9c-16.3,7.7-32.7,15.4-49,23.1c-1.2,0.6-2.4,1-3.7,1.5
		c0-6.1,0-12.2,0-18.8c7.8,0,15.4,0,23.2,0c0-8.9,0-17.2,0-26c-14.2,0-28,0-41.8,0c-10.8,0-21.6-0.1-32.4,0.1
		c-1.5,0-4.2,1.5-4.3,2.4c-0.3,7.6-0.2,15.2-0.2,23.6c8.2,0,15.9,0,24,0c0,11.9,0,23,0,34.1c-14.7,7-29.5,14-44.2,21
		c-8.8-7.2-17.7-14.4-26.5-21.8c-4.6-3.8-9.7-7.2-13.2-11.9c-5.5-7.3-3.4-15.4,3.9-20.4c7.1-4.8,15.5-3.4,20.7,3.6
		c0.7,0.9,1.4,1.7,2.6,3.2c4-7.4,7.4-14.3,11.4-21c1.7-2.9,1.9-5-0.3-7.4c15.2-7.4,30.4-14.9,45.7-22.2
		c102.2-48.8,204.4-97.6,306.6-146.4c8.4-4,16.6-8.3,25-12.4c18.6,0,37.3,0.1,55.9-0.2c11.3-0.2,20.5,9.8,19.5,19.9
		c-0.7,7.3-0.2,14.6-0.2,21.9c-15.6,7.3-31.3,14.6-46.9,22c-79.4,37.9-158.7,75.8-238.1,113.7c-0.4,0.2-0.9,0.2-1.4,0.4
		c-1.1-0.6-2.1-1.8-3.2-1.8c-8.3-0.2-16.7-0.3-25-0.1c-1.2,0-2.8,1.9-3.3,3.3C701.2,207.8,699.7,213.3,698.1,218.9z M708.1,185
		c7.2,0,13.5,0,19.8,0c1,0,2.5-0.3,3.1-1.1c7.4-8.8,14.6-17.8,22.7-27.7c-11.9,0-22.5-0.1-33,0.1c-1,0-2.5,1.2-2.8,2.2
		C714.6,167,711.5,175.6,708.1,185z"/>
	<path fill-rule="evenodd" clip-rule="evenodd" fill="#CD3928" d="M446.7,339c-18.2,8.6-36.4,17.1-54.5,25.8
		c-74.1,35.4-148.2,70.8-222.2,106.2c-15.4,7.4-30.9,14.7-46.3,22.1c-1,0.5-1.9,1.2-2.9,1.9c-27.1,0-54.1,0.2-81.2,0.1
		c-10,0-17.4-7.8-17.6-17.8c-0.1-4.1,0.1-8.3,0.1-12.4c49-23.4,98.1-46.7,147.1-70.1c37.9-18.1,75.8-36.3,113.8-54.4
		c1.3-0.6,2.8-1.1,4.2-1.6c1.8,1.1,3.7,2.2,5.4,3.4c18.7,13.2,43.2,12.5,60.2-1.6c3-2.5,3.4-4.5,1.3-7.9
		c-4.1-6.6-7.7-13.5-11.4-20.3c14-6.7,28.1-13.5,42.1-20.2c-4.8,18.8-9.7,37.6-14.6,57c6.1,0,11.9,0.1,17.7,0c5-0.1,11.3,1.5,14.5-1
		c3.2-2.5,3.5-9,4.6-13.8c0.7-3.3,2.3-4.2,5.5-4.2c8,0.2,16,0,24,0.1C444.9,330.1,444.9,330.1,446.7,339z"/>
	<path fill-rule="evenodd" clip-rule="evenodd" fill="#211A17" d="M446.7,339c-1.9-8.9-1.9-8.9-10.4-8.9c-8,0-16,0.1-24-0.1
		c-3.2-0.1-4.8,0.8-5.5,4.2c-1,4.8-1.4,11.3-4.6,13.8c-3.2,2.5-9.5,0.9-14.5,1c-5.8,0.1-11.6,0-17.7,0c5-19.4,9.8-38.2,14.6-57
		c4.4-16,8.8-32,13.1-48c4.1-15.2,8.1-30.4,12.2-45.8c10,0,19.9,0,30.3,0c5.6,19.5,11.2,39,16.8,58.6c4.5,15.8,8.9,31.6,13.5,47.4
		c1.9,6.6,4.2,13.2,6.3,19.7c1.8,7.3,3.7,14.6,5.5,22c0.2,0.8,0.4,1.6,0.8,2.8c-11.4,0-22.6,0-34,0
		C448.4,345.6,447.6,342.3,446.7,339z M428.6,270.9c-0.7-3.2-1.5-6.3-2.2-9.5c-0.3,0.1-0.7,0.2-1,0.2c-0.9,3.8-1.8,7.6-2.7,11.4
		c-2.6,10.1-5.2,20.3-7.9,30.8c8,0,15,0,22.9,0C434.5,292.5,431.5,281.7,428.6,270.9z"/>
	<path fill-rule="evenodd" clip-rule="evenodd" fill="#211B18" d="M568.5,204.3c2.2,2.4,2,4.5,0.3,7.4c-4,6.6-7.4,13.6-11.4,21
		c-1.2-1.5-2-2.3-2.6-3.2c-5.3-6.9-13.6-8.4-20.7-3.6c-7.3,5-9.3,13.1-3.9,20.4c3.5,4.7,8.6,8.1,13.2,11.9
		c8.8,7.3,17.6,14.5,26.5,21.8c8.7,13.7,10.4,28.3,4.4,43.3c-7.1,17.9-21,27.5-39.9,28.2c-16.6,0.6-29.5-7.6-39.1-21.6
		c6.6-6.1,12.9-11.9,19.4-17.8c4.2,6.1,8.9,10.9,16.9,8.9c6.9-1.8,10.8-6.8,12-13.3c1-5.2-1.4-9.7-6.1-12.6
		c-4.7-3.6-9.2-7.6-14.1-10.7c-16.4-10.5-28.8-23.4-29.4-44.3c1.1-15.8,7.4-28.7,20.7-37.7c15.4-10.4,35.2-10.3,50.4,0.3
		C566.1,203.1,567.3,203.7,568.5,204.3z"/>
	<path fill-rule="evenodd" clip-rule="evenodd" fill="#201B18" d="M342.6,312.2c3.8,6.8,7.3,13.7,11.4,20.3c2.1,3.4,1.7,5.4-1.3,7.9
		c-17,14.1-41.5,14.8-60.2,1.6c-1.7-1.2-3.6-2.3-5.4-3.4c-1.3-1.5-2.4-3.1-3.8-4.5c-8-8.2-11.1-18.6-13.1-29.6
		c-4.2-23.8-5.4-47.6,0.8-71.3c4.9-18.7,14.1-33.6,35-38c14.3-3,27.4,0,39.9,6.7c3.1,1.6,6,3.6,9.4,5.7c-5.4,9.6-10.5,19-15.1,27.1
		c-5.3-2.6-10.1-6.4-15.4-7.5c-12.5-2.5-22.2,5.2-24.4,19.5c-2.7,18.1-2.1,36.2,2.6,54c0.4,1.4,0.9,2.9,1.6,4.2
		c7.4,14.4,20.9,20.2,35,3.9C340.7,310,341.7,311.1,342.6,312.2z"/>
	<path fill-rule="evenodd" clip-rule="evenodd" fill="#CC3928" d="M493.9,239.9c0.6,20.9,13,33.8,29.4,44.3c5,3.2,9.4,7.1,14.1,10.7
		c-12.3,6.1-24.7,12.2-37.1,18.1c-7.8,3.7-15.6,7.3-23.4,10.9c-2.1-6.6-4.4-13.1-6.3-19.7c-4.6-15.8-9-31.6-13.5-47.4
		c10.5-4.9,21.1-9.9,31.6-14.8C490.5,241.2,492.2,240.6,493.9,239.9z"/>
	<path fill-rule="evenodd" clip-rule="evenodd" fill="#231E1C" d="M353.7,154c-8.3,8.8-15.7,16.8-23.2,24.8
		c-2.4,2.5-24.3,3.1-26.2,0.6c-6.3-8.1-12.3-16.3-19.1-25.3c7.6,0,14.1-0.1,20.7,0.1c1.2,0,2.5,1.3,3.5,2.3c3.1,3.2,6.1,6.5,9.2,9.8
		c0.6-0.4,1.2-0.6,1.3-0.9c5.6-11,15.2-12.9,26.2-11.4C348.2,154.2,350.4,154,353.7,154z"/>
	<path fill-rule="evenodd" clip-rule="evenodd" fill="#201B18" d="M698.1,218.9c1.6-5.5,3.1-11.1,4.9-16.6c0.5-1.4,2.1-3.2,3.3-3.3
		c8.3-0.2,16.7-0.1,25,0.1c1.1,0,2.1,1.2,3.2,1.8c5,17.9,9.9,35.8,15,53.6c8.7,30.6,17.6,61.2,26.3,91.8c0.2,0.6,0.2,1.3,0.4,2.3
		c-11.4,0-22.5,0-33.8,0c-1.5-6.1-3-12.2-4.5-18.4c-12.2,0-24.2,0-36.7,0c-1.5,6.1-3,12.3-4.6,18.6c-10.9,0-21.7,0-33,0
		c3.3-12.4,6.5-24.5,9.8-36.7c8.1-30.1,16.1-60.2,24.2-90.3C697.9,220.9,698,219.9,698.1,218.9z M731.3,304.2
		c-3.9-14.4-7.7-28.7-11.5-42.9c-0.3,0-0.6,0-0.9,0c-3.5,14.2-7,28.4-10.6,42.9C716.2,304.2,723.4,304.2,731.3,304.2z"/>
	<path fill-rule="evenodd" clip-rule="evenodd" fill="#201A17" d="M614,258.9c0-11.1,0-22.2,0-34.1c-8.1,0-15.8,0-24,0
		c0-8.4-0.1-16,0.2-23.6c0-0.9,2.8-2.3,4.3-2.4c10.8-0.2,21.6-0.1,32.4-0.1c13.8,0,27.6,0,41.8,0c0,8.7,0,17.1,0,26
		c-7.8,0-15.4,0-23.2,0c0,6.6,0,12.7,0,18.8c-0.1,2-0.4,3.9-0.4,5.9c0,33,0,65.9,0,99.2c-10,0-19.9,0-30.3,0c0-2,0-3.9,0-5.9
		c-0.1-26.6-0.2-53.3-0.4-79.9C614.3,261.5,614.1,260.2,614,258.9z"/>
	<path fill-rule="evenodd" clip-rule="evenodd" fill="#261916" d="M708.1,185c3.4-9.4,6.5-18,9.8-26.5c0.4-1,1.9-2.2,2.8-2.2
		c10.6-0.2,21.1-0.1,33-0.1c-8.1,9.9-15.4,18.8-22.7,27.7c-0.6,0.7-2,1.1-3.1,1.1C721.6,185,715.3,185,708.1,185z"/>
	<path fill-rule="evenodd" clip-rule="evenodd" fill="#C63929" d="M428.6,270.9c3,10.8,5.9,21.6,9,33c-7.9,0-15,0-22.9,0
		c2.7-10.5,5.3-20.6,7.9-30.8C424.6,272.4,426.6,271.6,428.6,270.9z"/>
	<path fill-rule="evenodd" clip-rule="evenodd" fill="#E7E3E1" d="M428.6,270.9c-2,0.7-4,1.5-6,2.2c0.9-3.8,1.8-7.6,2.7-11.4
		c0.3-0.1,0.7-0.2,1-0.2C427.1,264.6,427.8,267.7,428.6,270.9z"/>
	<path fill-rule="evenodd" clip-rule="evenodd" fill="#F8F8F7" d="M731.3,304.2c-7.9,0-15,0-23,0c3.6-14.5,7.1-28.7,10.6-42.9
		c0.3,0,0.6,0,0.9,0C723.6,275.6,727.4,289.8,731.3,304.2z"/>
</g>
<title>IS-36b</title>
<desc>Created with Sketch.</desc>
</svg>
