<?xml version="1.0" encoding="utf-8"?>
<!-- Generator: Adobe Illustrator 15.0.0, SVG Export Plug-In . SVG Version: 6.00 Build 0)  -->
<!DOCTYPE svg PUBLIC "-//W3C//DTD SVG 1.1//EN" "http://www.w3.org/Graphics/SVG/1.1/DTD/svg11.dtd">
<svg version="1.1" id="Vrstva_1" xmlns="http://www.w3.org/2000/svg" xmlns:xlink="http://www.w3.org/1999/xlink" x="0px" y="0px"
	 width="841.89px" height="595.28px" viewBox="0 0 841.89 595.28" enable-background="new 0 0 841.89 595.28" xml:space="preserve">
<path fill-rule="evenodd" clip-rule="evenodd" fill="#FFFFFF" d="M15.363,516.343c-1.448,0-2.896-0.293-4.231-0.843
	c-1.339-0.55-2.566-1.376-3.585-2.4c-1.026-1.022-1.846-2.247-2.4-3.586c-0.553-1.333-0.841-2.779-0.841-4.228V73.114
	c0-1.447,0.288-2.895,0.841-4.228c0.554-1.339,1.374-2.563,2.396-3.586c1.026-1.022,2.25-1.85,3.589-2.4
	c1.335-0.549,2.783-0.843,4.231-0.843h813.274c1.454,0,2.9,0.294,4.233,0.843c1.334,0.55,2.563,1.377,3.586,2.4
	c1.024,1.023,1.845,2.248,2.395,3.586c0.556,1.333,0.849,2.78,0.849,4.228v432.172c0,1.448-0.293,2.895-0.849,4.228
	c-0.55,1.339-1.37,2.563-2.395,3.586c-1.022,1.024-2.252,1.851-3.586,2.4c-1.333,0.55-2.779,0.843-4.233,0.843H15.363z"/>
<path fill="none" stroke="#1F1A17" stroke-width="0.216" stroke-linejoin="round" stroke-miterlimit="10" d="M15.363,516.343
	c-1.448,0-2.896-0.293-4.231-0.843c-1.339-0.55-2.566-1.376-3.585-2.4c-1.026-1.022-1.846-2.247-2.4-3.586
	c-0.553-1.333-0.841-2.779-0.841-4.228V73.114c0-1.447,0.288-2.895,0.841-4.228c0.554-1.339,1.374-2.563,2.396-3.586
	c1.026-1.022,2.25-1.85,3.589-2.4c1.335-0.549,2.783-0.843,4.231-0.843h813.274c1.454,0,2.9,0.294,4.233,0.843
	c1.334,0.55,2.563,1.377,3.586,2.4c1.024,1.023,1.845,2.248,2.395,3.586c0.556,1.333,0.849,2.78,0.849,4.228v432.172
	c0,1.448-0.293,2.895-0.849,4.228c-0.55,1.339-1.37,2.563-2.395,3.586c-1.022,1.024-2.252,1.851-3.586,2.4
	c-1.333,0.55-2.779,0.843-4.233,0.843H15.363z"/>
<polyline fill-rule="evenodd" clip-rule="evenodd" fill="#2D286D" points="822.724,503.012 20.883,503.012 17.632,499.764 
	17.632,77.45 20.883,74.203 822.724,74.203 825.973,77.45 825.973,499.764 "/>
<polyline fill-rule="evenodd" clip-rule="evenodd" fill="#FFFFFF" points="281.213,100.233 286.423,87.408 301.651,87.408 
	291.23,100.233 "/>
<polyline fill-rule="evenodd" clip-rule="evenodd" fill="#FFFFFF" points="253.161,100.636 244.745,89.411 253.96,89.411 
	259.17,95.021 263.979,89.813 274.4,89.813 263.979,100.636 "/>
<path fill-rule="evenodd" clip-rule="evenodd" fill="#FFFFFF" d="M268.387,122.271c-2.805-5.208-7.612-6.007-13.624-2.405
	c-4.408,5.213-3.608,10.425-4.008,18.038c0,4.01,0.4,8.015,1.603,11.618c0.399,3.209,2.808,6.018,4.407,6.812
	c5.21,2.405,6.413,2.008,11.222-1.6c0-0.403,0.399-0.8,0.801-1.203l7.214,11.623c-4.407,4.01-7.616,5.61-14.027,6.416
	c-4.008,0.397-15.228-2.008-20.039-10.023c-4.008-6.41-4.008-11.219-4.807-19.235c0-3.607,0-7.612,0-11.225
	c0.799-9.218,1.203-16.025,9.618-23.638c3.205-2.008,6.413-2.807,9.218-3.21c1.203,0,3.205,0,4.007,0c2.002,0,1.603,0,2.404,0
	c1.203,0,1.203,0.403,2.404,0.403c3.207,1.203,7.214,2.807,10.822,5.207"/>
<polyline fill-rule="evenodd" clip-rule="evenodd" fill="#FFFFFF" points="153.372,105.043 183.429,105.043 183.429,115.861 
	166.997,115.861 166.997,132.293 183.429,132.293 183.429,143.111 166.997,143.111 166.997,159.142 183.429,159.142 
	183.429,170.361 153.372,170.361 "/>
<polyline fill-rule="evenodd" clip-rule="evenodd" fill="#FFFFFF" points="293.636,104.641 293.636,169.964 280.01,169.964 
	280.01,104.641 "/>
<polyline fill-rule="evenodd" clip-rule="evenodd" fill="#FFFFFF" points="326.096,105.44 340.124,105.44 340.124,170.361 
	326.096,170.361 312.87,134.296 312.87,170.361 299.246,170.361 299.246,105.44 312.87,105.44 326.096,135.102 "/>
<polyline fill-rule="evenodd" clip-rule="evenodd" fill="#FFFFFF" points="216.69,104.641 230.315,104.641 230.315,169.562 
	216.69,169.562 203.464,133.496 203.464,169.562 189.438,169.562 189.438,104.641 203.464,104.641 216.69,134.296 "/>
<path fill-rule="evenodd" clip-rule="evenodd" fill="#FFFFFF" d="M124.516,153.134l-5.609-10.023v26.854h-13.625v-65.323
	c6.413,0,12.823,0,19.235,0v11.22c-1.199,0-2.002-0.403-2.805-0.403h-2.804v16.433c1.605,0,3.607,0,5.609-0.805 M132.934,140.706
	l14.824,29.258h-14.424l-8.818-16.831v-22.048c2.005-0.795,4.008-2.003,4.811-4.805c1.603-3.205-0.4-8.821-4.811-10.42v-11.22
	c1.203,0,2.405,0.402,3.608,0.402c4.008,0.397,10.42,3.603,13.625,9.616c3.608,6.812,4.007,14.424-3.205,22.445
	C136.941,138.704,134.937,139.906,132.934,140.706z"/>
<polyline fill-rule="evenodd" clip-rule="evenodd" fill="#FFFFFF" points="90.054,169.964 76.828,169.964 76.828,115.861 
	66.006,115.861 66.006,105.043 100.873,105.043 100.873,115.861 90.054,115.861 "/>
<path fill-rule="evenodd" clip-rule="evenodd" fill="#FFFFFF" d="M758.973,164.425c-1.838,0-3.988,0-6.138,0.31l-1.534,6.138
	h-11.361l13.814-50.669h5.219v20.269v-0.305l-3.988,15.661c1.535,0.31,2.765,0.31,3.988,0.31 M766.656,170.873l-1.229-6.447
	c-2.155,0-4.299,0-6.454,0v-8.288c1.534,0,2.764,0,3.995,0l-3.995-15.665v-20.269h5.225l13.82,50.669H766.656z"/>
<polyline fill-rule="evenodd" clip-rule="evenodd" fill="#FFFFFF" points="669.006,120.513 669.006,170.873 658.559,170.873 
	658.559,120.513 "/>
<polyline fill-rule="evenodd" clip-rule="evenodd" fill="#FFFFFF" points="642.898,120.513 653.34,120.513 653.34,170.873 
	642.898,170.873 632.462,143.237 632.462,170.873 622.015,170.873 622.015,120.513 632.462,120.513 642.898,143.546 "/>
<path fill-rule="evenodd" clip-rule="evenodd" fill="#FFFFFF" d="M719.36,157.977l-3.995-7.988v20.884h-10.74v-50.359
	c4.907,0,9.826,0,14.735,0v8.598c-0.609-0.311-1.229-0.311-2.144-0.311h-1.852v12.591c1.23,0.311,2.766,0,3.995-0.304
	 M726.118,148.454l11.361,22.418h-11.361l-6.758-12.896v-16.89c1.845-0.615,3.384-1.839,3.994-3.994
	c0.925-2.454-0.305-6.752-3.994-7.982v-8.598c0.924,0,1.845,0,2.764,0c3.379,0.615,8.293,2.765,10.752,7.373
	c2.764,5.523,3.069,11.362-2.459,17.5C729.188,146.92,727.653,147.845,726.118,148.454z"/>
<polyline fill-rule="evenodd" clip-rule="evenodd" fill="#FFFFFF" points="692.339,170.568 681.896,170.568 681.896,129.111 
	673.609,129.111 673.609,120.513 700.632,120.513 700.632,128.8 692.339,128.8 "/>
<polyline fill-rule="evenodd" clip-rule="evenodd" fill="#FFFFFF" points="196.432,216.569 211.779,188.318 115.859,208.2 
	150.041,299.234 167.48,268.539 385.136,389.223 385.136,486.896 444.782,486.896 444.782,356.439 651.626,240.283 659.995,254.937 
	677.435,206.448 627.555,196.687 636.62,213.076 413.388,337.6 "/>
</svg>
