<?xml version="1.0" encoding="utf-8"?>
<!-- Generator: Adobe Illustrator 16.0.0, SVG Export Plug-In . SVG Version: 6.00 Build 0)  -->
<!DOCTYPE svg PUBLIC "-//W3C//DTD SVG 1.1//EN" "http://www.w3.org/Graphics/SVG/1.1/DTD/svg11.dtd">
<svg version="1.1" id="Layer_1" xmlns="http://www.w3.org/2000/svg" xmlns:xlink="http://www.w3.org/1999/xlink" x="0px" y="0px"
	 width="301px" height="301px" viewBox="0 0 301 301" enable-background="new 0 0 301 301" xml:space="preserve">
<rect x="11" y="9" fill="none" width="277" height="280"/>
<g>
	<path fill-rule="evenodd" clip-rule="evenodd" fill="#201B19" d="M19.8,288.9c87.3,0,174.6,0,261.9,0.1c6.9,0,6.3,0,6.3-6.6
		c0-89.5,0-178.9,0-268.4c0-1.6,0-3.3,0-5c-1.5,0-2.6,0-3.7,0C194.6,9,105,9,15.4,9C10,9,10,9.3,10,14.5c0,90.3,0,184.1,0,274.4"/>
	<path fill-rule="evenodd" clip-rule="evenodd" fill="#FBED26" d="M280.8,282c-1.7,0-3.2,0-4.6,0c-84.8,0-169.6,0-254.4,0
		c-0.3,0-5.8,0-5.8,0S16,103.4,16,16.2c88.2,0,176.4,0,264.8,0C280.8,104.6,280.8,193,280.8,282z"/>
	<path fill-rule="evenodd" clip-rule="evenodd" fill="#1F1A17" d="M215,164c0,2.1,0.1,3.8,0,5.4c-0.1,1.7,0.5,3.4-0.8,5.2
		c-0.6,0.8-0.7,3,0.3,4.2c0.8,1,0.6,1.6-0.1,2.5c-2,2.4-2.5,4.8-1.6,8.2c0.9,3.5,3,6.5,3.3,10.2c0.3,3.6,2.1,6.8,3.1,10.2
		c0.6,2.2,2.2,4.1,3.4,6.1c2.4,4.1,2.8,8.9,4.7,13.1c0.9,2,0.5,3.6-0.4,4.6c-3.6,3.8-6.5,8-9.8,12c-1.7,2-3.6,2.5-6,2.4
		c-4.9-0.2-9.9,0-14.9,0c0.6-4.4,2.5-7.5,5.5-10.1c1.3-1.1,2.4-2.3,3.5-3.5c0.3-0.3,0.9-0.5,0.5-1.4c-1.2-2.5-1.9-5.2-2.9-7.8
		c-1.2-3-3.1-5.6-4-8.9c-0.7-2.5-2.1-5-3.9-6.8c-1.9-2-3-4.6-5.2-6.4c-2.2-1.8-4.1-3.7-3.9-6.9c-1.6-1.1,0.1-3.2-1.4-4.4
		c-1.3-1-1.6-2.6-2.3-4c-0.5-1-1.4-1.1-2.2,0c-1.9,2.5-2.8,5.5-3.7,8.4c-1,3.5-1.8,7-2.2,10.6c-0.3,2.7-1.3,5.4-2.3,8
		c-0.6,1.6-0.8,3.2-2.3,4.6c-1.7,1.5-1.5,4.3-2.1,6.5c-1.4,5-3.3,9.9-3.2,15.2c0,1.8-1.1,3.5-1.7,5.3c-0.7,2.3-2,2.6-4,2.6
		c-8.4-0.1-16.7,1.4-25.1,1.1c-8.6-0.4-17.3-0.1-26-0.1c-8.5,0-17,0-25.5,0c-1.2,0-3,0.7-3.6-0.6c-0.9-1.6,1.1-2.5,1.6-3.7
		c0.5-1.2,1.2-1.6,2.2-2c2.4-1,4.1-2.8,5.5-4.7c0.8-1,1.8-2.2,1.6-3.8c-0.7-4.4,1.1-8.7,1-13.1c-0.1-4.5,0-9,0-13.5
		c0-2.1,0.3-4-2.6-4.9c-2.4-0.8-3.5-5.2-2.1-8.2c1-2.1-0.1-4.3,1-6.1c1.3-2.1,0.4-4.1,0.9-6.5c-3.1,1.9-6.4,1.7-9.1,3.1
		c-0.4,0.2-1.1,0.2-1.5,0c-1.7-1.2-3.4-2.4-4.9-3.9c-1.3-1.3-0.7-2.7-0.1-4.4c0.8-2.2,3.4-3.1,3.7-5.5c5.1-5.5,9.1-11.9,13.7-17.8
		c3.2-4.1,6.2-8.2,9.9-11.9c1.5-1.4,2.2-3.5,3.9-4.9c0.8-0.6,1.4-1.4,2.1-2.1c-0.9-0.6-1.1-1.5-1-2.6c0.1-1.7-0.6-2.8-2.4-2.9
		c-2.7-0.2-4.3-2.5-6.5-3.6c-1.3-0.6-2-2.5-1.9-3.6c0.3-6.9,0.4-13.9,3.8-20.4c1-2,2.2-3.8,4.2-4.4c2.6-0.8,5.2-1.8,8.3-0.5
		c3.5,1.5,7.4,2.2,10.9,3.9c1.6,0.8,3.6,1.1,5.4,1.3c3.1,0.3,4.9,2.1,6.8,4.1c0.3,0.3,0.5,0.8,0.5,1.3c0.3,4.6,0.1,9.1-1.3,13.5
		c-0.7,2.3-2.4,4.2-4.7,5.3c-1.4,0.6-2.2,1.7-3.3,2.9c2.1,3.6,6.2,4.8,8.6,7.9c0.6,0.7,2.1,0.5,3-0.7c2.5-3.3,5.5-6.3,7.5-9.9
		c4.1-7.4,8.6-14.5,13.2-21.5c3-4.6,6.6-8.8,11.5-11.6c0.7-0.4,1.4-0.2,1.5-1.4c0.1-1.5-0.8-2.5-1.7-2.6c-2.7-0.3-4.5-2.3-6.8-2.9
		c-2.4-0.7-2.6-2-2.5-4c0.1-3.5-0.3-7,0.1-10.5c0.3-3.2,1-6.3,1-9.6c0-2.4,2.5-3.9,3.3-6.1c1.6-0.1,2.8-1.2,4.6-1.1
		c3.3,0.2,6.7,0.2,10,0c5.3-0.3,9.8,1.6,14.4,3.8c3.9,1.8,5.2,4.8,5.5,8.7c0.1,1.8-0.2,3.7,0.1,5.5c0.6,3.8-1.3,6.5-3.6,9
		c-2.2,2.5-2.2,5.9,0.2,8.1c2.4,2.2,3,5.5,5.2,7.9c1,1,2,2.1,2.9,3.2c2.2,2.6,4.6,5.2,5.2,8.8c0.4,2.3,2.2,3.9,3.4,5.5
		c1.4,1.9,2.5,4.2,4.4,5.7c0.4,0.3,1,0.7,1,1c-0.4,4.2,4,4.2,5.7,6.6c1.8,0,2.3,1.7,3.5,2.5c1,0.6,1,1.6,1,2.6c0,8,0,16,0,24
		c0,2.2-2.8,4.8-5.1,4.9C219,164,217.2,164,215,164z"/>
	<path fill-rule="evenodd" clip-rule="evenodd" fill="#FAEC26" d="M146,203.8c0,5.5,0.3,10.6-0.1,15.7c-0.3,3.5-1.9,6.9-2,10.6
		c0,1-0.7,2.1-1.5,2.8c-1.9,2-3.4,4.2-4.6,6.6c-0.3,0.6-0.9,1.3-1.8,1.5c-1.9,0.4-4-0.7-4-2.8c0-5.6-3.2-10.6-3.1-16.2
		c-2.1-1.8,0.1-4.9-2-6.6c1.4-1.8,0.6-4.1,1.2-6c0.3-1,1.5-2.1,2.4-2.3C135.6,205.9,140.6,204.4,146,203.8z"/>
	<path fill-rule="evenodd" clip-rule="evenodd" fill="#F4E825" d="M152.7,152.7c1,3.9-0.7,6.9-1,10c-0.4,3.1-1.8,6.1-1.6,9.3
		c0.1,1.5-0.5,2.6-1.9,3c-1.5,0.4-2.6-0.4-3.1-1.7c-1-2.9-3.5-5.2-3.1-8.7c0.1-1.4,0.4-2.6,1.1-3.5
		C145.6,157.6,148.3,154.3,152.7,152.7z"/>
	<path fill-rule="evenodd" clip-rule="evenodd" fill="#E2D726" d="M108.7,228c0.3,0,0.8,0,0.9,0.2c1.1,2.7,2.5,5.3,3,8.2
		c0.3,1.3-1.9,2.3-3,3.5c-0.2,0.2-0.9,0.1-1.3,0c-0.2,0-0.3-0.5-0.3-0.8c0-3.3,0-6.6,0-9.9C108,228.5,108.2,228.2,108.7,228z"/>
</g>
<line fill-rule="evenodd" clip-rule="evenodd" fill="#FBED26" x1="21.5" y1="282" x2="21.5" y2="271.5"/>
</svg>
