<?xml version="1.0" encoding="UTF-8" standalone="no"?>
<svg width="300px" height="361px" viewBox="0 0 300 361" version="1.1" xmlns="http://www.w3.org/2000/svg" xmlns:xlink="http://www.w3.org/1999/xlink" xmlns:sketch="http://www.bohemiancoding.com/sketch/ns">
    <!-- Generator: Sketch 3.3.1 (12002) - http://www.bohemiancoding.com/sketch -->
    <title>P1b</title>
    <desc>Created with Sketch.</desc>
    <defs></defs>
    <g id="Page-1" stroke="none" stroke-width="1" fill="none" fill-rule="evenodd" sketch:type="MSPage">
        <g id="P1b" sketch:type="MSLayerGroup">
            <g transform="translate(26.500000, 280.400000)" fill="#000000" sketch:type="MSShapeGroup">
                <g id="layer1" transform="translate(15.532494, 21.033168)">
                    <g id="g4259" transform="translate(0.798689, 0.600000)">
                        <path d="M93.4246373,24.348452 L93.4246373,19.271276 L104.409372,19.271276 L104.409372,24.348452" id="path3260"></path>
                        <path d="M8.12193781,29.665688 C8.9845265,29.805548 10.4112032,29.538332 11.2899186,28.708736 C14.8765827,24.737468 6.65441633,20.003468 5.364373,18.2576 L3.62803649,16.333088 C-0.386970206,12.137072 1.48771551,6.171068 2.90176916,4.02062 C5.67991237,0.043784 10.7710791,-0.397816 15.1407061,0.842384 C16.5488562,1.293692 17.7966269,2.098436 18.832554,2.920268 L15.6953988,8.580692 C10.093,3.411836 6.50958763,9.263492 9.85239478,12.235184 C10.9359102,13.900856 14.668579,16.87196 16.21923,18.279332 C20.1834206,21.613292 20.4581032,30.119336 16.5506321,33.53354 C14.8125317,35.293208 12.01591,36.6251 9.54595069,36.727628 C8.26500265,36.674228 6.37471816,36.380924 4.66161184,35.46332 C2.99344201,34.568648 1.34113494,33.556736 0.483237889,32.53808 L4.23764892,27.002816 C5.05028551,28.25888 6.9649641,29.544932 8.12193781,29.665688" id="path3264"></path>
                        <path d="M27.6102771,36.03128 L27.5937184,7.353692 L22.4552393,7.351292 L22.4444402,1.185524 L39.9044457,1.185524 L39.9307237,7.365416 L34.5416082,7.375016 L34.5407443,36.033488" id="path3266"></path>
                        <path d="M52.3214368,36.727628 C54.7972636,36.667508 57.3732586,36.15938 59.7982453,32.937068 C60.2113371,32.367356 60.6120698,31.7045 60.9934121,30.906488 C61.3738784,30.108788 61.7355422,29.175008 62.0601768,28.047344 C62.3842475,26.919644 62.672453,25.597772 62.8754652,23.991176 C63.0787773,22.38458 63.198648,20.493284 63.1977481,18.572564 C63.1968841,16.651892 63.0754896,14.70122 62.8704616,13.0673 C62.6657576,11.433056 62.37838,10.1147 62.0560731,8.997896 C61.7337783,7.880228 61.378294,6.963212 61.0025194,6.181052 C60.6270447,5.398028 60.2321795,4.748396 59.8258792,4.191332 C56.7295448,0.336116 53.9796234,0.285296 50.6056667,0.619964 C48.6636782,0.987248 46.7980758,1.719416 44.9401168,4.191332 C44.5338045,4.748396 44.1389513,5.398028 43.7634766,6.181052 C43.3876899,6.963212 43.0313297,7.880228 42.7090229,8.997896 C42.3876159,10.1147 42.0994104,11.433056 41.8946224,13.0673 C41.6899064,14.70122 41.5682239,16.651892 41.5682239,18.594308 C41.567336,20.537348 41.6891024,22.472996 41.8928585,24.10106 C42.0971066,25.7294 42.3835003,27.05042 42.7058071,28.172216 C43.027226,29.294012 43.3835742,30.21602 43.7593609,31.004048 C44.1348356,31.791752 44.5296888,32.444924 44.9360011,33.00464 C47.4253388,36.2393 49.7739516,36.63596 52.3214368,36.727628 L52.3214368,36.727628 Z M52.319037,30.472532 C53.1501641,30.563252 54.2862954,29.741504 54.6917318,28.897652 C54.8473237,28.627916 55.0066832,28.299728 55.1647469,27.874868 C55.3231585,27.44942 55.4805623,26.9279 55.6354102,26.222432 C55.7902941,25.516988 55.9418183,24.627584 56.0543455,23.326556 C56.1666567,22.026392 56.2390951,20.314028 56.2390951,18.567584 C56.2390951,16.82024 56.1665007,15.038804 56.0557614,13.71194 C55.9440501,12.384476 55.7942898,11.510624 55.6426816,10.823396 C55.317159,9.474176 55.112371,8.66708 54.2894752,7.620176 C53.0693264,6.385844 51.7977736,6.354416 50.5409197,7.620176 C50.1128531,8.130848 49.8931023,8.57804 49.6424778,9.229412 C49.4908816,9.63578 49.3383975,10.136444 49.1868014,10.823396 C49.0361411,11.510624 48.8862608,12.384476 48.7746095,13.71194 C48.6628983,15.038828 48.5908079,16.82024 48.5908079,18.639284 C48.5908079,20.457404 48.6631622,22.312892 48.7729657,23.663864 C48.8822771,25.014848 49.0288577,25.861928 49.1751623,26.528 C49.5559166,27.972416 49.6667039,28.880912 50.9108988,30.012992 C51.3862657,30.362624 51.8360866,30.468404 52.319085,30.472532 L52.319037,30.472532 Z" id="path3268"></path>
                        <path d="M74.6014422,27.685064 C75.8480129,27.685064 77.0966355,27.592544 78.1593085,27.430916 C79.2210937,27.270152 80.0980573,27.040424 80.8642815,26.7713 C82.6523219,26.091704 84.0287585,25.424732 85.637005,23.381516 C87.6415686,20.523224 87.9506285,17.859488 88.0220469,14.54636 C87.9348137,11.247368 87.6806496,7.751816 84.2811228,4.520396 C83.7890292,4.0832 83.2361124,3.677444 82.6020939,3.305168 C81.9683633,2.933768 81.2529791,2.597372 80.4162604,2.301488 C78.6005861,1.637768 76.1303509,1.293104 73.6636554,1.292228 L67.491001,1.289828 L67.491001,36.02156 L74.6090976,36.03392 L74.5994983,27.687704 L74.6014422,27.685064 Z M74.4774079,19.065608 C74.4678086,22.317896 74.475008,21.22106 74.476208,21.489296 C74.462169,21.69404 76.2615966,21.585176 77.3060431,21.417656 C78.3895706,21.191072 78.9310283,20.953736 79.7119274,20.141024 C81.3518994,17.891252 81.2120623,15.883316 81.0927676,12.969788 C80.8871157,11.446652 80.7540341,9.97988 79.1980915,8.524028 C77.6074836,7.335524 76.3949782,7.413116 74.5179287,7.557056 C74.50137,12.153584 74.4843313,16.749464 74.4780918,19.065656 L74.4774079,19.065608 Z" id="path3270"></path>
                        <path d="M120.399216,35.898752 L120.336701,1.043936 L107.987877,3.302816 L107.971318,10.149668 L112.477555,9.72482 L112.521711,35.898752" id="path3272"></path>
                        <path d="M143.234766,1.003976 L142.552572,7.750364 L134.726746,7.740764 L134.222882,12.157424 C138.37451,11.885072 142.886626,13.803416 145.159428,17.166464 C147.431931,20.529488 147.46632,25.337852 146.107798,28.887452 C144.7487,32.4362 141.997879,34.726832 138.936534,35.8019 C135.875177,36.87728 132.503296,36.737144 129.887344,36.108344 C127.272244,35.478812 125.412521,34.359368 124.037585,32.782148 L127.981785,27.331808 C129.979005,29.460548 133.839764,30.488324 136.416659,28.884356 C138.993241,27.2801 140.285649,23.044112 138.072193,20.655392 C135.85785,18.267512 130.137932,17.727752 126.406152,19.187168 L127.893652,1.029752" id="path3274"></path>
                        <path d="M163.638598,36.450272 C165.686359,36.076244 167.650953,35.324072 169.621451,32.807192 C170.05451,32.237492 170.474045,31.574636 170.873026,30.776624 C171.272007,29.978612 171.650997,29.045132 171.991494,27.917492 C172.331428,26.788916 172.632856,25.46702 172.845852,23.860436 C173.059255,22.252952 173.184009,20.361656 173.183433,18.440048 C173.182546,16.518776 173.055811,14.568104 172.84086,12.93332 C172.626041,11.299112 172.324648,9.98072 171.986503,8.863628 C171.649233,7.745936 171.27611,6.828956 170.883009,6.046208 C170.48902,5.263172 170.075952,4.61354 169.649661,4.056476 C166.406746,0.204488 163.526947,0.152804 159.994951,0.487448 C157.960389,0.855008 156.006654,1.586924 154.060262,4.056476 C153.634859,4.61354 153.221779,5.263172 152.827778,6.046208 C152.433813,6.828956 152.06069,7.745936 151.72342,8.86304 C151.38555,9.98072 151.08381,11.299112 150.869927,12.93332 C150.655107,14.568104 150.527665,16.518776 150.526777,18.46268 C150.526777,20.405684 150.653428,22.342268 150.867287,23.970296 C151.08141,25.598648 151.382023,26.919644 151.719292,28.04234 C152.056574,29.16326 152.430561,30.086144 152.823662,30.874172 C153.217663,31.661012 153.631607,32.314196 154.057034,32.874488 C157.279083,36.731744 160.147411,36.78992 163.638598,36.450272 L163.638598,36.450272 Z M162.323561,30.288584 C163.056296,30.190064 163.898306,29.452376 164.273205,28.766036 C164.436308,28.497188 164.602831,28.1681 164.768538,27.74324 C164.934233,27.317792 165.099928,26.79626 165.261532,26.090804 C165.423927,25.38446 165.583215,24.495956 165.700457,23.194928 C165.818048,21.8939 165.89459,20.181524 165.89459,18.435068 C165.89459,16.687724 165.818996,14.906312 165.702101,13.578536 C165.58547,12.25106 165.427971,11.377268 165.269919,10.690316 C164.928522,9.341084 164.714362,8.533964 163.850598,7.487108 C162.573177,6.253652 161.242277,6.222788 159.925776,7.487108 C159.478619,7.997456 159.247685,8.44496 158.984749,9.095156 C158.825642,9.502688 158.666558,10.003052 158.507319,10.690316 C158.349147,11.377268 158.191779,12.25106 158.07516,13.578536 C157.95853,14.906312 157.882659,16.687724 157.882659,18.506756 C157.882659,20.3249 157.958254,22.181252 158.073745,23.532236 C158.187736,24.88322 158.340796,25.7303 158.49592,26.396684 C158.8949,27.840788 159.009779,28.749284 160.313958,29.881352 C160.985857,30.342668 161.608117,30.408476 162.323489,30.288584 L162.323561,30.288584 Z" id="path3276"></path>
                        <path d="M201.024093,19.336196 C201.687773,18.71066 202.567113,18.450932 203.52753,19.376996 C203.774902,19.678448 203.890657,20.074208 203.889781,20.458244 L203.866263,35.898692 L210.524532,35.898692 L210.524532,20.22728 L210.514932,20.22848 C210.398301,18.419456 210.511333,16.80698 207.984174,14.653292 C206.435755,13.510652 204.870129,13.297328 203.026269,13.53884 C201.926879,13.694696 200.745235,14.36684 199.489245,15.43958 C197.192348,12.716156 194.075171,12.914192 191.244472,15.105488 L191.244472,13.67372 L184.801803,13.67372 L184.801803,35.862332 L191.244472,35.862332 C191.27075,30.429596 191.1486,24.965144 191.324386,19.564784 C191.920775,18.481184 192.563601,18.596924 193.489065,18.854336 C194.120144,19.202504 194.308445,19.912052 194.271728,20.422724 L194.24821,35.862332 L200.620648,35.862332 L200.623048,20.386004 C200.626648,20.042816 200.73044,19.67378 201.022017,19.335596" id="path3278"></path>
                    </g>
                </g>
                <path d="M3,9.99046484 L3,9.99046484 L3,70.0095352 C3,73.8692832 6.13624067,77 10.0078745,77 L236.992126,77 C240.869292,77 244,73.872731 244,70.0095352 L244,9.99046484 C244,6.13071676 240.863759,3 236.992126,3 L10.0078745,3 C6.1307084,3 3,6.12726895 3,9.99046484 L3,9.99046484 Z M0,9.99046484 C0,4.47288346 4.47138097,0 10.0078745,0 L236.992126,0 C242.519322,0 247,4.47256878 247,9.99046484 L247,70.0095352 C247,75.5271165 242.528619,80 236.992126,80 L10.0078745,80 C4.48067803,80 0,75.5274312 0,70.0095352 L0,9.99046484 L0,9.99046484 Z" id="Shape"></path>
            </g>
            <g id="Dopravná_značka_P1-Copy" sketch:type="MSShapeGroup">
                <path d="M286.274,2.602 C288.189,3.423 290.929,5.066 293.396,7.257 C298.049,11.637 300.51,18.481 299.691,24.78 C299.419,27.791 298.049,31.076 297.227,32.719 C296.403,34.363 296.403,34.363 296.129,34.636 L168.271,256.406 C161.699,265.721 152.118,267.909 143.081,264.896 C140.617,264.076 138.426,262.706 136.784,261.338 C134.869,259.969 133.499,258.323 132.404,256.405 L4.267,34.636 C-0.112,27.243 -0.934,19.852 3.446,12.185 C6.185,6.982 10.566,3.971 14.673,2.33 C17.137,1.507 19.6,0.959 22.065,0.959 L278.334,0.959 C282.167,1.233 282.99,1.233 286.274,2.602" id="Shape" fill="#000000"></path>
                <path d="M284.357,4.793 C287.097,5.888 290.381,7.256 293.942,12.185 C297.227,17.388 298.049,22.863 296.132,28.339 C295.857,29.709 295.036,31.078 294.487,31.899 C294.212,32.722 293.941,32.995 293.941,33.267 L165.806,255.041 C159.782,263.531 150.747,265.446 142.261,261.614 C140.618,260.789 138.974,259.694 137.606,258.598 C136.511,257.506 135.416,256.406 134.594,255.04 L6.458,33.266 C3.446,28.339 2.351,22.315 4.269,16.839 C5.09,14.376 6.458,11.911 8.101,9.995 C11.934,5.888 17.137,3.697 22.064,3.697 C108.583,3.971 194.83,3.424 281.35,3.971 C282.167,4.245 283.265,4.245 284.357,4.793" id="Shape" fill="#FFFFFF"></path>
                <path d="M282.44,9.721 C284.632,10.542 287.097,11.637 289.289,14.649 C292.571,19.577 292.847,25.054 289.289,30.53 L161.151,252.305 C155.949,258.872 149.104,259.695 142.26,255.59 C141.165,254.766 140.07,253.67 139.248,252.305 L11.113,30.53 C8.101,25.602 7.553,20.399 11.113,14.924 C14.4,10.543 18.232,9.174 22.064,9.174 L278.333,9.174 C279.703,9.173 281.074,9.448 282.44,9.721" id="Shape" fill="#D9261C"></path>
                <path d="M248.491,39.017 L51.633,39.017 L149.926,209.319" id="Shape" fill="#FFFFFF"></path>
            </g>
        </g>
    </g>
</svg>