<?xml version="1.0" encoding="UTF-8" standalone="no"?>
<!-- Created with Inkscape (http://www.inkscape.org/) -->

<svg
   xmlns:dc="http://purl.org/dc/elements/1.1/"
   xmlns:cc="http://creativecommons.org/ns#"
   xmlns:rdf="http://www.w3.org/1999/02/22-rdf-syntax-ns#"
   xmlns:svg="http://www.w3.org/2000/svg"
   xmlns="http://www.w3.org/2000/svg"
   xmlns:sodipodi="http://sodipodi.sourceforge.net/DTD/sodipodi-0.dtd"
   xmlns:inkscape="http://www.inkscape.org/namespaces/inkscape"
   width="1010.4"
   height="1010.4002"
   id="svg2"
   sodipodi:version="0.32"
   inkscape:version="0.48.4 r9939"
   version="1.0"
   sodipodi:docname="Ajax.svg"
   inkscape:output_extension="org.inkscape.output.svg.inkscape">
  <defs
     id="defs4">
    <inkscape:perspective
       sodipodi:type="inkscape:persp3d"
       inkscape:vp_x="0 : 300.5 : 1"
       inkscape:vp_y="0 : 1000 : 0"
       inkscape:vp_z="601 : 300.5 : 1"
       inkscape:persp3d-origin="300.5 : 200.33333 : 1"
       id="perspective3380" />
    <inkscape:perspective
       id="perspective3990"
       inkscape:persp3d-origin="375 : 250 : 1"
       inkscape:vp_z="750 : 375 : 1"
       inkscape:vp_y="0 : 1000 : 0"
       inkscape:vp_x="0 : 375 : 1"
       sodipodi:type="inkscape:persp3d" />
  </defs>
  <sodipodi:namedview
     id="base"
     pagecolor="#ffffff"
     bordercolor="#666666"
     borderopacity="1.0"
     gridtolerance="10000"
     guidetolerance="10"
     objecttolerance="10"
     inkscape:pageopacity="0.0"
     inkscape:pageshadow="2"
     inkscape:zoom="0.44192573"
     inkscape:cx="427.45193"
     inkscape:cy="473.50451"
     inkscape:document-units="px"
     inkscape:current-layer="layer1"
     width="601px"
     height="601px"
     inkscape:window-width="1280"
     inkscape:window-height="1001"
     inkscape:window-x="-8"
     inkscape:window-y="-8"
     showgrid="false"
     fit-margin-top="0.2"
     fit-margin-left="0.2"
     fit-margin-right="0.2"
     fit-margin-bottom="0.2"
     inkscape:window-maximized="1"
     showguides="true"
     inkscape:guide-bbox="true" />
  <metadata
     id="metadata7">
    <rdf:RDF>
      <cc:Work
         rdf:about="">
        <dc:format>image/svg+xml</dc:format>
        <dc:type
           rdf:resource="http://purl.org/dc/dcmitype/StillImage" />
        <dc:title></dc:title>
      </cc:Work>
    </rdf:RDF>
  </metadata>
  <g
     inkscape:label="Layer 1"
     inkscape:groupmode="layer"
     id="layer1"
     transform="translate(1515.529,3241.075)">
    <rect
       style="color:#000000;fill:#000000;fill-opacity:1;fill-rule:nonzero;stroke:none;stroke-width:0.8735441;marker:none;visibility:visible;display:inline;overflow:visible"
       id="rect3653"
       width="0"
       height="27.202072"
       x="578.73834"
       y="298.1684"
       rx="249.48199"
       ry="27.202072" />
    <path
       inkscape:connector-curvature="0"
       id="path3940"
       d="m -801.1513,-2230.8749 295.8223,-295.8221 -10e-5,-418.3556 -295.822,-295.8224 -418.3557,3e-4 -295.8222,295.8221 2e-4,418.3558 295.822,295.822 z"
       style="fill:#000000;fill-opacity:1;stroke:none" />
    <path
       inkscape:connector-curvature="0"
       id="path3942"
       d="m -803.2223,-2235.875 292.8933,-292.8932 -10e-5,-414.2135 -292.8931,-292.8935 -414.2135,3e-4 -292.8933,292.8932 2e-4,414.2136 292.8931,292.8932 z"
       style="fill:#ffffff;fill-opacity:1;stroke:none" />
    <path
       style="fill:#d9261c;fill-opacity:1;stroke:none"
       d="m -1200.6603,-2276.375 -269.1687,-269.1686 10e-5,-380.6626 269.1685,-269.1689 380.6623,4e-4 269.1691,269.1684 -3e-4,380.6627 -269.1687,269.1687 z"
       id="path3944"
       inkscape:connector-curvature="0" />
    <path
       clip-rule="evenodd"
       d="m -636.829,-2745.5449 c -0.8981,15.2401 -9.8722,36.7737 -31.3919,46.632 -7.1779,3.589 -15.2401,5.3783 -22.4179,5.3783 h -54.7046 v 110.3071 h -56.4904 v -304.9009 c 40.3627,0 81.6026,-1.7892 121.948,0.8981 12.5561,1.7997 31.3989,12.5527 38.5698,29.5924 2.6873,7.1778 4.487,14.3385 4.487,22.4144 v 89.6786"
       id="path9"
       style="fill:#ffffff;fill-rule:evenodd;stroke:none"
       inkscape:connector-curvature="0" />
    <polyline
       clip-rule="evenodd"
       points="97.239,121.701 97.239,105.867 144.746,105.867   144.746,122.219 129.691,122.219 129.691,193.876 112.816,193.876 112.816,121.701 "
       id="polyline11"
       style="fill:#ffffff;fill-rule:evenodd;stroke:none"
       transform="matrix(3.4542235,0,0,3.4542235,-1535.877,-3252.0169)" />
    <path
       clip-rule="evenodd"
       d="m -846.6627,-2803.8418 c -0.9049,-23.3022 -7.1778,-47.5095 -35.8756,-68.1381 -36.7668,-22.4144 -74.4316,-23.316 -111.2052,16.1278 -13.4577,17.0397 -17.9447,34.0932 -17.9447,52.0103 0,49.3332 -0.874,98.656 0.9257,147.9754 1.772,20.6287 15.2296,46.6321 39.4334,60.9705 35.8825,18.8394 73.5474,17.9413 107.6164,-20.6148 11.6511,-17.0569 16.1485,-34.0828 16.1485,-50.221"
       id="path13"
       style="fill:#ffffff;fill-rule:evenodd;stroke:none"
       inkscape:connector-curvature="0" />
    <path
       clip-rule="evenodd"
       d="m -901.3742,-2672.0218 c -0.898,-45.7304 0,-92.3659 -0.898,-138.0964 -0.9016,-11.6545 -19.7306,-25.1053 -31.3816,-21.5163 -9.8722,0 -24.2245,16.1415 -23.3299,27.7927 0.9049,47.5335 -0.8946,95.0671 0.9049,143.4849 0.9085,11.6685 18.829,25.1157 29.589,21.5163 11.6648,0.9016 25.9999,-16.1277 24.2176,-26.8911"
       id="path15"
       style="fill:#d9261c;fill-opacity:1;fill-rule:evenodd;stroke:none"
       inkscape:connector-curvature="0" />
    <path
       clip-rule="evenodd"
       d="m -746.2415,-2831.6345 v 80.701 c 11.6753,0 24.2176,1.7997 35.8825,-0.8878 8.0655,-2.6873 19.7236,-16.1381 18.8428,-26.9049 -0.9189,-11.6614 1.7858,-24.2141 -1.8169,-35.8687 -3.5787,-9.8618 -17.0259,-17.9274 -25.1019,-17.0396"
       id="path17"
       style="fill:#d9261c;fill-opacity:1;fill-rule:evenodd;stroke:none"
       inkscape:connector-curvature="0" />
    <path
       clip-rule="evenodd"
       d="m -1329.1279,-2662.1427 c 0,8.9672 8.0725,24.2072 21.5198,26.905 9.8687,2.6735 25.1157,3.5751 31.3885,-14.3523 1.7928,-8.0725 -0.8981,-16.1382 -7.1778,-23.3126 -29.5924,-36.7737 -60.9809,-72.6389 -89.6682,-108.5075 -9.8653,-17.0397 -11.6581,-33.1813 -6.2798,-49.3194 4.4836,-16.1416 19.7305,-37.6718 38.5595,-47.5336 35.8721,-17.9274 73.5369,-17.0259 106.7148,23.316 10.7599,14.3523 15.2435,29.6027 15.2435,43.9446 h -53.8031 c 0,-8.9637 -8.069,-23.3159 -21.5198,-26.0137 -10.7633,-2.677 -25.1121,-3.5786 -31.3885,14.3523 -3.5889,9.8756 2.6875,18.829 11.6615,28.7081 28.6907,34.0793 58.2797,69.036 85.1881,103.1154 9.8618,16.1554 11.6579,33.1813 6.2762,49.3332 -4.4836,16.1279 -19.727,37.6546 -38.5594,47.5198 -35.8687,17.9378 -73.5336,17.0432 -106.7149,-23.316 -10.7633,-14.3523 -15.2434,-29.5889 -16.1415,-43.9343"
       id="path19"
       style="fill:#ffffff;fill-rule:evenodd;stroke:none"
       inkscape:connector-curvature="0" />
  </g>
</svg>
