<?xml version="1.0" encoding="utf-8"?>
<!-- Generator: Adobe Illustrator 15.0.0, SVG Export Plug-In . SVG Version: 6.00 Build 0)  -->
<!DOCTYPE svg PUBLIC "-//W3C//DTD SVG 1.1//EN" "http://www.w3.org/Graphics/SVG/1.1/DTD/svg11.dtd">
<svg version="1.1" id="Vrstva_1" xmlns="http://www.w3.org/2000/svg" xmlns:xlink="http://www.w3.org/1999/xlink" x="0px" y="0px"
	 width="300px" height="300px" viewBox="0 0 300 300" enable-background="new 0 0 300 300" xml:space="preserve">
<path fill-rule="evenodd" clip-rule="evenodd" d="M133.253,28.747c6.289-9.291,15.856-11.479,24.879-8.472
	c2.459,0.816,4.646,1.91,6.29,3.554c1.912,1.363,3.556,3.004,4.646,4.918l127.679,221.455c0.545,0.82,2.187,3.553,3.007,6.564
	c1.368,5.74,1.094,12.029-3.827,18.589c-4.921,6.015-10.936,8.203-16.95,8.203H23.074c-5.469-0.275-11.213-1.094-17.499-9.019
	c-4.102-6.015-5.195-12.856-2.733-19.142c0.815-1.914,1.639-3.557,1.914-4.376l0.545-0.82"/>
<path fill-rule="evenodd" clip-rule="evenodd" fill="#FFFFFF" d="M278.976,281.099H23.074c-2.462,0-5.199-0.823-7.657-1.917
	c-2.459-0.82-4.647-2.459-6.283-4.372c-3.559-4.101-5.477-9.57-4.654-14.767c0.275-2.462,1.365-4.921,1.914-6.56
	c0.819-1.368,1.093-1.643,1.093-1.916L135.441,30.113c6.015-8.471,15.033-10.385,23.51-6.558c1.64,0.822,3.282,1.637,4.65,3.004
	c1.365,1.098,2.188,2.188,3.004,3.554l127.956,221.455c3.826,6.014,6.285,15.584-3.557,24.881
	C287.449,279.728,283.073,281.099,278.976,281.099"/>
<path fill-rule="evenodd" clip-rule="evenodd" fill="#D9261C" d="M283.073,275.084c2.188-0.823,4.651-2.188,6.838-5.199
	c3.279-4.646,3.553-10.116,0-15.582L161.958,32.573c-5.194-6.287-12.025-7.381-18.863-3.003c-1.094,0.821-2.187,1.916-3.007,3.003
	L12.135,254.303c-3.003,4.921-3.553,9.842,0,15.582c3.282,4.102,7.113,5.745,10.939,5.745h255.901
	C280.345,275.63,281.708,275.354,283.073,275.084"/>
<polyline fill-rule="evenodd" clip-rule="evenodd" fill="#FFFFFF" points="52.051,245.28 248.627,245.28 150.475,74.953 "/>
<polyline fill-rule="evenodd" clip-rule="evenodd" points="111.107,167.09 138.174,194.156 111.657,220.676 125.87,234.894 
	152.663,208.099 178.904,234.346 193.127,220.128 166.334,193.606 193.4,166.545 180.006,153.143 151.846,181.032 124.776,153.69 
	"/>
</svg>
