<?xml version="1.0" encoding="UTF-8" standalone="no"?>
<svg width="34px" height="34px" viewBox="0 0 34 34" version="1.1" xmlns="http://www.w3.org/2000/svg" xmlns:xlink="http://www.w3.org/1999/xlink" xmlns:sketch="http://www.bohemiancoding.com/sketch/ns">
    <!-- Generator: Sketch 3.3 (11970) - http://www.bohemiancoding.com/sketch -->
    <title>icon-overview-outline</title>
    <desc>Created with Sketch.</desc>
    <defs></defs>
    <g id="Icon_Final" stroke="none" stroke-width="1" fill="none" fill-rule="evenodd" sketch:type="MSPage">
        <g id="icon-overview-outline" sketch:type="MSArtboardGroup" fill="#000000">
            <path d="M18.8461298,16.2293579 C18.9452513,16.4665342 19,16.7268735 19,17 C19,18.1045695 18.1045695,19 17,19 C15.8954305,19 15,18.1045695 15,17 C15,15.8954305 15.8954305,15 17,15 C17.0854498,15 17.169648,15.0053588 17.2522769,15.0157587 L21.4308769,8.82072941 C21.7383448,8.36488951 22.3555774,8.24356432 22.8166344,8.55455116 C23.2744992,8.86338488 23.3969222,9.48253063 23.0889521,9.93911522 L18.8461298,16.2293579 Z M17,32 C25.2842712,32 32,25.2842712 32,17 C32,8.71572875 25.2842712,2 17,2 C8.71572875,2 2,8.71572875 2,17 C2,25.2842712 8.71572875,32 17,32 Z M17,30 C24.1797017,30 30,24.1797017 30,17 C30,9.82029825 24.1797017,4 17,4 C9.82029825,4 4,9.82029825 4,17 C4,24.1797017 9.82029825,30 17,30 Z M15.5,8 C15.5,7.17157288 16.1657972,6.5 17,6.5 C17.8284271,6.5 18.5,7.16579723 18.5,8 C18.5,8.82842712 17.8342028,9.5 17,9.5 C16.1715729,9.5 15.5,8.83420277 15.5,8 Z M7.49903791,17.75 C8.21647685,17.3357864 9.13097464,17.5765973 9.54807602,18.2990381 C9.96228958,19.016477 9.7214787,19.9309748 8.99903791,20.3480762 C8.28159898,20.7622898 7.36710119,20.5214789 6.94999981,19.7990381 C6.53578625,19.0815992 6.77659713,18.1671014 7.49903791,17.75 Z M24.8990385,17.6499996 C25.6164774,17.2357861 26.5309752,17.4765969 26.9480766,18.1990377 C27.3622902,18.9164767 27.1214793,19.8309744 26.3990385,20.2480758 C25.6815996,20.6622894 24.7671018,20.4214785 24.3500004,19.6990377 C23.9357868,18.9815988 24.1765977,18.067101 24.8990385,17.6499996 Z M7.75,14.9480766 C7.03256106,14.533863 6.78386051,13.6214793 7.20096189,12.8990385 C7.61517546,12.1815996 8.52755921,11.932899 9.25,12.3500004 C9.96743894,12.7642139 10.2161395,13.6765977 9.79903811,14.3990385 C9.38482454,15.1164774 8.47244079,15.365178 7.75,14.9480766 Z M24.75,14.9480766 C24.0325611,14.533863 23.7838605,13.6214793 24.2009619,12.8990385 C24.6151755,12.1815996 25.5275592,11.932899 26.25,12.3500004 C26.9674389,12.7642139 27.2161395,13.6765977 26.7990381,14.3990385 C26.3848245,15.1164774 25.4724408,15.365178 24.75,14.9480766 Z M10.75,24.9480766 C10.0325611,24.533863 9.78386051,23.6214793 10.2009619,22.8990385 C10.6151755,22.1815996 11.5275592,21.932899 12.25,22.3500004 C12.9674389,22.7642139 13.2161395,23.6765977 12.7990381,24.3990385 C12.3848245,25.1164774 11.4724408,25.365178 10.75,24.9480766 Z M21.75,24.9480766 C21.0325611,24.533863 20.7838605,23.6214793 21.2009619,22.8990385 C21.6151755,22.1815996 22.5275592,21.932899 23.25,22.3500004 C23.9674389,22.7642139 24.2161395,23.6765977 23.7990381,24.3990385 C23.3848245,25.1164774 22.4724408,25.365178 21.75,24.9480766 Z M10.3500004,10.2490379 C9.93578682,9.53159898 10.1765977,8.61710119 10.8990385,8.19999981 C11.6164774,7.78578625 12.5309752,8.02659713 12.9480766,8.74903791 C13.3622902,9.46647685 13.1214793,10.3809746 12.3990385,10.798076 C11.6815996,11.2122896 10.7671018,10.9714787 10.3500004,10.2490379 Z" id="Oval-9" sketch:type="MSShapeGroup"></path>
        </g>
    </g>
</svg>