<?xml version="1.0" encoding="UTF-8" standalone="no"?>
<svg width="24px" height="24px" viewBox="0 0 24 24" version="1.1" xmlns="http://www.w3.org/2000/svg" xmlns:xlink="http://www.w3.org/1999/xlink" xmlns:sketch="http://www.bohemiancoding.com/sketch/ns">
    <!-- Generator: Sketch 3.2.2 (9983) - http://www.bohemiancoding.com/sketch -->
    <title>icon-close</title>
    <desc>Created with Sketch.</desc>
    <defs></defs>
    <g id="Icon_Final" stroke="none" stroke-width="1" fill="none" fill-rule="evenodd" sketch:type="MSPage">
        <g id="icon-close" sketch:type="MSArtboardGroup" fill="#000000">
            <path d="M13.4142136,12 L20.2781746,18.863961 C20.6686989,19.2544853 20.6686989,19.8876503 20.2781746,20.2781746 C19.8876503,20.6686989 19.2544853,20.6686989 18.863961,20.2781746 L12,13.4142136 L5.20710678,20.2071068 C4.81658249,20.5976311 4.18341751,20.5976311 3.79289322,20.2071068 C3.40236893,19.8165825 3.40236893,19.1834175 3.79289322,18.7928932 L10.5857864,12 L3.79289322,5.20710678 C3.40236893,4.81658249 3.40236893,4.18341751 3.79289322,3.79289322 C4.18341751,3.40236893 4.81658249,3.40236893 5.20710678,3.79289322 L12,10.5857864 L18.863961,3.72182541 C19.2544853,3.33130112 19.8876503,3.33130112 20.2781746,3.72182541 C20.6686989,4.1123497 20.6686989,4.74551468 20.2781746,5.13603897 L13.4142136,12 Z" id="Line" sketch:type="MSShapeGroup"></path>
        </g>
    </g>
</svg>