<?xml version="1.0" encoding="UTF-8" standalone="no"?>
<svg width="34px" height="34px" viewBox="0 0 34 34" version="1.1" xmlns="http://www.w3.org/2000/svg" xmlns:xlink="http://www.w3.org/1999/xlink" xmlns:sketch="http://www.bohemiancoding.com/sketch/ns">
    <!-- Generator: Sketch 3.2.2 (9983) - http://www.bohemiancoding.com/sketch -->
    <title>icon-info</title>
    <desc>Created with Sketch.</desc>
    <defs></defs>
    <g id="Icon_Final" stroke="none" stroke-width="1" fill="none" fill-rule="evenodd" sketch:type="MSPage">
        <g id="icon-info" sketch:type="MSArtboardGroup" fill="#000000">
            <path d="M16.0000031,23 C16.000001,22.9991758 16,22.9983513 16,22.9975267 L16,14 L14.990778,14 C14.4435864,14 14,13.5561352 14,13 C14,12.4477153 14.4509752,12 14.990778,12 L19.009222,12 C19.5564136,12 20,12.4438648 20,13 C20,13.5522847 19.5490248,14 19.009222,14 L18,14 L18,14 L18,22.9975267 C18,22.9983514 17.999999,22.9991758 17.999997,23 L19.009222,23 C19.5564136,23 20,23.4438648 20,24 C20,24.5522847 19.5490248,25 19.009222,25 L14.990778,25 C14.4435864,25 14,24.5561352 14,24 C14,23.4477153 14.4509752,23 14.990778,23 L16.0000028,23 Z M17,32 C25.2842712,32 32,25.2842712 32,17 C32,8.71572875 25.2842712,2 17,2 C8.71572875,2 2,8.71572875 2,17 C2,25.2842712 8.71572875,32 17,32 Z M17,10.5 C17.8284271,10.5 18.5,9.82842712 18.5,9 C18.5,8.17157288 17.8284271,7.5 17,7.5 C16.1715729,7.5 15.5,8.17157288 15.5,9 C15.5,9.82842712 16.1715729,10.5 17,10.5 Z" id="Oval-9" sketch:type="MSShapeGroup"></path>
        </g>
    </g>
</svg>