<?xml version="1.0" encoding="UTF-8" standalone="no"?>
<svg width="24px" height="24px" viewBox="0 0 24 24" version="1.1" xmlns="http://www.w3.org/2000/svg" xmlns:xlink="http://www.w3.org/1999/xlink" xmlns:sketch="http://www.bohemiancoding.com/sketch/ns">
    <!-- Generator: Sketch 3.2.2 (9983) - http://www.bohemiancoding.com/sketch -->
    <title>icon-pin</title>
    <desc>Created with Sketch.</desc>
    <defs></defs>
    <g id="Icon_Final" stroke="none" stroke-width="1" fill="none" fill-rule="evenodd" sketch:type="MSPage">
        <g id="icon-pin" sketch:type="MSArtboardGroup" fill="#000000">
            <path d="M11,15 L13,15 L13,22.0029699 C13,22.5536144 12.5561352,23 12,23 C11.4477153,23 11,22.5469637 11,22.0029699 L11,15 Z M7.11232902,1.53952173 L6.11169774,3.46845392 C5.85467873,3.96391339 6.05300603,4.57386359 6.55226803,4.82341582 L8.00018044,5.57467542 C8.00018044,5.57467542 8.00213343,8.13842727 8.00733577,8.35742068 C7.62787187,8.57144425 7.20873114,8.87692066 6.79297996,9.2925698 C5.67062794,10.4146464 4.99968122,11.9801652 5.00000001,14.0001578 C5.00008716,14.5523809 5.44777688,15 6,15 L11.8271606,15 L15.3333335,15 L18.0000001,15 C18.5522849,15 19.0000002,14.5522847 19.0000001,14 C19.0000001,11.971421 18.2992014,10.4009227 17.1310676,9.27923886 C16.4217882,8.59816347 15.8751451,8.37268176 15.8751451,8.37268176 C15.8751451,8.37268176 15.8717037,6.51980202 15.8748418,5.63533127 C16.3919306,5.39177828 17.426108,4.9046723 17.426108,4.9046723 C17.9340538,4.6654257 18.1455239,4.05497989 17.8944272,3.5527864 L16.8944272,1.5527864 C16.7250352,1.21400238 16.3787721,1 16,1 L8,1 C7.62658485,1 7.28427858,1.20805194 7.11232902,1.53952173 Z" id="Rectangle-8" sketch:type="MSShapeGroup"></path>
        </g>
    </g>
</svg>