<?xml version="1.0" encoding="UTF-8" standalone="no"?>
<svg width="34px" height="34px" viewBox="0 0 34 34" version="1.1" xmlns="http://www.w3.org/2000/svg" xmlns:xlink="http://www.w3.org/1999/xlink" xmlns:sketch="http://www.bohemiancoding.com/sketch/ns">
    <!-- Generator: Sketch 3.2.2 (9983) - http://www.bohemiancoding.com/sketch -->
    <title>icon-theory-outline</title>
    <desc>Created with Sketch.</desc>
    <defs></defs>
    <g id="Icons" stroke="none" stroke-width="1" fill="none" fill-rule="evenodd" sketch:type="MSPage">
        <g id="icon-theory-outline" sketch:type="MSArtboardGroup" fill="#000000">
            <path d="M1.11022302e-16,5 L0,28 C0,28.5522847 0.44771525,29 1,29 L33,29 C33.5522847,29 34,28.5522847 34,28 L34,5 C34,4.44771525 33.5522847,4 33,4 L25,4 L18,5 L16,5 L10,4 L1,4 C0.44771525,4 1.11022302e-16,4.44771525 1.11022302e-16,5 Z M6,6.00000001 L6,5.00000001 L28,5.00000001 L28,6.00000001 L32,6 L32,27 L2,27 L2,6 L6,6.00000001 Z" id="Rectangle-31" sketch:type="MSShapeGroup"></path>
            <path d="M16.999654,25.8421186 C18.0691468,24.1601865 19.9977546,23 22.0023695,23 L28,23 L28,5 L20.9958262,5 C19.3463059,5 18,6.34690807 18,8.00281647 L18,29 L17,28.9009805 L16,29 L16,8.00281647 C16,6.34759938 14.6561028,5 13.0041738,5 L6,5 L6,23 L11.9976305,23 C14.0008475,23 15.92979,24.1611831 16.999654,25.8421186 Z M16.0081258,29.1396485 L15.8024342,28.1111906 C15.4635468,26.4167535 13.731878,25 11.9976305,25 L5,25 C4.44771525,25 4,24.5522847 4,24 L4,4 C4,3.44771525 4.44771525,3 5,3 L13.0041738,3 C14.6374703,3 16.0884919,3.78722525 17.0002312,5.00227781 C17.9125825,3.78694033 19.3642378,3 20.9958262,3 L29,3 C29.5522847,3 30,3.44771525 30,4 L30,24 C30,24.5522847 29.5522847,25 29,25 L22.0023695,25 C20.2666193,25 18.5369559,26.4142401 18.1975658,28.1111906 L17.9918742,29.1396485 C17.9641659,29.3721966 17.8674561,29.5599394 17.7304788,29.7000318 C17.5381254,29.9050337 17.2688928,30.0026105 17,30.0004083 C16.7311072,30.0026105 16.4618746,29.9050337 16.2695212,29.7000318 C16.1325439,29.5599394 16.0358341,29.3721966 16.0081258,29.1396485 L16.0081258,29.1396485 Z" id="Rectangle-357" sketch:type="MSShapeGroup"></path>
        </g>
    </g>
</svg>