<?xml version="1.0" encoding="UTF-8" standalone="no"?>
<svg width="34px" height="34px" viewBox="0 0 34 34" version="1.1" xmlns="http://www.w3.org/2000/svg" xmlns:xlink="http://www.w3.org/1999/xlink" xmlns:sketch="http://www.bohemiancoding.com/sketch/ns">
    <!-- Generator: Sketch 3.2.2 (9983) - http://www.bohemiancoding.com/sketch -->
    <title>icon-theory</title>
    <desc>Created with Sketch.</desc>
    <defs></defs>
    <g id="Icon_Final" stroke="none" stroke-width="1" fill="none" fill-rule="evenodd" sketch:type="MSPage">
        <g id="icon-theory" sketch:type="MSArtboardGroup" fill="#000000">
            <path d="M17.0029919,3 L17.0009408,3 L17.0009408,3 C17.0012825,3.00045517 17.0016242,3.0009104 17.0019658,3.00136569 C17.0023077,3.0009104 17.0026498,3.00045517 17.0029919,3 L17.0029919,3 Z M30,4 L33.009222,4 C33.5564136,4 34,4.45526288 34,4.99545703 L34,28.004543 C34,28.5543187 33.5450757,29 33.0008579,29 L18.0198039,29 L18.1975658,28.1111906 C18.5369559,26.4142401 20.2666193,25 22.0023695,25 L29,25 C29.5522847,25 30,24.5522847 30,24 L30,4 L30,4 Z M4,4 L0.990777969,4 C0.45097518,4 -1.11048655e-15,4.44568129 -1.11567472e-15,4.99545703 L-1.33280907e-15,28.004543 C-1.33790682e-15,28.5447371 0.447331172,29 0.999142136,29 L15.9801961,29 L15.8024342,28.1111906 C15.4635468,26.4167535 13.731878,25 11.9976305,25 L5,25 C4.44771525,25 4,24.5522847 4,24 L4,4 L4,4 Z M18,6.00629425 C18,4.34827317 19.3465005,3 20.9958262,3 L28,3 L28,23 L22.0023695,23 C20.5481303,23 19.1338915,23.610573 18.058629,24.5879742 C18,23 18,17 18,17 L18,6.00629425 Z M13.0041738,3 C14.6577003,3 16,4.34371688 16,5.99847066 C16,5.99847066 16.0150766,23 16.0150769,24.6573543 C14.9309084,23.6399235 13.4847357,23 11.9976305,23 L6,23 L6,3 L13.0041738,3 Z" id="Rectangle-355" sketch:type="MSShapeGroup"></path>
        </g>
    </g>
</svg>