<?xml version="1.0" encoding="UTF-8" standalone="no"?>
<svg width="24px" height="24px" viewBox="0 0 24 24" version="1.1" xmlns="http://www.w3.org/2000/svg" xmlns:xlink="http://www.w3.org/1999/xlink" xmlns:sketch="http://www.bohemiancoding.com/sketch/ns">
    <!-- Generator: Sketch 3.2.2 (9983) - http://www.bohemiancoding.com/sketch -->
    <title>icon-star-outline</title>
    <desc>Created with Sketch.</desc>
    <defs></defs>
    <g id="Icon_Final" stroke="none" stroke-width="1" fill="none" fill-rule="evenodd" sketch:type="MSPage">
        <g id="icon-star-outline" sketch:type="MSArtboardGroup" fill="#000000">
            <path d="M17.9443835,22.7525883 C18.7034831,23.2162435 19.6447348,22.5323842 19.4383472,21.6671602 L17.8259231,14.8885113 L23.1121782,10.3602709 C23.7877152,9.78160157 23.428189,8.67509389 22.5415348,8.60401123 L15.592787,8.03413678 L12.9233204,1.61596937 C12.5817255,0.794676875 11.4182745,0.794676875 11.0766796,1.61596937 L8.43574109,8.0446462 L1.45846517,8.60401123 C0.571810978,8.67509389 0.21228484,9.78160157 0.887821811,10.3602709 L6.17724573,14.8942249 L4.56165283,21.6671602 C4.35526524,22.5323842 5.29651689,23.2162435 6.05561655,22.7525883 L12.0092249,19.116147 L17.9443835,22.7525883 Z M7.0599284,19.8135116 L8.26497964,14.7616609 C8.35198721,14.3969053 8.22761535,14.014128 7.94282675,13.7701763 L4.04649277,10.4029471 L9.17037615,9.99216771 C9.54416621,9.96220113 9.86977597,9.72563179 10.0137834,9.3793965 L12.0024398,4.60982506 L13.9862166,9.3793965 C14.130224,9.72563179 14.4558338,9.96220113 14.8296239,9.99216771 L19.9925941,10.3990693 L16.0571732,13.7701763 C15.7723846,14.014128 15.6480128,14.3969053 15.7350204,14.7616609 L16.9394196,19.7951971 L12.5212543,17.0965986 C12.2012379,16.9011338 11.7987621,16.9011338 11.4787457,17.0965986 L7.0599284,19.8135116 Z" id="Star-2" sketch:type="MSShapeGroup"></path>
        </g>
    </g>
</svg>