<?xml version="1.0" encoding="UTF-8" standalone="no"?>
<svg width="34px" height="34px" viewBox="0 0 34 34" version="1.1" xmlns="http://www.w3.org/2000/svg" xmlns:xlink="http://www.w3.org/1999/xlink" xmlns:sketch="http://www.bohemiancoding.com/sketch/ns">
    <!-- Generator: Sketch 3.2.2 (9983) - http://www.bohemiancoding.com/sketch -->
    <title>icon-questions</title>
    <desc>Created with Sketch.</desc>
    <defs></defs>
    <g id="Icon_Final" stroke="none" stroke-width="1" fill="none" fill-rule="evenodd" sketch:type="MSPage">
        <g id="icon-questions" sketch:type="MSArtboardGroup" fill="#000000">
            <path d="M3.70665439,26.3290209 C3.49501242,26.8792901 3.2893333,27.2632244 3.16794971,27.4452998 C2.62938423,28.253148 3.44202954,29.2772394 4.35112344,28.9363292 C4.35112344,28.9363292 9.05920454,27.0340056 9.19299069,27.1047519 C11.5238034,28.3372892 14.2068607,29 17,29 C25.2529964,29 32,23.216854 32,16 C32,8.78314596 25.2529964,3 17,3 C8.74700362,3 2,8.78314596 2,16 C2,18.4765782 2.80006697,20.8489618 4.27822963,22.8946876 C4.33570712,22.9742344 4.13991701,25.2025381 3.70665439,26.3290209 Z M17,24.5 C17.8284271,24.5 18.5,23.8284271 18.5,23 C18.5,22.1715729 17.8284271,21.5 17,21.5 C16.1715729,21.5 15.5,22.1715729 15.5,23 C15.5,23.8284271 16.1715729,24.5 17,24.5 Z M17,9.5 C18.9463173,9.5 20.5,10.9607274 20.5,12.7307692 C20.5,13.4043205 20.1499826,13.9768907 19.5171256,14.4713518 C19.2754074,14.66021 19.0116453,14.8212136 18.7481659,14.9520249 C18.5942522,15.0284395 18.4813485,15.0753051 18.4318483,15.092831 L18.3011213,15.1499084 C16.9943557,15.8352985 16,17.480285 16,18.9616576 L16,19.5 C16,20.0522847 16.4477153,20.5 17,20.5 C17.5522847,20.5 18,20.0522847 18,19.5 L18,18.9616576 C18,18.2237396 18.5819407,17.2610211 19.2300858,16.9210732 L19.0993589,16.9781505 C19.5341976,16.8241928 20.1376743,16.5245808 20.748478,16.0473503 C21.8246188,15.2065445 22.5,14.1017336 22.5,12.7307692 C22.5,9.82763245 20.0242455,7.5 17,7.5 C13.9757545,7.5 11.5,9.82763245 11.5,12.7307692 C11.5,13.283054 11.9477153,13.7307692 12.5,13.7307692 C13.0522847,13.7307692 13.5,13.283054 13.5,12.7307692 C13.5,10.9607274 15.0536827,9.5 17,9.5 Z" id="Oval-27" sketch:type="MSShapeGroup"></path>
        </g>
    </g>
</svg>