<?xml version="1.0" encoding="UTF-8" standalone="no"?>
<svg width="34px" height="34px" viewBox="0 0 34 34" version="1.1" xmlns="http://www.w3.org/2000/svg" xmlns:xlink="http://www.w3.org/1999/xlink" xmlns:sketch="http://www.bohemiancoding.com/sketch/ns">
    <!-- Generator: Sketch 3.2.2 (9983) - http://www.bohemiancoding.com/sketch -->
    <title>icon-theory-outline</title>
    <desc>Created with Sketch.</desc>
    <defs></defs>
    <g id="Icon_Final" stroke="none" stroke-width="1" fill="none" fill-rule="evenodd" sketch:type="MSPage">
        <g id="icon-theory-outline" sketch:type="MSArtboardGroup" fill="#000000">
            <path d="M18.0009227,4 L15.9990773,4 C15.1643825,3.3722949 14.1273789,3 13.0041738,3 L5,3 C4.44771525,3 4,3.44771525 4,4 L1,4 C0.44771525,4 1.11022302e-16,4.44771525 1.11022302e-16,5 L0,28 C0,28.5522847 0.44771525,29 1,29 L15.9801961,29 L15.9801961,29 L16.0081258,29.1396485 C16.0358341,29.3721966 16.1325439,29.5599394 16.2695212,29.7000318 C16.4618746,29.9050337 16.7311072,30.0026105 17,30.0004083 C17.2688928,30.0026105 17.5381254,29.9050337 17.7304788,29.7000318 C17.8674561,29.5599394 17.9641659,29.3721966 17.9918742,29.1396485 L18.0198039,29 L33,29 C33.5522847,29 34,28.5522847 34,28 L34,5 C34,4.44771525 33.5522847,4 33,4 L30,4 C30,3.44771525 29.5522847,3 29,3 L20.9958262,3 C19.8726211,3 18.8356175,3.3722949 18.0009227,4 L18.0009227,4 Z M18.0009227,4.00000001 L15.9990773,4.00000001 L15.9990773,4.00000001 C16.3780423,4.28498833 16.7153052,4.62262454 17,5.00196979 C17.2846948,4.62262454 17.6219577,4.28498833 18.0009227,4.00000001 L18.0009227,4.00000001 Z M30,5.00000001 L30,6.00000001 L32,6 L32,27 L18.6354917,27 C19.3331239,25.8400142 20.6669822,25 22.0023695,25 L29,25 C29.5522847,25 30,24.5522847 30,24 L30,5.00000001 Z M4,5.00000001 L4,6.00000001 L2,6 L2,27 L15.3645083,27 C14.6668761,25.8400142 13.3330178,25 11.9976305,25 L5,25 C4.44771525,25 4,24.5522847 4,24 L4,5.00000001 Z M13.0041738,5 C14.6561028,5 16,6.34759938 16,8.00281647 C16,8.00281647 16.0066662,23 16.0066661,24.6494756 C14.9234351,23.636621 13.4808934,23 11.9976305,23 L6,23 L6,5 L13.0041738,5 Z M20.9764069,5 C19.3244778,5 17.9805807,6.34759938 17.9805807,8.00281647 C17.9805807,8.00281647 18.0492386,22 18.0492389,24.5801753 C19.1235371,23.6076676 20.533809,23 21.9829502,23 L27.9805807,23 L27.9805807,5 L20.9764069,5 Z" id="Rectangle-31" sketch:type="MSShapeGroup"></path>
        </g>
    </g>
</svg>