<?xml version="1.0" encoding="UTF-8" standalone="no"?>
<svg width="34px" height="34px" viewBox="0 0 34 34" version="1.1" xmlns="http://www.w3.org/2000/svg" xmlns:xlink="http://www.w3.org/1999/xlink" xmlns:sketch="http://www.bohemiancoding.com/sketch/ns">
    <!-- Generator: Sketch 3.3 (11970) - http://www.bohemiancoding.com/sketch -->
    <title>icon-overview-outline2</title>
    <desc>Created with Sketch.</desc>
    <defs></defs>
    <g id="Icon_Final" stroke="none" stroke-width="1" fill="none" fill-rule="evenodd" sketch:type="MSPage">
        <g id="icon-overview-outline2" sketch:type="MSArtboardGroup" fill="#000000">
            <path d="M24.7100067,23 C25.8071627,23.2909322 26.8796474,23.6424736 27.9236594,24.0508228 L27.9236594,24.0508228 C29.2373581,22.0197299 30,19.5989272 30,17 C30,15.9674615 29.8796226,14.9630387 29.6521363,14 L29.6521363,14 L25.990778,14 C25.4435864,14 24.8929825,14.4280701 24.7579279,14.9682884 L24.0523482,17.790607 L23.369006,21.6660334 C23.4786765,22.4411764 24.1161216,23 25,23 L24.7100067,23 L24.7100067,23 Z M9.28999331,23 C8.19283733,23.2909322 7.12035261,23.6424736 6.07634059,24.0508228 C4.7626419,22.0197299 4,19.5989272 4,17 C4,15.9674615 4.12037739,14.9630387 4.34786368,14 L4.34786368,14 L8.00922203,14 C8.54902482,14 9.10837937,14.4335175 9.24207211,14.9682884 L9.94765176,17.790607 L10.6299681,21.6602152 C10.5196887,22.4322053 9.88352913,23 9,23 L9.28999331,23 L9.28999331,23 Z M29.0036733,12 C27.0445541,7.3020963 22.4079,4 17,4 C11.5921,4 6.95544595,7.3020963 4.9963267,12 L29.0036733,12 L29.0036733,12 Z M17.9367024,31.9712286 C17.6269181,31.9903156 17.31459,32 17,32 C8.71572875,32 2,25.2842712 2,17 C2,8.71572875 8.71572875,2 17,2 C25.2842712,2 32,8.71572875 32,17 C32,24.9287484 25.848319,31.4206948 18.0574951,31.9633011 C18.019722,31.9874247 17.9999995,32 17.9999995,32 L17.9367024,31.9712286 L17.9367024,31.9712286 Z M26.7025604,25.7266979 C23.6795761,24.6099379 20.4110174,24 17,24 C13.6391249,24 10.4165509,24.5921374 7.43091289,25.6777774 C7.43091289,25.6777774 10.9999998,29.8961754 16.9999999,30 C22.9999999,30.1038246 26.7025604,25.7266979 26.7025604,25.7266979 Z M17,21 C18.6568542,21 20,19.6568542 20,18 C20,16.3431458 18.6568542,15 17,15 C15.3431458,15 14,16.3431458 14,18 C14,19.6568542 15.3431458,21 17,21 Z" id="Oval-9" sketch:type="MSShapeGroup"></path>
        </g>
    </g>
</svg>