<?xml version="1.0" encoding="UTF-8" standalone="no"?>
<svg width="34px" height="34px" viewBox="0 0 34 34" version="1.1" xmlns="http://www.w3.org/2000/svg" xmlns:xlink="http://www.w3.org/1999/xlink" xmlns:sketch="http://www.bohemiancoding.com/sketch/ns">
    <!-- Generator: Sketch 3.3 (11970) - http://www.bohemiancoding.com/sketch -->
    <title>icon-questions</title>
    <desc>Created with Sketch.</desc>
    <defs></defs>
    <g id="Icon_Final" stroke="none" stroke-width="1" fill="none" fill-rule="evenodd" sketch:type="MSPage">
        <g id="icon-questions" sketch:type="MSArtboardGroup" fill="#000000">
            <path d="M3.70665439,26.3290209 C3.49501242,26.8792901 3.2893333,27.2632244 3.16794971,27.4452998 C2.62938423,28.253148 3.44202954,29.2772394 4.35112344,28.9363292 C4.35112344,28.9363292 9.05920454,27.0340056 9.19299069,27.1047519 C11.5238034,28.3372892 14.2068607,29 17,29 C25.2529964,29 32,23.216854 32,16 C32,8.78314596 25.2529964,3 17,3 C8.74700362,3 2,8.78314596 2,16 C2,18.4765782 2.80006697,20.8489618 4.27822963,22.8946876 C4.33570712,22.9742344 4.13991701,25.2025381 3.70665439,26.3290209 Z M17,24.5 C17.8284271,24.5 18.5,23.8284271 18.5,23 C18.5,22.1715729 17.8284271,21.5 17,21.5 C16.1715729,21.5 15.5,22.1715729 15.5,23 C15.5,23.8284271 16.1715729,24.5 17,24.5 Z M17,9.5 C18.9463173,9.5 20.5,10.9607274 20.5,12.7307692 C20.5,13.4522932 20.1045002,14.2076295 19.4136405,14.9342852 C19.1545393,15.2068113 18.8741108,15.4536476 18.594251,15.6679668 C18.4298676,15.7938531 18.3071902,15.877776 18.2480854,15.9145868 L18.1596308,15.9765472 C17.1649962,16.7566005 16.1365981,18.409145 16.0087722,19.3678358 C15.9357799,19.9152758 16.3203958,20.4182356 16.8678358,20.4912278 C17.4152758,20.5642201 17.9182356,20.1796042 17.9912278,19.6321642 C18.046205,19.2198372 18.7909079,18.0231656 19.3938594,17.5502942 L19.3054048,17.6122546 C19.7117205,17.3591983 20.2858025,16.919561 20.8631046,16.3123468 C21.8742792,15.2487794 22.5,14.0537609 22.5,12.7307692 C22.5,9.82763245 20.0242455,7.5 17,7.5 C13.9757545,7.5 11.5,9.82763245 11.5,12.7307692 C11.5,13.283054 11.9477153,13.7307692 12.5,13.7307692 C13.0522847,13.7307692 13.5,13.283054 13.5,12.7307692 C13.5,10.9607274 15.0536827,9.5 17,9.5 Z" id="Oval-27-Copy" sketch:type="MSShapeGroup"></path>
        </g>
    </g>
</svg>