<?xml version="1.0" encoding="UTF-8" standalone="no"?>
<svg width="24px" height="24px" viewBox="0 0 24 24" version="1.1" xmlns="http://www.w3.org/2000/svg" xmlns:xlink="http://www.w3.org/1999/xlink" xmlns:sketch="http://www.bohemiancoding.com/sketch/ns">
    <!-- Generator: Sketch 3.2.2 (9983) - http://www.bohemiancoding.com/sketch -->
    <title>icon-archive-outilne</title>
    <desc>Created with Sketch.</desc>
    <defs></defs>
    <g id="Icon_Final" stroke="none" stroke-width="1" fill="none" fill-rule="evenodd" sketch:type="MSPage">
        <g id="icon-archive-outilne" sketch:type="MSArtboardGroup" fill="#000000">
            <path d="M1,4 L1,9 C1,9.55228475 1.44771525,10 2,10 L22,10 C22.5522847,10 23,9.55228475 23,9 L23,4 C23,3.44771525 22.5522847,3 22,3 L2,3 C1.44771525,3 1,3.44771525 1,4 Z M21,5 L21,8 L3,8 L3,5 L21,5 Z M3,9 L3,20 C3,20.5522847 3.44771525,21 4,21 L20,21 C20.5522847,21 21,20.5522847 21,20 L21,9 C21,8.44771525 20.5522847,8 20,8 L4,8 C3.44771525,8 3,8.44771525 3,9 Z M19,10 L19,19 L5,19 L5,10 L19,10 Z M9,13 C9,12.4477153 9.45097518,12 9.99077797,12 L14.009222,12 C14.5564136,12 15,12.4438648 15,13 C15,13.5522847 14.5490248,14 14.009222,14 L9.99077797,14 C9.44358641,14 9,13.5561352 9,13 Z" id="Rectangle-10" sketch:type="MSShapeGroup"></path>
        </g>
    </g>
</svg>