<?xml version="1.0" encoding="UTF-8" standalone="no"?>
<svg width="768px" height="512px" viewBox="0 0 768 512" version="1.1" xmlns="http://www.w3.org/2000/svg" xmlns:xlink="http://www.w3.org/1999/xlink" xmlns:sketch="http://www.bohemiancoding.com/sketch/ns">
    <!-- Generator: Sketch 3.3 (11970) - http://www.bohemiancoding.com/sketch -->
    <title>situation_lanes_01_xpl@1x</title>
    <desc>Created with Sketch.</desc>
    <defs>
        <path id="path-1" d="M7.10542736e-15,13.9969264 C7.10542736e-15,10.6849154 2.13255882,6.37646484 5.10340251,4.89912891 C5.10340251,4.89912891 5.828125,1 31.4140625,0.999999999 C57,0.999999995 58.3360812,6.29389516 58.3360812,6.29389516 C60.9118924,8.34072034 63,12.6814829 63,15.9969089 L63,137.00935 C63,141.422464 59.5688429,146.02389 55.2860243,147.1277 C55.2860243,147.1277 48,150 33.4140625,150 C18.828125,150 7.79216863,146.808649 7.79216863,146.808649 C3.48867273,145.80976 7.10542736e-15,141.423508 7.10542736e-15,136.991886 L7.10542736e-15,13.9969264 Z"></path>
        <path id="path-3" d="M0,1.84741111e-13 L115.00663,1.84741111e-13 C117.212107,1.84741111e-13 119.717781,1.6366124 120.506309,3.71288592 C120.506309,3.71288592 125,12 125,32 C125,52 120.580352,59.3411388 120.580352,59.3411388 C119.707548,61.361872 117.202005,63 115.00663,63 L0,63 L0,1.84741111e-13 Z"></path>
    </defs>
    <g id="Final_Situations" stroke="none" stroke-width="1" fill="none" fill-rule="evenodd" sketch:type="MSPage">
        <g id="situation_lanes_01_xpl" sketch:type="MSArtboardGroup">
            <path d="M-10,111 C-10,111 186.078125,111 293.039063,111 C400,111 529,157 613.082031,157 L776,157 L776,354 C776,354 745.388021,354 615.082031,354 C507,354 405,400 290,400 L-10,400 L-10,111 Z" id="Rectangle-1" stroke="#000000" stroke-width="4" fill="#657F8D" sketch:type="MSShapeGroup"></path>
            <path d="M133,317 C133,317 190.012903,317 300.006452,317 C410,317 518,351 614,351 L650,351" id="Path-394" stroke="#DC5349" stroke-width="4" stroke-linecap="round" stroke-linejoin="round" sketch:type="MSShapeGroup" transform="translate(391.500000, 334.000000) scale(1, -1) translate(-391.500000, -334.000000) "></path>
            <g id="Oval-212-+-Oval-213-+-Group-3-+-Rectangle-61-+-Rectangle-64" sketch:type="MSLayerGroup" transform="translate(183.500000, 349.000000) rotate(-90.000000) translate(-183.500000, -349.000000) translate(138.000000, 259.000000)">
                <circle id="Oval-212" fill-opacity="0.66612885" fill="#FEA87A" sketch:type="MSShapeGroup" cx="68" cy="157" r="23"></circle>
                <circle id="Oval-213" fill-opacity="0.66612885" fill="#FEA87A" sketch:type="MSShapeGroup" cx="67" cy="23" r="23"></circle>
                <g id="Group-3-+-Rectangle-61-+-Rectangle-64" transform="translate(41.000000, 88.500000) rotate(-180.000000) translate(-41.000000, -88.500000) translate(1.000000, 13.000000)">
                    <g id="Group-3" transform="translate(8.000000, 0.000000)">
                        <mask id="mask-2" sketch:name="Rectangle 11" fill="white">
                            <use xlink:href="#path-1"></use>
                        </mask>
                        <use id="Rectangle-11" stroke="#000000" stroke-width="4" fill="#DD5349" sketch:type="MSShapeGroup" xlink:href="#path-1"></use>
                        <circle id="Oval-165" stroke="#000000" stroke-width="2" fill="#EFC7B1" sketch:type="MSShapeGroup" mask="url(#mask-2)" cx="4" cy="146" r="9"></circle>
                        <circle id="Oval-166" stroke="#000000" stroke-width="2" sketch:type="MSShapeGroup" mask="url(#mask-2)" cx="59" cy="146" r="9"></circle>
                        <circle id="Oval-168" stroke="#000000" stroke-width="2" fill="#EFC7B1" sketch:type="MSShapeGroup" mask="url(#mask-2)" cx="6" cy="5" r="9"></circle>
                        <circle id="Oval-167" stroke="#000000" stroke-width="2" sketch:type="MSShapeGroup" mask="url(#mask-2)" cx="57" cy="6" r="9"></circle>
                        <path d="M6,46 C6,46 16,42 32,42 C48,42 58,46 58,46 L48,65 L16,65 L6,46 Z" id="Rectangle-9" stroke="#000000" stroke-width="4" stroke-linejoin="round" fill="#000000" sketch:type="MSShapeGroup" mask="url(#mask-2)"></path>
                        <path d="M54,96 L58,96 L58,105 L54,113 L54,96 Z" id="Rectangle-20" stroke="#000000" stroke-width="4" stroke-linecap="round" stroke-linejoin="round" fill="#000000" sketch:type="MSShapeGroup" mask="url(#mask-2)">
                            <g transform="translate(56.000000, 104.500000) scale(-1, 1) translate(-56.000000, -104.500000) "></g>
                        </path>
                        <path d="M54,61 L58,69 L58,89 L54,89 L54,61 Z" id="Rectangle-21" stroke="#000000" stroke-width="4" stroke-linecap="round" stroke-linejoin="round" fill="#000000" sketch:type="MSShapeGroup" mask="url(#mask-2)">
                            <g transform="translate(56.000000, 75.000000) scale(-1, 1) translate(-56.000000, -75.000000) "></g>
                        </path>
                        <g id="Rectangle-23-+-Rectangle-22" mask="url(#mask-2)" stroke="#000000" stroke-width="4" fill="#000000" stroke-linecap="round" sketch:type="MSShapeGroup" stroke-linejoin="round">
                            <g transform="translate(6.000000, 61.000000)">
                                <path d="M0,35 L4,35 L4,44 L0,52 L0,35 Z" id="Rectangle-23"></path>
                                <path d="M0,0 L4,8 L4,28 L0,28 L0,0 Z" id="Rectangle-22"></path>
                            </g>
                        </g>
                        <path d="M16,111 L48,111 L56,129 C56,129 45,132 32,132 C19,132 8,129 8,129 L16,111 Z" id="Rectangle-10" stroke="#000000" stroke-width="4" stroke-linejoin="round" fill="#000000" sketch:type="MSShapeGroup" mask="url(#mask-2)"></path>
                    </g>
                    <path d="M67,57.7150365 C67,56.607198 67.8353944,55.3749597 68.8574874,54.9661225 L73.2905799,53.1928855 C75.339236,52.3734231 77.5642771,53.4019486 78.2635752,55.4998431 L80,60.7091175 L67,62.7091175 L67,57.7150365 Z" id="Rectangle-61" stroke="#000000" stroke-width="2" stroke-linecap="round" stroke-linejoin="round" fill="#DC5349" sketch:type="MSShapeGroup" transform="translate(73.500000, 57.810163) scale(-1, 1) translate(-73.500000, -57.810163) "></path>
                    <path d="M0.476349336,58.7150365 C0.476349336,57.607198 1.31174375,56.3749597 2.33383675,55.9661225 L6.7669292,54.1928855 C8.81558537,53.3734231 11.0406264,54.4019486 11.7399245,56.4998431 L13.4763493,61.7091175 L0.476349336,63.7091175 L0.476349336,58.7150365 Z" id="Rectangle-62" stroke="#000000" stroke-width="2" stroke-linecap="round" stroke-linejoin="round" fill="#DC5349" sketch:type="MSShapeGroup"></path>
                </g>
            </g>
            <path d="M133,256 C133,256 190.012903,256 300.006452,256 C410,256 518,290 614,290 L650,290" id="Path-393" stroke="#48C998" stroke-width="4" stroke-linecap="round" stroke-linejoin="round" sketch:type="MSShapeGroup"></path>
            <path d="M639.714197,295.055385 L648.769582,286 L658.285803,295.516221" id="Path-213" stroke="#48C998" stroke-width="4" stroke-linecap="round" stroke-linejoin="round" sketch:type="MSShapeGroup" transform="translate(649.000000, 290.758110) rotate(90.000000) translate(-649.000000, -290.758110) "></path>
            <path d="M639.714197,321.055385 L648.769582,312 L658.285803,321.516221" id="Path-214" stroke="#DC5349" stroke-width="4" stroke-linecap="round" stroke-linejoin="round" sketch:type="MSShapeGroup" transform="translate(649.000000, 316.758110) rotate(90.000000) translate(-649.000000, -316.758110) "></path>
            <g id="Group" sketch:type="MSLayerGroup" transform="translate(33.000000, 217.000000)">
                <circle id="Oval-214" fill-opacity="0.66612885" fill="#FEA87A" sketch:type="MSShapeGroup" cx="219.5" cy="66.5" r="23"></circle>
                <circle id="Oval-215" fill-opacity="0.66612885" fill="#FEA87A" sketch:type="MSShapeGroup" cx="23.5" cy="70.5" r="23"></circle>
                <g id="Rectangle-474-+-Oval-169" transform="translate(100.000000, 6.000000)">
                    <mask id="mask-4" sketch:name="Rectangle 474" fill="white">
                        <use xlink:href="#path-3"></use>
                    </mask>
                    <use id="Rectangle-474" stroke="#000000" stroke-width="4" stroke-linecap="round" stroke-linejoin="round" fill="#48C998" sketch:type="MSShapeGroup" xlink:href="#path-3"></use>
                    <circle id="Oval-169" stroke="#000000" stroke-width="2" fill="#EFC7B1" sketch:type="MSShapeGroup" mask="url(#mask-4)" cx="122.5" cy="60.5" r="9"></circle>
                    <circle id="Oval-170" stroke="#000000" stroke-width="2" sketch:type="MSShapeGroup" mask="url(#mask-4)" cx="122.5" cy="3.5" r="9"></circle>
                </g>
                <path d="M199,38 C199,32.6276042 197,19 197,19 L207,12 C207,12 210,22 210,39 C210,56 207,64 207,64 L197,57 C197,57 199,43.9609375 199,38 Z" id="Rectangle-476" stroke="#000000" stroke-width="4" stroke-linecap="round" stroke-linejoin="round" fill="#000000" sketch:type="MSShapeGroup"></path>
                <path d="M162,60 L190,60 L194,64 L162,64 L162,60 Z" id="Rectangle-477" stroke="#000000" stroke-width="4" stroke-linecap="round" stroke-linejoin="round" fill="#000000" sketch:type="MSShapeGroup"></path>
                <path d="M162,15 L190,15 L194,11 L162,11 L162,15 Z" id="Rectangle-478" stroke="#000000" stroke-width="4" stroke-linecap="round" stroke-linejoin="round" fill="#000000" sketch:type="MSShapeGroup"></path>
                <path d="M185.790883,6.7801775 C185.790883,5.67233899 186.626277,4.44010068 187.64837,4.03126348 L192.081462,2.2580265 C194.130119,1.43856403 196.35516,2.4670896 197.054458,4.56498408 L198.790883,9.77425844 L185.790883,11.7742584 L185.790883,6.7801775 Z" id="Rectangle-63" stroke="#000000" stroke-width="2" stroke-linecap="round" stroke-linejoin="round" fill="#48C998" sketch:type="MSShapeGroup" transform="translate(192.290883, 6.875304) rotate(90.000000) translate(-192.290883, -6.875304) "></path>
                <path d="M185.790883,68.7801775 C185.790883,67.672339 186.626277,66.4401007 187.64837,66.0312635 L192.081462,64.2580265 C194.130119,63.438564 196.35516,64.4670896 197.054458,66.5649841 L198.790883,71.7742584 L185.790883,73.7742584 L185.790883,68.7801775 Z" id="Rectangle-64" stroke="#000000" stroke-width="2" stroke-linecap="round" stroke-linejoin="round" fill="#48C998" sketch:type="MSShapeGroup" transform="translate(192.290883, 68.875304) scale(1, -1) rotate(90.000000) translate(-192.290883, -68.875304) "></path>
                <path d="M20,2.00606883 C20,0.898147606 20.8882895,0 22.0073566,0 L162,0 L162,75 L22.0073566,75 C20.8987242,75 20,74.1054665 20,72.9939312 L20,2.00606883 Z" id="Rectangle-479" stroke="#000000" stroke-width="4" stroke-linecap="round" stroke-linejoin="round" fill="#48C998" sketch:type="MSShapeGroup"></path>
            </g>
            <path d="M-10,205 C-10,205 190.012903,205 300.006452,205 C410,205 518,252 614,252 L790,252" id="Path-392" stroke="#FFFFFF" stroke-width="4" stroke-linecap="round" stroke-linejoin="round" sketch:type="MSShapeGroup"></path>
            <path d="M-22.5,304 L315.594666,304" id="Line" stroke="#FFFFFF" stroke-width="4" stroke-linecap="round" stroke-linejoin="round" stroke-dasharray="30" sketch:type="MSShapeGroup"></path>
            <g id="❷---+-❷---copy" sketch:type="MSLayerGroup" transform="translate(335.000000, 238.000000)">
                <path d="M0,20.4608295 C0,30.6451613 5.62211982,40.8294931 19.9539171,40.8294931 C33.2718894,40.8294931 40,31.1520737 40,20.4608295 C40,10.1843318 34.3317972,2.84217094e-14 19.9539171,2.84217094e-14 C7.18894009,2.84217094e-14 0,9.63133641 0,20.4608295 L0,20.4608295 Z" id="❷--" stroke="#657F8D" stroke-width="4" fill="#657F8D" sketch:type="MSShapeGroup"></path>
                <path d="M0,20.4608295 C0,30.6451613 5.62211982,40.8294931 19.9539171,40.8294931 C33.2718894,40.8294931 40,31.1520737 40,20.4608295 C40,10.1843318 34.3317972,-3.90798505e-14 19.9539171,-3.90798505e-14 C7.18894009,-3.90798505e-14 0,9.63133641 0,20.4608295 L0,20.4608295 Z M11.7050691,30.3686636 C12.9953917,26.6359447 15.5760369,23.8248848 18.2949309,21.1981567 C21.6129032,18.0184332 23.0414747,16.40553 23.0414747,14.2396313 C23.0414747,12.2580645 21.7511521,11.1520737 19.2165899,11.1520737 C16.8202765,11.1520737 14.4700461,12.1198157 13.3640553,13.0414747 L12.3963134,9.67741935 C14.2396313,8.47926267 17.0046083,7.88018433 19.4470046,7.88018433 C24.9308756,7.88018433 27.3271889,10.5069124 27.3271889,14.1474654 C27.3271889,17.6497696 25.0230415,19.8156682 21.5668203,23.0414747 C19.6774194,24.8387097 17.6958525,26.7281106 16.5898618,29.2626728 L28.0184332,29.2626728 L27.235023,32.718894 L11.4285714,32.718894 L11.7050691,30.3686636 Z" id="❷---copy" fill="#FFFFFF" sketch:type="MSShapeGroup"></path>
            </g>
            <g id="❶--copy-+-❶-" sketch:type="MSLayerGroup" transform="translate(335.000000, 327.000000)">
                <path d="M0,20.4608295 C0,30.6451613 5.62211982,40.8294931 19.9539171,40.8294931 C33.2718894,40.8294931 40,31.1520737 40,20.4608295 C40,10.1843318 34.3317972,0 19.9539171,0 C7.18894009,0 0,9.63133641 0,20.4608295 L0,20.4608295 Z" id="❶--copy" stroke="#657F8D" stroke-width="4" fill="#657F8D" sketch:type="MSShapeGroup"></path>
                <path d="M0,20.4608295 C0,30.6451613 5.62211982,40.8294931 19.9539171,40.8294931 C33.2718894,40.8294931 40,31.1520737 40,20.4608295 C40,10.1843318 34.3317972,0 19.9539171,0 C7.18894009,0 0,9.63133641 0,20.4608295 L0,20.4608295 Z M19.1705069,12.3502304 L11.7050691,15.1152074 L11.2442396,11.797235 L19.5391705,8.47926267 L23.3179724,8.06451613 L23.3179724,32.718894 L19.1705069,32.718894 L19.1705069,12.3502304 Z" id="❶-" fill="#FFFFFF" sketch:type="MSShapeGroup"></path>
            </g>
        </g>
    </g>
</svg>