<?xml version="1.0" standalone="no"?>
<!DOCTYPE svg PUBLIC "-//W3C//DTD SVG 1.1//EN" "http://www.w3.org/Graphics/SVG/1.1/DTD/svg11.dtd" >
<svg xmlns="http://www.w3.org/2000/svg" xmlns:xlink="http://www.w3.org/1999/xlink" version="1.1">
<metadata></metadata>
<defs>
<font id="preto_serif_ot_std_regularIt" horiz-adv-x="1157" >
<font-face units-per-em="2048" ascent="1536" descent="-512" />
<missing-glyph horiz-adv-x="430" />
<glyph horiz-adv-x="0" />
<glyph horiz-adv-x="682" />
<glyph unicode=" "  horiz-adv-x="430" />
<glyph unicode="&#x09;" horiz-adv-x="430" />
<glyph unicode="&#xa0;" horiz-adv-x="430" />
<glyph unicode="!" horiz-adv-x="583" d="M367 356l-78 -4l26 617l2 346q69 14 151 19t128 -3l-104 -307zM289 -18q-52 0 -80.5 28.5t-28.5 73.5q0 53 34 89t93 36q48 0 77.5 -33t29.5 -74q0 -56 -32 -88t-93 -32z" />
<glyph unicode="&#x22;" horiz-adv-x="917" d="M571 1505q-15 -50 -52.5 -157t-62.5 -196.5t-42 -188.5h-66q11 321 -4 507q72 35 227 35zM907 1505q-15 -50 -52.5 -157t-62.5 -196.5t-42 -188.5h-66q11 321 -4 507q72 35 227 35z" />
<glyph unicode="#" horiz-adv-x="1148" d="M117 -10l127 372h-201q15 59 47 95h186l142 413h-252q15 59 47 95h238l114 331q35 22 135 41l-129 -372h330l115 331q35 22 135 41l-129 -372h221q-4 -25 -28 -53t-50 -42h-176l-143 -413h289q-6 -26 -29 -53.5t-49 -41.5h-244l-123 -356q-36 -12 -123 -16l127 372h-332 l-122 -356q-36 -12 -123 -16zM539 870l-144 -413h332l141 413h-329z" />
<glyph unicode="$" horiz-adv-x="1081" d="M141 461l64 -19q33 -154 98 -311q89 -39 195 -45l55 514q-65 37 -109 66t-95 73.5t-78.5 88.5t-41.5 104t-2 127q23 128 129 200.5t275 81.5l18 183q48 31 105 41l-25 -224q129 -6 235.5 -44t127.5 -91q-51 -194 -107 -321h-59l2 309q-75 33 -209 43l-53 -496 q50 -28 81.5 -47t76.5 -49.5t73 -56t58.5 -61.5t46.5 -71.5t24.5 -80.5t3.5 -94q-9 -80 -50 -139.5t-105 -92.5t-135 -49.5t-154 -19.5l-21 -197q-38 -13 -100 -16l22 215q-142 10 -244.5 51.5t-121.5 85.5q-4 121 20 342zM870 254q7 47 -7 90t-48 81t-73 68t-95 64 l-51 -473q130 5 195.5 43.5t78.5 126.5zM371 1053q-11 -78 42.5 -143t157.5 -128l47 455q-120 -6 -178 -51t-69 -133z" />
<glyph unicode="%" horiz-adv-x="1372" d="M221 76l981 1222q27 12 103 19.5t122 7.5q-55 -65 -123.5 -134t-190.5 -184t-161 -153l-630 -854h-136zM483 1337q141 0 203.5 -82.5t48.5 -222.5q-14 -136 -97 -221.5t-218 -85.5q-137 0 -199 87.5t-49 219.5q14 133 98.5 219t212.5 86zM586 1032q8 73 6 124t-30 78.5 t-87 27.5q-35 0 -60.5 -10.5t-42 -28t-27.5 -48.5t-17 -63t-11 -80q-12 -122 12.5 -176.5t98.5 -54.5q77 0 111.5 53t46.5 178zM1083 598q141 0 203.5 -82.5t48.5 -222.5q-14 -136 -97 -221.5t-218 -85.5q-137 0 -199 87.5t-49 219.5q14 133 98.5 219t212.5 86zM1186 293 q8 73 6 124t-30 78t-87 27q-35 0 -60.5 -10.5t-41.5 -27.5t-27 -48t-17 -62.5t-11 -80.5q-12 -123 12.5 -177.5t97.5 -54.5q77 0 111.5 53t46.5 179z" />
<glyph unicode="&#x26;" horiz-adv-x="1454" d="M1042 1040q-10 -69 -49.5 -127t-99 -98t-124.5 -66t-138 -42h856q-6 -26 -30 -60t-48 -47h-213q-77 -292 -257.5 -456t-412.5 -164q-96 0 -168 27.5t-115 79.5t-69 116.5t-33 150t-4 167t15 179.5q19 156 72.5 280t130 202.5t170 119.5t196.5 41q101 0 178 -35.5 t116.5 -105.5t26.5 -162zM537 82q357 0 475 518h-498q0 1 2.5 11t4 15l4.5 15t6.5 17.5t7.5 16.5t10 17t12 15q160 67 226 137t83 188q32 217 -168 217q-297 0 -368 -514q-28 -214 -29.5 -359t53.5 -219.5t179 -74.5z" />
<glyph unicode="'" horiz-adv-x="581" d="M571 1505q-15 -50 -52.5 -157t-62.5 -196.5t-42 -188.5h-66q11 321 -4 507q72 35 227 35z" />
<glyph unicode="(" horiz-adv-x="671" d="M367 557q-33 -388 23.5 -610.5t207.5 -315.5l-4 -28l-41 -19q-74 31 -133.5 84t-98.5 116t-66.5 141.5t-41 156t-18.5 163.5t-2.5 161t10.5 151q8 80 19.5 151t32.5 159.5t48.5 163.5t70.5 155t96 142.5t127.5 116t162.5 85.5l35 -14v-31q-119 -64 -201 -172t-140 -295 t-87 -461z" />
<glyph unicode=")" horiz-adv-x="671" d="M582 557h-164q33 387 -24 610t-208 316l4 28l41 19q74 -31 133.5 -84t99 -116.5t67 -141.5t41 -155.5t18.5 -163.5t2.5 -161t-10.5 -151zM418 557h164q-8 -80 -19.5 -151t-32.5 -159.5t-48.5 -163.5t-70.5 -155t-96 -142.5t-127.5 -116t-162.5 -85.5l-35 15v30 q119 64 201 172t140 295t87 461z" />
<glyph unicode="*" horiz-adv-x="1030" d="M297 1319q62 -31 150 -92.5t159 -100.5q-9 70 -26.5 179t-22.5 161q72 35 227 35q-20 -68 -64 -180t-71 -199q80 42 184 106t134 81q49 -55 75 -203q-73 -9 -187.5 -11t-197.5 -10q64 -49 155.5 -109t115.5 -77q-8 -18 -22.5 -37t-27 -33t-34 -33t-31 -26.5t-31 -24.5 t-22.5 -18q-30 60 -68 161t-71 171q-47 -74 -101 -181t-78 -145q-34 8 -74.5 34.5t-56.5 41t-47 43.5q65 49 166 119t162 114q-88 5 -202 7.5t-144 3.5q-8 76 51 223z" />
<glyph unicode="+" horiz-adv-x="991" d="M461 258l37 356h-363q18 68 47 101h326l37 350q42 27 117 41l-41 -391h385q-4 -26 -28.5 -56.5t-49.5 -44.5h-318l-35 -340q-38 -12 -114 -16z" />
<glyph unicode="," horiz-adv-x="581" d="M440 188l-334 -532h-73q13 30 38.5 85t32 71t21.5 56.5t24.5 77t24 94t33.5 144.5q53 14 120 15.5t113 -11.5z" />
<glyph unicode="-" horiz-adv-x="634" d="M186 571h422q-6 -27 -33 -63t-51 -49h-391q18 75 53 112z" />
<glyph unicode="." horiz-adv-x="581" d="M291 -18q-55 0 -85 31t-30 79q0 56 35.5 93.5t97.5 37.5q53 0 84 -34t31 -78q0 -59 -35 -94t-98 -35z" />
<glyph unicode="/" horiz-adv-x="745" d="M-27 -133l787 1530q11 7 25.5 13t32.5 10.5t30 7t33.5 6t27.5 4.5l-800 -1555q-33 -11 -136 -16z" />
<glyph unicode="0" horiz-adv-x="1153" d="M582 84q54 0 98 14t77 38t59.5 64t44.5 85t32.5 108t24 125.5t18.5 145.5q16 134 15 241t-21.5 181.5t-77 114.5t-150.5 40q-63 0 -112 -17t-84.5 -54t-60.5 -82.5t-43 -115.5t-29 -140t-21 -168q-11 -97 -14.5 -168t0 -141t19 -116.5t43.5 -83t73.5 -54t108.5 -17.5z M569 -20q-90 0 -161 25.5t-117.5 71.5t-79 110t-45 140t-15.5 161.5t9 175.5q14 139 53.5 258t105 215t166.5 151t228 55q108 0 188.5 -36t127.5 -99.5t75 -149.5t30.5 -185.5t-6.5 -208.5q-12 -113 -37.5 -210t-70.5 -186t-106 -151.5t-149.5 -99.5t-195.5 -37z" />
<glyph unicode="1" horiz-adv-x="811" d="M180 0l15 39l36 22l201 39l107 1033l-430 -123l8 63q41 17 157 65t211 88.5t156 69.5l96 47l-127 -1245l183 -35l6 -22l-23 -41h-596z" />
<glyph unicode="2" horiz-adv-x="1056" d="M944 0h-883l19 76q54 110 144.5 223.5t174.5 171.5q166 110 251.5 182.5t131.5 150t56 177.5q13 131 -40 194.5t-175 63.5q-42 0 -86 -8q-66 -72 -164 -188.5t-125 -145.5l-29 33q6 26 14.5 76t16.5 82.5t18 58.5q55 78 156.5 137t230.5 59q192 0 292.5 -101.5 t82.5 -266.5q-6 -53 -22.5 -99t-38.5 -82.5t-59.5 -73t-72.5 -63.5t-91 -61.5t-101 -60t-117 -66t-125 -72.5q-54 -70 -165 -264h571l162 266l63 19q-66 -332 -90 -418z" />
<glyph unicode="3" horiz-adv-x="1091" d="M526 -20q-142 0 -245.5 34t-139.5 80q-7 15 -7.5 58.5t2.5 100.5t11 167l54 -12q68 -215 123 -297q90 -33 196 -33q146 0 221.5 68t89.5 202q6 62 -5 106.5t-45.5 80.5t-104 54.5t-174.5 18.5q-13 0 -154 -6q6 26 25 63.5t37 55.5q33 -4 94 -4q99 0 167.5 18.5 t107.5 56.5t58.5 85t26.5 114q14 130 -52.5 191t-195.5 61q-49 0 -90 -8q-54 -56 -149.5 -183.5t-108.5 -142.5l-32 37q30 175 55 228q51 71 150 120t229 49q111 0 198.5 -40.5t136 -122.5t37.5 -191q-28 -275 -426 -319q208 0 312 -97t88 -249q-18 -167 -151 -255.5 t-339 -88.5z" />
<glyph unicode="4" horiz-adv-x="1046" d="M950 45l-22 -45h-533l15 43l36 23l160 34l27 256h-602l14 66l490 588q170 206 272 293l94 34l-90 -891h260q-6 -22 -27 -50t-40 -40h-203l-25 -258l168 -30zM324 446h317l57 553l19 129l-434 -571l-101 -117z" />
<glyph unicode="5" horiz-adv-x="1050" d="M231 637l64 686h797q-9 -60 -64 -143h-604l-94 -453q114 12 223 12q105 0 185 -22.5t128.5 -59t77 -87.5t37 -104.5t2.5 -113.5q-19 -173 -149 -272.5t-330 -99.5q-135 0 -225.5 32.5t-137.5 81.5q-5 11 -7 33t-0.5 66.5t4.5 88t9 128.5l54 -13q70 -214 123 -295 q76 -26 163 -26q148 0 222.5 74t89.5 221q13 139 -61 209.5t-277 70.5q-132 0 -230 -14z" />
<glyph unicode="6" horiz-adv-x="1107" d="M745 1243q-185 0 -275 -134.5t-128 -430.5q52 52 142 78t171 26q88 0 157 -21.5t113.5 -59t71.5 -89t35.5 -110.5t1.5 -125q-19 -179 -144 -288t-331 -109q-474 0 -405 653q13 122 43.5 228t81 195t117.5 152.5t157 99t195 35.5q117 0 225 -35t125 -96q-40 -145 -94 -276 h-60l-12 268q-80 39 -187 39zM330 551v4q-14 -151 -3 -257t68.5 -163t167.5 -57q61 0 109 16.5t78.5 43t52 66.5t32 81t15.5 92q15 157 -42.5 233t-205.5 76q-46 0 -89 -6.5t-84.5 -21t-68 -42t-30.5 -65.5z" />
<glyph unicode="7" horiz-adv-x="1007" d="M211 1323h889l12 -35l-113 -201l-297 -481q-51 -110 -135 -304.5t-131 -295.5q-97 -16 -239 -6q70 131 194 325t320 487t250 376h-617l-125 -287l-59 -14z" />
<glyph unicode="8" horiz-adv-x="1132" d="M567 -20q-122 0 -211.5 27t-140 75t-71 109.5t-11.5 134.5q15 124 99.5 207t265.5 116q-127 57 -187 142.5t-47 218.5q13 140 131.5 236.5t317.5 96.5q92 0 163.5 -21.5t114.5 -55.5t69 -80t34 -91.5t4 -93.5q-26 -250 -330 -301q317 -139 293 -385q-15 -151 -144 -243 t-350 -92zM573 78q144 0 221.5 56t88.5 161q6 62 -14.5 113t-64 88t-89 61.5t-107.5 48.5q-44 16 -89 5t-105 -60q-100 -82 -113 -221q-14 -135 58.5 -193.5t213.5 -58.5zM696 1245q-249 0 -274 -233q-10 -101 46.5 -162.5t203.5 -114.5q94 -22 186 84q62 76 72 180 q24 246 -234 246z" />
<glyph unicode="9" horiz-adv-x="1107" d="M500 80q75 0 131 21.5t97 63t70.5 111.5t49 157t35.5 210q-94 -102 -299 -102q-110 0 -189.5 31t-123.5 87t-61 127t-7 156q19 178 147 289.5t314 111.5q487 0 419 -643q-9 -89 -22.5 -162.5t-37.5 -149.5t-56 -134.5t-79.5 -111t-107.5 -86.5t-141.5 -54t-179.5 -20 q-93 0 -183.5 26t-121.5 66q-23 56 -4 325l71 -12q63 -205 135 -293q43 -14 144 -14zM899 778v-2q14 104 7.5 190t-31.5 148t-78.5 96.5t-134.5 34.5q-71 0 -125.5 -27t-87 -73t-50 -99t-22.5 -114q-6 -70 3 -120.5t36.5 -90.5t82.5 -60t138 -20q45 0 86 6t81 20.5 t65.5 42.5t29.5 68z" />
<glyph unicode=":" horiz-adv-x="581" d="M291 -18q-55 0 -85 31t-30 79q0 56 35.5 93.5t97.5 37.5q53 0 84 -34t31 -78q0 -59 -35 -94t-98 -35zM373 770q-55 0 -85 31.5t-30 79.5q0 56 35.5 93.5t97.5 37.5q53 0 84 -34t31 -79q0 -59 -35 -94t-98 -35z" />
<glyph unicode=";" horiz-adv-x="581" d="M373 770q-55 0 -85 31.5t-30 79.5q0 56 35.5 93.5t97.5 37.5q53 0 84 -34t31 -79q0 -59 -35 -94t-98 -35zM440 188l-334 -532h-73q13 30 38.5 85t32 71t21.5 56.5t24.5 77t24 94t33.5 144.5q53 14 120 15.5t113 -11.5z" />
<glyph unicode="&#x3c;" horiz-adv-x="991" d="M942 928l-633 -260l596 -293q-14 -65 -53 -101q-52 27 -334 177t-350 184l-10 70q82 38 251.5 110.5t347.5 148t224 95.5q3 -74 -39 -131z" />
<glyph unicode="=" horiz-adv-x="991" d="M164 537h823q-6 -26 -29.5 -57t-48.5 -44h-792q18 68 47 101zM203 897h823q-6 -26 -30.5 -56t-49.5 -44h-792q17 66 49 100z" />
<glyph unicode="&#x3e;" horiz-adv-x="991" d="M150 283q-3 75 38 131l633 258l-596 295q14 62 54 100q50 -26 333 -176t351 -184l10 -70q-82 -38 -251.5 -110.5t-347.5 -148t-224 -95.5z" />
<glyph unicode="?" horiz-adv-x="897" d="M244 1284q123 59 307 59q201 0 295 -103t78 -265q-8 -71 -41.5 -129.5t-80 -97t-108.5 -68t-118.5 -45t-118.5 -25.5l-49 -258h-107l12 275l33 26q86 12 151 34.5t117.5 60t83.5 96t39 137.5q17 153 -39 211.5t-202 58.5q-56 0 -95 -8q-25 -56 -127 -309l-45 -8 q-5 154 15 358zM328 -18q-52 0 -80.5 28.5t-28.5 73.5q0 53 34 89t93 36q48 0 77.5 -33t29.5 -74q0 -56 -32 -88t-93 -32z" />
<glyph unicode="@" horiz-adv-x="1841" d="M1057 1022q124 0 207 -80l57 66l41 -17l-129 -803q430 38 475 549q12 139 -20.5 254.5t-105 200t-190.5 131.5t-270 47q-159 0 -299 -55.5t-247 -158.5t-175.5 -257t-85.5 -342q-11 -135 7.5 -248.5t69.5 -205t132 -155t200.5 -98t270.5 -34.5q163 0 328.5 37.5 t304.5 121.5l25 -10l-4 -39q-123 -106 -315.5 -165.5t-405.5 -59.5q-179 0 -319 45t-230 122t-145 185t-73 229.5t-7 260.5q16 191 89.5 356t195 289t298.5 195t387 71q150 0 272.5 -40.5t204 -109t135 -161t73 -195.5t10.5 -213q-11 -136 -52.5 -247t-114.5 -196.5 t-187.5 -133t-260.5 -47.5q-73 0 -137 20l27 156q-44 -79 -108.5 -127.5t-141.5 -48.5q-65 0 -112 28t-72 74t-35.5 108t-8 126.5t14.5 134.5q36 202 149 321t277 119zM1071 315q25 35 33 60l2 8l78 485q0 18 -17 35q-45 25 -112 25q-48 0 -88.5 -20.5t-69 -54t-50.5 -80.5 t-35 -95t-21 -103q-12 -99 -13.5 -177t30.5 -126.5t101 -48.5q50 0 85.5 23.5t76.5 68.5z" />
<glyph unicode="A" horiz-adv-x="1290" d="M471 41l-22 -41h-463l8 41l22 22l97 46l442 845q47 89 115 195.5t108 153.5l70 55q69 -227 176 -650.5t158 -601.5l102 -55v-24l-18 -27h-494l8 41l23 22l178 50l-82 348h-493l-175 -346l232 -47zM788 934l-40 217l-97 -205l-200 -397h428z" />
<glyph unicode="B" horiz-adv-x="1206" d="M186 1278l23 45h620q200 0 291.5 -88t77.5 -234q-14 -142 -91.5 -216t-217.5 -109q151 -20 227.5 -100t61.5 -224q-35 -352 -461 -352h-682l14 43l37 23l160 34l114 1123l-167 32zM762 623h-287l-51 -525h287q254 0 278 269q12 133 -38.5 194.5t-188.5 61.5zM758 1225 h-221l-52 -514h246q139 0 204.5 66t76.5 196q5 57 -3 99.5t-34 78.5t-80.5 55t-136.5 19z" />
<glyph unicode="C" horiz-adv-x="1159" d="M1163 1153q-60 -243 -129 -393h-63l4 426q-93 51 -207 51q-105 0 -181 -37.5t-125.5 -114t-78 -178t-43.5 -243.5q-16 -135 -7 -239t43.5 -175t107 -107.5t184.5 -36.5q114 0 210 40.5t189 129.5l25 -8l-5 -41q-177 -247 -466 -247q-99 0 -179 25.5t-133 71.5t-91.5 110 t-55 140t-22 161.5t6.5 175.5q11 109 42 208t85 185.5t126 149.5t170 99.5t212 36.5q140 0 248 -62t133 -128z" />
<glyph unicode="D" horiz-adv-x="1298" d="M186 1278l23 45h514q98 0 179 -17.5t140.5 -50.5t105 -79t72.5 -102.5t44 -122.5t17.5 -138t-5.5 -149q-12 -116 -39.5 -213t-77.5 -181.5t-119 -143.5t-168 -92.5t-221 -33.5h-616l14 43l37 23l160 34l114 1123l-167 32zM715 1225h-178l-113 -1127h225q213 0 307 129.5 t127 436.5q34 300 -51 430.5t-317 130.5z" />
<glyph unicode="E" horiz-adv-x="1177" d="M186 1278l23 45h969q-18 -185 -50 -346l-53 12l-57 240h-481l-52 -514h541q-1 -33 -47.5 -60.5t-95.5 -38.5h-408l-53 -522h467l172 285l65 16q-42 -250 -71 -395h-1020l14 43l37 23l160 34l114 1123l-167 32z" />
<glyph unicode="F" horiz-adv-x="1054" d="M688 45l-33 -45h-620l14 43l37 23l160 34l114 1125l-155 30l-6 23l22 45h930q-15 -198 -49 -367l-53 13q-24 91 -56 260h-456l-54 -535h553q-3 -33 -48.5 -60t-94.5 -38h-420l-49 -498l256 -30z" />
<glyph unicode="G" horiz-adv-x="1226" d="M776 643h383l-69 -627l-50 -32l-77 108q-60 -53 -151 -82.5t-187 -29.5q-111 0 -199 36.5t-144 100.5t-92.5 150.5t-44 187t1.5 209.5q12 110 43.5 208t88 185t132 150t182 99.5t232.5 36.5q136 0 254 -59t142 -129q-45 -171 -109 -315h-59l2 327q-118 70 -260 70 q-203 0 -312 -139t-143 -434q-33 -295 53.5 -436.5t270.5 -141.5q163 0 282 82l39 360l-246 58l4 30z" />
<glyph unicode="H" horiz-adv-x="1478" d="M598 45l-23 -45h-540l14 43l37 23l160 34l114 1123l-167 32l-7 23l23 45h539l-15 -43l-37 -23l-159 -34l-52 -508h652l53 508l-168 32l-6 23l22 45h539l-14 -43l-37 -23l-160 -34l-113 -1125l168 -30l6 -23l-22 -45h-541l15 43l36 23l160 34l51 516h-651l-51 -518 l168 -30z" />
<glyph unicode="I" horiz-adv-x="649" d="M598 45l-23 -45h-540l14 43l37 23l160 34l114 1123l-167 32l-7 23l23 45h539l-15 -43l-37 -23l-159 -34l-113 -1125l168 -30z" />
<glyph unicode="J" horiz-adv-x="575" d="M-129 -291l-8 64q99 -4 188.5 3.5t138.5 22.5q21 106 32 203t17.5 196t10.5 134l96 891l-211 32l-8 23l29 45h563l-12 -43l-35 -23l-152 -34l-94 -852q-28 -250 -59 -388t-76 -239q-79 -86 -244 -86q-52 0 -103.5 14.5t-72.5 36.5z" />
<glyph unicode="K" horiz-adv-x="1286" d="M598 45l-23 -45h-540l14 43l37 23l160 34l125 1123l-166 32l-6 23l22 45h502l-16 -47l-35 -23l-125 -32l-123 -1123l168 -30zM967 6q-249 384 -396 647v60l564 487l-187 51l-10 27l25 45h393l-21 -72q-209 -196 -608 -528l401 -627l172 -26l-20 -41l-31 -21 q-57 -16 -143 -16q-97 0 -139 14z" />
<glyph unicode="L" horiz-adv-x="1087" d="M770 1323l-16 -43l-41 -23l-176 -34l-113 -1125h420l186 338l64 17q-66 -348 -93 -453h-966l14 43l37 23l160 34l114 1123l-167 32l-7 23l23 45h561z" />
<glyph unicode="M" horiz-adv-x="1570" d="M965 0l14 43l37 23l160 34l88 883l14 121l-64 -103l-245 -374q-16 -20 -42.5 -58.5t-51 -70t-50.5 -58.5l-67 -14l-250 547l-53 125l-11 -135l-86 -865l168 -30l6 -23l-22 -45h-475l14 43l37 23l160 34l114 1123l-167 32l-7 23l23 45h336l309 -700l449 700h366l-14 -43 l-37 -23l-160 -34l-112 -1125l167 -30l7 -23l-23 -45h-532z" />
<glyph unicode="N" horiz-adv-x="1400" d="M1034 1278l23 45h475l-14 -43l-37 -23l-160 -34l-76 -727q-11 -126 -30.5 -297t-30.5 -213l-33 -19l-137 195l-471 815l-86 153l-13 -174l-86 -858l168 -30l6 -23l-22 -45h-475l14 43l37 23l160 34l114 1123l-167 32l-7 23l23 45h330l505 -891l74 -141l15 180l75 752 l-168 32z" />
<glyph unicode="O" horiz-adv-x="1257" d="M627 84q86 0 151 27t109 73.5t75 121.5t48.5 159t29.5 199q16 134 11 241t-33.5 181.5t-95.5 114.5t-174 40q-86 0 -150.5 -26.5t-108 -72.5t-73.5 -121t-47 -158.5t-29 -198.5q-17 -134 -12.5 -241.5t32 -182.5t94 -115.5t173.5 -40.5zM614 -20q-100 0 -179.5 25.5 t-132.5 71.5t-90 110t-52.5 140t-20 161.5t7.5 175.5q11 110 39.5 208t79 185.5t118.5 150t164 99t210 36.5q100 0 180 -25.5t133.5 -71t91.5 -108.5t54.5 -138.5t22 -160.5t-6.5 -175q-12 -112 -39.5 -209.5t-77.5 -186.5t-118 -151.5t-166.5 -99.5t-217.5 -37z" />
<glyph unicode="P" horiz-adv-x="1110" d="M688 45l-33 -45h-620l14 43l37 23l160 34l114 1123l-167 32l-7 23l23 45h588q230 0 325.5 -100t79.5 -277q-17 -184 -137.5 -278.5t-323.5 -94.5h-270l-47 -475l256 -30zM774 1225h-237l-58 -557h260q78 0 132 19t84.5 58t45 84.5t21.5 110.5q15 141 -39.5 213t-208.5 72 z" />
<glyph unicode="Q" horiz-adv-x="1257" d="M614 -20q-100 0 -179.5 25.5t-132.5 71.5t-90 110t-52.5 140t-20 161.5t7.5 175.5q11 110 39.5 208t79 185.5t118.5 150t164 99t210 36.5q100 0 180 -25.5t133.5 -71t91.5 -108.5t54.5 -138.5t22 -160.5t-6.5 -175q-12 -106 -38 -199.5t-68.5 -177.5t-106.5 -149.5 t-146 -104.5q168 -156 248 -217q-83 -77 -164 -129q-84 114 -204 307q-60 -14 -140 -14zM627 84q21 0 67 4q-41 63 -98 148l22 49l173 -170q114 52 168.5 185.5t80.5 363.5q16 134 11 241t-33.5 181.5t-95.5 114.5t-174 40q-86 0 -150.5 -26.5t-108 -72.5t-73.5 -121 t-47 -158.5t-29 -198.5q-17 -134 -12.5 -241.5t32 -182.5t94 -115.5t173.5 -40.5z" />
<glyph unicode="R" horiz-adv-x="1277" d="M559 49l-20 -49h-504l14 43l37 23l160 34l114 1123l-167 32l-7 23l23 45h557q239 0 336.5 -97.5t77.5 -285.5q-14 -137 -113.5 -222t-271.5 -97l321 -525l176 -26l-20 -41l-31 -21q-57 -16 -143 -16q-98 0 -140 14l-344 600h-139l-51 -504l127 -30zM727 1225h-190 l-54 -533h224q147 0 214 66t80 194q7 68 -2 116.5t-39 85t-87.5 54t-145.5 17.5z" />
<glyph unicode="S" horiz-adv-x="1060" d="M141 477l64 -18q37 -170 106 -328q96 -47 248 -47q275 0 301 170q8 51 -11.5 96.5t-58 82t-90.5 71.5t-110 69t-115.5 69.5t-108 78.5t-86.5 91t-51 111.5t-2 135.5q24 136 153.5 210t321.5 74q141 0 249 -41t130 -112q-53 -202 -106 -322h-60l3 322q-83 49 -228 49 q-150 0 -227.5 -46.5t-91.5 -139.5q-7 -47 12.5 -89.5t57.5 -77t89.5 -68t109 -66.5t115 -67.5t108.5 -76.5t89 -88.5t57 -108t11 -130.5q-7 -68 -41.5 -122t-83 -86.5t-109.5 -54t-117 -30t-110 -8.5q-181 0 -299 47.5t-139 107.5q-4 121 20 342z" />
<glyph unicode="T" horiz-adv-x="1093" d="M821 45l-22 -45h-541l14 43l37 23l160 34l123 1125h-256q-38 -82 -184 -361l-46 -12l74 471h1028q-8 -81 -28 -234.5t-35 -236.5l-41 12q-8 35 -66 361h-268l-123 -1127l168 -30z" />
<glyph unicode="U" horiz-adv-x="1347" d="M983 1278l23 45h487l-14 -43l-37 -23l-162 -34l-82 -754q-9 -81 -30.5 -150t-62 -133t-97.5 -108.5t-142 -71t-190 -26.5q-258 0 -359.5 123.5t-72.5 390.5l80 729l-166 32l-6 23l22 45h539l-15 -43l-36 -23l-162 -34l-84 -756q-20 -196 46 -280.5t247 -84.5 q165 0 252.5 86t109.5 273l84 762l-166 32z" />
<glyph unicode="V" horiz-adv-x="1155" d="M899 1282l25 41h374l-18 -63l-438 -863q-13 -24 -45.5 -88t-47.5 -92.5t-41.5 -74.5t-49.5 -78.5t-48 -59.5l-65 -12q-44 138 -95.5 344.5t-113.5 476.5t-94 401l-103 58v24l19 27h471l-11 -41l-20 -22l-184 -52l180 -768l51 -247l107 233l372 762l-215 67z" />
<glyph unicode="W" horiz-adv-x="1544" d="M457 4l-54 -12q-24 154 -63 436q-5 34 -100 784l-109 60v24l19 27h468l-8 -41l-20 -22l-180 -50l92 -774l14 -172l62 137l325 680l60 31l184 -711l31 -145l59 172l279 756l-234 67l-8 27l22 45h379l-16 -63l-365 -943q-67 -168 -145 -313l-55 -12l-183 710l-32 150 l-62 -141l-184 -383q-3 -6 -16 -33.5t-17.5 -36.5t-16.5 -34t-18.5 -37t-18.5 -35t-21 -38t-20.5 -35.5t-23.5 -38.5z" />
<glyph unicode="X" horiz-adv-x="1185" d="M651 1323l-8 -41l-20 -22l-172 -48l165 -284l89 -162l362 432l-213 57l-8 27l22 41h396l-19 -66q-93 -114 -272 -312t-223 -249l346 -594l104 -51l-2 -24l-16 -27h-471l8 41l20 22l160 46l-158 272l-110 203l-387 -471l211 -45l6 -27l-21 -41h-467l9 41l22 22l90 43 q78 92 241 276.5t245 279.5l-326 561l-90 49v24l18 27h469z" />
<glyph unicode="Y" horiz-adv-x="1064" d="M598 1323l-10 -41l-19 -22l-178 -48l195 -440l57 -145l102 151l295 412l-206 65l-9 27l23 41h375l-17 -66q-83 -126 -283.5 -385.5t-240.5 -312.5l-49 -461l172 -30l6 -23l-23 -45h-540l14 43l37 23l164 34l49 443l-299 671l-86 58v24l18 27h453z" />
<glyph unicode="Z" horiz-adv-x="1101" d="M256 1323h881l18 -37q-39 -101 -154 -268l-735 -920h574l182 305l68 29q-52 -269 -95 -432h-948l12 63q157 222 470 613.5t429 548.5h-542q-67 -147 -185 -361l-49 -12z" />
<glyph unicode="[" horiz-adv-x="686" d="M354 1507h473q-8 -37 -75 -73h-244l-184 -1753h311q-8 -37 -76 -74h-405l129 950z" />
<glyph unicode="\" horiz-adv-x="770" d="M637 -133l-469 1530q4 5 9.5 9.5t13.5 8t15 6.5t18 5.5t17 4t18.5 4t16.5 3.5l480 -1555q-27 -11 -119 -16z" />
<glyph unicode="]" horiz-adv-x="686" d="M446 -393h-473q8 37 76 74h244l184 1753h-311q4 16 17 31t25.5 22.5t33.5 19.5h405l-129 -950z" />
<glyph unicode="^" horiz-adv-x="743" d="M707 930l-191 411l-270 -407q-77 4 -121 20l364 521l70 22l254 -526q-2 -1 -10.5 -6.5t-11 -7t-10 -5.5t-12 -6t-12.5 -5t-14.5 -4.5t-16 -3.5t-19.5 -3z" />
<glyph unicode="_" horiz-adv-x="790" d="M31 -111h741q-6 -26 -30.5 -58.5t-49.5 -45.5h-708q19 72 47 104z" />
<glyph unicode="`" horiz-adv-x="819" d="M698 1135l-43 -37q-164 144 -366 282q51 73 147 133q39 -56 125 -183.5t137 -194.5z" />
<glyph unicode="a" horiz-adv-x="1034" d="M621 1014q150 0 235 -88l64 73l41 -16l-123 -895l231 -4l-18 -41l-35 -25q-123 -30 -250 -30q-60 0 -107 18l27 174q-54 -97 -118.5 -148.5t-155.5 -51.5q-75 0 -129 35t-82.5 91.5t-41 131t-10 149t16.5 150.5q39 217 160.5 347t294.5 130zM651 197q33 48 47 82v2 l76 540q6 43 -29 62q-50 28 -127 28q-122 0 -191 -100.5t-93 -294.5q-13 -121 -13 -215t33.5 -150.5t102.5 -56.5q66 0 109.5 27.5t84.5 75.5z" />
<glyph unicode="b" horiz-adv-x="1030" d="M555 1462l-37 -84l-65 -547q46 82 121.5 132.5t164.5 50.5q61 0 107.5 -22.5t74.5 -63t45 -92.5t21 -115.5t0.5 -127t-14.5 -132.5q-35 -224 -163 -352.5t-345 -128.5q-43 0 -91 6t-105 29.5t-76 60.5l151 1257l-197 29l7 45q98 29 401 55zM487 809q-37 -47 -49 -86 l-67 -571q0 -38 28 -52q47 -26 117 -26q56 0 100 20.5t75 55t54 87.5t37 110.5t25 131.5q59 420 -133 420q-111 0 -187 -90z" />
<glyph unicode="c" horiz-adv-x="874" d="M885 846q-4 -61 -36 -145.5t-69 -147.5h-61l8 340q-49 27 -102 27q-85 0 -147.5 -48t-95.5 -130t-48 -175t-15 -200q0 -141 46 -205t163 -64q66 0 130 22t151 83l16 -25l-6 -45q-70 -78 -166.5 -115.5t-181.5 -37.5q-162 0 -241.5 101.5t-79.5 291.5q0 291 131.5 466 t353.5 175q105 0 177.5 -55t72.5 -113z" />
<glyph unicode="d" horiz-adv-x="1032" d="M1042 1462l-32 -78l-156 -1296l231 -4l-18 -41l-35 -25q-123 -30 -250 -30q-60 0 -106 18l26 182q-115 -208 -290 -208q-75 0 -129 35t-82.5 91.5t-41 131t-10 149t16.5 150.5q39 217 160.5 347t294.5 130q104 0 167 -66l46 385l-199 29l6 45q98 29 401 55zM662 197 q35 44 47 84l65 557q0 32 -29 49q-50 28 -127 28q-235 0 -284 -399q-13 -121 -13.5 -215t35 -150.5t109.5 -56.5q114 0 197 103z" />
<glyph unicode="e" horiz-adv-x="884" d="M874 756q-18 -169 -147 -231.5t-401 -51.5q-9 -78 -5 -147t19.5 -120.5t57.5 -81.5t108 -30q67 0 133 21t152 71l14 -24l-8 -45q-172 -137 -355 -137q-337 0 -282 518q25 236 144.5 376t307.5 140q73 0 128 -23t84.5 -61t42 -82.5t7.5 -91.5zM592 930q-104 0 -165 -101 t-95 -299q74 1 121 4t92.5 11t71.5 22t48.5 38t33.5 57.5t16 80.5q5 32 1.5 65.5t-13 60.5t-38 44t-73.5 17z" />
<glyph unicode="f" horiz-adv-x="542" d="M-147 -369l-9 64q252 -7 332 22q8 44 21 177t27 290.5t18 200.5l51 492l-166 6q9 39 31 73l149 19q18 94 45.5 173t68 149t99.5 115t131 58q64 -1 139 -32.5t109 -61.5l-53 -41l-295 -12q-9 -24 -17.5 -49.5t-14 -44.5t-11.5 -47t-9 -41.5t-7.5 -44.5t-5.5 -39t-5.5 -43 t-5.5 -39l225 -4q-33 -64 -59 -94h-178l-70 -629q-23 -200 -54.5 -360.5t-62.5 -221.5q-38 -39 -105.5 -62.5t-137.5 -23.5q-57 0 -107 15t-73 36z" />
<glyph unicode="g" horiz-adv-x="1003" d="M621 1014q150 0 235 -88l59 73l41 -16q-20 -163 -47.5 -412.5t-45 -385t-36.5 -230.5q-24 -120 -69.5 -200.5t-136.5 -133.5q-51 -29 -118.5 -42t-117.5 -13q-94 0 -179.5 23t-123.5 71v86q132 -59 291 -59q123 0 219 43q31 22 50.5 97t36 204.5t21.5 154.5 q-116 -206 -288 -206q-75 0 -129 35t-82.5 91.5t-41 131t-10 149t16.5 150.5q39 217 160.5 347t294.5 130zM662 197q40 54 47 86l67 555q0 33 -28 49q-50 28 -130 28q-235 0 -284 -399q-13 -121 -13.5 -215t35 -150.5t109.5 -56.5q114 0 197 103z" />
<glyph unicode="h" horiz-adv-x="1087" d="M729 6l76 639q13 93 8.5 148t-36.5 77.5t-107 22.5q-81 0 -148.5 -42t-83.5 -120l-76 -643l232 -4l-19 -41l-34 -25q-123 -30 -250 -30q-61 0 -107 18l158 1327l-199 29l7 45q98 29 401 55l-35 -78l-65 -532q58 76 141 119t168 43q110 0 165.5 -57.5t55.5 -186.5 q0 -67 -72 -682l230 -4l-19 -41l-35 -25q-123 -30 -249 -30q-60 0 -107 18z" />
<glyph unicode="i" horiz-adv-x="573" d="M522 1001l-30 -69l-103 -844l232 -4l-19 -41l-35 -25q-123 -30 -250 -30q-59 0 -106 18l102 866l-198 29l6 45q98 29 401 55zM326 1292q0 53 34 85t86 32t87.5 -32t35.5 -85q0 -52 -35 -83t-88 -31q-52 0 -86 30.5t-34 83.5z" />
<glyph unicode="j" horiz-adv-x="528" d="M518 1001l-29 -67l-63 -535q-45 -361 -75.5 -520t-59.5 -213q-79 -86 -248 -86q-52 0 -103.5 14.5t-72.5 36.5l-8 64q213 -9 325 26q14 49 25.5 148.5t22.5 234.5t14 166l63 602l-198 29l6 45q98 29 401 55zM313 1292q0 53 34.5 85t86.5 32t87.5 -32t35.5 -85 q0 -52 -35 -83t-88 -31t-87 30.5t-34 83.5z" />
<glyph unicode="k" horiz-adv-x="985" d="M551 1462l-33 -78l-156 -1298l140 -2l-19 -41l-34 -25q-111 -30 -158 -30q-61 0 -107 18l158 1327l-199 29l7 45q98 29 401 55zM1014 1001q0 -2 3.5 -19t4 -23.5t0 -23.5t-5 -29t-13.5 -30t-24 -36q-10 -12 -23 -26t-31 -31t-33.5 -31t-40.5 -35.5t-41 -35t-45.5 -38 t-44 -36.5t-47 -38.5t-44.5 -36.5l245 -444l164 -8l-22 -41l-31 -21q-80 -26 -133 -26q-81 0 -123 14l-237 469l4 29l368 366l-219 31l10 51q71 21 359 49z" />
<glyph unicode="l" horiz-adv-x="526" d="M537 1462l-33 -78l-156 -1296l232 -4l-19 -41l-35 -25q-123 -30 -250 -30q-60 0 -106 18l158 1327l-199 29l6 45q98 29 402 55z" />
<glyph unicode="m" horiz-adv-x="1626" d="M743 6l76 639q11 87 8 142t-33 80.5t-98 25.5q-78 0 -143 -38.5t-84 -109.5l-80 -657l232 -4l-19 -41l-35 -25q-123 -30 -250 -30q-59 0 -106 18l102 866l-204 29l6 45q78 26 385 55l-19 -143q58 73 139.5 114.5t165.5 41.5q81 0 130 -37.5t67 -122.5q55 77 143 118.5 t170 41.5q117 0 167 -59t50 -183q0 -28 -2.5 -62t-9.5 -96.5t-13.5 -117t-22 -179t-27.5 -227.5l239 -6l-18 -41l-35 -25q-123 -30 -250 -30q-60 0 -106 18l75 639q10 86 8 141t-32 81t-98 26q-83 0 -151 -44.5t-81 -125.5l-76 -633l240 -6l-18 -41l-35 -25 q-123 -30 -250 -30q-60 0 -107 18z" />
<glyph unicode="n" horiz-adv-x="1114" d="M756 6l75 639q13 93 8.5 148t-36.5 77.5t-107 22.5q-83 0 -150.5 -42.5t-80.5 -123.5l-76 -639l232 -4l-19 -41l-35 -25q-123 -30 -250 -30q-59 0 -106 18l102 866l-204 29l6 45q79 26 383 55l-27 -155q58 79 143 123.5t172 44.5q110 0 166 -57.5t56 -186.5 q0 -67 -72 -682l229 -4l-18 -41l-35 -25q-123 -30 -250 -30q-60 0 -106 18z" />
<glyph unicode="o" horiz-adv-x="1005" d="M614 1014q112 0 188.5 -38t113 -106.5t49 -164t-3.5 -209.5q-13 -108 -47 -199.5t-89 -163.5t-137.5 -112.5t-183.5 -40.5q-107 0 -182.5 38t-114.5 106.5t-53 164t2 209.5q17 143 74.5 258.5t157.5 186.5t226 71zM604 922q-48 0 -86.5 -15t-66 -44.5t-47.5 -65.5 t-33.5 -87t-22 -100t-14.5 -112q-4 -46 -6 -71t-4.5 -67t-0.5 -66.5t6 -59t13 -55t23.5 -43.5t35 -35t49 -20.5t64.5 -8.5q57 0 101 22.5t72 59.5t47.5 94t29 114.5t16.5 133.5q15 180 9 245q-14 143 -117 172q-30 9 -68 9z" />
<glyph unicode="p" horiz-adv-x="1054" d="M553 -20q-116 0 -170 57l-41 -346l221 -6l-18 -41l-35 -25q-127 -31 -250 -31q-49 0 -98 19l149 1265l-202 29l6 45q78 26 385 55l-23 -167q48 80 124 130t163 50q61 0 107.5 -22.5t74 -63t44.5 -92.5t21 -115.5t0.5 -127t-14.5 -132.5q-34 -218 -153.5 -349.5 t-290.5 -131.5zM512 809q-34 -48 -47 -82l-68 -577q0 -40 25 -52q43 -24 119 -24q56 0 100 20.5t74.5 55t53.5 87.5t37 110.5t25 131.5q59 420 -133 420q-110 0 -186 -90z" />
<glyph unicode="q" horiz-adv-x="1003" d="M621 1014q150 0 235 -88l64 73l41 -16l-154 -1292l231 -6l-18 -41l-35 -25q-127 -31 -250 -31q-57 0 -106 19l69 577q-111 -204 -286 -204q-75 0 -129 35t-82.5 91.5t-41 131t-10 149t16.5 150.5q39 217 160.5 347t294.5 130zM662 197q39 53 47 86l67 563q-6 26 -28 41 q-50 28 -130 28q-235 0 -284 -399q-13 -121 -13.5 -215t35 -150.5t109.5 -56.5q114 0 197 103z" />
<glyph unicode="r" horiz-adv-x="780" d="M500 1001l-58 -413l121 96l185 309l65 8q6 -66 -4.5 -138t-26.5 -111q-9 -13 -26.5 -28.5t-45.5 -34.5t-49.5 -33.5t-61 -37.5t-56.5 -32.5t-59.5 -33t-47.5 -26.5l-55 -436l252 -6l-19 -41l-34 -25q-62 -15 -143.5 -22.5t-125.5 -7.5q-64 0 -110 18l110 866l-202 29 l6 45q78 26 385 55z" />
<glyph unicode="s" horiz-adv-x="870" d="M858 850q-26 -117 -92 -209h-49l-2 248q-51 33 -154 33q-82 0 -132.5 -34t-61.5 -95q-10 -54 10.5 -99.5t61.5 -78.5t92 -63.5t103 -64t93.5 -71t63.5 -91.5t14 -120q-12 -100 -113.5 -162.5t-257.5 -62.5q-104 0 -184.5 27.5t-104.5 78.5q3 125 33 252l49 -19 q12 -78 45 -208q62 -39 183 -39q165 0 186 116q9 45 -12.5 84t-61.5 69t-90 60t-99.5 65t-89 75t-58.5 98.5t-7 128.5q18 105 114 175.5t243 70.5q70 0 131.5 -17t104 -55.5t42.5 -91.5z" />
<glyph unicode="t" horiz-adv-x="681" d="M150 956l153 19q65 226 127 330l72 20l-37 -350l283 -4q-32 -62 -60 -94h-233q-8 -71 -26.5 -214.5t-25.5 -199.5q-24 -209 -24 -281q0 -41 18 -60.5t58 -19.5q111 0 245 84l17 -26l-10 -41q-159 -139 -328 -139q-93 0 -129.5 49.5t-36.5 150.5q0 64 13 189t59 508 l-166 6q9 39 31 73z" />
<glyph unicode="u" horiz-adv-x="1087" d="M485 1001l-84 -682q-7 -68 -7.5 -118t27 -79.5t87.5 -29.5q93 0 164.5 61.5t87.5 143.5v-8l67 569l-209 29l7 49q101 34 385 55l-107 -901l240 -6l-19 -41l-34 -25q-123 -30 -250 -30q-68 0 -115 18l25 182q-38 -74 -93 -122.5t-106 -67t-102 -18.5q-50 0 -89 14.5 t-63 38.5t-39 57.5t-21 67t-6 71.5q0 106 68 643l-205 29l6 45q78 26 385 55z" />
<glyph unicode="v" horiz-adv-x="1007" d="M1012 997q-23 -220 -76 -434q-23 -95 -50 -173t-68.5 -157t-91.5 -132.5t-121 -87t-154 -33.5q-109 0 -157 80.5t-48 242.5q0 286 43 574l-191 24l6 45q73 25 383 55q-41 -205 -61 -411t-20 -332q0 -101 21.5 -140.5t80.5 -39.5q36 0 66 14.5t54 46.5t42 65t35.5 87.5 t29 96t27.5 108.5q21 85 67 372l-200 27l10 51q109 32 373 51z" />
<glyph unicode="w" horiz-adv-x="1488" d="M487 1001q-46 -209 -70 -418t-24 -329q0 -30 1 -51t6.5 -46.5t14.5 -41t26.5 -26.5t41.5 -11q82 0 143.5 89.5t90.5 233.5q13 66 23.5 129.5t15 96.5t15 119t15.5 124l-184 25l10 51q59 17 170 33.5t183 21.5q-45 -206 -68 -421.5t-23 -341.5q0 -94 15 -127t72 -33 q78 0 130 72t93 204q61 191 106 514l-190 27l10 51q52 18 164.5 33.5t195.5 21.5q-39 -295 -68 -421q-13 -55 -28 -105q-20 -68 -46 -131.5t-66.5 -131.5t-87 -118t-110.5 -82t-134 -32q-96 0 -139 62t-46 183q-43 -110 -124 -177.5t-187 -67.5q-107 0 -151.5 83t-44.5 259 q0 238 53 555l-193 24l6 45q73 25 383 55z" />
<glyph unicode="x" horiz-adv-x="946" d="M1004 987l-27 -86l-344 -401l176 -381l156 -43l-21 -41l-31 -23q-61 -20 -125 -20q-76 0 -118 14l-160 402l-252 -314l186 -12l-18 -41l-35 -21q-97 -30 -219 -30q-45 0 -102 22l28 70l373 418l-154 374l-159 25l6 49q113 31 293 49l141 -405l223 285l-182 20l6 49 q68 23 168.5 36t190.5 5z" />
<glyph unicode="y" horiz-adv-x="1040" d="M487 1001q-45 -209 -69.5 -417.5t-24.5 -325.5q0 -99 22.5 -134.5t82.5 -35.5q80 0 147 61t109 144q28 186 75 567l-204 29l6 49q51 18 170.5 33t208.5 22q-105 -854 -154 -1038q-17 -61 -32.5 -103.5t-40 -87.5t-60 -80t-82.5 -63q-51 -29 -115.5 -42t-113.5 -13 q-94 0 -179.5 23t-123.5 71v86q132 -59 290 -59q117 0 213 43q70 51 129 471q-54 -105 -126 -163t-185 -58q-108 0 -152.5 79.5t-44.5 243.5q0 91 15 255t41 319l-191 24l6 45q73 25 383 55z" />
<glyph unicode="z" horiz-adv-x="899" d="M803 0h-729l14 66l627 790l-357 -2l-112 -223h-62q41 246 62 340q171 14 332 14h346l-21 -67l-637 -791h424l121 227h66q-9 -62 -74 -354z" />
<glyph unicode="{" horiz-adv-x="686" d="M635 -319q-8 -37 -76 -74h-72q-99 0 -166 20.5t-102 59.5t-46.5 88t-4.5 114q10 112 52 256t102 279q-123 63 -195 106l-10 52q145 66 237 102q-70 317 -47 541q31 282 395 282h125q-8 -37 -75 -73h-76q-122 0 -173 -45t-61 -138q-6 -58 18 -255t54 -328l-293 -105 l271 -117q-59 -131 -120 -319t-69 -258q-4 -40 1.5 -71t24.5 -59t60 -43t103 -15h143z" />
<glyph unicode="|" horiz-adv-x="487" d="M123 -590l229 2171q41 26 125 41l-231 -2195q-40 -13 -123 -17z" />
<glyph unicode="}" horiz-adv-x="686" d="M168 1434q4 16 17 31t25.5 22.5t33.5 19.5h71q191 0 263 -74t57 -208q-12 -113 -54.5 -258t-101.5 -279q153 -79 197 -104l10 -52q-85 -40 -240 -102q71 -310 50 -541q-31 -282 -396 -282h-125q8 37 76 74h76q122 0 172.5 44.5t60.5 137.5q6 58 -17.5 255t-53.5 328 l293 105l-271 117q59 131 120 319t69 258q4 40 -1.5 71.5t-24.5 59.5t-60 43t-103 15h-143z" />
<glyph unicode="~" d="M369 641l-187 -145l-53 41q45 54 73.5 85t84.5 76.5t106 65.5q45 -8 262 -82t267 -88l198 145l45 -18q-39 -85 -112 -151t-127 -93q-85 0 -263.5 57t-293.5 107z" />
<glyph unicode="&#xa1;" horiz-adv-x="563" d="M283 637l77 4l-26 -616l-2 -347q-69 -14 -151 -19t-128 3l105 307zM360 1012q52 0 80.5 -29t28.5 -74q0 -53 -34 -89t-93 -36q-48 0 -77 33t-29 74q0 57 32 89t92 32z" />
<glyph unicode="&#xa2;" horiz-adv-x="931" d="M909 836q-4 -61 -35.5 -146t-68.5 -147h-51l8 338q-49 36 -113 43l-88 -836q67 3 128.5 27.5t146.5 83.5l14 -21l-6 -45q-117 -128 -295 -149l-21 -201q-39 -13 -96 -16l23 215q-160 10 -231.5 108.5t-71.5 282.5q0 268 109 438.5t300 198.5l21 182q31 20 49.5 27.5 t50.5 13.5l-25 -221q117 -7 184.5 -62.5t67.5 -113.5zM313 367q0 -123 33.5 -189t120.5 -84l86 830q-65 -13 -113.5 -66.5t-75 -134t-39 -169t-12.5 -187.5z" />
<glyph unicode="&#xa3;" horiz-adv-x="1232" d="M147 707h154q-9 84 0 172q22 211 167 337.5t384 126.5q134 0 247 -51t134 -112q-44 -163 -88 -267h-60l-2 250q-122 74 -256 74q-141 0 -234 -81.5t-110 -240.5q-10 -89 4 -208h478q-10 -43 -78 -80h-387q5 -30 21 -106t20 -111l-21 -41l-268 -230h700l162 264l70 27 q-63 -327 -92 -430h-1031l15 63l299 302q-45 150 -64 262h-211q17 48 47 80z" />
<glyph unicode="&#xa4;" horiz-adv-x="1144" d="M608 307q-116 0 -192 51l-183 -208q-38 0 -80 8t-51 18l230 268q-58 94 -45 224q13 136 88 229l-166 256q10 10 49.5 17.5t77.5 7.5l131 -201q88 53 209 53q115 0 192 -55l183 211q33 0 68.5 -17.5t47.5 -31.5l-217 -252q55 -93 45 -215q-17 -152 -88 -240l158 -242 q-16 -16 -47.5 -32.5t-63.5 -16.5l-143 211q-84 -43 -203 -43zM414 659q-9 -114 43.5 -177.5t160.5 -63.5q114 0 178 70.5t70 181.5q6 114 -45 177.5t-157 63.5q-115 0 -178.5 -70t-71.5 -182z" />
<glyph unicode="&#xa5;" horiz-adv-x="1085" d="M258 0l14 43l37 23l164 34l31 269h-348q10 37 47 77h309l12 99l-39 86h-295q10 40 46 78h215l-228 505l-86 58v24l19 27h452l-10 -41l-18 -22l-177 -48l197 -448l53 -135l95 137l303 424l-207 65l-8 27l22 41h375l-16 -66q-40 -60 -95.5 -136t-93.5 -125t-116.5 -150 t-106.5 -137h270q-10 -42 -76 -78h-254q-39 -53 -53 -72l-12 -113h362q-9 -40 -77 -77h-293l-29 -271l172 -30l6 -23l-22 -45h-162l-2 14l-2 -14h-170l2 25l-6 -25h-201z" />
<glyph unicode="&#xa6;" horiz-adv-x="487" d="M254 657l98 924q41 26 125 41l-100 -948q-40 -13 -123 -17zM123 -590l98 924q41 26 125 41l-100 -948q-40 -13 -123 -17z" />
<glyph unicode="&#xa7;" horiz-adv-x="1091" d="M172 248l51 -19q6 -21 18.5 -62.5t20.5 -66t20.5 -59.5t26.5 -64q90 -47 221 -47q218 0 244 133q4 20 4.5 38.5t-4.5 35t-11.5 31.5t-19 29.5t-25.5 27.5t-32 26t-36.5 24t-42 24t-46 23.5t-49.5 23.5q-193 91 -261.5 172.5t-47.5 204.5q12 73 74 126.5t159 68.5 q-92 63 -123.5 129t-17.5 153q18 118 133 190t307 72q109 0 216.5 -36.5t127.5 -84.5q-39 -151 -94 -276h-55v254q-112 53 -238 53q-118 0 -176 -47.5t-70 -116.5q-8 -44 6 -80t63.5 -72t78 -52t108.5 -56q2 -1 3 -2q47 -23 70.5 -35t65 -36t63.5 -41t50 -44t41.5 -52 t21.5 -58t5 -68q-9 -94 -78 -156t-166 -73q84 -59 122.5 -134t14.5 -181q-23 -101 -133 -164.5t-260 -63.5q-134 0 -241 36.5t-131 82.5q-1 40 0.5 79.5t4 64t8.5 72.5t9 73zM641 807q-60 26 -145 74q-33 11 -68 -4q-31 -12 -55.5 -43t-30.5 -78q-10 -92 49 -151.5 t223 -133.5l88 -43q39 -13 66 -4q41 12 71 52.5t35 88.5q4 42 -12 77.5t-52.5 65.5t-74 51t-94.5 48z" />
<glyph unicode="&#xa8;" horiz-adv-x="819" d="M336 1202q-47 0 -72.5 27t-25.5 69q0 47 30.5 79t83.5 32q45 0 72 -29t27 -67q0 -51 -30.5 -81t-84.5 -30zM737 1202q-47 0 -72.5 27t-25.5 69q0 47 31 79t84 32q45 0 71.5 -29t26.5 -67q0 -51 -30 -81t-85 -30z" />
<glyph unicode="&#xa9;" horiz-adv-x="1658" d="M864 -61q-168 0 -300 52.5t-214 145t-124 213.5t-42 264q0 220 93 395.5t266.5 276t398.5 100.5q132 0 243 -38t189 -103t132.5 -151.5t80 -183.5t25.5 -199q0 -356 -198.5 -564t-549.5 -208zM870 35q156 0 276.5 49t196.5 138t115 210.5t39 269.5q0 85 -18.5 166 t-61.5 158.5t-105.5 135t-159 93t-214.5 35.5q-157 0 -280.5 -54.5t-199.5 -148.5t-115.5 -213.5t-39.5 -255.5q0 -119 33 -221.5t99 -184.5t177.5 -129.5t257.5 -47.5zM1237 973q-40 -174 -86 -275h-64l3 299q-64 31 -127 31q-128 0 -189.5 -92t-81.5 -279 q-19 -177 34 -262.5t189 -85.5q143 0 265 107l20 -13l-2 -28q-61 -85 -150.5 -131.5t-197.5 -46.5q-94 0 -164 37.5t-109 101.5t-54 146t-5 175t41.5 173t85.5 145t136.5 102t185.5 37q102 0 177.5 -47t92.5 -94z" />
<glyph unicode="&#xaa;" horiz-adv-x="862" d="M287 1081l-27 25q25 119 29 129q29 40 102.5 74t153.5 34q121 0 171.5 -65.5t35.5 -202.5l-39 -342l123 -10l6 -21l-17 -18q-107 -31 -161 -35q-33 0 -50.5 6.5t-35.5 24.5l10 82q-29 -50 -84 -83.5t-129 -33.5q-72 0 -124 46t-44 126q9 90 75 136t199 57l129 10l4 43 q12 121 -6.5 164t-83.5 43q-25 0 -53 -8q-75 -67 -184 -181zM184 532h647q-4 -21 -22.5 -43.5t-38.5 -33.5h-623q18 55 37 77zM444 731q55 0 98.5 30t47.5 75l14 129l-104 -7q-83 -6 -117 -33.5t-39 -82.5q-12 -111 100 -111z" />
<glyph unicode="&#xab;" horiz-adv-x="962" d="M516 745l-264 -243l227 -273q-9 -39 -18.5 -58t-36.5 -52l-277 350l-14 66l397 368q10 -40 5 -86t-19 -72zM887 745l-264 -243l227 -273q-9 -39 -18.5 -58t-36.5 -52l-277 350l-14 66l397 368q10 -40 5 -86t-19 -72z" />
<glyph unicode="&#xac;" horiz-adv-x="991" d="M815 362l37 355h-707q17 65 50 100h774l-47 -438q-43 -14 -107 -17z" />
<glyph unicode="&#xae;" horiz-adv-x="1273" d="M733 567q-131 0 -234 41t-166.5 113t-96.5 166.5t-33 206.5q0 172 72 308.5t207 215t311 78.5q127 0 229 -45t164.5 -120.5t95.5 -168t33 -193.5q0 -279 -154.5 -440.5t-427.5 -161.5zM729 651q237 0 361 138t124 372q0 66 -13.5 128t-46 121.5t-80 103.5t-121.5 71 t-165 27q-121 0 -215.5 -41.5t-152.5 -113t-87.5 -163t-29.5 -196.5q0 -93 23.5 -171t72 -141t133 -99t197.5 -36zM494 1432l16 20h317q108 0 157.5 -45.5t41.5 -120.5q-7 -67 -56 -108t-128 -52l151 -239l105 -17l-11 -16l-18 -14q-37 -11 -92 -11q-74 0 -92 9l-164 276 h-57l-25 -231l86 -15l12 -14l-18 -23h-301l10 23l18 14l70 19l53 514l-69 14zM782 1401h-88l-24 -240h82q129 0 141 123q8 65 -17 91t-94 26z" />
<glyph unicode="&#xaf;" horiz-adv-x="819" d="M293 1343h569q-6 -26 -30.5 -58.5t-49.5 -45.5h-538q19 72 49 104z" />
<glyph unicode="&#xb0;" horiz-adv-x="696" d="M461 924q-124 0 -189 66t-65 171q0 120 79.5 197.5t211.5 77.5q112 0 175.5 -71t63.5 -167q0 -126 -76.5 -200t-199.5 -74zM459 1012q83 0 128.5 50.5t45.5 127.5q0 62 -39.5 110t-110.5 48q-85 0 -128.5 -51.5t-43.5 -129.5q0 -66 37.5 -110.5t110.5 -44.5z" />
<glyph unicode="&#xb1;" horiz-adv-x="991" d="M467 340l37 356h-361q17 66 50 101h321l37 350q44 27 121 41l-41 -391h385q-6 -26 -30.5 -56.5t-49.5 -44.5h-315l-35 -340q-37 -12 -119 -16zM135 252h823q-6 -26 -30 -56t-49 -44h-793q17 66 49 100z" />
<glyph unicode="&#xb2;" horiz-adv-x="747" d="M700 717h-567l14 57q32 63 91 130.5t110 101.5l84 56t63 45.5t51.5 45t33.5 43t25 51t11 58.5q15 151 -127 151q-24 0 -51 -6q-43 -44 -104.5 -115.5t-77.5 -87.5l-23 23q4 17 10 47.5t11.5 53.5t11.5 38q35 46 101.5 81.5t152.5 35.5q121 0 185 -62.5t53 -163.5 q-3 -24 -10 -46.5t-16 -40.5t-26 -37t-30.5 -32.5t-39.5 -31t-43.5 -28.5t-52 -29.5t-55 -29t-63 -31.5t-66.5 -33q-24 -32 -96 -144h356l101 154l43 12q-32 -175 -60 -266z" />
<glyph unicode="&#xb3;" horiz-adv-x="763" d="M432 705q-92 0 -158 21t-90 50q-13 26 4 201l39 -10q49 -136 84 -183q49 -14 107 -14q173 0 190 156q8 75 -34 113t-164 38q-37 0 -95 -4q3 16 16.5 42t24.5 36q18 -2 58 -2q114 0 161.5 41t57.5 123q9 72 -31 108.5t-117 36.5q-19 0 -51 -4q-31 -32 -91 -106t-77 -91 l-22 25q17 103 35 143q34 42 100.5 71.5t148.5 29.5q113 0 178.5 -58t55.5 -157q-19 -167 -266 -193q133 -3 195.5 -59t51.5 -150q-12 -100 -94.5 -152t-216.5 -52z" />
<glyph unicode="&#xb4;" horiz-adv-x="819" d="M389 1104l-33 39q66 61 187 187.5t184 187.5q81 -66 115 -150q-241 -126 -453 -264z" />
<glyph unicode="&#xb5;" horiz-adv-x="1085" d="M281 965l206 32l-79 -311l-43 -395q-10 -98 11 -144.5t89 -46.5q95 0 147 56.5t99 181.5q37 101 47 190l51 437l209 32l-80 -311l-72 -596l250 -6l-18 -41l-35 -25q-123 -30 -250 -30q-69 0 -115 18l43 307q-22 -79 -46 -135t-58 -103.5t-81 -71t-107 -23.5 q-154 0 -193 170q32 -266 96 -529l-194 -39q11 398 37 635z" />
<glyph unicode="&#xb6;" horiz-adv-x="1255" d="M780 1323l-82 -780h-123q-133 0 -231 43t-149 136t-33 226q51 375 485 375h133zM246 -199l24 68l451 92q24 115 67 490l89 845q37 24 129 41l-105 -987q-50 -500 -182 -592q-319 7 -473 43zM999 451l88 845q37 24 130 41l-105 -987q-43 -432 -121 -571q-77 -21 -125 -15 q74 157 133 687z" />
<glyph unicode="&#xb7;" horiz-adv-x="581" d="M332 377q-55 0 -85 31t-30 79q0 56 35.5 93.5t97.5 37.5q53 0 84 -34t31 -78q0 -60 -34.5 -94.5t-98.5 -34.5z" />
<glyph unicode="&#xb8;" horiz-adv-x="819" d="M276 -154l11 172h106l-26 -118q100 -3 150.5 -47.5t41.5 -114.5q-7 -70 -79 -116t-175 -46q-69 0 -119 20.5t-69 49.5l2 26l22 17q21 -18 61.5 -29.5t78.5 -11.5q67 0 98 23.5t37 74.5q14 102 -86 102q-36 0 -54 -2z" />
<glyph unicode="&#xb9;" horiz-adv-x="602" d="M219 717l10 26l23 17l117 24l65 596l-266 -67l6 45q35 14 163 65t175 70l74 35l-82 -744l108 -22l4 -19l-14 -26h-383z" />
<glyph unicode="&#xba;" horiz-adv-x="862" d="M561 1343q153 0 218.5 -94t49.5 -254q-18 -159 -104 -253.5t-236 -94.5q-151 0 -216.5 98t-49.5 250q15 153 107 250.5t231 97.5zM684 995q7 84 3.5 145t-36 95.5t-98.5 34.5q-39 0 -68.5 -13t-48.5 -35.5t-32.5 -58.5t-20.5 -75t-12 -93q-15 -141 14 -207.5t113 -66.5 q87 0 129 65t57 209zM184 532h647q-4 -21 -22.5 -43.5t-38.5 -33.5h-623q18 55 37 77z" />
<glyph unicode="&#xbb;" horiz-adv-x="962" d="M168 121q-10 40 -5 86t19 72l262 243l-225 273q9 39 18.5 58t36.5 52l277 -350l14 -66zM539 121q-10 40 -5 86t19 72l262 243l-225 273q9 39 18.5 58t36.5 52l277 -350l14 -66z" />
<glyph unicode="&#xbc;" horiz-adv-x="1292" d="M213 76l981 1222q27 12 103 19.5t122 7.5q-55 -65 -123.5 -134t-190.5 -184t-161 -153l-631 -854h-135zM1202 23l-14 -23h-336l8 23l23 16l96 12l12 99h-319l10 45l256 260q87 83 152 125l86 20l-50 -395h152q-5 -29 -43 -55h-115l-12 -99l90 -14zM315 739l9 25l20 18 l100 25l50 395l-283 -49l6 43l346 107l84 34l-67 -532l94 -21l4 -20l-12 -25h-351zM848 205h151l25 182l20 109l-210 -236l-66 -59z" />
<glyph unicode="&#xbd;" horiz-adv-x="1374" d="M213 76l981 1222q27 12 103 19.5t122 7.5q-55 -65 -123.5 -134t-190.5 -184t-161 -153l-631 -854h-135zM1266 0h-504l14 66q25 42 76.5 85t97.5 68q21 11 58.5 31t51 27.5t38 22.5t32.5 25t20.5 26.5t17.5 35t8 43.5q12 105 -105 105q-16 0 -31 -3q-34 -31 -91 -87 t-75 -72l-30 22l7 38.5t9.5 46.5t9.5 30q29 34 92 61t142 27q104 0 162 -51t49 -129q-10 -76 -91.5 -124.5t-260.5 -105.5q-27 -31 -72 -92h301l80 111l45 8q-37 -168 -51 -215zM315 739l9 25l20 18l100 25l50 395l-283 -49l6 43l346 107l84 34l-67 -532l94 -21l4 -20 l-12 -25h-351zM1004 526q-7 0 -9 -2z" />
<glyph unicode="&#xbe;" horiz-adv-x="1292" d="M213 76l981 1222q27 12 103 19.5t122 7.5q-55 -65 -123.5 -134t-190.5 -184t-161 -153l-631 -854h-135zM1202 23l-14 -23h-336l8 23l23 16l96 12l12 99h-319l10 45l256 260q87 83 152 125l86 20l-50 -395h152q-5 -29 -43 -55h-115l-12 -99l90 -14zM412 727q-83 0 -142 16 t-80 41q-13 23 5 156l49 -8q37 -93 71 -135q41 -9 78 -9q73 0 110 29.5t42 77.5q5 54 -26.5 77t-129.5 23q-21 0 -49 -1t-37 -1q3 12 16 35.5t21 30.5q10 -2 53 -2q92 0 130 26.5t44 81.5q5 55 -19 84t-91 29q-15 0 -39 -4q-17 -17 -50 -52.5t-58 -61t-38 -34.5l-30 25 q2 8 7.5 35.5t11 47t11.5 32.5q27 29 90.5 50t133.5 21q101 0 162.5 -46t52.5 -117q-15 -123 -242 -142q119 -6 175.5 -45.5t47.5 -109.5q-9 -72 -85 -111t-195 -39zM848 205h151l25 182l20 109l-210 -236l-66 -59z" />
<glyph unicode="&#xbf;" horiz-adv-x="937" d="M786 -291q-123 -59 -307 -59q-201 0 -295 103t-78 265q7 71 40.5 129.5t79.5 97t108 68t119.5 45t119.5 25.5l50 258h106l-12 -274l-33 -27q-86 -12 -151 -34.5t-117.5 -60t-83.5 -96t-39 -137.5q-17 -153 39 -211.5t203 -58.5q55 0 94 8q25 56 127 309l45 9 q5 -154 -15 -359zM702 1012q52 0 80.5 -29t28.5 -74q0 -53 -34 -89t-93 -36q-48 0 -77 33t-29 74q0 57 32 89t92 32z" />
<glyph unicode="&#xc0;" horiz-adv-x="1290" d="M471 41l-22 -41h-463l8 41l22 22l97 46l442 845q47 89 115 195.5t108 153.5l70 55q69 -227 176 -650.5t158 -601.5l102 -55v-24l-18 -27h-494l8 41l23 22l178 50l-82 348h-493l-175 -346l232 -47zM788 934l-40 217l-97 -205l-200 -397h428zM1073 1509l-22 -49 q-175 63 -457 137q23 77 94 164q239 -171 385 -252z" />
<glyph unicode="&#xc1;" horiz-adv-x="1290" d="M471 41l-22 -41h-463l8 41l22 22l97 46l442 845q47 89 115 195.5t108 153.5l70 55q69 -227 176 -650.5t158 -601.5l102 -55v-24l-18 -27h-494l8 41l23 22l178 50l-82 348h-493l-175 -346l232 -47zM788 934l-40 217l-97 -205l-200 -397h428zM725 1458l-18 51 q30 15 58.5 30t61 34t54 31t60.5 36.5t56 35t65.5 41.5t65.5 42q57 -89 66 -176q-327 -78 -469 -125z" />
<glyph unicode="&#xc2;" horiz-adv-x="1290" d="M471 41l-22 -41h-463l8 41l22 22l97 46l442 845q47 89 115 195.5t108 153.5l70 55q69 -227 176 -650.5t158 -601.5l102 -55v-24l-18 -27h-494l8 41l23 22l178 50l-82 348h-493l-175 -346l232 -47zM788 934l-40 217l-97 -205l-200 -397h428zM819 1729l80 14 q122 -95 260 -230l-39 -51q-20 11 -64 36.5t-72 42t-64.5 36.5t-63.5 33q-108 -45 -311 -154l-29 51q124 104 303 222z" />
<glyph unicode="&#xc3;" horiz-adv-x="1290" d="M471 41l-22 -41h-463l8 41l22 22l97 46l442 845q47 89 115 195.5t108 153.5l70 55q69 -227 176 -650.5t158 -601.5l102 -55v-24l-18 -27h-494l8 41l23 22l178 50l-82 348h-493l-175 -346l232 -47zM788 934l-40 217l-97 -205l-200 -397h428zM668 1548l-119 -96l-43 29 q11 13 33 40.5t33.5 40t31.5 32t42.5 33.5t51.5 26q47 -8 171 -47t165 -50l123 103l37 -19q-11 -24 -22.5 -44t-20 -34.5t-22 -29t-19 -21.5t-21 -18t-18.5 -13.5t-20 -13.5t-19 -12q-160 5 -364 94z" />
<glyph unicode="&#xc4;" horiz-adv-x="1290" d="M471 41l-22 -41h-463l8 41l22 22l97 46l442 845q47 89 115 195.5t108 153.5l70 55q69 -227 176 -650.5t158 -601.5l102 -55v-24l-18 -27h-494l8 41l23 22l178 50l-82 348h-493l-175 -346l232 -47zM788 934l-40 217l-97 -205l-200 -397h428zM1059 1468q-47 0 -72.5 27.5 t-25.5 69.5q0 47 30.5 78.5t83.5 31.5q45 0 72 -29t27 -67q0 -51 -30 -81t-85 -30zM637 1468q-47 0 -72.5 27.5t-25.5 69.5q0 47 30.5 78.5t83.5 31.5q45 0 72 -29t27 -67q0 -51 -30 -81t-85 -30z" />
<glyph unicode="&#xc5;" horiz-adv-x="1290" d="M831 1579q91 0 141 -50.5t42 -131.5q-16 -125 -129 -168q50 -170 146 -549t151 -574l102 -55v-24l-18 -27h-494l8 41l23 22l178 50l-82 348h-493l-175 -346l232 -47l8 -27l-22 -41h-463l8 41l22 22l97 46l442 845q74 140 162 271q-57 18 -85 64.5t-22 107.5q8 80 69 131 t152 51zM788 934l-40 217l-97 -205l-200 -397h428zM909 1397q12 119 -84 119q-56 0 -82 -28.5t-32 -90.5q-6 -59 16.5 -89t67.5 -30q57 0 82.5 28.5t31.5 90.5zM780 1214h-2v-2z" />
<glyph unicode="&#xc6;" horiz-adv-x="1792" d="M674 0l14 43l37 23l160 34l37 361h-430l-234 -350l213 -39l10 -27l-24 -45h-486l21 43l26 25l107 45l569 817q133 193 277 348l65 45h756q-19 -195 -49 -346l-53 12l-58 240h-456l-52 -514h516q-1 -33 -47.5 -60.5t-95.5 -38.5h-383l-53 -522h442l172 285l66 16 q-36 -213 -72 -395h-995zM819 950l-268 -401h381l69 670z" />
<glyph unicode="&#xc7;" horiz-adv-x="1159" d="M1163 1153q-60 -243 -129 -393h-63l4 426q-93 51 -207 51q-105 0 -181 -37.5t-125.5 -114t-78 -178t-43.5 -243.5q-16 -135 -7 -239t43.5 -175t107 -107.5t184.5 -36.5q114 0 210 40.5t189 129.5l25 -8l-5 -41q-171 -238 -444 -247l-14 -60q100 -3 150.5 -47.5 t41.5 -114.5q-7 -70 -79 -115.5t-175 -45.5q-69 0 -119 20t-69 49l2 27l22 16q21 -18 61.5 -29.5t78.5 -11.5q67 0 98 24t37 75q14 102 -86 102q-35 0 -53 -2l6 117q-100 11 -177 52.5t-122.5 105.5t-73.5 147.5t-31 177.5t6 197q11 109 42 208t85 185.5t126 149.5t170 99.5 t212 36.5q140 0 248 -62t133 -128z" />
<glyph unicode="&#xc8;" horiz-adv-x="1177" d="M186 1278l23 45h969q-18 -185 -50 -346l-53 12l-57 240h-481l-52 -514h541q-1 -33 -47.5 -60.5t-95.5 -38.5h-408l-53 -522h467l172 285l65 16q-42 -250 -71 -395h-1020l14 43l37 23l160 34l114 1123l-167 32zM1014 1509l-23 -49q-177 64 -456 137q23 77 94 164 q239 -171 385 -252z" />
<glyph unicode="&#xc9;" horiz-adv-x="1177" d="M186 1278l23 45h969q-18 -185 -50 -346l-53 12l-57 240h-481l-52 -514h541q-1 -33 -47.5 -60.5t-95.5 -38.5h-408l-53 -522h467l172 285l65 16q-42 -250 -71 -395h-1020l14 43l37 23l160 34l114 1123l-167 32zM666 1458l-19 51q27 13 54.5 28t48.5 26t52.5 30t47 28 t53.5 33t50 31.5t58 36.5t58 37q57 -89 66 -176q-327 -78 -469 -125z" />
<glyph unicode="&#xca;" horiz-adv-x="1177" d="M186 1278l23 45h969q-18 -185 -50 -346l-53 12l-57 240h-481l-52 -514h541q-1 -33 -47.5 -60.5t-95.5 -38.5h-408l-53 -522h467l172 285l65 16q-42 -250 -71 -395h-1020l14 43l37 23l160 34l114 1123l-167 32zM760 1729l80 14q122 -95 260 -230l-39 -51q-20 11 -64 36.5 t-72 42t-64.5 36.5t-63.5 33q-112 -47 -312 -154l-28 51q124 104 303 222z" />
<glyph unicode="&#xcb;" horiz-adv-x="1177" d="M186 1278l23 45h969q-18 -185 -50 -346l-53 12l-57 240h-481l-52 -514h541q-1 -33 -47.5 -60.5t-95.5 -38.5h-408l-53 -522h467l172 285l65 16q-42 -250 -71 -395h-1020l14 43l37 23l160 34l114 1123l-167 32zM578 1468q-47 0 -73 27.5t-26 69.5q0 46 31 78t84 32 q45 0 71.5 -29t26.5 -67q0 -51 -30 -81t-84 -30zM999 1468q-47 0 -72.5 27.5t-25.5 69.5q0 46 31 78t84 32q45 0 71.5 -29t26.5 -67q0 -51 -30 -81t-85 -30z" />
<glyph unicode="&#xcc;" horiz-adv-x="649" d="M598 45l-23 -45h-540l14 43l37 23l160 34l114 1123l-167 32l-7 23l23 45h539l-15 -43l-37 -23l-159 -34l-113 -1125l168 -30zM719 1509l-23 -49q-177 64 -456 137q23 77 94 164q239 -171 385 -252z" />
<glyph unicode="&#xcd;" horiz-adv-x="649" d="M598 45l-23 -45h-540l14 43l37 23l160 34l114 1123l-167 32l-7 23l23 45h539l-15 -43l-37 -23l-159 -34l-113 -1125l168 -30zM371 1458l-19 51q27 13 54.5 28t48.5 26t52.5 30t47 28t53.5 33t50 31.5t58 36.5t58 37q57 -89 66 -176q-327 -78 -469 -125z" />
<glyph unicode="&#xce;" horiz-adv-x="649" d="M598 45l-23 -45h-540l14 43l37 23l160 34l114 1123l-167 32l-7 23l23 45h539l-15 -43l-37 -23l-159 -34l-113 -1125l168 -30zM465 1729l80 14q122 -95 260 -230l-39 -51q-20 11 -64 36.5t-72 42t-64.5 36.5t-63.5 33q-112 -47 -312 -154l-28 51q124 104 303 222z" />
<glyph unicode="&#xcf;" horiz-adv-x="649" d="M598 45l-23 -45h-540l14 43l37 23l160 34l114 1123l-167 32l-7 23l23 45h539l-15 -43l-37 -23l-159 -34l-113 -1125l168 -30zM705 1468q-47 0 -73 27.5t-26 69.5q0 46 31 78t84 32q45 0 71.5 -29t26.5 -67q0 -51 -30 -81t-84 -30zM283 1468q-47 0 -73 27.5t-26 69.5 q0 46 31 78t84 32q45 0 71.5 -29t26.5 -67q0 -51 -30 -81t-84 -30z" />
<glyph unicode="&#xd0;" horiz-adv-x="1318" d="M55 0l15 43l36 23l160 34l53 523h-178q13 50 47 86h140l53 514l-168 32l-6 23l22 45h514q98 0 179 -17.5t140.5 -50.5t105 -79t72.5 -102.5t44 -122.5t17.5 -138t-5.5 -149q-15 -146 -56 -262t-113.5 -208.5t-188 -143t-266.5 -50.5h-617zM696 623h-200l-52 -525h226 q213 0 307 129.5t127 436.5q34 300 -51 430.5t-318 130.5h-178l-53 -516h270q-6 -25 -28.5 -48t-49.5 -38z" />
<glyph unicode="&#xd1;" horiz-adv-x="1400" d="M1034 1278l23 45h475l-14 -43l-37 -23l-160 -34l-76 -727q-11 -126 -30.5 -297t-30.5 -213l-33 -19l-137 195l-471 815l-86 153l-13 -174l-86 -858l168 -30l6 -23l-22 -45h-475l14 43l37 23l160 34l114 1123l-167 32l-7 23l23 45h330l505 -891l74 -141l15 180l75 752 l-168 32zM709 1548l-119 -96l-43 29q11 13 33 40.5t33.5 40t31.5 32t42.5 33.5t51.5 26q47 -8 171 -47t165 -50l123 103l37 -19q-11 -24 -22.5 -44t-20 -34.5t-22 -29t-19 -21.5t-21 -18t-18.5 -13.5t-20 -13.5t-19 -12q-160 5 -364 94z" />
<glyph unicode="&#xd2;" horiz-adv-x="1257" d="M1026 1509l-22 -49q-175 63 -457 137q23 77 94 164q239 -171 385 -252zM627 84q86 0 151 27t109 73.5t75 121.5t48.5 159t29.5 199q16 134 11 241t-33.5 181.5t-95.5 114.5t-174 40q-86 0 -150.5 -26.5t-108 -72.5t-73.5 -121t-47 -158.5t-29 -198.5 q-17 -134 -12.5 -241.5t32 -182.5t94 -115.5t173.5 -40.5zM614 -20q-100 0 -179.5 25.5t-132.5 71.5t-90 110t-52.5 140t-20 161.5t7.5 175.5q11 110 39.5 208t79 185.5t118.5 150t164 99t210 36.5q100 0 180 -25.5t133.5 -71t91.5 -108.5t54.5 -138.5t22 -160.5t-6.5 -175 q-12 -112 -39.5 -209.5t-77.5 -186.5t-118 -151.5t-166.5 -99.5t-217.5 -37z" />
<glyph unicode="&#xd3;" horiz-adv-x="1257" d="M678 1458l-19 51q27 13 54.5 28t48.5 26t52.5 30t47 28t53.5 33t50 31.5t58 36.5t58 37q57 -89 66 -176q-327 -78 -469 -125zM627 84q86 0 151 27t109 73.5t75 121.5t48.5 159t29.5 199q16 134 11 241t-33.5 181.5t-95.5 114.5t-174 40q-86 0 -150.5 -26.5t-108 -72.5 t-73.5 -121t-47 -158.5t-29 -198.5q-17 -134 -12.5 -241.5t32 -182.5t94 -115.5t173.5 -40.5zM614 -20q-100 0 -179.5 25.5t-132.5 71.5t-90 110t-52.5 140t-20 161.5t7.5 175.5q11 110 39.5 208t79 185.5t118.5 150t164 99t210 36.5q100 0 180 -25.5t133.5 -71t91.5 -108.5 t54.5 -138.5t22 -160.5t-6.5 -175q-12 -112 -39.5 -209.5t-77.5 -186.5t-118 -151.5t-166.5 -99.5t-217.5 -37z" />
<glyph unicode="&#xd4;" horiz-adv-x="1257" d="M772 1729l80 14q122 -95 260 -230l-39 -51q-20 11 -64 36.5t-72 42t-64.5 36.5t-63.5 33q-108 -45 -311 -154l-29 51q124 104 303 222zM627 84q86 0 151 27t109 73.5t75 121.5t48.5 159t29.5 199q16 134 11 241t-33.5 181.5t-95.5 114.5t-174 40q-86 0 -150.5 -26.5 t-108 -72.5t-73.5 -121t-47 -158.5t-29 -198.5q-17 -134 -12.5 -241.5t32 -182.5t94 -115.5t173.5 -40.5zM614 -20q-100 0 -179.5 25.5t-132.5 71.5t-90 110t-52.5 140t-20 161.5t7.5 175.5q11 110 39.5 208t79 185.5t118.5 150t164 99t210 36.5q100 0 180 -25.5t133.5 -71 t91.5 -108.5t54.5 -138.5t22 -160.5t-6.5 -175q-12 -112 -39.5 -209.5t-77.5 -186.5t-118 -151.5t-166.5 -99.5t-217.5 -37z" />
<glyph unicode="&#xd5;" horiz-adv-x="1257" d="M621 1548l-119 -96l-43 29q11 13 33 40.5t33.5 40t31.5 32t42.5 33.5t51.5 26q47 -8 171 -47t165 -50l123 103l37 -19q-11 -24 -22.5 -44t-20 -34.5t-22 -29t-19 -21.5t-21 -18t-18.5 -13.5t-20 -13.5t-19 -12q-160 5 -364 94zM627 84q86 0 151 27t109 73.5t75 121.5 t48.5 159t29.5 199q16 134 11 241t-33.5 181.5t-95.5 114.5t-174 40q-86 0 -150.5 -26.5t-108 -72.5t-73.5 -121t-47 -158.5t-29 -198.5q-17 -134 -12.5 -241.5t32 -182.5t94 -115.5t173.5 -40.5zM614 -20q-100 0 -179.5 25.5t-132.5 71.5t-90 110t-52.5 140t-20 161.5 t7.5 175.5q11 110 39.5 208t79 185.5t118.5 150t164 99t210 36.5q100 0 180 -25.5t133.5 -71t91.5 -108.5t54.5 -138.5t22 -160.5t-6.5 -175q-12 -112 -39.5 -209.5t-77.5 -186.5t-118 -151.5t-166.5 -99.5t-217.5 -37z" />
<glyph unicode="&#xd6;" horiz-adv-x="1257" d="M590 1468q-47 0 -72.5 27.5t-25.5 69.5q0 47 30.5 78.5t83.5 31.5q45 0 72 -29t27 -67q0 -51 -30.5 -81t-84.5 -30zM1012 1468q-47 0 -73 27.5t-26 69.5q0 46 31 78t84 32q45 0 71.5 -29t26.5 -67q0 -51 -30 -81t-84 -30zM627 84q86 0 151 27t109 73.5t75 121.5t48.5 159 t29.5 199q16 134 11 241t-33.5 181.5t-95.5 114.5t-174 40q-86 0 -150.5 -26.5t-108 -72.5t-73.5 -121t-47 -158.5t-29 -198.5q-17 -134 -12.5 -241.5t32 -182.5t94 -115.5t173.5 -40.5zM614 -20q-100 0 -179.5 25.5t-132.5 71.5t-90 110t-52.5 140t-20 161.5t7.5 175.5 q11 110 39.5 208t79 185.5t118.5 150t164 99t210 36.5q100 0 180 -25.5t133.5 -71t91.5 -108.5t54.5 -138.5t22 -160.5t-6.5 -175q-12 -112 -39.5 -209.5t-77.5 -186.5t-118 -151.5t-166.5 -99.5t-217.5 -37z" />
<glyph unicode="&#xd7;" horiz-adv-x="991" d="M154 373l335 309l-251 293q21 57 79 69l248 -290l330 307q25 -10 44.5 -35.5t25.5 -54.5l-328 -297l266 -299q-43 -49 -100 -56l-246 283l-299 -283q-30 1 -59 17t-45 37z" />
<glyph unicode="&#xd8;" horiz-adv-x="1257" d="M614 -20q-158 0 -266 63l-108 -168q-64 -15 -125 -12l157 241q-168 176 -125 560q11 110 39.5 208t79 185.5t118.5 150t164 99t210 36.5q167 0 274 -69l90 137q48 27 133 31l-149 -230q166 -177 127 -548q-12 -112 -39.5 -209.5t-77.5 -186.5t-118 -151.5t-166.5 -99.5 t-217.5 -37zM330 664q-33 -304 24 -431l611 938q-76 70 -217 70q-86 0 -151.5 -26.5t-110.5 -73t-76.5 -120.5t-49.5 -159t-30 -198zM627 84q107 0 183 39t124 118t74.5 179.5t42.5 243.5q29 290 -27 421l-608 -938q75 -63 211 -63z" />
<glyph unicode="&#xd9;" horiz-adv-x="1347" d="M983 1278l23 45h487l-14 -43l-37 -23l-162 -34l-82 -754q-9 -81 -30.5 -150t-62 -133t-97.5 -108.5t-142 -71t-190 -26.5q-258 0 -359.5 123.5t-72.5 390.5l80 729l-166 32l-6 23l22 45h539l-15 -43l-36 -23l-162 -34l-84 -756q-20 -196 46 -280.5t247 -84.5 q165 0 252.5 86t109.5 273l84 762l-166 32zM1102 1509l-23 -49q-177 64 -456 137q23 77 94 164q239 -171 385 -252z" />
<glyph unicode="&#xda;" horiz-adv-x="1347" d="M983 1278l23 45h487l-14 -43l-37 -23l-162 -34l-82 -754q-9 -81 -30.5 -150t-62 -133t-97.5 -108.5t-142 -71t-190 -26.5q-258 0 -359.5 123.5t-72.5 390.5l80 729l-166 32l-6 23l22 45h539l-15 -43l-36 -23l-162 -34l-84 -756q-20 -196 46 -280.5t247 -84.5 q165 0 252.5 86t109.5 273l84 762l-166 32zM754 1458l-19 51q27 13 54.5 28t48.5 26t52.5 30t47 28t53.5 33t50 31.5t58 36.5t58 37q57 -89 66 -176q-327 -78 -469 -125z" />
<glyph unicode="&#xdb;" horiz-adv-x="1347" d="M983 1278l23 45h487l-14 -43l-37 -23l-162 -34l-82 -754q-9 -81 -30.5 -150t-62 -133t-97.5 -108.5t-142 -71t-190 -26.5q-258 0 -359.5 123.5t-72.5 390.5l80 729l-166 32l-6 23l22 45h539l-15 -43l-36 -23l-162 -34l-84 -756q-20 -196 46 -280.5t247 -84.5 q165 0 252.5 86t109.5 273l84 762l-166 32zM848 1729l80 14q122 -95 260 -230l-39 -51q-20 11 -64 36.5t-72 42t-64.5 36.5t-63.5 33q-112 -47 -312 -154l-28 51q124 104 303 222z" />
<glyph unicode="&#xdc;" horiz-adv-x="1347" d="M983 1278l23 45h487l-14 -43l-37 -23l-162 -34l-82 -754q-9 -81 -30.5 -150t-62 -133t-97.5 -108.5t-142 -71t-190 -26.5q-258 0 -359.5 123.5t-72.5 390.5l80 729l-166 32l-6 23l22 45h539l-15 -43l-36 -23l-162 -34l-84 -756q-20 -196 46 -280.5t247 -84.5 q165 0 252.5 86t109.5 273l84 762l-166 32zM1087 1468q-47 0 -72.5 27.5t-25.5 69.5q0 46 31 78t84 32q45 0 71.5 -29t26.5 -67q0 -51 -30 -81t-85 -30zM666 1468q-47 0 -73 27.5t-26 69.5q0 46 31 78t84 32q45 0 71.5 -29t26.5 -67q0 -51 -30 -81t-84 -30z" />
<glyph unicode="&#xdd;" horiz-adv-x="1064" d="M598 1323l-10 -41l-19 -22l-178 -48l195 -440l57 -145l102 151l295 412l-206 65l-9 27l23 41h375l-17 -66q-83 -126 -283.5 -385.5t-240.5 -312.5l-49 -461l172 -30l6 -23l-23 -45h-540l14 43l37 23l164 34l49 443l-299 671l-86 58v24l18 27h453zM631 1458l-19 51 q27 13 54.5 28t48.5 26t52.5 30t47 28t53.5 33t50 31.5t58 36.5t58 37q57 -89 66 -176q-327 -78 -469 -125z" />
<glyph unicode="&#xde;" horiz-adv-x="1173" d="M748 1323l-15 -43l-37 -23l-159 -34l-19 -176h250q230 0 326 -100t80 -277q-17 -184 -137.5 -278.5t-323.5 -94.5h-271l-18 -199l168 -30l6 -23l-23 -45h-540l14 43l37 23l160 34l114 1123l-167 32l-7 23l23 45h539zM745 948h-237l-55 -557h258q63 0 110.5 13.5t77.5 36 t50 58.5t29.5 74.5t14.5 90.5q15 140 -39.5 212t-208.5 72z" />
<glyph unicode="&#xdf;" horiz-adv-x="1064" d="M158 956l149 19q20 108 65 190.5t105.5 130.5t128.5 71.5t142 23.5q52 0 101.5 -11t93 -34t74 -55.5t45 -79t7.5 -101.5q-6 -46 -34.5 -86.5t-64.5 -72t-72 -63.5t-63 -74t-32 -89t25 -97t75 -95.5t89 -95t70 -114t15 -133.5q-14 -91 -105 -150.5t-233 -59.5 q-82 0 -147 20t-96 59q-3 30 4 99t20 114l39 -12l37 -160q65 -28 156 -28q77 0 118 26t54 86q8 39 -3.5 78.5t-36.5 73.5t-57.5 68t-65.5 68.5t-60 69t-42.5 75t-11.5 81.5q3 39 22.5 72t47 55.5t59.5 50.5t60 55t49.5 70.5t27.5 96.5q9 97 -39 149.5t-153 52.5 q-52 0 -88.5 -13t-70 -48.5t-55.5 -105.5t-34 -177l-80 -708q-23 -200 -54.5 -360.5t-62.5 -221.5q-38 -39 -105.5 -62.5t-137.5 -23.5q-57 0 -107 15t-73 36l-9 64q252 -7 332 22q8 44 21 177t27 290.5t18 200.5l51 492l-166 6q9 39 31 73z" />
<glyph unicode="&#xe0;" horiz-adv-x="1034" d="M621 1014q150 0 235 -88l64 73l41 -16l-123 -895l231 -4l-18 -41l-35 -25q-123 -30 -250 -30q-60 0 -107 18l27 174q-54 -97 -118.5 -148.5t-155.5 -51.5q-75 0 -129 35t-82.5 91.5t-41 131t-10 149t16.5 150.5q39 217 160.5 347t294.5 130zM651 197q33 48 47 82v2 l76 540q6 43 -29 62q-50 28 -127 28q-122 0 -191 -100.5t-93 -294.5q-13 -121 -13 -215t33.5 -150.5t102.5 -56.5q66 0 109.5 27.5t84.5 75.5zM846 1135l-43 -37q-161 140 -367 282q51 71 148 133q39 -56 125 -183.5t137 -194.5z" />
<glyph unicode="&#xe1;" horiz-adv-x="1034" d="M621 1014q150 0 235 -88l64 73l41 -16l-123 -895l231 -4l-18 -41l-35 -25q-123 -30 -250 -30q-60 0 -107 18l27 174q-54 -97 -118.5 -148.5t-155.5 -51.5q-75 0 -129 35t-82.5 91.5t-41 131t-10 149t16.5 150.5q39 217 160.5 347t294.5 130zM651 197q33 48 47 82v2 l76 540q6 43 -29 62q-50 28 -127 28q-122 0 -191 -100.5t-93 -294.5q-13 -121 -13 -215t33.5 -150.5t102.5 -56.5q66 0 109.5 27.5t84.5 75.5zM623 1104l-33 39q66 61 187 187.5t184 187.5q34 -28 66 -68.5t48 -81.5q-235 -124 -452 -264z" />
<glyph unicode="&#xe2;" horiz-adv-x="1034" d="M621 1014q150 0 235 -88l64 73l41 -16l-123 -895l231 -4l-18 -41l-35 -25q-123 -30 -250 -30q-60 0 -107 18l27 174q-54 -97 -118.5 -148.5t-155.5 -51.5q-75 0 -129 35t-82.5 91.5t-41 131t-10 149t16.5 150.5q39 217 160.5 347t294.5 130zM651 197q33 48 47 82v2 l76 540q6 43 -29 62q-50 28 -127 28q-122 0 -191 -100.5t-93 -294.5q-13 -121 -13 -215t33.5 -150.5t102.5 -56.5q66 0 109.5 27.5t84.5 75.5zM651 1456l105 25q34 -42 68 -90t78.5 -113t70.5 -102l-55 -48l-216 213l-258 -211l-38 41q170 216 245 285z" />
<glyph unicode="&#xe3;" horiz-adv-x="1034" d="M621 1014q150 0 235 -88l64 73l41 -16l-123 -895l231 -4l-18 -41l-35 -25q-123 -30 -250 -30q-60 0 -107 18l27 174q-54 -97 -118.5 -148.5t-155.5 -51.5q-75 0 -129 35t-82.5 91.5t-41 131t-10 149t16.5 150.5q39 217 160.5 347t294.5 130zM651 197q33 48 47 82v2 l76 540q6 43 -29 62q-50 28 -127 28q-122 0 -191 -100.5t-93 -294.5q-13 -121 -13 -215t33.5 -150.5t102.5 -56.5q66 0 109.5 27.5t84.5 75.5zM539 1278l-113 -92l-43 28q11 13 33 40.5t33.5 40t31.5 32t42.5 33.5t51.5 26q46 -8 150.5 -44t151.5 -48l116 99l37 -19 q-11 -24 -22.5 -44t-20 -34.5t-22 -29t-19 -21.5t-21 -18t-18.5 -13.5t-20 -13.5t-19 -12q-60 2 -124.5 17.5t-103.5 30.5t-101 42z" />
<glyph unicode="&#xe4;" horiz-adv-x="1034" d="M621 1014q150 0 235 -88l64 73l41 -16l-123 -895l231 -4l-18 -41l-35 -25q-123 -30 -250 -30q-60 0 -107 18l27 174q-54 -97 -118.5 -148.5t-155.5 -51.5q-75 0 -129 35t-82.5 91.5t-41 131t-10 149t16.5 150.5q39 217 160.5 347t294.5 130zM651 197q33 48 47 82v2 l76 540q6 43 -29 62q-50 28 -127 28q-122 0 -191 -100.5t-93 -294.5q-13 -121 -13 -215t33.5 -150.5t102.5 -56.5q66 0 109.5 27.5t84.5 75.5zM885 1202q-48 0 -73.5 27t-25.5 69q0 47 31 79t84 32q45 0 71.5 -29t26.5 -67q0 -51 -30 -81t-84 -30zM483 1202q-47 0 -72.5 27 t-25.5 69q0 47 31 79t84 32q45 0 71.5 -29t26.5 -67q0 -51 -30 -81t-85 -30z" />
<glyph unicode="&#xe5;" horiz-adv-x="1034" d="M621 1014q150 0 235 -88l64 73l41 -16l-123 -895l231 -4l-18 -41l-35 -25q-123 -30 -250 -30q-60 0 -107 18l27 174q-54 -97 -118.5 -148.5t-155.5 -51.5q-75 0 -129 35t-82.5 91.5t-41 131t-10 149t16.5 150.5q39 217 160.5 347t294.5 130zM651 197q33 48 47 82v2 l76 540q6 43 -29 62q-50 28 -127 28q-122 0 -191 -100.5t-93 -294.5q-13 -121 -13 -215t33.5 -150.5t102.5 -56.5q66 0 109.5 27.5t84.5 75.5zM737 1530q98 0 155 -58t48 -149q-9 -93 -75.5 -150t-174.5 -57q-99 0 -153 59.5t-45 147.5q7 90 76.5 148.5t168.5 58.5z M825 1323q12 139 -94 139q-62 0 -91.5 -34t-37.5 -105q-6 -67 18.5 -103t75.5 -36q63 0 92 34t37 105z" />
<glyph unicode="&#xe6;" horiz-adv-x="1431" d="M145 229q25 244 385 267l185 10l10 84q19 178 -17.5 253t-140.5 75q-30 0 -65 -7q-54 -49 -135 -161.5t-115 -147.5l-35 37q2 11 8 44.5t9 49t8.5 41t11 44t12.5 34.5q45 61 150.5 111.5t204.5 50.5q184 0 233 -152q114 152 305 152q73 0 128 -23t84.5 -61t42 -82.5 t7.5 -91.5q-18 -168 -144.5 -234.5t-406.5 -72.5q-8 -75 -2 -140t23.5 -114t61.5 -77t112 -28q107 0 272 96l15 -24l-9 -45q-84 -70 -166 -103.5t-176 -33.5q-191 0 -245 155q-84 -87 -169 -121t-188 -34q-129 0 -197.5 66t-56.5 183zM1139 930q-108 0 -168.5 -104.5 t-93.5 -311.5q74 4 121 9.5t93 15.5t72.5 25t49 39.5t33.5 58.5t16 81q5 32 1.5 65.5t-13 60.5t-38 44t-73.5 17zM465 78q78 0 141 33t76 90l27 237l-148 -8q-126 -8 -179.5 -58.5t-62.5 -131.5q-9 -79 29 -120.5t117 -41.5z" />
<glyph unicode="&#xe7;" horiz-adv-x="874" d="M885 846q-4 -61 -36 -145.5t-69 -147.5h-61l8 340q-49 27 -102 27q-85 0 -147.5 -48t-95.5 -130t-48 -175t-15 -200q0 -141 46 -205t163 -64q66 0 130 22t151 83l16 -25l-6 -45q-110 -120 -284 -147l-19 -86q100 -3 151 -47.5t42 -114.5q-7 -70 -79 -116t-175 -46 q-69 0 -119.5 20.5t-69.5 49.5l2 26l23 17q21 -18 61 -29.5t78 -11.5q67 0 98 23.5t37 74.5q14 102 -86 102q-35 0 -53 -2l8 136q-284 20 -284 391q0 291 131.5 466t353.5 175q105 0 177.5 -55t72.5 -113z" />
<glyph unicode="&#xe8;" horiz-adv-x="884" d="M874 756q-18 -169 -147 -231.5t-401 -51.5q-9 -78 -5 -147t19.5 -120.5t57.5 -81.5t108 -30q67 0 133 21t152 71l14 -24l-8 -45q-172 -137 -355 -137q-337 0 -282 518q25 236 144.5 376t307.5 140q73 0 128 -23t84.5 -61t42 -82.5t7.5 -91.5zM592 930q-104 0 -165 -101 t-95 -299q74 1 121 4t92.5 11t71.5 22t48.5 38t33.5 57.5t16 80.5q5 32 1.5 65.5t-13 60.5t-38 44t-73.5 17zM809 1135l-43 -37q-161 140 -367 282q51 71 148 133q39 -56 125 -183.5t137 -194.5z" />
<glyph unicode="&#xe9;" horiz-adv-x="884" d="M874 756q-18 -169 -147 -231.5t-401 -51.5q-9 -78 -5 -147t19.5 -120.5t57.5 -81.5t108 -30q67 0 133 21t152 71l14 -24l-8 -45q-172 -137 -355 -137q-337 0 -282 518q25 236 144.5 376t307.5 140q73 0 128 -23t84.5 -61t42 -82.5t7.5 -91.5zM592 930q-104 0 -165 -101 t-95 -299q74 1 121 4t92.5 11t71.5 22t48.5 38t33.5 57.5t16 80.5q5 32 1.5 65.5t-13 60.5t-38 44t-73.5 17zM586 1104l-33 39q66 61 187 187.5t184 187.5q34 -28 66 -68.5t48 -81.5q-235 -124 -452 -264z" />
<glyph unicode="&#xea;" horiz-adv-x="884" d="M874 756q-18 -169 -147 -231.5t-401 -51.5q-9 -78 -5 -147t19.5 -120.5t57.5 -81.5t108 -30q67 0 133 21t152 71l14 -24l-8 -45q-172 -137 -355 -137q-337 0 -282 518q25 236 144.5 376t307.5 140q73 0 128 -23t84.5 -61t42 -82.5t7.5 -91.5zM592 930q-104 0 -165 -101 t-95 -299q74 1 121 4t92.5 11t71.5 22t48.5 38t33.5 57.5t16 80.5q5 32 1.5 65.5t-13 60.5t-38 44t-73.5 17zM614 1456l105 25q34 -42 68 -90t78.5 -113t70.5 -102l-55 -48l-215 213l-258 -211l-39 41q170 216 245 285z" />
<glyph unicode="&#xeb;" horiz-adv-x="884" d="M874 756q-18 -169 -147 -231.5t-401 -51.5q-9 -78 -5 -147t19.5 -120.5t57.5 -81.5t108 -30q67 0 133 21t152 71l14 -24l-8 -45q-172 -137 -355 -137q-337 0 -282 518q25 236 144.5 376t307.5 140q73 0 128 -23t84.5 -61t42 -82.5t7.5 -91.5zM592 930q-104 0 -165 -101 t-95 -299q74 1 121 4t92.5 11t71.5 22t48.5 38t33.5 57.5t16 80.5q5 32 1.5 65.5t-13 60.5t-38 44t-73.5 17zM848 1202q-47 0 -72.5 27t-25.5 69q0 47 30.5 79t83.5 32q45 0 72 -29t27 -67q0 -51 -30.5 -81t-84.5 -30zM446 1202q-47 0 -72.5 27t-25.5 69q0 47 31 79t84 32 q45 0 71.5 -29t26.5 -67q0 -51 -30.5 -81t-84.5 -30z" />
<glyph unicode="&#xec;" horiz-adv-x="573" d="M211 6l102 866l-198 29l6 45q98 29 401 55l-30 -69l-103 -844l232 -4l-19 -41l-35 -25q-123 -30 -250 -30q-59 0 -106 18zM614 1135l-43 -37q-164 144 -366 282q51 73 147 133q39 -56 125 -183.5t137 -194.5z" />
<glyph unicode="&#xed;" horiz-adv-x="573" d="M211 6l102 866l-198 29l6 45q98 29 401 55l-30 -69l-103 -844l232 -4l-19 -41l-35 -25q-123 -30 -250 -30q-59 0 -106 18zM391 1104l-33 39q66 61 187 187.5t184 187.5q81 -66 115 -150q-241 -126 -453 -264z" />
<glyph unicode="&#xee;" horiz-adv-x="573" d="M211 6l102 866l-198 29l6 45q98 29 401 55l-30 -69l-103 -844l232 -4l-19 -41l-35 -25q-123 -30 -250 -30q-59 0 -106 18zM420 1456l104 25q34 -42 68 -90t78.5 -113t70.5 -102l-55 -48l-215 213l-258 -211l-39 41q167 212 246 285z" />
<glyph unicode="&#xef;" horiz-adv-x="573" d="M211 6l102 866l-198 29l6 45q98 29 401 55l-30 -69l-103 -844l232 -4l-19 -41l-35 -25q-123 -30 -250 -30q-59 0 -106 18zM653 1202q-47 0 -72.5 27t-25.5 69q0 47 31 79t84 32q45 0 71.5 -29t26.5 -67q0 -51 -30 -81t-85 -30zM252 1202q-47 0 -72.5 27t-25.5 69 q0 47 30.5 79t83.5 32q45 0 72 -29t27 -67q0 -51 -30.5 -81t-84.5 -30z" />
<glyph unicode="&#xf0;" horiz-adv-x="978" d="M430 1116l197 84q-69 93 -183 195q24 53 113 108q132 -102 217 -239l203 88q4 -37 -12.5 -69t-34.5 -46l-113 -49q76 -150 102.5 -318t8.5 -329q-12 -103 -34 -186.5t-49 -141t-62.5 -100.5t-71 -68t-77.5 -40t-78.5 -20t-78.5 -5q-182 0 -268.5 126t-63.5 326 q22 203 149 337t292 134q58 0 107 -24t79 -64q-15 118 -49 211q-18 46 -49 102l-273 -116q-11 42 29 104zM766 498q12 99 12 180q-3 42 -20 65q-52 62 -158 62q-247 0 -285 -342q-4 -43 -6 -76t-1 -76t6.5 -74t18 -63.5t31.5 -53t50 -33.5t71 -13q82 0 133.5 34.5t88.5 128 t59 261.5z" />
<glyph unicode="&#xf1;" horiz-adv-x="1114" d="M756 6l75 639q13 93 8.5 148t-36.5 77.5t-107 22.5q-83 0 -150.5 -42.5t-80.5 -123.5l-76 -639l232 -4l-19 -41l-35 -25q-123 -30 -250 -30q-59 0 -106 18l102 866l-204 29l6 45q79 26 383 55l-27 -155q58 79 143 123.5t172 44.5q110 0 166 -57.5t56 -186.5 q0 -67 -72 -682l229 -4l-18 -41l-35 -25q-123 -30 -250 -30q-60 0 -106 18zM567 1278l-112 -92l-43 28q11 13 33 40.5t33.5 40t31.5 32t42.5 33.5t51.5 26q46 -8 150 -44t151 -48l117 99l37 -19q-11 -24 -22.5 -44t-20 -34.5t-22 -29t-19 -21.5t-21 -18t-18.5 -13.5 t-20 -13.5t-19 -12q-60 2 -124.5 17.5t-104.5 30.5t-101 42z" />
<glyph unicode="&#xf2;" horiz-adv-x="1005" d="M811 1135l-43 -37q-161 140 -367 282q51 71 148 133q39 -56 125 -183.5t137 -194.5zM614 1014q112 0 188.5 -38t113 -106.5t49 -164t-3.5 -209.5q-13 -108 -47 -199.5t-89 -163.5t-137.5 -112.5t-183.5 -40.5q-107 0 -182.5 38t-114.5 106.5t-53 164t2 209.5 q17 143 74.5 258.5t157.5 186.5t226 71zM604 922q-48 0 -86.5 -15t-66 -44.5t-47.5 -65.5t-33.5 -87t-22 -100t-14.5 -112q-4 -46 -6 -71t-4.5 -67t-0.5 -66.5t6 -59t13 -55t23.5 -43.5t35 -35t49 -20.5t64.5 -8.5q57 0 101 22.5t72 59.5t47.5 94t29 114.5t16.5 133.5 q15 180 9 245q-14 143 -117 172q-30 9 -68 9z" />
<glyph unicode="&#xf3;" horiz-adv-x="1005" d="M588 1104l-33 39q66 61 187 187.5t184 187.5q34 -28 66 -68.5t48 -81.5q-235 -124 -452 -264zM614 1014q112 0 188.5 -38t113 -106.5t49 -164t-3.5 -209.5q-13 -108 -47 -199.5t-89 -163.5t-137.5 -112.5t-183.5 -40.5q-107 0 -182.5 38t-114.5 106.5t-53 164t2 209.5 q17 143 74.5 258.5t157.5 186.5t226 71zM604 922q-48 0 -86.5 -15t-66 -44.5t-47.5 -65.5t-33.5 -87t-22 -100t-14.5 -112q-4 -46 -6 -71t-4.5 -67t-0.5 -66.5t6 -59t13 -55t23.5 -43.5t35 -35t49 -20.5t64.5 -8.5q57 0 101 22.5t72 59.5t47.5 94t29 114.5t16.5 133.5 q15 180 9 245q-14 143 -117 172q-30 9 -68 9z" />
<glyph unicode="&#xf4;" horiz-adv-x="1005" d="M616 1456l105 25q34 -42 68 -90t78.5 -113t70.5 -102l-55 -48l-215 213l-258 -211l-39 41q170 216 245 285zM614 1014q112 0 188.5 -38t113 -106.5t49 -164t-3.5 -209.5q-13 -108 -47 -199.5t-89 -163.5t-137.5 -112.5t-183.5 -40.5q-107 0 -182.5 38t-114.5 106.5 t-53 164t2 209.5q17 143 74.5 258.5t157.5 186.5t226 71zM604 922q-48 0 -86.5 -15t-66 -44.5t-47.5 -65.5t-33.5 -87t-22 -100t-14.5 -112q-4 -46 -6 -71t-4.5 -67t-0.5 -66.5t6 -59t13 -55t23.5 -43.5t35 -35t49 -20.5t64.5 -8.5q57 0 101 22.5t72 59.5t47.5 94t29 114.5 t16.5 133.5q15 180 9 245q-14 143 -117 172q-30 9 -68 9z" />
<glyph unicode="&#xf5;" horiz-adv-x="1005" d="M504 1278l-113 -92l-43 28q10 12 32.5 40t34 40.5t32 32t43 33.5t51.5 26q46 -8 150 -44t151 -48l116 99l37 -19q-10 -21 -19 -39t-19.5 -33t-18 -26t-18.5 -22l-17 -17t-18.5 -15t-16 -12t-17.5 -11.5t-17 -10.5q-60 2 -124.5 17.5t-104.5 30.5t-101 42zM614 1014 q112 0 188.5 -38t113 -106.5t49 -164t-3.5 -209.5q-13 -108 -47 -199.5t-89 -163.5t-137.5 -112.5t-183.5 -40.5q-107 0 -182.5 38t-114.5 106.5t-53 164t2 209.5q17 143 74.5 258.5t157.5 186.5t226 71zM604 922q-48 0 -86.5 -15t-66 -44.5t-47.5 -65.5t-33.5 -87t-22 -100 t-14.5 -112q-4 -46 -6 -71t-4.5 -67t-0.5 -66.5t6 -59t13 -55t23.5 -43.5t35 -35t49 -20.5t64.5 -8.5q57 0 101 22.5t72 59.5t47.5 94t29 114.5t16.5 133.5q15 180 9 245q-14 143 -117 172q-30 9 -68 9z" />
<glyph unicode="&#xf6;" horiz-adv-x="1005" d="M449 1202q-48 0 -73.5 27t-25.5 69q0 47 31 79t84 32q45 0 71.5 -29t26.5 -67q0 -51 -30 -81t-84 -30zM850 1202q-47 0 -72.5 27t-25.5 69q0 47 30.5 79t83.5 32q45 0 72 -29t27 -67q0 -51 -30.5 -81t-84.5 -30zM614 1014q112 0 188.5 -38t113 -106.5t49 -164 t-3.5 -209.5q-13 -108 -47 -199.5t-89 -163.5t-137.5 -112.5t-183.5 -40.5q-107 0 -182.5 38t-114.5 106.5t-53 164t2 209.5q17 143 74.5 258.5t157.5 186.5t226 71zM604 922q-48 0 -86.5 -15t-66 -44.5t-47.5 -65.5t-33.5 -87t-22 -100t-14.5 -112q-4 -46 -6 -71t-4.5 -67 t-0.5 -66.5t6 -59t13 -55t23.5 -43.5t35 -35t49 -20.5t64.5 -8.5q57 0 101 22.5t72 59.5t47.5 94t29 114.5t16.5 133.5q15 180 9 245q-14 143 -117 172q-30 9 -68 9z" />
<glyph unicode="&#xf7;" horiz-adv-x="991" d="M182 715h824q-4 -26 -28.5 -56.5t-49.5 -44.5h-793q18 68 47 101zM586 911q-47 0 -73 27.5t-26 69.5q0 49 30.5 81.5t84.5 32.5q45 0 72.5 -29.5t27.5 -68.5q0 -52 -30 -82.5t-86 -30.5zM514 225q-47 0 -72.5 27.5t-25.5 69.5q0 49 30 81.5t84 32.5q45 0 73 -29.5 t28 -68.5q0 -52 -30.5 -82.5t-86.5 -30.5z" />
<glyph unicode="&#xf8;" horiz-adv-x="1017" d="M621 1014q94 0 170 -29l92 152q37 23 131 41l-148 -240q144 -124 107 -442q-13 -108 -48 -199.5t-91 -163.5t-139 -112.5t-185 -40.5q-117 0 -199 45l-110 -183q-35 -12 -117 -16l156 256q-116 133 -84 416q17 143 76.5 258.5t161 186.5t227.5 71zM803 496q8 87 7.5 175 t-19.5 140l-418 -686q47 -53 147 -53q254 0 283 424zM610 922q-57 0 -103 -22.5t-76.5 -60t-52.5 -93t-34.5 -115t-19.5 -133.5q-18 -192 0 -277l407 668q-48 33 -121 33z" />
<glyph unicode="&#xf9;" horiz-adv-x="1087" d="M485 1001l-84 -682q-7 -68 -7.5 -118t27 -79.5t87.5 -29.5q93 0 164.5 61.5t87.5 143.5v-8l67 569l-209 29l7 49q101 34 385 55l-107 -901l240 -6l-19 -41l-34 -25q-123 -30 -250 -30q-68 0 -115 18l25 182q-38 -74 -93 -122.5t-106 -67t-102 -18.5q-50 0 -89 14.5 t-63 38.5t-39 57.5t-21 67t-6 71.5q0 106 68 643l-205 29l6 45q78 26 385 55zM848 1135l-43 -37q-161 140 -367 282q51 71 148 133q39 -56 125 -183.5t137 -194.5z" />
<glyph unicode="&#xfa;" horiz-adv-x="1087" d="M485 1001l-84 -682q-7 -68 -7.5 -118t27 -79.5t87.5 -29.5q93 0 164.5 61.5t87.5 143.5v-8l67 569l-209 29l7 49q101 34 385 55l-107 -901l240 -6l-19 -41l-34 -25q-123 -30 -250 -30q-68 0 -115 18l25 182q-38 -74 -93 -122.5t-106 -67t-102 -18.5q-50 0 -89 14.5 t-63 38.5t-39 57.5t-21 67t-6 71.5q0 106 68 643l-205 29l6 45q78 26 385 55zM625 1104l-33 39q66 61 187 187.5t184 187.5q34 -28 66 -68.5t48 -81.5q-235 -124 -452 -264z" />
<glyph unicode="&#xfb;" horiz-adv-x="1087" d="M485 1001l-84 -682q-7 -68 -7.5 -118t27 -79.5t87.5 -29.5q93 0 164.5 61.5t87.5 143.5v-8l67 569l-209 29l7 49q101 34 385 55l-107 -901l240 -6l-19 -41l-34 -25q-123 -30 -250 -30q-68 0 -115 18l25 182q-38 -74 -93 -122.5t-106 -67t-102 -18.5q-50 0 -89 14.5 t-63 38.5t-39 57.5t-21 67t-6 71.5q0 106 68 643l-205 29l6 45q78 26 385 55zM653 1456l105 25q34 -42 68 -90t78.5 -113t70.5 -102l-55 -48l-215 213l-259 -211l-38 41q170 216 245 285z" />
<glyph unicode="&#xfc;" horiz-adv-x="1087" d="M485 1001l-84 -682q-7 -68 -7.5 -118t27 -79.5t87.5 -29.5q93 0 164.5 61.5t87.5 143.5v-8l67 569l-209 29l7 49q101 34 385 55l-107 -901l240 -6l-19 -41l-34 -25q-123 -30 -250 -30q-68 0 -115 18l25 182q-38 -74 -93 -122.5t-106 -67t-102 -18.5q-50 0 -89 14.5 t-63 38.5t-39 57.5t-21 67t-6 71.5q0 106 68 643l-205 29l6 45q78 26 385 55zM887 1202q-48 0 -73.5 27t-25.5 69q0 47 31 79t84 32q45 0 71.5 -29t26.5 -67q0 -51 -30 -81t-84 -30zM485 1202q-47 0 -72.5 27t-25.5 69q0 47 31 79t84 32q45 0 71.5 -29t26.5 -67 q0 -51 -30 -81t-85 -30z" />
<glyph unicode="&#xfd;" horiz-adv-x="1040" d="M487 1001q-45 -209 -69.5 -417.5t-24.5 -325.5q0 -99 22.5 -134.5t82.5 -35.5q80 0 147 61t109 144q28 186 75 567l-204 29l6 49q51 18 170.5 33t208.5 22q-105 -854 -154 -1038q-17 -61 -32.5 -103.5t-40 -87.5t-60 -80t-82.5 -63q-51 -29 -115.5 -42t-113.5 -13 q-94 0 -179.5 23t-123.5 71v86q132 -59 290 -59q117 0 213 43q70 51 129 471q-54 -105 -126 -163t-185 -58q-108 0 -152.5 79.5t-44.5 243.5q0 91 15 255t41 319l-191 24l6 45q73 25 383 55zM627 1104l-33 39q66 61 187 187.5t184 187.5q34 -28 66 -68.5t48 -81.5 q-235 -124 -452 -264z" />
<glyph unicode="&#xfe;" horiz-adv-x="1015" d="M514 -20q-121 0 -170 59l-41 -348l221 -6l-18 -41l-35 -25q-127 -31 -250 -31q-47 0 -96 19l207 1726l-201 29l6 45q98 29 402 55l-35 -78l-66 -553q46 82 122 132.5t165 50.5q61 0 107.5 -22.5t74 -63t44.5 -92.5t21 -115.5t0.5 -127t-14.5 -132.5 q-34 -218 -153.5 -349.5t-290.5 -131.5zM473 809q-36 -46 -49 -88l-66 -561q-3 -46 25 -62q43 -24 119 -24q56 0 100 20.5t75 55t54 87.5t37 110.5t25 131.5q59 420 -134 420q-110 0 -186 -90z" />
<glyph unicode="&#xff;" horiz-adv-x="1040" d="M487 1001q-45 -209 -69.5 -417.5t-24.5 -325.5q0 -99 22.5 -134.5t82.5 -35.5q80 0 147 61t109 144q28 186 75 567l-204 29l6 49q51 18 170.5 33t208.5 22q-105 -854 -154 -1038q-17 -61 -32.5 -103.5t-40 -87.5t-60 -80t-82.5 -63q-51 -29 -115.5 -42t-113.5 -13 q-94 0 -179.5 23t-123.5 71v86q132 -59 290 -59q117 0 213 43q70 51 129 471q-54 -105 -126 -163t-185 -58q-108 0 -152.5 79.5t-44.5 243.5q0 91 15 255t41 319l-191 24l6 45q73 25 383 55zM889 1202q-47 0 -72.5 27t-25.5 69q0 47 30.5 79t83.5 32q45 0 72 -29t27 -67 q0 -51 -30 -81t-85 -30zM487 1202q-47 0 -72.5 27t-25.5 69q0 47 31 79t84 32q45 0 71.5 -29t26.5 -67q0 -51 -30 -81t-85 -30z" />
<glyph unicode="&#x100;" horiz-adv-x="1290" d="M471 41l-22 -41h-463l8 41l22 22l97 46l442 845q47 89 115 195.5t108 153.5l70 55q69 -227 176 -650.5t158 -601.5l102 -55v-24l-18 -27h-494l8 41l23 22l178 50l-82 348h-493l-175 -346l232 -47zM788 934l-40 217l-97 -205l-200 -397h428zM602 1610h569 q-4 -26 -28.5 -58.5t-48.5 -46.5h-539q19 73 47 105z" />
<glyph unicode="&#x101;" horiz-adv-x="1034" d="M621 1014q150 0 235 -88l64 73l41 -16l-123 -895l231 -4l-18 -41l-35 -25q-123 -30 -250 -30q-60 0 -107 18l27 174q-54 -97 -118.5 -148.5t-155.5 -51.5q-75 0 -129 35t-82.5 91.5t-41 131t-10 149t16.5 150.5q39 217 160.5 347t294.5 130zM651 197q33 48 47 82v2 l76 540q6 43 -29 62q-50 28 -127 28q-122 0 -191 -100.5t-93 -294.5q-13 -121 -13 -215t33.5 -150.5t102.5 -56.5q66 0 109.5 27.5t84.5 75.5zM440 1343h570q-6 -26 -30.5 -58.5t-49.5 -45.5h-539q19 72 49 104z" />
<glyph unicode="&#x102;" horiz-adv-x="1290" d="M471 41l-22 -41h-463l8 41l22 22l97 46l442 845q47 89 115 195.5t108 153.5l70 55q69 -227 176 -650.5t158 -601.5l102 -55v-24l-18 -27h-494l8 41l23 22l178 50l-82 348h-493l-175 -346l232 -47zM788 934l-40 217l-97 -205l-200 -397h428zM1079 1722l90 17 q-14 -138 -101.5 -218.5t-246.5 -80.5q-135 0 -200 77.5t-54 188.5l84 23q-8 -89 43 -126.5t144 -37.5q116 0 174 37t67 120z" />
<glyph unicode="&#x103;" horiz-adv-x="1034" d="M621 1014q150 0 235 -88l64 73l41 -16l-123 -895l231 -4l-18 -41l-35 -25q-123 -30 -250 -30q-60 0 -107 18l27 174q-54 -97 -118.5 -148.5t-155.5 -51.5q-75 0 -129 35t-82.5 91.5t-41 131t-10 149t16.5 150.5q39 217 160.5 347t294.5 130zM651 197q33 48 47 82v2 l76 540q6 43 -29 62q-50 28 -127 28q-122 0 -191 -100.5t-93 -294.5q-13 -121 -13 -215t33.5 -150.5t102.5 -56.5q66 0 109.5 27.5t84.5 75.5zM909 1456l90 17q-15 -155 -96 -243.5t-213 -88.5q-131 0 -191.5 83.5t-47.5 215.5l86 22q-7 -59 3 -98.5t36.5 -58.5t57.5 -26 t77 -7q97 0 142.5 38t55.5 146z" />
<glyph unicode="&#x104;" horiz-adv-x="1290" d="M471 41l-22 -41h-463l8 41l22 22l97 46l442 845q47 89 115 195.5t108 153.5l70 55q69 -227 176 -650.5t158 -601.5l102 -55v-24l-18 -27h-66q-82 -4 -157.5 -77.5t-86.5 -153.5q-6 -52 21 -79.5t76 -27.5q66 0 116 31l17 -21l-6 -26q-25 -29 -75.5 -49.5t-111.5 -20.5 q-87 0 -134.5 43t-35.5 123q13 84 92.5 152.5t184.5 105.5h-328l8 41l23 22l178 50l-82 348h-493l-175 -346l232 -47zM788 934l-40 217l-97 -205l-200 -397h428z" />
<glyph unicode="&#x105;" horiz-adv-x="1034" d="M621 1014q150 0 235 -88l64 73l41 -16l-123 -895l231 -4l-18 -41l-35 -25q-117 -69 -168 -129.5t-57 -126.5q-4 -48 22 -74t74 -26q67 0 117 31l16 -21l-6 -26q-25 -29 -75.5 -49.5t-111.5 -20.5q-88 0 -136.5 43.5t-33.5 122.5q26 140 267 258q-102 -12 -158 -12 q-60 0 -107 18l27 174q-54 -97 -118.5 -148.5t-155.5 -51.5q-75 0 -129 35t-82.5 91.5t-41 131t-10 149t16.5 150.5q39 217 160.5 347t294.5 130zM651 197q33 48 47 82v2l76 540q6 43 -29 62q-50 28 -127 28q-122 0 -191 -100.5t-93 -294.5q-13 -121 -13 -215t33.5 -150.5 t102.5 -56.5q66 0 109.5 27.5t84.5 75.5z" />
<glyph unicode="&#x106;" horiz-adv-x="1159" d="M1163 1153q-60 -243 -129 -393h-63l4 426q-93 51 -207 51q-105 0 -181 -37.5t-125.5 -114t-78 -178t-43.5 -243.5q-16 -135 -7 -239t43.5 -175t107 -107.5t184.5 -36.5q114 0 210 40.5t189 129.5l25 -8l-5 -41q-177 -247 -466 -247q-99 0 -179 25.5t-133 71.5t-91.5 110 t-55 140t-22 161.5t6.5 175.5q11 109 42 208t85 185.5t126 149.5t170 99.5t212 36.5q140 0 248 -62t133 -128zM707 1458l-19 51q27 13 54.5 28t48.5 26t52.5 30t47 28t53.5 33t50 31.5t58 36.5t58 37q57 -89 66 -176q-327 -78 -469 -125z" />
<glyph unicode="&#x107;" horiz-adv-x="874" d="M885 846q-4 -61 -36 -145.5t-69 -147.5h-61l8 340q-49 27 -102 27q-85 0 -147.5 -48t-95.5 -130t-48 -175t-15 -200q0 -141 46 -205t163 -64q66 0 130 22t151 83l16 -25l-6 -45q-70 -78 -166.5 -115.5t-181.5 -37.5q-162 0 -241.5 101.5t-79.5 291.5q0 291 131.5 466 t353.5 175q105 0 177.5 -55t72.5 -113zM588 1104l-33 39q66 61 187 187.5t184 187.5q34 -28 66 -68.5t48 -81.5q-235 -124 -452 -264z" />
<glyph unicode="&#x108;" horiz-adv-x="1159" d="M1163 1153q-60 -243 -129 -393h-63l4 426q-93 51 -207 51q-105 0 -181 -37.5t-125.5 -114t-78 -178t-43.5 -243.5q-16 -135 -7 -239t43.5 -175t107 -107.5t184.5 -36.5q114 0 210 40.5t189 129.5l25 -8l-5 -41q-177 -247 -466 -247q-99 0 -179 25.5t-133 71.5t-91.5 110 t-55 140t-22 161.5t6.5 175.5q11 109 42 208t85 185.5t126 149.5t170 99.5t212 36.5q140 0 248 -62t133 -128zM801 1729l80 14q122 -95 260 -230l-39 -51q-20 11 -64 36.5t-72 42t-64.5 36.5t-63.5 33q-112 -47 -312 -154l-28 51q124 104 303 222z" />
<glyph unicode="&#x109;" horiz-adv-x="874" d="M885 846q-4 -61 -36 -145.5t-69 -147.5h-61l8 340q-49 27 -102 27q-85 0 -147.5 -48t-95.5 -130t-48 -175t-15 -200q0 -141 46 -205t163 -64q66 0 130 22t151 83l16 -25l-6 -45q-70 -78 -166.5 -115.5t-181.5 -37.5q-162 0 -241.5 101.5t-79.5 291.5q0 291 131.5 466 t353.5 175q105 0 177.5 -55t72.5 -113zM616 1456l105 25q34 -42 68 -90t78.5 -113t70.5 -102l-55 -48l-215 213l-258 -211l-39 41q170 216 245 285z" />
<glyph unicode="&#x10a;" horiz-adv-x="1159" d="M1163 1153q-60 -243 -129 -393h-63l4 426q-93 51 -207 51q-105 0 -181 -37.5t-125.5 -114t-78 -178t-43.5 -243.5q-16 -135 -7 -239t43.5 -175t107 -107.5t184.5 -36.5q114 0 210 40.5t189 129.5l25 -8l-5 -41q-177 -247 -466 -247q-99 0 -179 25.5t-133 71.5t-91.5 110 t-55 140t-22 161.5t6.5 175.5q11 109 42 208t85 185.5t126 149.5t170 99.5t212 36.5q140 0 248 -62t133 -128zM831 1464q-53 0 -81.5 30t-28.5 77q0 53 34 89t93 36q51 0 80.5 -33t29.5 -76q0 -57 -33 -90t-94 -33z" />
<glyph unicode="&#x10b;" horiz-adv-x="874" d="M885 846q-4 -61 -36 -145.5t-69 -147.5h-61l8 340q-49 27 -102 27q-85 0 -147.5 -48t-95.5 -130t-48 -175t-15 -200q0 -141 46 -205t163 -64q66 0 130 22t151 83l16 -25l-6 -45q-70 -78 -166.5 -115.5t-181.5 -37.5q-162 0 -241.5 101.5t-79.5 291.5q0 291 131.5 466 t353.5 175q105 0 177.5 -55t72.5 -113zM672 1178q-53 0 -82 30t-29 76q0 53 34 89t93 36q51 0 81 -33t30 -76q0 -56 -33 -89t-94 -33z" />
<glyph unicode="&#x10c;" horiz-adv-x="1159" d="M1163 1153q-60 -243 -129 -393h-63l4 426q-93 51 -207 51q-105 0 -181 -37.5t-125.5 -114t-78 -178t-43.5 -243.5q-16 -135 -7 -239t43.5 -175t107 -107.5t184.5 -36.5q114 0 210 40.5t189 129.5l25 -8l-5 -41q-177 -247 -466 -247q-99 0 -179 25.5t-133 71.5t-91.5 110 t-55 140t-22 161.5t6.5 175.5q11 109 42 208t85 185.5t126 149.5t170 99.5t212 36.5q140 0 248 -62t133 -128zM858 1468l-80 -14q-127 99 -260 229l39 52q20 -11 64 -36.5t72 -42t64.5 -36.5t63.5 -33q112 47 312 154l28 -51q-124 -104 -303 -222z" />
<glyph unicode="&#x10d;" horiz-adv-x="874" d="M885 846q-4 -61 -36 -145.5t-69 -147.5h-61l8 340q-49 27 -102 27q-85 0 -147.5 -48t-95.5 -130t-48 -175t-15 -200q0 -141 46 -205t163 -64q66 0 130 22t151 83l16 -25l-6 -45q-70 -78 -166.5 -115.5t-181.5 -37.5q-162 0 -241.5 101.5t-79.5 291.5q0 291 131.5 466 t353.5 175q105 0 177.5 -55t72.5 -113zM709 1157l-105 -24q-34 42 -68 90t-78.5 113t-70.5 102l55 47l215 -213l258 211l39 -41q-170 -216 -245 -285z" />
<glyph unicode="&#x10e;" horiz-adv-x="1298" d="M186 1278l23 45h514q98 0 179 -17.5t140.5 -50.5t105 -79t72.5 -102.5t44 -122.5t17.5 -138t-5.5 -149q-12 -116 -39.5 -213t-77.5 -181.5t-119 -143.5t-168 -92.5t-221 -33.5h-616l14 43l37 23l160 34l114 1123l-167 32zM715 1225h-178l-113 -1127h225q213 0 307 129.5 t127 436.5q34 300 -51 430.5t-317 130.5zM788 1468l-79 -14q-127 99 -260 229l38 52q220 -126 265 -148q108 45 311 154l29 -51q-121 -101 -304 -222z" />
<glyph unicode="&#x10f;" horiz-adv-x="1200" d="M1042 1462l-32 -78l-156 -1296l231 -4l-18 -41l-35 -25q-123 -30 -250 -30q-60 0 -106 18l26 182q-115 -208 -290 -208q-75 0 -129 35t-82.5 91.5t-41 131t-10 149t16.5 150.5q39 217 160.5 347t294.5 130q104 0 167 -66l46 385l-199 29l6 45q98 29 401 55zM662 197 q35 44 47 84l65 557q0 32 -29 49q-50 28 -127 28q-235 0 -284 -399q-13 -121 -13.5 -215t35 -150.5t109.5 -56.5q114 0 197 103zM1323 1462l-223 -368l-41 18q43 114 57 170t29 178q41 10 91.5 11t86.5 -9z" />
<glyph unicode="&#x110;" horiz-adv-x="1318" d="M55 0l15 43l36 23l160 34l53 523h-178q13 50 47 86h140l53 514l-168 32l-6 23l22 45h514q98 0 179 -17.5t140.5 -50.5t105 -79t72.5 -102.5t44 -122.5t17.5 -138t-5.5 -149q-15 -146 -56 -262t-113.5 -208.5t-188 -143t-266.5 -50.5h-617zM696 623h-200l-52 -525h226 q213 0 307 129.5t127 436.5q34 300 -51 430.5t-318 130.5h-178l-53 -516h270q-6 -25 -28.5 -48t-49.5 -38z" />
<glyph unicode="&#x111;" horiz-adv-x="1052" d="M621 1014q104 0 167 -66l19 166h-277q7 42 31 70h254l19 149l-199 29l6 45q98 29 401 55l-32 -78l-25 -200h184q-2 -16 -14 -30.5t-21.5 -20.5t-31.5 -19h-125l-123 -1026l231 -4l-18 -41l-35 -25q-123 -30 -250 -30q-60 0 -106 18l26 182q-115 -208 -290 -208 q-75 0 -129 35t-82.5 91.5t-41 131t-10 149t16.5 150.5q39 217 160.5 347t294.5 130zM662 197q35 44 47 84l65 557q0 32 -29 49q-50 28 -127 28q-235 0 -284 -399q-13 -121 -13.5 -215t35 -150.5t109.5 -56.5q114 0 197 103z" />
<glyph unicode="&#x112;" horiz-adv-x="1177" d="M186 1278l23 45h969q-18 -185 -50 -346l-53 12l-57 240h-481l-52 -514h541q-1 -33 -47.5 -60.5t-95.5 -38.5h-408l-53 -522h467l172 285l65 16q-42 -250 -71 -395h-1020l14 43l37 23l160 34l114 1123l-167 32zM543 1610h569q-4 -26 -29 -58.5t-49 -46.5h-538 q19 73 47 105z" />
<glyph unicode="&#x113;" horiz-adv-x="884" d="M874 756q-18 -169 -147 -231.5t-401 -51.5q-9 -78 -5 -147t19.5 -120.5t57.5 -81.5t108 -30q67 0 133 21t152 71l14 -24l-8 -45q-172 -137 -355 -137q-337 0 -282 518q25 236 144.5 376t307.5 140q73 0 128 -23t84.5 -61t42 -82.5t7.5 -91.5zM592 930q-104 0 -165 -101 t-95 -299q74 1 121 4t92.5 11t71.5 22t48.5 38t33.5 57.5t16 80.5q5 32 1.5 65.5t-13 60.5t-38 44t-73.5 17zM403 1343h570q-6 -26 -30.5 -58.5t-49.5 -45.5h-539q19 72 49 104z" />
<glyph unicode="&#x114;" horiz-adv-x="1177" d="M186 1278l23 45h969q-18 -185 -50 -346l-53 12l-57 240h-481l-52 -514h541q-1 -33 -47.5 -60.5t-95.5 -38.5h-408l-53 -522h467l172 285l65 16q-42 -250 -71 -395h-1020l14 43l37 23l160 34l114 1123l-167 32zM1020 1722l90 17q-14 -138 -101.5 -218.5t-246.5 -80.5 q-135 0 -200 77.5t-54 188.5l84 23q-8 -89 43 -126.5t143 -37.5q116 0 174.5 37t67.5 120z" />
<glyph unicode="&#x115;" horiz-adv-x="884" d="M874 756q-18 -169 -147 -231.5t-401 -51.5q-9 -78 -5 -147t19.5 -120.5t57.5 -81.5t108 -30q67 0 133 21t152 71l14 -24l-8 -45q-172 -137 -355 -137q-337 0 -282 518q25 236 144.5 376t307.5 140q73 0 128 -23t84.5 -61t42 -82.5t7.5 -91.5zM592 930q-104 0 -165 -101 t-95 -299q74 1 121 4t92.5 11t71.5 22t48.5 38t33.5 57.5t16 80.5q5 32 1.5 65.5t-13 60.5t-38 44t-73.5 17zM872 1456l91 17q-15 -155 -96.5 -243.5t-213.5 -88.5q-131 0 -191.5 83.5t-47.5 215.5l86 22q-7 -59 3 -98.5t36.5 -58.5t57.5 -26t77 -7q97 0 142.5 38t55.5 146z " />
<glyph unicode="&#x116;" horiz-adv-x="1177" d="M186 1278l23 45h969q-18 -185 -50 -346l-53 12l-57 240h-481l-52 -514h541q-1 -33 -47.5 -60.5t-95.5 -38.5h-408l-53 -522h467l172 285l65 16q-42 -250 -71 -395h-1020l14 43l37 23l160 34l114 1123l-167 32zM791 1464q-53 0 -82 30t-29 77q0 53 34 89t93 36 q51 0 81 -33t30 -76q0 -57 -33 -90t-94 -33z" />
<glyph unicode="&#x117;" horiz-adv-x="884" d="M874 756q-18 -169 -147 -231.5t-401 -51.5q-9 -78 -5 -147t19.5 -120.5t57.5 -81.5t108 -30q67 0 133 21t152 71l14 -24l-8 -45q-172 -137 -355 -137q-337 0 -282 518q25 236 144.5 376t307.5 140q73 0 128 -23t84.5 -61t42 -82.5t7.5 -91.5zM592 930q-104 0 -165 -101 t-95 -299q74 1 121 4t92.5 11t71.5 22t48.5 38t33.5 57.5t16 80.5q5 32 1.5 65.5t-13 60.5t-38 44t-73.5 17zM670 1178q-53 0 -82 30t-29 76q0 53 34 89t93 36q51 0 81 -33t30 -76q0 -56 -33 -89t-94 -33z" />
<glyph unicode="&#x118;" horiz-adv-x="1177" d="M1061 379l65 16q-42 -250 -71 -395q-83 0 -162 -75t-90 -156q-6 -52 20.5 -79.5t75.5 -27.5q67 0 117 31l16 -21l-6 -26q-26 -29 -76 -49.5t-110 -20.5q-87 0 -134.5 43t-35.5 123q13 84 92 152.5t184 105.5h-911l14 43l37 23l160 34l114 1123l-167 32l-7 23l23 45h969 q-18 -185 -50 -346l-53 12l-57 240h-481l-52 -514h541q-1 -33 -47.5 -60.5t-95.5 -38.5h-408l-53 -522h467z" />
<glyph unicode="&#x119;" horiz-adv-x="884" d="M367 -258q12 71 74 133t175 137q-91 -32 -174 -32q-337 0 -282 518q25 236 144.5 376t307.5 140q73 0 128 -23t84.5 -61t42 -82.5t7.5 -91.5q-18 -169 -147 -231.5t-401 -51.5q-9 -78 -5 -147t19.5 -120.5t57.5 -81.5t108 -30q67 0 133 21t152 71l14 -24l-8 -45 q-43 -36 -82 -58q-202 -164 -215 -297q-4 -48 22 -74t74 -26q67 0 117 31l16 -21l-6 -26q-26 -29 -75.5 -49.5t-110.5 -20.5q-88 0 -135.5 43.5t-34.5 122.5zM592 930q-104 0 -165 -101t-95 -299q74 1 121 4t92.5 11t71.5 22t48.5 38t33.5 57.5t16 80.5q5 32 1.5 65.5 t-13 60.5t-38 44t-73.5 17z" />
<glyph unicode="&#x11a;" horiz-adv-x="1177" d="M186 1278l23 45h969q-18 -185 -50 -346l-53 12l-57 240h-481l-52 -514h541q-1 -33 -47.5 -60.5t-95.5 -38.5h-408l-53 -522h467l172 285l65 16q-42 -250 -71 -395h-1020l14 43l37 23l160 34l114 1123l-167 32zM817 1468l-80 -14q-127 99 -260 229l39 52q20 -11 64 -36.5 t72 -42t64.5 -36.5t63.5 -33q112 47 312 154l28 -51q-124 -104 -303 -222z" />
<glyph unicode="&#x11b;" horiz-adv-x="884" d="M874 756q-18 -169 -147 -231.5t-401 -51.5q-9 -78 -5 -147t19.5 -120.5t57.5 -81.5t108 -30q67 0 133 21t152 71l14 -24l-8 -45q-172 -137 -355 -137q-337 0 -282 518q25 236 144.5 376t307.5 140q73 0 128 -23t84.5 -61t42 -82.5t7.5 -91.5zM592 930q-104 0 -165 -101 t-95 -299q74 1 121 4t92.5 11t71.5 22t48.5 38t33.5 57.5t16 80.5q5 32 1.5 65.5t-13 60.5t-38 44t-73.5 17zM707 1157l-105 -24q-34 42 -68 90t-78.5 113t-70.5 102l55 47l215 -213l258 211l39 -41q-170 -216 -245 -285z" />
<glyph unicode="&#x11c;" horiz-adv-x="1226" d="M776 643h383l-69 -627l-50 -32l-77 108q-60 -53 -151 -82.5t-187 -29.5q-111 0 -199 36.5t-144 100.5t-92.5 150.5t-44 187t1.5 209.5q12 110 43.5 208t88 185t132 150t182 99.5t232.5 36.5q136 0 254 -59t142 -129q-45 -171 -109 -315h-59l2 327q-118 70 -260 70 q-203 0 -312 -139t-143 -434q-33 -295 53.5 -436.5t270.5 -141.5q163 0 282 82l39 360l-246 58l4 30zM815 1729l80 14q122 -95 260 -230l-39 -51q-20 11 -64 36.5t-72 42t-64.5 36.5t-63.5 33q-108 -45 -311 -154l-29 51q124 104 303 222z" />
<glyph unicode="&#x11d;" horiz-adv-x="1003" d="M621 1014q150 0 235 -88l59 73l41 -16q-20 -163 -47.5 -412.5t-45 -385t-36.5 -230.5q-24 -120 -69.5 -200.5t-136.5 -133.5q-51 -29 -118.5 -42t-117.5 -13q-94 0 -179.5 23t-123.5 71v86q132 -59 291 -59q123 0 219 43q31 22 50.5 97t36 204.5t21.5 154.5 q-116 -206 -288 -206q-75 0 -129 35t-82.5 91.5t-41 131t-10 149t16.5 150.5q39 217 160.5 347t294.5 130zM662 197q40 54 47 86l67 555q0 33 -28 49q-50 28 -130 28q-235 0 -284 -399q-13 -121 -13.5 -215t35 -150.5t109.5 -56.5q114 0 197 103zM629 1456l104 25 q34 -42 68 -90t78.5 -113t70.5 -102l-55 -48l-215 213l-258 -211l-39 41q167 212 246 285z" />
<glyph unicode="&#x11e;" horiz-adv-x="1226" d="M776 643h383l-69 -627l-50 -32l-77 108q-60 -53 -151 -82.5t-187 -29.5q-111 0 -199 36.5t-144 100.5t-92.5 150.5t-44 187t1.5 209.5q12 110 43.5 208t88 185t132 150t182 99.5t232.5 36.5q136 0 254 -59t142 -129q-45 -171 -109 -315h-59l2 327q-118 70 -260 70 q-203 0 -312 -139t-143 -434q-33 -295 53.5 -436.5t270.5 -141.5q163 0 282 82l39 360l-246 58l4 30zM1075 1722l90 17q-14 -138 -101.5 -218.5t-246.5 -80.5q-135 0 -200 77.5t-54 188.5l84 23q-8 -89 43 -126.5t144 -37.5q116 0 174 37t67 120z" />
<glyph unicode="&#x11f;" horiz-adv-x="1003" d="M621 1014q150 0 235 -88l59 73l41 -16q-20 -163 -47.5 -412.5t-45 -385t-36.5 -230.5q-24 -120 -69.5 -200.5t-136.5 -133.5q-51 -29 -118.5 -42t-117.5 -13q-94 0 -179.5 23t-123.5 71v86q132 -59 291 -59q123 0 219 43q31 22 50.5 97t36 204.5t21.5 154.5 q-116 -206 -288 -206q-75 0 -129 35t-82.5 91.5t-41 131t-10 149t16.5 150.5q39 217 160.5 347t294.5 130zM662 197q40 54 47 86l67 555q0 33 -28 49q-50 28 -130 28q-235 0 -284 -399q-13 -121 -13.5 -215t35 -150.5t109.5 -56.5q114 0 197 103zM887 1456l90 17 q-15 -155 -96 -243.5t-213 -88.5q-131 0 -192 84t-48 215l86 22q-7 -59 3 -98.5t36.5 -58.5t57.5 -26t77 -7q98 0 143.5 38t55.5 146z" />
<glyph unicode="&#x120;" horiz-adv-x="1226" d="M776 643h383l-69 -627l-50 -32l-77 108q-60 -53 -151 -82.5t-187 -29.5q-111 0 -199 36.5t-144 100.5t-92.5 150.5t-44 187t1.5 209.5q12 110 43.5 208t88 185t132 150t182 99.5t232.5 36.5q136 0 254 -59t142 -129q-45 -171 -109 -315h-59l2 327q-118 70 -260 70 q-203 0 -312 -139t-143 -434q-33 -295 53.5 -436.5t270.5 -141.5q163 0 282 82l39 360l-246 58l4 30zM846 1464q-53 0 -82 30t-29 77q0 53 34 89t93 36q51 0 81 -33t30 -76q0 -57 -33.5 -90t-93.5 -33z" />
<glyph unicode="&#x121;" horiz-adv-x="1003" d="M621 1014q150 0 235 -88l59 73l41 -16q-20 -163 -47.5 -412.5t-45 -385t-36.5 -230.5q-24 -120 -69.5 -200.5t-136.5 -133.5q-51 -29 -118.5 -42t-117.5 -13q-94 0 -179.5 23t-123.5 71v86q132 -59 291 -59q123 0 219 43q31 22 50.5 97t36 204.5t21.5 154.5 q-116 -206 -288 -206q-75 0 -129 35t-82.5 91.5t-41 131t-10 149t16.5 150.5q39 217 160.5 347t294.5 130zM662 197q40 54 47 86l67 555q0 33 -28 49q-50 28 -130 28q-235 0 -284 -399q-13 -121 -13.5 -215t35 -150.5t109.5 -56.5q114 0 197 103zM684 1178q-53 0 -82 30 t-29 76q0 53 34 89t93 36q51 0 81 -33t30 -76q0 -56 -33 -89t-94 -33z" />
<glyph unicode="&#x122;" horiz-adv-x="1226" d="M776 643h383l-69 -627l-50 -32l-77 108q-60 -53 -151 -82.5t-187 -29.5q-111 0 -199 36.5t-144 100.5t-92.5 150.5t-44 187t1.5 209.5q12 110 43.5 208t88 185t132 150t182 99.5t232.5 36.5q136 0 254 -59t142 -129q-45 -171 -109 -315h-59l2 327q-118 70 -260 70 q-203 0 -312 -139t-143 -434q-33 -295 53.5 -436.5t270.5 -141.5q163 0 282 82l39 360l-246 58l4 30zM739 -76q2 -114 -46 -208.5t-187 -196.5l-37 41q61 58 88 111.5t27.5 105.5t-0.5 123q51 24 155 24z" />
<glyph unicode="&#x123;" horiz-adv-x="1003" d="M621 1014q150 0 235 -88l59 73l41 -16q-20 -163 -47.5 -412.5t-45 -385t-36.5 -230.5q-24 -120 -69.5 -200.5t-136.5 -133.5q-51 -29 -118.5 -42t-117.5 -13q-94 0 -179.5 23t-123.5 71v86q132 -59 291 -59q123 0 219 43q31 22 50.5 97t36 204.5t21.5 154.5 q-116 -206 -288 -206q-75 0 -129 35t-82.5 91.5t-41 131t-10 149t16.5 150.5q39 217 160.5 347t294.5 130zM662 197q40 54 47 86l67 555q0 33 -28 49q-50 28 -130 28q-235 0 -284 -399q-13 -121 -13.5 -215t35 -150.5t109.5 -56.5q114 0 197 103zM563 1122q-2 114 46.5 209 t187.5 197l37 -41q-61 -58 -88 -111.5t-27.5 -105.5t0.5 -123q-53 -25 -156 -25z" />
<glyph unicode="&#x124;" horiz-adv-x="1478" d="M598 45l-23 -45h-540l14 43l37 23l160 34l114 1123l-167 32l-7 23l23 45h539l-15 -43l-37 -23l-159 -34l-52 -508h652l53 508l-168 32l-6 23l22 45h539l-14 -43l-37 -23l-160 -34l-113 -1125l168 -30l6 -23l-22 -45h-541l15 43l36 23l160 34l51 516h-651l-51 -518 l168 -30zM881 1729l80 14q122 -95 260 -230l-39 -51q-20 11 -64 36.5t-72 42t-64.5 36.5t-63.5 33q-112 -47 -312 -154l-28 51q124 104 303 222z" />
<glyph unicode="&#x125;" horiz-adv-x="1087" d="M729 6l76 639q13 93 8.5 148t-36.5 77.5t-107 22.5q-81 0 -148.5 -42t-83.5 -120l-76 -643l232 -4l-19 -41l-34 -25q-123 -30 -250 -30q-61 0 -107 18l158 1327l-199 29l7 45q98 29 401 55l-35 -78l-65 -532q58 76 141 119t168 43q110 0 165.5 -57.5t55.5 -186.5 q0 -67 -72 -682l230 -4l-19 -41l-35 -25q-123 -30 -249 -30q-60 0 -107 18zM438 1815l80 14q122 -95 260 -230l-39 -51q-20 11 -64 36.5t-72 42t-64.5 36.5t-63.5 33q-108 -45 -311 -154l-29 51q124 104 303 222z" />
<glyph unicode="&#x126;" horiz-adv-x="1519" d="M55 0l15 43l36 23l160 34l84 834h-182q7 42 33 74h157l23 215l-168 32l-6 23l22 45h539l-14 -43l-37 -23l-160 -34l-22 -215h653l22 215l-168 32l-6 23l23 45h538l-14 -43l-37 -23l-160 -34l-22 -215h215q-13 -45 -63 -74h-158l-84 -836l168 -30l6 -23l-23 -45h-540 l14 43l37 23l160 34l51 516h-651l-52 -518l168 -30l6 -23l-22 -45h-541zM528 934l-22 -219h651l23 219h-652z" />
<glyph unicode="&#x127;" horiz-adv-x="1107" d="M205 6l131 1108h-191q8 45 31 70h168l18 149l-198 29l6 45q98 29 401 55l-34 -78l-25 -200h303q-2 -16 -14 -30.5t-21.5 -20.5t-31.5 -19h-244l-33 -262q58 76 141 119t168 43q110 0 165.5 -57.5t55.5 -186.5q0 -75 -71 -682l229 -4l-18 -41l-35 -25q-123 -30 -250 -30 q-60 0 -106 18l75 639q13 93 8.5 148t-36.5 77.5t-107 22.5q-81 0 -148 -42t-83 -120l-76 -643l231 -4l-18 -41l-35 -25q-123 -30 -250 -30q-59 0 -106 18z" />
<glyph unicode="&#x128;" horiz-adv-x="649" d="M598 45l-23 -45h-540l14 43l37 23l160 34l114 1123l-167 32l-7 23l23 45h539l-15 -43l-37 -23l-159 -34l-113 -1125l168 -30zM313 1548l-118 -96l-43 29q11 13 33 40.5t33.5 40t31.5 32t42.5 33.5t51.5 26q47 -8 171 -47t165 -50l123 103l37 -19q-11 -24 -22.5 -44 t-20 -34.5t-22 -29t-19 -21.5t-21 -18t-18.5 -13.5t-20 -13.5t-19 -12q-161 5 -365 94z" />
<glyph unicode="&#x129;" horiz-adv-x="573" d="M211 6l102 866l-198 29l6 45q98 29 401 55l-30 -69l-103 -844l232 -4l-19 -41l-35 -25q-123 -30 -250 -30q-59 0 -106 18zM307 1278l-112 -92l-43 28q11 13 33 40.5t33.5 40t31.5 32t42.5 33.5t51.5 26q46 -8 150 -44t151 -48l117 99l37 -19q-11 -24 -22.5 -44t-20 -34.5 t-22 -29t-19 -21.5t-21 -18t-18.5 -13.5t-20 -13.5t-19 -12q-60 2 -124.5 17.5t-104.5 30.5t-101 42z" />
<glyph unicode="&#x12a;" horiz-adv-x="649" d="M598 45l-23 -45h-540l14 43l37 23l160 34l114 1123l-167 32l-7 23l23 45h539l-15 -43l-37 -23l-159 -34l-113 -1125l168 -30zM248 1610h569q-4 -26 -29 -58.5t-49 -46.5h-538q19 73 47 105z" />
<glyph unicode="&#x12b;" horiz-adv-x="573" d="M211 6l102 866l-198 29l6 45q98 29 401 55l-30 -69l-103 -844l232 -4l-19 -41l-35 -25q-123 -30 -250 -30q-59 0 -106 18zM209 1343h569q-6 -26 -30.5 -58.5t-49.5 -45.5h-538q19 72 49 104z" />
<glyph unicode="&#x12c;" horiz-adv-x="649" d="M598 45l-23 -45h-540l14 43l37 23l160 34l114 1123l-167 32l-7 23l23 45h539l-15 -43l-37 -23l-159 -34l-113 -1125l168 -30zM725 1722l90 17q-14 -138 -101.5 -218.5t-246.5 -80.5q-135 0 -200 77.5t-54 188.5l84 23q-8 -89 43 -126.5t143 -37.5q116 0 174.5 37 t67.5 120z" />
<glyph unicode="&#x12d;" horiz-adv-x="573" d="M211 6l102 866l-198 29l6 45q98 29 401 55l-30 -69l-103 -844l232 -4l-19 -41l-35 -25q-123 -30 -250 -30q-59 0 -106 18zM678 1456l90 17q-15 -155 -96 -243.5t-213 -88.5q-131 0 -192 84t-48 215l86 22q-7 -59 3 -98.5t36.5 -58.5t57.5 -26t77 -7q98 0 143.5 38 t55.5 146z" />
<glyph unicode="&#x12e;" horiz-adv-x="649" d="M598 45l-23 -45h-86q-82 -4 -157 -77.5t-86 -153.5q-6 -52 20.5 -79.5t75.5 -27.5q67 0 117 31l16 -21l-6 -26q-26 -29 -75.5 -49.5t-110.5 -20.5q-87 0 -134.5 43t-35.5 123q13 84 92 152.5t184 105.5h-354l14 43l37 23l160 34l114 1123l-167 32l-7 23l23 45h539 l-15 -43l-37 -23l-159 -34l-113 -1125l168 -30z" />
<glyph unicode="&#x12f;" horiz-adv-x="573" d="M522 1001l-30 -69l-103 -844l232 -4l-19 -41l-35 -25q-117 -69 -168 -129.5t-57 -126.5q-4 -48 22 -74t74 -26q67 0 117 31l16 -21l-6 -26q-26 -29 -75.5 -49.5t-110.5 -20.5q-88 0 -136.5 43.5t-33.5 122.5q26 141 266 258q-102 -12 -158 -12q-59 0 -106 18l102 866 l-198 29l6 45q98 29 401 55zM326 1292q0 53 34 85t86 32t87.5 -32t35.5 -85q0 -52 -35 -83t-88 -31q-52 0 -86 30.5t-34 83.5z" />
<glyph unicode="&#x130;" horiz-adv-x="649" d="M598 45l-23 -45h-540l14 43l37 23l160 34l114 1123l-167 32l-7 23l23 45h539l-15 -43l-37 -23l-159 -34l-113 -1125l168 -30zM496 1464q-53 0 -82 30t-29 77q0 53 34 89t93 36q51 0 81 -33t30 -76q0 -57 -33.5 -90t-93.5 -33z" />
<glyph unicode="&#x131;" horiz-adv-x="573" d="M211 6l102 866l-198 29l6 45q98 29 401 55l-30 -69l-103 -844l232 -4l-19 -41l-35 -25q-123 -30 -250 -30q-59 0 -106 18z" />
<glyph unicode="&#x132;" horiz-adv-x="1224" d="M520 -291l-8 64q99 -4 189 3.5t139 22.5q21 106 32 203t17 195.5t10 134.5l96 891l-211 32l-8 23l29 45h563l-12 -43l-35 -23l-152 -34l-94 -852q-28 -250 -59 -388t-76 -239q-79 -86 -244 -86q-52 0 -103.5 14.5t-72.5 36.5zM598 45l-23 -45h-540l14 43l37 23l160 34 l114 1123l-167 32l-7 23l23 45h539l-15 -43l-37 -23l-159 -34l-113 -1125l168 -30z" />
<glyph unicode="&#x133;" horiz-adv-x="1101" d="M1092 1001l-29 -67l-64 -535q-45 -361 -75.5 -520t-59.5 -213q-79 -86 -248 -86q-52 0 -103.5 14.5t-72.5 36.5l-8 64q99 -4 188 3.5t138 22.5q14 49 25.5 149t22 233.5t13.5 166.5l64 602l-199 29l6 45q98 29 402 55zM522 1001l-30 -69l-103 -844l232 -4l-19 -41 l-35 -25q-123 -30 -250 -30q-59 0 -106 18l102 866l-198 29l6 45q98 29 401 55zM326 1292q0 53 34 85t86 32t87.5 -32t35.5 -85q0 -52 -35 -83t-88 -31q-52 0 -86 30.5t-34 83.5zM887 1292q0 53 34.5 85t86.5 32t87 -32t35 -85t-34.5 -83.5t-87.5 -30.5t-87 30.5t-34 83.5z " />
<glyph unicode="&#x134;" horiz-adv-x="575" d="M-129 -291l-8 64q99 -4 188.5 3.5t138.5 22.5q21 106 32 203t17.5 196t10.5 134l96 891l-211 32l-8 23l29 45h563l-12 -43l-35 -23l-152 -34l-94 -852q-28 -250 -59 -388t-76 -239q-79 -86 -244 -86q-52 0 -103.5 14.5t-72.5 36.5zM451 1729l79 14q127 -99 261 -230 l-39 -51q-220 126 -265 148q-108 -45 -311 -154l-29 51q121 101 304 222z" />
<glyph unicode="&#x135;" horiz-adv-x="528" d="M518 1001l-29 -67l-63 -535q-45 -361 -75.5 -520t-59.5 -213q-79 -86 -248 -86q-52 0 -103.5 14.5t-72.5 36.5l-8 64q213 -9 325 26q14 49 25.5 148.5t22.5 234.5t14 166l63 602l-198 29l6 45q98 29 401 55zM420 1456l104 25q34 -42 68 -90t78.5 -113t70.5 -102l-55 -48 l-215 213l-258 -211l-39 41q167 212 246 285z" />
<glyph unicode="&#x136;" horiz-adv-x="1286" d="M598 45l-23 -45h-540l14 43l37 23l160 34l125 1123l-166 32l-6 23l22 45h502l-16 -47l-35 -23l-125 -32l-123 -1123l168 -30zM967 6q-249 384 -396 647v60l564 487l-187 51l-10 27l25 45h393l-21 -72q-209 -196 -608 -528l401 -627l172 -26l-20 -41l-31 -21 q-57 -16 -143 -16q-97 0 -139 14zM774 -76q2 -114 -46 -208.5t-187 -196.5l-37 41q61 58 87.5 112t27 105.5t-0.5 122.5q51 24 156 24z" />
<glyph unicode="&#x137;" horiz-adv-x="985" d="M551 1462l-33 -78l-156 -1298l140 -2l-19 -41l-34 -25q-111 -30 -158 -30q-61 0 -107 18l158 1327l-199 29l7 45q98 29 401 55zM1014 1001q0 -2 3.5 -19t4 -23.5t0 -23.5t-5 -29t-13.5 -30t-24 -36q-10 -12 -23 -26t-31 -31t-33.5 -31t-40.5 -35.5t-41 -35t-45.5 -38 t-44 -36.5t-47 -38.5t-44.5 -36.5l245 -444l164 -8l-22 -41l-31 -21q-80 -26 -133 -26q-81 0 -123 14l-237 469l4 29l368 366l-219 31l10 51q71 21 359 49zM664 -96q2 -114 -46.5 -209t-187.5 -197l-37 41q61 58 88 111.5t27.5 105.5t-0.5 123q53 25 156 25z" />
<glyph unicode="&#x139;" horiz-adv-x="1087" d="M770 1323l-16 -43l-41 -23l-176 -34l-113 -1125h420l186 338l64 17q-66 -348 -93 -453h-966l14 43l37 23l160 34l114 1123l-167 32l-7 23l23 45h561zM369 1458l-19 51q27 13 54.5 28t48.5 26t52.5 30t47 28t53.5 33t50 31.5t58 36.5t58 37q57 -89 66 -176 q-327 -78 -469 -125z" />
<glyph unicode="&#x13a;" horiz-adv-x="526" d="M537 1462l-33 -78l-156 -1296l232 -4l-19 -41l-35 -25q-123 -30 -250 -30q-60 0 -106 18l158 1327l-199 29l6 45q98 29 402 55zM340 1544l-18 51q30 15 58.5 30t61 34t54 31t60.5 36.5t56 35t65.5 41.5t65.5 42q57 -89 66 -176q-327 -78 -469 -125z" />
<glyph unicode="&#x13b;" horiz-adv-x="1087" d="M770 1323l-16 -43l-41 -23l-176 -34l-113 -1125h420l186 338l64 17q-66 -348 -93 -453h-966l14 43l37 23l160 34l114 1123l-167 32l-7 23l23 45h561zM700 -76q2 -114 -46 -208.5t-187 -196.5l-37 41q61 58 88 111.5t27.5 105.5t-0.5 123q51 24 155 24z" />
<glyph unicode="&#x13c;" horiz-adv-x="526" d="M537 1462l-33 -78l-156 -1296l232 -4l-19 -41l-35 -25q-123 -30 -250 -30q-60 0 -106 18l158 1327l-199 29l6 45q98 29 402 55zM428 -96q2 -114 -46 -209t-187 -197l-37 41q61 58 87.5 112t27 105.5t-0.5 122.5q53 25 156 25z" />
<glyph unicode="&#x13d;" horiz-adv-x="1087" d="M770 1323l-16 -43l-41 -23l-176 -34l-113 -1125h420l186 338l64 17q-66 -348 -93 -453h-966l14 43l37 23l160 34l114 1123l-167 32l-7 23l23 45h561zM1038 1317l-223 -369l-41 19q43 114 57 170t29 178q41 10 91.5 11t86.5 -9z" />
<glyph unicode="&#x13e;" horiz-adv-x="694" d="M537 1462l-33 -78l-156 -1296l232 -4l-19 -41l-35 -25q-123 -30 -250 -30q-60 0 -106 18l158 1327l-199 29l6 45q98 29 402 55zM817 1462l-223 -368l-41 18q43 114 57 170t29 178q41 10 91.5 11t86.5 -9z" />
<glyph unicode="&#x13f;" horiz-adv-x="1087" d="M770 1323l-16 -43l-41 -23l-176 -34l-113 -1125h420l186 338l64 17q-66 -348 -93 -453h-966l14 43l37 23l160 34l114 1123l-167 32l-7 23l23 45h561zM817 600q-47 0 -72.5 27t-25.5 69q0 48 31 80.5t84 32.5q45 0 71.5 -29.5t26.5 -68.5q0 -51 -30 -81t-85 -30z" />
<glyph unicode="&#x140;" horiz-adv-x="864" d="M537 1462l-33 -78l-156 -1296l232 -4l-19 -41l-35 -25q-123 -30 -250 -30q-60 0 -106 18l158 1327l-199 29l6 45q98 29 402 55zM725 377q-55 0 -85 31t-30 79q0 56 35.5 93.5t97.5 37.5q53 0 84 -34t31 -78q0 -60 -35 -94.5t-98 -34.5z" />
<glyph unicode="&#x141;" horiz-adv-x="1107" d="M55 0l15 43l36 23l160 34l39 379l-155 -69q-14 54 -9 88l174 80l66 645l-168 32l-6 23l22 45h562l-17 -43l-41 -23l-176 -34l-55 -561l358 165q16 -53 -18 -102l-350 -160l-48 -467h420l187 338l63 17q-68 -362 -92 -453h-967z" />
<glyph unicode="&#x142;" horiz-adv-x="559" d="M170 6l66 549l-109 -86q-15 9 -27 33t-6 47l156 125l78 659l-199 29l6 45q98 29 402 55l-33 -78l-68 -561l156 125q10 -22 15 -49t-1 -47l-184 -147l-74 -617l232 -4l-19 -41l-35 -25q-123 -30 -250 -30q-60 0 -106 18z" />
<glyph unicode="&#x143;" horiz-adv-x="1400" d="M1034 1278l23 45h475l-14 -43l-37 -23l-160 -34l-76 -727q-11 -126 -30.5 -297t-30.5 -213l-33 -19l-137 195l-471 815l-86 153l-13 -174l-86 -858l168 -30l6 -23l-22 -45h-475l14 43l37 23l160 34l114 1123l-167 32l-7 23l23 45h330l505 -891l74 -141l15 180l75 752 l-168 32zM766 1458l-18 51q30 15 58.5 30t61 34t54 31t60.5 36.5t56 35t65.5 41.5t65.5 42q57 -89 66 -176q-327 -78 -469 -125z" />
<glyph unicode="&#x144;" horiz-adv-x="1114" d="M756 6l75 639q13 93 8.5 148t-36.5 77.5t-107 22.5q-83 0 -150.5 -42.5t-80.5 -123.5l-76 -639l232 -4l-19 -41l-35 -25q-123 -30 -250 -30q-59 0 -106 18l102 866l-204 29l6 45q79 26 383 55l-27 -155q58 79 143 123.5t172 44.5q110 0 166 -57.5t56 -186.5 q0 -67 -72 -682l229 -4l-18 -41l-35 -25q-123 -30 -250 -30q-60 0 -106 18zM651 1104l-33 39q66 61 187 187.5t184 187.5q81 -66 115 -150q-241 -126 -453 -264z" />
<glyph unicode="&#x145;" horiz-adv-x="1400" d="M1034 1278l23 45h475l-14 -43l-37 -23l-160 -34l-76 -727q-11 -126 -30.5 -297t-30.5 -213l-33 -19l-137 195l-471 815l-86 153l-13 -174l-86 -858l168 -30l6 -23l-22 -45h-475l14 43l37 23l160 34l114 1123l-167 32l-7 23l23 45h330l505 -891l74 -141l15 180l75 752 l-168 32zM819 -76q2 -114 -46 -208.5t-187 -196.5l-37 41q61 58 88 111.5t27.5 105.5t-0.5 123q51 24 155 24z" />
<glyph unicode="&#x146;" horiz-adv-x="1114" d="M756 6l75 639q13 93 8.5 148t-36.5 77.5t-107 22.5q-83 0 -150.5 -42.5t-80.5 -123.5l-76 -639l232 -4l-19 -41l-35 -25q-123 -30 -250 -30q-59 0 -106 18l102 866l-204 29l6 45q79 26 383 55l-27 -155q58 79 143 123.5t172 44.5q110 0 166 -57.5t56 -186.5 q0 -67 -72 -682l229 -4l-18 -41l-35 -25q-123 -30 -250 -30q-60 0 -106 18zM686 -96q2 -114 -46 -209t-187 -197l-37 41q61 58 87.5 112t27 105.5t-0.5 122.5q53 25 156 25z" />
<glyph unicode="&#x147;" horiz-adv-x="1400" d="M1034 1278l23 45h475l-14 -43l-37 -23l-160 -34l-76 -727q-11 -126 -30.5 -297t-30.5 -213l-33 -19l-137 195l-471 815l-86 153l-13 -174l-86 -858l168 -30l6 -23l-22 -45h-475l14 43l37 23l160 34l114 1123l-167 32l-7 23l23 45h330l505 -891l74 -141l15 180l75 752 l-168 32zM918 1468l-80 -14q-127 99 -260 229l38 52q220 -126 265 -148q108 45 311 154l29 -51q-124 -104 -303 -222z" />
<glyph unicode="&#x148;" horiz-adv-x="1114" d="M756 6l75 639q13 93 8.5 148t-36.5 77.5t-107 22.5q-83 0 -150.5 -42.5t-80.5 -123.5l-76 -639l232 -4l-19 -41l-35 -25q-123 -30 -250 -30q-59 0 -106 18l102 866l-204 29l6 45q79 26 383 55l-27 -155q58 79 143 123.5t172 44.5q110 0 166 -57.5t56 -186.5 q0 -67 -72 -682l229 -4l-18 -41l-35 -25q-123 -30 -250 -30q-60 0 -106 18zM772 1157l-104 -24q-34 42 -68 90t-78.5 113t-70.5 102l55 47l215 -213l258 211l39 -41q-167 -212 -246 -285z" />
<glyph unicode="&#x149;" horiz-adv-x="1312" d="M954 6l76 639q13 93 8.5 148t-36.5 77.5t-107 22.5q-83 0 -150.5 -42.5t-80.5 -123.5l-76 -639l231 -4l-18 -41l-35 -25q-123 -30 -250 -30q-59 0 -106 18l102 866l-205 29l6 45q79 26 383 55l-26 -155q58 79 143 123.5t172 44.5q110 0 165.5 -57.5t55.5 -186.5 q0 -75 -71 -682l229 -4l-18 -41l-35 -25q-123 -30 -250 -30q-61 0 -107 18zM438 1491l-258 -410h-69q10 22 26.5 58.5t21.5 47t16 38t15.5 43.5t14.5 51t18.5 72t22.5 96q40 11 98.5 12.5t93.5 -8.5z" />
<glyph unicode="&#x14a;" horiz-adv-x="1400" d="M1034 1278l23 45h475l-14 -43l-37 -23l-160 -34l-90 -873q-31 -267 -55.5 -372t-57.5 -166q-79 -86 -205 -86q-117 0 -165 51l-9 67q199 -9 312 27q27 104 34 188l-71 103l-479 829l-76 139l-15 -163l-86 -869l168 -30l6 -23l-22 -45h-475l14 43l37 23l160 34l114 1123 l-167 32l-7 23l23 45h330l518 -913l59 -113l12 137l80 789l-168 32z" />
<glyph unicode="&#x14b;" horiz-adv-x="1048" d="M410 -369l-9 64q99 -4 188 3.5t138 22.5q14 49 25.5 149t22 233.5t13.5 166.5l43 375q13 93 8.5 148t-36.5 77.5t-107 22.5q-83 0 -150.5 -42.5t-80.5 -123.5l-76 -639l232 -4l-19 -41l-35 -25q-123 -30 -250 -30q-59 0 -106 18l102 866l-204 29l6 45q79 26 383 55 l-27 -155q58 79 143 123.5t172 44.5q110 0 166 -57.5t56 -186.5q0 -79 -39 -371q-48 -369 -77.5 -525t-57.5 -208q-79 -86 -248 -86q-52 0 -103.5 14.5t-72.5 36.5z" />
<glyph unicode="&#x14c;" horiz-adv-x="1257" d="M555 1610h569q-4 -26 -28.5 -58.5t-48.5 -46.5h-539q19 73 47 105zM627 84q86 0 151 27t109 73.5t75 121.5t48.5 159t29.5 199q16 134 11 241t-33.5 181.5t-95.5 114.5t-174 40q-86 0 -150.5 -26.5t-108 -72.5t-73.5 -121t-47 -158.5t-29 -198.5q-17 -134 -12.5 -241.5 t32 -182.5t94 -115.5t173.5 -40.5zM614 -20q-100 0 -179.5 25.5t-132.5 71.5t-90 110t-52.5 140t-20 161.5t7.5 175.5q11 110 39.5 208t79 185.5t118.5 150t164 99t210 36.5q100 0 180 -25.5t133.5 -71t91.5 -108.5t54.5 -138.5t22 -160.5t-6.5 -175q-12 -112 -39.5 -209.5 t-77.5 -186.5t-118 -151.5t-166.5 -99.5t-217.5 -37z" />
<glyph unicode="&#x14d;" horiz-adv-x="1005" d="M406 1343h569q-6 -26 -30.5 -58.5t-49.5 -45.5h-539q18 70 50 104zM614 1014q112 0 188.5 -38t113 -106.5t49 -164t-3.5 -209.5q-13 -108 -47 -199.5t-89 -163.5t-137.5 -112.5t-183.5 -40.5q-107 0 -182.5 38t-114.5 106.5t-53 164t2 209.5q17 143 74.5 258.5 t157.5 186.5t226 71zM604 922q-48 0 -86.5 -15t-66 -44.5t-47.5 -65.5t-33.5 -87t-22 -100t-14.5 -112q-4 -46 -6 -71t-4.5 -67t-0.5 -66.5t6 -59t13 -55t23.5 -43.5t35 -35t49 -20.5t64.5 -8.5q57 0 101 22.5t72 59.5t47.5 94t29 114.5t16.5 133.5q15 180 9 245 q-14 143 -117 172q-30 9 -68 9z" />
<glyph unicode="&#x14e;" horiz-adv-x="1257" d="M1032 1722l90 17q-14 -138 -101.5 -218.5t-246.5 -80.5q-135 0 -200 77.5t-54 188.5l84 23q-8 -89 43 -126.5t144 -37.5q116 0 174 37t67 120zM627 84q86 0 151 27t109 73.5t75 121.5t48.5 159t29.5 199q16 134 11 241t-33.5 181.5t-95.5 114.5t-174 40 q-86 0 -150.5 -26.5t-108 -72.5t-73.5 -121t-47 -158.5t-29 -198.5q-17 -134 -12.5 -241.5t32 -182.5t94 -115.5t173.5 -40.5zM614 -20q-100 0 -179.5 25.5t-132.5 71.5t-90 110t-52.5 140t-20 161.5t7.5 175.5q11 110 39.5 208t79 185.5t118.5 150t164 99t210 36.5 q100 0 180 -25.5t133.5 -71t91.5 -108.5t54.5 -138.5t22 -160.5t-6.5 -175q-12 -112 -39.5 -209.5t-77.5 -186.5t-118 -151.5t-166.5 -99.5t-217.5 -37z" />
<glyph unicode="&#x14f;" horiz-adv-x="1005" d="M874 1456l91 17q-15 -155 -96.5 -243.5t-213.5 -88.5q-131 0 -191.5 83.5t-47.5 215.5l86 22q-7 -59 3 -98.5t36.5 -58.5t57.5 -26t77 -7q97 0 142.5 38t55.5 146zM614 1014q112 0 188.5 -38t113 -106.5t49 -164t-3.5 -209.5q-13 -108 -47 -199.5t-89 -163.5 t-137.5 -112.5t-183.5 -40.5q-107 0 -182.5 38t-114.5 106.5t-53 164t2 209.5q17 143 74.5 258.5t157.5 186.5t226 71zM604 922q-48 0 -86.5 -15t-66 -44.5t-47.5 -65.5t-33.5 -87t-22 -100t-14.5 -112q-4 -46 -6 -71t-4.5 -67t-0.5 -66.5t6 -59t13 -55t23.5 -43.5t35 -35 t49 -20.5t64.5 -8.5q57 0 101 22.5t72 59.5t47.5 94t29 114.5t16.5 133.5q15 180 9 245q-14 143 -117 172q-30 9 -68 9z" />
<glyph unicode="&#x150;" horiz-adv-x="1257" d="M602 1434l-39 26q7 11 80 133.5t119 194.5q87 -46 129 -96q-13 -11 -49.5 -41.5t-52.5 -44t-46.5 -40t-50 -44.5t-44.5 -42t-46 -46zM903 1436l-31 34q31 36 111.5 136.5t132.5 160.5q70 -52 111 -116q-245 -153 -324 -215zM627 84q86 0 151 27t109 73.5t75 121.5 t48.5 159t29.5 199q16 134 11 241t-33.5 181.5t-95.5 114.5t-174 40q-86 0 -150.5 -26.5t-108 -72.5t-73.5 -121t-47 -158.5t-29 -198.5q-17 -134 -12.5 -241.5t32 -182.5t94 -115.5t173.5 -40.5zM614 -20q-100 0 -179.5 25.5t-132.5 71.5t-90 110t-52.5 140t-20 161.5 t7.5 175.5q11 110 39.5 208t79 185.5t118.5 150t164 99t210 36.5q100 0 180 -25.5t133.5 -71t91.5 -108.5t54.5 -138.5t22 -160.5t-6.5 -175q-12 -112 -39.5 -209.5t-77.5 -186.5t-118 -151.5t-166.5 -99.5t-217.5 -37z" />
<glyph unicode="&#x151;" horiz-adv-x="1005" d="M444 1112l-36 25q45 64 111 184t106 184q93 -50 133 -102q-109 -91 -314 -291zM752 1112l-33 29q51 63 129 180t119 172q91 -66 120 -117q-163 -117 -335 -264zM614 1014q112 0 188.5 -38t113 -106.5t49 -164t-3.5 -209.5q-13 -108 -47 -199.5t-89 -163.5t-137.5 -112.5 t-183.5 -40.5q-107 0 -182.5 38t-114.5 106.5t-53 164t2 209.5q17 143 74.5 258.5t157.5 186.5t226 71zM604 922q-48 0 -86.5 -15t-66 -44.5t-47.5 -65.5t-33.5 -87t-22 -100t-14.5 -112q-4 -46 -6 -71t-4.5 -67t-0.5 -66.5t6 -59t13 -55t23.5 -43.5t35 -35t49 -20.5 t64.5 -8.5q57 0 101 22.5t72 59.5t47.5 94t29 114.5t16.5 133.5q15 180 9 245q-14 143 -117 172q-30 9 -68 9z" />
<glyph unicode="&#x152;" horiz-adv-x="1722" d="M1606 379l65 16q-36 -213 -72 -395h-901q-130 0 -231 34.5t-166.5 94.5t-104.5 144t-50.5 180t-0.5 206q12 115 42 212.5t84.5 182t129.5 143.5t181.5 92.5t236.5 33.5h903q-19 -195 -49 -346l-53 12l-57 240h-457l-51 -514h516q-1 -33 -48 -60t-96 -39h-383l-53 -522 h443zM338 659q-33 -296 57.5 -430.5t311.5 -134.5h106l117 1135h-103q-122 0 -207.5 -32.5t-143 -104.5t-89.5 -176t-49 -257z" />
<glyph unicode="&#x153;" horiz-adv-x="1505" d="M614 1014q121 0 192 -44t107 -128q114 172 320 172q73 0 128 -23t84.5 -61t42 -82.5t7.5 -91.5q-18 -169 -147.5 -231.5t-401.5 -51.5q-9 -79 -5 -149t21 -122t61.5 -82t115.5 -30q107 0 272 96l14 -24l-8 -45q-84 -70 -166 -103.5t-176 -33.5q-201 0 -252 170 q-98 -170 -319 -170q-107 0 -182.5 38t-114.5 106.5t-53 164t2 209.5q17 143 74.5 258.5t157.5 186.5t226 71zM604 922q-48 0 -86.5 -15t-66 -44.5t-47.5 -65.5t-33.5 -87t-22 -100t-14.5 -112q-4 -46 -6 -71t-4.5 -67t-0.5 -66.5t6 -59t13 -55t23.5 -43.5t35 -35t49 -20.5 t64.5 -8.5q57 0 101 22.5t72 59.5t47.5 94t29 114.5t16.5 133.5q15 180 9 245q-14 143 -117 172q-30 9 -68 9zM1212 930q-104 0 -165 -101t-95 -299q74 1 121 4t92.5 11t71.5 22t48.5 38t33.5 57.5t16 80.5q5 32 1.5 65.5t-13 60.5t-38 44t-73.5 17z" />
<glyph unicode="&#x154;" horiz-adv-x="1277" d="M559 49l-20 -49h-504l14 43l37 23l160 34l114 1123l-167 32l-7 23l23 45h557q239 0 336.5 -97.5t77.5 -285.5q-14 -137 -113.5 -222t-271.5 -97l321 -525l176 -26l-20 -41l-31 -21q-57 -16 -143 -16q-98 0 -140 14l-344 600h-139l-51 -504l127 -30zM727 1225h-190 l-54 -533h224q147 0 214 66t80 194q7 68 -2 116.5t-39 85t-87.5 54t-145.5 17.5zM641 1458l-18 51q30 15 58.5 30t61 34t54 31t60.5 36.5t56 35t65.5 41.5t65.5 42q57 -89 66 -176q-327 -78 -469 -125z" />
<glyph unicode="&#x155;" horiz-adv-x="780" d="M500 1001l-58 -413l121 96l185 309l65 8q6 -66 -4.5 -138t-26.5 -111q-9 -13 -26.5 -28.5t-45.5 -34.5t-49.5 -33.5t-61 -37.5t-56.5 -32.5t-59.5 -33t-47.5 -26.5l-55 -436l252 -6l-19 -41l-34 -25q-62 -15 -143.5 -22.5t-125.5 -7.5q-64 0 -110 18l110 866l-202 29 l6 45q78 26 385 55zM530 1104l-32 39q66 61 186 187t184 188q81 -66 115 -150q-241 -126 -453 -264z" />
<glyph unicode="&#x156;" horiz-adv-x="1277" d="M559 49l-20 -49h-504l14 43l37 23l160 34l114 1123l-167 32l-7 23l23 45h557q239 0 336.5 -97.5t77.5 -285.5q-14 -137 -113.5 -222t-271.5 -97l321 -525l176 -26l-20 -41l-31 -21q-57 -16 -143 -16q-98 0 -140 14l-344 600h-139l-51 -504l127 -30zM727 1225h-190 l-54 -533h224q147 0 214 66t80 194q7 68 -2 116.5t-39 85t-87.5 54t-145.5 17.5zM797 -76q2 -113 -46.5 -208t-187.5 -197l-37 41q61 58 88 111.5t27.5 105.5t-0.5 123q51 24 156 24z" />
<glyph unicode="&#x157;" horiz-adv-x="780" d="M500 1001l-58 -413l121 96l185 309l65 8q6 -66 -4.5 -138t-26.5 -111q-9 -13 -26.5 -28.5t-45.5 -34.5t-49.5 -33.5t-61 -37.5t-56.5 -32.5t-59.5 -33t-47.5 -26.5l-55 -436l252 -6l-19 -41l-34 -25q-62 -15 -143.5 -22.5t-125.5 -7.5q-64 0 -110 18l110 866l-202 29 l6 45q78 26 385 55zM461 -96q2 -114 -46.5 -209t-187.5 -197l-37 41q61 58 88 111.5t27.5 105.5t-0.5 123q53 25 156 25z" />
<glyph unicode="&#x158;" horiz-adv-x="1277" d="M559 49l-20 -49h-504l14 43l37 23l160 34l114 1123l-167 32l-7 23l23 45h557q239 0 336.5 -97.5t77.5 -285.5q-14 -137 -113.5 -222t-271.5 -97l321 -525l176 -26l-20 -41l-31 -21q-57 -16 -143 -16q-98 0 -140 14l-344 600h-139l-51 -504l127 -30zM727 1225h-190 l-54 -533h224q147 0 214 66t80 194q7 68 -2 116.5t-39 85t-87.5 54t-145.5 17.5zM793 1468l-80 -14q-127 99 -260 229l39 52q20 -11 64 -36.5t72 -42t64.5 -36.5t63.5 -33q108 45 311 154l29 -51q-124 -104 -303 -222z" />
<glyph unicode="&#x159;" horiz-adv-x="780" d="M500 1001l-58 -413l121 96l185 309l65 8q6 -66 -4.5 -138t-26.5 -111q-9 -13 -26.5 -28.5t-45.5 -34.5t-49.5 -33.5t-61 -37.5t-56.5 -32.5t-59.5 -33t-47.5 -26.5l-55 -436l252 -6l-19 -41l-34 -25q-62 -15 -143.5 -22.5t-125.5 -7.5q-64 0 -110 18l110 866l-202 29 l6 45q78 26 385 55zM651 1157l-104 -24q-34 42 -68 90t-78.5 113t-70.5 102l55 47l215 -213l258 211l39 -41q-167 -212 -246 -285z" />
<glyph unicode="&#x15a;" horiz-adv-x="1060" d="M141 477l64 -18q37 -170 106 -328q96 -47 248 -47q275 0 301 170q8 51 -11.5 96.5t-58 82t-90.5 71.5t-110 69t-115.5 69.5t-108 78.5t-86.5 91t-51 111.5t-2 135.5q24 136 153.5 210t321.5 74q141 0 249 -41t130 -112q-53 -202 -106 -322h-60l3 322q-83 49 -228 49 q-150 0 -227.5 -46.5t-91.5 -139.5q-7 -47 12.5 -89.5t57.5 -77t89.5 -68t109 -66.5t115 -67.5t108.5 -76.5t89 -88.5t57 -108t11 -130.5q-7 -68 -41.5 -122t-83 -86.5t-109.5 -54t-117 -30t-110 -8.5q-181 0 -299 47.5t-139 107.5q-4 121 20 342zM590 1458l-19 51 q27 13 54.5 28t48.5 26t52.5 30t47 28t53.5 33t50 31.5t58 36.5t58 37q57 -89 66 -176q-327 -78 -469 -125z" />
<glyph unicode="&#x15b;" horiz-adv-x="870" d="M858 850q-26 -117 -92 -209h-49l-2 248q-51 33 -154 33q-82 0 -132.5 -34t-61.5 -95q-10 -54 10.5 -99.5t61.5 -78.5t92 -63.5t103 -64t93.5 -71t63.5 -91.5t14 -120q-12 -100 -113.5 -162.5t-257.5 -62.5q-104 0 -184.5 27.5t-104.5 78.5q3 125 33 252l49 -19 q12 -78 45 -208q62 -39 183 -39q165 0 186 116q9 45 -12.5 84t-61.5 69t-90 60t-99.5 65t-89 75t-58.5 98.5t-7 128.5q18 105 114 175.5t243 70.5q70 0 131.5 -17t104 -55.5t42.5 -91.5zM545 1104l-33 39q66 61 187 187.5t184 187.5q34 -28 66 -68.5t48 -81.5 q-235 -124 -452 -264z" />
<glyph unicode="&#x15c;" horiz-adv-x="1060" d="M141 477l64 -18q37 -170 106 -328q96 -47 248 -47q275 0 301 170q8 51 -11.5 96.5t-58 82t-90.5 71.5t-110 69t-115.5 69.5t-108 78.5t-86.5 91t-51 111.5t-2 135.5q24 136 153.5 210t321.5 74q141 0 249 -41t130 -112q-53 -202 -106 -322h-60l3 322q-83 49 -228 49 q-150 0 -227.5 -46.5t-91.5 -139.5q-7 -47 12.5 -89.5t57.5 -77t89.5 -68t109 -66.5t115 -67.5t108.5 -76.5t89 -88.5t57 -108t11 -130.5q-7 -68 -41.5 -122t-83 -86.5t-109.5 -54t-117 -30t-110 -8.5q-181 0 -299 47.5t-139 107.5q-4 121 20 342zM684 1729l80 14 q122 -95 260 -230l-39 -51q-20 11 -64 36.5t-72 42t-64.5 36.5t-63.5 33q-108 -45 -311 -154l-29 51q124 104 303 222z" />
<glyph unicode="&#x15d;" horiz-adv-x="870" d="M858 850q-26 -117 -92 -209h-49l-2 248q-51 33 -154 33q-82 0 -132.5 -34t-61.5 -95q-10 -54 10.5 -99.5t61.5 -78.5t92 -63.5t103 -64t93.5 -71t63.5 -91.5t14 -120q-12 -100 -113.5 -162.5t-257.5 -62.5q-104 0 -184.5 27.5t-104.5 78.5q3 125 33 252l49 -19 q12 -78 45 -208q62 -39 183 -39q165 0 186 116q9 45 -12.5 84t-61.5 69t-90 60t-99.5 65t-89 75t-58.5 98.5t-7 128.5q18 105 114 175.5t243 70.5q70 0 131.5 -17t104 -55.5t42.5 -91.5zM573 1456l105 25q34 -42 68 -90t78.5 -113t70.5 -102l-55 -48l-215 213l-258 -211 l-39 41q170 216 245 285z" />
<glyph unicode="&#x15e;" horiz-adv-x="1060" d="M1081 1190q-53 -202 -106 -322h-60l3 322q-83 49 -228 49q-150 0 -227.5 -46.5t-91.5 -139.5q-7 -47 12.5 -89.5t57.5 -77t89.5 -68t109 -66.5t115 -67.5t108.5 -76.5t89 -88.5t57 -108t11 -130.5q-7 -68 -41.5 -122t-83 -86.5t-109.5 -54t-117 -30t-110 -8.5l-12 -60 q100 -3 150.5 -47.5t41.5 -114.5q-7 -70 -79 -115.5t-175 -45.5q-69 0 -119 20t-69 49l2 27l23 16q21 -18 61 -29.5t78 -11.5q67 0 98 24t37 75q14 102 -86 102q-35 0 -53 -2l6 117q-142 11 -234 55.5t-108 95.5q-4 121 20 342l64 -18q37 -170 106 -328q96 -47 248 -47 q275 0 301 170q8 51 -11.5 96.5t-58 82t-90.5 71.5t-110 69t-115.5 69.5t-108 78.5t-86.5 91t-51 111.5t-2 135.5q24 136 153.5 210t321.5 74q141 0 249 -41t130 -112z" />
<glyph unicode="&#x15f;" horiz-adv-x="870" d="M858 850q-26 -117 -92 -209h-49l-2 248q-51 33 -154 33q-82 0 -132.5 -34t-61.5 -95q-10 -54 10.5 -99.5t61.5 -78.5t92 -63.5t103 -64t93.5 -71t63.5 -91.5t14 -120q-10 -91 -94.5 -151t-218.5 -72l-19 -82q100 -3 151 -47.5t42 -114.5q-7 -70 -79 -116t-175 -46 q-69 0 -119.5 20.5t-69.5 49.5l2 26l23 17q21 -18 61 -29.5t78 -11.5q67 0 98 23.5t37 74.5q14 102 -86 102q-35 0 -53 -2l8 136q-91 5 -158 31.5t-88 72.5q3 125 33 252l49 -19q12 -78 45 -208q62 -39 183 -39q165 0 186 116q9 45 -12.5 84t-61.5 69t-90 60t-99.5 65 t-89 75t-58.5 98.5t-7 128.5q18 105 114 175.5t243 70.5q70 0 131.5 -17t104 -55.5t42.5 -91.5z" />
<glyph unicode="&#x160;" horiz-adv-x="1060" d="M141 477l64 -18q37 -170 106 -328q96 -47 248 -47q275 0 301 170q8 51 -11.5 96.5t-58 82t-90.5 71.5t-110 69t-115.5 69.5t-108 78.5t-86.5 91t-51 111.5t-2 135.5q24 136 153.5 210t321.5 74q141 0 249 -41t130 -112q-53 -202 -106 -322h-60l3 322q-83 49 -228 49 q-150 0 -227.5 -46.5t-91.5 -139.5q-7 -47 12.5 -89.5t57.5 -77t89.5 -68t109 -66.5t115 -67.5t108.5 -76.5t89 -88.5t57 -108t11 -130.5q-7 -68 -41.5 -122t-83 -86.5t-109.5 -54t-117 -30t-110 -8.5q-181 0 -299 47.5t-139 107.5q-4 121 20 342zM741 1468l-79 -14 q-132 103 -261 229l39 52q220 -126 265 -148q108 45 311 154l28 -51q-124 -104 -303 -222z" />
<glyph unicode="&#x161;" horiz-adv-x="870" d="M858 850q-26 -117 -92 -209h-49l-2 248q-51 33 -154 33q-82 0 -132.5 -34t-61.5 -95q-10 -54 10.5 -99.5t61.5 -78.5t92 -63.5t103 -64t93.5 -71t63.5 -91.5t14 -120q-12 -100 -113.5 -162.5t-257.5 -62.5q-104 0 -184.5 27.5t-104.5 78.5q3 125 33 252l49 -19 q12 -78 45 -208q62 -39 183 -39q165 0 186 116q9 45 -12.5 84t-61.5 69t-90 60t-99.5 65t-89 75t-58.5 98.5t-7 128.5q18 105 114 175.5t243 70.5q70 0 131.5 -17t104 -55.5t42.5 -91.5zM666 1157l-105 -24q-34 42 -68 90t-78.5 113t-70.5 102l55 47l215 -213l258 211 l39 -41q-170 -216 -245 -285z" />
<glyph unicode="&#x162;" horiz-adv-x="1093" d="M821 45l-22 -45h-541l14 43l37 23l160 34l123 1125h-256q-38 -82 -184 -361l-46 -12l74 471h1028q-8 -81 -28 -234.5t-35 -236.5l-41 12q-8 35 -66 361h-268l-123 -1127l168 -30zM633 -76q2 -113 -46.5 -208t-187.5 -197l-37 41q61 58 88 111.5t27.5 105.5t-0.5 123 q51 24 156 24z" />
<glyph unicode="&#x163;" horiz-adv-x="681" d="M150 956l153 19q65 226 127 330l72 20l-37 -350l283 -4q-32 -62 -60 -94h-233q-8 -71 -26.5 -214.5t-25.5 -199.5q-24 -209 -24 -281q0 -41 18 -60.5t58 -19.5q111 0 245 84l17 -26l-10 -41q-159 -139 -328 -139q-93 0 -129.5 49.5t-36.5 150.5q0 64 13 189t59 508 l-166 6q9 39 31 73zM487 -96q2 -114 -46 -209t-187 -197l-37 41q61 58 88 111.5t27.5 105.5t-0.5 123q53 25 155 25z" />
<glyph unicode="&#x164;" horiz-adv-x="1093" d="M821 45l-22 -45h-541l14 43l37 23l160 34l123 1125h-256q-38 -82 -184 -361l-46 -12l74 471h1028q-8 -81 -28 -234.5t-35 -236.5l-41 12q-8 35 -66 361h-268l-123 -1127l168 -30zM756 1468l-80 -14q-127 99 -260 229l39 52q20 -11 64 -36.5t72 -42t64.5 -36.5t63.5 -33 q108 45 311 154l29 -51q-124 -104 -303 -222z" />
<glyph unicode="&#x165;" horiz-adv-x="702" d="M150 956l153 19q65 226 127 330l72 20l-37 -350l283 -4q-32 -62 -60 -94h-233q-8 -71 -26.5 -214.5t-25.5 -199.5q-24 -209 -24 -281q0 -41 18 -60.5t58 -19.5q111 0 245 84l17 -26l-10 -41q-159 -139 -328 -139q-93 0 -129.5 49.5t-36.5 150.5q0 64 13 189t59 508 l-166 6q9 39 31 73zM825 1462l-223 -368l-41 18q43 114 57 170t29 178q41 10 91.5 11t86.5 -9z" />
<glyph unicode="&#x166;" horiz-adv-x="1093" d="M258 0l14 43l37 23l160 34l55 496h-278q8 44 37 80h249l62 549h-258q-38 -82 -184 -361l-46 -12l74 471h1028q-8 -81 -28 -234.5t-35 -236.5l-41 12q-8 35 -66 361h-266l-61 -549h278q-5 -44 -67 -80h-220l-55 -498l168 -30l6 -23l-22 -45h-541z" />
<glyph unicode="&#x167;" horiz-adv-x="714" d="M442 1305l72 20l-37 -350l283 -4q-32 -62 -60 -94h-233l-41 -330h238q-5 -41 -68 -78h-180v-6q-25 -217 -25 -281q0 -41 18 -60.5t58 -19.5q112 0 246 84l16 -26l-10 -41q-159 -139 -328 -139q-93 0 -129.5 49.5t-36.5 150.5q0 87 23 289h-146q7 42 37 78h119l39 330 l-166 6q9 39 31 73l153 19q65 226 127 330z" />
<glyph unicode="&#x168;" horiz-adv-x="1347" d="M983 1278l23 45h487l-14 -43l-37 -23l-162 -34l-82 -754q-9 -81 -30.5 -150t-62 -133t-97.5 -108.5t-142 -71t-190 -26.5q-258 0 -359.5 123.5t-72.5 390.5l80 729l-166 32l-6 23l22 45h539l-15 -43l-36 -23l-162 -34l-84 -756q-20 -196 46 -280.5t247 -84.5 q165 0 252.5 86t109.5 273l84 762l-166 32zM696 1548l-118 -96l-43 29q11 13 33 40.5t33.5 40t31.5 32t42.5 33.5t51.5 26q47 -8 171 -47t165 -50l123 103l37 -19q-11 -24 -22.5 -44t-20 -34.5t-22 -29t-19 -21.5t-21 -18t-18.5 -13.5t-20 -13.5t-19 -12q-161 5 -365 94z " />
<glyph unicode="&#x169;" horiz-adv-x="1087" d="M485 1001l-84 -682q-7 -68 -7.5 -118t27 -79.5t87.5 -29.5q93 0 164.5 61.5t87.5 143.5v-8l67 569l-209 29l7 49q101 34 385 55l-107 -901l240 -6l-19 -41l-34 -25q-123 -30 -250 -30q-68 0 -115 18l25 182q-38 -74 -93 -122.5t-106 -67t-102 -18.5q-50 0 -89 14.5 t-63 38.5t-39 57.5t-21 67t-6 71.5q0 106 68 643l-205 29l6 45q78 26 385 55zM541 1278l-113 -92l-43 28q10 12 32.5 40t34 40.5t32 32t43 33.5t51.5 26q46 -8 150 -44t151 -48l116 99l37 -19q-11 -24 -22.5 -44t-20 -34.5t-22 -29t-19 -21.5t-21 -18t-18.5 -13.5t-20 -13.5 t-19 -12q-60 2 -124.5 17.5t-103.5 30.5t-101 42z" />
<glyph unicode="&#x16a;" horiz-adv-x="1347" d="M983 1278l23 45h487l-14 -43l-37 -23l-162 -34l-82 -754q-9 -81 -30.5 -150t-62 -133t-97.5 -108.5t-142 -71t-190 -26.5q-258 0 -359.5 123.5t-72.5 390.5l80 729l-166 32l-6 23l22 45h539l-15 -43l-36 -23l-162 -34l-84 -756q-20 -196 46 -280.5t247 -84.5 q165 0 252.5 86t109.5 273l84 762l-166 32zM631 1610h569q-4 -26 -29 -58.5t-49 -46.5h-538q19 73 47 105z" />
<glyph unicode="&#x16b;" horiz-adv-x="1087" d="M485 1001l-84 -682q-7 -68 -7.5 -118t27 -79.5t87.5 -29.5q93 0 164.5 61.5t87.5 143.5v-8l67 569l-209 29l7 49q101 34 385 55l-107 -901l240 -6l-19 -41l-34 -25q-123 -30 -250 -30q-68 0 -115 18l25 182q-38 -74 -93 -122.5t-106 -67t-102 -18.5q-50 0 -89 14.5 t-63 38.5t-39 57.5t-21 67t-6 71.5q0 106 68 643l-205 29l6 45q78 26 385 55zM442 1343h570q-6 -26 -30.5 -58.5t-49.5 -45.5h-539q19 72 49 104z" />
<glyph unicode="&#x16c;" horiz-adv-x="1347" d="M983 1278l23 45h487l-14 -43l-37 -23l-162 -34l-82 -754q-9 -81 -30.5 -150t-62 -133t-97.5 -108.5t-142 -71t-190 -26.5q-258 0 -359.5 123.5t-72.5 390.5l80 729l-166 32l-6 23l22 45h539l-15 -43l-36 -23l-162 -34l-84 -756q-20 -196 46 -280.5t247 -84.5 q165 0 252.5 86t109.5 273l84 762l-166 32zM1108 1722l90 17q-14 -138 -101.5 -218.5t-246.5 -80.5q-135 0 -200 77.5t-54 188.5l84 23q-8 -89 43 -126.5t143 -37.5q116 0 174.5 37t67.5 120z" />
<glyph unicode="&#x16d;" horiz-adv-x="1087" d="M485 1001l-84 -682q-7 -68 -7.5 -118t27 -79.5t87.5 -29.5q93 0 164.5 61.5t87.5 143.5v-8l67 569l-209 29l7 49q101 34 385 55l-107 -901l240 -6l-19 -41l-34 -25q-123 -30 -250 -30q-68 0 -115 18l25 182q-38 -74 -93 -122.5t-106 -67t-102 -18.5q-50 0 -89 14.5 t-63 38.5t-39 57.5t-21 67t-6 71.5q0 106 68 643l-205 29l6 45q78 26 385 55zM911 1456l90 17q-15 -155 -96 -243.5t-213 -88.5q-131 0 -191.5 83.5t-47.5 215.5l86 22q-7 -59 3 -98.5t36.5 -58.5t57.5 -26t77 -7q97 0 142.5 38t55.5 146z" />
<glyph unicode="&#x16e;" horiz-adv-x="1347" d="M983 1278l23 45h487l-14 -43l-37 -23l-162 -34l-82 -754q-9 -81 -30.5 -150t-62 -133t-97.5 -108.5t-142 -71t-190 -26.5q-258 0 -359.5 123.5t-72.5 390.5l80 729l-166 32l-6 23l22 45h539l-15 -43l-36 -23l-162 -34l-84 -756q-20 -196 46 -280.5t247 -84.5 q165 0 252.5 86t109.5 273l84 762l-166 32zM909 1784q91 0 141 -50.5t42 -131.5q-9 -83 -67.5 -133t-158.5 -50q-91 0 -138.5 52.5t-39.5 130.5q8 80 69 131t152 51zM987 1602q12 118 -84 118q-56 0 -82.5 -28.5t-32.5 -89.5q-6 -59 16.5 -89t67.5 -30q57 0 83 28.5t32 90.5 z" />
<glyph unicode="&#x16f;" horiz-adv-x="1087" d="M485 1001l-84 -682q-7 -68 -7.5 -118t27 -79.5t87.5 -29.5q93 0 164.5 61.5t87.5 143.5v-8l67 569l-209 29l7 49q101 34 385 55l-107 -901l240 -6l-19 -41l-34 -25q-123 -30 -250 -30q-68 0 -115 18l25 182q-38 -74 -93 -122.5t-106 -67t-102 -18.5q-50 0 -89 14.5 t-63 38.5t-39 57.5t-21 67t-6 71.5q0 106 68 643l-205 29l6 45q78 26 385 55zM739 1530q98 0 155 -58t48 -149q-9 -93 -75.5 -150t-174.5 -57q-99 0 -153 59.5t-45 147.5q7 90 76.5 148.5t168.5 58.5zM827 1323q12 139 -94 139q-62 0 -91.5 -34t-37.5 -105q-6 -67 18.5 -103 t75.5 -36q63 0 92 34t37 105z" />
<glyph unicode="&#x170;" horiz-adv-x="1347" d="M983 1278l23 45h487l-14 -43l-37 -23l-162 -34l-82 -754q-9 -81 -30.5 -150t-62 -133t-97.5 -108.5t-142 -71t-190 -26.5q-258 0 -359.5 123.5t-72.5 390.5l80 729l-166 32l-6 23l22 45h539l-15 -43l-36 -23l-162 -34l-84 -756q-20 -196 46 -280.5t247 -84.5 q165 0 252.5 86t109.5 273l84 762l-166 32zM678 1434l-39 26q7 11 80 133.5t119 194.5q87 -46 129 -96q-13 -11 -49.5 -41.5t-52.5 -44t-46.5 -40t-50 -44.5t-44.5 -42t-46 -46zM979 1436l-31 34q31 36 111.5 136.5t132.5 160.5q70 -52 111 -116q-245 -153 -324 -215z" />
<glyph unicode="&#x171;" horiz-adv-x="1087" d="M485 1001l-84 -682q-7 -68 -7.5 -118t27 -79.5t87.5 -29.5q93 0 164.5 61.5t87.5 143.5v-8l67 569l-209 29l7 49q101 34 385 55l-107 -901l240 -6l-19 -41l-34 -25q-123 -30 -250 -30q-68 0 -115 18l25 182q-38 -74 -93 -122.5t-106 -67t-102 -18.5q-50 0 -89 14.5 t-63 38.5t-39 57.5t-21 67t-6 71.5q0 106 68 643l-205 29l6 45q78 26 385 55zM481 1112l-37 25q46 65 112 185t106 183q93 -50 133 -102q-109 -91 -314 -291zM788 1112l-32 29q51 63 129 180t119 172q91 -66 120 -117q-169 -122 -336 -264z" />
<glyph unicode="&#x172;" horiz-adv-x="1347" d="M1493 1323l-14 -43l-37 -23l-162 -34l-82 -754q-41 -341 -283 -446q-74 -38 -123.5 -72.5t-76.5 -67t-38.5 -60t-14.5 -61.5q-4 -48 22 -74t74 -26q66 0 116 31l17 -21l-6 -26q-25 -29 -75.5 -49.5t-111.5 -20.5q-88 0 -136.5 43.5t-33.5 122.5q26 138 254 246 q-66 -8 -106 -8q-258 0 -359.5 123.5t-72.5 390.5l80 729l-166 32l-6 23l22 45h539l-15 -43l-36 -23l-162 -34l-84 -756q-20 -196 46 -280.5t247 -84.5q165 0 252.5 86t109.5 273l84 762l-166 32l-6 23l23 45h487z" />
<glyph unicode="&#x173;" horiz-adv-x="1087" d="M1010 991l-107 -901l240 -6l-19 -41l-34 -25q-117 -69 -168.5 -129.5t-57.5 -126.5q-4 -48 22 -74t75 -26q66 0 116 31l17 -21l-7 -26q-26 -29 -75.5 -49.5t-110.5 -20.5q-88 0 -136.5 43.5t-33.5 122.5q26 141 266 258q-102 -12 -157 -12q-68 0 -115 18l25 182 q-38 -74 -93 -122.5t-106 -67t-102 -18.5q-50 0 -89 14.5t-63 38.5t-39 57.5t-21 67t-6 71.5q0 106 68 643l-205 29l6 45q78 26 385 55l-84 -682q-7 -68 -7.5 -118t27 -79.5t87.5 -29.5q93 0 164.5 61.5t87.5 143.5v-8l67 569l-209 29l7 49q101 34 385 55z" />
<glyph unicode="&#x174;" horiz-adv-x="1544" d="M457 4l-54 -12q-24 154 -63 436q-5 34 -100 784l-109 60v24l19 27h468l-8 -41l-20 -22l-180 -50l92 -774l14 -172l62 137l325 680l60 31l184 -711l31 -145l59 172l279 756l-234 67l-8 27l22 45h379l-16 -63l-365 -943q-67 -168 -145 -313l-55 -12l-183 710l-32 150 l-62 -141l-184 -383q-3 -6 -16 -33.5t-17.5 -36.5t-16.5 -34t-18.5 -37t-18.5 -35t-21 -38t-20.5 -35.5t-23.5 -38.5zM954 1729l80 14q122 -95 260 -230l-39 -51q-20 11 -64 36.5t-72 42t-64.5 36.5t-63.5 33q-108 -45 -311 -154l-29 51q124 104 303 222z" />
<glyph unicode="&#x175;" horiz-adv-x="1488" d="M487 1001q-46 -209 -70 -418t-24 -329q0 -30 1 -51t6.5 -46.5t14.5 -41t26.5 -26.5t41.5 -11q82 0 143.5 89.5t90.5 233.5q13 66 23.5 129.5t15 96.5t15 119t15.5 124l-184 25l10 51q59 17 170 33.5t183 21.5q-45 -206 -68 -421.5t-23 -341.5q0 -94 15 -127t72 -33 q78 0 130 72t93 204q61 191 106 514l-190 27l10 51q52 18 164.5 33.5t195.5 21.5q-39 -295 -68 -421q-13 -55 -28 -105q-20 -68 -46 -131.5t-66.5 -131.5t-87 -118t-110.5 -82t-134 -32q-96 0 -139 62t-46 183q-43 -110 -124 -177.5t-187 -67.5q-107 0 -151.5 83t-44.5 259 q0 238 53 555l-193 24l6 45q73 25 383 55zM887 1456l104 25q34 -42 68 -90t78.5 -113t70.5 -102l-55 -48l-215 213l-258 -211l-39 41q167 212 246 285z" />
<glyph unicode="&#x176;" horiz-adv-x="1064" d="M598 1323l-10 -41l-19 -22l-178 -48l195 -440l57 -145l102 151l295 412l-206 65l-9 27l23 41h375l-17 -66q-83 -126 -283.5 -385.5t-240.5 -312.5l-49 -461l172 -30l6 -23l-23 -45h-540l14 43l37 23l164 34l49 443l-299 671l-86 58v24l18 27h453zM725 1729l80 14 q122 -95 260 -230l-39 -51q-20 11 -64 36.5t-72 42t-64.5 36.5t-63.5 33q-108 -45 -311 -154l-29 51q124 104 303 222z" />
<glyph unicode="&#x177;" horiz-adv-x="1040" d="M487 1001q-45 -209 -69.5 -417.5t-24.5 -325.5q0 -99 22.5 -134.5t82.5 -35.5q80 0 147 61t109 144q28 186 75 567l-204 29l6 49q51 18 170.5 33t208.5 22q-105 -854 -154 -1038q-17 -61 -32.5 -103.5t-40 -87.5t-60 -80t-82.5 -63q-51 -29 -115.5 -42t-113.5 -13 q-94 0 -179.5 23t-123.5 71v86q132 -59 290 -59q117 0 213 43q70 51 129 471q-54 -105 -126 -163t-185 -58q-108 0 -152.5 79.5t-44.5 243.5q0 91 15 255t41 319l-191 24l6 45q73 25 383 55zM655 1456l105 25q34 -42 68 -90t78.5 -113t70.5 -102l-55 -48l-215 213l-258 -211 l-39 41q170 216 245 285z" />
<glyph unicode="&#x178;" horiz-adv-x="1064" d="M598 1323l-10 -41l-19 -22l-178 -48l195 -440l57 -145l102 151l295 412l-206 65l-9 27l23 41h375l-17 -66q-83 -126 -283.5 -385.5t-240.5 -312.5l-49 -461l172 -30l6 -23l-23 -45h-540l14 43l37 23l164 34l49 443l-299 671l-86 58v24l18 27h453zM965 1468 q-47 0 -73 27.5t-26 69.5q0 46 31 78t84 32q45 0 71.5 -29t26.5 -67q0 -51 -30 -81t-84 -30zM543 1468q-47 0 -73 27.5t-26 69.5q0 46 31 78t84 32q45 0 71.5 -29t26.5 -67q0 -51 -30 -81t-84 -30z" />
<glyph unicode="&#x179;" horiz-adv-x="1101" d="M256 1323h881l18 -37q-39 -101 -154 -268l-735 -920h574l182 305l68 29q-52 -269 -95 -432h-948l12 63q157 222 470 613.5t429 548.5h-542q-67 -147 -185 -361l-49 -12zM594 1458l-19 51q27 13 54.5 28t48.5 26t52.5 30t47 28t53.5 33t50 31.5t58 36.5t58 37 q57 -89 66 -176q-327 -78 -469 -125z" />
<glyph unicode="&#x17a;" horiz-adv-x="899" d="M803 0h-729l14 66l627 790l-357 -2l-112 -223h-62q41 246 62 340q171 14 332 14h346l-21 -67l-637 -791h424l121 227h66q-9 -62 -74 -354zM563 1104l-33 39q66 61 187 187.5t184 187.5q81 -66 115 -150q-241 -126 -453 -264z" />
<glyph unicode="&#x17b;" horiz-adv-x="1101" d="M256 1323h881l18 -37q-39 -101 -154 -268l-735 -920h574l182 305l68 29q-52 -269 -95 -432h-948l12 63q157 222 470 613.5t429 548.5h-542q-67 -147 -185 -361l-49 -12zM719 1464q-53 0 -82 30t-29 77q0 53 34 89t93 36q51 0 81 -33t30 -76q0 -57 -33 -90t-94 -33z" />
<glyph unicode="&#x17c;" horiz-adv-x="899" d="M803 0h-729l14 66l627 790l-357 -2l-112 -223h-62q41 246 62 340q171 14 332 14h346l-21 -67l-637 -791h424l121 227h66q-9 -62 -74 -354zM647 1178q-53 0 -81.5 29.5t-28.5 76.5q0 53 34 89t93 36q51 0 80.5 -33t29.5 -76q0 -56 -33 -89t-94 -33z" />
<glyph unicode="&#x17d;" horiz-adv-x="1101" d="M256 1323h881l18 -37q-39 -101 -154 -268l-735 -920h574l182 305l68 29q-52 -269 -95 -432h-948l12 63q157 222 470 613.5t429 548.5h-542q-67 -147 -185 -361l-49 -12zM745 1468l-79 -14q-127 99 -260 229l38 52q220 -126 265 -148q108 45 311 154l29 -51 q-121 -101 -304 -222z" />
<glyph unicode="&#x17e;" horiz-adv-x="899" d="M803 0h-729l14 66l627 790l-357 -2l-112 -223h-62q41 246 62 340q171 14 332 14h346l-21 -67l-637 -791h424l121 227h66q-9 -62 -74 -354zM684 1157l-104 -24q-34 42 -68 89t-79.5 114t-70.5 102l56 47l215 -213l258 211l39 -41q-167 -212 -246 -285z" />
<glyph unicode="&#x192;" horiz-adv-x="839" d="M195 707h186l18 157q8 75 22 131.5t42.5 112t72 96.5t110 77t157.5 62q62 -16 139 -112l-47 -41q-29 1 -120.5 4.5t-147.5 3.5q-20 -43 -31.5 -121t-40.5 -344l-4 -26h285q-10 -43 -78 -80h-215l-13 -135q-13 -124 -49.5 -218t-114.5 -173t-196 -121q-47 13 -83 44.5 t-52 59.5l33 41l233 12q20 24 29 99l39 346l4 45h-226q16 46 48 80z" />
<glyph unicode="&#x218;" horiz-adv-x="1060" d="M141 477l64 -18q37 -170 106 -328q96 -47 248 -47q275 0 301 170q8 51 -11.5 96.5t-58 82t-90.5 71.5t-110 69t-115.5 69.5t-108 78.5t-86.5 91t-51 111.5t-2 135.5q24 136 153.5 210t321.5 74q141 0 249 -41t130 -112q-53 -202 -106 -322h-60l3 322q-83 49 -228 49 q-150 0 -227.5 -46.5t-91.5 -139.5q-7 -47 12.5 -89.5t57.5 -77t89.5 -68t109 -66.5t115 -67.5t108.5 -76.5t89 -88.5t57 -108t11 -130.5q-7 -68 -41.5 -122t-83 -86.5t-109.5 -54t-117 -30t-110 -8.5q-181 0 -299 47.5t-139 107.5q-4 121 20 342zM639 -76 q2 -114 -46 -208.5t-187 -196.5l-37 41q61 58 87.5 112t27 105.5t-0.5 122.5q51 24 156 24z" />
<glyph unicode="&#x219;" horiz-adv-x="870" d="M858 850q-26 -117 -92 -209h-49l-2 248q-51 33 -154 33q-82 0 -132.5 -34t-61.5 -95q-10 -54 10.5 -99.5t61.5 -78.5t92 -63.5t103 -64t93.5 -71t63.5 -91.5t14 -120q-12 -100 -113.5 -162.5t-257.5 -62.5q-104 0 -184.5 27.5t-104.5 78.5q3 125 33 252l49 -19 q12 -78 45 -208q62 -39 183 -39q165 0 186 116q9 45 -12.5 84t-61.5 69t-90 60t-99.5 65t-89 75t-58.5 98.5t-7 128.5q18 105 114 175.5t243 70.5q70 0 131.5 -17t104 -55.5t42.5 -91.5zM545 -96q2 -114 -46.5 -209t-187.5 -197l-37 41q61 58 88 111.5t27.5 105.5t-0.5 123 q53 25 156 25z" />
<glyph unicode="&#x237;" horiz-adv-x="528" d="M518 1001l-29 -67l-63 -535q-45 -361 -75.5 -520t-59.5 -213q-79 -86 -248 -86q-52 0 -103.5 14.5t-72.5 36.5l-8 64q213 -9 325 26q14 49 25.5 148.5t22.5 234.5t14 166l63 602l-198 29l6 45q98 29 401 55z" />
<glyph unicode="&#x2c6;" horiz-adv-x="819" d="M504 1456l104 25q34 -42 68 -90t78.5 -113t70.5 -102l-55 -48l-215 213l-258 -211l-39 41q167 212 246 285z" />
<glyph unicode="&#x2c7;" horiz-adv-x="819" d="M596 1157l-104 -24q-34 42 -68 89t-79.5 114t-70.5 102l56 47l215 -213l258 211l39 -41q-167 -212 -246 -285z" />
<glyph unicode="&#x2d8;" horiz-adv-x="819" d="M762 1456l90 17q-15 -155 -96 -243.5t-213 -88.5q-131 0 -192 84t-48 215l86 22q-7 -59 3 -98.5t36.5 -58.5t57.5 -26t77 -7q98 0 143.5 38t55.5 146z" />
<glyph unicode="&#x2d9;" horiz-adv-x="819" d="M559 1178q-53 0 -81.5 29.5t-28.5 76.5q0 53 33.5 89t92.5 36q51 0 81 -33t30 -76q0 -56 -33 -89t-94 -33z" />
<glyph unicode="&#x2da;" horiz-adv-x="819" d="M590 1530q98 0 155 -58t48 -149q-9 -93 -75.5 -150t-174.5 -57q-99 0 -153.5 59.5t-45.5 147.5q7 90 77 148.5t169 58.5zM678 1323q12 139 -94 139q-62 0 -91.5 -34t-37.5 -105q-6 -67 18.5 -103t75.5 -36q63 0 92 34t37 105z" />
<glyph unicode="&#x2db;" horiz-adv-x="819" d="M489 41l17 -2l-8 -21q-117 -69 -168.5 -129.5t-57.5 -126.5q-4 -48 22 -74t75 -26q66 0 116 31l17 -21l-6 -26q-25 -29 -75.5 -49.5t-111.5 -20.5q-88 0 -136.5 43.5t-33.5 122.5q9 47 40.5 90.5t82 81t104.5 67.5t123 60z" />
<glyph unicode="&#x2dc;" horiz-adv-x="819" d="M391 1278l-112 -92l-43 28q11 13 33 40.5t33.5 40t31.5 32t42.5 33.5t51.5 26q46 -8 150 -44t151 -48l117 99l37 -19q-11 -24 -22.5 -44t-20 -34.5t-22 -29t-19 -21.5t-21 -18t-18.5 -13.5t-20 -13.5t-19 -12q-60 2 -124.5 17.5t-104.5 30.5t-101 42z" />
<glyph unicode="&#x2dd;" horiz-adv-x="819" d="M229 1112l-36 25q45 64 111 184t106 184q93 -50 133 -102q-109 -91 -314 -291zM537 1112l-33 29q51 63 129 180t119 172q91 -66 120 -117q-163 -117 -335 -264z" />
<glyph unicode="&#x3c0;" horiz-adv-x="1220" d="M799 313l61 539h-358l-96 -840l-203 -24l-6 28q60 209 135 406l53 430h-4q-35 -12 -70.5 -33.5t-57 -39t-54 -45.5t-45.5 -38l-45 17q16 45 25.5 68.5t36 68.5t56.5 74q35 33 83 49t147 16h477l326 41l-46 -178h-208l-88 -762l241 -6l-18 -41l-35 -25q-123 -30 -246 -30 q-93 0 -133 35z" />
<glyph unicode="&#x2013;" horiz-adv-x="952" d="M184 565h740q-6 -26 -30.5 -56t-49.5 -44h-709q17 66 49 100z" />
<glyph unicode="&#x2014;" horiz-adv-x="1865" d="M184 565h1653q-6 -26 -30.5 -56t-49.5 -44h-1622q17 66 49 100z" />
<glyph unicode="&#x2018;" horiz-adv-x="468" d="M154 979l333 532h74q-13 -30 -38.5 -85t-32 -71t-21.5 -56.5t-24.5 -77t-24 -94t-33.5 -144.5q-53 -14 -120 -15.5t-113 11.5z" />
<glyph unicode="&#x2019;" horiz-adv-x="468" d="M571 1487l-333 -533h-74q13 30 34 75.5t28 61.5t21 51t20.5 57.5t18.5 66.5t23.5 93.5t28.5 123.5q53 14 120 15.5t113 -11.5z" />
<glyph unicode="&#x201a;" horiz-adv-x="542" d="M440 188l-334 -532h-73q13 30 38.5 85t32 71t21.5 56.5t24.5 77t24 94t33.5 144.5q53 14 120 15.5t113 -11.5z" />
<glyph unicode="&#x201c;" horiz-adv-x="798" d="M487 979l326 532h78q-15 -34 -40 -88t-34 -75t-25 -62.5t-25.5 -77.5t-23 -92.5t-28.5 -132.5q-53 -14 -117.5 -15.5t-110.5 11.5zM154 979l325 532h78q-15 -34 -40 -88t-34 -75t-25 -62.5t-25.5 -77.5t-23 -92.5t-28.5 -132.5q-53 -14 -117 -15.5t-110 11.5z" />
<glyph unicode="&#x201d;" horiz-adv-x="798" d="M567 1487l-325 -533h-78l40 88t34 75.5t25 62.5t25.5 78t23 92.5t28.5 132.5q53 14 117 15.5t110 -11.5zM901 1487l-326 -533h-77l40 88t34 75.5t25 62.5t25.5 78t23 92.5t28.5 132.5q53 14 117 15.5t110 -11.5z" />
<glyph unicode="&#x201e;" horiz-adv-x="872" d="M436 188l-325 -532h-78q15 34 40 88t34 75t25 62.5t25.5 77.5t23 92.5t28.5 132.5q53 14 117 15.5t110 -11.5zM770 188l-326 -532h-77q15 34 40 88t34 75t25 62.5t25.5 77.5t23 92.5t28.5 132.5q53 14 117 15.5t110 -11.5z" />
<glyph unicode="&#x2020;" horiz-adv-x="1095" d="M201 975h372l48 436q39 25 124 41l-51 -477h455q-6 -26 -30.5 -56.5t-49.5 -44.5h-385l-119 -1132q-35 -12 -123 -16l121 1148h-411q18 68 49 101z" />
<glyph unicode="&#x2021;" horiz-adv-x="1136" d="M221 975h373l47 436q39 25 125 41l-51 -477h454q-6 -26 -30 -56.5t-49 -44.5h-385l-60 -555h455q-6 -26 -30 -56t-48 -44h-387l-49 -477q-35 -12 -123 -16l51 493h-410q18 68 48 100h372l60 555h-412q18 68 49 101z" />
<glyph unicode="&#x2022;" horiz-adv-x="716" d="M391 252q-118 0 -183 68.5t-65 173.5q0 121 77 201.5t212 80.5q114 0 181 -73.5t67 -170.5q0 -128 -76 -204t-213 -76z" />
<glyph unicode="&#x2026;" horiz-adv-x="1542" d="M281 -18q-52 0 -80.5 28.5t-28.5 73.5q0 53 33.5 89t91.5 36q50 0 79.5 -32.5t29.5 -74.5q0 -56 -33 -88t-92 -32zM758 -18q-52 0 -80.5 28.5t-28.5 73.5q0 53 33.5 89t91.5 36q50 0 79.5 -32.5t29.5 -74.5q0 -56 -33 -88t-92 -32zM1235 -18q-52 0 -80.5 28.5t-28.5 73.5 q0 53 33.5 89t91.5 36q50 0 79.5 -32.5t29.5 -74.5q0 -56 -33 -88t-92 -32z" />
<glyph unicode="&#x2030;" horiz-adv-x="2017" d="M221 76l981 1222q27 12 103 19.5t122 7.5q-55 -65 -123.5 -134t-190.5 -184t-161 -153l-630 -854h-136zM483 1337q141 0 203.5 -82.5t48.5 -222.5q-14 -136 -97 -221.5t-218 -85.5q-137 0 -199 87.5t-49 219.5q14 133 98.5 219t212.5 86zM586 1032q8 73 6 124t-30 78.5 t-87 27.5q-35 0 -60.5 -10.5t-42 -28t-27.5 -48.5t-17 -63t-11 -80q-12 -122 12.5 -176.5t98.5 -54.5q77 0 111.5 53t46.5 178zM1083 598q141 0 203.5 -82.5t48.5 -222.5q-14 -136 -97 -221.5t-218 -85.5q-137 0 -199 87.5t-49 219.5q14 133 98.5 219t212.5 86zM1186 293 q8 73 6 124t-30 78t-87 27q-35 0 -60.5 -10.5t-41.5 -27.5t-27 -48t-17 -62.5t-11 -80.5q-12 -123 12.5 -177.5t97.5 -54.5q77 0 111.5 53t46.5 179zM1737 598q141 0 203.5 -82.5t48.5 -222.5q-14 -135 -97.5 -221t-218.5 -86q-137 0 -199 87.5t-49 219.5q14 133 99 219 t213 86zM1839 293q8 73 6 124t-29.5 78t-86.5 27q-44 0 -72.5 -14.5t-45.5 -47t-25 -69.5t-15 -98q-12 -123 12.5 -177.5t97.5 -54.5q77 0 111.5 53t46.5 179z" />
<glyph unicode="&#x2039;" horiz-adv-x="591" d="M516 745l-264 -243l227 -273q-9 -39 -18.5 -58t-36.5 -52l-277 350l-14 66l397 368q10 -40 5 -86t-19 -72z" />
<glyph unicode="&#x203a;" horiz-adv-x="591" d="M168 121q-10 40 -5 86t19 72l262 243l-225 273q9 39 18.5 58t36.5 52l277 -350l14 -66z" />
<glyph unicode="&#x2044;" horiz-adv-x="22" d="M-463 76l981 1222q27 12 103 19.5t122 7.5q-55 -65 -123.5 -134t-190.5 -184t-161 -153l-630 -854h-136z" />
<glyph unicode="&#x2070;" horiz-adv-x="817" d="M475 774q102 0 144.5 79t62.5 263q12 111 9 187t-37 115.5t-105 39.5q-43 0 -74.5 -14.5t-53 -40t-36.5 -70.5t-24 -94.5t-17 -122.5q-12 -113 -9.5 -189t36 -114.5t104.5 -38.5zM465 705q-161 0 -224 110.5t-42 304.5q10 86 35.5 158t68 128.5t107.5 88t147 31.5 t140.5 -30.5t89 -84.5t41.5 -129.5t-1 -165.5q-10 -90 -34.5 -162t-67 -129.5t-108.5 -88.5t-152 -31z" />
<glyph unicode="&#x2074;" horiz-adv-x="749" d="M713 745l-17 -28h-348l10 26l25 17l94 22l17 144h-377l10 49l309 354q2 2 18.5 20.5t21 24t20 22t22.5 24t21 21.5t23.5 23t22 19.5t23.5 19.5l78 23l-57 -535h164q-4 -17 -19 -36.5t-29 -28.5h-122l-17 -144l101 -22zM313 991h187l35 301l14 94l-262 -327l-64 -72z" />
<glyph unicode="&#x2075;" horiz-adv-x="741" d="M240 1094l41 419h516q-6 -40 -47 -110h-385l-54 -246q63 8 138 8q85 0 144 -20t88.5 -55t40 -74.5t5.5 -85.5q-10 -106 -95 -165.5t-216 -59.5q-170 0 -232 69q-11 23 2 189l41 -9q42 -122 78 -172q41 -12 90 -12q90 0 136 42t55 126q8 81 -38.5 123.5t-168.5 42.5 q-67 0 -139 -10z" />
<glyph unicode="&#x2076;" horiz-adv-x="782" d="M578 1456q-111 0 -163 -78t-77 -250q33 32 88.5 50t105.5 18q131 0 189 -69t47 -179q-12 -111 -94 -177t-217 -66q-307 0 -262 397q22 187 120 305.5t267 118.5q75 0 144.5 -22.5t80.5 -59.5q-23 -86 -62 -170h-43l-8 158q-55 24 -116 24zM485 1126q-55 0 -100 -17 t-55 -54q-14 -155 11.5 -219t119.5 -64q85 0 121.5 44.5t44.5 129.5q9 94 -23.5 137t-118.5 43z" />
<glyph unicode="&#x2077;" horiz-adv-x="718" d="M236 1513h569l8 -26l-72 -121l-188 -295q-29 -62 -80 -175.5t-80 -174.5q-72 -12 -170 -4q46 90 126 207t193.5 270.5t157.5 216.5q-25 -2 -79 -2h-304l-79 -164l-41 -10z" />
<glyph unicode="&#x2078;" horiz-adv-x="800" d="M463 705q-152 0 -223 56t-60 150q17 152 228 189q-78 36 -117 88t-29 135q9 88 87.5 145.5t205.5 57.5q72 0 125 -18t80.5 -48t39 -64.5t7.5 -72.5q-17 -145 -207 -178q202 -83 184 -236q-11 -95 -95.5 -149.5t-225.5 -54.5zM469 770q165 0 178 125q6 64 -36 104.5 t-124 71.5q-36 10 -58.5 4t-55.5 -33q-54 -43 -64 -124q-9 -79 33.5 -113.5t126.5 -34.5zM545 1460q-69 0 -112 -32t-50 -99q-6 -58 28 -93.5t124 -66.5q57 -11 104 43q34 37 41 105q16 143 -135 143z" />
<glyph unicode="&#x2079;" horiz-adv-x="786" d="M416 772q108 0 156 76.5t73 253.5q-60 -66 -188 -66t-187.5 69t-46.5 179q12 111 94 176.5t209 65.5q314 0 269 -398q-8 -74 -23 -132.5t-44.5 -114.5t-72.5 -93.5t-109.5 -60t-152.5 -22.5q-63 0 -121.5 16.5t-76.5 42.5q-17 33 -5 203l50 -9q9 -34 34.5 -88.5 t53.5 -89.5q31 -8 88 -8zM504 1106q133 0 151 72q16 147 -12 214.5t-121 67.5q-79 0 -119 -49.5t-47 -130.5q-8 -89 24 -131.5t124 -42.5z" />
<glyph unicode="&#x207f;" horiz-adv-x="786" d="M567 721l49 393q9 79 -4.5 105t-74.5 26q-46 0 -85.5 -21.5t-50.5 -60.5l-49 -387l137 -4l-12 -27l-22 -18q-88 -18 -162 -18q-34 0 -74 12l64 514l-119 18l4 33q66 21 254 35l-16 -94q37 47 90 74.5t108 27.5q141 0 141 -145q0 -53 -45 -408l138 -4l-13 -27l-22 -18 q-88 -18 -162 -18q-38 0 -74 12z" />
<glyph unicode="&#x2080;" horiz-adv-x="817" d="M383 -229q102 0 144.5 79t62.5 263q12 111 9 187t-37 115.5t-105 39.5q-43 0 -74.5 -14.5t-53 -40t-36.5 -70.5t-24 -94.5t-17 -122.5q-12 -113 -9.5 -189t36 -114.5t104.5 -38.5zM373 -299q-161 0 -224.5 111t-42.5 305q10 86 35.5 157.5t68.5 128t108 88t147 31.5 q162 0 226.5 -109.5t43.5 -299.5q-10 -90 -34.5 -162.5t-67 -129.5t-108.5 -88.5t-152 -31.5z" />
<glyph unicode="&#x2081;" horiz-adv-x="602" d="M127 -287l10 27l23 16l116 27l66 594l-266 -68l6 45q35 14 163 65t175 70l74 35l-82 -743l108 -23l4 -18l-14 -27h-383z" />
<glyph unicode="&#x2082;" horiz-adv-x="747" d="M608 -287h-567l14 58q32 62 90.5 129.5t110.5 101.5l84 56t63 45.5t51.5 45t33.5 43t25 51t11 58.5q15 152 -127 152q-19 0 -51 -7q-43 -44 -105 -115t-77 -87l-23 22q2 10 13.5 64.5t19.5 75.5q35 46 101 81t153 35q121 0 185 -62t53 -163q-3 -24 -10 -46.5t-15.5 -40.5 t-26 -37t-30.5 -32.5t-39.5 -31.5t-43.5 -29t-52.5 -29.5t-55.5 -28.5l-63 -31.5t-66 -33.5q-22 -29 -96 -143h356l101 153l43 13q-33 -177 -60 -267z" />
<glyph unicode="&#x2083;" horiz-adv-x="763" d="M340 -299q-92 0 -158 21.5t-90 50.5q-13 26 4 200l39 -10q47 -130 84 -180q56 -16 107 -16q174 0 190 155q8 75 -34.5 113.5t-164.5 38.5q-36 0 -94 -4q3 16 16.5 41.5t24.5 35.5q18 -2 58 -2q114 0 161.5 41t57.5 123q9 72 -31 109t-117 37q-19 0 -51 -4 q-31 -32 -91 -106t-77 -91l-22 25q17 107 34 143q34 42 100.5 71t149.5 29q113 0 178.5 -58t55.5 -157q-19 -166 -267 -192q133 -3 196 -59t52 -150q-12 -100 -94.5 -152.5t-216.5 -52.5z" />
<glyph unicode="&#x2084;" horiz-adv-x="749" d="M621 -258l-17 -29h-348l10 27l25 16l94 25l16 141h-376l10 49l309 355q2 2 18.5 20.5t21 24t20 22t22.5 24t21 21.5t23.5 23t22 19.5t23.5 19.5l78 22l-57 -534h163q-4 -17 -18.5 -37t-28.5 -29h-123l-16 -143l100 -23zM221 -12h187l34 301l15 94l-262 -328l-64 -71z" />
<glyph unicode="&#x2085;" horiz-adv-x="741" d="M147 90l41 420h517q-6 -39 -48 -111h-385l-53 -245q63 8 137 8q85 0 144.5 -20t88.5 -55t40 -75t6 -86q-10 -106 -95 -165.5t-216 -59.5q-170 0 -232 70q-11 22 2 188l41 -8q46 -126 78 -172q41 -12 90 -12q90 0 136 41.5t55 125.5q8 81 -38.5 123.5t-168.5 42.5 q-68 0 -140 -10z" />
<glyph unicode="&#x2086;" horiz-adv-x="782" d="M485 453q-110 0 -162 -78t-77 -250q33 32 88.5 50t105.5 18q131 0 189 -69t47 -179q-12 -111 -94 -177.5t-217 -66.5q-308 0 -263 397q22 187 120 305.5t267 118.5q75 0 145 -22.5t81 -59.5q-23 -86 -62 -170h-43l-8 158q-57 25 -117 25zM393 123q-55 0 -100 -17t-55 -55 q-14 -155 11.5 -218.5t119.5 -63.5q85 0 121.5 44.5t44.5 129.5q9 94 -23.5 137t-118.5 43z" />
<glyph unicode="&#x2087;" horiz-adv-x="718" d="M143 510h570l8 -27l-72 -121l-188 -294q-30 -62 -80.5 -176t-79.5 -175q-72 -12 -170 -4q46 90 125.5 207t194 271.5t157.5 216.5q-25 -2 -80 -2h-303l-80 -164l-41 -11z" />
<glyph unicode="&#x2088;" horiz-adv-x="800" d="M371 -299q-152 0 -223 56.5t-60 150.5q16 152 227 188q-78 36 -116.5 88t-28.5 135q9 88 87.5 145.5t205.5 57.5q72 0 125 -18t80.5 -48t39 -64.5t7.5 -72.5q-17 -145 -207 -178q202 -83 184 -235q-11 -95 -95.5 -150t-225.5 -55zM377 -233q166 0 178 124q6 65 -36 105 t-124 72q-36 10 -58.5 4t-55.5 -33q-54 -43 -64 -125q-9 -79 33.5 -113t126.5 -34zM453 457q-69 0 -112 -32t-50 -99q-6 -58 27.5 -93.5t123.5 -66.5q58 -11 105 43q34 37 41 104q16 144 -135 144z" />
<glyph unicode="&#x2089;" horiz-adv-x="786" d="M324 -231q108 0 156 76t73 253q-59 -65 -188 -65q-128 0 -187.5 69t-46.5 179q12 110 94 175.5t209 65.5q313 0 268 -397q-8 -74 -23 -132.5t-44.5 -115t-72 -94t-109 -60t-152.5 -22.5q-63 0 -122 16.5t-77 42.5q-16 31 -4 203l49 -8q10 -34 35.5 -88.5t53.5 -87.5 q38 -10 88 -10zM412 102q133 0 151 72q16 147 -12 215t-121 68q-79 0 -119 -50t-47 -131q-8 -89 24 -131.5t124 -42.5z" />
<glyph unicode="&#x20ac;" horiz-adv-x="1290" d="M1294 1153q-40 -151 -98 -281h-57l2 295q-118 70 -262 70q-174 0 -270.5 -96.5t-141.5 -290.5h557q-8 -45 -76 -82h-495q-8 -46 -15 -104q-8 -95 -10 -125h438q-11 -47 -75 -82h-361q8 -178 89 -264.5t261 -86.5q108 0 218 42.5t200 127.5l25 -8l-4 -41 q-86 -119 -217.5 -183t-264.5 -64q-125 0 -217.5 36t-148.5 102t-85.5 150t-35.5 189h-187q11 42 46 82h139q0 39 8 125q8 67 14 104h-180q11 44 45 82h156q30 107 80.5 194t123.5 155.5t174.5 106t223.5 37.5q152 0 264 -61.5t137 -128.5z" />
<glyph unicode="&#x2116;" horiz-adv-x="2199" d="M1034 1278l23 45h475l-14 -43l-37 -23l-160 -34l-76 -727q-11 -126 -30.5 -297t-30.5 -213l-33 -19l-137 195l-471 815l-86 153l-13 -174l-86 -858l168 -30l6 -23l-22 -45h-475l14 43l37 23l160 34l114 1123l-167 32l-7 23l23 45h330l505 -891l74 -141l15 180l75 752 l-168 32zM1898 1343q153 0 219 -94t50 -254q-18 -159 -104 -253.5t-236 -94.5q-151 0 -216.5 98t-49.5 250q15 154 106.5 251t230.5 97zM2021 995q7 84 3.5 145t-36 95.5t-98.5 34.5q-39 0 -68.5 -13t-48.5 -35.5t-32.5 -58.5t-20.5 -75t-12 -93q-15 -141 14 -207.5 t113 -66.5q87 0 129 65t57 209zM1522 532h647q-4 -21 -23 -43.5t-39 -33.5h-622q18 55 37 77z" />
<glyph unicode="&#x2122;" horiz-adv-x="1634" d="M1321 821l8 29l19 20l98 17l33 319l16 97l-51 -86l-74 -113q-59 -86 -90 -113l-68 -12l-108 225l-35 94l-6 -102l-33 -313l103 -11l4 -20l-15 -31h-301l10 29l19 20l98 15l49 489l-94 15l-4 20l12 33h217l160 -342l219 342h242l-8 -31l-19 -20l-98 -17l-49 -491l100 -11 l2 -20l-12 -31h-344zM252 1442h592q-2 -39 -12 -122t-19 -120l-41 4q-6 22 -39 172h-133l-49 -491l100 -13l4 -20l-12 -31h-348l10 29l17 20l100 17l51 489h-121l-92 -170l-43 -4z" />
<glyph unicode="&#x2190;" horiz-adv-x="1525" d="M801 1143l-477 -438l1202 83q-23 -133 -66 -223l-1143 76l396 -440q-21 -16 -35.5 -25.5t-40 -19t-57.5 -15.5l-439 535l516 518q32 -5 57 -13t38.5 -14t48.5 -24z" />
<glyph unicode="&#x2191;" horiz-adv-x="1282" d="M735 1198l-502 -457q-26 73 -30 148l577 473l475 -490q-7 -28 -17 -49t-14 -27.5t-21 -25t-19 -20.5l-389 444l-43 -1163q-88 -31 -228 -41z" />
<glyph unicode="&#x2192;" horiz-adv-x="1525" d="M864 209l475 438l-1200 -84q23 133 66 223l1143 -77l-396 442q31 24 58.5 37.5t74.5 21.5l439 -534l-516 -518q-32 5 -57 13t-38.5 14t-48.5 24z" />
<glyph unicode="&#x2193;" horiz-adv-x="1282" d="M684 127l502 459q27 -76 31 -148l-578 -473l-475 490q7 28 17 49t14 28t21.5 25.5t19.5 20.5l387 -445l45 1163q88 31 227 41z" />
<glyph unicode="&#x2196;" horiz-adv-x="1230" d="M1059 991l-651 23l819 -785q-114 -86 -199 -125l-668 859l-41 -658q-38 4 -63.5 13.5t-67.5 41.5l80 762h733q26 -43 36 -66t22 -65z" />
<glyph unicode="&#x2197;" horiz-adv-x="1230" d="M979 317l92 652l-872 -899q-91 123 -115 192l948 756l-667 -27q6 35 18.5 59.5t50.5 71.5h762l-78 -733q-69 -46 -139 -72z" />
<glyph unicode="&#x2198;" horiz-adv-x="1230" d="M303 281l651 -25l-819 786q114 86 199 125l665 -858l43 658q37 -3 63.5 -13.5t68.5 -42.5l-80 -761h-734q-25 42 -35 65t-22 66z" />
<glyph unicode="&#x2199;" horiz-adv-x="1230" d="M383 954l-92 -653l872 901q91 -123 115 -192l-950 -758l669 29q-6 -35 -18.5 -59.5t-50.5 -71.5h-762l78 733q65 43 139 71z" />
<glyph unicode="&#x2202;" horiz-adv-x="1054" d="M555 788q99 0 174 -37.5t115 -99.5q31 309 -35 449.5t-250 140.5q-73 0 -125 -13.5t-110 -43.5l-45 10l2 33q137 116 327 116q124 0 214.5 -54.5t139 -151t66 -219t4.5 -267.5q-13 -155 -51.5 -275.5t-104.5 -210.5t-165 -137.5t-228 -47.5q-182 0 -285.5 117.5 t-84.5 301.5q19 178 132.5 283.5t309.5 105.5zM510 78q64 0 113 21t82.5 58.5t58 98.5t40 130t27.5 165q-4 66 -72.5 102.5t-164.5 36.5q-151 0 -219 -80t-84 -239q-6 -61 2 -112t32 -92.5t71 -65t114 -23.5z" />
<glyph unicode="&#x2206;" horiz-adv-x="1196" d="M23 0l8 35l24 57l451 862q47 89 115 195.5t108 153.5l70 55q71 -233 182 -670t164 -622l-21 -48l-18 -18h-1083zM739 934l-41 217l-96 -205l-432 -856h766z" />
<glyph unicode="&#x220f;" horiz-adv-x="1370" d="M1309 -221l-23 -45h-538l14 43l37 22l159 35l146 1395h-557l-146 -1395l168 -33l6 -22l-22 -45h-539l15 43l37 22l159 35l146 1389l-170 32l-6 23l22 45h162v-8l2 8h1108l-14 -43l-37 -23l-160 -34l-143 -1389l168 -33z" />
<glyph unicode="&#x2211;" horiz-adv-x="1222" d="M0 -266l10 47l31 51l610 635l-461 788l-6 27l27 41h1012q-23 -304 -54 -457l-47 11q-22 74 -90 352h-624l399 -662l12 -53l-594 -647h658l207 323l59 21q-74 -384 -98 -477h-1051z" />
<glyph unicode="&#x221a;" horiz-adv-x="1107" d="M666 158l479 1419q64 15 115 8l-459 -1325q-121 -355 -217 -471l-74 -12l-244 907l-194 29l-21 30l27 43l328 29l167 -647l39 -176z" />
<glyph unicode="&#x221e;" horiz-adv-x="1288" d="M379 403q-47 0 -88 14.5t-74.5 45t-49 85t-5.5 126.5q9 69 37.5 120t68.5 78.5t83 40.5t89 13q79 0 145 -43t134 -138q171 181 328 181q45 0 85 -14.5t74 -45.5t50.5 -86.5t9.5 -128.5q-8 -72 -35.5 -123t-66.5 -77t-77.5 -37t-80.5 -11q-88 0 -156.5 38.5t-142.5 136.5 q-167 -175 -328 -175zM1001 502q144 0 158 155q8 78 -25.5 124t-97.5 46q-53 0 -113.5 -39t-146.5 -133q112 -153 225 -153zM424 827q-66 0 -107.5 -42.5t-48.5 -120.5q-9 -80 23 -121t98 -41q108 0 258 164q-116 161 -223 161z" />
<glyph unicode="&#x222b;" horiz-adv-x="634" d="M868 1509l-47 -45q-33 1 -123 5t-145 4q-21 -43 -31 -108.5t-37 -334.5l-71 -686q-58 -550 -365 -661q-47 13 -88 47.5t-57 60.5l35 45l229 12q18 22 25 82l40 359l74 686q10 97 25 173.5t45.5 157t74 139t112.5 107t159 74.5q39 -11 79.5 -47.5t65.5 -69.5z" />
<glyph unicode="&#x2248;" horiz-adv-x="1011" d="M760 836q79 0 217 114l35 -78q-121 -141 -258 -141q-49 0 -113 30.5t-123 60.5t-98 30q-81 0 -215 -127q-33 41 -41 90q48 54 117 97.5t135 43.5q55 0 119.5 -30t123.5 -60t101 -30zM721 467q78 0 217 115l35 -78q-122 -142 -258 -142q-39 0 -88 19t-87.5 41.5t-83 41.5 t-75.5 19q-81 0 -215 -127q-33 41 -41 90q48 54 117 98t135 44q44 0 94.5 -19t88.5 -41.5t82.5 -41.5t78.5 -19z" />
<glyph unicode="&#x2260;" horiz-adv-x="991" d="M164 537h248l174 260h-432q17 66 49 100h450l148 221q58 28 141 31l-166 -252h250q-6 -26 -30.5 -56t-49.5 -44h-237l-172 -260h450q-6 -26 -29.5 -57t-48.5 -44h-438l-166 -252q-46 -16 -135 -12l176 264h-229q18 68 47 101z" />
<glyph unicode="&#x2264;" horiz-adv-x="991" d="M950 1010l-633 -260l596 -293q-14 -65 -53 -101q-52 27 -334 177t-350 184l-10 69q82 38 251 110.5t348.5 149t223.5 95.5q3 -74 -39 -131zM135 252h823q-6 -26 -30 -56t-49 -44h-793q17 66 49 100z" />
<glyph unicode="&#x2265;" horiz-adv-x="991" d="M158 365q-3 74 39 131l632 258l-596 295q14 62 54 100q52 -27 334 -177t350 -184l10 -69q-82 -38 -251.5 -110.5t-347.5 -148t-224 -95.5zM135 252h823q-6 -26 -30 -56t-49 -44h-793q17 66 49 100z" />
<glyph unicode="&#x2460;" horiz-adv-x="1986" d="M965 -211q-166 0 -303.5 42t-234.5 117t-164.5 179t-99.5 227t-32 262q0 270 114 485t326.5 338.5t487.5 123.5q161 0 297.5 -46.5t231.5 -126t162 -186t98.5 -225t31.5 -244.5q0 -288 -107.5 -501t-314.5 -329t-493 -116zM971 -106q156 0 284 39.5t220 112.5t154.5 176 t93 229.5t30.5 273.5q0 107 -23 208t-76.5 197.5t-132 168.5t-198.5 115.5t-268 43.5q-158 0 -289 -44.5t-223.5 -121.5t-156.5 -183t-94 -228.5t-30 -257.5q0 -118 25 -223.5t80 -199t136 -161t201 -106.5t267 -39zM727 152l12 34l33 19l168 35l88 804l-366 -94l8 58 q425 168 454 180l90 41l-110 -991l153 -31l7 -21l-21 -34h-516z" />
<glyph unicode="&#x2461;" horiz-adv-x="1986" d="M965 -211q-166 0 -303.5 42t-234.5 117t-164.5 179t-99.5 227t-32 262q0 270 114 485t326.5 338.5t487.5 123.5q161 0 297.5 -46.5t231.5 -126t162 -186t98.5 -225t31.5 -244.5q0 -288 -107.5 -501t-314.5 -329t-493 -116zM971 -106q156 0 284 39.5t220 112.5t154.5 176 t93 229.5t30.5 273.5q0 107 -23 208t-76.5 197.5t-132 168.5t-198.5 115.5t-268 43.5q-158 0 -289 -44.5t-223.5 -121.5t-156.5 -183t-94 -228.5t-30 -257.5q0 -118 25 -223.5t80 -199t136 -161t201 -106.5t267 -39zM1335 152h-766l17 69q47 87 125 176.5t149 134.5 q89 56 138.5 89.5t98.5 73.5t73 73.5t41 75t22 92.5q10 104 -34 153.5t-146 49.5q-45 0 -72 -6q-55 -57 -139.5 -151.5t-108.5 -119.5l-26 29q3 17 9.5 49.5t10 51t10 41.5t13.5 40q46 61 134.5 108.5t202.5 47.5q166 0 252.5 -81.5t71.5 -215.5q-4 -36 -14.5 -68t-30.5 -61 t-39 -52t-53.5 -48.5t-61 -43.5t-75 -44t-80.5 -42.5t-92.5 -47.5t-98.5 -50q-22 -28 -43.5 -60.5t-50.5 -79.5t-37 -59h488l135 207l57 15q-7 -31 -22 -103.5t-29 -133t-29 -109.5z" />
<glyph unicode="&#x2462;" horiz-adv-x="1986" d="M965 -211q-166 0 -303.5 42t-234.5 117t-164.5 179t-99.5 227t-32 262q0 270 114 485t326.5 338.5t487.5 123.5q161 0 297.5 -46.5t231.5 -126t162 -186t98.5 -225t31.5 -244.5q0 -288 -107.5 -501t-314.5 -329t-493 -116zM971 -106q156 0 284 39.5t220 112.5t154.5 176 t93 229.5t30.5 273.5q0 107 -23 208t-76.5 197.5t-132 168.5t-198.5 115.5t-268 43.5q-158 0 -289 -44.5t-223.5 -121.5t-156.5 -183t-94 -228.5t-30 -257.5q0 -118 25 -223.5t80 -199t136 -161t201 -106.5t267 -39zM963 135q-125 0 -214.5 27.5t-121.5 66.5q-14 29 6 265 l49 -11q3 -7 17 -45.5t25.5 -66.5t30 -66t36.5 -63q73 -23 159 -23q241 0 264 211q6 49 -3.5 84.5t-39 63.5t-88.5 42.5t-147 14.5q-8 0 -131 -6q7 23 24 55t31 45q27 -2 80 -2q83 0 140.5 14.5t91.5 44.5t50.5 67.5t22.5 90.5q12 99 -44 149t-163 50q-38 0 -75 -6 q-47 -46 -130.5 -149t-93.5 -114l-30 33q1 6 7 37.5t8.5 44.5t8 37t11 40.5t12.5 29.5q44 56 131 94.5t200 38.5q98 0 175 -33.5t119 -100t32 -153.5q-25 -220 -371 -256q181 -1 271 -77.5t76 -198.5q-15 -133 -131 -204t-295 -71z" />
<glyph unicode="&#x2463;" horiz-adv-x="1986" d="M965 -211q-166 0 -303.5 42t-234.5 117t-164.5 179t-99.5 227t-32 262q0 270 114 485t326.5 338.5t487.5 123.5q161 0 297.5 -46.5t231.5 -126t162 -186t98.5 -225t31.5 -244.5q0 -288 -107.5 -501t-314.5 -329t-493 -116zM971 -106q156 0 284 39.5t220 112.5t154.5 176 t93 229.5t30.5 273.5q0 107 -23 208t-76.5 197.5t-132 168.5t-198.5 115.5t-268 43.5q-158 0 -289 -44.5t-223.5 -121.5t-156.5 -183t-94 -228.5t-30 -257.5q0 -118 25 -223.5t80 -199t136 -161t201 -106.5t267 -39zM1311 188l-21 -36h-465l13 34l32 21l136 31l20 194h-516 l14 62l420 471q4 4 20.5 22.5t22 24.5t22 23.5t24 25t23 23.5t25 25t24 23t25.5 23.5t24.5 20.5t25.5 20l92 31l-78 -713h223q-4 -20 -23 -45t-38 -37h-170l-23 -196l142 -27zM770 514h266l47 418q2 16 17 121l-367 -449l-82 -96z" />
<glyph unicode="&#x2464;" horiz-adv-x="1986" d="M965 -211q-166 0 -303.5 42t-234.5 117t-164.5 179t-99.5 227t-32 262q0 270 114 485t326.5 338.5t487.5 123.5q161 0 297.5 -46.5t231.5 -126t162 -186t98.5 -225t31.5 -244.5q0 -288 -107.5 -501t-314.5 -329t-493 -116zM971 -106q156 0 284 39.5t220 112.5t154.5 176 t93 229.5t30.5 273.5q0 107 -23 208t-76.5 197.5t-132 168.5t-198.5 115.5t-268 43.5q-158 0 -289 -44.5t-223.5 -121.5t-156.5 -183t-94 -228.5t-30 -257.5q0 -118 25 -223.5t80 -199t136 -161t201 -106.5t267 -39zM680 657l55 555h695q-10 -61 -60 -135h-524l-76 -340 q116 11 191 11q91 0 160.5 -18t111.5 -48t66.5 -71.5t31.5 -84.5t2 -92q-15 -139 -128 -219t-287 -80q-224 0 -316 92q-16 35 6 252l49 -10q58 -164 107 -231q62 -19 131 -19q126 0 190 58t76 172q5 53 -5.5 91.5t-42.5 68t-91.5 44.5t-147.5 15q-113 0 -194 -11z" />
<glyph unicode="&#x2465;" horiz-adv-x="1986" d="M965 -211q-166 0 -303.5 42t-234.5 117t-164.5 179t-99.5 227t-32 262q0 270 114 485t326.5 338.5t487.5 123.5q161 0 297.5 -46.5t231.5 -126t162 -186t98.5 -225t31.5 -244.5q0 -288 -107.5 -501t-314.5 -329t-493 -116zM971 -106q156 0 284 39.5t220 112.5t154.5 176 t93 229.5t30.5 273.5q0 107 -23 208t-76.5 197.5t-132 168.5t-198.5 115.5t-268 43.5q-158 0 -289 -44.5t-223.5 -121.5t-156.5 -183t-94 -228.5t-30 -257.5q0 -118 25 -223.5t80 -199t136 -161t201 -106.5t267 -39zM1108 1141q-155 0 -230.5 -106.5t-107.5 -338.5 q44 42 121.5 65t146.5 23q182 0 261 -91t63 -236q-15 -147 -124.5 -234.5t-291.5 -87.5q-415 0 -352 529q14 120 53 220.5t101.5 178.5t155.5 122t208 44q100 0 194.5 -29t108.5 -78q-34 -120 -82 -225h-55l-10 211q-70 33 -160 33zM758 592q-20 -198 19 -284.5t173 -86.5 q121 0 173.5 61t64.5 173q14 125 -33.5 184t-171.5 59q-38 0 -73.5 -5t-70 -16t-56.5 -33t-25 -52z" />
<glyph unicode="&#x2466;" horiz-adv-x="1986" d="M965 -211q-166 0 -303.5 42t-234.5 117t-164.5 179t-99.5 227t-32 262q0 270 114 485t326.5 338.5t487.5 123.5q161 0 297.5 -46.5t231.5 -126t162 -186t98.5 -225t31.5 -244.5q0 -288 -107.5 -501t-314.5 -329t-493 -116zM971 -106q156 0 284 39.5t220 112.5t154.5 176 t93 229.5t30.5 273.5q0 107 -23 208t-76.5 197.5t-132 168.5t-198.5 115.5t-268 43.5q-158 0 -289 -44.5t-223.5 -121.5t-156.5 -183t-94 -228.5t-30 -257.5q0 -118 25 -223.5t80 -199t136 -161t201 -106.5t267 -39zM670 1212h770l12 -32l-98 -162l-242 -389 q-41 -85 -109 -238t-108 -235q-95 -14 -209 -4q38 74 93 163t130.5 200t127.5 186.5t146 208t126 177.5q-35 -2 -103 -2h-424l-106 -225l-53 -10z" />
<glyph unicode="&#x2467;" horiz-adv-x="1986" d="M965 -211q-166 0 -303.5 42t-234.5 117t-164.5 179t-99.5 227t-32 262q0 270 114 485t326.5 338.5t487.5 123.5q161 0 297.5 -46.5t231.5 -126t162 -186t98.5 -225t31.5 -244.5q0 -288 -107.5 -501t-314.5 -329t-493 -116zM971 -106q156 0 284 39.5t220 112.5t154.5 176 t93 229.5t30.5 273.5q0 107 -23 208t-76.5 197.5t-132 168.5t-198.5 115.5t-268 43.5q-158 0 -289 -44.5t-223.5 -121.5t-156.5 -183t-94 -228.5t-30 -257.5q0 -118 25 -223.5t80 -199t136 -161t201 -106.5t267 -39zM948 135q-207 0 -301 76.5t-78 200.5q13 98 84.5 162 t223.5 90q-106 46 -158 117t-39 180q13 116 116.5 192t276.5 76q79 0 141 -16.5t100 -43.5t61.5 -63t30.5 -73.5t3 -76.5q-21 -192 -283 -237q273 -108 252 -313q-14 -125 -126 -198t-304 -73zM954 219q238 0 256 168q6 49 -12.5 89t-58.5 69.5t-82 49.5t-101 40 q-63 9 -137 -47q-78 -57 -92 -170q-11 -107 49 -153t178 -46zM1059 1145q-210 0 -230 -180q-9 -78 38.5 -125.5t170.5 -89.5q83 -17 154 61q51 54 61 139q11 102 -42 148.5t-152 46.5z" />
<glyph unicode="&#x2468;" horiz-adv-x="1986" d="M965 -211q-166 0 -303.5 42t-234.5 117t-164.5 179t-99.5 227t-32 262q0 270 114 485t326.5 338.5t487.5 123.5q161 0 297.5 -46.5t231.5 -126t162 -186t98.5 -225t31.5 -244.5q0 -288 -107.5 -501t-314.5 -329t-493 -116zM971 -106q156 0 284 39.5t220 112.5t154.5 176 t93 229.5t30.5 273.5q0 107 -23 208t-76.5 197.5t-132 168.5t-198.5 115.5t-268 43.5q-158 0 -289 -44.5t-223.5 -121.5t-156.5 -183t-94 -228.5t-30 -257.5q0 -118 25 -223.5t80 -199t136 -161t201 -106.5t267 -39zM926 223q79 0 133 25.5t90.5 83t58.5 135.5t39 197 q-84 -84 -256 -84q-180 0 -259.5 90.5t-63.5 236.5q17 146 127 234t276 88q425 0 365 -524q-11 -100 -31 -178t-60 -154t-97.5 -125.5t-147.5 -80t-207 -30.5q-82 0 -161.5 21.5t-104.5 54.5q-21 48 -4 266l63 -10q14 -47 46 -117.5t67 -115.5q57 -13 127 -13zM1044 670 q77 0 140.5 22.5t77.5 73.5q13 121 3 205t-58 129t-138 45q-114 0 -171 -68.5t-67 -175.5q-10 -116 35.5 -173.5t177.5 -57.5z" />
<glyph unicode="&#x2469;" horiz-adv-x="1986" d="M965 -211q-166 0 -303.5 42t-234.5 117t-164.5 179t-99.5 227t-32 262q0 270 114 485t326.5 338.5t487.5 123.5q161 0 297.5 -46.5t231.5 -126t162 -186t98.5 -225t31.5 -244.5q0 -288 -107.5 -501t-314.5 -329t-493 -116zM971 -106q156 0 284 39.5t220 112.5t154.5 176 t93 229.5t30.5 273.5q0 107 -23 208t-76.5 197.5t-132 168.5t-198.5 115.5t-268 43.5q-158 0 -289 -44.5t-223.5 -121.5t-156.5 -183t-94 -228.5t-30 -257.5q0 -118 25 -223.5t80 -199t136 -161t201 -106.5t267 -39zM1225 256q-90 0 -150.5 31t-89.5 86.5t-39 131.5t2 165 q9 88 32.5 159t65 128.5t107.5 89.5t152 32q90 0 151.5 -30.5t91 -85.5t40 -130.5t-0.5 -164.5q-42 -412 -362 -412zM1235 332q43 0 74.5 14.5t52.5 39.5t35.5 69t22.5 92.5t16 120.5q11 111 6.5 186t-39 113.5t-105.5 38.5q-44 0 -75 -14.5t-51.5 -38.5t-35 -69.5 t-22.5 -93t-16 -122.5q-11 -111 -7 -185.5t38 -112.5t106 -38zM440 270l9 31l24 16l135 33l60 584l-211 -49l6 49q49 20 129 49.5t123 46.5l104 49l-76 -733l117 -27l6 -18l-14 -31h-412z" />
<glyph unicode="&#x25ca;" horiz-adv-x="1171" d="M1135 596l-480 -569q-39 -28 -112 -39l-412 661l12 47l516 613q24 11 101 14l405 -641q-4 -10 -12.5 -39t-17.5 -47zM268 662l328 -531l436 533l-327 522z" />
<glyph unicode="&#x25fc;" horiz-adv-x="993" d="M0 993h993v-993h-993v993z" />
<glyph unicode="&#x2776;" horiz-adv-x="1986" d="M965 -211q-166 0 -303.5 42t-234.5 117t-164.5 179t-99.5 227t-32 262q0 270 114 485t326.5 338.5t487.5 123.5q161 0 297.5 -46.5t231.5 -126t162 -186t98.5 -225t31.5 -244.5q0 -288 -107.5 -501t-314.5 -329t-493 -116zM739 186l-12 -34h516l21 34l-7 21l-153 31 l110 991l-90 -41q-29 -12 -454 -180l-8 -58l366 94l-88 -804l-168 -35z" />
<glyph unicode="&#x2777;" horiz-adv-x="1986" d="M965 -211q-166 0 -303.5 42t-234.5 117t-164.5 179t-99.5 227t-32 262q0 270 114 485t326.5 338.5t487.5 123.5q161 0 297.5 -46.5t231.5 -126t162 -186t98.5 -225t31.5 -244.5q0 -288 -107.5 -501t-314.5 -329t-493 -116zM569 152h766q15 49 29 109.5t29 133t22 103.5 l-57 -15l-135 -207h-488q8 12 37 59t50.5 79.5t43.5 60.5q38 19 98.5 50t92.5 47.5t80.5 42.5t75 44t61 43.5t53.5 48.5t39 52t30.5 61t14.5 68q15 134 -71.5 215.5t-252.5 81.5q-114 0 -202.5 -47.5t-134.5 -108.5q-7 -17 -13.5 -40t-10 -41.5t-10 -51t-9.5 -49.5l26 -29 q24 25 108.5 119.5t139.5 151.5q27 6 72 6q102 0 146 -49.5t34 -153.5q-5 -51 -22 -92.5t-41 -75t-73 -73.5t-98.5 -73.5t-138.5 -89.5q-71 -45 -149 -134.5t-125 -176.5z" />
<glyph unicode="&#x2778;" horiz-adv-x="1986" d="M965 -211q-166 0 -303.5 42t-234.5 117t-164.5 179t-99.5 227t-32 262q0 270 114 485t326.5 338.5t487.5 123.5q161 0 297.5 -46.5t231.5 -126t162 -186t98.5 -225t31.5 -244.5q0 -288 -107.5 -501t-314.5 -329t-493 -116zM963 135q179 0 295 71t131 204 q14 122 -76 198.5t-271 77.5q346 36 371 256q10 87 -32 153.5t-119 100t-175 33.5q-113 0 -200 -38.5t-131 -94.5q-7 -13 -12.5 -29.5t-11 -40.5t-8 -37t-8.5 -44.5t-7 -37.5l30 -33q10 11 93.5 114t130.5 149q37 6 75 6q107 0 163 -50t44 -149q-6 -53 -22.5 -90.5 t-50.5 -67.5t-91.5 -44.5t-140.5 -14.5q-53 0 -80 2q-14 -13 -31 -45t-24 -55q123 6 131 6q88 0 147 -14.5t88.5 -42.5t39 -63.5t3.5 -84.5q-23 -211 -264 -211q-86 0 -159 23q-18 25 -36.5 63t-30 66t-25.5 66.5t-17 45.5l-49 11q-20 -236 -6 -265q32 -39 121.5 -66.5 t214.5 -27.5z" />
<glyph unicode="&#x2779;" horiz-adv-x="1986" d="M965 -211q-166 0 -303.5 42t-234.5 117t-164.5 179t-99.5 227t-32 262q0 270 114 485t326.5 338.5t487.5 123.5q161 0 297.5 -46.5t231.5 -126t162 -186t98.5 -225t31.5 -244.5q0 -288 -107.5 -501t-314.5 -329t-493 -116zM1290 152l21 36l-6 21l-142 27l23 196h170 q19 12 38 37t23 45h-223l78 713l-92 -31q-12 -9 -25.5 -20t-24.5 -20.5t-25.5 -23.5t-24 -23t-25 -25t-23 -23.5t-24 -25t-22 -23.5t-22 -24.5t-20.5 -22.5l-420 -471l-14 -62h516l-20 -194l-136 -31l-32 -21l-13 -34h465zM1036 514h-266l-119 -6l82 96l367 449 q-15 -105 -17 -121z" />
<glyph unicode="&#x277a;" horiz-adv-x="1986" d="M965 -211q-166 0 -303.5 42t-234.5 117t-164.5 179t-99.5 227t-32 262q0 270 114 485t326.5 338.5t487.5 123.5q161 0 297.5 -46.5t231.5 -126t162 -186t98.5 -225t31.5 -244.5q0 -288 -107.5 -501t-314.5 -329t-493 -116zM735 1212l-55 -555q81 11 194 11 q88 0 147.5 -15t91.5 -44.5t42.5 -68t5.5 -91.5q-12 -114 -76 -172t-190 -58q-69 0 -131 19q-49 67 -107 231l-49 10q-22 -217 -6 -252q92 -92 316 -92q174 0 287 80t128 219q5 49 -2 92t-31.5 84.5t-66.5 71.5t-111.5 48t-160.5 18q-75 0 -191 -11l76 340h524q50 74 60 135 h-695z" />
<glyph unicode="&#x277b;" horiz-adv-x="1986" d="M965 -211q-166 0 -303.5 42t-234.5 117t-164.5 179t-99.5 227t-32 262q0 270 114 485t326.5 338.5t487.5 123.5q161 0 297.5 -46.5t231.5 -126t162 -186t98.5 -225t31.5 -244.5q0 -288 -107.5 -501t-314.5 -329t-493 -116zM1108 1141q90 0 160 -33l10 -211h55 q48 105 82 225q-14 49 -108.5 78t-194.5 29q-115 0 -208 -44t-155.5 -122t-101.5 -178.5t-53 -220.5q-63 -529 352 -529q182 0 291.5 87.5t124.5 234.5q16 145 -63 236t-261 91q-69 0 -146.5 -23t-121.5 -65q32 232 107.5 338.5t230.5 106.5zM758 592q3 30 25 52t56.5 33 t70 16t73.5 5q124 0 171.5 -59t33.5 -184q-12 -112 -64.5 -173t-173.5 -61q-134 0 -173 86.5t-19 284.5z" />
<glyph unicode="&#x277c;" horiz-adv-x="1986" d="M965 -211q-166 0 -303.5 42t-234.5 117t-164.5 179t-99.5 227t-32 262q0 270 114 485t326.5 338.5t487.5 123.5q161 0 297.5 -46.5t231.5 -126t162 -186t98.5 -225t31.5 -244.5q0 -288 -107.5 -501t-314.5 -329t-493 -116zM1440 1212h-770l-47 -362l53 10l106 225h424 q68 0 103 2q-32 -45 -126 -177.5t-146 -208t-127.5 -186.5t-130.5 -200t-93 -163q114 -10 209 4q40 82 108 235t109 238l242 389l98 162z" />
<glyph unicode="&#x277d;" horiz-adv-x="1986" d="M965 -211q-166 0 -303.5 42t-234.5 117t-164.5 179t-99.5 227t-32 262q0 270 114 485t326.5 338.5t487.5 123.5q161 0 297.5 -46.5t231.5 -126t162 -186t98.5 -225t31.5 -244.5q0 -288 -107.5 -501t-314.5 -329t-493 -116zM948 135q192 0 304 73t126 198q21 205 -252 313 q262 45 283 237q4 39 -3 76.5t-30.5 73.5t-61.5 63t-100 43.5t-141 16.5q-173 0 -276.5 -76t-116.5 -192q-13 -109 39 -180t158 -117q-152 -26 -223.5 -90t-84.5 -162q-16 -124 78 -200.5t301 -76.5zM954 219q-118 0 -178 46t-49 153q14 113 92 170q74 56 137 47 q59 -20 101 -40t82 -49.5t58.5 -69.5t12.5 -89q-18 -168 -256 -168zM1059 1145q99 0 152 -46.5t42 -148.5q-10 -85 -61 -139q-71 -78 -154 -61q-123 42 -170.5 89.5t-38.5 125.5q20 180 230 180z" />
<glyph unicode="&#x277e;" horiz-adv-x="1986" d="M965 -211q-166 0 -303.5 42t-234.5 117t-164.5 179t-99.5 227t-32 262q0 270 114 485t326.5 338.5t487.5 123.5q161 0 297.5 -46.5t231.5 -126t162 -186t98.5 -225t31.5 -244.5q0 -288 -107.5 -501t-314.5 -329t-493 -116zM926 223q-70 0 -127 13q-35 45 -67 115.5 t-46 117.5l-63 10q-17 -218 4 -266q25 -33 104.5 -54.5t161.5 -21.5q117 0 207 30.5t147.5 80t97.5 125.5t60 154t31 178q60 524 -365 524q-166 0 -276 -88t-127 -234q-16 -146 63.5 -236.5t259.5 -90.5q172 0 256 84q-17 -119 -39 -197t-58.5 -135.5t-90.5 -83t-133 -25.5z M1044 670q-132 0 -177.5 57.5t-35.5 173.5q10 107 67 175.5t171 68.5q90 0 138 -45t58 -129t-3 -205q-14 -51 -77.5 -73.5t-140.5 -22.5z" />
<glyph unicode="&#x277f;" horiz-adv-x="1986" d="M965 -211q-166 0 -303.5 42t-234.5 117t-164.5 179t-99.5 227t-32 262q0 270 114 485t326.5 338.5t487.5 123.5q161 0 297.5 -46.5t231.5 -126t162 -186t98.5 -225t31.5 -244.5q0 -288 -107.5 -501t-314.5 -329t-493 -116zM1225 256q320 0 362 412q11 89 0.5 164.5 t-40 130.5t-91 85.5t-151.5 30.5q-86 0 -152 -32t-107.5 -89.5t-65 -128.5t-32.5 -159q-12 -89 -2 -165t39 -131.5t89.5 -86.5t150.5 -31zM1235 332q-72 0 -106 38t-38 112.5t7 185.5q8 75 16 122.5t22.5 93t35 69.5t51.5 38.5t75 14.5q71 0 105.5 -38.5t39 -113.5 t-6.5 -186q-8 -72 -16 -120.5t-22.5 -92.5t-35.5 -69t-52.5 -39.5t-74.5 -14.5zM449 301l-9 -31h412l14 31l-6 18l-117 27l76 733l-104 -49q-43 -17 -123 -46.5t-129 -49.5l-6 -49l211 49l-60 -584l-135 -33z" />
<glyph unicode="&#xfb01;" horiz-adv-x="1116" d="M-147 -369l-9 64q252 -7 332 22q8 44 21 177t27 290.5t18 200.5l51 492l-166 6q9 39 31 73l149 19q18 94 45.5 173t68 149t99.5 115t131 58q117 -14 185 -75l-41 -54l-244 -18q-9 -24 -17.5 -49.5t-14 -44.5t-11.5 -47t-9 -41.5t-7.5 -44.5t-5.5 -39t-5.5 -43t-5.5 -39 l164 -4q-33 -64 -59 -94h-117l-70 -629q-23 -200 -54.5 -360.5t-62.5 -221.5q-38 -39 -105.5 -62.5t-137.5 -23.5q-57 0 -107 15t-73 36zM1065 1001l-31 -69l-102 -844l231 -4l-18 -41l-35 -25q-123 -30 -250 -30q-60 0 -106 18l102 866l-199 29l7 45q98 29 401 55z M868 1292q0 53 34.5 85t86.5 32t87.5 -32t35.5 -85q0 -52 -35 -83t-88 -31t-87 30.5t-34 83.5z" />
<glyph unicode="&#xfb02;" horiz-adv-x="1079" d="M1090 1462l-33 -78l-156 -1296l232 -4l-19 -41l-35 -25q-123 -30 -250 -30q-59 0 -106 18l158 1327h-7l-317 -10q-13 -32 -24 -66.5t-17.5 -57t-14 -62.5t-10 -52.5t-9 -58.5t-7.5 -51l225 -4q-33 -64 -59 -94h-178l-70 -629q-23 -200 -54.5 -360.5t-62.5 -221.5 q-38 -39 -105.5 -62.5t-137.5 -23.5q-57 0 -107 15t-73 36l-9 64q252 -7 332 22q8 44 21 177t27 290.5t18 200.5l51 492l-166 6q9 39 31 73l149 19q18 97 46 174.5t73.5 148.5t115 115.5t158.5 56.5q57 -5 131 -34q85 11 259 26z" />
<glyph horiz-adv-x="575" d="M719 1323l-12 -43l-35 -23l-152 -34l-112 -1012q-16 -138 -52 -224t-98 -171q-66 -91 -221 -246l-25 45q23 45 95 173t106 202l133 1233l-211 32l-8 23l29 45h563z" />
<glyph horiz-adv-x="1257" d="M614 -20q-100 0 -179.5 25.5t-132.5 71.5t-90 110t-52.5 140t-20 161.5t7.5 175.5q11 110 39.5 208t79 185.5t118.5 150t164 99t210 36.5q100 0 180 -25.5t133.5 -71t91.5 -108.5t54.5 -138.5t22 -160.5t-6.5 -175q-12 -112 -39.5 -209.5t-77.5 -186.5t-118 -151.5 t-166.5 -99.5t-217.5 -37zM627 84q86 0 151 27t109 73.5t75 121.5t48.5 159t29.5 199q16 134 11 241t-33.5 181.5t-95.5 114.5t-174 40q-86 0 -150.5 -26.5t-108 -72.5t-73.5 -121t-47 -158.5t-29 -198.5q-17 -134 -12.5 -241.5t32 -182.5t94 -115.5t173.5 -40.5zM1135 -66 q-6 -34 -14 -62t-15 -47.5t-29 -74.5q-123 18 -292.5 48.5t-266.5 43.5l-14 58q37 1 153.5 5t166 6t139.5 8t172 15z" />
<glyph horiz-adv-x="575" d="M719 1323l-12 -43l-35 -23l-152 -34l-112 -1012q-16 -138 -52 -224t-98 -171q-66 -91 -221 -246l-25 45q23 45 95 173t106 202l133 1233l-211 32l-8 23l29 45h563zM451 1729l79 14q127 -99 261 -230l-39 -51q-220 126 -265 148q-108 -45 -311 -154l-29 51 q121 101 304 222z" />
<glyph horiz-adv-x="843" d="M801 975l200 -4q-33 -64 -59 -94h-162q39 -79 27 -187q-11 -89 -59.5 -162t-126.5 -114q-58 -33 -116.5 -84.5t-84.5 -93.5l123 -74q134 -82 192 -140.5t58 -132.5q0 -119 -132 -203.5t-331 -84.5q-172 0 -266 47.5t-80 144.5q12 87 118.5 152.5t327.5 113.5l-111 76 q-30 20 -37 47.5t4.5 52.5t35.5 48q9 8 21.5 16.5t32.5 19t33 17t43 20t42 19.5q-18 -2 -54 -2q-163 0 -239.5 83t-57.5 234q16 135 114.5 226.5t252.5 91.5q113 0 184 -41zM449 446q52 0 89.5 21t59 59t32.5 76.5t17 87.5q8 46 4 90t-16.5 78t-46.5 55t-86 21 q-42 0 -75 -14.5t-54 -37.5t-36 -56.5t-22 -65.5t-12 -70q-8 -46 -3.5 -90t17 -78t46.5 -55t86 -21zM489 20l-18 13q-125 -40 -196.5 -80.5t-94 -72t-28.5 -73.5q-7 -53 36 -87.5t148 -34.5q116 0 188 38t84 113q9 58 -22.5 98.5t-96.5 85.5z" />
<glyph horiz-adv-x="843" d="M801 975l200 -4q-33 -64 -59 -94h-162q39 -79 27 -187q-11 -89 -59.5 -162t-126.5 -114q-58 -33 -116.5 -84.5t-84.5 -93.5l123 -74q134 -82 192 -140.5t58 -132.5q0 -119 -132 -203.5t-331 -84.5q-172 0 -266 47.5t-80 144.5q12 87 118.5 152.5t327.5 113.5l-111 76 q-30 20 -37 47.5t4.5 52.5t35.5 48q9 8 21.5 16.5t32.5 19t33 17t43 20t42 19.5q-18 -2 -54 -2q-163 0 -239.5 83t-57.5 234q16 135 114.5 226.5t252.5 91.5q113 0 184 -41zM449 446q52 0 89.5 21t59 59t32.5 76.5t17 87.5q8 46 4 90t-16.5 78t-46.5 55t-86 21 q-42 0 -75 -14.5t-54 -37.5t-36 -56.5t-22 -65.5t-12 -70q-8 -46 -3.5 -90t17 -78t46.5 -55t86 -21zM489 20l-18 13q-125 -40 -196.5 -80.5t-94 -72t-28.5 -73.5q-7 -53 36 -87.5t148 -34.5q116 0 188 38t84 113q9 58 -22.5 98.5t-96.5 85.5zM774 1456l90 17 q-15 -155 -96 -243.5t-213 -88.5q-131 0 -192 84t-48 215l86 22q-7 -59 3 -98.5t36.5 -58.5t57.5 -26t77 -7q98 0 143.5 38t55.5 146z" />
<glyph horiz-adv-x="843" d="M801 975l200 -4q-33 -64 -59 -94h-162q39 -79 27 -187q-11 -89 -59.5 -162t-126.5 -114q-58 -33 -116.5 -84.5t-84.5 -93.5l123 -74q134 -82 192 -140.5t58 -132.5q0 -119 -132 -203.5t-331 -84.5q-172 0 -266 47.5t-80 144.5q12 87 118.5 152.5t327.5 113.5l-111 76 q-30 20 -37 47.5t4.5 52.5t35.5 48q9 8 21.5 16.5t32.5 19t33 17t43 20t42 19.5q-18 -2 -54 -2q-163 0 -239.5 83t-57.5 234q16 135 114.5 226.5t252.5 91.5q113 0 184 -41zM449 446q52 0 89.5 21t59 59t32.5 76.5t17 87.5q8 46 4 90t-16.5 78t-46.5 55t-86 21 q-42 0 -75 -14.5t-54 -37.5t-36 -56.5t-22 -65.5t-12 -70q-8 -46 -3.5 -90t17 -78t46.5 -55t86 -21zM489 20l-18 13q-125 -40 -196.5 -80.5t-94 -72t-28.5 -73.5q-7 -53 36 -87.5t148 -34.5q116 0 188 38t84 113q9 58 -22.5 98.5t-96.5 85.5zM516 1456l105 25q34 -42 68 -90 t78.5 -113t70.5 -102l-56 -48l-215 213l-258 -211l-39 41q167 212 246 285z" />
<glyph horiz-adv-x="843" d="M801 975l200 -4q-33 -64 -59 -94h-162q39 -79 27 -187q-11 -89 -59.5 -162t-126.5 -114q-58 -33 -116.5 -84.5t-84.5 -93.5l123 -74q134 -82 192 -140.5t58 -132.5q0 -119 -132 -203.5t-331 -84.5q-172 0 -266 47.5t-80 144.5q12 87 118.5 152.5t327.5 113.5l-111 76 q-30 20 -37 47.5t4.5 52.5t35.5 48q9 8 21.5 16.5t32.5 19t33 17t43 20t42 19.5q-18 -2 -54 -2q-163 0 -239.5 83t-57.5 234q16 135 114.5 226.5t252.5 91.5q113 0 184 -41zM449 446q52 0 89.5 21t59 59t32.5 76.5t17 87.5q8 46 4 90t-16.5 78t-46.5 55t-86 21 q-42 0 -75 -14.5t-54 -37.5t-36 -56.5t-22 -65.5t-12 -70q-8 -46 -3.5 -90t17 -78t46.5 -55t86 -21zM489 20l-18 13q-125 -40 -196.5 -80.5t-94 -72t-28.5 -73.5q-7 -53 36 -87.5t148 -34.5q116 0 188 38t84 113q9 58 -22.5 98.5t-96.5 85.5zM471 1122q-2 114 46.5 209 t187.5 197l36 -41q-61 -58 -87.5 -112t-27 -105.5t0.5 -122.5q-53 -25 -156 -25z" />
<glyph horiz-adv-x="843" d="M801 975l200 -4q-33 -64 -59 -94h-162q39 -79 27 -187q-11 -89 -59.5 -162t-126.5 -114q-58 -33 -116.5 -84.5t-84.5 -93.5l123 -74q134 -82 192 -140.5t58 -132.5q0 -119 -132 -203.5t-331 -84.5q-172 0 -266 47.5t-80 144.5q12 87 118.5 152.5t327.5 113.5l-111 76 q-30 20 -37 47.5t4.5 52.5t35.5 48q9 8 21.5 16.5t32.5 19t33 17t43 20t42 19.5q-18 -2 -54 -2q-163 0 -239.5 83t-57.5 234q16 135 114.5 226.5t252.5 91.5q113 0 184 -41zM449 446q52 0 89.5 21t59 59t32.5 76.5t17 87.5q8 46 4 90t-16.5 78t-46.5 55t-86 21 q-42 0 -75 -14.5t-54 -37.5t-36 -56.5t-22 -65.5t-12 -70q-8 -46 -3.5 -90t17 -78t46.5 -55t86 -21zM489 20l-18 13q-125 -40 -196.5 -80.5t-94 -72t-28.5 -73.5q-7 -53 36 -87.5t148 -34.5q116 0 188 38t84 113q9 58 -22.5 98.5t-96.5 85.5zM571 1178q-53 0 -81.5 29.5 t-28.5 76.5q0 53 34 89t93 36q51 0 80.5 -33t29.5 -76q0 -56 -33 -89t-94 -33z" />
<glyph d="M426 35l-18 -35h-402l8 37l21 18l80 37l364 643q120 213 199 305l67 50q65 -192 164 -533t138 -465l88 -45l2 -22l-17 -25h-436l8 35l21 20l145 41l-70 264h-421l-142 -262l195 -39zM692 725q-13 48 -39 180q-66 -140 -86 -174l-157 -291h356z" />
<glyph horiz-adv-x="1095" d="M172 1022l21 39h546q174 0 253 -72t69 -188q-10 -114 -78.5 -173t-187.5 -85q129 -16 196.5 -81t57.5 -181q-25 -281 -398 -281h-598l13 37l32 20l133 31l88 885l-141 28zM672 496h-234l-39 -410h240q63 0 108.5 16.5t70.5 47.5t37.5 65.5t16.5 79.5q9 103 -35.5 152 t-164.5 49zM668 975h-181l-41 -402h203q118 0 173 52t63 151q4 47 -2.5 80.5t-28.5 61.5t-68.5 42.5t-117.5 14.5z" />
<glyph horiz-adv-x="1040" d="M1020 926q-52 -197 -113 -318h-59v342q-83 37 -172 37q-171 0 -250 -111.5t-102 -340.5q-8 -84 -7 -153t18 -122.5t49.5 -90.5t87 -56t130.5 -19q190 0 340 133l23 -12l-4 -33q-150 -198 -406 -198q-87 0 -156.5 20.5t-116.5 58t-80.5 88.5t-47.5 112.5t-19.5 130.5 t4.5 141q11 110 50 206t105 172t166.5 120t223.5 44q122 0 216.5 -48.5t119.5 -102.5z" />
<glyph horiz-adv-x="1173" d="M172 1022l21 39h454q100 0 179.5 -19.5t133.5 -54.5t92.5 -84t56 -108.5t24.5 -127t-3 -139.5q-10 -92 -33 -168.5t-65 -144.5t-101.5 -114.5t-145 -73.5t-191.5 -27h-541l13 37l32 20l133 31l88 885l-141 28zM637 973h-152l-86 -885h189q180 0 256.5 99.5t103.5 344.5 q26 240 -44.5 340.5t-266.5 100.5z" />
<glyph horiz-adv-x="1062" d="M172 1022l21 39h841q-17 -179 -41 -287l-47 10q-35 122 -53 191h-406l-38 -395h458q-1 -28 -43.5 -56t-81.5 -35h-344l-39 -403h394l145 225l59 15q-24 -148 -59 -326h-885l13 37l32 20l133 31l88 885l-141 28z" />
<glyph horiz-adv-x="958" d="M625 37l-27 -37h-545l13 37l32 20l133 31l91 887l-136 26l-4 21l19 39h811q-11 -153 -41 -307l-49 12q-34 119 -54 209h-381l-41 -414h469q-3 -27 -44 -54t-78 -36h-357l-37 -383l217 -29z" />
<glyph horiz-adv-x="1105" d="M688 518h336l-55 -502l-45 -30l-72 88q-52 -43 -130 -66.5t-163 -23.5q-120 0 -209 45t-137.5 122.5t-67 175t-6.5 208.5q9 87 35 165t74 148t113.5 120t158.5 79.5t203 29.5q119 0 222.5 -46t127.5 -103q-42 -142 -96 -256h-57v262q-100 51 -218 51q-173 0 -262 -110 t-116 -343q-26 -224 46.5 -338t227.5 -114q138 0 233 61l29 279l-203 47l2 27z" />
<glyph horiz-adv-x="1329" d="M549 37l-21 -37h-475l13 37l32 20l133 31l88 885l-141 28l-6 21l21 39h473l-13 -37l-30 -20l-136 -31l-38 -393h546l39 393l-141 28l-6 21l20 39h475l-12 -37l-33 -20l-137 -31l-86 -887l143 -27l7 -22l-21 -37h-475l12 37l33 20l133 31l41 399h-549l-39 -401l144 -27z " />
<glyph horiz-adv-x="614" d="M549 37l-21 -37h-475l13 37l32 20l133 31l88 885l-141 28l-6 21l21 39h475l-13 -37l-32 -20l-138 -31l-86 -887l144 -27z" />
<glyph horiz-adv-x="550" d="M-82 -236l-8 54q176 -6 276 20q16 76 25 159.5t13.5 168t8.5 117.5l72 690l-174 28l-8 21l24 39h496l-10 -37l-31 -20l-133 -33l-70 -641q-24 -215 -50 -336t-64 -201q-69 -69 -213 -69q-45 0 -90.5 11t-63.5 29z" />
<glyph horiz-adv-x="1165" d="M547 37l-21 -37h-473l13 37l32 20l133 31l99 885l-144 28l-4 21l19 39h444l-12 -39l-31 -21l-106 -30l-97 -885l142 -27zM860 6q-211 294 -342 512v47l475 393l-157 43l-11 23l23 37h346l-18 -64q-207 -182 -510 -419l344 -494l149 -21l-18 -36l-27 -19q-55 -14 -133 -14 q-85 0 -121 12z" />
<glyph horiz-adv-x="987" d="M684 1061l-14 -37l-35 -20l-150 -31l-86 -885h351l161 270l58 13q-40 -230 -76 -371h-840l13 37l32 20l133 31l88 885l-141 28l-6 21l21 39h491z" />
<glyph horiz-adv-x="1406" d="M854 0l12 37l33 20l133 31l68 664l18 131l-67 -109l-193 -268q-5 -7 -27.5 -38t-33 -44.5t-29.5 -36.5t-37 -41l-63 -14l-213 426l-54 119l-4 -129l-65 -660l143 -29l6 -22l-18 -37h-412l12 37l33 20l133 31l88 885l-141 28l-6 21l20 39h295l269 -551l379 551h327 l-12 -37l-31 -20l-137 -31l-86 -887l143 -27l6 -22l-20 -37h-469z" />
<glyph horiz-adv-x="1249" d="M901 1022l21 39h409l-12 -37l-31 -20l-137 -31l-57 -596q-29 -313 -47 -385l-35 -19l-125 162q-326 490 -402 608l-79 129l-11 -145l-61 -641l141 -27l6 -22l-18 -37h-412l12 37l33 20l133 31l88 885l-141 28l-6 21l20 39h285l438 -684l70 -123l12 166l56 553l-144 28z " />
<glyph horiz-adv-x="1132" d="M565 74q90 0 151.5 29.5t99.5 92.5t58.5 141.5t32.5 194.5q15 145 4 246.5t-73 156t-181 54.5q-71 0 -124.5 -20.5t-88.5 -56t-59 -95.5t-37.5 -126t-23.5 -159q-14 -108 -10 -193.5t27.5 -144t78.5 -89.5t145 -31zM555 -16q-89 0 -159.5 20.5t-117.5 58t-79.5 88.5 t-46.5 112.5t-18.5 130.5t5.5 141q9 89 33 167t67 147.5t102 119.5t143 79t184 29q88 0 159 -20.5t118 -58t80.5 -88.5t48 -112t20 -129.5t-3.5 -140.5q-12 -114 -47 -208t-96.5 -171.5t-161.5 -121t-230 -43.5z" />
<glyph horiz-adv-x="1011" d="M625 37l-27 -37h-545l13 37l32 20l133 31l88 885l-141 28l-6 21l21 39h514q192 0 279.5 -83.5t74.5 -223.5q-13 -149 -116.5 -225t-282.5 -76h-228l-35 -365l217 -29zM680 975h-193l-45 -438h209q66 0 111.5 15t71.5 45t38.5 66.5t18.5 88.5q11 111 -35 167t-176 56z" />
<glyph horiz-adv-x="1132" d="M555 -16q-89 0 -159.5 20.5t-117.5 58t-79.5 88.5t-46.5 112.5t-18.5 130.5t5.5 141q9 89 33 167t67 147.5t102 119.5t143 79t184 29q88 0 159 -20.5t118 -58t80.5 -88.5t48 -112t20 -129.5t-3.5 -140.5q-45 -388 -306 -501q115 -101 217 -172q-80 -73 -151 -115 q-63 80 -180 254q-62 -10 -115 -10zM565 74q33 0 49 2l-77 112l20 43q11 -10 63 -58.5t82 -74.5q94 39 139.5 144.5t65.5 289.5q15 145 4 246.5t-73 156t-181 54.5q-71 0 -124.5 -20.5t-88.5 -56t-59 -95.5t-37.5 -126t-23.5 -159q-14 -108 -10 -193.5t27.5 -144t78.5 -89.5 t145 -31z" />
<glyph d="M516 41l-18 -41h-445l13 37l32 20l133 31l88 885l-141 28l-6 21l21 39h491q197 0 286 -80.5t77 -224.5q-11 -109 -94.5 -178t-227.5 -82l276 -412l150 -21l-18 -36l-27 -19q-57 -14 -133 -14q-87 0 -123 12l-295 475h-117l-39 -393l109 -27zM643 975h-156l-41 -420h181 q125 0 182 52t68 155q11 109 -40 161t-194 52z" />
<glyph horiz-adv-x="964" d="M137 389l58 -16q41 -149 100 -264q77 -35 209 -35q228 0 250 129q8 50 -21 94t-81.5 78t-117 68t-128 72.5t-113.5 82.5t-75 107.5t-11 138.5q20 108 132.5 170.5t278.5 62.5q126 0 220 -35.5t114 -93.5q-44 -160 -92 -258h-55v258q-74 39 -197 39q-244 0 -266 -141 q-7 -47 22 -88.5t81 -74.5t116 -66t128.5 -70.5t116 -80.5t80.5 -104t21 -133q-7 -67 -48.5 -117t-103 -76.5t-124.5 -39t-125 -12.5q-155 0 -258.5 38t-124.5 87q-5 113 14 280z" />
<glyph horiz-adv-x="997" d="M741 37l-18 -37h-477l12 37l33 20l133 31l96 883h-217q-23 -46 -153 -281l-44 -8l60 379h899q-22 -234 -51 -381l-39 10q-5 17 -62 281h-225l-96 -885l143 -27z" />
<glyph horiz-adv-x="1208" d="M858 1022l21 39h424l-13 -37l-33 -20l-135 -31l-63 -594q-7 -65 -25 -120.5t-53 -107.5t-84.5 -88t-123.5 -57.5t-167 -21.5q-217 0 -310.5 100.5t-70.5 312.5l60 576l-140 28l-6 21l21 39h475l-12 -37l-33 -20l-135 -31l-66 -596q-17 -152 41 -217.5t209 -65.5 q138 0 212 67t89 212l66 600l-142 28z" />
<glyph horiz-adv-x="1042" d="M799 1026l22 35h326l-14 -51q-72 -134 -212 -385t-167 -301q-8 -15 -37 -69t-41 -75t-35 -59.5t-43 -65t-41 -49.5l-68 -16q-41 117 -82.5 267.5t-99 383t-82.5 328.5l-86 43l-2 22l17 27h415l-8 -35l-20 -20l-152 -43l150 -576l47 -217l94 207l309 569l-180 53z" />
<glyph horiz-adv-x="1380" d="M426 8l-57 -16l-62 352q-31 184 -92 625l-92 43l-2 22l16 27h416l-8 -35l-19 -20l-149 -39l80 -580l14 -170l57 131l271 529l55 24l154 -514l34 -166l54 158l227 567l-197 51l-6 27l19 37h327l-14 -51q-54 -134 -157 -386t-148 -362q-59 -142 -125 -256l-59 -16l-158 538 l-31 134q-11 -29 -51 -117l-148 -283q-3 -6 -24.5 -47t-29 -55t-25.5 -45.5t-34.5 -56.5t-35.5 -50z" />
<glyph horiz-adv-x="1075" d="M584 1061l-9 -35l-18 -20l-137 -37l129 -211q29 -47 80 -142l303 338l-178 45l-6 27l18 35h348l-16 -55q-60 -71 -131 -146t-161.5 -168.5t-133.5 -138.5l303 -463l92 -43v-22l-14 -25h-418l6 35l21 20l126 35l-131 211q-18 28 -94 162l-321 -367l176 -37l6 -24l-18 -35 h-408l8 37l21 18l73 33q56 63 121.5 133t153 161.5t137.5 145.5l-276 443l-84 41v22l16 27h416z" />
<glyph horiz-adv-x="968" d="M535 1061l-11 -35l-18 -20l-141 -37l163 -340l52 -123l90 131l237 313l-170 49l-8 27l21 35h325l-14 -53q-71 -101 -242.5 -313.5t-202.5 -252.5l-38 -354l147 -29l6 -22l-20 -37h-475l12 37l31 20l139 31l37 340l-260 539l-76 45l-2 22l16 27h402z" />
<glyph horiz-adv-x="999" d="M231 1061h768l17 -35q-43 -98 -131 -219l-613 -719h478l155 246l62 20q-30 -176 -78 -354h-830l11 55q136 181 405.5 499.5t349.5 418.5h-450q-53 -103 -156 -289l-47 -8z" />
<glyph horiz-adv-x="1589" d="M600 0l14 37l31 20l133 31l29 272h-371l-188 -264l178 -35l10 -24l-22 -37h-418l18 37l23 22l88 35l477 643q137 184 244 289l55 35h658q-17 -179 -41 -287l-48 10q-35 122 -53 191h-383l-39 -395h437q-1 -28 -43.5 -56t-81.5 -35h-322l-39 -403h371l145 225l60 15 q-19 -118 -60 -326h-862zM713 745l-219 -305h321l51 521z" />
<glyph horiz-adv-x="1527" d="M618 0q-142 0 -244 42t-156.5 116.5t-75 168t-9.5 205.5q12 115 50 208t105.5 166.5t176 114t250.5 40.5h782q-17 -176 -39 -287l-49 10q-35 122 -53 191h-383l-39 -395h438q-1 -28 -43.5 -56t-81.5 -35h-323l-39 -403h370l148 225l59 15q-5 -25 -17 -94t-23 -128 t-21 -104h-783zM313 528q-26 -236 50.5 -340t263.5 -104h90l90 893h-88q-200 0 -289.5 -103t-116.5 -346z" />
<glyph horiz-adv-x="1132" d="M555 -16q-143 0 -231 49l-91 -133q-51 -11 -108 -11l131 191q-152 137 -117 455q9 89 33 167t67 147.5t102 119.5t143 79t184 29q143 0 235 -53l76 111q43 20 117 24l-125 -184q147 -138 119 -447q-12 -114 -47 -208t-96.5 -171.5t-161.5 -121t-230 -43.5zM313 532 q-26 -230 21 -337l508 741q-62 53 -185 53q-90 0 -152 -29.5t-100.5 -92t-59 -141t-32.5 -194.5zM565 74q90 0 153.5 30t103.5 92t62 141.5t34 194.5q23 230 -23 332l-508 -739q60 -51 178 -51z" />
<glyph horiz-adv-x="1189" d="M70 0l12 37l33 20l133 31l41 408h-156q14 46 43 75h121l39 402l-141 28l-7 21l21 39h455q100 0 179.5 -19.5t133.5 -54.5t92.5 -84t56 -108.5t24.5 -127t-3 -139.5q-12 -116 -47 -208t-97 -166t-161.5 -114t-231.5 -40h-540zM621 496h-166l-39 -408h188q180 0 257 99.5 t104 344.5q26 240 -45 340.5t-267 100.5h-151l-39 -402h227q-10 -43 -69 -75z" />
<glyph horiz-adv-x="1062" d="M666 1061l-13 -37l-30 -20l-138 -29l-12 -133h211q203 0 286 -82t70 -225q-13 -149 -116.5 -225.5t-282.5 -76.5h-227l-15 -147l144 -27l6 -22l-21 -37h-475l13 37l32 20l133 31l88 885l-141 28l-6 21l21 39h473zM659 756h-194l-43 -439h209q66 0 111.5 14.5t71.5 45 t38 66.5t18 89q11 112 -35 168t-176 56z" />
<glyph d="M426 35l-18 -35h-402l8 37l21 18l80 37l364 643q120 213 199 305l67 50q65 -192 164 -533t138 -465l88 -45l2 -22l-17 -25h-436l8 35l21 20l145 41l-70 264h-421l-142 -262l195 -39zM692 725q-13 48 -39 180q-66 -140 -86 -174l-157 -291h356zM682 1169l-33 39 q66 61 187 187.5t184 187.5q82 -67 115 -149q-233 -122 -453 -265z" />
<glyph d="M426 35l-18 -35h-402l8 37l21 18l80 37l364 643q120 213 199 305l67 50q65 -192 164 -533t138 -465l88 -45l2 -22l-17 -25h-436l8 35l21 20l145 41l-70 264h-421l-142 -262l195 -39zM969 1522l90 16q-15 -155 -96 -243.5t-213 -88.5q-131 0 -192 84t-48 215l86 23 q-7 -59 3 -98.5t36.5 -59t57.5 -26.5t77 -7q97 0 143 38.5t56 146.5zM692 725q-13 48 -39 180q-66 -140 -86 -174l-157 -291h356z" />
<glyph d="M426 35l-18 -35h-402l8 37l21 18l80 37l364 643q120 213 199 305l67 50q65 -192 164 -533t138 -465l88 -45l2 -22l-17 -25h-436l8 35l21 20l145 41l-70 264h-421l-142 -262l195 -39zM692 725q-13 48 -39 180q-66 -140 -86 -174l-157 -291h356zM711 1522l104 24 q34 -42 68 -90t78.5 -113t70.5 -102l-55 -47l-215 213l-258 -211l-39 41q167 212 246 285z" />
<glyph d="M426 35l-18 -35h-402l8 37l21 18l80 37l364 643q120 213 199 305l67 50q65 -192 164 -533t138 -465l88 -45l2 -22l-17 -25h-436l8 35l21 20l145 41l-70 264h-421l-142 -262l195 -39zM692 725q-13 48 -39 180q-66 -140 -86 -174l-157 -291h356zM543 1268q-48 0 -73.5 27 t-25.5 69q0 47 31 79t84 32q45 0 71.5 -29.5t26.5 -67.5q0 -50 -29.5 -80t-84.5 -30zM944 1268q-47 0 -72.5 27t-25.5 69q0 47 31 79t84 32q45 0 71.5 -29.5t26.5 -67.5q0 -50 -30 -80t-85 -30z" />
<glyph d="M426 35l-18 -35h-402l8 37l21 18l80 37l364 643q120 213 199 305l67 50q65 -192 164 -533t138 -465l88 -45l2 -22l-17 -25h-436l8 35l21 20l145 41l-70 264h-421l-142 -262l195 -39zM692 725q-13 48 -39 180q-66 -140 -86 -174l-157 -291h356zM905 1200l-43 -37 q-170 148 -366 283q51 73 147 133q40 -57 126 -185t136 -194z" />
<glyph d="M426 35l-18 -35h-402l8 37l21 18l80 37l364 643q120 213 199 305l67 50q65 -192 164 -533t138 -465l88 -45l2 -22l-17 -25h-436l8 35l21 20l145 41l-70 264h-421l-142 -262l195 -39zM692 725q-13 48 -39 180q-66 -140 -86 -174l-157 -291h356zM500 1409h569 q-6 -26 -30.5 -58.5t-49.5 -45.5h-538q19 72 49 104z" />
<glyph d="M426 35l-18 -35h-402l8 37l21 18l80 37l364 643q120 213 199 305l67 50q65 -192 164 -533t138 -465l88 -45l2 -22l-17 -25h-43q-83 0 -162 -75t-90 -156q-6 -52 21 -79.5t76 -27.5q66 0 116 31l17 -21l-6 -26q-25 -29 -75.5 -49.5t-111.5 -20.5q-87 0 -134.5 43 t-35.5 123q13 84 92.5 152.5t184.5 105.5h-285l8 35l21 20l145 41l-70 264h-421l-142 -262l195 -39zM692 725q-13 48 -39 180q-66 -140 -86 -174l-157 -291h356z" />
<glyph d="M743 1370q98 0 155 -58t48 -149q-8 -71 -50 -122.5t-112 -71.5q45 -135 132 -435t131 -442l88 -45l2 -22l-17 -25h-436l8 35l21 20l145 41l-70 264h-421l-142 -262l195 -39l6 -24l-18 -35h-402l8 37l21 18l80 37l364 643q77 136 142 232q-65 20 -98 73t-25 123 q7 90 76.5 148.5t168.5 58.5zM692 725q-13 48 -39 180q-66 -140 -86 -174l-157 -291h356zM831 1163q12 140 -94 140q-62 0 -91.5 -34.5t-37.5 -105.5q-6 -67 18.5 -103t75.5 -36q63 0 92 34t37 105z" />
<glyph d="M426 35l-18 -35h-402l8 37l21 18l80 37l364 643q120 213 199 305l67 50q65 -192 164 -533t138 -465l88 -45l2 -22l-17 -25h-436l8 35l21 20l145 41l-70 264h-421l-142 -262l195 -39zM692 725q-13 48 -39 180q-66 -140 -86 -174l-157 -291h356zM598 1343l-113 -92l-43 29 q10 12 32.5 40t34 40.5t32 32t43 33.5t51.5 26q46 -8 150 -44t151 -48l117 98l37 -18q-10 -21 -19 -39t-19.5 -33t-18 -26t-19 -22.5l-17 -17t-18.5 -15t-16.5 -12t-18 -12t-16.5 -10.5q-60 2 -124.5 17.5t-104.5 30.5t-101 42z" />
<glyph horiz-adv-x="1040" d="M1020 926q-52 -197 -113 -318h-59v342q-83 37 -172 37q-171 0 -250 -111.5t-102 -340.5q-8 -84 -7 -153t18 -122.5t49.5 -90.5t87 -56t130.5 -19q190 0 340 133l23 -12l-4 -33q-150 -198 -406 -198q-87 0 -156.5 20.5t-116.5 58t-80.5 88.5t-47.5 112.5t-19.5 130.5 t4.5 141q11 110 50 206t105 172t166.5 120t223.5 44q122 0 216.5 -48.5t119.5 -102.5zM653 1169l-32 39q66 61 186 187t184 188q82 -67 115 -149q-233 -122 -453 -265z" />
<glyph horiz-adv-x="1040" d="M1020 926q-52 -197 -113 -318h-59v342q-83 37 -172 37q-171 0 -250 -111.5t-102 -340.5q-8 -84 -7 -153t18 -122.5t49.5 -90.5t87 -56t130.5 -19q190 0 340 133l23 -12l-4 -33q-150 -198 -406 -198q-87 0 -156.5 20.5t-116.5 58t-80.5 88.5t-47.5 112.5t-19.5 130.5 t4.5 141q11 110 50 206t105 172t166.5 120t223.5 44q122 0 216.5 -48.5t119.5 -102.5zM774 1223l-104 -25q-34 42 -68 90t-78.5 113t-70.5 102l55 47l215 -213l258 211l39 -41q-165 -209 -246 -284z" />
<glyph horiz-adv-x="1040" d="M1020 926q-52 -197 -113 -318h-59v342q-83 37 -172 37q-171 0 -250 -111.5t-102 -340.5q-8 -84 -7 -153t18 -122.5t49.5 -90.5t87 -56t130.5 -19q190 0 340 133l23 -12l-4 -33q-150 -198 -406 -198q-87 0 -156.5 20.5t-116.5 58t-80.5 88.5t-47.5 112.5t-19.5 130.5 t4.5 141q11 110 50 206t105 172t166.5 120t223.5 44q122 0 216.5 -48.5t119.5 -102.5zM682 1522l104 24q34 -42 68 -89t79.5 -114t70.5 -102l-56 -47l-215 213l-258 -211l-39 41q167 212 246 285z" />
<glyph horiz-adv-x="1040" d="M1020 926q-52 -197 -113 -318h-59v342q-83 37 -172 37q-171 0 -250 -111.5t-102 -340.5q-8 -84 -7 -153t18 -122.5t49.5 -90.5t87 -56t130.5 -19q190 0 340 133l23 -12l-4 -33q-150 -198 -406 -198q-87 0 -156.5 20.5t-116.5 58t-80.5 88.5t-47.5 112.5t-19.5 130.5 t4.5 141q11 110 50 206t105 172t166.5 120t223.5 44q122 0 216.5 -48.5t119.5 -102.5zM737 1243q-53 0 -81.5 30t-28.5 77q0 53 34 89t93 36q51 0 80.5 -33t29.5 -76q0 -56 -33 -89.5t-94 -33.5z" />
<glyph horiz-adv-x="1040" d="M481 -154l8 142q-88 8 -155.5 42t-107 85.5t-64 118.5t-27.5 143t4 158q11 110 50 206t105 172t166.5 120t223.5 44q122 0 216.5 -48.5t119.5 -102.5q-52 -197 -113 -318h-59v342q-83 37 -172 37q-171 0 -250 -111.5t-102 -340.5q-8 -84 -7 -153t18 -122.5t49.5 -90.5 t87 -56t130.5 -19q190 0 340 133l23 -12l-4 -33q-140 -184 -371 -196l-19 -86q100 -3 151 -47.5t42 -114.5q-7 -70 -79 -116t-175 -46q-69 0 -119 20.5t-69 49.5l2 26l22 17q21 -18 61 -29.5t78 -11.5q67 0 98.5 23.5t37.5 74.5q14 102 -86 102q-36 0 -54 -2z" />
<glyph horiz-adv-x="1189" d="M70 0l12 37l33 20l133 31l41 408h-156q14 46 43 75h121l39 402l-141 28l-7 21l21 39h455q100 0 179.5 -19.5t133.5 -54.5t92.5 -84t56 -108.5t24.5 -127t-3 -139.5q-12 -116 -47 -208t-97 -166t-161.5 -114t-231.5 -40h-540zM621 496h-166l-39 -408h188q180 0 257 99.5 t104 344.5q26 240 -45 340.5t-267 100.5h-151l-39 -402h227q-10 -43 -69 -75z" />
<glyph horiz-adv-x="1173" d="M172 1022l21 39h454q100 0 179.5 -19.5t133.5 -54.5t92.5 -84t56 -108.5t24.5 -127t-3 -139.5q-10 -92 -33 -168.5t-65 -144.5t-101.5 -114.5t-145 -73.5t-191.5 -27h-541l13 37l32 20l133 31l88 885l-141 28zM637 973h-152l-86 -885h189q180 0 256.5 99.5t103.5 344.5 q26 240 -44.5 340.5t-266.5 100.5zM788 1223l-104 -25q-34 42 -68 90t-78.5 113t-70.5 102l55 47l215 -213l258 211l39 -41q-165 -209 -246 -284z" />
<glyph horiz-adv-x="1062" d="M172 1022l21 39h841q-17 -179 -41 -287l-47 10q-35 122 -53 191h-406l-38 -395h458q-1 -28 -43.5 -56t-81.5 -35h-344l-39 -403h394l145 225l59 15q-24 -148 -59 -326h-885l13 37l32 20l133 31l88 885l-141 28zM641 1169l-33 39q66 61 187 187.5t184 187.5 q82 -67 115 -149q-233 -122 -453 -265z" />
<glyph horiz-adv-x="1062" d="M172 1022l21 39h841q-17 -179 -41 -287l-47 10q-35 122 -53 191h-406l-38 -395h458q-1 -28 -43.5 -56t-81.5 -35h-344l-39 -403h394l145 225l59 15q-24 -148 -59 -326h-885l13 37l32 20l133 31l88 885l-141 28zM928 1522l90 16q-15 -155 -96 -243.5t-213 -88.5 q-131 0 -192 84t-48 215l86 23q-7 -59 3 -98.5t36.5 -59t57.5 -26.5t77 -7q97 0 143 38.5t56 146.5z" />
<glyph horiz-adv-x="1062" d="M172 1022l21 39h841q-17 -179 -41 -287l-47 10q-35 122 -53 191h-406l-38 -395h458q-1 -28 -43.5 -56t-81.5 -35h-344l-39 -403h394l145 225l59 15q-24 -148 -59 -326h-885l13 37l32 20l133 31l88 885l-141 28zM762 1223l-105 -25q-34 42 -68 90t-78.5 113t-70.5 102 l56 47l215 -213l258 211l39 -41q-165 -209 -246 -284z" />
<glyph horiz-adv-x="1062" d="M172 1022l21 39h841q-17 -179 -41 -287l-47 10q-35 122 -53 191h-406l-38 -395h458q-1 -28 -43.5 -56t-81.5 -35h-344l-39 -403h394l145 225l59 15q-24 -148 -59 -326h-885l13 37l32 20l133 31l88 885l-141 28zM670 1522l104 24q34 -42 68 -90t78.5 -113t70.5 -102 l-55 -47l-215 213l-258 -211l-39 41q167 212 246 285z" />
<glyph horiz-adv-x="1062" d="M172 1022l21 39h841q-17 -179 -41 -287l-47 10q-35 122 -53 191h-406l-38 -395h458q-1 -28 -43.5 -56t-81.5 -35h-344l-39 -403h394l145 225l59 15q-24 -148 -59 -326h-885l13 37l32 20l133 31l88 885l-141 28zM502 1268q-48 0 -73.5 27t-25.5 69q0 47 31 79t84 32 q45 0 71.5 -29.5t26.5 -67.5q0 -50 -30 -80t-84 -30zM903 1268q-47 0 -72.5 27t-25.5 69q0 47 31 79t84 32q45 0 71.5 -29.5t26.5 -67.5q0 -50 -30 -80t-85 -30z" />
<glyph horiz-adv-x="1062" d="M172 1022l21 39h841q-17 -179 -41 -287l-47 10q-35 122 -53 191h-406l-38 -395h458q-1 -28 -43.5 -56t-81.5 -35h-344l-39 -403h394l145 225l59 15q-24 -148 -59 -326h-885l13 37l32 20l133 31l88 885l-141 28zM725 1243q-53 0 -82 30t-29 77q0 53 34 89t93 36 q51 0 81 -33t30 -76q0 -56 -33 -89.5t-94 -33.5z" />
<glyph horiz-adv-x="1062" d="M172 1022l21 39h841q-17 -179 -41 -287l-47 10q-35 122 -53 191h-406l-38 -395h458q-1 -28 -43.5 -56t-81.5 -35h-344l-39 -403h394l145 225l59 15q-24 -148 -59 -326h-885l13 37l32 20l133 31l88 885l-141 28zM864 1200l-43 -37q-170 148 -366 283q51 73 147 133 q40 -57 126 -185t136 -194z" />
<glyph horiz-adv-x="1062" d="M172 1022l21 39h841q-17 -179 -41 -287l-47 10q-35 122 -53 191h-406l-38 -395h458q-1 -28 -43.5 -56t-81.5 -35h-344l-39 -403h394l145 225l59 15q-24 -148 -59 -326h-885l13 37l32 20l133 31l88 885l-141 28zM459 1409h569q-6 -26 -30.5 -58.5t-49.5 -45.5h-538 q19 72 49 104z" />
<glyph horiz-adv-x="1062" d="M938 311l59 15q-24 -148 -59 -326q-83 0 -162 -75t-90 -156q-6 -52 20.5 -79.5t75.5 -27.5q67 0 117 31l16 -21l-6 -26q-26 -29 -75.5 -49.5t-110.5 -20.5q-87 0 -134.5 43t-35.5 123q13 84 92 152.5t184 105.5h-776l13 37l32 20l133 31l88 885l-141 28l-6 21l21 39h841 q-17 -179 -41 -287l-47 10q-35 122 -53 191h-406l-38 -395h458q-1 -28 -43.5 -56t-81.5 -35h-344l-39 -403h394z" />
<glyph horiz-adv-x="1105" d="M688 518h336l-55 -502l-45 -30l-72 88q-52 -43 -130 -66.5t-163 -23.5q-120 0 -209 45t-137.5 122.5t-67 175t-6.5 208.5q9 87 35 165t74 148t113.5 120t158.5 79.5t203 29.5q119 0 222.5 -46t127.5 -103q-42 -142 -96 -256h-57v262q-100 51 -218 51q-173 0 -262 -110 t-116 -343q-26 -224 46.5 -338t227.5 -114q138 0 233 61l29 279l-203 47l2 27zM973 1522l90 16q-15 -155 -96 -243.5t-213 -88.5q-131 0 -192 84t-48 215l86 23q-7 -59 3 -98.5t36.5 -59t57.5 -26.5t77 -7q97 0 143 38.5t56 146.5z" />
<glyph horiz-adv-x="1105" d="M688 518h336l-55 -502l-45 -30l-72 88q-52 -43 -130 -66.5t-163 -23.5q-120 0 -209 45t-137.5 122.5t-67 175t-6.5 208.5q9 87 35 165t74 148t113.5 120t158.5 79.5t203 29.5q119 0 222.5 -46t127.5 -103q-42 -142 -96 -256h-57v262q-100 51 -218 51q-173 0 -262 -110 t-116 -343q-26 -224 46.5 -338t227.5 -114q138 0 233 61l29 279l-203 47l2 27zM715 1522l104 24q34 -42 68 -90t78.5 -113t70.5 -102l-55 -47l-215 213l-258 -211l-39 41q167 212 246 285z" />
<glyph horiz-adv-x="1105" d="M688 518h336l-55 -502l-45 -30l-72 88q-52 -43 -130 -66.5t-163 -23.5q-120 0 -209 45t-137.5 122.5t-67 175t-6.5 208.5q9 87 35 165t74 148t113.5 120t158.5 79.5t203 29.5q119 0 222.5 -46t127.5 -103q-42 -142 -96 -256h-57v262q-100 51 -218 51q-173 0 -262 -110 t-116 -343q-26 -224 46.5 -338t227.5 -114q138 0 233 61l29 279l-203 47l2 27zM670 -96q2 -114 -46.5 -209t-187.5 -197l-37 41q61 58 88 111.5t27.5 105.5t-0.5 123q53 25 156 25z" />
<glyph horiz-adv-x="1105" d="M688 518h336l-55 -502l-45 -30l-72 88q-52 -43 -130 -66.5t-163 -23.5q-120 0 -209 45t-137.5 122.5t-67 175t-6.5 208.5q9 87 35 165t74 148t113.5 120t158.5 79.5t203 29.5q119 0 222.5 -46t127.5 -103q-42 -142 -96 -256h-57v262q-100 51 -218 51q-173 0 -262 -110 t-116 -343q-26 -224 46.5 -338t227.5 -114q138 0 233 61l29 279l-203 47l2 27zM770 1243q-53 0 -82 30t-29 77q0 53 34 89t93 36q51 0 81 -33t30 -76q0 -56 -33.5 -89.5t-93.5 -33.5z" />
<glyph horiz-adv-x="1329" d="M549 37l-21 -37h-475l13 37l32 20l133 31l88 885l-141 28l-6 21l21 39h473l-13 -37l-30 -20l-136 -31l-38 -393h546l39 393l-141 28l-6 21l20 39h475l-12 -37l-33 -20l-137 -31l-86 -887l143 -27l7 -22l-21 -37h-475l12 37l33 20l133 31l41 399h-549l-39 -401l144 -27z M782 1522l105 24q34 -42 68 -90t78.5 -113t70.5 -102l-55 -47l-215 213l-259 -211l-38 41q170 216 245 285z" />
<glyph horiz-adv-x="1361" d="M70 0l12 37l33 20l133 31l65 657h-157q8 38 30 64h133l17 164l-141 28l-7 21l21 39h473l-12 -37l-31 -20l-135 -31l-17 -164h547l17 164l-142 28l-6 21l21 39h475l-13 -37l-32 -20l-135 -31l-17 -164h182q-10 -37 -55 -64h-133l-66 -659l144 -27l6 -22l-20 -37h-476 l13 37l32 20l134 31l41 399h-549l-39 -401l143 -27l6 -22l-20 -37h-475zM481 745l-16 -165h547l16 165h-547z" />
<glyph horiz-adv-x="614" d="M549 37l-21 -37h-475l13 37l32 20l133 31l88 885l-141 28l-6 21l21 39h475l-13 -37l-32 -20l-138 -31l-86 -887l144 -27zM391 1169l-33 39q66 61 187 187.5t184 187.5q82 -67 115 -149q-233 -122 -453 -265z" />
<glyph horiz-adv-x="614" d="M549 37l-21 -37h-475l13 37l32 20l133 31l88 885l-141 28l-6 21l21 39h475l-13 -37l-32 -20l-138 -31l-86 -887l144 -27zM678 1522l90 16q-15 -155 -96 -243.5t-213 -88.5q-131 0 -192 84t-48 215l86 23q-7 -59 3 -98.5t36.5 -59t57.5 -26.5t77 -7q97 0 143 38.5 t56 146.5z" />
<glyph horiz-adv-x="614" d="M549 37l-21 -37h-475l13 37l32 20l133 31l88 885l-141 28l-6 21l21 39h475l-13 -37l-32 -20l-138 -31l-86 -887l144 -27zM420 1522l104 24q34 -42 68 -90t78.5 -113t70.5 -102l-55 -47l-215 213l-258 -211l-39 41q167 212 246 285z" />
<glyph horiz-adv-x="614" d="M549 37l-21 -37h-475l13 37l32 20l133 31l88 885l-141 28l-6 21l21 39h475l-13 -37l-32 -20l-138 -31l-86 -887l144 -27zM653 1268q-47 0 -72.5 27t-25.5 69q0 47 31 79t84 32q45 0 71.5 -29.5t26.5 -67.5q0 -50 -30 -80t-85 -30zM252 1268q-47 0 -72.5 27t-25.5 69 q0 47 30.5 79t83.5 32q45 0 72 -29.5t27 -67.5q0 -50 -30 -80t-85 -30z" />
<glyph horiz-adv-x="614" d="M549 37l-21 -37h-475l13 37l32 20l133 31l88 885l-141 28l-6 21l21 39h475l-13 -37l-32 -20l-138 -31l-86 -887l144 -27zM614 1200l-43 -37q-170 148 -366 283q51 73 147 133q40 -57 126 -185t136 -194z" />
<glyph horiz-adv-x="614" d="M549 37l-21 -37h-475l13 37l32 20l133 31l88 885l-141 28l-6 21l21 39h475l-13 -37l-32 -20l-138 -31l-86 -887l144 -27zM209 1409h569q-6 -26 -30.5 -58.5t-49.5 -45.5h-538q19 72 49 104z" />
<glyph horiz-adv-x="614" d="M549 37l-21 -37h-65q-82 -4 -157.5 -77.5t-86.5 -153.5q-6 -52 20.5 -79.5t75.5 -27.5q67 0 117 31l17 -21l-7 -26q-26 -29 -76 -49.5t-110 -20.5q-87 0 -134.5 43t-35.5 123q13 84 92 152.5t184 105.5h-309l13 37l32 20l133 31l88 885l-141 28l-6 21l21 39h475l-13 -37 l-32 -20l-138 -31l-86 -887l144 -27z" />
<glyph horiz-adv-x="614" d="M549 37l-21 -37h-475l13 37l32 20l133 31l88 885l-141 28l-6 21l21 39h475l-13 -37l-32 -20l-138 -31l-86 -887l144 -27zM307 1343l-112 -92l-43 29q11 13 33 40.5t33.5 40t31.5 32t42.5 33.5t51.5 26q46 -8 150 -44t151 -48l117 98l37 -18q-10 -21 -19 -39t-19.5 -33 t-18 -26t-19 -22.5l-17 -17t-18.5 -15t-16.5 -12t-18 -12t-16.5 -10.5q-60 2 -124.5 17.5t-104.5 30.5t-101 42z" />
<glyph horiz-adv-x="614" d="M549 37l-21 -37h-475l13 37l32 20l133 31l88 885l-141 28l-6 21l21 39h475l-13 -37l-32 -20l-138 -31l-86 -887l144 -27zM475 1243q-53 0 -81.5 30t-28.5 77q0 53 34 89t93 36q51 0 80.5 -33t29.5 -76q0 -56 -33 -89.5t-94 -33.5z" />
<glyph horiz-adv-x="550" d="M-82 -236l-8 54q176 -6 276 20q16 76 25 159.5t13.5 168t8.5 117.5l72 690l-174 28l-8 21l24 39h496l-10 -37l-31 -20l-133 -33l-70 -641q-24 -215 -50 -336t-64 -201q-69 -69 -213 -69q-45 0 -90.5 11t-63.5 29zM410 1522l104 24q34 -42 68 -90t78.5 -113t70.5 -102 l-55 -47l-215 213l-258 -211l-39 41q167 212 246 285z" />
<glyph horiz-adv-x="1165" d="M547 37l-21 -37h-473l13 37l32 20l133 31l99 885l-144 28l-4 21l19 39h444l-12 -39l-31 -21l-106 -30l-97 -885l142 -27zM860 6q-211 294 -342 512v47l475 393l-157 43l-11 23l23 37h346l-18 -64q-207 -182 -510 -419l344 -494l149 -21l-18 -36l-27 -19q-55 -14 -133 -14 q-85 0 -121 12zM764 -96q2 -114 -46.5 -209t-187.5 -197l-36 41q61 58 87.5 112t27 105.5t-0.5 122.5q53 25 156 25z" />
<glyph horiz-adv-x="987" d="M684 1061l-14 -37l-35 -20l-150 -31l-86 -885h351l161 270l58 13q-40 -230 -76 -371h-840l13 37l32 20l133 31l88 885l-141 28l-6 21l21 39h491zM389 1169l-33 39q66 61 187 187.5t184 187.5q82 -67 115 -149q-233 -122 -453 -265z" />
<glyph horiz-adv-x="987" d="M684 1061l-14 -37l-35 -20l-150 -31l-86 -885h351l161 270l58 13q-40 -230 -76 -371h-840l13 37l32 20l133 31l88 885l-141 28l-6 21l21 39h491zM950 1053l-223 -369l-41 18q43 113 57 170t29 179q41 10 91.5 11t86.5 -9z" />
<glyph horiz-adv-x="987" d="M684 1061l-14 -37l-35 -20l-150 -31l-86 -885h351l161 270l58 13q-40 -230 -76 -371h-840l13 37l32 20l133 31l88 885l-141 28l-6 21l21 39h491zM657 -96q2 -114 -46 -209t-187 -197l-37 41q61 58 88 111.5t27.5 105.5t-0.5 123q53 25 155 25z" />
<glyph horiz-adv-x="987" d="M684 1061l-14 -37l-35 -20l-150 -31l-86 -885h351l161 270l58 13q-40 -230 -76 -371h-840l13 37l32 20l133 31l88 885l-141 28l-6 21l21 39h491zM733 469q-47 0 -72.5 27t-25.5 69q0 48 31 80.5t84 32.5q45 0 71.5 -29.5t26.5 -68.5q0 -50 -30 -80.5t-85 -30.5z" />
<glyph horiz-adv-x="1003" d="M70 0l12 37l33 20l133 31l28 289l-131 -55q-11 50 -6 77l146 62l51 512l-141 28l-7 21l21 39h491l-14 -37l-35 -20l-149 -31l-43 -436l303 129q8 -20 3.5 -45.5t-17.5 -42.5l-297 -127l-35 -363h350l162 270l57 13q-40 -230 -76 -371h-839z" />
</font>
</defs>
</svg>
