<?xml version="1.0" encoding="UTF-8" standalone="no"?>
<!-- Generator: Adobe Illustrator 15.0.0, SVG Export Plug-In . SVG Version: 6.00 Build 0)  -->

<svg
   xmlns:dc="http://purl.org/dc/elements/1.1/"
   xmlns:cc="http://creativecommons.org/ns#"
   xmlns:rdf="http://www.w3.org/1999/02/22-rdf-syntax-ns#"
   xmlns:svg="http://www.w3.org/2000/svg"
   xmlns="http://www.w3.org/2000/svg"
   xmlns:sodipodi="http://sodipodi.sourceforge.net/DTD/sodipodi-0.dtd"
   xmlns:inkscape="http://www.inkscape.org/namespaces/inkscape"
   version="1.1"
   id="Vrstva_1"
   x="0px"
   y="0px"
   width="299.2558"
   height="264.95233"
   viewBox="0 0 299.2558 264.95233"
   enable-background="new 0 0 300 300"
   xml:space="preserve"
   inkscape:version="0.47 r22583"
   sodipodi:docname="ZZ.svg"><metadata
   id="metadata17"><rdf:RDF><cc:Work
       rdf:about=""><dc:format>image/svg+xml</dc:format><dc:type
         rdf:resource="http://purl.org/dc/dcmitype/StillImage" /></cc:Work></rdf:RDF></metadata><defs
   id="defs15"><inkscape:perspective
     sodipodi:type="inkscape:persp3d"
     inkscape:vp_x="0 : 150 : 1"
     inkscape:vp_y="0 : 1000 : 0"
     inkscape:vp_z="300 : 150 : 1"
     inkscape:persp3d-origin="150 : 100 : 1"
     id="perspective19" /></defs><sodipodi:namedview
   pagecolor="#ffffff"
   bordercolor="#666666"
   borderopacity="1"
   objecttolerance="10"
   gridtolerance="10"
   guidetolerance="10"
   inkscape:pageopacity="0"
   inkscape:pageshadow="2"
   inkscape:window-width="1280"
   inkscape:window-height="1004"
   id="namedview13"
   showgrid="false"
   inkscape:zoom="0.78666667"
   inkscape:cx="149.16021"
   inkscape:cy="132.823"
   inkscape:window-x="-8"
   inkscape:window-y="-8"
   inkscape:window-maximized="1"
   inkscape:current-layer="Vrstva_1" />
<path
   clip-rule="evenodd"
   d="m 131.58721,9.5873233 c 6.568,-9.03199999 15.873,-11.223 25.181,-8.484 2.19,0.82 4.376,2.19 6.292,3.558 1.919,1.643 3.288,3.011 4.381,4.927 l 128.093,221.9759967 c 0.547,0.816 2.19,3.557 3.012,6.566 1.366,5.476 1.095,12.043 -3.831,18.335 -4.926,6.297 -10.948,8.487 -16.972,8.487 H 21.557207 c -5.473,-0.274 -11.223,-1.092 -17.5190003,-9.032 -4.10400004,-6.021 -5.199,-12.863 -2.735,-19.434 0.547,-1.643 1.368,-3.282 1.916,-4.106 l 0.274,-0.816"
   id="path3"
   style="fill-rule:evenodd" />
<path
   clip-rule="evenodd"
   d="M 277.74221,262.21632 H 21.556207 c -2.736,0 -5.199,-0.547 -7.665,-1.646 -2.463,-1.092 -4.6510003,-2.732 -6.2940003,-4.648 -3.558,-4.104 -5.473,-9.58 -4.926,-14.508 0.548,-2.738 1.643,-5.2 2.188,-6.571 0.547,-1.364 0.823,-1.64 1.095,-1.914 L 134.05021,10.956323 c 6.021,-8.2109997 15.053,-10.12699969 23.537,-6.5709997 1.642,0.823 3.282,1.918 4.381,3.011 1.366,1.095 2.461,2.19 3.282,3.5599997 l 127.824,221.972997 c 4.102,6.021 6.292,15.599 -3.29,24.909 -3.831,3.007 -7.937,4.378 -12.042,4.378"
   id="path5"
   style="fill:#ffffff;fill-rule:evenodd" />
<path
   clip-rule="evenodd"
   d="m 281.57521,256.19332 c 2.462,-0.819 4.652,-1.915 6.843,-4.926 3.285,-4.926 3.83,-10.402 0,-15.601 l -127.82,-221.973997 c -5.476,-6.5689997 -12.043,-7.3899997 -18.885,-3.011 -1.093,0.82 -2.188,1.643 -3.009,3.011 L 10.610207,235.66732 c -3.2850003,4.651 -3.8330003,9.854 0,15.601 3.011,4.106 7.115,5.473 10.948,5.473 l 256.188003,0.273 c 1.368,0 2.734,-0.274 3.829,-0.821"
   id="path7"
   style="fill:#d9261c;fill-rule:evenodd" />
<polyline
   clip-rule="evenodd"
   points="51.957,244.229 248.749,244.229 150.217,73.713 "
   id="polyline9"
   style="fill:#ffffff;fill-rule:evenodd"
   transform="translate(-0.83979334,-17.870677)" />
<path
   clip-rule="evenodd"
   d="m 116.53221,202.82032 v 12.868 l -11.769,-8.212 -11.768003,8.212 c 0.273,-18.339 -1.368,-36.953 9.852003,-55.566 6.022,-10.943 19.982,-23.812 31.203,-28.737 12.864,-5.747 25.728,-7.664 38.32,-6.569 l 13.959,12.864 c -4.657,3.562 -9.583,7.118 -14.234,10.398 -14.782,-0.815 -29.834,1.371 -44.34,17.249 -10.401,12.859 -11.769,25.726 -11.223,38.589"
   id="path11"
   style="fill-rule:evenodd" />
</svg>