<?xml version="1.0" encoding="utf-8"?>
<!-- Generator: Adobe Illustrator 15.0.0, SVG Export Plug-In . SVG Version: 6.00 Build 0)  -->
<!DOCTYPE svg PUBLIC "-//W3C//DTD SVG 1.1//EN" "http://www.w3.org/Graphics/SVG/1.1/DTD/svg11.dtd">
<svg version="1.1" id="Vrstva_1" xmlns="http://www.w3.org/2000/svg" xmlns:xlink="http://www.w3.org/1999/xlink" x="0px" y="0px"
	 width="300px" height="300px" viewBox="0 0 300 300" enable-background="new 0 0 300 300" xml:space="preserve">
<path fill-rule="evenodd" clip-rule="evenodd" d="M133.088,29.727c6.524-9.241,15.768-11.417,24.741-8.43
	c2.44,0.818,4.617,1.903,6.52,3.536c1.637,1.361,3.267,2.991,4.354,4.894l127.235,220.212c0.265,0.816,1.903,3.533,2.718,6.524
	c1.36,5.712,1.088,11.961-3.809,18.488c-4.891,5.98-10.871,8.152-16.854,8.152H23.522c-5.434-0.269-11.148-1.084-17.396-8.967
	c-4.079-5.981-5.167-12.781-2.724-19.03c0.821-1.908,1.635-3.537,1.905-4.352l0.547-0.816"/>
<path fill-rule="evenodd" clip-rule="evenodd" fill="#FFFFFF" d="M277.994,280.661H23.522c-2.443,0-5.165-0.815-7.61-1.903
	c-2.173-0.814-4.353-2.445-6.251-4.351c-3.534-4.075-5.437-9.515-4.623-14.68c0.27-2.449,1.355-4.895,2.172-6.521
	c0.548-1.364,0.819-1.637,0.819-1.91L135.26,31.084c5.98-8.426,15.224-10.328,23.384-6.523c1.626,0.815,3.263,1.634,4.62,2.991
	c1.361,1.087,2.172,2.176,2.988,3.533L293.49,251.297c3.801,5.981,6.254,15.499-3.268,24.744
	C286.417,279.301,282.073,280.661,277.994,280.661"/>
<path fill-rule="evenodd" clip-rule="evenodd" fill="#D9261C" d="M282.073,274.679c2.169-0.814,4.62-2.175,6.792-5.166
	c3.26-4.62,3.533-10.06,0-15.494L161.635,33.533c-5.171-6.254-11.692-7.338-18.492-2.991c-1.354,0.815-2.442,1.907-3.258,2.991
	L12.923,254.019c-3.267,4.894-3.807,9.786,0,15.494c2.991,4.079,6.797,5.709,10.599,5.709h254.472
	C279.349,275.222,280.713,274.952,282.073,274.679"/>
<polyline fill-rule="evenodd" clip-rule="evenodd" fill="#FFFFFF" points="52.614,245.043 248.09,245.043 150.485,75.945 "/>
<path fill-rule="evenodd" clip-rule="evenodd" d="M104.267,183.33c-0.544,0-1.63-0.541-1.63-1.357
	c0.275-2.448-0.272-4.896,0.542-7.34c1.088-1.631,3.265-1.089,4.079-3.537c0.547-2.445,0.547-4.62,1.903-7.065
	c0.821-0.546,1.635-0.817,2.447-0.817c5.98,0,12.237-0.271,18.49,0c0.818,0.271,1.904,1.091,2.172,2.175
	c0.549,2.176,0.819,4.351,1.907,6.527c0.816,1.355,3.531,1.355,3.531,3.532c0,2.448,0.276,4.623,0,7.068
	c-0.544,0.543-1.359,0.543-1.9,0.543c0,1.091,0.541,2.175-0.277,2.993c-1.354,0-2.712,0.543-4.076-0.273v-2.72h-22.562
	c-0.276,1.091,0.268,2.175-0.547,2.993c-1.088,0-2.444,0.543-3.532-0.273c-0.275-0.814-0.275-1.629-0.275-2.448"/>
<path fill-rule="evenodd" clip-rule="evenodd" fill="#FFFFFF" d="M132,172.188c-0.547-2.449-0.818-4.897-1.903-7.343
	c-6.524,0-13.049-0.271-19.852,0.271c-0.814,2.448-1.085,4.623-1.626,7.072"/>
<path fill-rule="evenodd" clip-rule="evenodd" d="M119.492,201.274c-0.814,0-2.442-0.816-2.442-1.903
	c0.268-3.533-0.276-6.796,0.268-10.059c1.088-2.988,4.895-1.903,6.254-5.709c0.814-3.26,1.086-6.254,2.45-9.514
	c0.812-1.36,2.442-1.902,3.801-1.902c8.973,0,17.944-0.272,26.915,0.269c1.089,0,2.721,1.36,3.267,2.718
	c0.812,3.268,1.357,6.254,2.714,9.519c1.365,1.902,5.166,2.175,5.166,5.438c0,3.26,0.276,6.522-0.269,10.06
	c-0.541,0.812-1.63,0.812-2.449,0.812c-0.271,1.364,0.274,2.722-0.271,4.351c-2.177,0-4.079,0.274-5.982-0.273
	c-0.271-1.355-0.271-2.713-0.271-4.077h-32.62c-0.276,1.364,0.268,2.722-0.276,4.351c-1.903,0-3.806,0.274-5.704-0.273
	c-0.277-1.355,0-2.713,0-3.804"/>
<path fill-rule="evenodd" clip-rule="evenodd" fill="#FFFFFF" d="M159.458,185.233c-0.817-3.532-1.091-6.792-2.443-10.329
	c-9.521-0.541-19.036-0.541-28.822,0c0,0-0.272,0.27-0.272,0.543l-2.447,9.786"/>
<path fill-rule="evenodd" clip-rule="evenodd" d="M140.971,228.734c-1.086,0-3.261-1.089-3.261-2.718c0-4.352,0-8.702,0.272-13.051
	c0-2.72,4.078-4.351,6.795-5.98c0.818-0.545,1.904-1.907,1.904-2.99c1.087-4.352,1.903-8.429,2.991-12.508
	c0.814-2.175,3.805-3.806,5.98-3.532c12.774,0,25.282-0.273,38.062,0c1.357,0.541,3.806,2.175,4.352,4.077
	c1.085,4.352,1.902,8.426,3.257,12.505c1.088,3.537,7.614,2.989,7.883,8.429c0,4.62,0.277,9.245-0.269,13.592
	c-0.546,1.361-2.444,1.902-3.537,1.902c-0.269,1.908,0.277,3.811-0.269,5.714c-0.272,0.269-0.541,0.269-0.817,0.541
	c-2.715-0.272-5.163,0-7.608-0.272c-0.271-0.269-0.271-0.543-0.271-0.814v-5.437H150.21c0,2.177,0.277,4.079-0.267,5.982
	c-2.722,0.541-5.437,0.541-7.883,0c-0.544-1.903-0.272-3.537-0.272-5.439"/>
<path fill-rule="evenodd" clip-rule="evenodd" fill="#FFFFFF" d="M197.248,206.44c-0.819-4.894-1.634-9.788-2.994-14.68
	c-0.266-0.273-0.812-0.546-1.085-0.546c-13.046,0-26.1,0-39.422,0.272c-0.27,0-0.812,0.545-0.812,1.088l-3.267,13.865"/>
</svg>
