<?xml version="1.0" encoding="utf-8"?>
<!-- Generator: Adobe Illustrator 15.0.0, SVG Export Plug-In . SVG Version: 6.00 Build 0)  -->
<!DOCTYPE svg PUBLIC "-//W3C//DTD SVG 1.1//EN" "http://www.w3.org/Graphics/SVG/1.1/DTD/svg11.dtd">
<svg version="1.1" id="Vrstva_1" xmlns="http://www.w3.org/2000/svg" xmlns:xlink="http://www.w3.org/1999/xlink" x="0px" y="0px"
	 width="300px" height="300px" viewBox="0 0 300 300" enable-background="new 0 0 300 300" xml:space="preserve">
<path fill-rule="evenodd" clip-rule="evenodd" d="M132.626,27.564c6.527-9.247,15.778-11.424,24.751-8.435
	c2.45,0.818,4.627,1.908,6.258,3.538c1.904,1.362,3.538,2.993,4.627,4.897l127.037,220.351c0.546,0.815,2.177,3.534,2.996,6.53
	c1.357,5.713,1.086,11.971-3.808,18.497c-4.898,5.984-10.885,8.158-16.869,8.158H22.993c-5.442-0.269-11.154-1.085-17.412-8.975
	c-4.082-5.984-5.166-12.788-2.72-19.046c0.815-1.902,1.634-3.533,1.904-4.35l0.543-0.815"/>
<path fill-rule="evenodd" clip-rule="evenodd" fill="#FFFFFF" d="M277.618,278.653H22.993c-2.446,0-5.169-0.814-7.619-1.903
	c-2.446-0.816-4.624-2.445-6.254-4.35c-3.539-4.082-5.443-9.523-4.624-14.693c0.27-2.45,1.358-4.896,1.905-6.529
	c0.812-1.359,1.084-1.631,1.084-1.905L134.8,28.925c5.984-8.435,15.235-10.339,23.396-6.527c1.631,0.812,3.262,1.631,4.623,2.988
	c1.361,1.092,2.177,2.178,2.992,3.539l127.311,220.347c3.812,5.984,6.259,15.508-3.533,24.759
	C286.053,277.293,281.699,278.653,277.618,278.653"/>
<path fill-rule="evenodd" clip-rule="evenodd" fill="#D9261C" d="M281.699,272.669c2.177-0.814,4.627-2.174,6.804-5.17
	c3.263-4.622,3.534-10.065,0-15.504L161.185,31.372c-5.165-6.258-11.969-7.342-18.765-2.989c-1.093,0.813-2.178,1.905-2.996,2.989
	L12.112,251.995c-2.992,4.897-3.535,9.794,0,15.504c3.262,4.082,7.069,5.713,10.881,5.713h254.625
	C278.98,273.212,280.341,272.942,281.699,272.669"/>
<polyline fill-rule="evenodd" clip-rule="evenodd" fill="#FFFFFF" points="52.647,242.746 248.241,242.746 150.58,73.538 "/>
<polyline fill-rule="evenodd" clip-rule="evenodd" points="208.572,234.349 208.572,231.433 203.133,231.433 203.133,183.108 
	182.512,151.229 117.241,151.229 96.615,182.935 96.615,231.433 90.951,231.433 90.951,234.349 "/>
<path fill-rule="evenodd" clip-rule="evenodd" fill="#FFFFFF" d="M109.307,227.665l-10.648-5.144v9.254h10.648 M109.307,209.154
	v17.138l-10.648-5.146v-17.3L109.307,209.154z M109.307,189.278l-10.648-6v19.024l10.648,5.136V189.278z M109.307,166.651v21.084
	l-10.199-5.657L109.307,166.651z M109.307,207.438l10.198,4.975c0-5.83-0.45-11.653,0-17.483l-10.198-5.651V207.438z
	 M109.307,226.292l10.198,4.798v-16.966l-10.198-4.97V226.292z M109.307,231.775v-4.11l8.612,4.11H109.307z M125.623,166.313v15.593
	c-3.172,3.771-4.981,7.886-5.663,11.651l-10.653-5.821v-21.084l9.062-13.533L125.623,166.313z M125.623,152.432h-5.889l5.889,10.622
	V152.432z M125.623,181.905v-15.593l5.667,10.452l-0.679,0.514C128.571,178.644,126.985,180.362,125.623,181.905 M142.622,152.432
	v7.195l-2.491-7.195H142.622z M138.544,152.432h-12.921v10.622l7.024,12.852c3.174-2.051,6.577-3.424,9.975-4.109v-7.712
	L138.544,152.432z M158.03,163.914l-2.716,7.196c0.904,0.168,1.812,0.343,2.716,0.516V163.914z M158.03,152.602v7.025l-4.078,11.313
	c-2.265-0.17-4.529-0.17-6.796,0l-0.46,0.171l-4.074-11.483v-7.195L158.03,152.602z M142.622,171.796
	c0.907-0.17,1.812-0.343,2.719-0.518l-2.719-7.194V171.796z M158.03,159.627l2.498-7.025h-2.498V159.627z M175.257,165.797
	l-5.667,10.456c2.266,1.542,4.081,3.085,5.667,4.627V165.797z M175.257,152.432v10.279l-7.024,12.686
	c-3.401-2.059-6.801-3.084-10.202-3.771v-7.712l3.855-11.313L175.257,152.432z M175.257,162.711l5.667-10.279h-5.667V162.711z
	 M191.802,227.148l-9.526,4.627h9.526V227.148z M191.802,208.298v17.479l-9.526,4.627v-17.479L191.802,208.298z M191.802,188.762
	l-9.973,5.481c0.907,5.649,0.226,11.476,0.446,17.313l9.526-4.627V188.762z M191.802,168.711v18.508l-10.197,5.483v-0.34
	c-1.138-3.771-2.724-7.712-6.348-11.482v-15.083l6.798-12.344L191.802,168.711z M191.802,187.219l8.838-4.967l-8.838-13.541V187.219
	z M191.802,206.93v-18.168l9.52-5.313v18.854L191.802,206.93z M191.802,225.776l9.52-4.631v-17.475l-9.52,4.627V225.776z
	 M191.802,231.775v-4.627l9.52-4.627v9.084L191.802,231.775z"/>
<path fill-rule="evenodd" clip-rule="evenodd" d="M177.752,231.775h-53.937v-35.643c0.679-5.66,3.394-11.998,11.556-17.312
	c11.556-6.003,22.887-6.17,34.218,2.397c6.348,5.656,7.934,11.144,8.162,16.627"/>
</svg>
