<?xml version="1.0" encoding="utf-8"?>
<!-- Generator: Adobe Illustrator 15.0.0, SVG Export Plug-In . SVG Version: 6.00 Build 0)  -->
<!DOCTYPE svg PUBLIC "-//W3C//DTD SVG 1.1//EN" "http://www.w3.org/Graphics/SVG/1.1/DTD/svg11.dtd">
<svg version="1.1" id="Vrstva_1" xmlns="http://www.w3.org/2000/svg" xmlns:xlink="http://www.w3.org/1999/xlink" x="0px" y="0px"
	 width="300px" height="300px" viewBox="0 0 300 300" enable-background="new 0 0 300 300" xml:space="preserve">
<path fill-rule="evenodd" clip-rule="evenodd" d="M132.279,27.148c6.578-9.039,15.886-11.23,25.199-8.491
	c2.192,0.821,4.384,2.191,6.302,3.561c1.916,1.644,3.283,3.013,4.384,4.93l128.179,222.13c0.543,0.82,2.193,3.559,3.014,6.574
	c1.37,5.477,1.097,12.053-3.834,18.35c-4.929,6.3-10.955,8.492-16.981,8.492H22.173c-5.479-0.275-11.229-1.096-17.531-9.039
	c-4.106-6.025-5.203-12.876-2.734-19.448c0.545-1.646,1.366-3.286,1.914-4.108l0.272-0.82"/>
<path fill-rule="evenodd" clip-rule="evenodd" fill="#FFFFFF" d="M278.54,279.956H22.17c-2.734,0-5.2-0.55-7.667-1.646
	c-2.468-1.096-4.655-2.738-6.298-4.655c-3.561-4.109-5.478-9.584-4.93-14.518c0.548-2.737,1.642-5.201,2.19-6.571
	c0.544-1.371,0.823-1.646,1.095-1.921L134.747,28.518c6.024-8.216,15.064-10.133,23.556-6.572c1.643,0.82,3.283,1.917,4.379,3.012
	c1.372,1.094,2.463,2.19,3.288,3.56l127.909,222.128c4.105,6.024,6.298,15.614-3.286,24.927
	C286.759,278.586,282.65,279.956,278.54,279.956"/>
<path fill-rule="evenodd" clip-rule="evenodd" fill="#D9261C" d="M282.375,273.93c2.466-0.823,4.659-1.916,6.847-4.932
	c3.287-4.931,3.837-10.41,0-15.611l-127.91-222.13c-5.477-6.574-12.051-7.395-18.898-3.013c-1.095,0.821-2.191,1.644-3.013,3.013
	L11.218,253.387c-3.288,4.655-3.835,9.86,0,15.611c3.013,4.108,7.12,5.479,10.955,5.479l256.367,0.271
	C279.907,274.747,281.278,274.477,282.375,273.93"/>
<polyline fill-rule="evenodd" clip-rule="evenodd" fill="#FFFFFF" points="51.754,243.802 248.687,243.802 150.084,73.163 "/>
<path fill-rule="evenodd" clip-rule="evenodd" d="M181.581,194.223c-0.275,4.933-1.918,10.684-9.039,15.067
	c-5.479,2.738-11.23,2.738-16.707-0.55l-30.129-22.734v47.112l-9.86-4.931l-10.682,5.206v-53.961
	c0.82-4.379,2.738-9.583,8.215-13.146c6.849-4.384,13.97-4.654,20.817-0.546l27.39,22.187v-38.894l10.681-9.861l9.314,9.861"/>
</svg>
