<?xml version="1.0" encoding="utf-8"?>
<!-- Generator: Adobe Illustrator 16.0.0, SVG Export Plug-In . SVG Version: 6.00 Build 0)  -->
<!DOCTYPE svg PUBLIC "-//W3C//DTD SVG 1.1//EN" "http://www.w3.org/Graphics/SVG/1.1/DTD/svg11.dtd">
<svg version="1.1" id="Vrstva_1" xmlns="http://www.w3.org/2000/svg" xmlns:xlink="http://www.w3.org/1999/xlink" x="0px" y="0px"
	 width="301.068px" height="372.5px" viewBox="0 0 301.068 372.5" enable-background="new 0 0 301.068 372.5" xml:space="preserve">
<path d="M131.677,10.594c6.578-9.039,15.886-11.23,25.2-8.491c2.191,0.821,4.383,2.191,6.301,3.561
	c1.916,1.644,3.283,3.013,4.385,4.93L295.74,232.724c0.545,0.82,2.193,3.56,3.016,6.574c1.369,5.478,1.096,12.054-3.834,18.351
	c-4.93,6.3-10.955,8.491-16.982,8.491H21.571c-5.479-0.274-11.229-1.096-17.531-9.038c-4.106-6.025-5.203-12.876-2.734-19.448
	c0.545-1.646,1.366-3.286,1.914-4.107l0.272-0.82"/>
<path fill="#FFFFFF" d="M277.938,263.402H21.568c-2.734,0-5.2-0.55-7.667-1.646c-2.468-1.097-4.655-2.738-6.298-4.655
	c-3.561-4.109-5.478-9.585-4.93-14.519c0.548-2.736,1.642-5.201,2.19-6.57c0.544-1.371,0.823-1.646,1.095-1.922L134.145,11.964
	c6.024-8.216,15.064-10.133,23.556-6.572c1.643,0.82,3.283,1.917,4.379,3.012c1.373,1.094,2.463,2.19,3.289,3.56l127.908,222.128
	c4.105,6.023,6.297,15.613-3.287,24.927C286.156,262.032,282.049,263.402,277.938,263.402"/>
<path fill="#D9261C" d="M281.773,257.376c2.465-0.822,4.658-1.916,6.848-4.932c3.285-4.932,3.836-10.41,0-15.611l-127.91-222.13
	c-5.479-6.574-12.052-7.395-18.899-3.013c-1.095,0.821-2.191,1.644-3.013,3.013L10.616,236.833c-3.288,4.655-3.835,9.86,0,15.611
	c3.013,4.107,7.12,5.479,10.955,5.479l256.367,0.271C279.305,258.193,280.676,257.923,281.773,257.376"/>
<polyline fill="#FFFFFF" points="51.152,227.248 248.086,227.248 149.482,56.609 "/>
<path d="M180.979,177.669c-0.273,4.934-1.918,10.685-9.039,15.067c-5.479,2.737-11.229,2.737-16.707-0.55l-30.128-22.734v47.112
	l-9.86-4.931l-10.682,5.205v-53.961c0.82-4.379,2.738-9.582,8.215-13.146c6.849-4.384,13.97-4.654,20.817-0.546l27.391,22.187
	v-38.894l10.682-9.861l9.312,9.861"/>
<g>
	<g id="layer1_1_" transform="translate(-204.03328,-362.88444)" inkscape:label="Livello 1" inkscape:groupmode="layer">
		<path id="path3280_1_" fill="#1F1917" d="M265.952,675.682v33.788h12.75v-33.788l7.437,2.763l-13.601-14.238l-14.662,14.238"/>
		<path id="path3282_1_" fill="#1F1917" d="M431.07,677.594v33.788h12.752v-33.788l7.436,2.763l-13.6-14.238l-14.449,14.238"/>
		<path id="path3286_1_" fill="#1F1917" d="M331.689,707.716l0.635-7.756h-10.629l8.28-13.099c1.338-2.117,2.384-4.48,2.059-7.597
			c-0.326-3.113-1.769-6.795-4.126-8.819c-2.356-2.023-5.626-2.391-7.815-2.521s-3.301-0.023-4.907,0.407
			c-1.607,0.43-3.708,1.185-5.397,2.552c-1.691,1.367-2.971,3.345-3.634,5.5l6.994,5.249c0.144-2.196,1.499-4.457,3.567-5.412
			c2.069-0.953,4.852-0.6,5.896,1.533c1.042,2.132,0.316,6.02-1.373,8.455c-4.939,7.161-9.989,14.32-14.817,21.479"/>
		<path id="path3288_1_" fill="#1F1917" d="M362.277,682.85l-5.166,9.952v-24.057h-7.291v38.971h7.291v-11.985l5.363,11.982h7.686
			l-6.23-13.75l5.639-11.113"/>
		<path id="path3290_1_" fill="#1F1917" d="M392.354,689.188c0.742-0.7,1.727-0.99,2.801,0.045c0.277,0.338,0.404,0.78,0.404,1.21
			l-0.025,17.273h7.447c0-5.844,0-11.688,0-17.531l-0.008,0.001c-0.129-2.023-0.006-3.828-2.832-6.238
			c-1.732-1.278-3.484-1.517-5.547-1.247c-1.23,0.176-2.551,0.926-3.957,2.128c-2.57-3.048-6.057-2.826-9.223-0.374v-1.602h-7.211
			v24.823h7.211c0.027-6.078-0.107-12.192,0.088-18.232c0.666-1.213,1.387-1.083,2.422-0.796c0.705,0.391,0.916,1.185,0.875,1.754
			l-0.027,17.274h7.131l0.002-17.313c0.004-0.385,0.119-0.798,0.445-1.176"/>
	</g>
	<g>
		<path d="M257.008,287.321c4.963,0,9,4.037,9,9V353.5c0,4.963-4.037,9-9,9H44.061c-4.962,0-9-4.037-9-9v-57.179
			c0-4.963,4.038-9,9-9H257.008 M257.008,284.321H44.061c-6.627,0-12,5.373-12,12V353.5c0,6.627,5.373,12,12,12h212.947
			c6.627,0,12-5.373,12-12v-57.179C269.008,289.694,263.635,284.321,257.008,284.321L257.008,284.321z"/>
	</g>
</g>
</svg>
