<?xml version="1.0" encoding="utf-8"?>
<!-- Generator: Adobe Illustrator 15.0.0, SVG Export Plug-In . SVG Version: 6.00 Build 0)  -->
<!DOCTYPE svg PUBLIC "-//W3C//DTD SVG 1.1//EN" "http://www.w3.org/Graphics/SVG/1.1/DTD/svg11.dtd">
<svg version="1.1" id="Vrstva_1" xmlns="http://www.w3.org/2000/svg" xmlns:xlink="http://www.w3.org/1999/xlink" x="0px" y="0px"
	 width="300px" height="300px" viewBox="0 0 300 300" enable-background="new 0 0 300 300" xml:space="preserve">
<path fill-rule="evenodd" clip-rule="evenodd" d="M132.357,25.589c6.522-8.962,15.758-11.136,24.987-8.419
	c2.174,0.814,4.344,2.173,6.249,3.531c1.901,1.629,3.26,2.987,4.347,4.888l127.105,220.268c0.542,0.814,2.174,3.533,2.992,6.517
	c1.355,5.434,1.082,11.95-3.81,18.198c-4.885,6.247-10.86,8.421-16.836,8.421H23.179c-5.436-0.273-11.141-1.087-17.386-8.967
	c-4.074-5.975-5.161-12.76-2.713-19.28c0.54-1.629,1.358-3.261,1.897-4.074l0.276-0.814"/>
<path fill-rule="evenodd" clip-rule="evenodd" fill="#FFFFFF" d="M277.393,276.273H23.175c-2.711,0-5.16-0.545-7.605-1.628
	c-2.444-1.087-4.616-2.719-6.242-4.62c-3.535-4.074-5.436-9.505-4.889-14.396c0.54-2.711,1.625-5.157,2.168-6.516
	c0.543-1.36,0.82-1.629,1.087-1.901L134.803,26.947c5.976-8.149,14.938-10.049,23.361-6.521c1.626,0.816,3.256,1.903,4.34,2.988
	c1.358,1.087,2.444,2.173,3.263,3.533L292.6,247.212c4.075,5.975,6.249,15.482-3.256,24.715
	C285.542,274.919,281.469,276.273,277.393,276.273"/>
<path fill-rule="evenodd" clip-rule="evenodd" fill="#D9261C" d="M281.195,270.299c2.441-0.814,4.62-1.9,6.793-4.89
	c3.256-4.889,3.801-10.322,0-15.482L161.149,29.661c-5.435-6.518-11.951-7.332-18.743-2.987c-1.087,0.813-2.17,1.63-2.988,2.987
	L12.314,249.927c-3.263,4.62-3.807,9.777,0,15.482c2.988,4.075,7.061,5.435,10.864,5.435l254.214,0.269
	C278.753,271.112,280.105,270.844,281.195,270.299"/>
<polyline fill-rule="evenodd" clip-rule="evenodd" fill="#FFFFFF" points="52.507,240.968 247.79,240.968 150.015,71.76 "/>
<polygon fill-rule="evenodd" clip-rule="evenodd" points="124.212,186.919 141.59,162.202 141.59,138.301 122.855,138.301 
	122.855,159.214 105.469,185.018 105.469,229.286 124.212,229.286 "/>
<polyline fill-rule="evenodd" clip-rule="evenodd" points="172.826,214.349 172.826,187.188 155.444,162.475 155.444,138.301 
	174.458,138.301 174.458,159.214 191.841,185.018 191.841,229.56 172.826,229.56 "/>
</svg>
