<?xml version="1.0" encoding="utf-8"?>
<!-- Generator: Adobe Illustrator 15.0.0, SVG Export Plug-In . SVG Version: 6.00 Build 0)  -->
<!DOCTYPE svg PUBLIC "-//W3C//DTD SVG 1.1//EN" "http://www.w3.org/Graphics/SVG/1.1/DTD/svg11.dtd">
<svg version="1.1" id="Vrstva_1" xmlns="http://www.w3.org/2000/svg" xmlns:xlink="http://www.w3.org/1999/xlink" x="0px" y="0px"
	 width="300px" height="300px" viewBox="0 0 300 300" enable-background="new 0 0 300 300" xml:space="preserve">
<path fill-rule="evenodd" clip-rule="evenodd" d="M132.814,28.225c6.541-8.994,15.806-11.174,25.074-8.448
	c2.181,0.817,4.359,2.181,6.266,3.543c1.911,1.635,3.276,2.998,4.363,4.905L296.069,249.26c0.545,0.822,2.183,3.547,2.998,6.545
	c1.36,5.455,1.091,11.991-3.813,18.26c-4.906,6.271-10.903,8.448-16.899,8.448H23.249c-5.45-0.27-11.174-1.092-17.442-8.994
	c-4.088-5.996-5.18-12.81-2.727-19.349c0.545-1.639,1.362-3.272,1.908-4.088l0.273-0.822"/>
<path fill-rule="evenodd" clip-rule="evenodd" fill="#FFFFFF" d="M278.354,279.788H23.249c-2.724,0-5.179-0.548-7.632-1.635
	c-2.453-1.094-4.632-2.729-6.268-4.635c-3.543-4.09-5.45-9.538-4.905-14.447c0.545-2.721,1.634-5.175,2.179-6.54
	c0.546-1.363,0.819-1.634,1.091-1.906L135.269,29.588c5.995-8.175,14.988-10.083,23.437-6.542c1.637,0.819,3.271,1.909,4.361,2.998
	c1.36,1.091,2.455,2.181,3.271,3.544l127.281,221.037c4.089,5.996,6.27,15.537-3.271,24.8
	C286.531,278.428,282.444,279.788,278.354,279.788"/>
<path fill-rule="evenodd" clip-rule="evenodd" fill="#D9261C" d="M282.17,273.792c2.451-0.817,4.633-1.908,6.813-4.906
	c3.273-4.905,3.816-10.354,0-15.536L161.703,32.313c-5.453-6.541-11.992-7.358-18.805-2.998c-1.09,0.817-2.181,1.636-2.999,2.998
	L12.348,253.35c-3.271,4.635-3.817,9.812,0,15.536c2.998,4.089,7.085,5.452,10.901,5.452l255.105,0.271
	C279.72,274.609,281.081,274.338,282.17,273.792"/>
<polyline fill-rule="evenodd" clip-rule="evenodd" fill="#FFFFFF" points="52.684,244.086 248.646,244.086 150.529,74.559 "/>
<path fill-rule="evenodd" clip-rule="evenodd" d="M206.674,216.282c-8.448-10.627-18.803-13.081-28.074-12.808
	c-7.902,0.546-15.26,2.998-23.71,11.992h-9.811c-8.722-10.086-18.804-12.814-28.344-11.992c-7.905,0.815-16.626,4.088-23.986,13.629
	l-0.271,0.816h-7.632v17.175h129.188V217.92h-6.266"/>
</svg>
