<?xml version="1.0" encoding="utf-8"?>
<!-- Generator: Adobe Illustrator 15.0.0, SVG Export Plug-In . SVG Version: 6.00 Build 0)  -->
<!DOCTYPE svg PUBLIC "-//W3C//DTD SVG 1.1//EN" "http://www.w3.org/Graphics/SVG/1.1/DTD/svg11.dtd">
<svg version="1.1" id="Vrstva_1" xmlns="http://www.w3.org/2000/svg" xmlns:xlink="http://www.w3.org/1999/xlink" x="0px" y="0px"
	 width="300px" height="300px" viewBox="0 0 300 300" enable-background="new 0 0 300 300" xml:space="preserve">
<circle fill-rule="evenodd" clip-rule="evenodd" fill="#FFFFFF" cx="151.915" cy="150.916" r="135.606"/>
<path fill-rule="evenodd" clip-rule="evenodd" d="M199.707,288.275c-44.062,14.968-87.842,11.865-131.62-15.817
	c-11.016-7.061-23.162-17.512-33.048-29.093c-32.764-41.52-38.694-83.04-31.069-124.56c6.214-27.679,18.076-55.641,48.864-83.04
	c41.238-33.893,82.475-40.11,123.713-33.33c28.244,5.651,56.49,17.515,84.17,47.45c34.741,41.24,41.237,82.197,35.307,123.434
	c-5.648,29.376-17.229,59.031-49.994,87.84C230.776,274.435,215.242,282.625,199.707,288.275"/>
<path fill-rule="evenodd" clip-rule="evenodd" fill="#FFFFFF" d="M198.86,285.452c-44.627,14.968-88.972,11.861-133.315-17.795
	c-14.407-9.888-30.788-27.115-39.543-41.803C-0.832,181.228-2.525,136.601,15.268,91.974c7.627-18.074,19.207-36.436,39.262-54.231
	C95.201,4.697,135.592-1.517,176.264,5.264c27.397,5.647,55.078,16.944,82.193,46.6c34.176,40.394,40.673,80.5,34.741,120.889
	c-5.367,28.81-16.946,57.901-48.864,86.431C229.083,272.175,213.83,280.085,198.86,285.452"/>
<path fill-rule="evenodd" clip-rule="evenodd" fill="#D9261C" d="M201.119,278.672c17.795-7.061,35.59-17.791,52.819-36.716
	c33.046-38.697,39.26-77.394,33.893-116.086c-5.084-27.966-16.1-55.928-46.604-83.323c-40.39-33.33-80.78-38.98-121.453-31.069
	c-24.855,5.647-50.276,16.944-74.849,43.497c-33.046,38.693-39.26,77.389-33.893,116.37c5.083,27.679,16.098,55.641,46.604,83.04
	c40.671,33.329,81.063,38.976,121.453,31.068C186.433,283.755,193.777,281.499,201.119,278.672"/>
<path fill-rule="evenodd" clip-rule="evenodd" fill="#FFFFFF" d="M184.738,246.473c14.404-5.084,28.809-13.274,42.932-29.093
	c27.115-32.482,30.506-65.245,22.031-98.007c-5.084-16.381-13.558-33.329-31.918-49.71c-32.764-26.832-65.526-29.943-98.291-20.901
	c-16.383,5.08-33.329,13.554-49.429,32.195c-26.269,32.766-29.376,65.532-20.055,98.295c5.085,16.381,13.841,33.046,32.482,49.144
	c33.046,25.989,65.811,29.092,98.574,19.491C182.196,247.319,183.607,247.035,184.738,246.473"/>
</svg>
