<?xml version="1.0" encoding="utf-8"?>
<!-- Generator: Adobe Illustrator 15.0.0, SVG Export Plug-In . SVG Version: 6.00 Build 0)  -->
<!DOCTYPE svg PUBLIC "-//W3C//DTD SVG 1.1//EN" "http://www.w3.org/Graphics/SVG/1.1/DTD/svg11.dtd">
<svg version="1.1" id="Vrstva_1" xmlns="http://www.w3.org/2000/svg" xmlns:xlink="http://www.w3.org/1999/xlink" x="0px" y="0px"
	 width="300px" height="300px" viewBox="0 0 300 300" enable-background="new 0 0 300 300" xml:space="preserve">
<path fill-rule="evenodd" clip-rule="evenodd" d="M201.179,290.273c-44.03,15.057-88.061,12.215-132.091-15.624
	c-11.077-7.101-23.294-17.611-33.235-29.541C1.767,201.931-3.631,158.752,5.743,115.292c6.534-26.134,18.748-52.836,48.006-78.687
	C95.221,2.802,136.693-3.447,178.169,3.37c28.122,5.681,56.529,17.328,84.366,47.722c34.938,41.191,41.473,82.38,35.508,123.852
	c-5.683,29.259-17.326,59.086-49.994,88.345C232.426,276.354,216.802,284.592,201.179,290.273"/>
<path fill-rule="evenodd" clip-rule="evenodd" fill="#FFFFFF" d="M200.327,287.717c-44.601,15.055-89.197,11.931-133.794-18.18
	c-14.49-9.942-30.965-27.271-39.769-41.757C0.06,182.897-1.928,138.016,15.968,93.134c7.671-18.18,19.318-36.645,39.484-54.256
	C96.358,5.644,136.979-0.606,177.6,5.927c27.556,5.681,55.677,17.043,82.947,46.87c34.087,40.621,40.621,80.958,34.657,121.579
	c-5.398,28.976-17.046,58.234-49.144,86.64C231.004,274.081,215.665,282.036,200.327,287.717"/>
<path fill-rule="evenodd" clip-rule="evenodd" fill="#D9261C" d="M202.882,280.899c17.611-7.386,35.793-17.895,52.834-37.211
	c33.238-38.918,39.77-77.551,34.09-116.466c-5.112-28.124-16.193-56.246-46.87-83.799C202.315,9.903,161.69,4.507,121.07,12.459
	c-24.998,5.683-50.561,16.76-75.277,43.748C12.558,95.122,6.309,133.755,11.992,172.673c5.113,28.121,15.909,56.243,46.585,83.797
	c40.621,33.521,81.241,38.918,121.866,30.964C188.109,286.012,195.496,283.74,202.882,280.899"/>
<path fill-rule="evenodd" clip-rule="evenodd" fill="#FFFFFF" d="M186.407,248.516c14.201-5.396,28.973-13.635,42.894-29.259
	c27.552-32.949,30.677-65.617,22.157-98.569c-5.116-16.475-13.635-33.52-32.102-49.712c-32.664-26.985-65.618-30.393-98.567-21.304
	c-16.479,5.113-33.52,13.635-49.713,32.383c-26.416,32.952-29.54,65.903-20.166,98.855c5.113,16.475,13.917,33.234,32.665,49.426
	c32.953,26.134,66.188,28.976,99.138,19.316C183.849,249.369,184.985,248.801,186.407,248.516"/>
<line fill="none" stroke="#1F1A17" stroke-width="0.216" stroke-miterlimit="10" x1="203.448" y1="186.874" x2="203.448" y2="187.159"/>
<path fill-rule="evenodd" clip-rule="evenodd" d="M73.349,183.749c-2.554,0-6.534-1.135-7.386-5.396
	c-0.285-10.511-0.285-21.021,0-31.815c0.57-2.841,3.125-7.103,7.101-9.091c4.261-2.273,8.237-2.557,12.217-8.237
	c0.852-1.137,1.418-2.557,1.703-3.693c2.273-9.942,4.261-19.599,6.819-29.543c1.418-3.976,7.382-7.952,11.362-8.237
	c29.825-0.283,59.654-0.283,89.479,0c3.976,0.568,8.804,2.273,11.932,7.671c3.125,10.511,5.395,21.304,8.519,31.815
	c1.422,3.693,7.105,6.818,11.362,8.806c3.41,1.42,7.671,6.818,7.386,11.079c0,10.225,0,20.451,0,30.961
	c-0.281,2.557-4.542,5.397-7.386,5.114h-1.988c0,4.545,0.285,8.806,0,13.351c-0.281,0.568-1.702,1.42-2.554,1.42
	c-5.684-0.283-11.362,0.285-17.33-0.283c-0.566-0.285-1.137-1.422-1.137-1.988v-12.784H94.936c0,4.545,0.285,9.091,0,13.636
	c-0.281,0.568-1.703,1.42-2.554,1.42c-5.398-0.283-10.511,0.285-15.909-0.283c-0.566-0.285-1.421-1.422-1.421-1.988v-11.933"/>
<path fill-rule="evenodd" clip-rule="evenodd" fill="#FFFFFF" d="M218.22,147.675c-4.542-0.854-9.94-0.285-13.916,6.816
	c-1.988,5.397-1.707,11.363,6.249,15.908c5.112,1.988,11.362,1.705,15.904-5.967c1.992-5.396,1.707-11.645-6.249-15.906"/>
<path fill-rule="evenodd" clip-rule="evenodd" fill="#FFFFFF" d="M88.406,147.675c-4.832-0.854-10.229-0.285-13.92,6.816
	c-1.988,5.397-1.988,11.363,5.964,15.908c5.398,1.988,11.362,1.705,15.909-5.967c1.988-5.396,1.988-11.645-5.964-15.906"/>
<polyline fill-rule="evenodd" clip-rule="evenodd" fill="#FFFFFF" points="104.31,153.925 104.31,158.184 196.632,158.184 
	196.632,153.925 "/>
<polyline fill-rule="evenodd" clip-rule="evenodd" fill="#FFFFFF" points="104.31,163.865 104.31,168.126 196.632,168.126 
	196.632,163.865 "/>
<path fill-rule="evenodd" clip-rule="evenodd" fill="#FFFFFF" d="M206.006,131.198c-2.558-11.362-4.546-22.726-7.386-33.803
	c-0.285-0.854-1.422-1.705-2.272-1.705c-30.677,0-61.357-0.283-92.038,0c-0.852,0.283-2.554,1.42-3.125,2.556l-7.382,32.952"/>
</svg>
