<?xml version="1.0" encoding="utf-8"?>
<!-- Generator: Adobe Illustrator 15.0.0, SVG Export Plug-In . SVG Version: 6.00 Build 0)  -->
<!DOCTYPE svg PUBLIC "-//W3C//DTD SVG 1.1//EN" "http://www.w3.org/Graphics/SVG/1.1/DTD/svg11.dtd">
<svg version="1.1" id="Vrstva_1" xmlns="http://www.w3.org/2000/svg" xmlns:xlink="http://www.w3.org/1999/xlink" x="0px" y="0px"
	 width="300px" height="300px" viewBox="0 0 300 300" enable-background="new 0 0 300 300" xml:space="preserve">
<path fill-rule="evenodd" clip-rule="evenodd" d="M200.269,289.301c-44.246,15.033-88.207,11.914-132.449-15.595
	c-10.779-7.094-22.973-17.588-32.902-29.497C2.02,202.518-3.935,160.825,3.72,119.417c5.955-27.795,17.869-56.155,49.066-83.666
	C94.193,1.999,135.604-4.523,177.011,2.566c28.078,5.672,56.726,17.301,84.233,47.648c34.887,41.124,41.691,82.533,35.452,123.657
	c-5.39,29.495-17.299,59.273-49.916,88.486C231.182,275.406,215.583,283.631,200.269,289.301"/>
<path fill-rule="evenodd" clip-rule="evenodd" fill="#FFFFFF" d="M199.134,286.751c-44.53,15.029-89.057,11.913-133.584-18.153
	c-14.749-9.925-30.917-27.228-39.707-41.977C-1.1,181.812-3.084,137,15.064,92.189c7.659-18.151,19.003-36.585,39.422-54.17
	c40.841-33.467,81.398-39.422,121.955-32.9c27.797,5.672,55.591,17.018,82.818,46.796c34.317,40.559,40.841,81.116,34.887,121.672
	c-5.675,28.646-17.019,58.143-49.066,86.502C229.762,273.137,214.448,281.076,199.134,286.751"/>
<path fill-rule="evenodd" clip-rule="evenodd" fill="#D9261C" d="M201.685,279.945c17.584-7.378,35.736-18.152,53.036-37.156
	c33.186-38.854,39.426-77.709,34.036-116.565c-5.104-27.795-16.168-56.156-46.797-83.668C201.119,9.09,160.563,3.701,120.005,11.643
	C95.047,17.315,69.52,28.376,44.847,55.319C11.664,94.176,5.424,133.031,10.81,171.885c5.104,27.796,16.168,56.16,46.796,83.668
	c40.561,33.468,81.117,38.856,121.959,30.917C186.936,285.047,194.311,282.78,201.685,279.945"/>
<path fill-rule="evenodd" clip-rule="evenodd" fill="#FFFFFF" d="M185.235,247.609c14.18-5.386,28.928-13.61,43.111-29.213
	c27.228-32.897,30.628-65.797,21.838-98.413c-4.823-16.733-13.329-33.75-31.767-49.916c-32.897-26.945-65.8-30.347-98.697-21.272
	c-16.449,5.106-33.467,13.898-49.635,32.332c-26.374,32.9-29.494,65.8-20.419,98.7c5.389,16.45,14.179,33.467,32.902,49.349
	c32.897,26.093,66.08,29.212,98.981,19.572C182.685,248.463,183.816,247.895,185.235,247.609"/>
<path fill-rule="evenodd" clip-rule="evenodd" d="M99.867,195.71c5.105,2.268,11.344,1.418,15.314-5.389
	c2.27-5.39,1.705-11.629-5.104-15.6c-5.389-2.27-10.779-2.27-15.599,5.105C91.927,184.932,91.927,191.171,99.867,195.71"/>
<path fill-rule="evenodd" clip-rule="evenodd" fill="#FFFFFF" d="M106.107,190.321c3.685-0.567,6.805-8.225-0.569-10.777
	c-2.266-0.284-5.386,0.567-6.521,4.537c-0.569,2.27,0.281,5.39,4.254,6.522C104.407,190.889,105.257,190.604,106.107,190.321"/>
<path fill-rule="evenodd" clip-rule="evenodd" d="M186.655,196.277c5.104,2.268,11.344,1.7,15.313-5.389
	c2.27-5.105,1.42-11.629-5.389-15.6c-5.105-1.984-10.775-2.27-15.6,5.105C178.711,185.783,178.711,192.023,186.655,196.277"/>
<path fill-rule="evenodd" clip-rule="evenodd" fill="#FFFFFF" d="M193.46,191.456c3.404-0.853,6.524-8.51-0.565-10.777
	c-2.27-0.567-5.674,0.283-6.809,4.253c-0.281,2.27,0.284,5.39,4.539,6.524C191.475,191.738,192.325,191.738,193.46,191.456"/>
<path fill-rule="evenodd" clip-rule="evenodd" d="M237.986,182.379c0.285,0.853-0.85,2.553-2.266,2.553h-30.917
	c-0.28-3.688-2.27-8.507-7.089-11.06c-5.955-2.837-13.045-2.27-18.149,5.388c-0.854,1.984-1.42,3.972-1.704,5.672h-59.841
	c0-3.688-1.989-8.507-6.809-11.345c-5.955-3.119-13.044-2.552-18.153,5.105c-1.131,2.27-1.416,4.254-1.7,6.239
	c-8.225,0-16.734,0.284-24.958-0.283c-0.565,0-1.135-1.135-1.135-1.702c0-6.521-0.285-13.046,0.285-19.568
	c0.285-0.567,0.85-0.567,1.419-0.567v-6.239c1.985-8.509,3.401-17.019,5.955-25.526c0.85-0.852,1.416-0.852,1.985-0.852
	c52.47,0,104.656-0.283,156.838,0c0.569,0.285,1.42,1.135,1.704,1.985c1.416,8.226,3.12,16.451,4.535,24.96"/>
<path fill-rule="evenodd" clip-rule="evenodd" fill="#FFFFFF" d="M72.924,135.868c0-0.567,1.135-1.702,1.985-1.702
	c3.685,0,7.09-0.285,10.779,0.283c0.565,0.285,1.416,1.419,1.416,1.985c-0.285,8.509,0,16.734-0.285,24.958
	c0,1.135-2.266,1.703-3.685,1.42H68.101v-5.957"/>
<path fill-rule="evenodd" clip-rule="evenodd" fill="#FFFFFF" d="M119.721,156.286c8.79,0,17.583,0.285,26.377,0
	c0.85-0.282,1.7-1.417,1.416-2.268c0-5.957,0.285-12.196,0-18.151c-0.281-0.852-1.416-1.702-2.27-1.702
	c-8.79,0.283-17.583,0-26.374,0.283c-0.569,0-1.704,1.135-1.704,2.27c0.285,5.955,0,11.912,0.285,18.151
	C117.736,155.437,118.871,156.571,119.721,156.286"/>
<path fill-rule="evenodd" clip-rule="evenodd" fill="#FFFFFF" d="M152.903,156.286c9.644-0.282,19.003,0,28.646-0.282
	c0.851-0.285,1.416-1.418,1.416-2.27c0-5.955,0.285-12.195,0-18.151c-0.281-0.567-1.416-1.702-2.27-1.417
	c-9.64,0-18.999-0.285-28.644,0c-0.569,0.283-1.7,1.417-1.7,2.268c0.281,5.957,0,12.196,0.281,18.153
	C150.918,155.437,152.053,156.286,152.903,156.286"/>
<path fill-rule="evenodd" clip-rule="evenodd" fill="#FFFFFF" d="M188.64,156.286c8.79-0.282,17.299,0,26.093-0.282
	c0.851,0,1.7-1.135,1.7-2.27c0-5.955,0.285-12.195-0.284-18.151c-0.281-0.85-1.416-1.702-2.266-1.417
	c-8.794,0-17.303-0.285-26.093,0c-1.135,0.283-1.704,1.417-1.704,2.268c0,5.957-0.281,12.196,0.284,18.153
	C186.655,155.437,187.79,156.286,188.64,156.286"/>
<path fill-rule="evenodd" clip-rule="evenodd" fill="#FFFFFF" d="M92.208,156.286c6.809-0.282,13.898,0,20.988-0.282
	c0.85,0,1.704-1.135,1.704-2.27c0-5.955,0-11.627-0.285-17.584c-0.285-0.85-1.419-1.702-2.27-1.702c-7.089,0-13.898,0-20.988,0.285
	c-1.135,0.283-1.701,1.417-1.701,2.268c0,5.672-0.285,11.629,0,17.585C89.938,155.151,91.074,156.286,92.208,156.286"/>
<path fill-rule="evenodd" clip-rule="evenodd" fill="#FFFFFF" d="M231.182,133.881c-3.686,0-7.659-0.283-11.344,0.285
	c-0.851,0.567-1.136,1.417-1.136,1.985c0,6.239-0.284,12.479,0,18.719c0.285,0.567,1.42,1.702,2.271,1.417h15.029
	c-1.416-7.374-2.266-14.747-4.255-22.121C231.467,133.881,231.467,133.881,231.182,133.881"/>
<polyline fill-rule="evenodd" clip-rule="evenodd" fill="#FFFFFF" points="68.385,165.363 86.819,165.363 86.819,166.213 
	68.385,166.213 "/>
<polyline fill-rule="evenodd" clip-rule="evenodd" fill="#FFFFFF" points="89.658,158.271 236.002,158.271 236.002,159.406 
	89.658,159.406 "/>
</svg>
