<?xml version="1.0" encoding="utf-8"?>
<!-- Generator: Adobe Illustrator 15.0.0, SVG Export Plug-In . SVG Version: 6.00 Build 0)  -->
<!DOCTYPE svg PUBLIC "-//W3C//DTD SVG 1.1//EN" "http://www.w3.org/Graphics/SVG/1.1/DTD/svg11.dtd">
<svg version="1.1" id="Vrstva_1" xmlns="http://www.w3.org/2000/svg" xmlns:xlink="http://www.w3.org/1999/xlink" x="0px" y="0px"
	 width="300px" height="300px" viewBox="0 0 300 300" enable-background="new 0 0 300 300" xml:space="preserve">
<path fill-rule="evenodd" clip-rule="evenodd" d="M196.787,292.712c-43.836,13.011-87.673,9.332-131.509-20.077
	C50.571,262.45,34.169,244.916,25.12,229.93c-27.434-45.536-29.13-91.068-11.028-136.6c7.917-18.381,19.513-37.047,40.158-55.148
	C95.539,4.526,136.829-1.976,178.402,5.093c27.998,5.654,56.279,17.25,83.998,47.511c34.783,41.009,41.289,82.299,35.351,123.309
	c-5.657,29.409-17.253,59.106-50.058,87.952C230.724,278.289,213.753,287.058,196.787,292.712"/>
<path fill-rule="evenodd" clip-rule="evenodd" fill="#FFFFFF" d="M195.655,289.885c-42.704,13.011-85.693,9.332-128.678-19.514
	c-14.423-9.9-30.829-27.15-39.594-41.856C0.797,183.83-1.183,139.146,16.635,94.462c7.637-18.102,19.229-36.483,39.594-54.017
	C96.671,7.073,137.112,1.135,177.838,7.637c27.435,5.658,55.148,16.97,82.299,46.667c34.22,40.442,40.726,80.884,34.784,121.041
	c-5.37,28.846-16.967,57.976-48.927,86.542C229.308,276.025,212.626,284.511,195.655,289.885"/>
<path fill-rule="evenodd" clip-rule="evenodd" fill="#291770" d="M198.482,283.099c18.949-7.073,38.463-17.817,57.128-38.462
	c33.089-38.746,39.311-77.493,33.94-116.239c-5.095-27.714-16.123-55.997-46.664-83.427C202.441,11.599,162,6.225,121.558,13.858
	C96.387,19.8,70.936,30.828,46.333,57.695C13.24,96.441,7.019,135.188,12.676,173.934c5.09,27.714,15.838,55.996,46.664,83.146
	c40.442,33.368,80.883,39.026,121.325,31.109C186.603,287.058,192.545,285.358,198.482,283.099"/>
<path fill-rule="evenodd" clip-rule="evenodd" fill="#FFFFFF" d="M135.697,81.734v31.109l-9.612,6.79l6.786,8.201l2.827-1.979
	v52.038c-3.674-0.568-6.786-1.416-9.333-2.264v5.654c1.416,4.81,2.547,9.332,2.831,11.88c0.28,2.827-0.284,6.505-1.416,11.027
	l7.917,21.213v17.817l-9.333-0.283l-22.056-63.634l-22.344,12.164v27.149l-13.007,9.897l-1.416-46.1l29.13-20.925
	c-1.416-4.526-2.543-9.337-2.827-12.164c-0.284-2.827-0.284-4.806,0.284-9.049c0.28-2.263,0.848-5.374,1.696-8.485l-8.769-18.949
	L66.41,122.46c-1.132,0-2.259,0-3.395-0.564c-3.675-0.852-4.806-5.374-3.958-7.921c2.547-4.806,5.374-9.616,7.921-14.423
	c0-3.675,0.284-7.069,1.412-9.049c0.848-2.263,2.827-4.526,5.374-7.069l0.284-12.164l10.464,5.942
	c2.827,0.28,5.654,0.564,8.201,1.127c3.959,0.852,6.222,1.416,9.333,3.111c2.827,1.983,5.938,4.243,8.485,7.354
	c1.695,1.699,3.111,3.679,4.806,6.79c1.416,2.827,3.111,6.786,4.526,10.464l14.987-7.354c-1.131-3.111-1.979-6.222-2.543-8.201
	c-0.284-1.979-0.284-2.547-0.284-3.111C132.022,85.693,133.154,83.434,135.697,81.734 M135.697,53.736
	c-3.111,0.848-5.938,2.547-7.917,5.938c-2.547,3.395-5.938,4.81-9.049,6.79c2.543,0.284,6.222,0.284,8.201,4.242
	c0.564,0.848,0,7.07,4.242,9.049c1.412,1.132,2.827,1.695,4.522,1.979V53.736z M135.697,243.221v-17.817l6.506,18.382
	L135.697,243.221z M228.176,243.785l-0.848-44.965l-17.533-33.939c1.699-5.938,1.699-10.181,0.848-16.402
	c4.526-2.263,9.9-0.848,13.859,4.807c1.415,2.263,1.979,3.962,2.263,6.222c0.563,2.831,0.284,7.921,0,13.011
	c0,2.827,0,5.938,0,8.766l18.382-0.28c0.283-7.354-0.284-14.707-1.132-20.364c-0.848-5.654-2.264-9.613-3.391-12.444
	c-1.416-2.827-2.548-5.09-3.396-6.502c-4.81-6.222-6.785-5.374-10.464-6.505c-3.959-0.848-11.596-1.416-16.97,0.284
	c-1.132,0.564-2.26,0.848-3.111,1.412c-0.563-2.543-3.675-6.506-6.785-8.201c-3.111-1.695-4.526-1.695-8.485-2.263
	c-2.263-0.28-5.658-0.564-8.201-0.564c-6.222-0.284-9.616,0.848-14.423,3.111c2.543-2.827,3.391-6.222,3.111-9.333
	c-0.284-0.848-0.284-1.699-0.852-3.395c-1.128-2.827-5.654-9.616-9.333-15.838c-1.695-3.111-2.827-5.375-3.959-7.354
	c-3.395-5.938-6.785-11.312-9.333-16.402l1.699-4.806l4.239-0.568c-1.411-2.543-2.543-4.806-3.391-7.354
	c-0.848-2.259-1.416-4.522-3.679-6.786c-3.391-2.827-7.633-4.242-11.596-3.395v27.998v31.109l5.094-3.958l4.522,9.616l-9.617,7.354
	v52.038c8.769,1.411,19.797,1.695,28.85-0.568c1.979,4.526,4.522,9.333,7.633,14.144c2.548,3.391,5.942,7.069,9.333,11.875
	c1.415,2.831-0.28,4.243-2.259,5.658l-18.95,34.784l16.119-0.564l17.254-35.352l-3.679-24.039c2.827,3.395,6.505,7.069,9.9,9.896
	c4.522,3.679,10.18,6.506,15.554,10.748l-0.848,39.311H228.176z"/>
</svg>
