<?xml version="1.0" encoding="utf-8"?>
<!-- Generator: Adobe Illustrator 15.0.0, SVG Export Plug-In . SVG Version: 6.00 Build 0)  -->
<!DOCTYPE svg PUBLIC "-//W3C//DTD SVG 1.1//EN" "http://www.w3.org/Graphics/SVG/1.1/DTD/svg11.dtd">
<svg version="1.1" id="Vrstva_1" xmlns="http://www.w3.org/2000/svg" xmlns:xlink="http://www.w3.org/1999/xlink" x="0px" y="0px"
	 width="300px" height="300px" viewBox="0 0 300 300" enable-background="new 0 0 300 300" xml:space="preserve">
<path fill-rule="evenodd" clip-rule="evenodd" d="M194.336,288.443c-43.022,13.045-86.049,9.16-129.075-19.71
	c-14.435-9.718-30.534-27.202-39.419-41.638C-1.083,182.127-2.75,137.437,15.017,92.742C22.792,74.7,34.173,56.379,54.433,38.613
	C94.963,5.582,135.489-0.803,176.294,6.136c27.48,5.553,55.24,16.935,82.442,46.637c34.146,40.248,40.531,80.774,34.698,121.026
	c-5.55,28.87-16.931,58.015-49.133,86.605C227.649,274.561,210.992,282.89,194.336,288.443"/>
<path fill-rule="evenodd" clip-rule="evenodd" fill="#FFFFFF" d="M193.226,285.664c-41.912,12.771-84.106,9.161-126.301-19.152
	c-14.156-9.714-30.255-26.648-38.858-41.084C1.971,181.569,0.028,137.711,17.517,93.853c7.493-17.763,18.874-35.809,38.863-53.019
	C96.073,8.079,135.768,2.25,175.741,8.635c26.927,5.55,54.129,16.657,80.774,45.801c33.591,39.695,39.973,79.389,34.145,119.083
	c-5.275,28.039-16.656,56.905-48.022,84.664C226.26,272.065,209.883,280.394,193.226,285.664"/>
<path fill-rule="evenodd" clip-rule="evenodd" fill="#291770" d="M196.004,279.004c18.6-6.664,37.752-17.488,56.072-37.751
	c32.477-38.031,38.584-76.061,33.309-114.087c-4.995-27.206-15.82-54.962-45.801-81.889c-39.694-32.756-79.389-38.03-119.083-30.256
	c-24.706,5.55-49.69,16.378-73.84,42.748C14.185,95.795,8.078,133.826,13.627,171.855c5,27.203,15.549,54.962,45.805,81.89
	C99.127,286.5,138.821,291.771,178.517,284C184.344,282.89,190.176,281.226,196.004,279.004"/>
<path fill-rule="evenodd" clip-rule="evenodd" fill="#FFFFFF" d="M111.386,122.673c2.139-8.215-5.396-18.757-14.898-20.282
	c-9.502-1.528-20.971,5.96-25.726,15.034L57.188,93.604c8.735-7.541,18.016-12.273,26.054-13.328
	c10.926-1.845,22.624-1.495,34.68,3.204c3.415,1.363,6.528,3.016,9.247,4.831c8.4,5.685,12.477,12.146,14.146,18.347
	c0.55,2.083,0.821,4.142,1.069,8.027c0.249,3.885,0.486,9.597-2.138,15.44c-2.625,5.843-8.103,11.822-14.578,15.922
	c5.956,0.553,11.385,4.194,15.256,12.361c3.874,8.169,6.189,20.865,2.842,31.188c-3.347,10.328-12.36,18.282-19.277,22.981
	c-6.92,4.702-11.743,6.152-16.66,7.164c-9.566,1.996-19.849,2.233-29.77-0.127c-4.819-1.134-9.45-2.835-13.659-4.996
	s-8-4.778-11.393-7.839l15.463-21.566c8.034,8.072,21.754,12.289,32.078,8.317c10.32-3.972,17.24-16.134,13.464-25.161
	c-3.781-9.033-18.257-14.937-29.055-13.461l3.539-18.919C97.437,136.777,109.247,130.889,111.386,122.673"/>
<path fill-rule="evenodd" clip-rule="evenodd" fill="#FFFFFF" d="M203.112,196.6c2.873-0.385,6.171-3.279,7.639-5.972
	c0.641-1.054,1.296-2.342,1.943-4.009c0.651-1.668,1.299-3.713,1.938-6.477c0.634-2.768,1.258-6.253,1.717-11.355
	c0.464-5.098,0.761-11.811,0.761-18.659c0-6.848-0.297-13.832-0.757-19.04c-0.455-5.203-1.068-8.629-1.694-11.321
	c-1.336-5.29-2.176-8.456-5.56-12.556c-5.012-4.838-10.227-4.959-15.389,0c-1.755,2-2.657,3.75-3.689,6.303
	c-0.625,1.596-1.25,3.558-1.871,6.253c-0.621,2.692-1.238,6.118-1.694,11.321c-0.459,5.208-0.757,12.191-0.757,19.318
	c0,7.131,0.298,14.409,0.749,19.703c0.448,5.301,1.051,8.618,1.653,11.23c1.562,5.662,2.019,9.225,7.131,13.663
	C197.868,196.811,200.304,197.07,203.112,196.6 M208.264,220.752c8.029-1.465,15.733-4.412,23.459-14.281
	c1.698-2.232,3.343-4.83,4.905-7.959c1.566-3.129,3.055-6.788,4.387-11.208c1.333-4.424,2.516-9.608,3.352-15.907
	c0.835-6.299,1.325-13.715,1.321-21.25c0-7.53-0.501-15.181-1.34-21.589c-0.84-6.408-2.026-11.573-3.352-15.956
	c-1.321-4.383-2.787-7.975-4.326-11.047c-1.544-3.068-3.163-5.613-4.834-7.797c-12.718-15.101-24.006-15.305-37.857-13.99
	c-7.975,1.438-15.636,4.307-23.264,13.99c-1.668,2.188-3.29,4.729-4.834,7.797c-1.54,3.072-3.008,6.664-4.33,11.047
	c-1.321,4.382-2.508,9.548-3.348,15.956c-0.839,6.408-1.34,14.059-1.344,21.675c0,7.62,0.497,15.211,1.336,21.596
	c0.836,6.386,2.019,11.563,3.34,15.96c1.322,4.397,2.787,8.017,4.33,11.104c1.544,3.087,3.167,5.647,4.835,7.843
	C183.331,221.859,194.581,222.085,208.264,220.752z"/>
</svg>
