<?xml version="1.0" encoding="utf-8"?>
<!-- Generator: Adobe Illustrator 15.0.0, SVG Export Plug-In . SVG Version: 6.00 Build 0)  -->
<!DOCTYPE svg PUBLIC "-//W3C//DTD SVG 1.1//EN" "http://www.w3.org/Graphics/SVG/1.1/DTD/svg11.dtd">
<svg version="1.1" id="Vrstva_1" xmlns="http://www.w3.org/2000/svg" xmlns:xlink="http://www.w3.org/1999/xlink" x="0px" y="0px"
	 width="300px" height="450px" viewBox="0 0 300 450" enable-background="new 0 0 300 450" xml:space="preserve">
<path fill-rule="evenodd" clip-rule="evenodd" fill="#FFFFFF" d="M2.987,17.525c0-1.923,0.385-3.848,1.122-5.625
	c0.734-1.778,1.823-3.409,3.185-4.768c1.362-1.36,2.993-2.452,4.768-3.186c1.776-0.735,3.701-1.12,5.625-1.12h265.739
	c1.924,0,3.849,0.385,5.624,1.12c1.78,0.734,3.411,1.825,4.769,3.186c1.362,1.359,2.452,2.99,3.189,4.768
	c0.733,1.778,1.118,3.703,1.118,5.625v413.348c0,1.926-0.385,3.85-1.118,5.626c-0.737,1.779-1.827,3.41-3.189,4.769
	c-1.357,1.362-2.988,2.451-4.769,3.188c-1.775,0.734-3.7,1.119-5.624,1.119H17.688c-1.925,0-3.85-0.385-5.625-1.119
	c-1.775-0.737-3.406-1.826-4.768-3.188c-1.362-1.358-2.451-2.989-3.185-4.769c-0.737-1.776-1.122-3.7-1.122-5.626V17.525z"/>
<path fill="none" stroke="#000000" stroke-width="0.216" stroke-linejoin="round" stroke-miterlimit="10" d="M2.987,17.525
	c0-1.923,0.385-3.848,1.122-5.625c0.734-1.778,1.823-3.409,3.185-4.768c1.362-1.36,2.993-2.452,4.768-3.186
	c1.776-0.735,3.701-1.12,5.625-1.12h265.739c1.924,0,3.849,0.385,5.624,1.12c1.78,0.734,3.411,1.825,4.769,3.186
	c1.362,1.359,2.452,2.99,3.189,4.768c0.733,1.778,1.118,3.703,1.118,5.625v413.348c0,1.926-0.385,3.85-1.118,5.626
	c-0.737,1.779-1.827,3.41-3.189,4.769c-1.357,1.362-2.988,2.451-4.769,3.188c-1.775,0.734-3.7,1.119-5.624,1.119H17.688
	c-1.925,0-3.85-0.385-5.625-1.119c-1.775-0.737-3.406-1.826-4.768-3.188c-1.362-1.358-2.451-2.989-3.185-4.769
	c-0.737-1.776-1.122-3.7-1.122-5.626V17.525z"/>
<path fill-rule="evenodd" clip-rule="evenodd" fill="#291770" d="M14.801,430.873V17.525c-0.109-0.933,0.878-2.411,1.783-2.667
	c0.349-0.147,0.727-0.222,1.104-0.222h265.739c0.936-0.107,2.41,0.879,2.669,1.784c0.145,0.35,0.222,0.728,0.222,1.105v413.348
	c0.108,0.934-0.88,2.412-1.783,2.671c-0.349,0.145-0.73,0.221-1.107,0.221H17.688c-0.933,0.105-2.411-0.879-2.669-1.783
	C14.873,431.633,14.801,431.252,14.801,430.873"/>
<polyline fill-rule="evenodd" clip-rule="evenodd" fill="#FFFFFF" points="40.073,86.829 74.614,46.128 109.958,86.829 
	92.287,80.401 92.287,404.926 59.62,404.926 59.62,80.401 "/>
<polyline fill-rule="evenodd" clip-rule="evenodd" fill="#FFFFFF" points="169.885,86.829 204.426,46.128 239.77,86.829 
	222.098,80.401 222.098,404.926 189.434,404.926 189.434,80.401 "/>
<path fill-rule="evenodd" clip-rule="evenodd" fill="#FFFFFF" d="M190.683,301.774c-10.916-3.142-22.346-8.905-32.503-21.479
	c-17.519-23.569-18.282-47.14-7.874-70.712c3.811-7.593,9.904-16.237,18.54-22.785c7.361-5.502,14.473-8.904,21.837-11
	c10.413,0,21.079,0,31.741,0c10.921,3.141,22.35,8.905,32.759,21.478c17.776,23.57,18.54,47.139,7.873,70.713
	c-3.556,7.593-9.903,16.236-18.536,23.046c-7.619,5.764-15.238,8.905-22.857,11.263"/>
<path fill-rule="evenodd" clip-rule="evenodd" fill="#D9261C" d="M226.997,297.06c9.395-3.405,20.315-10.738,28.186-21.738
	c14.984-23.047,15.238-46.095,2.287-69.405c-5.08-8.64-15.997-18.856-24.634-22.786c-21.837-9.689-43.424-8.905-65.007,8.905
	c-21.329,20.428-23.617,41.906-19.044,62.857c3.047,10.739,8.378,21.739,20.315,31.951
	C188.399,302.036,207.698,303.608,226.997,297.06"/>
<path fill-rule="evenodd" clip-rule="evenodd" fill="#FFFFFF" d="M221.916,282.13c6.856-2.618,15.492-8.382,21.078-16.759
	c11.684-18.334,11.429-36.932-1.521-55.264c-8.637-11-19.049-15.188-28.443-16.761c-13.713-1.572-27.932,1.046-41.137,17.022
	c-12.95,18.333-12.95,36.931-1.271,55.264c4.572,7.071,13.205,13.357,19.807,15.976C200.841,285.799,211.254,285.799,221.916,282.13
	"/>
<path fill-rule="evenodd" clip-rule="evenodd" d="M184.869,222.817c-2.186,1.929-2.611,4.209-1.083,6.767
	c2.242,2.687,5.201,3.482,8.531,0.486c1.547-1.972,2.013-4.245-0.232-6.835C190.033,221.412,187.636,220.94,184.869,222.817
	 M184.328,242.44c-2.841,2.426-3.541,5.396-0.363,8.672c2.35,1.806,5.076,2.28,8.193,0.287c2.839-2.427,3.54-5.396,0.363-8.673
	C190.171,240.926,187.443,240.45,184.328,242.44z M203.097,230.346c1.663-4.173,1.798-8.505-3.68-13.31
	c-3.976-3.091-8.81-4.111-13.698-3.526c-1.664,0.214-3.269,0.643-4.731,1.246c-1.465,0.606-2.783,1.387-3.912,2.285
	c-4.827,4.089-5.633,8.621-3.675,13.31c0.516,1.119,1.241,2.201,2.176,3.2c0.937,0.995,2.08,1.902,3.326,2.629
	c-1.482,0.927-2.818,2.103-3.879,3.417c-3.211,4.071-3.922,8.865-1.943,13.598c0.646,1.481,1.58,2.887,2.768,4.126
	c1.188,1.241,2.629,2.323,4.253,3.159c3.247,1.678,7.241,2.316,10.993,1.718c1.874-0.294,3.679-0.886,5.302-1.722
	c1.628-0.835,3.069-1.914,4.257-3.155c3.722-3.991,4.678-8.749,3.185-13.438c-0.504-1.518-1.3-2.974-2.36-4.288
	c-1.064-1.315-2.396-2.487-3.882-3.414C200.341,234.566,202.156,232.413,203.097,230.346z"/>
<path fill-rule="evenodd" clip-rule="evenodd" d="M225.377,253.88c0.987-0.135,2.129-1.134,2.636-2.063
	c0.223-0.364,0.447-0.811,0.672-1.385c0.227-0.577,0.447-1.281,0.669-2.237c0.218-0.954,0.436-2.16,0.592-3.921
	c0.16-1.758,0.262-4.079,0.262-6.443c0.004-2.367-0.102-4.78-0.258-6.577c-0.16-1.794-0.37-2.978-0.584-3.907
	c-0.463-1.827-0.752-2.92-1.922-4.336c-1.732-1.67-3.534-1.714-5.316,0c-0.603,0.69-0.916,1.293-1.271,2.175
	c-0.218,0.552-0.432,1.23-0.646,2.161c-0.214,0.93-0.429,2.113-0.585,3.907c-0.16,1.797-0.261,4.21-0.261,6.675
	c0,2.46,0.101,4.973,0.258,6.803c0.156,1.831,0.363,2.975,0.569,3.879c0.541,1.953,0.697,3.185,2.463,4.718
	C223.564,253.952,224.407,254.043,225.377,253.88 M227.153,262.222c2.774-0.509,5.433-1.525,8.102-4.932
	c0.585-0.773,1.155-1.671,1.696-2.749c0.541-1.082,1.053-2.347,1.514-3.872c0.458-1.529,0.869-3.319,1.155-5.495
	c0.291-2.174,0.458-4.734,0.458-7.335c0-2.604-0.174-5.245-0.465-7.457c-0.291-2.211-0.697-3.998-1.155-5.508
	c-0.457-1.515-0.963-2.757-1.495-3.817c-0.531-1.061-1.094-1.939-1.668-2.691c-4.394-5.215-8.291-5.288-13.073-4.834
	c-2.754,0.498-5.401,1.489-8.033,4.834c-0.578,0.755-1.138,1.631-1.671,2.691c-0.534,1.06-1.039,2.302-1.497,3.817
	c-0.454,1.51-0.864,3.297-1.154,5.508c-0.291,2.212-0.465,4.853-0.465,7.485c0,2.63,0.174,5.252,0.461,7.456
	c0.291,2.205,0.697,3.995,1.155,5.513c0.457,1.519,0.963,2.768,1.495,3.836c0.531,1.063,1.094,1.95,1.668,2.709
	C218.546,262.604,222.428,262.68,227.153,262.222z"/>
</svg>
