<?xml version="1.0" encoding="utf-8"?>
<!-- Generator: Adobe Illustrator 15.0.0, SVG Export Plug-In . SVG Version: 6.00 Build 0)  -->
<!DOCTYPE svg PUBLIC "-//W3C//DTD SVG 1.1//EN" "http://www.w3.org/Graphics/SVG/1.1/DTD/svg11.dtd">
<svg version="1.1" id="Vrstva_1" xmlns="http://www.w3.org/2000/svg" xmlns:xlink="http://www.w3.org/1999/xlink" x="0px" y="0px"
	 width="300px" height="450px" viewBox="0 0 300 450" enable-background="new 0 0 300 450" xml:space="preserve">
<path fill-rule="evenodd" clip-rule="evenodd" d="M4.755,21.333L4.755,21.333v408.483c0,1.91,0.38,3.819,1.111,5.582
	c0.729,1.763,1.812,3.382,3.159,4.731c1.352,1.351,2.969,2.431,4.733,3.163c1.763,0.726,3.67,1.109,5.581,1.109h262.56
	c1.91,0,3.82-0.384,5.582-1.109c1.763-0.732,3.382-1.813,4.732-3.163c1.35-1.35,2.43-2.969,3.162-4.731
	c0.726-1.763,1.109-3.672,1.109-5.582V21.333c0-1.908-0.384-3.816-1.109-5.579c-0.732-1.765-1.813-3.382-3.162-4.733
	c-1.351-1.348-2.97-2.43-4.732-3.159c-1.762-0.73-3.672-1.111-5.582-1.111H19.339c-1.91,0-3.818,0.38-5.581,1.111
	c-1.765,0.729-3.382,1.812-4.733,3.159c-1.348,1.352-2.43,2.969-3.159,4.733C5.135,17.518,4.76,19.425,4.755,21.333"/>
<path fill-rule="evenodd" clip-rule="evenodd" fill="#FFFFFF" d="M15.639,24.412c0.002-3.496,0.192-4.792,3.924-4.769l262.335-1.222
	c0.381,0,0.765,0.075,1.12,0.223c0.352,0.145,0.675,0.361,0.94,0.632c0.273,0.269,0.488,0.592,0.632,0.944
	c0.147,0.352,0.223,0.734,0.223,1.115v408.483c0,0.385-0.075,0.765-0.223,1.116c-0.144,0.353-0.358,0.676-0.632,0.944
	c-0.266,0.273-0.589,0.488-0.94,0.632c-0.355,0.147-0.739,0.223-1.12,0.223H19.339c-0.382,0-0.763-0.075-1.117-0.223
	c-0.352-0.144-0.675-0.358-0.944-0.632c-0.271-0.269-0.487-0.592-0.632-0.944c-0.146-0.352-0.221-0.731-0.223-1.116"/>
<path fill-rule="evenodd" clip-rule="evenodd" d="M122.565,362.435v-42.878c0.251-6.195,1.738-11.896,8.677-19.083
	c10.407-8.918,21.561-9.908,33.454-3.221c1.486,0.991,2.977,1.985,4.215,3.221c6.196,6.196,8.429,12.644,8.429,19.083v42.878h2.725
	v-42.878c-0.743-7.431-1.733-15.364-13.383-24.037c-10.163-6.444-21.561-7.188-33.21-0.248c-2.729,1.981-5.449,4.462-8.178,8.178
	c-3.468,5.205-5.205,10.658-5.205,16.107v42.878"/>
<path fill-rule="evenodd" clip-rule="evenodd" d="M122.565,12.75v42.874c0.251,6.196,1.738,11.895,8.677,19.082
	c10.407,8.923,21.561,9.914,33.454,3.222c1.486-0.991,2.977-1.983,4.215-3.222c6.196-6.196,8.429-12.64,8.429-19.082V12.75h2.725
	v42.874c-0.743,7.435-1.733,15.365-13.383,24.038c-10.163,6.444-21.561,7.186-33.21,0.25c-2.729-1.983-5.449-4.462-8.178-8.178
	c-3.468-5.205-5.205-10.658-5.205-16.109V12.75"/>
<path fill-rule="evenodd" clip-rule="evenodd" d="M38.803,82.39l31.472-37.423L101.5,82.39l-16.104-0.25v68.649
	c1.73,7.435,3.22,14.869,6.936,20.318c3.967,5.453,9.916,8.925,16.111,12.393l93.925,56.009c8.921,3.72,16.852,8.674,24.286,15.117
	c7.686,6.444,14.374,14.374,19.084,22.304c4.706,7.934,7.187,15.86,8.178,23.794v61.211h-30.234l0.248-44.112
	c0.495-7.187-0.496-14.126-2.973-21.313c-2.48-7.187-6.447-14.373-12.148-20.074c-5.944-5.945-13.627-10.159-22.056-12.393
	l-79.552-44.855c-12.141-4.707-23.295-11.649-31.225-19.827c-8.178-8.178-13.132-17.099-16.355-25.524
	c-3.224-8.178-4.462-15.612-4.462-23.047V82.141"/>
<polyline fill-rule="evenodd" clip-rule="evenodd" points="77.348,425.638 77.258,375.502 59.495,378.751 59.47,388.598 
	65.953,387.987 66.018,425.638 "/>
<path fill-rule="evenodd" clip-rule="evenodd" d="M137.658,417.568c1.055-0.141,2.265-1.203,2.803-2.19
	c0.237-0.388,0.474-0.861,0.715-1.472c0.237-0.61,0.474-1.36,0.71-2.377c0.23-1.012,0.459-2.294,0.632-4.164
	c0.165-1.874,0.276-4.336,0.276-6.85c0-2.513-0.111-5.076-0.276-6.985c-0.168-1.906-0.395-3.166-0.621-4.153
	c-0.492-1.938-0.8-3.099-2.042-4.606c-1.838-1.773-3.751-1.819-5.643,0c-0.646,0.732-0.977,1.379-1.357,2.313
	c-0.229,0.585-0.459,1.307-0.686,2.294s-0.456,2.247-0.621,4.153c-0.168,1.909-0.276,4.473-0.276,7.09s0.108,5.288,0.273,7.23
	c0.165,1.941,0.384,3.162,0.606,4.117c0.575,2.078,0.74,3.389,2.617,5.015C135.733,417.646,136.631,417.74,137.658,417.568
	 M139.549,426.432c2.947-0.539,5.772-1.619,8.605-5.238c0.625-0.821,1.228-1.773,1.802-2.922c0.574-1.148,1.12-2.491,1.608-4.114
	c0.488-1.622,0.923-3.525,1.231-5.837c0.306-2.312,0.484-5.033,0.484-7.797c0-2.761-0.187-5.568-0.495-7.92
	c-0.309-2.348-0.739-4.246-1.228-5.854c-0.484-1.608-1.02-2.926-1.587-4.053c-0.567-1.128-1.16-2.061-1.773-2.861
	c-4.667-5.539-8.81-5.615-13.889-5.134c-2.926,0.527-5.74,1.583-8.537,5.134c-0.614,0.801-1.206,1.733-1.773,2.861
	c-0.563,1.127-1.102,2.444-1.59,4.053c-0.481,1.608-0.919,3.507-1.228,5.854c-0.309,2.352-0.488,5.159-0.492,7.955
	c0,2.793,0.183,5.579,0.492,7.92c0.305,2.344,0.739,4.243,1.224,5.858c0.484,1.615,1.023,2.94,1.59,4.071
	c0.563,1.134,1.159,2.074,1.773,2.879C130.402,426.837,134.527,426.92,139.549,426.432z"/>
<path fill-rule="evenodd" clip-rule="evenodd" d="M173.24,417.568c1.056-0.141,2.266-1.203,2.804-2.19
	c0.233-0.388,0.474-0.861,0.715-1.472c0.236-0.61,0.474-1.36,0.71-2.377c0.23-1.012,0.46-2.294,0.629-4.164
	c0.169-1.874,0.28-4.336,0.28-6.85c0-2.513-0.111-5.076-0.277-6.985c-0.168-1.906-0.395-3.166-0.624-4.153
	c-0.488-1.938-0.797-3.099-2.039-4.606c-1.838-1.773-3.755-1.819-5.647,0c-0.643,0.732-0.973,1.379-1.353,2.313
	c-0.23,0.585-0.46,1.307-0.689,2.294c-0.223,0.987-0.452,2.247-0.617,4.153c-0.169,1.909-0.28,4.473-0.28,7.09
	s0.111,5.288,0.276,7.23c0.161,1.941,0.384,3.162,0.606,4.117c0.574,2.078,0.739,3.389,2.613,5.015
	C171.316,417.646,172.214,417.74,173.24,417.568 M175.129,426.432c2.947-0.539,5.772-1.619,8.608-5.238
	c0.624-0.821,1.228-1.773,1.802-2.922s1.12-2.491,1.608-4.114c0.488-1.622,0.923-3.525,1.228-5.837
	c0.309-2.312,0.488-5.033,0.488-7.797c-0.003-2.761-0.187-5.568-0.495-7.92c-0.309-2.348-0.739-4.246-1.228-5.854
	c-0.485-1.608-1.023-2.926-1.587-4.053c-0.567-1.128-1.163-2.061-1.773-2.861c-4.667-5.539-8.81-5.615-13.893-5.134
	c-2.923,0.527-5.737,1.583-8.533,5.134c-0.614,0.801-1.21,1.733-1.777,2.861c-0.563,1.127-1.099,2.444-1.587,4.053
	s-0.919,3.507-1.228,5.854c-0.309,2.352-0.491,5.159-0.491,7.955c-0.004,2.793,0.183,5.579,0.491,7.92
	c0.306,2.344,0.739,4.243,1.221,5.858c0.488,1.615,1.026,2.94,1.59,4.071c0.567,1.134,1.16,2.074,1.777,2.879
	C165.981,426.837,170.11,426.92,175.129,426.432z"/>
<path fill-rule="evenodd" clip-rule="evenodd" d="M100.761,417.568c1.052-0.141,2.262-1.203,2.8-2.19
	c0.237-0.388,0.474-0.861,0.714-1.472c0.24-0.61,0.477-1.36,0.71-2.377c0.233-1.012,0.463-2.294,0.628-4.164
	c0.172-1.874,0.28-4.336,0.28-6.85c0-2.513-0.107-5.076-0.276-6.985c-0.168-1.906-0.391-3.166-0.621-4.153
	c-0.492-1.938-0.797-3.099-2.039-4.606c-1.838-1.773-3.755-1.819-5.65,0c-0.643,0.732-0.973,1.379-1.35,2.313
	c-0.23,0.585-0.459,1.307-0.689,2.294c-0.226,0.987-0.452,2.247-0.621,4.153c-0.168,1.909-0.276,4.473-0.276,7.09
	s0.108,5.288,0.273,7.23c0.165,1.941,0.388,3.162,0.61,4.117c0.571,2.078,0.739,3.389,2.613,5.015
	C98.836,417.646,99.73,417.74,100.761,417.568 M102.649,426.432c2.947-0.539,5.772-1.619,8.608-5.238
	c0.621-0.821,1.228-1.773,1.802-2.922s1.117-2.491,1.608-4.114c0.488-1.622,0.919-3.525,1.228-5.837
	c0.309-2.312,0.488-5.033,0.485-7.797c0-2.761-0.183-5.568-0.492-7.92c-0.309-2.348-0.743-4.246-1.228-5.854
	c-0.488-1.608-1.023-2.926-1.59-4.053c-0.563-1.128-1.159-2.061-1.773-2.861c-4.663-5.539-8.806-5.615-13.889-5.134
	c-2.926,0.527-5.736,1.583-8.537,5.134c-0.61,0.801-1.206,1.733-1.773,2.861c-0.567,1.127-1.102,2.444-1.587,4.053
	c-0.488,1.608-0.919,3.507-1.228,5.854c-0.309,2.352-0.496,5.159-0.496,7.955c0,2.793,0.183,5.579,0.488,7.92
	c0.309,2.344,0.743,4.243,1.228,5.858c0.484,1.615,1.023,2.94,1.586,4.071c0.567,1.134,1.163,2.074,1.777,2.879
	C93.502,426.837,97.63,426.92,102.649,426.432z"/>
<path fill-rule="evenodd" clip-rule="evenodd" d="M228.104,401.815c0.955-0.901,2.222-1.274,3.601,0.058
	c0.355,0.435,0.524,1.005,0.524,1.555l-0.036,22.21h9.578c0-7.514,0-15.027,0-22.541l-0.015,0.004
	c-0.165-2.606-0.007-4.925-3.641-8.023c-2.226-1.641-4.479-1.949-7.129-1.601c-1.583,0.223-3.281,1.188-5.091,2.731
	c-3.303-3.916-7.782-3.633-11.86-0.48v-2.058h-9.266v31.918h9.266c0.043-7.815-0.137-15.677,0.118-23.445
	c0.857-1.559,1.784-1.39,3.112-1.02c0.908,0.499,1.178,1.519,1.127,2.254l-0.036,22.211h9.169l0.007-22.261
	C227.541,402.831,227.685,402.3,228.104,401.815"/>
</svg>
