<?xml version="1.0" encoding="UTF-8" standalone="no"?>
<!-- Created with Inkscape (http://www.inkscape.org/) -->

<svg
   xmlns:dc="http://purl.org/dc/elements/1.1/"
   xmlns:cc="http://creativecommons.org/ns#"
   xmlns:rdf="http://www.w3.org/1999/02/22-rdf-syntax-ns#"
   xmlns:svg="http://www.w3.org/2000/svg"
   xmlns="http://www.w3.org/2000/svg"
   xmlns:sodipodi="http://sodipodi.sourceforge.net/DTD/sodipodi-0.dtd"
   xmlns:inkscape="http://www.inkscape.org/namespaces/inkscape"
   width="193.73157"
   height="66.486732"
   id="svg3410"
   version="1.1"
   inkscape:version="0.47 r22583"
   sodipodi:docname="Dopravná značka E4.svg">
  <defs
     id="defs3412">
    <inkscape:perspective
       sodipodi:type="inkscape:persp3d"
       inkscape:vp_x="0 : 526.18109 : 1"
       inkscape:vp_y="0 : 1000 : 0"
       inkscape:vp_z="744.09448 : 526.18109 : 1"
       inkscape:persp3d-origin="372.04724 : 350.78739 : 1"
       id="perspective3418" />
    <inkscape:perspective
       id="perspective3428"
       inkscape:persp3d-origin="0.5 : 0.33333333 : 1"
       inkscape:vp_z="1 : 0.5 : 1"
       inkscape:vp_y="0 : 1000 : 0"
       inkscape:vp_x="0 : 0.5 : 1"
       sodipodi:type="inkscape:persp3d" />
    <inkscape:perspective
       id="perspective3382"
       inkscape:persp3d-origin="0.5 : 0.33333333 : 1"
       inkscape:vp_z="1 : 0.5 : 1"
       inkscape:vp_y="0 : 1000 : 0"
       inkscape:vp_x="0 : 0.5 : 1"
       sodipodi:type="inkscape:persp3d" />
    <inkscape:perspective
       id="perspective4184"
       inkscape:persp3d-origin="0.5 : 0.33333333 : 1"
       inkscape:vp_z="1 : 0.5 : 1"
       inkscape:vp_y="0 : 1000 : 0"
       inkscape:vp_x="0 : 0.5 : 1"
       sodipodi:type="inkscape:persp3d" />
    <inkscape:perspective
       id="perspective4218"
       inkscape:persp3d-origin="0.5 : 0.33333333 : 1"
       inkscape:vp_z="1 : 0.5 : 1"
       inkscape:vp_y="0 : 1000 : 0"
       inkscape:vp_x="0 : 0.5 : 1"
       sodipodi:type="inkscape:persp3d" />
    <inkscape:perspective
       id="perspective4279"
       inkscape:persp3d-origin="0.5 : 0.33333333 : 1"
       inkscape:vp_z="1 : 0.5 : 1"
       inkscape:vp_y="0 : 1000 : 0"
       inkscape:vp_x="0 : 0.5 : 1"
       sodipodi:type="inkscape:persp3d" />
    <inkscape:perspective
       id="perspective4838"
       inkscape:persp3d-origin="0.5 : 0.33333333 : 1"
       inkscape:vp_z="1 : 0.5 : 1"
       inkscape:vp_y="0 : 1000 : 0"
       inkscape:vp_x="0 : 0.5 : 1"
       sodipodi:type="inkscape:persp3d" />
  </defs>
  <sodipodi:namedview
     id="base"
     pagecolor="#ffffff"
     bordercolor="#666666"
     borderopacity="1.0"
     inkscape:pageopacity="0.0"
     inkscape:pageshadow="2"
     inkscape:zoom="1.9937492"
     inkscape:cx="39.211074"
     inkscape:cy="-21.188267"
     inkscape:document-units="px"
     inkscape:current-layer="layer1"
     showgrid="false"
     inkscape:window-width="1600"
     inkscape:window-height="838"
     inkscape:window-x="-8"
     inkscape:window-y="-8"
     inkscape:window-maximized="1" />
  <metadata
     id="metadata3415">
    <rdf:RDF>
      <cc:Work
         rdf:about="">
        <dc:format>image/svg+xml</dc:format>
        <dc:type
           rdf:resource="http://purl.org/dc/dcmitype/StillImage" />
        <dc:title></dc:title>
      </cc:Work>
    </rdf:RDF>
  </metadata>
  <g
     inkscape:label="Livello 1"
     inkscape:groupmode="layer"
     id="layer1"
     transform="translate(-205.47474,-288.73102)">
    <rect
       style="fill:#ffffff;fill-opacity:1;stroke:none"
       id="rect4174"
       width="217.17877"
       height="83.260223"
       x="194.14664"
       y="277.29449"
       rx="19.371056"
       ry="18.173958" />
    <path
       d="m 260.3369,332.65334 122.0247,0 0,-19.0954 -122.0247,0 8.67974,-11.28365 -46.69696,20.48417 46.69696,22.0465"
       style="fill:#000000;fill-opacity:1;fill-rule:evenodd;stroke:none"
       id="path4346" />
    <path
       d="m 388.96422,288.73102 c 1.21517,0 2.60393,0.34718 3.8191,0.86797 1.21515,0.52078 2.43032,1.21516 3.29829,2.08314 2.08313,2.08313 3.1247,4.68705 3.1247,7.29097 l 0,46.00257 c 0,1.21516 -0.34718,2.60392 -0.86797,3.81907 -0.52079,1.21517 -1.21517,2.43034 -2.25673,3.29831 -1.90954,2.08314 -4.68705,3.1247 -7.11739,3.1247 l -86.62369,0 0,-4.86066 86.62369,0 c 1.21517,0 2.60393,-0.34718 3.8191,-1.56235 1.04156,-1.04156 1.56235,-2.60391 1.56235,-3.81907 l 0,-46.00257 c 0,-1.21516 -0.3472,-2.60392 -1.56235,-3.81909 -1.04158,-1.04156 -2.43034,-1.56235 -3.8191,-1.56235 l -86.62369,0 0,-4.86064 86.62369,0 z m -86.62369,66.48673 -86.62371,0 c -1.21516,0 -2.60392,-0.34719 -3.81907,-0.86797 -1.21517,-0.52079 -2.43034,-1.21517 -3.29831,-2.25673 -2.08314,-1.90955 -3.1247,-4.68705 -3.1247,-7.11738 l 0,-46.00257 c 0,-1.38875 0.34719,-2.60392 0.86797,-3.81909 0.52079,-1.38875 1.21517,-2.43031 2.25673,-3.47188 1.90955,-1.90954 4.68705,-2.95111 7.11738,-2.95111 l 86.62371,0 0,4.86064 -86.62371,0 c -1.21516,0 -2.60392,0.3472 -3.81907,1.56235 -1.04158,1.04158 -1.56235,2.43034 -1.56235,3.81909 l 0,46.00257 c 0,1.21516 0.34718,2.43033 1.56235,3.81907 1.04156,1.04158 2.43031,1.56235 3.81907,1.56235 l 86.62371,0"
       style="fill:#000000;fill-opacity:1;fill-rule:evenodd;stroke:none"
       id="path4382" />
    <path
       d="m 289.57312,310.35728 -0.0264,-14.90117 -5.28042,0.96587 -0.008,2.92699 1.92666,-0.18188 0.0193,11.19009"
       style="fill:#000000;fill-opacity:1;fill-rule:evenodd;stroke:none"
       id="path4792" />
    <path
       d="m 298.07252,310.59308 c 0.87543,-0.1599 1.71616,-0.48125 2.5581,-1.5568 0.18516,-0.24399 0.36503,-0.52705 0.535,-0.86868 0.17089,-0.34118 0.33298,-0.74022 0.47859,-1.22216 0.14544,-0.48247 0.2739,-1.04762 0.36552,-1.7345 0.0909,-0.68763 0.14409,-1.49607 0.14409,-2.31749 -7.3e-4,-0.82146 -0.0549,-1.65542 -0.14602,-2.35462 -0.0924,-0.69848 -0.22158,-1.26219 -0.36576,-1.74006 -0.14428,-0.47761 -0.30331,-0.8699 -0.47231,-1.20407 -0.168,-0.33488 -0.3443,-0.6124 -0.52682,-0.85085 -1.38683,-1.64722 -2.61766,-1.66916 -4.12793,-1.52619 -0.87015,0.15721 -1.70605,0.47016 -2.53763,1.52619 -0.1817,0.23845 -0.35899,0.51597 -0.52705,0.85085 -0.168,0.33417 -0.32813,0.72646 -0.47231,1.20407 -0.14409,0.47787 -0.27341,1.04158 -0.3648,1.74006 -0.0924,0.6992 -0.1464,1.53316 -0.14698,2.36401 0,0.83061 0.0549,1.65879 0.14563,2.35535 0.0917,0.69557 0.22085,1.26097 0.36432,1.74051 0.14408,0.47932 0.30402,0.87354 0.47231,1.21059 0.168,0.33682 0.34574,0.61579 0.52754,0.85567 1.37791,1.64915 2.60391,1.67374 4.09659,1.52812 z m -0.56178,-2.63405 c 0.31295,-0.0416 0.67316,-0.35731 0.833,-0.65049 0.0697,-0.11554 0.14081,-0.25583 0.21194,-0.43762 0.0712,-0.18169 0.14157,-0.40529 0.21121,-0.70667 0.0691,-0.30138 0.13714,-0.68208 0.18709,-1.23759 0.0506,-0.55647 0.0835,-1.28821 0.0835,-2.03539 0,-0.74694 -0.0328,-1.50906 -0.0827,-2.07614 -0.05,-0.56804 -0.1167,-0.94126 -0.1844,-1.23518 -0.1464,-0.57673 -0.23798,-0.92198 -0.60687,-1.36947 -0.54608,-0.52705 -1.11534,-0.54056 -1.67782,0 -0.19154,0.21796 -0.28981,0.4094 -0.40265,0.6874 -0.0683,0.17436 -0.13599,0.3884 -0.20423,0.68207 -0.0677,0.29392 -0.13482,0.66714 -0.18478,1.23518 -0.05,0.56708 -0.0827,1.3292 -0.0827,2.107 0,0.77708 0.0328,1.57055 0.0819,2.148 0.0485,0.57817 0.11418,0.93982 0.18053,1.2248 0.17032,0.61772 0.2194,1.00589 0.77709,1.48977 0.28763,0.19771 0.55357,0.22567 0.85977,0.17437"
       style="fill:#000000;fill-opacity:1;fill-rule:evenodd;stroke:none"
       id="path4798" />
    <path
       d="m 316.35997,303.2768 c 0.28378,-0.26788 0.65966,-0.37853 1.07027,0.0173 0.10531,0.12923 0.15527,0.29872 0.1545,0.46267 l -0.0101,6.60069 2.8472,0 c 0,-2.23286 0,-4.46619 0,-6.69978 l -0.002,7.2e-4 c -0.0494,-0.77299 -0.002,-1.46254 -1.08193,-2.38404 -0.66159,-0.48847 -1.33137,-0.57936 -2.12002,-0.47616 -0.47015,0.0669 -0.97527,0.35394 -1.51172,0.81251 -0.98273,-1.16382 -2.31482,-1.07991 -3.5259,-0.14196 l 0,-0.6124 -2.75436,0 0,9.48624 2.75436,0 c 0.0116,-2.32258 -0.0403,-4.6591 0.0342,-6.96791 0.25485,-0.4634 0.53019,-0.41398 0.92584,-0.3033 0.27005,0.14833 0.35008,0.45158 0.33441,0.6705 l -0.0101,6.60071 2.72496,0 7.3e-4,-6.61662 c 0.002,-0.14678 0.0455,-0.30476 0.17071,-0.44894"
       style="fill:#000000;fill-opacity:1;fill-rule:evenodd;stroke:none"
       id="path4800" />
  </g>
</svg>
