<?xml version="1.0" encoding="utf-8"?>
<!-- Generator: Adobe Illustrator 15.0.0, SVG Export Plug-In . SVG Version: 6.00 Build 0)  -->
<!DOCTYPE svg PUBLIC "-//W3C//DTD SVG 1.1//EN" "http://www.w3.org/Graphics/SVG/1.1/DTD/svg11.dtd">
<svg version="1.1" id="Vrstva_1" xmlns="http://www.w3.org/2000/svg" xmlns:xlink="http://www.w3.org/1999/xlink" x="0px" y="0px"
	 width="300px" height="300px" viewBox="0 0 300 300" enable-background="new 0 0 300 300" xml:space="preserve">
<path fill-rule="evenodd" clip-rule="evenodd" d="M30.931,297.329c-3.708,0-7.413-0.793-10.852-2.384
	c-3.443-1.321-6.616-3.439-9.266-6.085c-5.557-5.561-8.469-12.97-8.469-20.114V30.534c0-3.705,0.793-7.41,2.384-10.851
	c1.321-3.441,3.439-6.618,6.085-9.264c5.561-5.559,12.97-8.205,20.118-8.205H269.14c3.705,0,7.409,0.529,10.853,2.116
	c3.438,1.325,6.616,3.441,9.262,6.088c5.557,5.557,8.203,12.969,8.203,20.114v238.212c0,3.705-0.528,7.41-2.115,10.849
	c-1.324,3.443-3.442,6.62-6.088,9.266c-5.558,5.558-12.971,8.469-20.114,8.469"/>
<path fill-rule="evenodd" clip-rule="evenodd" fill="#FFFFFF" d="M30.931,294.684c-3.443,0-6.882-0.794-9.793-2.118
	c-3.177-1.325-6.088-3.177-8.472-5.561c-5.026-5.026-7.675-11.908-7.675-18.259V30.534c0-3.439,0.793-6.616,2.118-9.792
	c1.325-3.177,3.177-6.088,5.557-8.47c5.03-5.029,11.912-7.675,18.266-7.675H269.14c3.439,0,6.882,0.793,9.793,2.116
	c3.174,1.325,6.089,3.177,8.469,5.559c5.029,5.029,7.675,11.911,7.675,18.262v238.212c0,3.439-0.793,6.879-2.117,9.793
	c-1.325,3.174-3.178,6.085-5.558,8.466c-5.029,5.032-11.911,7.679-18.262,7.679"/>
<path fill-rule="evenodd" clip-rule="evenodd" fill="#291770" d="M30.931,289.389c-2.649,0-5.295-0.528-7.941-1.587
	c-2.384-1.06-4.764-2.649-6.616-4.502c-3.97-3.971-6.088-9.527-6.088-14.554V30.534c0-2.646,0.528-5.293,1.587-7.939
	c1.059-2.382,2.649-4.764,4.501-6.618c3.971-3.97,9.528-6.086,14.557-6.086H269.14c2.646,0,5.557,0.529,7.94,1.588
	c2.381,1.059,4.764,2.646,6.616,4.498c4.232,3.971,6.085,9.53,6.085,14.557v238.212c0,2.643-0.527,5.292-1.587,7.938
	c-1.059,2.384-2.646,4.764-4.498,6.616c-3.97,3.971-9.527,6.089-14.557,6.089"/>
<polyline fill-rule="evenodd" clip-rule="evenodd" fill="#FFFFFF" points="172.531,131.642 193.705,137.199 150.565,70.501 
	107.156,137.465 128.595,131.642 128.595,247.042 172.266,247.042 "/>
</svg>
