<?xml version="1.0" encoding="utf-8"?>
<!-- Generator: Adobe Illustrator 15.0.0, SVG Export Plug-In . SVG Version: 6.00 Build 0)  -->
<!DOCTYPE svg PUBLIC "-//W3C//DTD SVG 1.1//EN" "http://www.w3.org/Graphics/SVG/1.1/DTD/svg11.dtd">
<svg version="1.1" id="Vrstva_1" xmlns="http://www.w3.org/2000/svg" xmlns:xlink="http://www.w3.org/1999/xlink" x="0px" y="0px"
	 width="300px" height="300px" viewBox="0 0 300 300" enable-background="new 0 0 300 300" xml:space="preserve">
<path fill-rule="evenodd" clip-rule="evenodd" d="M30.529,297.498c-3.707,0-7.412-0.797-10.853-2.118
	c-3.441-1.59-6.616-3.704-9.264-6.354c-5.559-5.558-8.205-12.967-8.205-20.114V30.967c0-3.705,0.793-7.675,2.116-11.116
	c1.588-3.441,3.707-6.352,6.088-8.998c5.823-5.823,13.234-8.47,20.116-8.47H269c3.705,0,7.409,0.795,10.852,2.118
	c3.443,1.588,6.616,3.705,9.266,6.352c5.558,5.557,8.203,12.969,8.203,20.114v237.945c0,3.705-0.793,7.675-2.114,11.118
	c-1.328,3.438-3.442,6.351-6.089,8.996c-5.557,5.822-13.235,8.472-20.117,8.472"/>
<path fill-rule="evenodd" clip-rule="evenodd" fill="#FFFFFF" d="M30.529,294.849c-3.177,0-6.618-0.531-9.793-1.852
	c-3.177-1.321-6.088-3.178-8.47-5.823c-5.028-5.029-7.412-11.646-7.412-18.262V30.967c0-3.439,0.53-6.88,1.854-10.057
	c1.323-3.175,3.175-5.823,5.557-8.205C17.559,7.412,24.176,5.03,30.529,5.03H269c3.177,0,6.619,0.53,9.793,1.853
	c3.177,1.323,6.089,3.177,8.473,5.823c5.025,5.029,7.409,11.646,7.409,18.262v237.945c0,3.439-0.531,6.882-1.853,10.056
	c-1.324,3.177-3.177,5.822-5.557,8.206c-5.296,5.291-11.912,7.675-18.266,7.675"/>
<path fill-rule="evenodd" clip-rule="evenodd" fill="#291770" d="M30.792,289.558c-2.911,0-5.557-0.531-7.941-1.591
	c-2.646-0.793-4.764-2.38-6.88-4.232c-3.97-4.235-6.088-9.527-5.823-14.822V30.967c0-2.911,0.528-5.557,1.323-7.939
	c1.059-2.647,2.646-4.764,4.5-6.882c4.234-3.97,9.527-5.823,14.821-5.823H269c2.649,0,5.295,0.529,7.675,1.588
	c2.649,0.793,5.029,2.382,6.886,4.234c3.967,4.234,6.085,9.527,6.085,14.821v237.945c0,2.911-0.528,5.557-1.591,7.938
	c-1.055,2.649-2.642,4.768-4.494,6.885c-4.236,3.971-9.531,5.823-14.561,5.823"/>
<polyline fill-rule="evenodd" clip-rule="evenodd" fill="#FFFFFF" points="121.048,111.429 121.048,262.823 173.453,262.823 
	173.453,111.429 206.271,111.429 206.271,64.317 87.168,64.317 87.168,111.429 "/>
<polyline fill-rule="evenodd" clip-rule="evenodd" fill="#D9261C" points="108.078,76.492 108.078,100.842 189.067,100.842 
	189.067,76.492 "/>
</svg>
