<?xml version="1.0" encoding="utf-8"?>
<!-- Generator: Adobe Illustrator 16.0.0, SVG Export Plug-In . SVG Version: 6.00 Build 0)  -->
<!DOCTYPE svg PUBLIC "-//W3C//DTD SVG 1.1//EN" "http://www.w3.org/Graphics/SVG/1.1/DTD/svg11.dtd">
<svg version="1.1" id="Layer_1" xmlns:sketch="http://www.bohemiancoding.com/sketch/ns"
	 xmlns="http://www.w3.org/2000/svg" xmlns:xlink="http://www.w3.org/1999/xlink" x="0px" y="0px" width="876px" height="206px"
	 viewBox="0 0 876 206" enable-background="new 0 0 876 206" xml:space="preserve">
<path fill-rule="evenodd" clip-rule="evenodd" fill="#2A186F" d="M17.6,168.9c0-0.6,0-1.2-0.1-1.8c0.5-1.1,1.3-2.3,1.3-3.4
	c0-41.6,0-83.3-0.1-124.9L19,39l-0.2-0.2c0.7-1.3,1.3-2.7,2-4L21,35l-0.3-0.2c0.4-0.6,0.8-1.2,1.2-1.9c4-3,8-6,12-9.1
	c0.3-0.1,0.6-0.1,1-0.2c3.1-0.3,6.3-0.9,9.4-0.9c264.2,0,528.5,0,792.7,0c0.3,0,0.7,0,1-0.1c0.6,0.1,1.3,0.1,1.9,0.2
	c8.5,2.4,15.9,6.3,19.3,15.2c0,0.5,0,1,0,1.5c0,44.3-0.1,88.6-0.1,132.8c0.2,0.2,0.1,0.4-0.1,0.6c-0.3,0.8-0.6,1.6-0.9,2.4
	c0,0.5,0,1.1,0,1.6c-5.4,9.5-14,13.1-24.6,13.1c-263.2,0-526.4,0-789.6,0c-10.5,0-18.7-3.7-23.9-13.1c-0.3-0.7-0.7-1.3-1-2
	c-0.2-0.2-0.2-0.4-0.2-0.7C18.4,172.5,18,170.7,17.6,168.9z M270.1,113.8c0.3,0.7,0.6,1.4,1,2.1c2.9,6.1,6.5,12,8.4,18.4
	c3.1,10.5,8.7,15.9,20.1,13.5c0.5-0.5,1.5-1.1,1.5-1.6c0-24.2,0-48.4-0.2-72.6c0-1.5-0.8-3-1.2-4.5c-5.1,0-10.2,0-16.1,0
	c0,13.2,0,25.9,0,38.7c-0.3,0-0.7,0.1-1,0.1c-5.7-13-11.4-26-17.3-39.3c-5.1,0.5-9.8,0.9-14.5,1.4c-0.3,1.1-0.9,2.1-0.9,3.2
	c-0.1,23.6-0.1,47.2,0,70.9c0,1.3,0.9,2.5,1.5,3.8c4.1-0.1,8.2,0,12.3-0.3c1.1-0.1,2.2-1.1,3.3-1.7c0.3-1.6,0.8-3.1,0.8-4.7
	c0.1-7.7-0.1-15.5,0.1-23.2C268.1,116.7,269.5,115.3,270.1,113.8L270.1,113.8z M396,115.9c0.3,0.7,0.6,1.4,0.9,2
	c2.4,5.3,5.6,10.3,7.2,15.8c3.1,10.5,8.5,16.6,20.4,14.1c0.5-1.4,1.4-2.9,1.4-4.3c0.1-23.4,0.1-46.7,0-70.1c0-1.5-0.8-3-1.2-4.4
	c-5.1,0-10.2,0-16,0c0,13.3,0,26,0,38.8c-4.8-8.5-8.6-17.1-12.4-25.7c-1.9-4.2-2.7-10.2-6-12.2c-3.5-2.2-9.3-0.7-14.1-0.8
	c-0.4,0.8-1.1,1.6-1.1,2.4c-0.2,24.2-0.4,48.5-0.5,72.8c0,1.2,1.2,2.4,1.8,3.6c5.1,0,10.3,0,15.4,0c0.4-1.6,1.2-3.3,1.2-4.9
	c0.1-8.1,0.1-16.1,0.1-24.2C393,116.7,392.7,114.4,396,115.9L396,115.9z M470.1,147c0.3-2.9,0.9-5.8,0.8-8.7
	c-0.1-8.1-0.5-16.2-0.7-24.2c5.9-14.8,11.7-29.7,17.7-44.9c-2.6,0-4.6,0-6.6,0c-9.4,0-9.4,0-12.9,8.7c-2,4.9-4,9.8-6.4,15.8
	c-3.2-8-5.7-14.6-8.5-21.2c-0.6-1.3-2.2-3-3.5-3.1c-4.4-0.4-8.9-0.1-13.8-0.1c1,2.5,1.7,4.5,2.5,6.5c4.8,12.3,9.7,24.7,14.5,37
	c-0.1,11.2-0.2,22.4-0.3,33.7c0,0.5,1,1.1,1.5,1.6C459.6,147.5,464.9,147.3,470.1,147z M187.3,147.9c3.9-0.1,7.9,0,11.8-0.2
	c1.4-0.1,2.7-1.1,4-1.7c0.3-6,0.6-12.1,0.9-18.1c0.1-2.1,0-4.1,3-3.9c3.4,6.8,6.7,13.7,10.3,20.4c0.7,1.4,2.4,3.1,3.7,3.2
	c5.6,0.4,11.2,0.2,17.6,0.2c-6.9-12.9-13.4-25-19.9-37.1c8.7-4.6,12.5-10.1,12.7-18.1c0.2-8.3-3.1-15.1-10.3-19.2
	c-10.8-6.2-22.5-4.7-34.2-3.3c-0.3,0.9-0.8,1.8-0.8,2.7c0,23.9-0.1,47.8,0,71.7C186.1,145.6,186.9,146.8,187.3,147.9z M94,115.1
	c0,7.4-0.1,14.8,0,22.2c0.1,3.2,0.6,6.4,0.9,9.6c5.3,0.3,10.5,0.6,15.8,0.9c0.4-1.6,1.3-3.3,1.3-4.9c0.1-22.1,0.1-44.1,0-66.2
	c0-1.6-0.5-3.2-0.8-4.8c-0.4-1-0.9-2.8-1.2-2.8c-5,0.1-10,0.5-15.1,0.8c-0.3,1.6-0.8,3.1-0.8,4.7C94,83.2,94,91.6,94,100
	c-4.1,0-8.2,0-12.7,0c0-10.4,0-20.5,0-30.9c-5.6,0-10.7,0-15.8,0c-0.5,1.3-1.4,2.6-1.4,3.8c-0.1,23.6-0.1,47.2,0,70.8
	c0,1.4,1.1,2.8,1.6,4.1c5.1,0,10.2,0,15.6,0c0-11.3,0-21.9,0-32.8C85.8,115.1,89.9,115.1,94,115.1z M725.4,119.2
	c1.8,0.7,3.6,2,5.4,2c23.3,0.1,46.6,0.1,69.9,0.1c1.8,0,3.5,0,5.9,0c-1.3,6.3-2.4,11.8-3.8,18.7c13.4-11.6,25.8-22.2,38.5-33.1
	c-13-10.9-24.4-22.4-37.1-32.4c-0.3,0.3-0.6,0.7-0.9,1c1.1,4.7,2.2,9.4,3.4,14.6c-2.3,0-3.9,0-5.6,0c-23.5,0-47,0-70.4,0.1
	c-1.7,0-3.5,1-5.2,1.6c-0.3-0.9-0.6-1.8-1-2.7c-0.8,3.3-0.4,5.4-0.4,7.5c0.1,7.2,0,14.5,0.1,21.7
	C724.1,118.7,724.9,118.9,725.4,119.2z M175.2,108.8c-2-9.5-3.1-18.4-5.8-26.9c-2.9-9.2-10.1-14.4-19.9-14.5
	c-9.7-0.1-16.7,4.8-20,13.8c-6.7,18.3-6.8,36.8,0.3,55c3.3,8.5,10,13.1,19.3,13.2c9.5,0,16.6-4.6,19.6-13.4
	C171.8,127.1,173.2,117.7,175.2,108.8z M637.7,95c1.9-3.2,3.2-6.2,5.2-8.4c3-3.2,7-3.8,11-2c3.8,1.7,4.7,5.4,4,8.9
	c-0.9,4.1-2.2,8.4-4.5,11.9c-8.5,12.9-17.5,25.5-26.3,38.2c-0.8,1.1-1.4,2.4-2.3,3.8c17.3,0,34,0,50.9,0c0.4-5.4,0.8-10.4,1.3-15.9
	c-7.1,0-13.5,0-20.8,0c5.5-8.8,10.7-16.9,15.7-25.1c11.5-18.5,1.3-38-20.3-39.1c-13.4-0.7-24.5,6.5-27.2,17.8
	C628.9,88.4,633.4,91.8,637.7,95z M364,147.5c-0.1-1.4-0.1-2.5-0.4-3.6c-4.7-20.3-9.3-40.7-14.1-61c-3.4-14.6-3.4-14.6-18.4-13.6
	c-0.2,0-0.3,0.1-0.9,0.4c-5.9,25.7-11.9,51.7-18,77.8c15.5,1.1,15.5,1.1,18.3-7.2c5.4,0,10.9,0,16.1,0c0.7,2.7,1.4,5,2,7.3
	C353.8,147.5,358.8,147.5,364,147.5z M258.6,49.7c3.2,5.3,4.9,11,8.6,13.3c3.3,2.1,10,2.2,13.3,0.1c3.7-2.4,5.1-8.1,7.9-13
	c-5.9,0.6-11.9-2.7-14.9,5.4C271,47.2,264.8,51,258.6,49.7z"/>
<path fill-rule="evenodd" clip-rule="evenodd" fill="#504581" d="M18.7,38.8c0,41.6,0.1,83.3,0.1,124.9c0,1.1-0.9,2.3-1.3,3.4
	c-0.1-1.6-0.3-3.3-0.3-5c0-38.1,0-76.2,0.1-114.3C17.2,44.8,18.2,41.8,18.7,38.8z"/>
<path fill-rule="evenodd" clip-rule="evenodd" fill="#291D5D" d="M859.1,172.4c0-44.3,0.1-88.6,0.1-132.8c0.3,0.1,0.6,0.2,0.8,0.4
	c0.1,0.4,0.1,0.7,0.2,1.1c0,20.8,0.1,41.7,0,62.5c0,22.8-0.1,45.7-0.2,68.5C859.7,172.1,859.4,172.3,859.1,172.4z"/>
<path fill-rule="evenodd" clip-rule="evenodd" fill="#F8F7F8" d="M860,172c0.1-22.8,0.2-45.7,0.2-68.5c0-20.8,0-41.7,0-62.5
	c0.3,1.6,0.8,3.2,0.8,4.8c0,40.5,0,81,0,121.5C861,168.9,860.4,170.4,860,172z"/>
<path fill-rule="evenodd" clip-rule="evenodd" fill="#F8F7F8" d="M860.1,18.9c4.2,0.5,6.8,2.8,7.8,8c-4-2-6.6-4.3-8-7.8L860.1,18.9z
	"/>
<path fill-rule="evenodd" clip-rule="evenodd" fill="#F8F7F8" d="M864.9,188.8c1.6-3.1,3.2-6.3,4.8-9.4c0.5,0.2,0.9,0.5,1.4,0.7
	c-0.4,3.8-2.5,6.7-5.9,9L864.9,188.8z"/>
<path fill-rule="evenodd" clip-rule="evenodd" fill="#F8F7F8" d="M865.1,189.1c-0.5,1-1.1,2-1.6,3c-0.5-0.4-0.9-0.8-1.4-1.1
	c0.9-0.7,1.8-1.4,2.7-2.1C864.9,188.8,865.1,189.1,865.1,189.1z"/>
<path fill-rule="evenodd" clip-rule="evenodd" fill="#504581" d="M17.6,168.9c0.4,1.8,0.8,3.6,1.3,5.4
	C18.4,172.5,18,170.7,17.6,168.9z"/>
<path fill-rule="evenodd" clip-rule="evenodd" fill="#F8F7F8" d="M868.5,27.9c0.5,0.7,0.9,1.4,1.4,2.2c-0.3,0.2-0.7,0.4-1,0.6
	c-0.4-0.7-0.9-1.5-1.3-2.2C867.9,28.3,868.2,28.1,868.5,27.9z"/>
<path fill-rule="evenodd" clip-rule="evenodd" fill="#504581" d="M20.7,34.8c-0.7,1.3-1.3,2.7-2,4C19.4,37.5,20.1,36.1,20.7,34.8z"
	/>
<path fill-rule="evenodd" clip-rule="evenodd" fill="#F8F7F8" d="M859.9,19.1c-0.5-0.4-1-0.9-1.5-1.3c0.1-0.1,0.2-0.2,0.3-0.3
	c0.4,0.5,0.9,1,1.3,1.5C860.1,18.9,859.9,19.1,859.9,19.1z"/>
<path fill-rule="evenodd" clip-rule="evenodd" fill="#F8F7F8" d="M858.1,177c0-0.5,0-1.1,0-1.6c0.3-0.1,0.6-0.2,0.9-0.3
	C858.7,175.7,858.4,176.4,858.1,177z"/>
<path fill-rule="evenodd" clip-rule="evenodd" fill="#504581" d="M22,32.9c-0.4,0.6-0.8,1.2-1.2,1.9C21.1,34.2,21.5,33.6,22,32.9z"
	/>
<path fill-rule="evenodd" clip-rule="evenodd" fill="#F8F7F8" d="M860,39.9c-0.2-0.2-0.5-0.3-0.8-0.4c0-0.5,0-1,0-1.5
	C859.5,38.7,859.8,39.3,860,39.9z"/>
<path fill-rule="evenodd" clip-rule="evenodd" fill="#F8F7F8" d="M840,22.9c-0.6-0.1-1.3-0.1-1.9-0.2
	C838.7,22.7,839.3,22.8,840,22.9z"/>
<path fill-rule="evenodd" clip-rule="evenodd" fill="#291D5D" d="M859,175.1c-0.3,0.1-0.6,0.2-0.9,0.3c0.3-0.8,0.6-1.6,0.9-2.4
	c0.1,0.3,0.2,0.7,0.3,1C859.2,174.4,859.1,174.7,859,175.1L859,175.1z"/>
<path fill-rule="evenodd" clip-rule="evenodd" fill="#504581" d="M19,175c0.3,0.7,0.7,1.3,1,2C19.7,176.3,19.3,175.7,19,175z"/>
<path fill-rule="evenodd" clip-rule="evenodd" fill="#F8F7F8" d="M35,23.7c-0.3,0.1-0.6,0.1-1,0.2C34.3,23.8,34.6,23.7,35,23.7z"/>
<path fill-rule="evenodd" clip-rule="evenodd" fill="#F8F7F8" d="M859.1,175c0.1-0.3,0.2-0.7,0.3-1c0,0.3,0.1,0.5,0.1,0.8
	C859.4,174.9,859.2,174.9,859.1,175z"/>
<path fill-rule="evenodd" clip-rule="evenodd" fill="#FCFCFC" d="M725.3,91.8c1.7-0.6,3.4-1.6,5.2-1.6c23.5-0.1,47-0.1,70.4-0.1
	c1.6,0,3.3,0,5.6,0c-1.2-5.2-2.3-9.9-3.4-14.6c0.3-0.3,0.6-0.7,0.9-1c12.7,10,24.1,21.6,37.1,32.4c-12.7,10.9-25,21.6-38.5,33.1
	c1.4-6.9,2.5-12.4,3.8-18.7c-2.4,0-4.1,0-5.9,0c-23.3,0-46.6,0-69.9-0.1c-1.8,0-3.6-1.3-5.4-2C725.3,110.1,725.3,100.9,725.3,91.8z"
	/>
<path fill-rule="evenodd" clip-rule="evenodd" fill="#FBFAFC" d="M391.7,147.9c-5.1,0-10.3,0-15.4,0c-0.1-26.3-0.1-52.5-0.2-78.8
	c4.8,0.1,10.6-1.4,14.1,0.8c3.3,2,4.1,8,6,12.2c3.8,8.6,7.6,17.2,12.4,25.7c0-12.8,0-25.5,0-38.8c5.8,0,10.9,0,16,0
	c0.1,23.6,0.2,47.2,0.2,70.9c0,2.6-0.3,5.3-0.4,7.9c-11.8,2.5-17.3-3.6-20.4-14.1c-1.6-5.5-4.7-10.6-7.2-15.8
	c-0.3-0.7-0.6-1.4-0.9-2l0,0c-1.1-2.7-2.2-5.4-3.3-8.1c-0.4,0.1-0.7,0.2-1.1,0.3C391.7,121.4,391.7,134.6,391.7,147.9z"/>
<path fill-rule="evenodd" clip-rule="evenodd" fill="#FAF9FC" d="M299.6,147.8c-11.4,2.5-17-2.9-20.1-13.5
	c-1.9-6.4-5.5-12.3-8.4-18.4c-0.3-0.7-0.6-1.4-1-2.1l0,0.1c-0.8-2-1.6-4.1-2.4-6.1c-0.2,0.1-0.4,0.2-0.7,0.2c0,12.6,0,25.3,0,37.9
	c-1.1,0.6-2.2,1.6-3.3,1.7c-4.1,0.3-8.2,0.2-12.3,0.3c-0.1-2-0.4-4-0.4-5.9c-0.1-24-0.1-48-0.2-71.9c4.7-0.5,9.4-0.9,14.5-1.4
	c5.9,13.3,11.6,26.3,17.3,39.3c0.3,0,0.7-0.1,1-0.1c0-12.7,0-25.5,0-38.7c5.8,0,10.9,0,16.1,0c0.1,17.3,0.2,34.6,0.1,51.8
	C299.9,129.9,299.7,138.9,299.6,147.8z"/>
<path fill-rule="evenodd" clip-rule="evenodd" fill="#FAF9FA" d="M110.7,147.9c-5.3-0.3-10.5-0.6-15.8-0.9c0-9.7,0.1-19.3,0.1-29
	c0-1-0.6-1.9-1-2.9c-4.1,0-8.2,0-12.7,0c0,10.9,0,21.5,0,32.8c-5.4,0-10.5,0-15.6,0c-0.1-0.6-0.4-1.3-0.4-1.9
	c0-25.6,0.1-51.2,0.2-76.8c5.1,0,10.3,0,15.8,0c0,10.4,0,20.5,0,30.9c4.5,0,8.6,0,12.7,0c0.4-0.9,1-1.9,1-2.8c0-9-0.1-18.1-0.2-27.1
	c5-0.3,10-0.7,15.1-0.8c0.4,0,0.8,1.8,1.2,2.8c-0.1,14.6-0.1,29.3-0.2,43.9C110.9,126.6,110.8,137.3,110.7,147.9z"/>
<path fill-rule="evenodd" clip-rule="evenodd" fill="#FBFAFB" d="M203.1,146c-1.3,0.6-2.6,1.6-4,1.7c-3.9,0.3-7.9,0.2-11.8,0.2
	c-0.1-2-0.3-4-0.3-6c-0.1-24-0.1-48-0.1-71.9c11.6-1.4,23.4-2.9,34.2,3.3c7.2,4.1,10.5,10.9,10.3,19.2c-0.2,8-4,13.6-12.7,18.1
	c6.5,12.1,13,24.3,19.9,37.1c-6.5,0-12.1,0.2-17.6-0.2c-1.3-0.1-2.9-1.8-3.7-3.2c-3.6-6.7-6.9-13.6-10.3-20.4
	c-1.1-2.4-2.1-4.8-3.2-7.1c-0.2,0.1-0.4,0.2-0.7,0.3C203.1,126.8,203.1,136.4,203.1,146z M203.5,100.6c5.1,0.4,10-0.1,12.5-5
	c1-2,1-5.4,0-7.3c-2.5-4.7-7.3-5-12.5-4.7C203.5,89.2,203.5,94.6,203.5,100.6z"/>
<path fill-rule="evenodd" clip-rule="evenodd" fill="#FAF9FB" d="M175.2,108.8c-2.1,8.9-3.4,18.3-6.5,27.1
	c-3,8.8-10.2,13.4-19.6,13.4c-9.3,0-16-4.6-19.3-13.2c-7.1-18.2-7-36.7-0.3-55c3.3-8.9,10.3-13.9,20-13.8c9.9,0.1,17,5.3,19.9,14.5
	C172.1,90.4,173.3,99.3,175.2,108.8z M153.1,84c-0.4-0.3-0.7-0.6-1.1-0.9c-0.1-0.2-0.3-0.3-0.5-0.3c-1.5,0.1-3,0.2-4.4,0.2
	c-1.3,1.8-3.2,3.4-3.8,5.5c-1,3.5-1.8,7.2-1.7,10.7c0.3,9.9,0.8,19.8,1.9,29.6c0.2,2.1,3.2,4.7,5.5,5.5c1.2,0.4,3.6-2.4,5.5-3.7
	c0.3-0.8,0.7-1.6,1-2.4l-0.2-0.2l0.2,0.3c3.4-10.6,2.9-21.4,1.6-32.3c0-0.3,0-0.7,0-1c-0.2-0.9-0.3-1.8-0.5-2.7
	c-0.1-0.4-0.2-0.9-0.3-1.3c-0.3-1.1-0.6-2.1-0.9-3.2l0,0.1c-0.4-0.9-0.9-1.8-1.3-2.8l0-0.1C153.6,84.7,153.3,84.3,153.1,84L153.1,84
	z"/>
<path fill-rule="evenodd" clip-rule="evenodd" fill="#F9F8FA" d="M637.7,95c-4.3-3.2-8.8-6.6-13.2-9.9c2.7-11.3,13.8-18.5,27.2-17.8
	c21.6,1.2,31.8,20.6,20.3,39.1c-5,8.1-10.2,16.2-15.7,25.1c7.3,0,13.7,0,20.8,0c-0.4,5.5-0.9,10.6-1.3,15.9c-16.9,0-33.6,0-50.9,0
	c0.8-1.4,1.5-2.7,2.3-3.8c8.8-12.7,17.8-25.3,26.3-38.2c2.3-3.5,3.6-7.8,4.5-11.9c0.8-3.5-0.2-7.2-4-8.9c-4-1.8-8.1-1.1-11,2
	C640.9,88.8,639.7,91.8,637.7,95z"/>
<path fill-rule="evenodd" clip-rule="evenodd" fill="#FAF9FB" d="M364,147.5c-5.2,0-10.1,0-15.5,0c-0.6-2.3-1.2-4.6-2-7.3
	c-5.2,0-10.7,0-16.1,0c-2.8,8.3-2.8,8.3-18.3,7.2c6-26.1,12-52.1,18-77.8c0.6-0.3,0.8-0.4,0.9-0.4c15-1,15-1,18.4,13.6
	c4.7,20.3,9.4,40.7,14.1,61C363.8,145,363.8,146.1,364,147.5z M343.3,125.5c-1.6-6.9-3.1-13.1-4.6-19.3c-0.3,0-0.6-0.1-0.9-0.1
	c-1.5,6.4-3,12.8-4.6,19.4C336.8,125.5,339.7,125.5,343.3,125.5z"/>
<path fill-rule="evenodd" clip-rule="evenodd" fill="#F9F8FB" d="M453.1,112.6c-4.8-12.3-9.7-24.7-14.5-37c-0.8-2-1.5-4-2.5-6.5
	c4.9,0,9.4-0.2,13.8,0.1c1.3,0.1,3,1.8,3.5,3.1c2.8,6.5,5.3,13.2,8.5,21.2c2.4-5.9,4.4-10.8,6.4-15.8c3.5-8.7,3.5-8.7,12.9-8.7
	c2,0,4,0,6.6,0c-6,15.2-11.9,30.1-17.7,44.9c0,11-0.1,22-0.1,33c-5.2,0.3-10.5,0.6-15.7,0.9c-0.1-10-0.2-20.1-0.4-30.1
	C454,116,453.5,114.3,453.1,112.6z"/>
<path fill-rule="evenodd" clip-rule="evenodd" fill="#F5F4F8" d="M258.6,49.7c6.2,1.3,12.4-2.5,15,5.7c3-8,9-4.7,14.9-5.4
	c-2.8,4.9-4.3,10.7-7.9,13c-3.2,2.1-9.9,2-13.3-0.1C263.5,60.7,261.9,55,258.6,49.7z"/>
<path fill-rule="evenodd" clip-rule="evenodd" fill="#271C54" d="M376.1,69.1c0.1,26.3,0.1,52.5,0.2,78.8c-0.6-1.2-1.8-2.4-1.8-3.6
	c0.1-24.3,0.3-48.5,0.5-72.8C375,70.7,375.7,69.9,376.1,69.1z"/>
<path fill-rule="evenodd" clip-rule="evenodd" fill="#271C54" d="M299.6,147.8c0.1-9,0.3-17.9,0.3-26.9c0-17.3-0.1-34.6-0.1-51.8
	c0.4,1.5,1.2,3,1.2,4.5c0.1,24.2,0.2,48.4,0.2,72.6C301.1,146.8,300.1,147.3,299.6,147.8z"/>
<path fill-rule="evenodd" clip-rule="evenodd" fill="#281B60" d="M65.5,69.1c-0.1,25.6-0.1,51.2-0.2,76.8c0,0.6,0.3,1.3,0.4,1.9
	c-0.6-1.4-1.6-2.7-1.6-4.1c-0.1-23.6-0.1-47.2,0-70.8C64.1,71.7,65,70.4,65.5,69.1z"/>
<path fill-rule="evenodd" clip-rule="evenodd" fill="#281C5C" d="M424.5,147.9c0.1-2.6,0.4-5.3,0.4-7.9c0-23.6-0.1-47.2-0.2-70.9
	c0.4,1.5,1.2,3,1.2,4.4c0.1,23.4,0.1,46.7,0,70.1C425.9,145,425,146.5,424.5,147.9z"/>
<path fill-rule="evenodd" clip-rule="evenodd" fill="#291A5B" d="M250.9,70c0.1,24,0.1,48,0.2,71.9c0,2,0.3,4,0.4,5.9
	c-0.5-1.3-1.4-2.5-1.5-3.8c-0.1-23.6-0.1-47.2,0-70.9C250,72.2,250.6,71.1,250.9,70z"/>
<path fill-rule="evenodd" clip-rule="evenodd" fill="#291A5B" d="M186.9,70c0,24,0.1,48,0.1,71.9c0,2,0.2,4,0.3,6
	c-0.4-1.1-1.3-2.3-1.3-3.4c-0.1-23.9-0.1-47.8,0-71.7C186,71.8,186.6,70.9,186.9,70z"/>
<path fill-rule="evenodd" clip-rule="evenodd" fill="#291A5B" d="M110.7,147.9c0.1-10.6,0.3-21.3,0.3-31.9
	c0.1-14.6,0.1-29.3,0.2-43.9c0.3,1.6,0.8,3.2,0.8,4.8c0.1,22.1,0.1,44.1,0,66.2C111.9,144.6,111.1,146.3,110.7,147.9z"/>
<path fill-rule="evenodd" clip-rule="evenodd" fill="#291D5D" d="M725.3,91.8c0,9.2,0,18.3,0,27.5c-0.5-0.3-1.3-0.6-1.3-0.9
	c-0.1-7.2,0-14.5-0.1-21.7c0-2.1-0.4-4.3,0.4-7.5C724.7,90,725,90.9,725.3,91.8z"/>
<path fill-rule="evenodd" clip-rule="evenodd" fill="#2C225A" d="M391.7,147.9c0-13.2,0-26.4,0-39.7c0.4-0.1,0.7-0.2,1.1-0.3
	c1.1,2.7,2.2,5.4,3.3,8.1c-3.3-1.6-3.1,0.7-3.1,2.8c0,8.1,0.1,16.1-0.1,24.2C392.9,144.6,392.1,146.2,391.7,147.9z"/>
<path fill-rule="evenodd" clip-rule="evenodd" fill="#2B205E" d="M267.2,146c0-12.6,0-25.3,0-37.9c0.2-0.1,0.4-0.2,0.7-0.2
	c0.8,2,1.6,4.1,2.4,6.1c-0.7,1.4-2,2.8-2.1,4.2c-0.2,7.7-0.1,15.4-0.1,23.2C267.9,142.8,267.4,144.4,267.2,146z"/>
<path fill-rule="evenodd" clip-rule="evenodd" fill="#2B205E" d="M203.1,146c0-9.6,0-19.2,0-28.8c0.2-0.1,0.4-0.2,0.7-0.3
	c1.1,2.4,2.1,4.8,3.2,7.1c-3-0.2-2.9,1.8-3,3.9C203.8,133.9,203.4,139.9,203.1,146z"/>
<path fill-rule="evenodd" clip-rule="evenodd" fill="#271C54" d="M453.1,112.6c0.3,1.7,0.8,3.4,0.9,5.1c0.2,10,0.3,20.1,0.4,30.1
	c-0.5-0.5-1.5-1.1-1.5-1.6C452.9,135,453,123.8,453.1,112.6z"/>
<path fill-rule="evenodd" clip-rule="evenodd" fill="#271C54" d="M470.1,147c0-11,0.1-22,0.1-33c0.3,8.1,0.6,16.2,0.7,24.2
	C471,141.2,470.4,144.1,470.1,147z"/>
<path fill-rule="evenodd" clip-rule="evenodd" fill="#281C5C" d="M94,115.1c0.3,1,1,1.9,1,2.9c0,9.7,0,19.3-0.1,29
	c-0.3-3.2-0.8-6.4-0.9-9.6C93.9,129.9,94,122.5,94,115.1z"/>
<path fill-rule="evenodd" clip-rule="evenodd" fill="#281C5C" d="M94.9,70c0.1,9,0.2,18.1,0.2,27.1c0,0.9-0.7,1.9-1,2.8
	c0-8.4,0-16.8,0.1-25.3C94.1,73.2,94.6,71.6,94.9,70z"/>
<path fill-rule="evenodd" clip-rule="evenodd" fill="#2B205E" d="M270.1,113.8c0.3,0.7,0.6,1.4,1,2.1
	C270.8,115.3,270.5,114.5,270.1,113.8z"/>
<path fill-rule="evenodd" clip-rule="evenodd" fill="#2C225A" d="M396,115.9c0.3,0.7,0.6,1.4,0.9,2
	C396.7,117.3,396.3,116.6,396,115.9z"/>
<path fill-rule="evenodd" clip-rule="evenodd" fill="#312070" d="M203.5,100.6c0-6,0-11.4,0-17c5.3-0.3,10,0,12.5,4.7
	c1,1.9,1,5.3,0,7.3C213.5,100.5,208.6,101,203.5,100.6z"/>
<path fill-rule="evenodd" clip-rule="evenodd" fill="#2C1B6F" d="M156.9,95c0,0.3,0,0.7,0,1c-0.5,10.8-1.1,21.5-1.6,32.3l-0.2-0.3
	c0,0,0.2,0.2,0.2,0.2c-0.3,0.8-0.7,1.6-1,2.4c-1.9,1.3-4.2,4.2-5.5,3.7c-2.3-0.8-5.3-3.4-5.5-5.5c-1.1-9.8-1.6-19.7-1.9-29.6
	c-0.1-3.6,0.7-7.3,1.7-10.7c0.6-2,2.5-3.7,3.8-5.5c1.5-0.1,3-0.2,4.4-0.2c0.2-0.1,0.4,0,0.5,0.3c0.4,0.3,0.7,0.6,1.1,0.9l0,0
	c0.3,0.4,0.6,0.7,0.9,1.1l0,0.1c0.4,0.9,0.9,1.8,1.3,2.8l0-0.1c0.3,1.1,0.6,2.1,0.9,3.2c0.1,0.4,0.2,0.9,0.3,1.3
	C156.6,93.2,156.8,94.1,156.9,95z"/>
<path fill-rule="evenodd" clip-rule="evenodd" fill="#463C73" d="M155.3,128.3c0.5-10.8,1.1-21.5,1.6-32.3
	C158.2,106.8,158.7,117.7,155.3,128.3z"/>
<path fill-rule="evenodd" clip-rule="evenodd" fill="#463C73" d="M151.5,82.8c-1.5,0.1-3,0.2-4.4,0.2
	C148.5,82.9,150,82.9,151.5,82.8z"/>
<path fill-rule="evenodd" clip-rule="evenodd" fill="#463C73" d="M156.1,91c-0.3-1.1-0.6-2.1-0.9-3.2
	C155.5,88.9,155.8,89.9,156.1,91z"/>
<path fill-rule="evenodd" clip-rule="evenodd" fill="#463C73" d="M155.2,87.9c-0.4-0.9-0.9-1.8-1.3-2.8
	C154.4,86,154.8,86.9,155.2,87.9z"/>
<path fill-rule="evenodd" clip-rule="evenodd" fill="#463C73" d="M156.9,95c-0.2-0.9-0.3-1.8-0.5-2.7
	C156.6,93.2,156.8,94.1,156.9,95z"/>
<path fill-rule="evenodd" clip-rule="evenodd" fill="#463C73" d="M154.3,130.6c0.3-0.8,0.7-1.6,1-2.4
	C155,129,154.7,129.8,154.3,130.6z"/>
<path fill-rule="evenodd" clip-rule="evenodd" fill="#463C73" d="M153.9,85c-0.3-0.4-0.6-0.7-0.9-1.1
	C153.3,84.3,153.6,84.7,153.9,85z"/>
<path fill-rule="evenodd" clip-rule="evenodd" fill="#463C73" d="M153.1,84c-0.4-0.3-0.7-0.6-1.1-0.9
	C152.4,83.3,152.7,83.6,153.1,84z"/>
<path fill-rule="evenodd" clip-rule="evenodd" fill="#382A70" d="M343.3,125.5c-3.6,0-6.5,0-10.1,0c1.6-6.6,3.1-13,4.6-19.4
	c0.3,0,0.6,0.1,0.9,0.1C340.2,112.4,341.7,118.6,343.3,125.5z"/>
<path d="M850.3,204h-824c-13.2,0-24-10.8-24-24V31c0-13.2,10.8-24,24-24h824c13.2,0,24,10.8,24,24v149
	C874.3,193.2,863.5,204,850.3,204z M26.3,9c-12.1,0-22,9.9-22,22v149c0,12.1,9.9,22,22,22h824c12.1,0,22-9.9,22-22V31
	c0-12.1-9.9-22-22-22H26.3z"/>
</svg>
