<?xml version="1.0" encoding="utf-8"?>
<!-- Generator: Adobe Illustrator 16.0.0, SVG Export Plug-In . SVG Version: 6.00 Build 0)  -->
<!DOCTYPE svg PUBLIC "-//W3C//DTD SVG 1.1//EN" "http://www.w3.org/Graphics/SVG/1.1/DTD/svg11.dtd">
<svg version="1.1" id="Layer_1" xmlns:sketch="http://www.bohemiancoding.com/sketch/ns"
	 xmlns="http://www.w3.org/2000/svg" xmlns:xlink="http://www.w3.org/1999/xlink" x="0px" y="0px" width="460px" height="279px"
	 viewBox="0 0 460 279" enable-background="new 0 0 460 279" xml:space="preserve">
<title>IS-28</title>
<desc>Created with Sketch.</desc>
<path fill="#FBFBFB" d="M230.9,3.4c-60.3,0-120.6-0.1-180.9,0c-15,0-27.2,6.3-36.4,18.2c-6.4,8.3-9.3,17.8-9.3,28.2
	c0,59.9,0,119.9,0,179.8c0,2.2,0.1,4.3,0.4,6.5C7.8,259.3,27,276,50.4,276.1c120.2,0,240.4,0,360.6,0c2.9,0,5.9-0.2,8.7-0.8
	c22.8-4.7,37.6-23,37.6-46.3c0-58.6,0-117.2,0-175.8c0-2.1-0.1-4.2-0.2-6.2c-1.4-24.5-21.3-43.4-45.9-43.4
	C351.1,3.4,291,3.4,230.9,3.4z"/>
<path fill-rule="evenodd" clip-rule="evenodd" fill="#292523" d="M230.9,3.4c60.1,0,120.3,0,180.4,0c24.6,0,44.5,18.8,45.9,43.4
	c0.1,2.1,0.2,4.2,0.2,6.2c0,58.6,0,117.2,0,175.8c0,23.4-14.7,41.6-37.6,46.3c-2.8,0.6-5.8,0.8-8.7,0.8c-120.2,0-240.4,0-360.6,0
	C27,276,7.8,259.3,4.6,236.1c-0.3-2.1-0.4-4.3-0.4-6.5c0-59.9,0-119.9,0-179.8c0-10.4,2.9-19.9,9.3-28.2C22.7,9.8,34.9,3.5,49.9,3.5
	C110.2,3.4,170.5,3.4,230.9,3.4z M230.7,274.5c60.1,0,120.3,0,180.4,0c24.9,0,44.7-19.8,44.7-44.8c0-59.4,0-118.9,0-178.3
	c0-1.8-0.1-3.7-0.2-5.5C453.4,22.2,434.6,5,410.9,5C290.8,5,170.7,5,50.5,5C25.4,5,5.7,24.8,5.7,49.9c0,60,0,120,0,180.1
	c0,2.5,0.2,5,0.7,7.5c4.3,22.4,22,37,44.8,37C111,274.5,170.8,274.5,230.7,274.5z"/>
<path fill-rule="evenodd" clip-rule="evenodd" fill="#FDFCFC" d="M230.7,274.5c-59.8,0-119.6,0-179.4,0c-22.8,0-40.6-14.6-44.8-37
	c-0.5-2.4-0.7-5-0.7-7.5c0-60,0-120,0-180.1C5.7,24.8,25.4,5,50.5,5c120.1,0,240.2,0,360.4,0c23.7,0,42.5,17.2,44.7,40.8
	c0.2,1.8,0.2,3.7,0.2,5.5c0,59.4,0,118.9,0,178.3c0,25-19.8,44.8-44.7,44.8C350.9,274.5,290.8,274.5,230.7,274.5z M230.7,257.1
	c60.1,0,120.3,0,180.4,0c15.4,0,27.3-11.8,27.3-27.2c0-60.3,0-120.5,0-180.8c0-2-0.3-4-0.7-5.9c-3.2-13-13.8-20.9-27.8-20.9
	c-118.8,0-237.6,0-356.4,0c-0.9,0-1.8,0-2.8,0C34.6,22.4,23,34.1,23,50.3c0,59.6,0.1,119.2-0.1,178.8c0,16.4,13.1,28.2,28.1,28.1
	C111,256.9,170.8,257.1,230.7,257.1z"/>
<path fill-rule="evenodd" clip-rule="evenodd" fill="#D7261D" d="M230.7,257.1c-59.9,0-119.8-0.2-179.7,0.1
	c-15,0.1-28.1-11.7-28.1-28.1C23.1,169.5,23,109.9,23,50.3c0-16.2,11.6-28,27.8-28.1c0.9,0,1.8,0,2.8,0c118.8,0,237.6,0,356.4,0
	c14,0,24.6,8,27.8,20.9c0.5,1.9,0.7,4,0.7,5.9c0,60.3,0,120.5,0,180.8c0,15.4-11.9,27.2-27.3,27.2
	C351,257.1,290.9,257.1,230.7,257.1z"/>
<path fill-rule="evenodd" clip-rule="evenodd" fill="#D7261D" d="M219.8,210c-13-20.5-25.7-40.4-38.4-60.4c0.6-0.4,1-0.7,1.5-0.9
	c17.5-10.7,25.8-26.2,23.8-46.8c-2.2-23.1-22.7-41.6-45.9-41.7c-18,0-36,0-54,0c-0.9,0-1.8,0.1-2.6,0.1c0,50,0,99.7,0,149.3
	c12.5,0,24.9,0,37.6,0c0-17.9,0-35.5,0-53.7c0.7,1,1.2,1.6,1.5,2.1c11.1,16.7,22.3,33.4,33.3,50.2c0.9,1.4,1.8,1.8,3.4,1.8
	c9.8-0.1,19.5,0,29.3,0C212.6,210,215.9,210,219.8,210z"/>
<path fill-rule="evenodd" clip-rule="evenodd" fill="#D7261D" d="M332.1,132.2c2.8-3.8,5.7-7.3,8.1-11.1c6.5-9.8,7.1-20.6,4.2-31.5
	c-2.9-10.8-10.2-18.6-19.7-24.2c-9-5.3-18.9-7.6-29.3-8.4c-17-1.4-33,1.6-47.7,10.6c-2,1.2-4,2.5-6.1,3.8
	c6.5,8.8,12.8,17.3,19.1,25.8c1-0.6,1.7-1,2.4-1.5c6.7-4.7,14-7.6,22.1-8.5c9.1-1,20.4,1.3,25.3,12.1c3.3,7.1-0.4,17.4-7.2,20.6
	c-4.8,2.2-9.8,2.3-14.9,2.1c-4.8-0.2-4.9-0.3-6,4.3c-1.6,6.2-3.1,12.4-4.6,18.7c5.3,0,10.3,0.1,15.3,0c5.2-0.1,9.7,1.7,13.7,4.7
	c11.5,8.5,9.4,24.8-1.1,30.5c-8.1,4.4-16.4,5-25.1,4.3c-7-0.6-13.1-3.6-19.2-6.8c-4.2-2.2-8.5-4.4-12.9-6.7c-4.3,9-8.6,17.7-13.1,27
	c5,2.8,9.5,6,14.6,8c17.4,6.7,35.4,8.4,53.8,5.6c15.4-2.4,28.4-9.1,37.8-22c8.2-11.3,9.6-23.7,5.9-36.8
	C345,144.1,339.1,137.6,332.1,132.2z"/>
<path fill-rule="evenodd" clip-rule="evenodd" fill="#FEFDFD" d="M219.8,210c-3.9,0-7.2,0-10.5,0c-9.8,0-19.5,0-29.3,0
	c-1.6,0-2.5-0.4-3.4-1.8c-11.1-16.8-22.2-33.5-33.3-50.2c-0.4-0.6-0.8-1.1-1.5-2.1c0,18.2,0,35.9,0,53.7c-12.7,0-25,0-37.6,0
	c0-49.7,0-99.3,0-149.3c0.9,0,1.8-0.1,2.6-0.1c18,0,36,0,54,0c23.2,0.1,43.7,18.6,45.9,41.7c1.9,20.6-6.3,36.1-23.8,46.8
	c-0.4,0.3-0.8,0.5-1.5,0.9C194.1,169.6,206.8,189.6,219.8,210z M142.7,127.4c4.4-0.2,8.7-0.3,13-0.8c9.8-1.2,17-9,17.6-18.8
	c0.5-9.2-5.9-18-15.3-19.9c-4.9-1-10.1-0.6-15.2-0.9C142.7,100.7,142.7,113.9,142.7,127.4z"/>
<path fill-rule="evenodd" clip-rule="evenodd" fill="#FEFCFC" d="M332.1,132.2c7.1,5.4,13,12,15.4,20.8c3.7,13.1,2.3,25.5-5.9,36.8
	c-9.4,12.9-22.4,19.6-37.8,22c-18.4,2.9-36.4,1.2-53.8-5.6c-5-1.9-9.6-5.2-14.6-8c4.5-9.3,8.8-18.1,13.1-27
	c4.4,2.3,8.6,4.5,12.9,6.7c6.1,3.2,12.2,6.2,19.2,6.8c8.7,0.7,17.1,0.1,25.1-4.3c10.4-5.7,12.5-22,1.1-30.5c-4-3-8.5-4.9-13.7-4.7
	c-5,0.1-10,0-15.3,0c1.6-6.3,3.1-12.5,4.6-18.7c1.2-4.6,1.2-4.6,6-4.3c5.1,0.2,10.1,0.1,14.9-2.1c6.8-3.1,10.4-13.4,7.2-20.6
	c-5-10.9-16.3-13.1-25.3-12.1c-8.1,0.9-15.5,3.8-22.1,8.5c-0.7,0.5-1.4,0.9-2.4,1.5c-6.3-8.5-12.6-17-19.1-25.8
	c2.1-1.3,4.1-2.6,6.1-3.8c14.7-9,30.7-12,47.7-10.6c10.3,0.8,20.2,3.1,29.3,8.4c9.5,5.6,16.8,13.3,19.7,24.2
	c2.9,10.9,2.3,21.7-4.2,31.5C337.7,124.8,334.9,128.3,332.1,132.2z"/>
<path fill-rule="evenodd" clip-rule="evenodd" fill="#D6271E" d="M142.7,127.4c0-13.6,0-26.7,0-40.3c5.2,0.3,10.4-0.1,15.2,0.9
	c9.4,1.9,15.8,10.7,15.3,19.9c-0.5,9.8-7.8,17.6-17.6,18.8C151.4,127.2,147.1,127.2,142.7,127.4z"/>
<title>IS-28</title>
<desc>Created with Sketch.</desc>
</svg>
