<?xml version="1.0" encoding="utf-8"?>
<!-- Generator: Adobe Illustrator 16.0.0, SVG Export Plug-In . SVG Version: 6.00 Build 0)  -->
<!DOCTYPE svg PUBLIC "-//W3C//DTD SVG 1.1//EN" "http://www.w3.org/Graphics/SVG/1.1/DTD/svg11.dtd">
<svg version="1.1" id="Layer_1" xmlns:sketch="http://www.bohemiancoding.com/sketch/ns"
	 xmlns="http://www.w3.org/2000/svg" xmlns:xlink="http://www.w3.org/1999/xlink" x="0px" y="0px" width="1037px" height="434px"
	 viewBox="0 0 1037 434" enable-background="new 0 0 1037 434" xml:space="preserve">
<title>IS-35</title>
<desc>Created with Sketch.</desc>
<path fill="#F7F7F7" d="M521.5,429.5c158.7,0,317.3,0,476,0c2.8,0,5.7-0.1,8.4-0.7c17.1-3.9,28.6-18.8,28.7-37.2c0.1-29,0-58,0-87
	c0-85.2-0.2-170.3,0.1-255.5c0.1-19.2-14.7-39.2-39.3-39.2c-228.8,0.3-457.6,0.2-686.5,0.2c-88.2,0-176.3,0-264.5,0
	c-9.8,0-18.3,3.1-25.3,9.9C10.5,28.3,7.6,38.4,7.6,50.2c0.2,113.7,0.4,227.3-0.1,341c-0.1,19.7,15.3,38.6,38.5,38.5
	C204.5,429.4,363,429.5,521.5,429.5z"/>
<path fill-rule="evenodd" clip-rule="evenodd" fill="#1D1C1A" d="M521.5,429.5c-158.5,0-317-0.2-475.5,0.2
	c-23.2,0.1-38.6-18.8-38.5-38.5C8,277.5,7.8,163.9,7.6,50.2c0-11.8,2.9-21.9,11.5-30.1c7.1-6.8,15.5-9.9,25.3-9.9
	c88.2,0,176.3,0,264.5,0c228.8,0,457.6,0.1,686.5-0.2c24.6,0,39.4,19.9,39.3,39.2c-0.3,85.2-0.1,170.3-0.1,255.5c0,29,0.1,58,0,87
	c-0.1,18.4-11.6,33.3-28.7,37.2c-2.7,0.6-5.6,0.7-8.4,0.7C838.8,429.5,680.2,429.5,521.5,429.5z M521,14.3
	C363.3,14.3,205.7,14.5,48,14C26.1,13.9,10.9,30.6,11,51.3c0.6,100.3,0.3,200.6,0.3,300.9c0,13.5,0,27,0,40.5
	c0,9.6,3.7,18.1,10.5,24.4c6.5,6.1,14.9,8.6,24.2,8.6c316.6-0.1,633.2-0.1,949.8-0.1c21.1,0,34.5-13.6,34.5-34.8
	c0-113.5-0.2-227,0.2-340.4c0.1-19-13.1-36.5-36.2-36.4C836.6,14.5,678.8,14.3,521,14.3z"/>
<path fill-rule="evenodd" clip-rule="evenodd" fill="#FCFCFC" d="M521,14.3c157.8,0,315.6,0.2,473.4-0.3
	c23.2-0.1,36.3,17.4,36.2,36.4c-0.5,113.5-0.2,227-0.2,340.4c0,21.2-13.5,34.8-34.5,34.8c-316.6,0-633.2,0-949.8,0.1
	c-9.3,0-17.7-2.5-24.2-8.6c-6.8-6.4-10.5-14.8-10.5-24.4c0-13.5,0-27,0-40.5c0-100.3,0.3-200.6-0.3-300.9C10.9,30.6,26.1,13.9,48,14
	C205.7,14.5,363.3,14.3,521,14.3z M27.2,395.2c2,10.6,8.1,15.1,20.4,15.1c314.8,0,629.5,0,944.3,0c2.2,0,4.3,0,6.5,0
	c7.7-0.2,14-5.6,15.8-13.4c0.3-1.9,0.8-3.8,0.8-5.7c0-113.5,0-226.9,0-340.4c0-1.8-0.1-3.7-0.2-5.5c-1.5-10.3-8.4-16-19.3-16
	c-316.4,0-632.9,0-949.3,0c-10,0-16.1,4.9-18.9,15c-0.1,1.8-0.3,3.6-0.3,5.5c0,113.2,0,226.3,0,339.5
	C26.9,391.3,27.1,393.3,27.2,395.2z"/>
<path fill-rule="evenodd" clip-rule="evenodd" fill="#2A1770" d="M27.2,44.3c2.8-10.2,8.9-15,18.9-15c316.4,0,632.9,0,949.3,0
	c10.9,0,17.8,5.8,19.3,16c-0.3,2.1-0.8,4.2-0.8,6.3c0,112.8,0,225.6,0,338.3c0,2.3,0.1,4.7,0.1,7c-1.8,7.8-8.1,13.2-15.8,13.4
	c-2.2,0.1-4.3,0-6.5,0c-314.8,0-629.5,0-944.3,0c-12.2,0-18.4-4.6-20.4-15.1c0.3-1.8,0.7-3.5,0.7-5.3c0-113.4,0-226.9,0-340.3
	C28,47.9,27.5,46.1,27.2,44.3z M730.1,180.9c-3.1,9.3-9.6,10.1-20.7,2.2c-5.2,7.5-10.3,15-15.6,22.6c8.9,7.5,18.4,12.7,30.2,10.9
	c21.9-3.3,35.2-19.2,35.3-41.9c0.1-28.3,0-56.6,0-84.9c0-1.4-0.1-2.9-0.2-4.4c-9.5,0-18.7,0-27.8,0c-0.6,0.7-1.6,1.4-1.6,2.1
	c-0.1,3.1,0.3,6.3,0.3,9.4C730.1,124.9,730.1,152.9,730.1,180.9z M383.1,188.2c0.4,1,0.7,2,1.1,3c0.3,0.7,0.7,1.5,1,2.2
	c6,17.3,24.5,28.1,42.3,24.7c18.6-3.5,31.2-18.4,31.4-37.5c0.2-10.5,0.4-21,0.4-31.5c0-15-0.2-30-0.3-45c0-4.6,0-9.2,0-14
	c-9.1,0-18,0-27.3,0c0,2.1,0,3.9,0,5.7c0,27.7,0,55.3,0,83c0,7-5.2,13.2-11,13.1c-5.9-0.1-10.3-5.6-10.4-12.9c0-28,0-56,0-84
	c0-1.8,0-3.6,0-5.8c-6.9,0-13.4-0.1-19.9,0c-2.5,0.1-5,0.6-7.6,1c-0.3,1.4-0.9,2.8-0.9,4.2c-0.1,29.1-0.1,58.1,0,87.2
	c0,1.5,0.7,3.1,1.1,4.6C383.1,187,383.1,187.6,383.1,188.2z M283.5,87.4c-0.5,1.6-1.4,3.2-1.4,4.8c-0.1,39.3-0.1,78.6,0,117.9
	c0,1.7,0.8,3.3,1.2,5c13.6-0.3,27.3,0.3,40.8-1.1c17.1-1.8,29.7-11.1,34.8-27.9c2.9-9.6,4-19.8,4.6-29.9c0.9-14.8,0.4-29.6-5.1-43.7
	c-6.3-16.2-19-25-36.4-25.1C309.1,87.5,296.3,87.5,283.5,87.4z M560.8,215.2c0.4-1.5,1.1-3,1.1-4.6c0.1-39.6,0.1-79.2,0-118.8
	c0-1.5-0.8-3-1.3-4.4c-8.7,0-17.5,0-26.2,0c-0.5,1.6-1.4,3.2-1.4,4.8c-0.1,13.4,0,26.8-0.1,40.1c0,1.6-1.2,3.3-1.9,4.9
	c-0.4-0.7-0.9-1.4-1.2-2.1c-6.3-14.4-12.7-28.8-18.9-43.2c-1.4-3.4-3.2-4.7-7-4.5c-7.5,0.3-14.9,0-22.4,0c-0.5,1.4-1.4,2.9-1.4,4.3
	c-0.1,39.7-0.1,79.3,0,119c0,1.5,0.8,3,1.2,4.5c9.1,0,18.3,0,27.4,0c0.4-1.8,1.2-3.6,1.2-5.4c0.1-16.7,0-33.4,0.1-50.1
	c0-1.3-1.5-4.2,2.2-3.4c7.3,19.6,14.7,39.2,22.1,59C543.3,215.2,552,215.2,560.8,215.2z M791.7,284.9c-6.4,1-12.2,1.8-17.8,2.9
	c-38.9,7.8-77.9,13.6-117.8,12.7c-18.5-0.4-36.5-2.3-54-7.9c-46.2-14.6-92.9-14.3-139.3-1.9c-26.8,7.1-53.7,10.9-81.2,11.5
	c-33.5,0.8-66.2-5.2-99.1-10.5c-9.3-1.5-18.6-3.1-28.1-4.7c0,5.8,0,11,0,16.5c1.1,0.2,2.1,0.4,3,0.6c15.5,2.2,30.9,4.9,46.4,6.5
	c26.3,2.7,52.6,5.7,79,6.7c31.4,1.2,62.3-4.1,92.5-13c45.3-13.5,89.9-10.8,134,5.5c3.1,1.1,6.4,1.8,9.7,2.3c28.2,4,56.6,2,84.7,0.2
	c22.8-1.5,45.4-6.1,68.1-9.5c6.7-1,13.2-2.4,19.8-3.7C791.7,294.3,791.7,290,791.7,284.9z M254.3,359.8c0.8,0.2,1.4,0.3,2,0.4
	c32.2,4.1,64.3,8.6,96.5,12.1c40.4,4.3,80.4,0.8,119.4-10.9c24.2-7.3,48.6-10.7,73.8-8.8c22.1,1.7,43.9,5.1,64.5,13.9
	c3.7,1.6,8.1,2.5,12.2,2.5c27.8,0.2,55.7,1.7,83.3-0.5c27.8-2.2,55.2-8.1,82.8-12.5c1.2-0.2,2.8-1.9,3-3c0.4-3.7,0.1-7.6,0.1-11.8
	c-2.1,0.2-3.5,0.3-5,0.6c-20,3.5-39.9,7-59.9,10.5c-22.7,3.9-45.7,3.9-68.7,4.2c-18.5,0.3-36.5-1.3-54.1-6.9
	c-46.3-14.9-93-15.1-139.7-3c-24,6.2-48,10.5-72.7,11.7c-35.3,1.7-70-3.6-104.7-9.4c-10.9-1.8-21.8-3.7-32.9-5.5
	C254.3,349.1,254.3,354.4,254.3,359.8z M791.8,314.1c-6,1-11.4,1.6-16.8,2.7c-39.5,8-79.2,13.9-119.8,12.9
	c-17.3-0.5-34.2-1.7-50.6-7c-46.6-15-93.7-15.2-140.7-3c-24.3,6.3-48.7,10.5-73.7,11.6c-36.9,1.7-72.9-4.5-109.1-10.4
	c-8.9-1.5-17.8-3-26.9-4.5c0,5.8,0,11.1,0,16.2c0.5,0.3,0.8,0.5,1.1,0.6c32.7,4.1,65.3,8.6,98,12.2c36.5,4,72.9,1.8,108.3-8.2
	c30.2-8.5,60.4-14.6,91.9-10.9c17.9,2.1,35.5,5.1,52.5,11.4c6,2.2,12.4,4.3,18.7,4.4c20.6,0.6,41.2,0.2,61.8,0.3
	c34.7,0.2,68.3-7.8,102.3-13.3c1.1-0.2,2.7-1.6,2.8-2.6C792,322.5,791.8,318.6,791.8,314.1z M609.9,215c1.1-4.1,2.2-7.9,3-11.8
	c0.5-2.5,1.5-3.7,4.2-3.6c8.3,0.2,16.7,0.2,25,0c2.8,0,3.7,1.1,4.2,3.6c0.8,4,2,7.9,3,11.7c9.9,0,19.3,0,28.8,0
	c-0.1-1,0-1.6-0.2-2.3c-11.5-40.7-22.9-81.4-34.6-122.1c-0.4-1.3-2.7-2.7-4.1-2.8c-5.8-0.3-11.7,0.1-17.5-0.2c-4-0.3-5.7,1-6.8,5
	c-8.4,31.2-17.2,62.3-25.8,93.5c-2.6,9.6-5.2,19.2-7.8,29C591.1,215,600.2,215,609.9,215z"/>
<path fill-rule="evenodd" clip-rule="evenodd" fill="#271B59" d="M1014.1,397c0-2.3-0.1-4.7-0.1-7c0-112.8,0-225.6,0-338.3
	c0-2.1,0.5-4.2,0.8-6.3c0.1,1.8,0.2,3.7,0.2,5.5c0,113.5,0,226.9,0,340.4C1015,393.1,1014.4,395,1014.1,397z"/>
<path fill-rule="evenodd" clip-rule="evenodd" fill="#271B5B" d="M27.2,44.3c0.3,1.8,0.7,3.5,0.7,5.3c0,113.4,0,226.9,0,340.3
	c0,1.8-0.5,3.5-0.7,5.3c-0.1-2-0.3-4-0.3-6c0-113.2,0-226.3,0-339.5C26.9,48,27.1,46.1,27.2,44.3z"/>
<path fill-rule="evenodd" clip-rule="evenodd" fill="#FCFBFC" d="M481.5,87.4c7.5,0.1,15,0.4,22.4,0c3.8-0.2,5.6,1.1,7,4.5
	c6.2,14.5,12.6,28.8,18.9,43.2c0.3,0.7,0.8,1.4,1.2,2.1c0.7,1.9,1.4,3.7,2.1,5.6c0.9-2.3,0.9-4.4,0.9-6.5
	c0.1-16.3,0.2-32.6,0.3-48.9c8.7,0,17.5,0,26.2,0c0.1,11.1,0.3,22.3,0.3,33.4c0,31.5-0.1,62.9-0.2,94.4c-8.8,0-17.6,0-26.5,0
	c-7.4-19.8-14.8-39.4-22.1-59c-0.8-2.6-1.7-5.2-2.5-7.8c-0.3,0.1-0.7,0.1-1,0.2c0,22.2,0,44.4,0,66.6c-9.1,0-18.3,0-27.4,0
	c-0.1-1-0.2-2-0.2-3c0-40.3,0-80.6,0-120.9C481.1,90,481.4,88.7,481.5,87.4z"/>
<path fill-rule="evenodd" clip-rule="evenodd" fill="#FAF9FA" d="M791.7,284.9c0,5.1,0,9.4,0,14.4c-6.6,1.2-13.2,2.7-19.8,3.7
	c-22.7,3.4-45.3,8-68.1,9.5c-28.2,1.8-56.5,3.8-84.7-0.2c-3.3-0.5-6.6-1.2-9.7-2.3c-44.1-16.4-88.7-19-134-5.5
	c-30.2,9-61,14.3-92.5,13c-26.4-1-52.7-4-79-6.7c-15.5-1.6-31-4.3-46.4-6.5c-1-0.1-1.9-0.3-3-0.6c0-5.5,0-10.8,0-16.5
	c9.5,1.6,18.8,3.2,28.1,4.7c32.8,5.3,65.6,11.2,99.1,10.5c27.5-0.6,54.4-4.4,81.2-11.5c46.4-12.3,93-12.7,139.3,1.9
	c17.6,5.5,35.5,7.5,54,7.9c39.9,0.9,78.9-5,117.8-12.7C779.5,286.7,785.3,285.9,791.7,284.9z"/>
<path fill-rule="evenodd" clip-rule="evenodd" fill="#F9F9FA" d="M254.3,359.8c0-5.4,0-10.7,0-16.5c11.1,1.9,22,3.7,32.9,5.5
	c34.6,5.8,69.3,11.1,104.7,9.4c24.7-1.2,48.7-5.5,72.7-11.7c46.7-12.1,93.4-11.9,139.7,3c17.6,5.7,35.6,7.2,54.1,6.9
	c23-0.3,45.9-0.2,68.7-4.2c20-3.5,39.9-7,59.9-10.5c1.4-0.2,2.9-0.3,5-0.6c0,4.3,0.2,8.1-0.1,11.8c-0.1,1.1-1.8,2.8-3,3
	c-27.6,4.4-55,10.3-82.8,12.5c-27.6,2.2-55.5,0.7-83.3,0.5c-4.1,0-8.4-0.9-12.2-2.5c-20.6-8.8-42.4-12.2-64.5-13.9
	c-25.2-1.9-49.6,1.5-73.8,8.8c-39,11.7-79,15.2-119.4,10.9c-32.2-3.4-64.3-8-96.5-12.1C255.7,360.2,255.1,360,254.3,359.8z"/>
<path fill-rule="evenodd" clip-rule="evenodd" fill="#F9F9FA" d="M791.8,314.1c0,4.5,0.2,8.4-0.1,12.3c-0.1,1-1.7,2.4-2.8,2.6
	c-33.9,5.5-67.6,13.5-102.3,13.3c-20.6-0.1-41.2,0.3-61.8-0.3c-6.3-0.2-12.7-2.2-18.7-4.4c-17-6.3-34.6-9.3-52.5-11.4
	c-31.5-3.7-61.7,2.3-91.9,10.9c-35.4,10-71.8,12.2-108.3,8.2c-32.7-3.5-65.3-8.1-98-12.2c-0.3,0-0.6-0.3-1.1-0.6
	c0-5.2,0-10.4,0-16.2c9.1,1.5,18,3.1,26.9,4.5c36.1,5.9,72.2,12.1,109.1,10.4c25-1.1,49.4-5.3,73.7-11.6c47-12.2,94-12,140.7,3
	c16.4,5.3,33.3,6.5,50.6,7c40.6,1.1,80.3-4.8,119.8-12.9C780.4,315.7,785.8,315.1,791.8,314.1z"/>
<path fill-rule="evenodd" clip-rule="evenodd" fill="#FBFBFC" d="M283.5,87.4c12.8,0.1,25.6,0.1,38.5,0.2c17.4,0,30.1,8.8,36.4,25.1
	c5.5,14.1,6,28.9,5.1,43.7c-0.6,10-1.7,20.3-4.6,29.9c-5.1,16.7-17.7,26.1-34.8,27.9c-13.5,1.4-27.2,0.8-40.8,1.1
	c-0.1-0.7-0.2-1.3-0.2-2c0-40.8,0-81.6,0-122.3C283.1,89.7,283.4,88.6,283.5,87.4z M308.5,188.4c4.3,0,8.4,0.1,12.5,0
	c6.4-0.2,12.4-5.8,14.3-11.9c3.5-11.3,2.3-22.8,2.3-34.2c0-4.8-0.4-9.8-1.9-14.3c-4.7-13.3-10.9-15.4-27.1-13.4
	C308.5,139,308.5,163.4,308.5,188.4z"/>
<path fill-rule="evenodd" clip-rule="evenodd" fill="#FDFCFD" d="M382.9,90.3c2.5-0.3,5-0.9,7.6-1c6.5-0.1,12.9,0,19.9,0
	c0,2.2,0,4,0,5.8c0,28,0,56,0,84c0,7.3,4.5,12.8,10.4,12.9c5.8,0.1,11-6,11-13.1c0-27.7,0-55.3,0-83c0-1.8,0-3.6,0-5.7
	c9.3,0,18.2,0,27.3,0c0,4.8,0,9.4,0,14c0.1,15,0.3,30,0.3,45c0,10.5-0.2,21-0.4,31.5c-0.3,19-12.8,34-31.4,37.5
	c-17.9,3.4-36.3-7.4-42.3-24.7c-0.3-0.8-0.6-1.5-1-2.2c-0.4-1-0.7-2-1.1-3c0-0.6,0-1.3,0-1.9c0-7.6,0-15.2-0.1-22.9
	C383,139.1,383,114.7,382.9,90.3z"/>
<path fill-rule="evenodd" clip-rule="evenodd" fill="#FCFBFC" d="M609.9,215c-9.6,0-18.8,0-28.5,0c2.7-9.9,5.2-19.5,7.8-29
	c8.6-31.2,17.3-62.3,25.8-93.5c1.1-4,2.8-5.3,6.8-5c5.8,0.4,11.7-0.1,17.5,0.2c1.5,0.1,3.7,1.6,4.1,2.8
	c11.6,40.7,23.1,81.4,34.6,122.1c0.2,0.6,0.1,1.3,0.2,2.3c-9.5,0-18.9,0-28.8,0c-1-3.8-2.3-7.7-3-11.7c-0.5-2.6-1.4-3.7-4.2-3.6
	c-8.3,0.1-16.7,0.1-25,0c-2.8-0.1-3.7,1.1-4.2,3.6C612.1,207.1,610.9,210.9,609.9,215z M620.2,177.2c6.8,0,12.9,0,19.5,0
	c-3.2-12.3-6.3-24.2-9.4-36.2c-0.3,0-0.6,0.1-0.9,0.1C626.3,153,623.3,165,620.2,177.2z"/>
<path fill-rule="evenodd" clip-rule="evenodd" fill="#FBFBFC" d="M731.3,85.4c9.1,0,18.3,0,27.8,0c0.1,1.5,0.2,3,0.2,4.4
	c0,28.3,0.1,56.6,0,84.9c0,22.6-13.4,38.5-35.3,41.9c-11.8,1.8-21.3-3.4-30.2-10.9c5.3-7.6,10.4-15.1,15.6-22.6
	c11,7.9,17.6,7.1,20.7-2.2c0.4-2.2,1.1-4.4,1.1-6.7C731.3,144.6,731.3,115,731.3,85.4z"/>
<path fill-rule="evenodd" clip-rule="evenodd" fill="#291A5D" d="M283.5,87.4c-0.1,1.1-0.4,2.3-0.4,3.5c0,40.8,0,81.6,0,122.3
	c0,0.7,0.1,1.3,0.2,2c-0.4-1.7-1.2-3.3-1.2-5c-0.1-39.3-0.1-78.6,0-117.9C282.1,90.6,283,89,283.5,87.4z"/>
<path fill-rule="evenodd" clip-rule="evenodd" fill="#281C5E" d="M481.5,87.4c-0.1,1.3-0.4,2.6-0.4,3.9c0,40.3,0,80.6,0,120.9
	c0,1,0.1,2,0.2,3c-0.4-1.5-1.2-3-1.2-4.5c-0.1-39.7-0.1-79.3,0-119C480.1,90.3,481,88.8,481.5,87.4z"/>
<path fill-rule="evenodd" clip-rule="evenodd" fill="#2A1B5E" d="M560.8,215.2c0.1-31.5,0.2-62.9,0.2-94.4c0-11.1-0.2-22.3-0.3-33.4
	c0.4,1.5,1.3,3,1.3,4.4c0.1,39.6,0.1,79.2,0,118.8C561.9,212.2,561.2,213.7,560.8,215.2z"/>
<path fill-rule="evenodd" clip-rule="evenodd" fill="#291A5F" d="M731.3,85.4c0,29.6,0,59.2-0.1,88.8c0,2.2-0.7,4.4-1.1,6.7
	c0-28-0.1-56-0.1-83.9c0-3.1-0.4-6.3-0.3-9.4C729.7,86.8,730.7,86.1,731.3,85.4z"/>
<path fill-rule="evenodd" clip-rule="evenodd" fill="#271A5E" d="M382.9,90.3c0.1,24.4,0.1,48.8,0.2,73.2c0,7.6,0,15.2,0.1,22.9
	c-0.4-1.5-1.1-3.1-1.1-4.6c-0.1-29.1-0.1-58.1,0-87.2C382,93.1,382.6,91.7,382.9,90.3z"/>
<path fill-rule="evenodd" clip-rule="evenodd" fill="#2B1F5F" d="M508.7,215.2c0-22.2,0-44.4,0-66.6c0.3-0.1,0.7-0.1,1-0.2
	c0.8,2.6,1.7,5.2,2.5,7.8c-3.6-0.8-2.2,2.1-2.2,3.4c-0.1,16.7,0,33.4-0.1,50.1C509.9,211.6,509.1,213.4,508.7,215.2z"/>
<path fill-rule="evenodd" clip-rule="evenodd" fill="#291E55" d="M534.4,87.4c-0.1,16.3-0.2,32.6-0.3,48.9c0,2.1,0,4.2-0.9,6.5
	c-0.7-1.9-1.4-3.7-2.1-5.6c0.6-1.6,1.8-3.3,1.9-4.9c0.2-13.4,0-26.8,0.1-40.1C533.1,90.6,534,89,534.4,87.4z"/>
<path fill-rule="evenodd" clip-rule="evenodd" fill="#271A5E" d="M383.1,188.2c0.4,1,0.7,2,1.1,3
	C383.8,190.2,383.5,189.2,383.1,188.2z"/>
<path fill-rule="evenodd" clip-rule="evenodd" fill="#2E1D71" d="M308.5,188.4c0-25,0-49.4,0-73.8c16.2-2,22.4,0,27.1,13.4
	c1.6,4.5,1.9,9.5,1.9,14.3c0,11.4,1.2,22.9-2.3,34.2c-1.9,6.1-7.9,11.7-14.3,11.9C316.9,188.5,312.8,188.4,308.5,188.4z"/>
<path fill-rule="evenodd" clip-rule="evenodd" fill="#2E1E6D" d="M620.2,177.2c3.1-12.2,6.1-24.1,9.2-36.1c0.3,0,0.6-0.1,0.9-0.1
	c3.1,11.9,6.2,23.9,9.4,36.2C633.1,177.2,627,177.2,620.2,177.2z"/>
</svg>
