<?xml version="1.0" encoding="utf-8"?>
<!-- Generator: Adobe Illustrator 15.0.0, SVG Export Plug-In . SVG Version: 6.00 Build 0)  -->
<!DOCTYPE svg PUBLIC "-//W3C//DTD SVG 1.1//EN" "http://www.w3.org/Graphics/SVG/1.1/DTD/svg11.dtd">
<svg version="1.1" id="Vrstva_1" xmlns="http://www.w3.org/2000/svg" xmlns:xlink="http://www.w3.org/1999/xlink" x="0px" y="0px"
	 width="220px" height="300px" viewBox="0 0 220 300" enable-background="new 0 0 220 300" xml:space="preserve">
<rect x="10" y="7" fill="#FFFFFF" width="202" height="288"/>
<polyline fill-rule="evenodd" clip-rule="evenodd" points="25.703,71.328 25.703,82.535 85.156,82.535 85.156,71.328 "/>
<polyline fill-rule="evenodd" clip-rule="evenodd" points="27.032,223.477 27.032,234.683 86.485,234.683 86.485,223.477 "/>
<polyline fill-rule="evenodd" clip-rule="evenodd" points="145.938,222.716 145.938,233.923 205.582,233.923 205.582,222.716 "/>
<polyline fill-rule="evenodd" clip-rule="evenodd" points="130.744,23.654 101.111,23.654 101.111,132.871 130.744,132.871 "/>
<polyline fill-rule="evenodd" clip-rule="evenodd" points="103.01,271.723 132.833,271.723 132.833,174.47 103.01,174.47 "/>
<path fill-rule="evenodd" clip-rule="evenodd" d="M110.988,297.934H16.207c-1.33,0-2.85-0.379-4.179-0.95
	c-1.33-0.569-2.659-1.33-3.609-2.469C6.139,292.426,5,289.386,5,286.727V13.207c0-1.52,0.379-3.04,0.948-4.37
	C6.52,7.508,7.28,6.179,8.419,5.228C10.508,2.948,13.548,2,16.207,2h94.781v5.127H16.207c-1.899-0.188-4.939,1.901-5.508,3.8
	c-0.19,0.569-0.381,1.52-0.381,2.28v273.52c-0.188,1.898,1.711,4.938,3.609,5.508c0.76,0.191,1.52,0.382,2.28,0.382h94.781
	 M205.771,2c1.52,0,3.04,0.188,4.369,0.76c1.33,0.57,2.471,1.52,3.609,2.468c2.28,2.28,3.229,5.129,3.229,7.979v273.52
	c0,1.329-0.188,2.85-0.76,4.179c-0.569,1.329-1.518,2.659-2.469,3.609c-2.279,2.28-5.129,3.419-7.979,3.419h-94.782v-5.317h94.782
	c1.901,0.188,4.938-1.901,5.508-3.609c0.382-0.76,0.572-1.521,0.572-2.28V13.207c0.188-1.901-1.901-5.129-3.8-5.508
	c-0.761-0.381-1.521-0.572-2.28-0.572h-94.782V2H205.771z"/>
</svg>
