<?xml version="1.0" encoding="utf-8"?>
<!-- Generator: Adobe Illustrator 15.0.0, SVG Export Plug-In . SVG Version: 6.00 Build 0)  -->
<!DOCTYPE svg PUBLIC "-//W3C//DTD SVG 1.1//EN" "http://www.w3.org/Graphics/SVG/1.1/DTD/svg11.dtd">
<svg version="1.1" id="Vrstva_1" xmlns="http://www.w3.org/2000/svg" xmlns:xlink="http://www.w3.org/1999/xlink" x="0px" y="0px"
	 width="300px" height="300px" viewBox="0 0 300 300" enable-background="new 0 0 300 300" xml:space="preserve">
<path fill="#FFFFFF" d="M165.969,292.739c-6.205,6.205-14.559,7.873-22.908,4.533c-2.389-0.953-4.777-2.625-6.686-4.533
	L8.693,165.058c-6.207-6.206-7.876-14.559-4.535-22.674c0.955-2.625,2.625-5.014,4.535-6.922L136.375,7.779
	c6.442-5.964,14.557-7.635,22.911-4.534c2.386,1.193,4.772,2.625,6.683,4.534l127.681,127.683
	c6.208,6.445,7.876,14.559,4.536,22.913c-0.954,2.385-2.623,4.772-4.536,6.683L165.969,292.739z"/>
<path fill="none" stroke="#000000" stroke-width="1.1339" stroke-miterlimit="10" d="M165.969,292.739
	c-6.205,6.205-14.559,7.873-22.908,4.533c-2.389-0.953-4.777-2.625-6.686-4.533L8.693,165.058
	c-6.207-6.206-7.876-14.559-4.535-22.674c0.955-2.625,2.625-5.014,4.535-6.922L136.375,7.779c6.442-5.964,14.557-7.635,22.911-4.534
	c2.386,1.193,4.772,2.625,6.683,4.534l127.681,127.683c6.208,6.445,7.876,14.559,4.536,22.913c-0.954,2.385-2.623,4.772-4.536,6.683
	L165.969,292.739z"/>
<polygon fill="#FFF500" points="151.174,253.598 47.833,150.26 151.174,47.158 254.511,150.26 "/>
<polygon fill="none" stroke="#000000" stroke-width="0.7087" stroke-miterlimit="10" points="151.174,253.598 47.833,150.26 
	151.174,47.158 254.511,150.26 "/>
<polyline points="61.514,216.644 58.854,213.947 217.157,57.83 219.927,60.396 "/>
<polyline points="66.162,221.29 63.501,218.598 221.806,62.476 224.572,65.04 "/>
<polyline points="69.879,226.404 67.219,223.708 225.523,67.59 228.293,70.154 "/>
<polyline points="74.061,231.514 71.4,228.821 229.706,72.7 232.475,75.265 "/>
<polyline points="78.708,236.628 76.046,233.931 234.351,77.813 237.121,80.377 "/>
<polyline points="82.889,240.809 80.23,238.112 238.535,81.995 241.304,84.56 "/>
</svg>
