<?xml version="1.0" encoding="UTF-8" standalone="no"?>
<!-- Created with Inkscape (http://www.inkscape.org/) -->

<svg
   xmlns:dc="http://purl.org/dc/elements/1.1/"
   xmlns:cc="http://creativecommons.org/ns#"
   xmlns:rdf="http://www.w3.org/1999/02/22-rdf-syntax-ns#"
   xmlns:svg="http://www.w3.org/2000/svg"
   xmlns="http://www.w3.org/2000/svg"
   version="1.1"
   width="94.410004"
   height="141.38976"
   id="svg3808">
  <defs
     id="defs3810" />
  <metadata
     id="metadata3813">
    <rdf:RDF>
      <cc:Work
         rdf:about="">
        <dc:format>image/svg+xml</dc:format>
        <dc:type
           rdf:resource="http://purl.org/dc/dcmitype/StillImage" />
        <dc:title></dc:title>
      </cc:Work>
    </rdf:RDF>
  </metadata>
  <g
     transform="translate(-332.795,-138.81017)"
     id="layer1">
    <g
       transform="matrix(1.25,0,0,-1.25,78.751625,882.29879)"
       id="g3433">
      <path
         d="m 278.5467,481.7511 0,113.0398 -75.312,0 0,-113.0398"
         id="path3076"
         style="fill:#1f1917;fill-opacity:1;fill-rule:evenodd;stroke:none" />
      <path
         d="m 239.9547,506.5911 30.528,10.7998 -2.232,3.6 -30.6,-10.6558"
         id="path3080"
         style="fill:#ffffff;fill-opacity:1;fill-rule:evenodd;stroke:none" />
      <path
         d="m 237.6507,527.1829 30.528,-10.7278 2.304,3.6718 -30.528,10.8"
         id="path3084"
         style="fill:#ffffff;fill-opacity:1;fill-rule:evenodd;stroke:none" />
      <path
         d="m 239.8827,526.2469 30.528,10.8 -2.232,3.672 -30.6,-10.656"
         id="path3088"
         style="fill:#ffffff;fill-opacity:1;fill-rule:evenodd;stroke:none" />
      <path
         d="m 237.6507,546.8389 30.528,-10.728 2.304,3.6 -30.528,10.872"
         id="path3092"
         style="fill:#ffffff;fill-opacity:1;fill-rule:evenodd;stroke:none" />
      <path
         d="m 239.8827,545.7589 30.528,10.728 -2.232,3.672 -30.6,-10.656"
         id="path3096"
         style="fill:#ffffff;fill-opacity:1;fill-rule:evenodd;stroke:none" />
      <path
         d="m 237.6507,566.0629 30.528,-10.728 2.304,3.672 -30.528,10.8"
         id="path3100"
         style="fill:#ffffff;fill-opacity:1;fill-rule:evenodd;stroke:none" />
      <path
         d="m 268.0347,485.3511 0,3.96 -28.08,0 0,12.096 28.08,0 0,4.824 -28.296,0.144 0,62.2798 28.296,0.144 0,5.112 -28.08,0 0,13.536 28.08,0 0,3.96 -32.616,0 0,-106.0558"
         id="path3104"
         style="fill:#ffffff;fill-opacity:1;fill-rule:evenodd;stroke:none" />
      <path
         d="m 278.7627,481.6791 0,113.1118 -10.728,0 0,-113.1118"
         id="path3110"
         style="fill:#5e5c59;fill-opacity:1;fill-rule:evenodd;stroke:none" />
      <path
         d="m 243.8232,575.4161 -0.006,8.3327 -1.4933,8e-4 -0.003,1.7918 5.0749,0 0.008,-1.7957 -1.5664,-0.003 0,-8.327"
         id="path3340"
         style="fill:#ffffff;fill-opacity:1;fill-rule:evenodd;stroke:none" />
      <path
         d="m 249.1526,575.4161 0.2339,1.0074 2.1948,0 0.216,-1.0074 2.0149,0 -2.3307,10.1279 -2.0216,0 -2.34,-10.1279 2.0327,0 z m 0.6117,2.7884 1.4032,0 -0.7016,2.986"
         id="path3342"
         style="fill:#ffffff;fill-opacity:1;fill-rule:evenodd;stroke:none" />
      <path
         d="m 254.9313,585.5477 2.4137,-5.0851 -2.4165,-5.0315 1.9236,-0.015 1.4726,2.9684 1.4286,-2.9534 2.0254,-0.0111 -2.4336,5.1169 2.4341,5.0108 -2.0128,0 -1.4001,-2.9753 -1.404,2.9753"
         id="path3344"
         style="fill:#ffffff;fill-opacity:1;fill-rule:evenodd;stroke:none" />
      <path
         d="m 262.8952,575.4161 0,10.1253 2.0333,0 0,-10.1253"
         id="path3346"
         style="fill:#ffffff;fill-opacity:1;fill-rule:evenodd;stroke:none" />
      <path
         d="m 243.8232,490.0932 -0.006,8.3328 -1.4933,8e-4 -0.003,1.7918 5.0749,0 0.008,-1.7958 -1.5664,-0.002 0,-8.3271"
         id="path3348"
         style="fill:#ffffff;fill-opacity:1;fill-rule:evenodd;stroke:none" />
      <path
         d="m 249.1526,490.0932 0.2339,1.0075 2.1948,0 0.216,-1.0075 2.0149,0 -2.3307,10.1279 -2.0216,0 -2.34,-10.1279 2.0327,0 z m 0.6117,2.7885 1.4032,0 -0.7016,2.986"
         id="path3350"
         style="fill:#ffffff;fill-opacity:1;fill-rule:evenodd;stroke:none" />
      <path
         d="m 254.9313,500.2248 2.4137,-5.0851 -2.4165,-5.0314 1.9236,-0.0151 1.4726,2.9685 1.4286,-2.9534 2.0254,-0.0111 -2.4336,5.1168 2.4341,5.0108 -2.0128,0 -1.4001,-2.9752 -1.404,2.9752"
         id="path3352"
         style="fill:#ffffff;fill-opacity:1;fill-rule:evenodd;stroke:none" />
      <path
         d="m 262.8952,490.0932 0,10.1254 2.0333,0 0,-10.1254"
         id="path3354"
         style="fill:#ffffff;fill-opacity:1;fill-rule:evenodd;stroke:none" />
    </g>
  </g>
</svg>
